<svg width="1590" height="362" viewBox="0 0 1590 362" fill="none" xmlns="http://www.w3.org/2000/svg">
<style>
    .svgIcon {
      opacity: 0;
	  transform:translateY(0.63rem); 
	  transition: all ease 0.5s;
    }
	.svgIcon1{
		transition-delay: 0s;
	}
	.svgIcon2{
		transition-delay: 0.2s;
	}
	.svgIcon3{
		transition-delay: 0.4s;
	}
	.svgIcon4{
		transition-delay: 0.6s;
	}
	.svgIcon5{
		transition-delay: 0.8s;
	}
	.svgIcon6{
		transition-delay: 1.2s;
	}
	.svgIcon7{
		transition-delay: 1.6s;
	}
	.svgIcon8{
		transition-delay: 2.0s;
	}
	.svgIcon9{
		transition-delay: 2.4s;
	}
  </style>
	<g>
		<g class="svgIcon svgIcon1">
			<g>
				<g opacity="0.64">
					<g>
						<path id="Vector" d="M578.5 99.6001H569.9V336.8H578.5V99.6001Z" fill="#DFE1E8" />
						<g>
							<path d="M1077.4 96H569.9V104.2H1077.4V96Z" fill="#DFE1E8" />
							<g>
								<path d="M1077.4 136.8H569.9V145H1077.4V136.8Z" fill="#DFE1E8" />
								<path d="M1077.4 177.2H569.9V185.4H1077.4V177.2Z" fill="#DFE1E8" />
								<path d="M1077.4 217.7H569.9V225.9H1077.4V217.7Z" fill="#DFE1E8" />
								<path d="M1077.4 266.3V258.1H569.9V266.3" fill="#DFE1E8" />
								<path d="M1077.4 258.9H569.9V267.1H1077.4V258.9Z" fill="#DFE1E8" />
								<path d="M1077.4 307.6V299.4H569.9V307.6" fill="#DFE1E8" />
								<path d="M1077.4 299.4H569.9V336.8H1077.4V299.4Z" fill="#DFE1E8" />
							</g>
							<path d="M1078 99.6001H1069.4V336.8H1078V99.6001Z" fill="#DFE1E8" />
						</g>
						<g>
							<path d="M608.5 260.1H593C591.1 260.1 589.6 258.6 589.6 256.7V236.6C589.6 234.7 591.1 233.2 593 233.2H608.5C610.4 233.2 611.9 234.7 611.9 236.6V256.7C611.9 258.6 610.3 260.1 608.5 260.1Z" fill="#DFE1E8" />
							<path d="M639.3 260.1H623.8C621.9 260.1 620.4 258.6 620.4 256.7V236.6C620.4 234.7 621.9 233.2 623.8 233.2H639.3C641.2 233.2 642.7 234.7 642.7 236.6V256.7C642.7 258.6 641.1 260.1 639.3 260.1Z" fill="#DFE1E8" />
							<path d="M670.3 260.1H654.8C652.9 260.1 651.4 258.6 651.4 256.7V236.6C651.4 234.7 652.9 233.2 654.8 233.2H670.3C672.2 233.2 673.7 234.7 673.7 236.6V256.7C673.7 258.6 672.2 260.1 670.3 260.1Z" fill="#DFE1E8" />
							<path d="M701.1 260.1H685.6C683.7 260.1 682.2 258.6 682.2 256.7V236.6C682.2 234.7 683.7 233.2 685.6 233.2H701.1C703 233.2 704.5 234.7 704.5 236.6V256.7C704.5 258.6 703 260.1 701.1 260.1Z" fill="#DFE1E8" />
							<path d="M734.8 260.1H719.3C717.4 260.1 715.9 258.6 715.9 256.7V236.6C715.9 234.7 717.4 233.2 719.3 233.2H734.8C736.7 233.2 738.2 234.7 738.2 236.6V256.7C738.2 258.6 736.7 260.1 734.8 260.1Z" fill="#DFE1E8" />
							<path d="M765.6 260.1H750.1C748.2 260.1 746.7 258.6 746.7 256.7V236.6C746.7 234.7 748.2 233.2 750.1 233.2H765.6C767.5 233.2 769 234.7 769 236.6V256.7C769 258.6 767.5 260.1 765.6 260.1Z" fill="#DFE1E8" />
							<path d="M796.7 260.1H781.2C779.3 260.1 777.8 258.6 777.8 256.7V236.6C777.8 234.7 779.3 233.2 781.2 233.2H796.7C798.6 233.2 800.1 234.7 800.1 236.6V256.7C800.1 258.6 798.6 260.1 796.7 260.1Z" fill="#DFE1E8" />
							<path d="M827.5 260.1H812C810.1 260.1 808.6 258.6 808.6 256.7V236.6C808.6 234.7 810.1 233.2 812 233.2H827.5C829.4 233.2 830.9 234.7 830.9 236.6V256.7C830.9 258.6 829.4 260.1 827.5 260.1Z" fill="#DFE1E8" />
							<path d="M862.8 260.1H847.3C845.4 260.1 843.9 258.6 843.9 256.7V236.6C843.9 234.7 845.4 233.2 847.3 233.2H862.8C864.7 233.2 866.2 234.7 866.2 236.6V256.7C866.2 258.6 864.7 260.1 862.8 260.1Z" fill="#DFE1E8" />
							<path d="M893.6 260.1H878.1C876.2 260.1 874.7 258.6 874.7 256.7V236.6C874.7 234.7 876.2 233.2 878.1 233.2H893.6C895.5 233.2 897 234.7 897 236.6V256.7C897 258.6 895.5 260.1 893.6 260.1Z" fill="#DFE1E8" />
							<path d="M924.7 260.1H909.2C907.3 260.1 905.8 258.6 905.8 256.7V236.6C905.8 234.7 907.3 233.2 909.2 233.2H924.7C926.6 233.2 928.1 234.7 928.1 236.6V256.7C928.1 258.6 926.6 260.1 924.7 260.1Z" fill="#DFE1E8" />
							<path d="M955.5 260.1H940C938.1 260.1 936.6 258.6 936.6 256.7V236.6C936.6 234.7 938.1 233.2 940 233.2H955.5C957.4 233.2 958.9 234.7 958.9 236.6V256.7C958.9 258.6 957.4 260.1 955.5 260.1Z" fill="#DFE1E8" />
							<path d="M989.2 260.1H973.7C971.8 260.1 970.3 258.6 970.3 256.7V236.6C970.3 234.7 971.8 233.2 973.7 233.2H989.2C991.1 233.2 992.6 234.7 992.6 236.6V256.7C992.6 258.6 991 260.1 989.2 260.1Z" fill="#DFE1E8" />
							<path d="M1020 260.1H1004.5C1002.6 260.1 1001.1 258.6 1001.1 256.7V236.6C1001.1 234.7 1002.6 233.2 1004.5 233.2H1020C1021.9 233.2 1023.4 234.7 1023.4 236.6V256.7C1023.4 258.6 1021.8 260.1 1020 260.1Z" fill="#DFE1E8" />
							<path d="M1051 260.1H1035.5C1033.6 260.1 1032.1 258.6 1032.1 256.7V236.6C1032.1 234.7 1033.6 233.2 1035.5 233.2H1051C1052.9 233.2 1054.4 234.7 1054.4 236.6V256.7C1054.4 258.6 1052.9 260.1 1051 260.1Z" fill="#DFE1E8" />
						</g>
						<g>
							<path d="M608.5 309.1H593C591.1 309.1 589.6 307.6 589.6 305.7V285.6C589.6 283.7 591.1 282.2 593 282.2H608.5C610.4 282.2 611.9 283.7 611.9 285.6V305.7C611.9 307.6 610.3 309.1 608.5 309.1Z" fill="#DFE1E8" />
							<path d="M639.3 309.1H623.8C621.9 309.1 620.4 307.6 620.4 305.7V285.6C620.4 283.7 621.9 282.2 623.8 282.2H639.3C641.2 282.2 642.7 283.7 642.7 285.6V305.7C642.7 307.6 641.1 309.1 639.3 309.1Z" fill="#DFE1E8" />
							<path d="M670.3 309.1H654.8C652.9 309.1 651.4 307.6 651.4 305.7V285.6C651.4 283.7 652.9 282.2 654.8 282.2H670.3C672.2 282.2 673.7 283.7 673.7 285.6V305.7C673.7 307.6 672.2 309.1 670.3 309.1Z" fill="#DFE1E8" />
							<path d="M701.1 309.1H685.6C683.7 309.1 682.2 307.6 682.2 305.7V285.6C682.2 283.7 683.7 282.2 685.6 282.2H701.1C703 282.2 704.5 283.7 704.5 285.6V305.7C704.5 307.6 703 309.1 701.1 309.1Z" fill="#DFE1E8" />
							<path d="M734.8 309.1H719.3C717.4 309.1 715.9 307.6 715.9 305.7V285.6C715.9 283.7 717.4 282.2 719.3 282.2H734.8C736.7 282.2 738.2 283.7 738.2 285.6V305.7C738.2 307.6 736.7 309.1 734.8 309.1Z" fill="#DFE1E8" />
							<path d="M765.6 309.1H750.1C748.2 309.1 746.7 307.6 746.7 305.7V285.6C746.7 283.7 748.2 282.2 750.1 282.2H765.6C767.5 282.2 769 283.7 769 285.6V305.7C769 307.6 767.5 309.1 765.6 309.1Z" fill="#DFE1E8" />
							<path d="M796.7 309.1H781.2C779.3 309.1 777.8 307.6 777.8 305.7V285.6C777.8 283.7 779.3 282.2 781.2 282.2H796.7C798.6 282.2 800.1 283.7 800.1 285.6V305.7C800.1 307.6 798.6 309.1 796.7 309.1Z" fill="#DFE1E8" />
							<path d="M827.5 309.1H812C810.1 309.1 808.6 307.6 808.6 305.7V285.6C808.6 283.7 810.1 282.2 812 282.2H827.5C829.4 282.2 830.9 283.7 830.9 285.6V305.7C830.9 307.6 829.4 309.1 827.5 309.1Z" fill="#DFE1E8" />
							<path d="M862.8 309.1H847.3C845.4 309.1 843.9 307.6 843.9 305.7V285.6C843.9 283.7 845.4 282.2 847.3 282.2H862.8C864.7 282.2 866.2 283.7 866.2 285.6V305.7C866.2 307.6 864.7 309.1 862.8 309.1Z" fill="#DFE1E8" />
							<path d="M893.6 309.1H878.1C876.2 309.1 874.7 307.6 874.7 305.7V285.6C874.7 283.7 876.2 282.2 878.1 282.2H893.6C895.5 282.2 897 283.7 897 285.6V305.7C897 307.6 895.5 309.1 893.6 309.1Z" fill="#DFE1E8" />
							<path d="M924.7 309.1H909.2C907.3 309.1 905.8 307.6 905.8 305.7V285.6C905.8 283.7 907.3 282.2 909.2 282.2H924.7C926.6 282.2 928.1 283.7 928.1 285.6V305.7C928.1 307.6 926.6 309.1 924.7 309.1Z" fill="#DFE1E8" />
							<path d="M955.5 309.1H940C938.1 309.1 936.6 307.6 936.6 305.7V285.6C936.6 283.7 938.1 282.2 940 282.2H955.5C957.4 282.2 958.9 283.7 958.9 285.6V305.7C958.9 307.6 957.4 309.1 955.5 309.1Z" fill="#DFE1E8" />
							<path d="M989.2 309.1H973.7C971.8 309.1 970.3 307.6 970.3 305.7V285.6C970.3 283.7 971.8 282.2 973.7 282.2H989.2C991.1 282.2 992.6 283.7 992.6 285.6V305.7C992.6 307.6 991 309.1 989.2 309.1Z" fill="#DFE1E8" />
							<path d="M1020 309.1H1004.5C1002.6 309.1 1001.1 307.6 1001.1 305.7V285.6C1001.1 283.7 1002.6 282.2 1004.5 282.2H1020C1021.9 282.2 1023.4 283.7 1023.4 285.6V305.7C1023.4 307.6 1021.8 309.1 1020 309.1Z" fill="#DFE1E8" />
							<path d="M1051 309.1H1035.5C1033.6 309.1 1032.1 307.6 1032.1 305.7V285.6C1032.1 283.7 1033.6 282.2 1035.5 282.2H1051C1052.9 282.2 1054.4 283.7 1054.4 285.6V305.7C1054.4 307.6 1052.9 309.1 1051 309.1Z" fill="#DFE1E8" />
						</g>
					</g>
					<g>
						<g>
							<g>
								<path d="M597.1 137.6H591.9C590.8 137.6 589.9 136.8 589.9 135.8V115.2C589.9 114.2 590.8 113.4 591.9 113.4H597.1C598.2 113.4 599.1 114.2 599.1 115.2V135.8C599 136.8 598.2 137.6 597.1 137.6Z" fill="#DFE1E8" />
								<path d="M590 114.5L592.5 110.7H596L598.9 114.4L590 114.5Z" fill="#DFE1E8" />
							</g>
							<path d="M596.1 109.1H592.6V110.7H596.1V109.1Z" fill="#DFE1E8" />
						</g>
						<g>
							<g>
								<path d="M614.7 137.6H609.5C608.4 137.6 607.5 136.8 607.5 135.8V115.2C607.5 114.2 608.4 113.4 609.5 113.4H614.7C615.8 113.4 616.7 114.2 616.7 115.2V135.8C616.7 136.8 615.8 137.6 614.7 137.6Z" fill="#DFE1E8" />
								<path d="M607.7 114.5L610.2 110.7H613.7L616.5 114.4L607.7 114.5Z" fill="#DFE1E8" />
							</g>
							<path d="M613.7 109.1H610.2V110.7H613.7V109.1Z" fill="#DFE1E8" />
						</g>
						<g>
							<g>
								<path d="M632.4 137.6H627.2C626.1 137.6 625.2 136.8 625.2 135.8V115.2C625.2 114.2 626.1 113.4 627.2 113.4H632.4C633.5 113.4 634.4 114.2 634.4 115.2V135.8C634.3 136.8 633.5 137.6 632.4 137.6Z" fill="#DFE1E8" />
								<path d="M625.3 114.5L627.8 110.7H631.3L634.2 114.4L625.3 114.5Z" fill="#DFE1E8" />
							</g>
							<path d="M631.4 109.1H627.9V110.7H631.4V109.1Z" fill="#DFE1E8" />
						</g>
						<g>
							<g>
								<path d="M650 137.6H644.8C643.7 137.6 642.8 136.8 642.8 135.8V115.2C642.8 114.2 643.7 113.4 644.8 113.4H650C651.1 113.4 652 114.2 652 115.2V135.8C652 136.8 651.1 137.6 650 137.6Z" fill="#DFE1E8" />
								<path d="M643 114.5L645.5 110.7H649L651.8 114.4L643 114.5Z" fill="#DFE1E8" />
							</g>
							<path d="M649 109.1H645.5V110.7H649V109.1Z" fill="#DFE1E8" />
						</g>
						<g>
							<g>
								<path d="M667.7 137.6H662.5C661.4 137.6 660.5 136.8 660.5 135.8V115.2C660.5 114.2 661.4 113.4 662.5 113.4H667.7C668.8 113.4 669.7 114.2 669.7 115.2V135.8C669.6 136.8 668.8 137.6 667.7 137.6Z" fill="#DFE1E8" />
								<path d="M660.6 114.5L663.1 110.7H666.6L669.5 114.4L660.6 114.5Z" fill="#DFE1E8" />
							</g>
							<path d="M666.7 109.1H663.2V110.7H666.7V109.1Z" fill="#DFE1E8" />
						</g>
						<g>
							<g>
								<path d="M685.3 137.6H680.1C679 137.6 678.1 136.8 678.1 135.8V115.2C678.1 114.2 679 113.4 680.1 113.4H685.3C686.4 113.4 687.3 114.2 687.3 115.2V135.8C687.3 136.8 686.4 137.6 685.3 137.6Z" fill="#DFE1E8" />
								<path d="M678.3 114.5L680.8 110.7H684.3L687.1 114.4L678.3 114.5Z" fill="#DFE1E8" />
							</g>
							<path d="M684.3 109.1H680.8V110.7H684.3V109.1Z" fill="#DFE1E8" />
						</g>
						<g>
							<g>
								<path d="M703 137.6H697.8C696.7 137.6 695.8 136.8 695.8 135.8V115.2C695.8 114.2 696.7 113.4 697.8 113.4H703C704.1 113.4 705 114.2 705 115.2V135.8C704.9 136.8 704.1 137.6 703 137.6Z" fill="#DFE1E8" />
								<path d="M695.9 114.5L698.4 110.7H701.9L704.8 114.4L695.9 114.5Z" fill="#DFE1E8" />
							</g>
							<path d="M702 109.1H698.5V110.7H702V109.1Z" fill="#DFE1E8" />
						</g>
						<g>
							<g>
								<path d="M720.6 137.6H715.4C714.3 137.6 713.4 136.8 713.4 135.8V115.2C713.4 114.2 714.3 113.4 715.4 113.4H720.6C721.7 113.4 722.6 114.2 722.6 115.2V135.8C722.6 136.8 721.7 137.6 720.6 137.6Z" fill="#DFE1E8" />
								<path d="M713.6 114.5L716.1 110.7H719.6L722.4 114.4L713.6 114.5Z" fill="#DFE1E8" />
							</g>
							<path d="M719.6 109.1H716.1V110.7H719.6V109.1Z" fill="#DFE1E8" />
						</g>
						<g>
							<g>
								<path d="M738.3 137.6H733.1C732 137.6 731.1 136.8 731.1 135.8V115.2C731.1 114.2 732 113.4 733.1 113.4H738.3C739.4 113.4 740.3 114.2 740.3 115.2V135.8C740.2 136.8 739.4 137.6 738.3 137.6Z" fill="#DFE1E8" />
								<path d="M731.2 114.5L733.7 110.7H737.2L740.1 114.4L731.2 114.5Z" fill="#DFE1E8" />
							</g>
							<path d="M737.3 109.1H733.8V110.7H737.3V109.1Z" fill="#DFE1E8" />
						</g>
						<g>
							<g>
								<path d="M755.9 137.6H750.7C749.6 137.6 748.7 136.8 748.7 135.8V115.2C748.7 114.2 749.6 113.4 750.7 113.4H755.9C757 113.4 757.9 114.2 757.9 115.2V135.8C757.9 136.8 757 137.6 755.9 137.6Z" fill="#DFE1E8" />
								<path d="M748.9 114.5L751.4 110.7H754.9L757.7 114.4L748.9 114.5Z" fill="#DFE1E8" />
							</g>
							<path d="M754.9 109.1H751.4V110.7H754.9V109.1Z" fill="#DFE1E8" />
						</g>
						<g>
							<g>
								<path d="M773.6 137.6H768.4C767.3 137.6 766.4 136.8 766.4 135.8V115.2C766.4 114.2 767.3 113.4 768.4 113.4H773.6C774.7 113.4 775.6 114.2 775.6 115.2V135.8C775.5 136.8 774.7 137.6 773.6 137.6Z" fill="#DFE1E8" />
								<path d="M766.5 114.5L769 110.7H772.5L775.4 114.4L766.5 114.5Z" fill="#DFE1E8" />
							</g>
							<path d="M772.6 109.1H769.1V110.7H772.6V109.1Z" fill="#DFE1E8" />
						</g>
						<g>
							<g>
								<path d="M791.2 137.6H786C784.9 137.6 784 136.8 784 135.8V115.2C784 114.2 784.9 113.4 786 113.4H791.2C792.3 113.4 793.2 114.2 793.2 115.2V135.8C793.2 136.8 792.3 137.6 791.2 137.6Z" fill="#DFE1E8" />
								<path d="M784.2 114.5L786.7 110.7H790.2L793 114.4L784.2 114.5Z" fill="#DFE1E8" />
							</g>
							<path d="M790.2 109.1H786.7V110.7H790.2V109.1Z" fill="#DFE1E8" />
						</g>
						<g>
							<g>
								<path d="M808.9 137.6H803.7C802.6 137.6 801.7 136.8 801.7 135.8V115.2C801.7 114.2 802.6 113.4 803.7 113.4H808.9C810 113.4 810.9 114.2 810.9 115.2V135.8C810.8 136.8 810 137.6 808.9 137.6Z" fill="#DFE1E8" />
								<path d="M801.9 114.5L804.3 110.7H807.8L810.7 114.4L801.9 114.5Z" fill="#DFE1E8" />
							</g>
							<path d="M807.9 109.1H804.4V110.7H807.9V109.1Z" fill="#DFE1E8" />
						</g>
						<g>
							<g>
								<path d="M826.5 137.6H821.3C820.2 137.6 819.3 136.8 819.3 135.8V115.2C819.3 114.2 820.2 113.4 821.3 113.4H826.5C827.6 113.4 828.5 114.2 828.5 115.2V135.8C828.5 136.8 827.6 137.6 826.5 137.6Z" fill="#DFE1E8" />
								<path d="M819.5 114.5L822 110.7H825.5L828.3 114.4L819.5 114.5Z" fill="#DFE1E8" />
							</g>
							<path d="M825.5 109.1H822V110.7H825.5V109.1Z" fill="#DFE1E8" />
						</g>
						<g>
							<g>
								<path d="M844.2 137.6H839C837.9 137.6 837 136.8 837 135.8V115.2C837 114.2 837.9 113.4 839 113.4H844.2C845.3 113.4 846.2 114.2 846.2 115.2V135.8C846.2 136.8 845.3 137.6 844.2 137.6Z" fill="#DFE1E8" />
								<path d="M837.2 114.5L839.6 110.7H843.1L846 114.4L837.2 114.5Z" fill="#DFE1E8" />
							</g>
							<path d="M843.2 109.1H839.7V110.7H843.2V109.1Z" fill="#DFE1E8" />
						</g>
						<g>
							<g>
								<path d="M861.8 137.6H856.6C855.5 137.6 854.6 136.8 854.6 135.8V115.2C854.6 114.2 855.5 113.4 856.6 113.4H861.8C862.9 113.4 863.8 114.2 863.8 115.2V135.8C863.8 136.8 862.9 137.6 861.8 137.6Z" fill="#DFE1E8" />
								<path d="M854.8 114.5L857.3 110.7H860.8L863.6 114.4L854.8 114.5Z" fill="#DFE1E8" />
							</g>
							<path d="M860.8 109.1H857.3V110.7H860.8V109.1Z" fill="#DFE1E8" />
						</g>
						<g>
							<g>
								<path d="M879.5 137.6H874.3C873.2 137.6 872.3 136.8 872.3 135.8V115.2C872.3 114.2 873.2 113.4 874.3 113.4H879.5C880.6 113.4 881.5 114.2 881.5 115.2V135.8C881.5 136.8 880.6 137.6 879.5 137.6Z" fill="#DFE1E8" />
								<path d="M872.5 114.5L874.9 110.7H878.4L881.3 114.4L872.5 114.5Z" fill="#DFE1E8" />
							</g>
							<path d="M878.5 109.1H875V110.7H878.5V109.1Z" fill="#DFE1E8" />
						</g>
						<g>
							<g>
								<path d="M897.1 137.6H891.9C890.8 137.6 889.9 136.8 889.9 135.8V115.2C889.9 114.2 890.8 113.4 891.9 113.4H897.1C898.2 113.4 899.1 114.2 899.1 115.2V135.8C899.1 136.8 898.2 137.6 897.1 137.6Z" fill="#DFE1E8" />
								<path d="M890.1 114.5L892.6 110.7H896.1L898.9 114.4L890.1 114.5Z" fill="#DFE1E8" />
							</g>
							<path d="M896.1 109.1H892.6V110.7H896.1V109.1Z" fill="#DFE1E8" />
						</g>
						<g>
							<g>
								<path d="M914.8 137.6H909.6C908.5 137.6 907.6 136.8 907.6 135.8V115.2C907.6 114.2 908.5 113.4 909.6 113.4H914.8C915.9 113.4 916.8 114.2 916.8 115.2V135.8C916.8 136.8 915.9 137.6 914.8 137.6Z" fill="#DFE1E8" />
								<path d="M907.8 114.5L910.2 110.7H913.7L916.6 114.4L907.8 114.5Z" fill="#DFE1E8" />
							</g>
							<path d="M913.8 109.1H910.3V110.7H913.8V109.1Z" fill="#DFE1E8" />
						</g>
						<g>
							<g>
								<path d="M932.4 137.6H927.2C926.1 137.6 925.2 136.8 925.2 135.8V115.2C925.2 114.2 926.1 113.4 927.2 113.4H932.4C933.5 113.4 934.4 114.2 934.4 115.2V135.8C934.4 136.8 933.5 137.6 932.4 137.6Z" fill="#DFE1E8" />
								<path d="M925.4 114.5L927.9 110.7H931.4L934.2 114.4L925.4 114.5Z" fill="#DFE1E8" />
							</g>
							<path d="M931.4 109.1H927.9V110.7H931.4V109.1Z" fill="#DFE1E8" />
						</g>
						<g>
							<g>
								<path d="M950.1 137.6H944.9C943.8 137.6 942.9 136.8 942.9 135.8V115.2C942.9 114.2 943.8 113.4 944.9 113.4H950.1C951.2 113.4 952.1 114.2 952.1 115.2V135.8C952.1 136.8 951.2 137.6 950.1 137.6Z" fill="#DFE1E8" />
								<path d="M943.1 114.5L945.5 110.7H949L951.9 114.4L943.1 114.5Z" fill="#DFE1E8" />
							</g>
							<path d="M949.1 109.1H945.6V110.7H949.1V109.1Z" fill="#DFE1E8" />
						</g>
						<g>
							<g>
								<path d="M967.7 137.6H962.5C961.4 137.6 960.5 136.8 960.5 135.8V115.2C960.5 114.2 961.4 113.4 962.5 113.4H967.7C968.8 113.4 969.7 114.2 969.7 115.2V135.8C969.7 136.8 968.8 137.6 967.7 137.6Z" fill="#DFE1E8" />
								<path d="M960.7 114.5L963.2 110.7H966.7L969.5 114.4L960.7 114.5Z" fill="#DFE1E8" />
							</g>
							<path d="M966.7 109.1H963.2V110.7H966.7V109.1Z" fill="#DFE1E8" />
						</g>
						<g>
							<g>
								<path d="M985.4 137.6H980.2C979.1 137.6 978.2 136.8 978.2 135.8V115.2C978.2 114.2 979.1 113.4 980.2 113.4H985.4C986.5 113.4 987.4 114.2 987.4 115.2V135.8C987.4 136.8 986.5 137.6 985.4 137.6Z" fill="#DFE1E8" />
								<path d="M978.4 114.5L980.8 110.7H984.3L987.2 114.4L978.4 114.5Z" fill="#DFE1E8" />
							</g>
							<path d="M984.4 109.1H980.9V110.7H984.4V109.1Z" fill="#DFE1E8" />
						</g>
						<g>
							<g>
								<path d="M1003 137.6H997.8C996.7 137.6 995.8 136.8 995.8 135.8V115.2C995.8 114.2 996.7 113.4 997.8 113.4H1003C1004.1 113.4 1005 114.2 1005 115.2V135.8C1005 136.8 1004.1 137.6 1003 137.6Z" fill="#DFE1E8" />
								<path d="M996 114.5L998.5 110.7H1002L1004.8 114.4L996 114.5Z" fill="#DFE1E8" />
							</g>
							<path d="M1002 109.1H998.5V110.7H1002V109.1Z" fill="#DFE1E8" />
						</g>
						<g>
							<g>
								<path d="M1020.7 137.6H1015.5C1014.4 137.6 1013.5 136.8 1013.5 135.8V115.2C1013.5 114.2 1014.4 113.4 1015.5 113.4H1020.7C1021.8 113.4 1022.7 114.2 1022.7 115.2V135.8C1022.7 136.8 1021.8 137.6 1020.7 137.6Z" fill="#DFE1E8" />
								<path d="M1013.7 114.5L1016.1 110.7H1019.6L1022.5 114.4L1013.7 114.5Z" fill="#DFE1E8" />
							</g>
							<path d="M1019.7 109.1H1016.2V110.7H1019.7V109.1Z" fill="#DFE1E8" />
						</g>
						<g>
							<g>
								<path d="M1038.3 137.6H1033.1C1032 137.6 1031.1 136.8 1031.1 135.8V115.2C1031.1 114.2 1032 113.4 1033.1 113.4H1038.3C1039.4 113.4 1040.3 114.2 1040.3 115.2V135.8C1040.3 136.8 1039.4 137.6 1038.3 137.6Z" fill="#DFE1E8" />
								<path d="M1031.3 114.5L1033.8 110.7H1037.3L1040.1 114.4L1031.3 114.5Z" fill="#DFE1E8" />
							</g>
							<path d="M1037.3 109.1H1033.8V110.7H1037.3V109.1Z" fill="#DFE1E8" />
						</g>
						<g>
							<g>
								<path d="M1056 137.6H1050.8C1049.7 137.6 1048.8 136.8 1048.8 135.8V115.2C1048.8 114.2 1049.7 113.4 1050.8 113.4H1056C1057.1 113.4 1058 114.2 1058 115.2V135.8C1058 136.8 1057.1 137.6 1056 137.6Z" fill="#DFE1E8" />
								<path d="M1049 114.5L1051.4 110.7H1054.9L1057.8 114.4L1049 114.5Z" fill="#DFE1E8" />
							</g>
							<path d="M1055 109.1H1051.5V110.7H1055V109.1Z" fill="#DFE1E8" />
						</g>
					</g>
					<g>
						<g>
							<g>
								<g>
									<path d="M596.9 220.701H591.7C590.6 220.701 589.7 219.9 589.7 218.9V198.3C589.7 197.3 590.6 196.5 591.7 196.5H596.9C598 196.5 598.9 197.3 598.9 198.3V218.9C598.9 219.9 598 220.701 596.9 220.701Z" fill="#DFE1E8" />
									<path d="M589.9 197.6L592.4 193.8H595.9L598.7 197.6H589.9Z" fill="#DFE1E8" />
								</g>
								<path d="M595.9 192.2H592.4V193.8H595.9V192.2Z" fill="#DFE1E8" />
							</g>
							<g>
								<g>
									<path d="M610.1 220.701H604.9C603.8 220.701 602.9 219.9 602.9 218.9V198.3C602.9 197.3 603.8 196.5 604.9 196.5H610.1C611.2 196.5 612.1 197.3 612.1 198.3V218.9C612.1 219.9 611.2 220.701 610.1 220.701Z" fill="#DFE1E8" />
									<path d="M603.1 197.6L605.6 193.8H609.1L611.9 197.6H603.1Z" fill="#DFE1E8" />
								</g>
								<path d="M609.1 192.2H605.6V193.8H609.1V192.2Z" fill="#DFE1E8" />
							</g>
						</g>
						<g>
							<g>
								<g>
									<path d="M632.6 220.701H627.4C626.3 220.701 625.4 219.9 625.4 218.9V198.3C625.4 197.3 626.3 196.5 627.4 196.5H632.6C633.7 196.5 634.6 197.3 634.6 198.3V218.9C634.5 219.9 633.7 220.701 632.6 220.701Z" fill="#DFE1E8" />
									<path d="M625.5 197.6L628 193.8H631.5L634.4 197.6H625.5Z" fill="#DFE1E8" />
								</g>
								<path d="M631.6 192.2H628.1V193.8H631.6V192.2Z" fill="#DFE1E8" />
							</g>
							<g>
								<g>
									<path d="M645.8 220.701H640.6C639.5 220.701 638.6 219.9 638.6 218.9V198.3C638.6 197.3 639.5 196.5 640.6 196.5H645.8C646.9 196.5 647.8 197.3 647.8 198.3V218.9C647.8 219.9 646.9 220.701 645.8 220.701Z" fill="#DFE1E8" />
									<path d="M638.8 197.6L641.3 193.8H644.8L647.6 197.6H638.8Z" fill="#DFE1E8" />
								</g>
								<path d="M644.8 192.2H641.3V193.8H644.8V192.2Z" fill="#DFE1E8" />
							</g>
						</g>
						<g>
							<g>
								<g>
									<path d="M668.2 220.701H663C661.9 220.701 661 219.9 661 218.9V198.3C661 197.3 661.9 196.5 663 196.5H668.2C669.3 196.5 670.2 197.3 670.2 198.3V218.9C670.2 219.9 669.3 220.701 668.2 220.701Z" fill="#DFE1E8" />
									<path d="M661.2 197.6L663.7 193.8H667.2L670 197.6H661.2Z" fill="#DFE1E8" />
								</g>
								<path d="M667.2 192.2H663.7V193.8H667.2V192.2Z" fill="#DFE1E8" />
							</g>
							<g>
								<g>
									<path d="M681.5 220.701H676.3C675.2 220.701 674.3 219.9 674.3 218.9V198.3C674.3 197.3 675.2 196.5 676.3 196.5H681.5C682.6 196.5 683.5 197.3 683.5 198.3V218.9C683.4 219.9 682.5 220.701 681.5 220.701Z" fill="#DFE1E8" />
									<path d="M674.4 197.6L676.9 193.8H680.4L683.3 197.6H674.4Z" fill="#DFE1E8" />
								</g>
								<path d="M680.5 192.2H677V193.8H680.5V192.2Z" fill="#DFE1E8" />
							</g>
						</g>
						<g>
							<g>
								<g>
									<path d="M703.9 220.701H698.7C697.6 220.701 696.7 219.9 696.7 218.9V198.3C696.7 197.3 697.6 196.5 698.7 196.5H703.9C705 196.5 705.9 197.3 705.9 198.3V218.9C705.8 219.9 705 220.701 703.9 220.701Z" fill="#DFE1E8" />
									<path d="M696.8 197.6L699.3 193.8H702.8L705.7 197.6H696.8Z" fill="#DFE1E8" />
								</g>
								<path d="M702.9 192.2H699.4V193.8H702.9V192.2Z" fill="#DFE1E8" />
							</g>
							<g>
								<g>
									<path d="M717.1 220.701H711.9C710.8 220.701 709.9 219.9 709.9 218.9V198.3C709.9 197.3 710.8 196.5 711.9 196.5H717.1C718.2 196.5 719.1 197.3 719.1 198.3V218.9C719.1 219.9 718.2 220.701 717.1 220.701Z" fill="#DFE1E8" />
									<path d="M710.1 197.6L712.6 193.8H716.1L718.9 197.6H710.1Z" fill="#DFE1E8" />
								</g>
								<path d="M716.1 192.2H712.6V193.8H716.1V192.2Z" fill="#DFE1E8" />
							</g>
						</g>
						<g>
							<g>
								<g>
									<path d="M739.5 220.701H734.3C733.2 220.701 732.3 219.9 732.3 218.9V198.3C732.3 197.3 733.2 196.5 734.3 196.5H739.5C740.6 196.5 741.5 197.3 741.5 198.3V218.9C741.5 219.9 740.6 220.701 739.5 220.701Z" fill="#DFE1E8" />
									<path d="M732.5 197.6L735 193.8H738.5L741.3 197.6H732.5Z" fill="#DFE1E8" />
								</g>
								<path d="M738.5 192.2H735V193.8H738.5V192.2Z" fill="#DFE1E8" />
							</g>
							<g>
								<g>
									<path d="M752.8 220.701H747.6C746.5 220.701 745.6 219.9 745.6 218.9V198.3C745.6 197.3 746.5 196.5 747.6 196.5H752.8C753.9 196.5 754.8 197.3 754.8 198.3V218.9C754.7 219.9 753.9 220.701 752.8 220.701Z" fill="#DFE1E8" />
									<path d="M745.7 197.6L748.2 193.8H751.7L754.6 197.6H745.7Z" fill="#DFE1E8" />
								</g>
								<path d="M751.8 192.2H748.3V193.8H751.8V192.2Z" fill="#DFE1E8" />
							</g>
						</g>
						<g>
							<g>
								<g>
									<path d="M775.2 220.701H770C768.9 220.701 768 219.9 768 218.9V198.3C768 197.3 768.9 196.5 770 196.5H775.2C776.3 196.5 777.2 197.3 777.2 198.3V218.9C777.2 219.9 776.3 220.701 775.2 220.701Z" fill="#DFE1E8" />
									<path d="M768.2 197.6L770.6 193.8H774.1L777 197.6H768.2Z" fill="#DFE1E8" />
								</g>
								<path d="M774.2 192.2H770.7V193.8H774.2V192.2Z" fill="#DFE1E8" />
							</g>
							<g>
								<g>
									<path d="M788.4 220.701H783.2C782.1 220.701 781.2 219.9 781.2 218.9V198.3C781.2 197.3 782.1 196.5 783.2 196.5H788.4C789.5 196.5 790.4 197.3 790.4 198.3V218.9C790.4 219.9 789.5 220.701 788.4 220.701Z" fill="#DFE1E8" />
									<path d="M781.4 197.6L783.9 193.8H787.4L790.2 197.6H781.4Z" fill="#DFE1E8" />
								</g>
								<path d="M787.4 192.2H783.9V193.8H787.4V192.2Z" fill="#DFE1E8" />
							</g>
						</g>
						<g>
							<g>
								<g>
									<path d="M810.8 220.701H805.6C804.5 220.701 803.6 219.9 803.6 218.9V198.3C803.6 197.3 804.5 196.5 805.6 196.5H810.8C811.9 196.5 812.8 197.3 812.8 198.3V218.9C812.8 219.9 811.9 220.701 810.8 220.701Z" fill="#DFE1E8" />
									<path d="M803.8 197.6L806.3 193.8H809.8L812.6 197.6H803.8Z" fill="#DFE1E8" />
								</g>
								<path d="M809.8 192.2H806.3V193.8H809.8V192.2Z" fill="#DFE1E8" />
							</g>
							<g>
								<g>
									<path d="M824.1 220.701H818.9C817.8 220.701 816.9 219.9 816.9 218.9V198.3C816.9 197.3 817.8 196.5 818.9 196.5H824.1C825.2 196.5 826.1 197.3 826.1 198.3V218.9C826.1 219.9 825.2 220.701 824.1 220.701Z" fill="#DFE1E8" />
									<path d="M817.1 197.6L819.5 193.8H823L825.9 197.6H817.1Z" fill="#DFE1E8" />
								</g>
								<path d="M823.1 192.2H819.6V193.8H823.1V192.2Z" fill="#DFE1E8" />
							</g>
						</g>
						<g>
							<g>
								<g>
									<path d="M846.5 220.701H841.3C840.2 220.701 839.3 219.9 839.3 218.9V198.3C839.3 197.3 840.2 196.5 841.3 196.5H846.5C847.6 196.5 848.5 197.3 848.5 198.3V218.9C848.5 219.9 847.6 220.701 846.5 220.701Z" fill="#DFE1E8" />
									<path d="M839.5 197.6L842 193.8H845.5L848.3 197.6H839.5Z" fill="#DFE1E8" />
								</g>
								<path d="M845.5 192.2H842V193.8H845.5V192.2Z" fill="#DFE1E8" />
							</g>
							<g>
								<g>
									<path d="M859.7 220.701H854.5C853.4 220.701 852.5 219.9 852.5 218.9V198.3C852.5 197.3 853.4 196.5 854.5 196.5H859.7C860.8 196.5 861.7 197.3 861.7 198.3V218.9C861.7 219.9 860.8 220.701 859.7 220.701Z" fill="#DFE1E8" />
									<path d="M852.7 197.6L855.2 193.8H858.7L861.5 197.6H852.7Z" fill="#DFE1E8" />
								</g>
								<path d="M858.7 192.2H855.2V193.8H858.7V192.2Z" fill="#DFE1E8" />
							</g>
						</g>
						<g>
							<g>
								<g>
									<path d="M882.2 220.701H877C875.9 220.701 875 219.9 875 218.9V198.3C875 197.3 875.9 196.5 877 196.5H882.2C883.3 196.5 884.2 197.3 884.2 198.3V218.9C884.1 219.9 883.2 220.701 882.2 220.701Z" fill="#DFE1E8" />
									<path d="M875.1 197.6L877.6 193.8H881.1L884 197.6H875.1Z" fill="#DFE1E8" />
								</g>
								<path d="M881.2 192.2H877.7V193.8H881.2V192.2Z" fill="#DFE1E8" />
							</g>
							<g>
								<g>
									<path d="M895.4 220.701H890.2C889.1 220.701 888.2 219.9 888.2 218.9V198.3C888.2 197.3 889.1 196.5 890.2 196.5H895.4C896.5 196.5 897.4 197.3 897.4 198.3V218.9C897.4 219.9 896.5 220.701 895.4 220.701Z" fill="#DFE1E8" />
									<path d="M888.4 197.6L890.9 193.8H894.4L897.2 197.6H888.4Z" fill="#DFE1E8" />
								</g>
								<path d="M894.4 192.2H890.9V193.8H894.4V192.2Z" fill="#DFE1E8" />
							</g>
						</g>
						<g>
							<g>
								<g>
									<path d="M917.8 220.701H912.6C911.5 220.701 910.6 219.9 910.6 218.9V198.3C910.6 197.3 911.5 196.5 912.6 196.5H917.8C918.9 196.5 919.8 197.3 919.8 198.3V218.9C919.8 219.9 918.9 220.701 917.8 220.701Z" fill="#DFE1E8" />
									<path d="M910.8 197.6L913.3 193.8H916.8L919.6 197.6H910.8Z" fill="#DFE1E8" />
								</g>
								<path d="M916.8 192.2H913.3V193.8H916.8V192.2Z" fill="#DFE1E8" />
							</g>
							<g>
								<g>
									<path d="M931.1 220.701H925.9C924.8 220.701 923.9 219.9 923.9 218.9V198.3C923.9 197.3 924.8 196.5 925.9 196.5H931.1C932.2 196.5 933.1 197.3 933.1 198.3V218.9C933 219.9 932.1 220.701 931.1 220.701Z" fill="#DFE1E8" />
									<path d="M924 197.6L926.5 193.8H930L932.8 197.6H924Z" fill="#DFE1E8" />
								</g>
								<path d="M930.1 192.2H926.6V193.8H930.1V192.2Z" fill="#DFE1E8" />
							</g>
						</g>
						<g>
							<g>
								<g>
									<path d="M953.5 220.701H948.3C947.2 220.701 946.3 219.9 946.3 218.9V198.3C946.3 197.3 947.2 196.5 948.3 196.5H953.5C954.6 196.5 955.5 197.3 955.5 198.3V218.9C955.4 219.9 954.6 220.701 953.5 220.701Z" fill="#DFE1E8" />
									<path d="M946.4 197.6L948.9 193.8H952.4L955.3 197.6H946.4Z" fill="#DFE1E8" />
								</g>
								<path d="M952.5 192.2H949V193.8H952.5V192.2Z" fill="#DFE1E8" />
							</g>
							<g>
								<g>
									<path d="M966.7 220.701H961.5C960.4 220.701 959.5 219.9 959.5 218.9V198.3C959.5 197.3 960.4 196.5 961.5 196.5H966.7C967.8 196.5 968.7 197.3 968.7 198.3V218.9C968.7 219.9 967.8 220.701 966.7 220.701Z" fill="#DFE1E8" />
									<path d="M959.7 197.6L962.2 193.8H965.7L968.5 197.6H959.7Z" fill="#DFE1E8" />
								</g>
								<path d="M965.7 192.2H962.2V193.8H965.7V192.2Z" fill="#DFE1E8" />
							</g>
						</g>
						<g>
							<g>
								<g>
									<path d="M989.1 220.701H983.9C982.8 220.701 981.9 219.9 981.9 218.9V198.3C981.9 197.3 982.8 196.5 983.9 196.5H989.1C990.2 196.5 991.1 197.3 991.1 198.3V218.9C991.1 219.9 990.2 220.701 989.1 220.701Z" fill="#DFE1E8" />
									<path d="M982.1 197.6L984.6 193.8H988.1L990.9 197.6H982.1Z" fill="#DFE1E8" />
								</g>
								<path d="M988.1 192.2H984.6V193.8H988.1V192.2Z" fill="#DFE1E8" />
							</g>
							<g>
								<g>
									<path d="M1002.4 220.701H997.2C996.1 220.701 995.2 219.9 995.2 218.9V198.3C995.2 197.3 996.1 196.5 997.2 196.5H1002.4C1003.5 196.5 1004.4 197.3 1004.4 198.3V218.9C1004.3 219.9 1003.5 220.701 1002.4 220.701Z" fill="#DFE1E8" />
									<path d="M995.3 197.6L997.8 193.8H1001.3L1004.2 197.6H995.3Z" fill="#DFE1E8" />
								</g>
								<path d="M1001.4 192.2H997.9V193.8H1001.4V192.2Z" fill="#DFE1E8" />
							</g>
						</g>
						<g>
							<g>
								<g>
									<path d="M1024.8 220.701H1019.6C1018.5 220.701 1017.6 219.9 1017.6 218.9V198.3C1017.6 197.3 1018.5 196.5 1019.6 196.5H1024.8C1025.9 196.5 1026.8 197.3 1026.8 198.3V218.9C1026.8 219.9 1025.9 220.701 1024.8 220.701Z" fill="#DFE1E8" />
									<path d="M1017.8 197.6L1020.2 193.8H1023.7L1026.6 197.6H1017.8Z" fill="#DFE1E8" />
								</g>
								<path d="M1023.8 192.2H1020.3V193.8H1023.8V192.2Z" fill="#DFE1E8" />
							</g>
							<g>
								<g>
									<path d="M1038 220.701H1032.8C1031.7 220.701 1030.8 219.9 1030.8 218.9V198.3C1030.8 197.3 1031.7 196.5 1032.8 196.5H1038C1039.1 196.5 1040 197.3 1040 198.3V218.9C1040 219.9 1039.1 220.701 1038 220.701Z" fill="#DFE1E8" />
									<path d="M1031 197.6L1033.5 193.8H1037L1039.8 197.6H1031Z" fill="#DFE1E8" />
								</g>
								<path d="M1037 192.2H1033.5V193.8H1037V192.2Z" fill="#DFE1E8" />
							</g>
						</g>
					</g>
					<g>
						<g>
							<g>
								<path d="M597.1 179.4H591.9C590.8 179.4 589.9 178.6 589.9 177.6V157C589.9 156 590.8 155.2 591.9 155.2H597.1C598.2 155.2 599.1 156 599.1 157V177.6C599 178.6 598.2 179.4 597.1 179.4Z" fill="#DFE1E8" />
								<path d="M590 156.3L592.5 152.5H596L598.9 156.3H590Z" fill="#DFE1E8" />
							</g>
							<path d="M596.1 150.9H592.6V152.5H596.1V150.9Z" fill="#DFE1E8" />
						</g>
						<g>
							<g>
								<path d="M614.7 179.4H609.5C608.4 179.4 607.5 178.6 607.5 177.6V157C607.5 156 608.4 155.2 609.5 155.2H614.7C615.8 155.2 616.7 156 616.7 157V177.6C616.7 178.6 615.8 179.4 614.7 179.4Z" fill="#DFE1E8" />
								<path d="M607.7 156.3L610.2 152.5H613.7L616.5 156.3H607.7Z" fill="#DFE1E8" />
							</g>
							<path d="M613.7 150.9H610.2V152.5H613.7V150.9Z" fill="#DFE1E8" />
						</g>
						<g>
							<g>
								<path d="M632.4 179.4H627.2C626.1 179.4 625.2 178.6 625.2 177.6V157C625.2 156 626.1 155.2 627.2 155.2H632.4C633.5 155.2 634.4 156 634.4 157V177.6C634.3 178.6 633.5 179.4 632.4 179.4Z" fill="#DFE1E8" />
								<path d="M625.3 156.3L627.8 152.5H631.3L634.2 156.3H625.3Z" fill="#DFE1E8" />
							</g>
							<path d="M631.4 150.9H627.9V152.5H631.4V150.9Z" fill="#DFE1E8" />
						</g>
						<g>
							<g>
								<path d="M650 179.4H644.8C643.7 179.4 642.8 178.6 642.8 177.6V157C642.8 156 643.7 155.2 644.8 155.2H650C651.1 155.2 652 156 652 157V177.6C652 178.6 651.1 179.4 650 179.4Z" fill="#DFE1E8" />
								<path d="M643 156.3L645.5 152.5H649L651.8 156.3H643Z" fill="#DFE1E8" />
							</g>
							<path d="M649 150.9H645.5V152.5H649V150.9Z" fill="#DFE1E8" />
						</g>
						<g>
							<g>
								<path d="M667.7 179.4H662.5C661.4 179.4 660.5 178.6 660.5 177.6V157C660.5 156 661.4 155.2 662.5 155.2H667.7C668.8 155.2 669.7 156 669.7 157V177.6C669.6 178.6 668.8 179.4 667.7 179.4Z" fill="#DFE1E8" />
								<path d="M660.6 156.3L663.1 152.5H666.6L669.5 156.3H660.6Z" fill="#DFE1E8" />
							</g>
							<path d="M666.7 150.9H663.2V152.5H666.7V150.9Z" fill="#DFE1E8" />
						</g>
						<g>
							<g>
								<path d="M685.3 179.4H680.1C679 179.4 678.1 178.6 678.1 177.6V157C678.1 156 679 155.2 680.1 155.2H685.3C686.4 155.2 687.3 156 687.3 157V177.6C687.3 178.6 686.4 179.4 685.3 179.4Z" fill="#DFE1E8" />
								<path d="M678.3 156.3L680.8 152.5H684.3L687.1 156.3H678.3Z" fill="#DFE1E8" />
							</g>
							<path d="M684.3 150.9H680.8V152.5H684.3V150.9Z" fill="#DFE1E8" />
						</g>
						<g>
							<g>
								<path d="M703 179.4H697.8C696.7 179.4 695.8 178.6 695.8 177.6V157C695.8 156 696.7 155.2 697.8 155.2H703C704.1 155.2 705 156 705 157V177.6C704.9 178.6 704.1 179.4 703 179.4Z" fill="#DFE1E8" />
								<path d="M695.9 156.3L698.4 152.5H701.9L704.8 156.3H695.9Z" fill="#DFE1E8" />
							</g>
							<path d="M702 150.9H698.5V152.5H702V150.9Z" fill="#DFE1E8" />
						</g>
						<g>
							<g>
								<path d="M720.6 179.4H715.4C714.3 179.4 713.4 178.6 713.4 177.6V157C713.4 156 714.3 155.2 715.4 155.2H720.6C721.7 155.2 722.6 156 722.6 157V177.6C722.6 178.6 721.7 179.4 720.6 179.4Z" fill="#DFE1E8" />
								<path d="M713.6 156.3L716.1 152.5H719.6L722.4 156.3H713.6Z" fill="#DFE1E8" />
							</g>
							<path d="M719.6 150.9H716.1V152.5H719.6V150.9Z" fill="#DFE1E8" />
						</g>
						<g>
							<g>
								<path d="M738.3 179.4H733.1C732 179.4 731.1 178.6 731.1 177.6V157C731.1 156 732 155.2 733.1 155.2H738.3C739.4 155.2 740.3 156 740.3 157V177.6C740.2 178.6 739.4 179.4 738.3 179.4Z" fill="#DFE1E8" />
								<path d="M731.2 156.3L733.7 152.5H737.2L740.1 156.3H731.2Z" fill="#DFE1E8" />
							</g>
							<path d="M737.3 150.9H733.8V152.5H737.3V150.9Z" fill="#DFE1E8" />
						</g>
						<g>
							<g>
								<path d="M755.9 179.4H750.7C749.6 179.4 748.7 178.6 748.7 177.6V157C748.7 156 749.6 155.2 750.7 155.2H755.9C757 155.2 757.9 156 757.9 157V177.6C757.9 178.6 757 179.4 755.9 179.4Z" fill="#DFE1E8" />
								<path d="M748.9 156.3L751.4 152.5H754.9L757.7 156.3H748.9Z" fill="#DFE1E8" />
							</g>
							<path d="M754.9 150.9H751.4V152.5H754.9V150.9Z" fill="#DFE1E8" />
						</g>
						<g>
							<g>
								<path d="M773.6 179.4H768.4C767.3 179.4 766.4 178.6 766.4 177.6V157C766.4 156 767.3 155.2 768.4 155.2H773.6C774.7 155.2 775.6 156 775.6 157V177.6C775.5 178.6 774.7 179.4 773.6 179.4Z" fill="#DFE1E8" />
								<path d="M766.5 156.3L769 152.5H772.5L775.4 156.3H766.5Z" fill="#DFE1E8" />
							</g>
							<path d="M772.6 150.9H769.1V152.5H772.6V150.9Z" fill="#DFE1E8" />
						</g>
						<g>
							<g>
								<path d="M791.2 179.4H786C784.9 179.4 784 178.6 784 177.6V157C784 156 784.9 155.2 786 155.2H791.2C792.3 155.2 793.2 156 793.2 157V177.6C793.2 178.6 792.3 179.4 791.2 179.4Z" fill="#DFE1E8" />
								<path d="M784.2 156.3L786.7 152.5H790.2L793 156.3H784.2Z" fill="#DFE1E8" />
							</g>
							<path d="M790.2 150.9H786.7V152.5H790.2V150.9Z" fill="#DFE1E8" />
						</g>
						<g>
							<g>
								<path d="M808.9 179.4H803.7C802.6 179.4 801.7 178.6 801.7 177.6V157C801.7 156 802.6 155.2 803.7 155.2H808.9C810 155.2 810.9 156 810.9 157V177.6C810.8 178.6 810 179.4 808.9 179.4Z" fill="#DFE1E8" />
								<path d="M801.9 156.3L804.3 152.5H807.8L810.7 156.3H801.9Z" fill="#DFE1E8" />
							</g>
							<path d="M807.9 150.9H804.4V152.5H807.9V150.9Z" fill="#DFE1E8" />
						</g>
						<g>
							<g>
								<path d="M826.5 179.4H821.3C820.2 179.4 819.3 178.6 819.3 177.6V157C819.3 156 820.2 155.2 821.3 155.2H826.5C827.6 155.2 828.5 156 828.5 157V177.6C828.5 178.6 827.6 179.4 826.5 179.4Z" fill="#DFE1E8" />
								<path d="M819.5 156.3L822 152.5H825.5L828.3 156.3H819.5Z" fill="#DFE1E8" />
							</g>
							<path d="M825.5 150.9H822V152.5H825.5V150.9Z" fill="#DFE1E8" />
						</g>
						<g>
							<g>
								<path d="M844.2 179.4H839C837.9 179.4 837 178.6 837 177.6V157C837 156 837.9 155.2 839 155.2H844.2C845.3 155.2 846.2 156 846.2 157V177.6C846.2 178.6 845.3 179.4 844.2 179.4Z" fill="#DFE1E8" />
								<path d="M837.2 156.3L839.6 152.5H843.1L846 156.3H837.2Z" fill="#DFE1E8" />
							</g>
							<path d="M843.2 150.9H839.7V152.5H843.2V150.9Z" fill="#DFE1E8" />
						</g>
						<g>
							<g>
								<path d="M861.8 179.4H856.6C855.5 179.4 854.6 178.6 854.6 177.6V157C854.6 156 855.5 155.2 856.6 155.2H861.8C862.9 155.2 863.8 156 863.8 157V177.6C863.8 178.6 862.9 179.4 861.8 179.4Z" fill="#DFE1E8" />
								<path d="M854.8 156.3L857.3 152.5H860.8L863.6 156.3H854.8Z" fill="#DFE1E8" />
							</g>
							<path d="M860.8 150.9H857.3V152.5H860.8V150.9Z" fill="#DFE1E8" />
						</g>
						<g>
							<g>
								<path d="M879.5 179.4H874.3C873.2 179.4 872.3 178.6 872.3 177.6V157C872.3 156 873.2 155.2 874.3 155.2H879.5C880.6 155.2 881.5 156 881.5 157V177.6C881.5 178.6 880.6 179.4 879.5 179.4Z" fill="#DFE1E8" />
								<path d="M872.5 156.3L874.9 152.5H878.4L881.3 156.3H872.5Z" fill="#DFE1E8" />
							</g>
							<path d="M878.5 150.9H875V152.5H878.5V150.9Z" fill="#DFE1E8" />
						</g>
						<g>
							<g>
								<path d="M897.1 179.4H891.9C890.8 179.4 889.9 178.6 889.9 177.6V157C889.9 156 890.8 155.2 891.9 155.2H897.1C898.2 155.2 899.1 156 899.1 157V177.6C899.1 178.6 898.2 179.4 897.1 179.4Z" fill="#DFE1E8" />
								<path d="M890.1 156.3L892.6 152.5H896.1L898.9 156.3H890.1Z" fill="#DFE1E8" />
							</g>
							<path d="M896.1 150.9H892.6V152.5H896.1V150.9Z" fill="#DFE1E8" />
						</g>
						<g>
							<g>
								<path d="M914.8 179.4H909.6C908.5 179.4 907.6 178.6 907.6 177.6V157C907.6 156 908.5 155.2 909.6 155.2H914.8C915.9 155.2 916.8 156 916.8 157V177.6C916.8 178.6 915.9 179.4 914.8 179.4Z" fill="#DFE1E8" />
								<path d="M907.8 156.3L910.2 152.5H913.7L916.6 156.3H907.8Z" fill="#DFE1E8" />
							</g>
							<path d="M913.8 150.9H910.3V152.5H913.8V150.9Z" fill="#DFE1E8" />
						</g>
						<g>
							<g>
								<path d="M932.4 179.4H927.2C926.1 179.4 925.2 178.6 925.2 177.6V157C925.2 156 926.1 155.2 927.2 155.2H932.4C933.5 155.2 934.4 156 934.4 157V177.6C934.4 178.6 933.5 179.4 932.4 179.4Z" fill="#DFE1E8" />
								<path d="M925.4 156.3L927.9 152.5H931.4L934.2 156.3H925.4Z" fill="#DFE1E8" />
							</g>
							<path d="M931.4 150.9H927.9V152.5H931.4V150.9Z" fill="#DFE1E8" />
						</g>
						<g>
							<g>
								<path d="M950.1 179.4H944.9C943.8 179.4 942.9 178.6 942.9 177.6V157C942.9 156 943.8 155.2 944.9 155.2H950.1C951.2 155.2 952.1 156 952.1 157V177.6C952.1 178.6 951.2 179.4 950.1 179.4Z" fill="#DFE1E8" />
								<path d="M943.1 156.3L945.5 152.5H949L951.9 156.3H943.1Z" fill="#DFE1E8" />
							</g>
							<path d="M949.1 150.9H945.6V152.5H949.1V150.9Z" fill="#DFE1E8" />
						</g>
						<g>
							<g>
								<path d="M967.7 179.4H962.5C961.4 179.4 960.5 178.6 960.5 177.6V157C960.5 156 961.4 155.2 962.5 155.2H967.7C968.8 155.2 969.7 156 969.7 157V177.6C969.7 178.6 968.8 179.4 967.7 179.4Z" fill="#DFE1E8" />
								<path d="M960.7 156.3L963.2 152.5H966.7L969.5 156.3H960.7Z" fill="#DFE1E8" />
							</g>
							<path d="M966.7 150.9H963.2V152.5H966.7V150.9Z" fill="#DFE1E8" />
						</g>
						<g>
							<g>
								<path d="M985.4 179.4H980.2C979.1 179.4 978.2 178.6 978.2 177.6V157C978.2 156 979.1 155.2 980.2 155.2H985.4C986.5 155.2 987.4 156 987.4 157V177.6C987.4 178.6 986.5 179.4 985.4 179.4Z" fill="#DFE1E8" />
								<path d="M978.4 156.3L980.8 152.5H984.3L987.2 156.3H978.4Z" fill="#DFE1E8" />
							</g>
							<path d="M984.4 150.9H980.9V152.5H984.4V150.9Z" fill="#DFE1E8" />
						</g>
						<g>
							<g>
								<path d="M1003 179.4H997.8C996.7 179.4 995.8 178.6 995.8 177.6V157C995.8 156 996.7 155.2 997.8 155.2H1003C1004.1 155.2 1005 156 1005 157V177.6C1005 178.6 1004.1 179.4 1003 179.4Z" fill="#DFE1E8" />
								<path d="M996 156.3L998.5 152.5H1002L1004.8 156.3H996Z" fill="#DFE1E8" />
							</g>
							<path d="M1002 150.9H998.5V152.5H1002V150.9Z" fill="#DFE1E8" />
						</g>
						<g>
							<g>
								<path d="M1020.7 179.4H1015.5C1014.4 179.4 1013.5 178.6 1013.5 177.6V157C1013.5 156 1014.4 155.2 1015.5 155.2H1020.7C1021.8 155.2 1022.7 156 1022.7 157V177.6C1022.7 178.6 1021.8 179.4 1020.7 179.4Z" fill="#DFE1E8" />
								<path d="M1013.7 156.3L1016.1 152.5H1019.6L1022.5 156.3H1013.7Z" fill="#DFE1E8" />
							</g>
							<path d="M1019.7 150.9H1016.2V152.5H1019.7V150.9Z" fill="#DFE1E8" />
						</g>
						<g>
							<g>
								<path d="M1038.3 179.4H1033.1C1032 179.4 1031.1 178.6 1031.1 177.6V157C1031.1 156 1032 155.2 1033.1 155.2H1038.3C1039.4 155.2 1040.3 156 1040.3 157V177.6C1040.3 178.6 1039.4 179.4 1038.3 179.4Z" fill="#DFE1E8" />
								<path d="M1031.3 156.3L1033.8 152.5H1037.3L1040.1 156.3H1031.3Z" fill="#DFE1E8" />
							</g>
							<path d="M1037.3 150.9H1033.8V152.5H1037.3V150.9Z" fill="#DFE1E8" />
						</g>
						<g>
							<g>
								<path d="M1056 179.4H1050.8C1049.7 179.4 1048.8 178.6 1048.8 177.6V157C1048.8 156 1049.7 155.2 1050.8 155.2H1056C1057.1 155.2 1058 156 1058 157V177.6C1058 178.6 1057.1 179.4 1056 179.4Z" fill="#DFE1E8" />
								<path d="M1049 156.3L1051.4 152.5H1054.9L1057.8 156.3H1049Z" fill="#DFE1E8" />
							</g>
							<path d="M1055 150.9H1051.5V152.5H1055V150.9Z" fill="#DFE1E8" />
						</g>
					</g>
				</g>
			</g>
			<g>
				<g>
					<g opacity="0.64">
						<g>
							<path d="M1333.7 336.9H310.3V342H1333.7V336.9Z" fill="#DFE1E8" />
						</g>
					</g>
				</g>
			</g>
		</g>
		<g class="svgIcon svgIcon4">
			<g>
				<g>
					<g>
						<g>
							<path d="M1043.4 148.7C1041.6 143.7 1037 140 1031.7 140C1029.5 140 1027.2 140.6 1025.2 142.3C1019.1 147.6 1021.9 154.2 1019.5 158.5C1017.1 162.7 1004.6 166.3 1004.6 174.3C1004.6 180.1 1012.1 184.8 1018.8 184.8C1032.1 184.8 1043.3 178.4 1044.8 172.9C1045.9 168.8 1046.4 157.2 1043.4 148.7Z" fill="#1F1341" />
							<g>
								<g>
									<path d="M1055.9 265.8L1053 332.3L1046.9 332.5C1046.9 332.5 1041.9 308.9 1041.2 303.1C1040.5 297.3 1040.8 288.3 1041.3 284.7C1041.8 281.1 1041.3 265.1 1041.3 265.1" fill="#F7B29A" />
									<path d="M1050.5 275.8C1050.5 275.8 1044.6 284.8 1044.9 300.7C1045.1 313.3 1045.9 327.2 1045.9 327.2C1044.4 319.9 1041.8 307 1041.3 302.9C1040.6 297.1 1040.9 288.1 1041.4 284.5C1041.7 282.4 1041.7 276.3 1041.6 271.5L1050.5 275.8Z" fill="#D48068" />
									<g>
										<path d="M1046.9 332.3V335C1046.9 336.1 1047.8 336.9 1048.8 336.9H1065.6C1066.5 336.9 1066.9 335.8 1066.2 335.2C1065.6 334.7 1064.8 334.2 1063.7 333.7C1060.4 332.2 1052.7 329.2 1052.7 329.2L1046.9 332.3Z" fill="#1F1341" />
										<path d="M1060.9 332.6C1060 333.2 1058.7 333.9 1057.5 334C1055.3 334.1 1046.9 332.4 1046.9 332.4L1052.6 329.4C1052.6 329.3 1057.3 331.1 1060.9 332.6Z" fill="#F7B29A" />
									</g>
								</g>
								<g>
									<path d="M1049 268.6L1017.5 327.2L1012 324.7C1012 324.7 1017.8 301.3 1019.6 295.7C1021.4 290.1 1025.7 282.2 1027.7 279.2C1029.8 276.2 1036.2 261.5 1036.2 261.5" fill="#F7B29A" />
									<path d="M1025.7 282.5C1025.7 282.5 1043.2 281.9 1045.1 277.8C1047 273.8 1028.5 277.8 1028.5 277.8L1025.7 282.5Z" fill="#D48068" />
									<g>
										<path d="M1011.9 324.6L1010.7 327C1010.2 328 1010.6 329.1 1011.6 329.6L1026.7 336.9C1027.5 337.3 1028.3 336.5 1027.9 335.7C1027.6 335 1027 334.2 1026.3 333.2C1024 330.4 1018.4 324.4 1018.4 324.4L1011.9 324.6Z" fill="#1F1341" />
										<path d="M1024.4 330.9C1023.3 331.1 1021.8 331.1 1020.7 330.6C1018.7 329.7 1011.8 324.5 1011.8 324.5L1018.3 324.3C1018.4 324.3 1021.8 328 1024.4 330.9Z" fill="#F7B29A" />
									</g>
								</g>
							</g>
							<g>
								<path d="M1033.3 215.1C1033.3 215.1 1026.1 226.9 1020.7 242.3C1015.3 257.7 1010.6 273.3 1010.6 273.3C1010.6 273.3 1023.7 281.7 1038.8 281.3C1053.9 281 1063.9 276.3 1063.9 276.3C1063.9 276.3 1062.8 214.5 1060.4 212C1058 209.5 1036.3 209.4 1033.3 215.1Z" fill="#E30313" />
								<path d="M1035.3 169.9C1035.3 169.9 1031.6 170.3 1027.3 172.3C1021.7 174.9 1018.8 175.7 1017.6 179.9C1015.9 185.8 1027.9 206.9 1031.7 216.7C1032.7 219.2 1030.3 224.4 1030.3 224.4L1061.9 223.2C1061.9 223.2 1063.6 172.3 1053.6 171.2C1043.6 170.3 1035.3 169.9 1035.3 169.9Z" fill="#A7D07D" />
								<path d="M1070.3 211.8L1080.7 178.3C1080.7 178.3 1077.2 175.4 1074.2 174.8C1069.6 173.9 1052.7 174.2 1052.7 174.2L1051.3 179.7L1050.5 204.1" fill="#DEA62C" />
								<path d="M1074.2 174.7L1069.9 195.1L1076 187.5L1077.2 189.9L1080.8 178.3C1080.7 178.2 1077.5 175.1 1074.2 174.7Z" fill="#FEDA8C" />
								<path d="M1036.4 211.4L1035.1 180.2C1035.1 180.2 1040.8 178 1046.4 177.6C1049.5 177.4 1063.9 177.6 1063.9 177.6C1063.9 177.6 1064.2 194.4 1063.9 197.2C1063.6 200 1063.9 212.7 1063.9 212.7L1036.4 211.4Z" fill="#FEDA8C" />
								<path d="M1035.7 195.1C1035.7 195.1 1041.4 201.3 1045.6 201.3C1049.8 201.3 1063.9 201.3 1063.9 201.3V209.8L1035.7 209.2L1036.1 203.5L1035.7 195.1Z" fill="#DEA62C" />
								<path d="M1018.6 248.3C1018.6 248.3 1026 234.8 1036.4 230C1046.8 225.2 1061.9 226.5 1061.9 226.5L1062 214.6L1031.1 218.4C1031.1 218.4 1021.4 235.8 1018.6 248.3Z" fill="#990D0D" />
								<g>
									<path d="M1064 209.8C1065.2 209.3 1066.7 208.5 1067.7 207.6C1068.7 206.8 1068.4 205.4 1067.1 205.8C1065.8 206.2 1062.7 207.7 1061.2 208.6" fill="#F7B29A" />
									<g>
										<path d="M1056.6 210.4C1058.5 209.9 1062.3 208.2 1063.6 207.8C1064.9 207.4 1066 209.5 1067.4 211.4C1068.6 213.1 1068 214.7 1066 215.4C1064.6 215.9 1059.2 216.7 1056 216.7" fill="#F7B29A" />
										<path d="M1064.8 215.8C1066.8 215.5 1068.6 214.2 1069.2 213.6C1069.8 213 1071.2 211 1070.6 210.4C1070.1 209.9 1069.4 210.2 1068.9 211C1068.6 211.6 1067.9 212.2 1067.2 212.4" fill="#F7B29A" />
										<path d="M1066.7 213.5C1068.2 213 1070.2 212.3 1070.8 211.7C1071.4 211.1 1072.1 209.2 1071.4 208.7C1070.8 208.3 1070.4 208.9 1070.1 209.5C1069.8 210.1 1069.5 210.5 1068.7 210.7C1067.9 210.9 1067.4 211 1066.1 211.2" fill="#F7B29A" />
										<path d="M1066.7 211.5C1068.3 211.2 1070.7 210.4 1071.4 209.9C1072.1 209.4 1073.5 208.3 1072.9 207.7C1072.5 207.3 1071.8 207.6 1071.1 207.8C1069.6 208.3 1066.6 208.9 1064.9 209" fill="#F7B29A" />
									</g>
								</g>
								<path d="M1027.2 172.4C1027.2 172.4 1031.7 175.8 1037.7 175.8C1043.7 175.8 1050 171 1050 171C1050 171 1044.6 170 1038.9 169.9C1034.9 169.8 1032.9 169.9 1027.2 172.4Z" fill="#F7B29A" />
								<path d="M1031.6 172.1L1030 158.6L1038.6 159.8L1040.2 171" fill="#F7B29A" />
								<path d="M1035.1 165.4C1035.1 165.4 1036.2 168.8 1039.9 168.8L1039.4 165.4H1034.3" fill="#D48068" />
								<path d="M1040.1 144.4C1040.1 144.4 1043.7 148.7 1043.7 157.2C1043.7 162.4 1043.4 166.4 1040.1 166.9C1036.8 167.4 1035.3 167.6 1031.5 163.1C1027.7 158.7 1028.7 147.1 1032.7 146.2C1036.7 145.3 1040.1 144.4 1040.1 144.4Z" fill="#F7B29A" />
							</g>
							<path d="M1039 143C1039 143 1040.5 144.2 1041 144.8C1041.5 145.4 1039.2 150.9 1033.9 153.2C1028.6 155.5 1026.5 153.2 1026.5 153.2L1028 147.1" fill="#1F1341" />
							<path d="M1034.3 150.3C1034.3 150.3 1031.9 160.4 1028.5 163.8C1025.1 167.2 1023 166.6 1023 166.6V154.6" fill="#1F1341" />
						</g>
						<path d="M1030 181.8C1030 181.8 1023.4 172.2 1019.5 176.7C1017.6 178.9 1016.4 182.4 1016.3 186.1C1016.2 197.4 1021.7 215.4 1022.7 217.5C1023.9 219.8 1037.7 220.1 1043.3 219.9C1048.7 219.7 1059.5 217.7 1059.5 217.7L1059.3 209.2L1033.7 205.9L1030.7 185.5" fill="#A7D07D" />
						<path d="M1028.2 213.5C1020.6 209.7 1023.4 179.4 1019.2 179.7C1017.8 179.8 1016.9 181.7 1016.4 184C1016.4 184.3 1016.4 184.6 1016.4 185C1016.4 189.4 1017.1 195.2 1018 200.7C1019.7 208.8 1022 216.1 1022.7 217.4C1023.9 219.7 1037.7 220 1043.3 219.8C1048.7 219.6 1059.5 217.6 1059.5 217.6V217C1051.7 217.3 1034.1 216.4 1028.2 213.5Z" fill="#61A61C" />
					</g>
					<g>
						<path d="M995.4 261.2C995.4 261.2 998.5 268.2 1000.1 269.6C1001.8 271.2 1008.7 268.7 1015.3 263.3C1019.4 259.9 1022.3 256.3 1022.3 256.3L1018.8 253.6C1018.8 253.6 1007.8 260.4 1004.4 261.8L1001.7 256.4" fill="#F7B29A" />
						<path d="M1026.1 252.8C1025.7 253 1024.9 253.3 1024.5 253.4L1024.4 253.1C1025 252.1 1027.5 247.9 1026.8 247.7C1026.2 247.5 1025.8 247.9 1025.8 247.9C1025.8 247.9 1025.8 247.9 1025.5 247.8C1025.3 247.8 1025 247.8 1024.8 248.1C1024.6 248.3 1024.1 248.9 1024.1 248.9C1024.1 248.9 1023.7 248.7 1023.3 248.9C1022.9 249 1022.1 249.7 1021 251.2C1019.9 252.7 1017.1 255.1 1017.1 255.1L1018.8 257.7H1019.5C1019.5 257.7 1020.6 257.5 1021 257.3C1021.4 257.1 1025.6 254.5 1026.1 253.9C1026.7 253.3 1026.5 252.6 1026.1 252.8Z" fill="#F7B29A" />
					</g>
					<path d="M995 247.6C995 247.6 998.3 249.3 1001 254C1003.5 258.3 1004.1 260.5 1004.1 260.5L998.7 262.7" fill="#30ADBA" />
					<g>
						<g>
							<path d="M994.8 230.2C994.1 226.8 992.4 225.1 989.1 224.1C986.5 223.3 982.4 223.3 979.6 224.9C973.4 228.7 976 237.2 975.1 241C974.2 244.8 968.8 248.3 968.8 252C968.8 255.7 977 261.7 983 255.7C989 249.7 995.2 247.3 995.7 242.2C996 238.8 995.6 234 994.8 230.2Z" fill="#FEDA8C" />
							<g>
								<path d="M1000.1 333.3V335.9C1000.1 336.5 1000.6 336.9 1001.1 336.9H1008.5C1009 336.9 1009.2 336.3 1008.9 336C1008.6 335.7 1007.1 334.9 1006 334.5C1003.8 333.6 1002.7 333.5 1002.7 333.5L1000.1 333.3Z" fill="#1F1341" />
								<path d="M982.7 336.9H987.7C988.5 336.9 989 336.1 988.7 335.3C988.2 334.4 987.4 333.3 986 333.1C983.4 332.8 982 333.3 982 334.5C982 335.2 982 335.5 982 336C981.9 336.6 982.3 336.9 982.7 336.9Z" fill="#1F1341" />
								<path d="M991.7 297.8L1000.1 333.7L1004.1 333.8C1004.1 333.8 1003.9 295.3 998.5 288.8C993.1 282.3 991.7 297.8 991.7 297.8Z" fill="#F7B29A" />
								<path d="M998.9 306.6C998.9 306.6 997.3 309.4 997.3 314.2C997.3 319.1 998.9 328.6 998.9 328.6L993.3 304.8L998.9 306.6Z" fill="#D48068" />
								<g>
									<path d="M978 292.8C978 294.1 978.8 302 978.9 303.2C979.9 325.4 982.6 333.4 982.6 333.4L986.8 333.3C986.8 333.3 986.7 315.1 989 297.9" fill="#F7B29A" />
								</g>
								<path d="M981.9 305.6C981.9 305.6 980.6 319.7 981.1 326.3C981.1 326.3 976.7 300.6 979.7 299.6C982.7 298.7 981.9 305.6 981.9 305.6Z" fill="#D48068" />
							</g>
							<path d="M995 247.6C993 246.1 990.5 245.5 988.1 245.8C984.4 246.2 979 247.1 977.7 249.2C976.5 251.2 978.7 263.8 979.1 273.1C979.3 279 977.7 283.2 977.7 283.2L1000 281.5C1000 281.5 999.9 274.4 1000 266.7C1000.1 261.5 1000.5 257.4 999.3 253.5C998.6 251.2 996.4 248.6 995 247.6Z" fill="#76C8D8" />
							<path d="M978.7 264.1C978.7 264.1 980.4 259.4 982.9 262.8C985.3 266.2 979.4 275.9 979.4 275.9L978.7 264.1Z" fill="#30ADBA" />
							<path d="M992.8 276.3C998.82 276.3 1003.7 271.42 1003.7 265.4C1003.7 259.38 998.82 254.5 992.8 254.5C986.78 254.5 981.9 259.38 981.9 265.4C981.9 271.42 986.78 276.3 992.8 276.3Z" fill="#A7D07D" />
							<path d="M983.4 237.3L984.5 247.3H990.8V239.4" fill="#F7B29A" />
							<path d="M987.5 241.9C987.5 241.9 987 244.2 990.7 244.2V238.6L986.6 241.4" fill="#D48068" />
							<path d="M990.6 225C990.6 225 993.7 231 994.1 234.6C994.3 236.4 994.6 238.9 993.6 240.4C992.6 241.9 990.4 242.6 988.2 242.4C983.9 242 981.2 234 981.2 234" fill="#F7B29A" />
							<path d="M987 227.4C987 227.4 993.2 230.9 994 230.6C994.8 230.3 992.2 224.4 988.7 224.4C985.2 224.5 987 227.4 987 227.4Z" fill="#FEDA8C" />
							<path d="M989.2 227.7C989.2 227.7 989.9 236.7 981.7 239.5C973.5 242.4 980.4 227.7 980.4 227.7" fill="#FEDA8C" />
							<path d="M982.8 246.7C982.8 246.7 987.9 251.3 990.4 250.9C992.9 250.5 993 246.6 993 246.6C993 246.6 991.1 245.7 988.3 245.7C986.8 245.6 984.9 245.9 982.8 246.7Z" fill="#F7B29A" />
							<path d="M979.3 275.9L968.7 302.3C968.7 302.3 978.2 308.5 987.1 308.5C996 308.5 1004.1 307 1004.1 307L999.9 275.2L979.3 275.9Z" fill="#C28FBF" />
							<path d="M971 296.6C971 296.6 983.9 278.5 986.4 278.5C988.9 278.5 979.3 275.9 979.3 275.9L971 296.6Z" fill="#8856A6" />
							<path d="M970.2 262.2C970.2 262.2 967.3 269.3 967.3 271.4C967.3 273.7 973.9 277.1 982.3 278.2C987.6 278.9 992.2 278.5 992.2 278.5L991.8 274.1C991.8 274.1 979.3 270.8 976 269.2L978.1 263.5" fill="#F7B29A" />
						</g>
						<path d="M978.4 248.4C978.4 248.4 974.7 250.7 971 258C967.3 265.3 968 264.4 968 264.4L977.3 268.8L981.2 260.2" fill="#76C8D8" />
						<g>
							<path d="M995.4 273.9C996.2 273.5 997.2 273 997.9 272.4C998.5 271.9 998.4 270.9 997.5 271.2C996.6 271.5 993.9 272.9 992.5 273.4" fill="#F7B29A" />
							<g>
								<path d="M990.4 273.6C991.9 273.9 994.2 272.7 995.1 272.5C996 272.3 996.7 273.7 997.7 275C998.5 276.1 998.1 277.3 996.8 277.7C995.9 278 991.9 278.5 989.7 278.5" fill="#F7B29A" />
								<path d="M996 277.9C997.3 277.7 998.6 276.9 999 276.5C999.4 276.1 1000.4 274.8 1000 274.3C999.7 274 999.2 274.1 998.9 274.7C998.7 275.1 998.3 275.5 997.7 275.7" fill="#F7B29A" />
								<path d="M997.2 276.4C998.2 276 999.6 275.6 1000 275.2C1000.4 274.8 1000.9 273.5 1000.4 273.2C1000 272.9 999.7 273.3 999.5 273.7C999.3 274.1 999.1 274.4 998.6 274.5C998.1 274.6 997.7 274.7 996.8 274.8" fill="#F7B29A" />
								<path d="M997.2 275.1C998.3 274.9 999.9 274.3 1000.4 274C1000.9 273.7 1001.8 272.9 1001.4 272.5C1001.1 272.2 1000.6 272.4 1000.2 272.6C999.2 272.9 997.2 273.3 996 273.4" fill="#F7B29A" />
							</g>
						</g>
						<path d="M999.6 331.7H1004.1V333.8L1000.1 333.7L999.6 331.7Z" fill="#76C8D8" />
						<path d="M981.8 330.7H986.8L986.7 333.5H982.6L981.8 330.7Z" fill="#76C8D8" />
					</g>
				</g>
			</g>
			<g>
				<g>
					<g>
						<path d="M1224 238.3H1111.3V244.2H1224V238.3Z" fill="#888FA6" />
						<path d="M1201 238.3H1088.3V244.2H1201V238.3Z" fill="#B9C0D5" />
						<path d="M1221 244.3H1117V336.9H1221V244.3Z" fill="#990D0D" />
						<path d="M1221 244.3H1117V336.9H1221V244.3Z" fill="url(#paint0_linear_102_23500)" />
						<path d="M1201 244.3H1097V336.9H1201V244.3Z" fill="url(#paint1_linear_102_23500)" />
					</g>
					<path d="M1170.4 223.7H1134.7C1132.3 223.7 1130.3 222.1 1129.6 219.9L1122.7 196.1C1122 193.8 1123.8 191.4 1126.2 191.4H1161.6C1164.2 191.4 1166.4 193.1 1167.1 195.5L1173.9 219C1174.6 221.3 1172.8 223.7 1170.4 223.7Z" fill="#1F1341" />
					<path d="M1154.2 230.2H1144.1C1143.4 230.2 1142.8 229.8 1142.7 229.1L1140.7 222.3C1140.5 221.6 1141 221 1141.7 221H1151.8C1152.5 221 1153.2 221.5 1153.4 222.2L1155.3 228.9C1155.4 229.5 1154.9 230.2 1154.2 230.2Z" fill="#B9C0D5" />
					<path d="M1167.5 223.7H1131.8C1129.4 223.7 1127.4 222.1 1126.7 219.9L1119.8 196.1C1119.1 193.8 1120.9 191.4 1123.3 191.4H1158.7C1161.3 191.4 1163.5 193.1 1164.2 195.5L1171 219C1171.8 221.3 1170 223.7 1167.5 223.7Z" fill="#888FA6" />
					<path d="M1188 232.8L1171.9 227.4L1146.3 238.3H1188V232.8Z" fill="#1F1341" />
					<path d="M1171.9 227.4H1130.2V238.3H1171.9V227.4Z" fill="#888FA6" />
				</g>
			</g>
		</g>
		<g class="svgIcon svgIcon5">
			<path d="M361.7 268C364.24 268 366.3 265.94 366.3 263.4C366.3 260.859 364.24 258.8 361.7 258.8C359.159 258.8 357.1 260.859 357.1 263.4C357.1 265.94 359.159 268 361.7 268Z" fill="#E30313" />
			<g>
				<path d="M401.7 225.9C401.5 225.4 401.5 224.9 401.6 224.4C401.7 223.6 401.8 222.2 401 221.5C400.4 220.9 400.2 220.4 399.8 219.8C399.5 219.3 399.5 218.6 399.2 217.9C398.7 216.5 397.4 216.7 396.7 216C396 215.3 394.3 214.9 392.8 214.9C391.3 214.9 390.1 215.1 389 215.1C387.9 215.1 387.1 214.6 385.6 214.7C384.1 214.9 384.9 215.7 382.8 216.3C381.5 216.7 380.4 217.2 379.6 218.1C379.2 218.5 378.9 219.6 378.5 220.3C378.2 220.7 377.4 221.3 377 221.8C376.1 222.7 376.3 223.7 376.2 224.5C376.2 224.7 375.8 224.8 375.6 225.3C375.3 226.1 375.7 226.6 375.5 227.5C375.4 228 375 228.9 375 229.6C375 230.9 376 232.1 376 233.1C376 234.1 374.8 238.4 375.3 239C375.8 239.6 378.1 241.7 378.2 242.8C378.4 243.9 381.1 244.4 382.2 244.4C383.3 244.4 397.7 244 397.7 244C397.7 244 401.7 240.9 401.8 238.5C401.9 236.1 401.4 234.5 401.8 233.4C402.2 232.3 403.4 230.9 403.1 230C402.8 229.1 401.8 228.3 402 227.5C402 227 401.8 226.4 401.7 225.9Z" fill="#FEDA8C" />
				<path d="M395.5 235.1C395.5 235.1 390.5 238.1 389.2 238C387.9 237.9 383.7 234.9 383.7 234.9C383.7 234.9 385.8 243.9 388.9 244.1C392 244.3 395.5 235.1 395.5 235.1Z" fill="#DEA62C" />
				<path d="M401.8 226.7C401.8 226.7 402.3 229.6 400.1 231.9C397.9 234.2 395.7 234.9 395.4 235.6C395.1 236.3 390.4 238.2 389.2 238.2C388.3 238.2 384.9 235.8 383.6 235.7C382.3 235.6 376.5 233.9 376.5 233.9" fill="#FEDA8C" />
				<g>
					<path d="M390.1 215.2C390.1 215.2 391.8 210.8 393.5 211.3C394.9 211.7 395.5 216.1 395.5 216.1" fill="#FEDA8C" />
					<path d="M388.5 215C388.5 215 386.4 211.2 385 211.6C383.6 212.1 383.5 216.6 383.5 216.6" fill="#FEDA8C" />
				</g>
			</g>
			<path d="M352.4 268C354.941 268 357 265.94 357 263.4C357 260.859 354.941 258.8 352.4 258.8C349.859 258.8 347.8 260.859 347.8 263.4C347.8 265.94 349.859 268 352.4 268Z" fill="#E30313" />
			<path d="M345.639 276.543L369.539 276.543L369.539 267.943L345.639 267.943L345.639 276.543Z" fill="#FEDA8C" />
			<path d="M333.688 275.596L349.98 267.484L338.437 244.299L322.144 252.41L333.688 275.596Z" fill="#76A5D9" />
			<g>
				<g>
					<path d="M433.3 225.2C433.3 225.2 427 228.7 423.5 228.7H421C420 228.7 419.1 228.4 418.3 227.9L413 224.3C413 224.3 410.8 218.8 415.3 218.6C419.8 218.4 427 221.8 427 221.8" fill="#F7B29A" />
					<g>
						<path d="M469.8 328.4L469.9 334.3C469.9 335.6 468.9 336.7 467.6 336.7L450.9 337C449.9 337 449.3 335.8 450 335C450.7 334.2 454 332.5 456.4 331.5C461.5 329.4 463.9 329.1 463.9 329.1L469.8 328.4Z" fill="#1F1341" />
						<path d="M456.6 232.101L453.8 282.001L459.1 330.201H469.9C469.9 330.201 474.7 299.901 471.9 284.101C470.9 278.601 476.8 256.801 476.8 256.801L478.5 232.101H456.6Z" fill="#76A5D9" />
						<path d="M468.8 252.2L476.8 256.2V256.7C476.8 256.7 474.4 265.7 472.9 273.5C470.8 263.6 467.5 250.2 467.5 250.2L468.8 252.2Z" fill="#54579E" />
						<path d="M530.5 311.7L534.3 316.2C535.1 317.2 535 318.7 534 319.5L521.3 330.3C520.5 331 519.3 330.3 519.4 329.3C519.5 328.3 520.9 324.8 522.1 322.5C524.6 317.6 526.4 315.9 526.4 315.9L530.5 311.7Z" fill="#1F1341" />
						<path d="M483.1 226.3C483.1 226.3 493.1 247.5 496.7 258.5C500.3 269.5 501.4 276.3 503.3 278.2C505.2 280.1 516.6 288 522 297.2C528.4 308.2 531.6 313.1 531.6 313.1L524.7 317.9L490.4 287.9C489.8 287.4 489.4 286.9 489 286.2L462 240.7L483.1 226.3Z" fill="#76A5D9" />
						<path d="M467.6 166.6C467.6 166.6 453.6 164.5 450.8 180.1C448 195.7 450.5 211.8 451 217.4C451.5 223 453.8 236 453.8 236L491.2 230.7C491.2 230.7 486.2 189.7 486 186.7C485.7 183.6 486.9 168.3 467.6 166.6Z" fill="#FEDA8C" />
						<path d="M451 217.4C450.6 213.1 449.1 202.8 449.6 191.2C450.4 196 456.1 225.6 465.1 234.3L453.8 235.9C453.8 235.9 452.4 227.7 451.1 218.1C451 217.9 451 217.7 451 217.4Z" fill="#DEA62C" />
						<path d="M461 205.901L465.2 193.501C465.2 193.501 462.2 191.901 461 195.101C459.8 198.101 461 205.901 461 205.901Z" fill="#DEA62C" />
						<path d="M480.7 203.8C481.7 204 470.8 217.9 467.6 221.4C465.5 223.7 425.2 229 425.2 229L423.5 219.7C423.5 219.7 452 208.6 459.3 207.4L468.7 182.7" fill="#FEDA8C" />
						<path d="M465.5 218.2C467 217.6 468.8 214.9 470.6 211.3C471.5 209.6 472.3 207.8 472.9 205.9C473.9 203 475.4 198 476.8 192.4C478.2 186.7 479.4 184.7 480.1 188.8C480.6 191.8 478 203.7 476.1 207.8C474.5 211.4 470.7 219.7 467 221.6C461.9 224.3 425.1 228.9 425.1 228.9L424.8 227.1C424.9 227.1 460.5 220.2 465.5 218.2Z" fill="#DEA62C" />
					</g>
					<path d="M467.6 166.6C467.6 166.6 465.8 171 461.4 171.9C460.2 172.1 459 171.5 458.7 170.4C458.4 169.5 458.5 165 458.5 163.2C458.5 158.6 458.2 160.1 458.2 160.1L465.9 156.7L467.6 166.6Z" fill="#F7B29A" />
					<g>
						<g>
							<g>
								<g>
									<g>
										<g>
											<path d="M332.3 276.5H392.8L405.4 231L316.3 236.3L324.9 270.7C325.8 274.1 328.8 276.5 332.3 276.5Z" stroke="#888FA6" stroke-width="1.8094" stroke-miterlimit="10" stroke-linecap="round" stroke-linejoin="round" />
											<g>
												<g>
													<g>
														<g>
															<path d="M375.9 233V276.6" stroke="#888FA6" stroke-width="1.8094" stroke-miterlimit="10" stroke-linecap="round" stroke-linejoin="round" />
															<path d="M380.5 276.6L398.2 327.6" stroke="#888FA6" stroke-width="1.8094" stroke-miterlimit="10" stroke-linecap="round" stroke-linejoin="round" />
															<g>
																<path d="M401.8 244.3H318.4" stroke="#888FA6" stroke-width="1.8094" stroke-miterlimit="10" stroke-linecap="round" stroke-linejoin="round" />
																<path d="M322 258.8H375.9" stroke="#888FA6" stroke-width="1.8094" stroke-miterlimit="10" stroke-linecap="round" stroke-linejoin="round" />
																<path d="M336.1 235.3L342.4 276.6" stroke="#888FA6" stroke-width="1.8094" stroke-miterlimit="10" stroke-linecap="round" stroke-linejoin="round" />
																<path d="M358.2 234L361.1 276.6" stroke="#888FA6" stroke-width="1.8094" stroke-miterlimit="10" stroke-linecap="round" stroke-linejoin="round" />
															</g>
														</g>
														<path d="M387.2 296.1H331.8" stroke="#888FA6" stroke-width="1.8094" stroke-miterlimit="10" stroke-linecap="round" stroke-linejoin="round" />
														<path d="M334.3 327.6L342.4 296.1" stroke="#888FA6" stroke-width="1.8094" stroke-miterlimit="10" stroke-linecap="round" stroke-linejoin="round" />
													</g>
													<path d="M399.2 336.9C402.017 336.9 404.3 334.617 404.3 331.8C404.3 328.984 402.017 326.7 399.2 326.7C396.383 326.7 394.1 328.984 394.1 331.8C394.1 334.617 396.383 336.9 399.2 336.9Z" fill="#1F1341" />
													<path d="M332.9 336.9C335.717 336.9 338 334.617 338 331.8C338 328.984 335.717 326.7 332.9 326.7C330.083 326.7 327.8 328.984 327.8 331.8C327.8 334.617 330.083 336.9 332.9 336.9Z" fill="#1F1341" />
												</g>
												<path d="M316.5 237.8L405.5 232.5C406 232.5 406.5 232.1 406.6 231.6L408.3 226.5C408.4 226.2 408.6 226.1 408.9 226.1H418.7C419.4 226.1 420 225.5 420 224.8C420 224.1 419.4 223.5 418.7 223.5H408.9C407.5 223.5 406.3 224.4 405.9 225.7L404.5 230L316.4 235.3C315.7 235.3 315.2 235.9 315.2 236.6C315.2 237.3 315.8 237.8 316.5 237.8Z" fill="#E30313" />
											</g>
											<path d="M333.3 331.8H340.1" stroke="#888FA6" stroke-width="1.8094" stroke-miterlimit="10" stroke-linecap="round" stroke-linejoin="round" />
										</g>
										<path d="M399.8 331.8H406.6" stroke="#888FA6" stroke-width="1.8094" stroke-miterlimit="10" stroke-linecap="round" stroke-linejoin="round" />
									</g>
								</g>
							</g>
						</g>
					</g>
				</g>
				<path d="M462.4 162.2C462.4 162.2 462.7 167.4 458.4 167.4V163.3L462.4 162.2Z" fill="#D48068" />
				<g>
					<path d="M452.8 146.1C452.8 146.1 452.6 152.4 455 151.6C457.4 150.8 459.9 146.6 459.9 146.6" fill="#F07F35" />
					<path d="M455.9 146.9C455.9 146.9 453.4 150.4 453.3 156.5C453.1 162.6 454.3 166.7 458.7 165.9C462.4 165.2 463.5 164.8 465.9 161.3C468.4 157.8 468.4 146.3 462.2 145.2C455.9 144.1 455.9 146.9 455.9 146.9Z" fill="#F7B29A" />
					<path d="M458.4 141.7C458.4 141.7 454.3 138.9 451.5 142.1C449.1 144.9 451 149.7 458 148.3C458 148.3 460.6 147.5 463.1 150.4C464 151.4 462.9 153.9 463.4 155.6C463.6 156.3 464.4 157 464.8 157.6C465.8 158.9 466.7 159.6 466.7 159.6L468.4 157.8C470 155.6 472.8 151.2 471.9 146.5C470.9 141.3 465.1 139.3 462 140.1C460 140.6 458.4 141.7 458.4 141.7Z" fill="#F07F35" />
					<path d="M463.5 156.4C463.5 156.4 465.7 153.7 466.9 155C468.1 156.3 466.9 159.2 463.5 159.2" fill="#F7B29A" />
				</g>
			</g>
			<path d="M389.9 223.5C389.9 223.5 393.7 221.8 393.7 224C393.7 225.9 391.2 227.2 390 227.2C388.9 227.2 386 226.1 386 224.3C386 222.1 389.9 223.5 389.9 223.5Z" fill="#FFE8BB" />
			<path d="M389.6 224.6C389.6 224.6 390.9 224.5 390.9 224.9C390.9 225.3 390.1 225.8 389.7 225.7C389.1 225.7 388.4 224.6 389.6 224.6Z" fill="#F07F35" />
		</g>
		<g class="svgIcon svgIcon3">
			<g>
				<g>
					<g>
						<path d="M862.6 352.2V358.6C862.6 360 861.5 361.2 860 361.2H841.8C840.7 361.2 840.1 359.8 840.9 359C841.7 358.2 845.3 356.3 847.9 355.2C853.5 352.9 856.1 352.7 856.1 352.7L862.6 352.2Z" fill="#1F1341" />
						<path d="M901.4 352.2V358.6C901.4 360 900.3 361.2 898.8 361.2H880.6C879.5 361.2 878.9 359.8 879.7 359C880.5 358.2 884.1 356.3 886.7 355.2C892.3 352.9 894.9 352.7 894.9 352.7L901.4 352.2Z" fill="#1F1341" />
						<g>
							<path d="M870.5 255.7L863.6 354H851C851 354 842.5 265 842.5 224C842.5 214.5 843.8 225.9 846.2 223.7C857.7 212.8 871.9 226.4 871.9 226.4L870.5 255.7Z" fill="#54579C" />
							<path d="M870.2 264.1L863.6 354L863.8 345.8C863.8 345.8 862.6 310.4 861.7 284.2C860.8 257.7 861.5 243.6 866.6 244.2C870.7 244.6 873.6 251.6 874.1 266.2C874.2 270 870.2 264.1 870.2 264.1Z" fill="#322767" />
							<path d="M887.6 222.1C887.6 222.1 890.2 258.7 892.9 285.7C895.6 312.7 901.4 354.8 901.4 354.8H889.5C889.5 354.8 860.6 243.9 860.6 236.6C860.6 229.4 887.6 222.1 887.6 222.1Z" fill="#54579C" />
							<path d="M874.9 223.8L880.1 224.4L887.5 222.1C887.5 222.1 891.1 258.7 893.8 285.7C896.5 312.7 901.3 354.8 901.3 354.8H898.1C898.1 354.8 888.4 298.4 885.4 278C882 254.6 874.9 223.8 874.9 223.8Z" fill="#322767" />
							<path d="M853.9 143C853.9 143 853.9 140.2 863.4 140.5C866.3 140.6 882.1 145.7 884.8 147.8C893.2 154.1 890.5 171.5 890.5 187.4C890.5 197 894.3 231.6 894.3 231.6C894.3 231.6 850.6 237.3 839 231.6C839 231.6 838 211.2 838.6 191.6C839.1 175.1 835.6 159.1 840.9 149.5C842.6 146.4 851 144.3 853.9 143Z" fill="#C28FBF" />
							<path d="M864.4 141.6L862.9 127.6L853.9 138.8L855.7 148.6L864.4 141.6Z" fill="#F7B29A" />
							<g>
								<path d="M849.2 110.2C849.2 110.2 847 117.8 851.6 119.7C856.2 121.6 857.5 113.5 857.5 113.5" fill="#1F1341" />
								<path d="M858.2 134.4C858.2 134.4 858.4 140.2 854.2 140.6L853.5 137.3L858.2 134.4Z" fill="#D48068" />
								<path d="M863.5 139.5C863.5 139.5 861.9 135.6 860.5 136.5C857.2 138.9 852.4 138.2 850.8 136.5C848.3 133.7 849.2 115.6 852.9 112.9C856.5 110.3 868.4 116.1 870 120.6C871.6 125.1 863.5 139.5 863.5 139.5Z" fill="#F7B29A" />
								<path d="M865.2 136.2C865.2 136.2 872.4 129.3 874.1 123.6C875.8 117.9 870.1 113.8 868.8 113.2C867 112.3 863.8 104.4 855.9 104.4C846.2 104.4 847.6 113.3 853.6 116.8C855.9 118.2 857.8 118.6 859.4 119.8C860.8 120.9 864.8 127.7 864.9 128.4C865 129 864.6 128 864.6 128.6C864.7 131.6 863.1 135.4 865.2 136.2Z" fill="#1F1341" />
								<path d="M862.8 127.1C862.8 127.1 864.4 123.6 866.7 125.1C869 126.6 865.8 131 863 131.1" fill="#F7B29A" />
							</g>
							<path d="M846.9 235.5L848.8 213L861.3 167.4L864.4 235.5" fill="#54579C" />
							<path d="M865.8 146.7L863.4 213H848.8L851.8 145.3" fill="white" />
							<path d="M851.8 145.3L853.9 141.1L856.2 141.4L864.4 137.6L867.1 141L867.8 141.2L851.8 183.9" fill="white" />
							<path d="M856.4 143.6L857.7 145.9L864.4 143.3L857.4 148.6L856.4 143.6Z" fill="#B9C0D5" />
						</g>
					</g>
					<g>
						<path d="M814.7 201.3C814.7 201.3 817.4 199.2 819 199.3C820.9 199.4 827.8 201.5 827.8 201.5L827.5 202.2L828.5 208.9C828.5 208.9 823.5 211.2 821.9 211.2L814.5 210L811.7 209.2L810.6 208.8L807.8 208.2" fill="#F7B29A" />
						<path d="M816.8 210.3C816.8 210.3 819.9 209.8 822.1 209.7C824.2 209.7 828.9 206.4 828.9 206.4L829.6 208.4C829.6 208.4 824.2 211.1 822.6 211.2C820.9 211.3 816.8 210.3 816.8 210.3Z" fill="#D48068" />
						<path d="M870.8 160.7L856.8 187.3L825.7 200.4L828.6 211.5C828.6 211.5 865.4 204.1 870.7 199.5C876 194.9 890.6 164.8 890.6 164.8" fill="#C28FBF" />
						<path d="M885.8 169.6C885.8 169.6 870.9 193.6 865.4 198.1C859.8 202.7 827.6 208.1 827.6 208.1L828.5 211.5C828.5 211.5 863.9 206.8 869.1 202.2C872.7 199.1 883.8 181.1 885.8 169.6Z" fill="#8856A6" />
					</g>
				</g>
				<g>
					<g>
						<path d="M818 208.1L814.6 210C813.9 210.5 813 210.6 812.3 210.3L810.5 209.5" fill="#F7B29A" />
					</g>
					<path d="M813.6 199.1C812.7 198.6 807.2 198.7 807.2 198.7L804 198.3L800.5 206.6C800.5 206.6 806.5 209.7 809.7 209.2L813.6 199.1Z" fill="#F7B29A" />
					<path d="M812.7 201.4C812.7 201.4 811.9 203.9 815.9 203.2C817.7 202.9 819.9 203.2 819.9 203.2L812.7 201.4Z" fill="#D48068" />
					<path d="M804.3 205C804.3 205 809.3 205.5 813.5 201.8L816 203.2L809.9 209.8C809.9 209.8 806.8 209.1 805.4 208.6C804 208.1 804.3 205 804.3 205Z" fill="#D48068" />
					<path d="M808.9 204.3C811.6 203.6 813.5 201.8 813.5 201.8L815.8 203C817.7 204 819.5 203.9 819.9 203C820.2 202.5 819.8 201.6 818.9 201.1L813.9 197.8C813 197.3 806.6 198.8 806.6 198.8" fill="#F7B29A" />
					<path d="M817.7 206.1L811.3 210.2C810.8 210.5 810.3 210.4 809.9 210.1C809.3 209.6 809.3 208.8 809.9 208.3L815.1 204.1L817.7 206.1Z" fill="#F7B29A" />
				</g>
				<g>
					<g>
						<path d="M735.9 148.3L737.5 133H747.9V150.4" fill="#F7B29A" />
						<path d="M743 138.2C743 138.2 745.3 143.4 747.9 143.4L747.8 139.9L743 138.2Z" fill="#D48068" />
						<path d="M754.2 115.8C754.2 115.8 754.6 122.2 749.8 122.4C745 122.6 747.5 116.5 747.5 116.5" fill="#701745" />
						<path d="M747.5 116.5C747.5 116.5 751.5 114 752.4 118.5C753.4 123.7 753.7 138.3 752.2 140C750.8 141.6 746.1 140.3 745.2 140.1C742.1 139.2 744.4 139.8 741.7 138.2L737.1 137.5C737.1 137.5 734.5 128.7 738.8 123.3C742.9 117.9 747.5 116.5 747.5 116.5Z" fill="#F7B29A" />
						<path d="M737 137.4C737 137.4 739.1 128 740.1 127C741.1 126 749.4 117.2 749.4 117.2C749.4 117.2 749.7 114.4 746.8 112.7C744.4 111.3 737.7 110.7 734.4 111.9C727.7 114.3 727.3 122.9 729 127.3C730.7 131.8 737 137.4 737 137.4Z" fill="#701745" />
						<path d="M742.4 128.8C742.4 128.8 740.3 124.7 737.6 124.8C734.9 124.9 734.1 131.3 740 131.3" fill="#F7B29A" />
						<path d="M743.8 123.1C743.8 123.1 756.8 119.3 757.7 114.3C758.6 109.5 755.8 107.1 751.2 107.1C745.2 107.1 738.9 115.5 738.9 115.5" fill="#701745" />
					</g>
					<g>
						<path d="M740.4 350.1V357C740.4 358.5 741.6 359.8 743.2 359.8H762.8C764 359.8 764.6 358.3 763.8 357.4C762.9 356.5 759 354.5 756.2 353.4C750.2 351 747.4 350.8 747.4 350.8L740.4 350.1Z" fill="#1F1341" />
						<g>
							<path d="M756 211.8C756 211.8 757.7 311.6 752.6 352L740.4 352.5L734.6 280.2" fill="#54579C" />
							<path d="M737.7 319.5C737.7 319.5 742.7 296.2 755.9 291.9C756.8 252.3 756.1 211.7 756.1 211.7L734.7 280.1L737.7 319.5Z" fill="#322767" />
							<path d="M699.5 342.2L696.8 348.6C696.2 350 696.9 351.6 698.3 352.2L716.4 359.7C717.5 360.2 718.7 359 718.2 357.9C717.7 356.8 714.9 353.4 712.8 351.2C708.2 346.7 705.7 345.4 705.7 345.4L699.5 342.2Z" fill="#1F1341" />
							<path d="M730 211.8C730 211.8 728 214 726.9 218.3C725.8 222.6 724.5 228.4 723.7 238.4C722.2 258.6 726.8 276 726.8 276L698.7 343.8L711.3 349.7C711.3 349.7 747.3 292.6 749.4 278.1C750.3 272.1 756.1 214.1 756.1 211.9C756.1 209.7 730 211.8 730 211.8Z" fill="#54579C" />
							<path d="M729.1 213H756V208.5H729" fill="#322767" />
							<path d="M747.9 150.5C747.9 150.5 756.1 154.8 758.8 158.3C761.6 161.8 776.9 185 776.9 185L804.8 197.1L801.9 207.3C801.9 207.3 771.2 199.4 768.3 197C765.4 194.6 755.9 186 755.9 186" fill="#A2AFF9" />
							<path d="M801.9 207.4L802.9 203.8C802.9 203.8 776.2 197 770.9 193.1C765.6 189.2 755.8 167.4 755.8 167.4L756.1 186.3C757.7 187.8 765.5 195 768.2 197.1C771.3 199.5 801.9 207.4 801.9 207.4Z" fill="#656DD6" />
							<path d="M747.6 149.8C747.6 149.8 759.8 158 761.4 170.3C763 182.6 756 209.7 756 209.7H730C730 209.7 723.2 204.3 722 193.5C719.9 175 723.3 150.8 727.4 148.2C733.8 144 747.6 149.8 747.6 149.8Z" fill="#A2AFF9" />
							<path d="M730.4 173.6C730.4 173.6 734.3 192.2 741.5 199.2C748.7 206.2 757.2 204.9 757.2 204.9L756.1 209.7H727.4L714.1 188.3" fill="#656DD6" />
							<path d="M726.1 224.1C726.1 224.1 727.3 228.8 727.6 229.6C727.9 230.3 731.2 232.8 731.2 232.8L737.8 228.6C737.8 228.6 737.5 226.5 737.6 226C737.7 225.8 738 226.3 739.7 226.2C740.5 226.1 741.1 226 741.7 225.4C742.1 225 741.6 224.3 740.3 223.6C735.4 220.8 732 217.8 732 217.8" fill="#F7B29A" />
							<path d="M733.2 146.7C733.2 146.7 724.5 144.7 715.3 163.6C707.1 180.5 703.3 185.8 703.3 191.8C703.3 196.6 726.1 223.9 726.1 223.9L734.2 218C734.2 218 725.6 195 721.7 191L736.2 169.8" fill="#A2AFF9" />
							<path d="M730.4 148L734.6 141.8L748.8 143.8V150.7" fill="#A2AFF9" />
							<path d="M707.1 191.6C705.2 184.5 721.8 153.2 721.8 153.2L719.7 155.9C718 158.5 717.9 158.1 715.2 163.7C707 180.6 703.2 185.9 703.2 191.9C703.2 196.7 726 224 726 224L728.5 222.2C728.6 222.1 709 198.7 707.1 191.6Z" fill="#656DD6" />
							<path d="M743.3 223.3L726.8 233.6L741 235.5" fill="#54579C" />
							<path d="M742.7 149L746.3 146.3L747.2 152.8L744.9 149.1L742.7 149Z" fill="#656DD6" />
						</g>
					</g>
				</g>
			</g>
			<path d="M749.3 134.1L752.4 133.7C752.4 133.7 752.6 135.8 751.2 135.8C750.3 135.8 749.3 134.1 749.3 134.1Z" fill="white" />
			<path d="M850.9 130.7L854.6 131.8C854.6 131.8 853.6 133.2 852.3 133.2C850.6 133.1 850.9 130.7 850.9 130.7Z" fill="white" />
		</g>
		<g class="svgIcon svgIcon2">
			<path d="M578.316 312.389C570.35 312.389 563.27 310.324 557.074 306.193C550.879 301.964 546.011 295.966 542.471 288.197C538.93 280.329 537.16 270.888 537.16 259.874C537.16 248.86 538.93 239.468 542.471 231.699C546.011 223.832 550.879 217.833 557.074 213.702C563.27 209.474 570.35 207.359 578.316 207.359C586.282 207.359 593.363 209.474 599.558 213.702C605.754 217.833 610.622 223.832 614.162 231.699C617.801 239.468 619.62 248.86 619.62 259.874C619.62 270.888 617.801 280.329 614.162 288.197C610.622 295.966 605.754 301.964 599.558 306.193C593.363 310.324 586.282 312.389 578.316 312.389ZM578.316 302.653C584.413 302.653 589.724 301.03 594.248 297.785C598.771 294.441 602.312 289.623 604.869 283.329C607.425 276.936 608.704 269.118 608.704 259.874C608.704 250.63 607.425 242.861 604.869 236.567C602.312 230.175 598.771 225.356 594.248 222.111C589.724 218.767 584.413 217.095 578.316 217.095C572.416 217.095 567.154 218.767 562.532 222.111C557.91 225.356 554.321 230.175 551.764 236.567C549.207 242.861 547.928 250.63 547.928 259.874C547.928 269.118 549.207 276.936 551.764 283.329C554.321 289.623 557.91 294.441 562.532 297.785C567.154 301.03 572.416 302.653 578.316 302.653Z" fill="#E30313" />
			<path d="M652.826 311.504V212.67L657.547 217.685H628.487V208.244H663.447V311.504H652.826Z" fill="#E30313" />
		</g>
		<g class="svgIcon svgIcon6">
			<path d="M1345.8 134.9C1354.53 134.9 1361.6 127.826 1361.6 119.1C1361.6 110.374 1354.53 103.3 1345.8 103.3C1337.07 103.3 1330 110.374 1330 119.1C1330 127.826 1337.07 134.9 1345.8 134.9Z" fill="#DFE1E8" />
			<path d="M1338.6 119.4L1345.1 125.5L1353.1 112.7" stroke="white" stroke-width="2" stroke-miterlimit="10" stroke-linecap="round" stroke-linejoin="round" />
		</g>
		<g class="svgIcon svgIcon8">
			<g>
				<g>
					<path d="M1581.2 258.9H1492.2C1487.6 258.9 1483.8 255.1 1483.8 250.5V195.3C1483.8 190.7 1487.6 186.9 1492.2 186.9H1581.2C1585.8 186.9 1589.6 190.7 1589.6 195.3V250.5C1589.5 255.2 1585.8 258.9 1581.2 258.9Z" fill="#DFE1E8" />
					<g>
						<path d="M1497.5 248.2H1574.5" stroke="white" stroke-width="2" stroke-miterlimit="10" stroke-linecap="round" stroke-linejoin="round" />
					</g>
				</g>
				<path d="M1496.4 195.9H1513.1" stroke="#E30313" stroke-width="2" stroke-miterlimit="10" stroke-linecap="round" stroke-linejoin="round" />
				<path d="M1496.4 201.9H1513.1" stroke="#E30313" stroke-width="2" stroke-miterlimit="10" stroke-linecap="round" stroke-linejoin="round" />
				<path d="M1496.4 207.9H1513.1" stroke="#E30313" stroke-width="2" stroke-miterlimit="10" stroke-linecap="round" stroke-linejoin="round" />
			</g>
			<path d="M1535 235.4H1570C1572.5 235.4 1574.5 233.4 1574.5 230.9V199.4C1574.5 196.9 1572.5 194.9 1570 194.9H1535C1532.5 194.9 1530.5 196.9 1530.5 199.4V231C1530.6 233.4 1532.6 235.4 1535 235.4Z" fill="#A7D07D" />
			<path id="%" d="M1552.55 220.184V219.136C1552.55 218.412 1552.7 217.749 1553 217.147C1553.3 216.539 1553.74 216.054 1554.32 215.692C1554.9 215.324 1555.6 215.139 1556.43 215.139C1557.27 215.139 1557.98 215.324 1558.55 215.692C1559.12 216.054 1559.55 216.539 1559.84 217.147C1560.13 217.749 1560.27 218.412 1560.27 219.136V220.184C1560.27 220.908 1560.13 221.574 1559.83 222.182C1559.54 222.783 1559.1 223.268 1558.53 223.637C1557.96 223.999 1557.26 224.18 1556.43 224.18C1555.59 224.18 1554.88 223.999 1554.31 223.637C1553.73 223.268 1553.3 222.783 1553 222.182C1552.7 221.574 1552.55 220.908 1552.55 220.184ZM1554.53 219.136V220.184C1554.53 220.785 1554.67 221.325 1554.96 221.804C1555.24 222.276 1555.73 222.512 1556.43 222.512C1557.11 222.512 1557.59 222.276 1557.87 221.804C1558.15 221.325 1558.29 220.785 1558.29 220.184V219.136C1558.29 218.535 1558.16 217.998 1557.89 217.526C1557.62 217.047 1557.13 216.808 1556.43 216.808C1555.75 216.808 1555.27 217.047 1554.97 217.526C1554.68 217.998 1554.53 218.535 1554.53 219.136ZM1542.66 208.814V207.767C1542.66 207.042 1542.81 206.38 1543.1 205.778C1543.41 205.17 1543.85 204.685 1544.42 204.323C1545.01 203.954 1545.71 203.77 1546.54 203.77C1547.38 203.77 1548.08 203.954 1548.65 204.323C1549.22 204.685 1549.65 205.17 1549.94 205.778C1550.23 206.38 1550.38 207.042 1550.38 207.767V208.814C1550.38 209.539 1550.23 210.205 1549.93 210.813C1549.64 211.414 1549.21 211.899 1548.63 212.268C1548.06 212.63 1547.37 212.811 1546.54 212.811C1545.7 212.811 1544.99 212.63 1544.41 212.268C1543.84 211.899 1543.4 211.414 1543.1 210.813C1542.81 210.205 1542.66 209.539 1542.66 208.814ZM1544.64 207.767V208.814C1544.64 209.416 1544.78 209.956 1545.06 210.434C1545.35 210.907 1545.84 211.143 1546.54 211.143C1547.22 211.143 1547.7 210.907 1547.97 210.434C1548.26 209.956 1548.4 209.416 1548.4 208.814V207.767C1548.4 207.165 1548.26 206.629 1547.99 206.156C1547.72 205.678 1547.24 205.439 1546.54 205.439C1545.86 205.439 1545.37 205.678 1545.07 206.156C1544.78 206.629 1544.64 207.165 1544.64 207.767ZM1543.39 223.909L1557.05 204.042H1559.27L1545.61 223.909H1543.39Z" fill="white" />
		</g>
		<g class="svgIcon svgIcon9">
			<g>
				<path d="M374.9 86.8001H310C304 86.8001 299.1 81.9001 299.1 75.9001V11.0001C299.1 5.00009 304 0.100098 310 0.100098H374.9C380.9 0.100098 385.8 5.00009 385.8 11.0001V75.9001C385.8 82.0001 380.9 86.8001 374.9 86.8001Z" fill="#FEDA8C" />
				<g>
					<path d="M369.9 29.7002C370.2 26.8002 369.3 24.4002 367.7 22.2002C363 15.9002 353.9 14.7002 333.9 29.7002C313.8 44.7002 312.4 53.7002 317.1 60.0002C321.8 66.3002 330.9 67.5002 350.9 52.5002C359.8 45.9002 365 40.4002 367.7 35.8002" stroke="white" stroke-width="2" stroke-miterlimit="10" stroke-linecap="round" stroke-linejoin="round" />
					<path d="M349.4 22.7002L363 32.9002C363 32.9002 355 36.9002 345 28.0002M322.8 44.6002C332.8 53.5002 340.8 49.5002 340.8 49.5002L326.8 39.0002M334.1 35.8002C344.1 44.7002 352.1 40.7002 352.1 40.7002L337.4 29.7002" stroke="white" stroke-width="2" stroke-miterlimit="10" stroke-linecap="round" stroke-linejoin="round" />
				</g>
			</g>
			<path d="M365.7 84.1999C373.101 84.1999 379.1 78.2005 379.1 70.7999C379.1 63.3993 373.101 57.3999 365.7 57.3999C358.299 57.3999 352.3 63.3993 352.3 70.7999C352.3 78.2005 358.299 84.1999 365.7 84.1999Z" fill="white" />
			<path d="M368.7 65.5C367.5 65.5 366.4 66 365.7 66.9C365 66.1 363.9 65.5 362.7 65.5C360.4 65.5 358.6 67.3 358.6 69.6C358.6 72.9 365.7 78.3 365.7 78.3C365.7 78.3 372.8 73 372.8 69.6C372.8 67.4 371 65.5 368.7 65.5Z" fill="#C28FBF" />
		</g>
		<g class="svgIcon svgIcon7">
			<g>
				<path d="M70.3 302.5C91.5077 302.5 108.7 285.308 108.7 264.1C108.7 242.892 91.5077 225.7 70.3 225.7C49.0922 225.7 31.9 242.892 31.9 264.1C31.9 285.308 49.0922 302.5 70.3 302.5Z" fill="#DFE1E8" />
				<path d="M70.3 268.1C76.596 268.1 81.7 262.996 81.7 256.7C81.7 250.404 76.596 245.3 70.3 245.3C64.0039 245.3 58.9 250.404 58.9 256.7C58.9 262.996 64.0039 268.1 70.3 268.1Z" stroke="white" stroke-width="2" stroke-miterlimit="10" stroke-linecap="round" stroke-linejoin="round" />
				<path d="M95.4 288.4C89.3 281.4 80.3 277 70.3 277C60.3 277 51.3 281.4 45.1 288.5" stroke="white" stroke-width="2" stroke-miterlimit="10" stroke-linecap="round" stroke-linejoin="round" />
			</g>
			<g>
				<path d="M16.1 234.4C24.8261 234.4 31.9 227.326 31.9 218.6C31.9 209.874 24.8261 202.8 16.1 202.8C7.37389 202.8 0.299988 209.874 0.299988 218.6C0.299988 227.326 7.37389 234.4 16.1 234.4Z" fill="#A7D07D" />
				<path d="M8.79999 218.9L15.4 225L23.3 212.2" stroke="white" stroke-width="2" stroke-miterlimit="10" stroke-linecap="round" stroke-linejoin="round" />
			</g>
		</g>
	</g>
	<defs>
		<linearGradient id="paint0_linear_102_23500" x1="1169.46" y1="334.927" x2="1168.47" y2="240.769" gradientUnits="userSpaceOnUse">
			<stop offset="0.2405" stop-color="#E30313" />
			<stop offset="0.9469" stop-color="#AD1917" />
		</linearGradient>
		<linearGradient id="paint1_linear_102_23500" x1="1198.18" y1="377.312" x2="1082.65" y2="173.593" gradientUnits="userSpaceOnUse">
			<stop offset="0.2405" stop-color="#E30313" />
			<stop offset="0.9469" stop-color="#AD1917" />
		</linearGradient>
	</defs>
</svg>
