<svg width="1603" height="378" viewBox="0 0 1603 378" fill="none" xmlns="http://www.w3.org/2000/svg">
<style>
    .svgIcon {
      opacity: 0;
	  transform:translateY(0.63rem); 
	  transition: all ease 0.5s;
    }
	.svgIcon1{
		transition-delay: 0s;
	}
	.svgIcon2{
		transition-delay: 0.2s;
	}
	.svgIcon3{
		transition-delay: 0.4s;
	}
	.svgIcon4{
		transition-delay: 0.6s;
	}
	.svgIcon5{
		transition-delay: 0.8s;
	}
	.svgIcon6{
		transition-delay: 1.4s;
	}
	.svgIcon7{
		transition-delay: 1.8s;
	}
	.svgIcon8{
		transition-delay: 2.2s;
	}
	.svgIcon9{
		transition-delay: 2.6s;
	}
	.svgIcon10{
		transition-delay: 3s;
	}
	@media only screen and (max-width: 768px) {
		.svgIcon5{
			transform: translateX(-4rem) !important;
		}
	}
  </style>
	<g >
		<g class="svgIcon svgIcon1">
			<g opacity="0.64">
				<g>
					<path  d="M558.2 98.5996H549.6V335.8H558.2V98.5996Z" fill="#DFE1E8" />
					<g>
						<path  d="M1057.1 95H549.6V103.2H1057.1V95Z" fill="#DFE1E8" />
						<g>
							<path  d="M1057.1 135.8H549.6V144H1057.1V135.8Z" fill="#DFE1E8" />
							<path  d="M1057.1 176.2H549.6V184.4H1057.1V176.2Z" fill="#DFE1E8" />
							<path  d="M1057.1 216.7H549.6V224.9H1057.1V216.7Z" fill="#DFE1E8" />
							<path  d="M1057.1 265.3V257.1H549.6V265.3" fill="#DFE1E8" />
							<path  d="M1057.1 257.899H549.6V266.099H1057.1V257.899Z" fill="#DFE1E8" />
							<path  d="M1057.1 306.599V298.399H549.6V306.599" fill="#DFE1E8" />
							<path  d="M1057.1 298.399H549.6V335.799H1057.1V298.399Z" fill="#DFE1E8" />
						</g>
						<path  d="M1057.7 98.5996H1049.1V335.8H1057.7V98.5996Z" fill="#DFE1E8" />
					</g>
					<g>
						<path  d="M588.2 259.1H572.7C570.8 259.1 569.3 257.6 569.3 255.7V235.6C569.3 233.7 570.8 232.2 572.7 232.2H588.2C590.1 232.2 591.6 233.7 591.6 235.6V255.7C591.6 257.6 590 259.1 588.2 259.1Z" fill="#DFE1E8" />
						<path  d="M619 259.1H603.5C601.6 259.1 600.1 257.6 600.1 255.7V235.6C600.1 233.7 601.6 232.2 603.5 232.2H619C620.9 232.2 622.4 233.7 622.4 235.6V255.7C622.4 257.6 620.8 259.1 619 259.1Z" fill="#DFE1E8" />
						<path  d="M650 259.1H634.5C632.6 259.1 631.1 257.6 631.1 255.7V235.6C631.1 233.7 632.6 232.2 634.5 232.2H650C651.9 232.2 653.4 233.7 653.4 235.6V255.7C653.4 257.6 651.9 259.1 650 259.1Z" fill="#DFE1E8" />
						<path  d="M680.8 259.1H665.3C663.4 259.1 661.9 257.6 661.9 255.7V235.6C661.9 233.7 663.4 232.2 665.3 232.2H680.8C682.7 232.2 684.2 233.7 684.2 235.6V255.7C684.2 257.6 682.7 259.1 680.8 259.1Z" fill="#DFE1E8" />
						<path  d="M714.5 259.1H699C697.1 259.1 695.6 257.6 695.6 255.7V235.6C695.6 233.7 697.1 232.2 699 232.2H714.5C716.4 232.2 717.9 233.7 717.9 235.6V255.7C717.9 257.6 716.4 259.1 714.5 259.1Z" fill="#DFE1E8" />
						<path  d="M745.3 259.1H729.8C727.9 259.1 726.4 257.6 726.4 255.7V235.6C726.4 233.7 727.9 232.2 729.8 232.2H745.3C747.2 232.2 748.7 233.7 748.7 235.6V255.7C748.7 257.6 747.2 259.1 745.3 259.1Z" fill="#DFE1E8" />
						<path  d="M776.4 259.1H760.9C759 259.1 757.5 257.6 757.5 255.7V235.6C757.5 233.7 759 232.2 760.9 232.2H776.4C778.3 232.2 779.8 233.7 779.8 235.6V255.7C779.8 257.6 778.3 259.1 776.4 259.1Z" fill="#DFE1E8" />
						<path  d="M807.2 259.1H791.7C789.8 259.1 788.3 257.6 788.3 255.7V235.6C788.3 233.7 789.8 232.2 791.7 232.2H807.2C809.1 232.2 810.6 233.7 810.6 235.6V255.7C810.6 257.6 809.1 259.1 807.2 259.1Z" fill="#DFE1E8" />
						<path  d="M842.5 259.1H827C825.1 259.1 823.6 257.6 823.6 255.7V235.6C823.6 233.7 825.1 232.2 827 232.2H842.5C844.4 232.2 845.9 233.7 845.9 235.6V255.7C845.9 257.6 844.4 259.1 842.5 259.1Z" fill="#DFE1E8" />
						<path  d="M873.3 259.1H857.8C855.9 259.1 854.4 257.6 854.4 255.7V235.6C854.4 233.7 855.9 232.2 857.8 232.2H873.3C875.2 232.2 876.7 233.7 876.7 235.6V255.7C876.7 257.6 875.2 259.1 873.3 259.1Z" fill="#DFE1E8" />
						<path  d="M904.4 259.1H888.9C887 259.1 885.5 257.6 885.5 255.7V235.6C885.5 233.7 887 232.2 888.9 232.2H904.4C906.3 232.2 907.8 233.7 907.8 235.6V255.7C907.8 257.6 906.3 259.1 904.4 259.1Z" fill="#DFE1E8" />
						<path  d="M935.2 259.1H919.7C917.8 259.1 916.3 257.6 916.3 255.7V235.6C916.3 233.7 917.8 232.2 919.7 232.2H935.2C937.1 232.2 938.6 233.7 938.6 235.6V255.7C938.6 257.6 937.1 259.1 935.2 259.1Z" fill="#DFE1E8" />
						<path  d="M968.9 259.1H953.4C951.5 259.1 950 257.6 950 255.7V235.6C950 233.7 951.5 232.2 953.4 232.2H968.9C970.8 232.2 972.3 233.7 972.3 235.6V255.7C972.3 257.6 970.7 259.1 968.9 259.1Z" fill="#DFE1E8" />
						<path  d="M999.7 259.1H984.2C982.3 259.1 980.8 257.6 980.8 255.7V235.6C980.8 233.7 982.3 232.2 984.2 232.2H999.7C1001.6 232.2 1003.1 233.7 1003.1 235.6V255.7C1003.1 257.6 1001.5 259.1 999.7 259.1Z" fill="#DFE1E8" />
						<path  d="M1030.7 259.1H1015.2C1013.3 259.1 1011.8 257.6 1011.8 255.7V235.6C1011.8 233.7 1013.3 232.2 1015.2 232.2H1030.7C1032.6 232.2 1034.1 233.7 1034.1 235.6V255.7C1034.1 257.6 1032.6 259.1 1030.7 259.1Z" fill="#DFE1E8" />
					</g>
					<g>
						<path  d="M588.2 308.1H572.7C570.8 308.1 569.3 306.6 569.3 304.7V284.6C569.3 282.7 570.8 281.2 572.7 281.2H588.2C590.1 281.2 591.6 282.7 591.6 284.6V304.7C591.6 306.6 590 308.1 588.2 308.1Z" fill="#DFE1E8" />
						<path  d="M619 308.1H603.5C601.6 308.1 600.1 306.6 600.1 304.7V284.6C600.1 282.7 601.6 281.2 603.5 281.2H619C620.9 281.2 622.4 282.7 622.4 284.6V304.7C622.4 306.6 620.8 308.1 619 308.1Z" fill="#DFE1E8" />
						<path  d="M650 308.1H634.5C632.6 308.1 631.1 306.6 631.1 304.7V284.6C631.1 282.7 632.6 281.2 634.5 281.2H650C651.9 281.2 653.4 282.7 653.4 284.6V304.7C653.4 306.6 651.9 308.1 650 308.1Z" fill="#DFE1E8" />
						<path  d="M680.8 308.1H665.3C663.4 308.1 661.9 306.6 661.9 304.7V284.6C661.9 282.7 663.4 281.2 665.3 281.2H680.8C682.7 281.2 684.2 282.7 684.2 284.6V304.7C684.2 306.6 682.7 308.1 680.8 308.1Z" fill="#DFE1E8" />
						<path  d="M714.5 308.1H699C697.1 308.1 695.6 306.6 695.6 304.7V284.6C695.6 282.7 697.1 281.2 699 281.2H714.5C716.4 281.2 717.9 282.7 717.9 284.6V304.7C717.9 306.6 716.4 308.1 714.5 308.1Z" fill="#DFE1E8" />
						<path  d="M745.3 308.1H729.8C727.9 308.1 726.4 306.6 726.4 304.7V284.6C726.4 282.7 727.9 281.2 729.8 281.2H745.3C747.2 281.2 748.7 282.7 748.7 284.6V304.7C748.7 306.6 747.2 308.1 745.3 308.1Z" fill="#DFE1E8" />
						<path  d="M776.4 308.1H760.9C759 308.1 757.5 306.6 757.5 304.7V284.6C757.5 282.7 759 281.2 760.9 281.2H776.4C778.3 281.2 779.8 282.7 779.8 284.6V304.7C779.8 306.6 778.3 308.1 776.4 308.1Z" fill="#DFE1E8" />
						<path  d="M807.2 308.1H791.7C789.8 308.1 788.3 306.6 788.3 304.7V284.6C788.3 282.7 789.8 281.2 791.7 281.2H807.2C809.1 281.2 810.6 282.7 810.6 284.6V304.7C810.6 306.6 809.1 308.1 807.2 308.1Z" fill="#DFE1E8" />
						<path  d="M842.5 308.1H827C825.1 308.1 823.6 306.6 823.6 304.7V284.6C823.6 282.7 825.1 281.2 827 281.2H842.5C844.4 281.2 845.9 282.7 845.9 284.6V304.7C845.9 306.6 844.4 308.1 842.5 308.1Z" fill="#DFE1E8" />
						<path  d="M873.3 308.1H857.8C855.9 308.1 854.4 306.6 854.4 304.7V284.6C854.4 282.7 855.9 281.2 857.8 281.2H873.3C875.2 281.2 876.7 282.7 876.7 284.6V304.7C876.7 306.6 875.2 308.1 873.3 308.1Z" fill="#DFE1E8" />
						<path  d="M904.4 308.1H888.9C887 308.1 885.5 306.6 885.5 304.7V284.6C885.5 282.7 887 281.2 888.9 281.2H904.4C906.3 281.2 907.8 282.7 907.8 284.6V304.7C907.8 306.6 906.3 308.1 904.4 308.1Z" fill="#DFE1E8" />
						<path  d="M935.2 308.1H919.7C917.8 308.1 916.3 306.6 916.3 304.7V284.6C916.3 282.7 917.8 281.2 919.7 281.2H935.2C937.1 281.2 938.6 282.7 938.6 284.6V304.7C938.6 306.6 937.1 308.1 935.2 308.1Z" fill="#DFE1E8" />
						<path  d="M968.9 308.1H953.4C951.5 308.1 950 306.6 950 304.7V284.6C950 282.7 951.5 281.2 953.4 281.2H968.9C970.8 281.2 972.3 282.7 972.3 284.6V304.7C972.3 306.6 970.7 308.1 968.9 308.1Z" fill="#DFE1E8" />
						<path  d="M999.7 308.1H984.2C982.3 308.1 980.8 306.6 980.8 304.7V284.6C980.8 282.7 982.3 281.2 984.2 281.2H999.7C1001.6 281.2 1003.1 282.7 1003.1 284.6V304.7C1003.1 306.6 1001.5 308.1 999.7 308.1Z" fill="#DFE1E8" />
						<path  d="M1030.7 308.1H1015.2C1013.3 308.1 1011.8 306.6 1011.8 304.7V284.6C1011.8 282.7 1013.3 281.2 1015.2 281.2H1030.7C1032.6 281.2 1034.1 282.7 1034.1 284.6V304.7C1034.1 306.6 1032.6 308.1 1030.7 308.1Z" fill="#DFE1E8" />
					</g>
				</g>
				<g>
					<path  d="M1313.4 335.9H290V341H1313.4V335.9Z" fill="#DFE1E8" />
				</g>
				<g>
					<g>
						<g>
							<path  d="M576.8 136.599H571.6C570.5 136.599 569.6 135.799 569.6 134.799V114.199C569.6 113.199 570.5 112.399 571.6 112.399H576.8C577.9 112.399 578.8 113.199 578.8 114.199V134.799C578.7 135.799 577.9 136.599 576.8 136.599Z" fill="#DFE1E8" />
							<path  d="M569.7 113.499L572.2 109.699H575.7L578.6 113.399L569.7 113.499Z" fill="#DFE1E8" />
						</g>
						<path  d="M575.8 108.1H572.3V109.7H575.8V108.1Z" fill="#DFE1E8" />
					</g>
					<g>
						<g>
							<path  d="M594.4 136.599H589.2C588.1 136.599 587.2 135.799 587.2 134.799V114.199C587.2 113.199 588.1 112.399 589.2 112.399H594.4C595.5 112.399 596.4 113.199 596.4 114.199V134.799C596.4 135.799 595.5 136.599 594.4 136.599Z" fill="#DFE1E8" />
							<path  d="M587.4 113.499L589.9 109.699H593.4L596.2 113.399L587.4 113.499Z" fill="#DFE1E8" />
						</g>
						<path  d="M593.4 108.1H589.9V109.7H593.4V108.1Z" fill="#DFE1E8" />
					</g>
					<g>
						<g>
							<path  d="M612.1 136.599H606.9C605.8 136.599 604.9 135.799 604.9 134.799V114.199C604.9 113.199 605.8 112.399 606.9 112.399H612.1C613.2 112.399 614.1 113.199 614.1 114.199V134.799C614 135.799 613.2 136.599 612.1 136.599Z" fill="#DFE1E8" />
							<path  d="M605 113.499L607.5 109.699H611L613.9 113.399L605 113.499Z" fill="#DFE1E8" />
						</g>
						<path  d="M611.1 108.1H607.6V109.7H611.1V108.1Z" fill="#DFE1E8" />
					</g>
					<g>
						<g>
							<path  d="M629.7 136.599H624.5C623.4 136.599 622.5 135.799 622.5 134.799V114.199C622.5 113.199 623.4 112.399 624.5 112.399H629.7C630.8 112.399 631.7 113.199 631.7 114.199V134.799C631.7 135.799 630.8 136.599 629.7 136.599Z" fill="#DFE1E8" />
							<path  d="M622.7 113.499L625.2 109.699H628.7L631.5 113.399L622.7 113.499Z" fill="#DFE1E8" />
						</g>
						<path  d="M628.7 108.1H625.2V109.7H628.7V108.1Z" fill="#DFE1E8" />
					</g>
					<g>
						<g>
							<path  d="M647.4 136.599H642.2C641.1 136.599 640.2 135.799 640.2 134.799V114.199C640.2 113.199 641.1 112.399 642.2 112.399H647.4C648.5 112.399 649.4 113.199 649.4 114.199V134.799C649.3 135.799 648.5 136.599 647.4 136.599Z" fill="#DFE1E8" />
							<path  d="M640.3 113.499L642.8 109.699H646.3L649.2 113.399L640.3 113.499Z" fill="#DFE1E8" />
						</g>
						<path  d="M646.4 108.1H642.9V109.7H646.4V108.1Z" fill="#DFE1E8" />
					</g>
					<g>
						<g>
							<path  d="M665 136.599H659.8C658.7 136.599 657.8 135.799 657.8 134.799V114.199C657.8 113.199 658.7 112.399 659.8 112.399H665C666.1 112.399 667 113.199 667 114.199V134.799C667 135.799 666.1 136.599 665 136.599Z" fill="#DFE1E8" />
							<path  d="M658 113.499L660.5 109.699H664L666.8 113.399L658 113.499Z" fill="#DFE1E8" />
						</g>
						<path  d="M664 108.1H660.5V109.7H664V108.1Z" fill="#DFE1E8" />
					</g>
					<g>
						<g>
							<path  d="M682.7 136.599H677.5C676.4 136.599 675.5 135.799 675.5 134.799V114.199C675.5 113.199 676.4 112.399 677.5 112.399H682.7C683.8 112.399 684.7 113.199 684.7 114.199V134.799C684.6 135.799 683.8 136.599 682.7 136.599Z" fill="#DFE1E8" />
							<path  d="M675.6 113.499L678.1 109.699H681.6L684.5 113.399L675.6 113.499Z" fill="#DFE1E8" />
						</g>
						<path  d="M681.7 108.1H678.2V109.7H681.7V108.1Z" fill="#DFE1E8" />
					</g>
					<g>
						<g>
							<path  d="M700.3 136.599H695.1C694 136.599 693.1 135.799 693.1 134.799V114.199C693.1 113.199 694 112.399 695.1 112.399H700.3C701.4 112.399 702.3 113.199 702.3 114.199V134.799C702.3 135.799 701.4 136.599 700.3 136.599Z" fill="#DFE1E8" />
							<path  d="M693.3 113.499L695.8 109.699H699.3L702.1 113.399L693.3 113.499Z" fill="#DFE1E8" />
						</g>
						<path  d="M699.3 108.1H695.8V109.7H699.3V108.1Z" fill="#DFE1E8" />
					</g>
					<g>
						<g>
							<path  d="M718 136.599H712.8C711.7 136.599 710.8 135.799 710.8 134.799V114.199C710.8 113.199 711.7 112.399 712.8 112.399H718C719.1 112.399 720 113.199 720 114.199V134.799C719.9 135.799 719.1 136.599 718 136.599Z" fill="#DFE1E8" />
							<path  d="M710.9 113.499L713.4 109.699H716.9L719.8 113.399L710.9 113.499Z" fill="#DFE1E8" />
						</g>
						<path  d="M717 108.1H713.5V109.7H717V108.1Z" fill="#DFE1E8" />
					</g>
					<g>
						<g>
							<path  d="M735.6 136.599H730.4C729.3 136.599 728.4 135.799 728.4 134.799V114.199C728.4 113.199 729.3 112.399 730.4 112.399H735.6C736.7 112.399 737.6 113.199 737.6 114.199V134.799C737.6 135.799 736.7 136.599 735.6 136.599Z" fill="#DFE1E8" />
							<path  d="M728.6 113.499L731.1 109.699H734.6L737.4 113.399L728.6 113.499Z" fill="#DFE1E8" />
						</g>
						<path  d="M734.6 108.1H731.1V109.7H734.6V108.1Z" fill="#DFE1E8" />
					</g>
					<g>
						<g>
							<path  d="M753.3 136.599H748.1C747 136.599 746.1 135.799 746.1 134.799V114.199C746.1 113.199 747 112.399 748.1 112.399H753.3C754.4 112.399 755.3 113.199 755.3 114.199V134.799C755.2 135.799 754.4 136.599 753.3 136.599Z" fill="#DFE1E8" />
							<path  d="M746.2 113.499L748.7 109.699H752.2L755.1 113.399L746.2 113.499Z" fill="#DFE1E8" />
						</g>
						<path  d="M752.3 108.1H748.8V109.7H752.3V108.1Z" fill="#DFE1E8" />
					</g>
					<g>
						<g>
							<path  d="M770.9 136.599H765.7C764.6 136.599 763.7 135.799 763.7 134.799V114.199C763.7 113.199 764.6 112.399 765.7 112.399H770.9C772 112.399 772.9 113.199 772.9 114.199V134.799C772.9 135.799 772 136.599 770.9 136.599Z" fill="#DFE1E8" />
							<path  d="M763.9 113.499L766.4 109.699H769.9L772.7 113.399L763.9 113.499Z" fill="#DFE1E8" />
						</g>
						<path  d="M769.9 108.1H766.4V109.7H769.9V108.1Z" fill="#DFE1E8" />
					</g>
					<g>
						<g>
							<path  d="M788.6 136.599H783.4C782.3 136.599 781.4 135.799 781.4 134.799V114.199C781.4 113.199 782.3 112.399 783.4 112.399H788.6C789.7 112.399 790.6 113.199 790.6 114.199V134.799C790.5 135.799 789.7 136.599 788.6 136.599Z" fill="#DFE1E8" />
							<path  d="M781.6 113.499L784 109.699H787.5L790.4 113.399L781.6 113.499Z" fill="#DFE1E8" />
						</g>
						<path  d="M787.6 108.1H784.1V109.7H787.6V108.1Z" fill="#DFE1E8" />
					</g>
					<g>
						<g>
							<path  d="M806.2 136.599H801C799.9 136.599 799 135.799 799 134.799V114.199C799 113.199 799.9 112.399 801 112.399H806.2C807.3 112.399 808.2 113.199 808.2 114.199V134.799C808.2 135.799 807.3 136.599 806.2 136.599Z" fill="#DFE1E8" />
							<path  d="M799.2 113.499L801.7 109.699H805.2L808 113.399L799.2 113.499Z" fill="#DFE1E8" />
						</g>
						<path  d="M805.2 108.1H801.7V109.7H805.2V108.1Z" fill="#DFE1E8" />
					</g>
					<g>
						<g>
							<path  d="M823.9 136.599H818.7C817.6 136.599 816.7 135.799 816.7 134.799V114.199C816.7 113.199 817.6 112.399 818.7 112.399H823.9C825 112.399 825.9 113.199 825.9 114.199V134.799C825.9 135.799 825 136.599 823.9 136.599Z" fill="#DFE1E8" />
							<path  d="M816.9 113.499L819.3 109.699H822.8L825.7 113.399L816.9 113.499Z" fill="#DFE1E8" />
						</g>
						<path  d="M822.9 108.1H819.4V109.7H822.9V108.1Z" fill="#DFE1E8" />
					</g>
					<g>
						<g>
							<path  d="M841.5 136.599H836.3C835.2 136.599 834.3 135.799 834.3 134.799V114.199C834.3 113.199 835.2 112.399 836.3 112.399H841.5C842.6 112.399 843.5 113.199 843.5 114.199V134.799C843.5 135.799 842.6 136.599 841.5 136.599Z" fill="#DFE1E8" />
							<path  d="M834.5 113.499L837 109.699H840.5L843.3 113.399L834.5 113.499Z" fill="#DFE1E8" />
						</g>
						<path  d="M840.5 108.1H837V109.7H840.5V108.1Z" fill="#DFE1E8" />
					</g>
					<g>
						<g>
							<path  d="M859.2 136.599H854C852.9 136.599 852 135.799 852 134.799V114.199C852 113.199 852.9 112.399 854 112.399H859.2C860.3 112.399 861.2 113.199 861.2 114.199V134.799C861.2 135.799 860.3 136.599 859.2 136.599Z" fill="#DFE1E8" />
							<path  d="M852.2 113.499L854.6 109.699H858.1L861 113.399L852.2 113.499Z" fill="#DFE1E8" />
						</g>
						<path  d="M858.2 108.1H854.7V109.7H858.2V108.1Z" fill="#DFE1E8" />
					</g>
					<g>
						<g>
							<path  d="M876.8 136.599H871.6C870.5 136.599 869.6 135.799 869.6 134.799V114.199C869.6 113.199 870.5 112.399 871.6 112.399H876.8C877.9 112.399 878.8 113.199 878.8 114.199V134.799C878.8 135.799 877.9 136.599 876.8 136.599Z" fill="#DFE1E8" />
							<path  d="M869.8 113.499L872.3 109.699H875.8L878.6 113.399L869.8 113.499Z" fill="#DFE1E8" />
						</g>
						<path  d="M875.8 108.1H872.3V109.7H875.8V108.1Z" fill="#DFE1E8" />
					</g>
					<g>
						<g>
							<path  d="M894.5 136.599H889.3C888.2 136.599 887.3 135.799 887.3 134.799V114.199C887.3 113.199 888.2 112.399 889.3 112.399H894.5C895.6 112.399 896.5 113.199 896.5 114.199V134.799C896.5 135.799 895.6 136.599 894.5 136.599Z" fill="#DFE1E8" />
							<path  d="M887.5 113.499L889.9 109.699H893.4L896.3 113.399L887.5 113.499Z" fill="#DFE1E8" />
						</g>
						<path  d="M893.5 108.1H890V109.7H893.5V108.1Z" fill="#DFE1E8" />
					</g>
					<g>
						<g>
							<path  d="M912.1 136.599H906.9C905.8 136.599 904.9 135.799 904.9 134.799V114.199C904.9 113.199 905.8 112.399 906.9 112.399H912.1C913.2 112.399 914.1 113.199 914.1 114.199V134.799C914.1 135.799 913.2 136.599 912.1 136.599Z" fill="#DFE1E8" />
							<path  d="M905.1 113.499L907.6 109.699H911.1L913.9 113.399L905.1 113.499Z" fill="#DFE1E8" />
						</g>
						<path  d="M911.1 108.1H907.6V109.7H911.1V108.1Z" fill="#DFE1E8" />
					</g>
					<g>
						<g>
							<path  d="M929.8 136.599H924.6C923.5 136.599 922.6 135.799 922.6 134.799V114.199C922.6 113.199 923.5 112.399 924.6 112.399H929.8C930.9 112.399 931.8 113.199 931.8 114.199V134.799C931.8 135.799 930.9 136.599 929.8 136.599Z" fill="#DFE1E8" />
							<path  d="M922.8 113.499L925.2 109.699H928.7L931.6 113.399L922.8 113.499Z" fill="#DFE1E8" />
						</g>
						<path  d="M928.8 108.1H925.3V109.7H928.8V108.1Z" fill="#DFE1E8" />
					</g>
					<g>
						<g>
							<path  d="M947.4 136.599H942.2C941.1 136.599 940.2 135.799 940.2 134.799V114.199C940.2 113.199 941.1 112.399 942.2 112.399H947.4C948.5 112.399 949.4 113.199 949.4 114.199V134.799C949.4 135.799 948.5 136.599 947.4 136.599Z" fill="#DFE1E8" />
							<path  d="M940.4 113.499L942.9 109.699H946.4L949.2 113.399L940.4 113.499Z" fill="#DFE1E8" />
						</g>
						<path  d="M946.4 108.1H942.9V109.7H946.4V108.1Z" fill="#DFE1E8" />
					</g>
					<g>
						<g>
							<path  d="M965.1 136.599H959.9C958.8 136.599 957.9 135.799 957.9 134.799V114.199C957.9 113.199 958.8 112.399 959.9 112.399H965.1C966.2 112.399 967.1 113.199 967.1 114.199V134.799C967.1 135.799 966.2 136.599 965.1 136.599Z" fill="#DFE1E8" />
							<path  d="M958.1 113.499L960.5 109.699H964L966.9 113.399L958.1 113.499Z" fill="#DFE1E8" />
						</g>
						<path  d="M964.1 108.1H960.6V109.7H964.1V108.1Z" fill="#DFE1E8" />
					</g>
					<g>
						<g>
							<path  d="M982.7 136.599H977.5C976.4 136.599 975.5 135.799 975.5 134.799V114.199C975.5 113.199 976.4 112.399 977.5 112.399H982.7C983.8 112.399 984.7 113.199 984.7 114.199V134.799C984.7 135.799 983.8 136.599 982.7 136.599Z" fill="#DFE1E8" />
							<path  d="M975.7 113.499L978.2 109.699H981.7L984.5 113.399L975.7 113.499Z" fill="#DFE1E8" />
						</g>
						<path  d="M981.7 108.1H978.2V109.7H981.7V108.1Z" fill="#DFE1E8" />
					</g>
					<g>
						<g>
							<path  d="M1000.4 136.599H995.2C994.1 136.599 993.2 135.799 993.2 134.799V114.199C993.2 113.199 994.1 112.399 995.2 112.399H1000.4C1001.5 112.399 1002.4 113.199 1002.4 114.199V134.799C1002.4 135.799 1001.5 136.599 1000.4 136.599Z" fill="#DFE1E8" />
							<path  d="M993.4 113.499L995.8 109.699H999.3L1002.2 113.399L993.4 113.499Z" fill="#DFE1E8" />
						</g>
						<path  d="M999.4 108.1H995.9V109.7H999.4V108.1Z" fill="#DFE1E8" />
					</g>
					<g>
						<g>
							<path  d="M1018 136.599H1012.8C1011.7 136.599 1010.8 135.799 1010.8 134.799V114.199C1010.8 113.199 1011.7 112.399 1012.8 112.399H1018C1019.1 112.399 1020 113.199 1020 114.199V134.799C1020 135.799 1019.1 136.599 1018 136.599Z" fill="#DFE1E8" />
							<path  d="M1011 113.499L1013.5 109.699H1017L1019.8 113.399L1011 113.499Z" fill="#DFE1E8" />
						</g>
						<path  d="M1017 108.1H1013.5V109.7H1017V108.1Z" fill="#DFE1E8" />
					</g>
					<g>
						<g>
							<path  d="M1035.7 136.599H1030.5C1029.4 136.599 1028.5 135.799 1028.5 134.799V114.199C1028.5 113.199 1029.4 112.399 1030.5 112.399H1035.7C1036.8 112.399 1037.7 113.199 1037.7 114.199V134.799C1037.7 135.799 1036.8 136.599 1035.7 136.599Z" fill="#DFE1E8" />
							<path  d="M1028.7 113.499L1031.1 109.699H1034.6L1037.5 113.399L1028.7 113.499Z" fill="#DFE1E8" />
						</g>
						<path  d="M1034.7 108.1H1031.2V109.7H1034.7V108.1Z" fill="#DFE1E8" />
					</g>
				</g>
				<g>
					<g>
						<g>
							<g>
								<path  d="M576.6 219.7H571.4C570.3 219.7 569.4 218.9 569.4 217.9V197.3C569.4 196.3 570.3 195.5 571.4 195.5H576.6C577.7 195.5 578.6 196.3 578.6 197.3V217.9C578.6 218.9 577.7 219.7 576.6 219.7Z" fill="#DFE1E8" />
								<path  d="M569.6 196.6L572.1 192.8H575.6L578.4 196.6H569.6Z" fill="#DFE1E8" />
							</g>
							<path  d="M575.6 191.2H572.1V192.8H575.6V191.2Z" fill="#DFE1E8" />
						</g>
						<g>
							<g>
								<path  d="M589.8 219.7H584.6C583.5 219.7 582.6 218.9 582.6 217.9V197.3C582.6 196.3 583.5 195.5 584.6 195.5H589.8C590.9 195.5 591.8 196.3 591.8 197.3V217.9C591.8 218.9 590.9 219.7 589.8 219.7Z" fill="#DFE1E8" />
								<path  d="M582.8 196.6L585.3 192.8H588.8L591.6 196.6H582.8Z" fill="#DFE1E8" />
							</g>
							<path  d="M588.8 191.2H585.3V192.8H588.8V191.2Z" fill="#DFE1E8" />
						</g>
					</g>
					<g>
						<g>
							<g>
								<path  d="M612.3 219.7H607.1C606 219.7 605.1 218.9 605.1 217.9V197.3C605.1 196.3 606 195.5 607.1 195.5H612.3C613.4 195.5 614.3 196.3 614.3 197.3V217.9C614.2 218.9 613.4 219.7 612.3 219.7Z" fill="#DFE1E8" />
								<path  d="M605.2 196.6L607.7 192.8H611.2L614.1 196.6H605.2Z" fill="#DFE1E8" />
							</g>
							<path  d="M611.3 191.2H607.8V192.8H611.3V191.2Z" fill="#DFE1E8" />
						</g>
						<g>
							<g>
								<path  d="M625.5 219.7H620.3C619.2 219.7 618.3 218.9 618.3 217.9V197.3C618.3 196.3 619.2 195.5 620.3 195.5H625.5C626.6 195.5 627.5 196.3 627.5 197.3V217.9C627.5 218.9 626.6 219.7 625.5 219.7Z" fill="#DFE1E8" />
								<path  d="M618.5 196.6L621 192.8H624.5L627.3 196.6H618.5Z" fill="#DFE1E8" />
							</g>
							<path  d="M624.5 191.2H621V192.8H624.5V191.2Z" fill="#DFE1E8" />
						</g>
					</g>
					<g>
						<g>
							<g>
								<path  d="M647.9 219.7H642.7C641.6 219.7 640.7 218.9 640.7 217.9V197.3C640.7 196.3 641.6 195.5 642.7 195.5H647.9C649 195.5 649.9 196.3 649.9 197.3V217.9C649.9 218.9 649 219.7 647.9 219.7Z" fill="#DFE1E8" />
								<path  d="M640.9 196.6L643.4 192.8H646.9L649.7 196.6H640.9Z" fill="#DFE1E8" />
							</g>
							<path  d="M646.9 191.2H643.4V192.8H646.9V191.2Z" fill="#DFE1E8" />
						</g>
						<g>
							<g>
								<path  d="M661.2 219.7H656C654.9 219.7 654 218.9 654 217.9V197.3C654 196.3 654.9 195.5 656 195.5H661.2C662.3 195.5 663.2 196.3 663.2 197.3V217.9C663.1 218.9 662.2 219.7 661.2 219.7Z" fill="#DFE1E8" />
								<path  d="M654.1 196.6L656.6 192.8H660.1L663 196.6H654.1Z" fill="#DFE1E8" />
							</g>
							<path  d="M660.2 191.2H656.7V192.8H660.2V191.2Z" fill="#DFE1E8" />
						</g>
					</g>
					<g>
						<g>
							<g>
								<path  d="M683.6 219.7H678.4C677.3 219.7 676.4 218.9 676.4 217.9V197.3C676.4 196.3 677.3 195.5 678.4 195.5H683.6C684.7 195.5 685.6 196.3 685.6 197.3V217.9C685.5 218.9 684.7 219.7 683.6 219.7Z" fill="#DFE1E8" />
								<path  d="M676.5 196.6L679 192.8H682.5L685.4 196.6H676.5Z" fill="#DFE1E8" />
							</g>
							<path  d="M682.6 191.2H679.1V192.8H682.6V191.2Z" fill="#DFE1E8" />
						</g>
						<g>
							<g>
								<path  d="M696.8 219.7H691.6C690.5 219.7 689.6 218.9 689.6 217.9V197.3C689.6 196.3 690.5 195.5 691.6 195.5H696.8C697.9 195.5 698.8 196.3 698.8 197.3V217.9C698.8 218.9 697.9 219.7 696.8 219.7Z" fill="#DFE1E8" />
								<path  d="M689.8 196.6L692.3 192.8H695.8L698.6 196.6H689.8Z" fill="#DFE1E8" />
							</g>
							<path  d="M695.8 191.2H692.3V192.8H695.8V191.2Z" fill="#DFE1E8" />
						</g>
					</g>
					<g>
						<g>
							<g>
								<path  d="M719.2 219.7H714C712.9 219.7 712 218.9 712 217.9V197.3C712 196.3 712.9 195.5 714 195.5H719.2C720.3 195.5 721.2 196.3 721.2 197.3V217.9C721.2 218.9 720.3 219.7 719.2 219.7Z" fill="#DFE1E8" />
								<path  d="M712.2 196.6L714.7 192.8H718.2L721 196.6H712.2Z" fill="#DFE1E8" />
							</g>
							<path  d="M718.2 191.2H714.7V192.8H718.2V191.2Z" fill="#DFE1E8" />
						</g>
						<g>
							<g>
								<path  d="M732.5 219.7H727.3C726.2 219.7 725.3 218.9 725.3 217.9V197.3C725.3 196.3 726.2 195.5 727.3 195.5H732.5C733.6 195.5 734.5 196.3 734.5 197.3V217.9C734.4 218.9 733.6 219.7 732.5 219.7Z" fill="#DFE1E8" />
								<path  d="M725.4 196.6L727.9 192.8H731.4L734.3 196.6H725.4Z" fill="#DFE1E8" />
							</g>
							<path  d="M731.5 191.2H728V192.8H731.5V191.2Z" fill="#DFE1E8" />
						</g>
					</g>
					<g>
						<g>
							<g>
								<path  d="M754.9 219.7H749.7C748.6 219.7 747.7 218.9 747.7 217.9V197.3C747.7 196.3 748.6 195.5 749.7 195.5H754.9C756 195.5 756.9 196.3 756.9 197.3V217.9C756.9 218.9 756 219.7 754.9 219.7Z" fill="#DFE1E8" />
								<path  d="M747.9 196.6L750.3 192.8H753.8L756.7 196.6H747.9Z" fill="#DFE1E8" />
							</g>
							<path  d="M753.9 191.2H750.4V192.8H753.9V191.2Z" fill="#DFE1E8" />
						</g>
						<g>
							<g>
								<path  d="M768.1 219.7H762.9C761.8 219.7 760.9 218.9 760.9 217.9V197.3C760.9 196.3 761.8 195.5 762.9 195.5H768.1C769.2 195.5 770.1 196.3 770.1 197.3V217.9C770.1 218.9 769.2 219.7 768.1 219.7Z" fill="#DFE1E8" />
								<path  d="M761.1 196.6L763.6 192.8H767.1L769.9 196.6H761.1Z" fill="#DFE1E8" />
							</g>
							<path  d="M767.1 191.2H763.6V192.8H767.1V191.2Z" fill="#DFE1E8" />
						</g>
					</g>
					<g>
						<g>
							<g>
								<path  d="M790.5 219.7H785.3C784.2 219.7 783.3 218.9 783.3 217.9V197.3C783.3 196.3 784.2 195.5 785.3 195.5H790.5C791.6 195.5 792.5 196.3 792.5 197.3V217.9C792.5 218.9 791.6 219.7 790.5 219.7Z" fill="#DFE1E8" />
								<path  d="M783.5 196.6L786 192.8H789.5L792.3 196.6H783.5Z" fill="#DFE1E8" />
							</g>
							<path  d="M789.5 191.2H786V192.8H789.5V191.2Z" fill="#DFE1E8" />
						</g>
						<g>
							<g>
								<path  d="M803.8 219.7H798.6C797.5 219.7 796.6 218.9 796.6 217.9V197.3C796.6 196.3 797.5 195.5 798.6 195.5H803.8C804.9 195.5 805.8 196.3 805.8 197.3V217.9C805.8 218.9 804.9 219.7 803.8 219.7Z" fill="#DFE1E8" />
								<path  d="M796.8 196.6L799.2 192.8H802.7L805.6 196.6H796.8Z" fill="#DFE1E8" />
							</g>
							<path  d="M802.8 191.2H799.3V192.8H802.8V191.2Z" fill="#DFE1E8" />
						</g>
					</g>
					<g>
						<g>
							<g>
								<path  d="M826.2 219.7H821C819.9 219.7 819 218.9 819 217.9V197.3C819 196.3 819.9 195.5 821 195.5H826.2C827.3 195.5 828.2 196.3 828.2 197.3V217.9C828.2 218.9 827.3 219.7 826.2 219.7Z" fill="#DFE1E8" />
								<path  d="M819.2 196.6L821.7 192.8H825.2L828 196.6H819.2Z" fill="#DFE1E8" />
							</g>
							<path  d="M825.2 191.2H821.7V192.8H825.2V191.2Z" fill="#DFE1E8" />
						</g>
						<g>
							<g>
								<path  d="M839.4 219.7H834.2C833.1 219.7 832.2 218.9 832.2 217.9V197.3C832.2 196.3 833.1 195.5 834.2 195.5H839.4C840.5 195.5 841.4 196.3 841.4 197.3V217.9C841.4 218.9 840.5 219.7 839.4 219.7Z" fill="#DFE1E8" />
								<path  d="M832.4 196.6L834.9 192.8H838.4L841.2 196.6H832.4Z" fill="#DFE1E8" />
							</g>
							<path  d="M838.4 191.2H834.9V192.8H838.4V191.2Z" fill="#DFE1E8" />
						</g>
					</g>
					<g>
						<g>
							<g>
								<path  d="M861.9 219.7H856.7C855.6 219.7 854.7 218.9 854.7 217.9V197.3C854.7 196.3 855.6 195.5 856.7 195.5H861.9C863 195.5 863.9 196.3 863.9 197.3V217.9C863.8 218.9 862.9 219.7 861.9 219.7Z" fill="#DFE1E8" />
								<path  d="M854.8 196.6L857.3 192.8H860.8L863.7 196.6H854.8Z" fill="#DFE1E8" />
							</g>
							<path  d="M860.9 191.2H857.4V192.8H860.9V191.2Z" fill="#DFE1E8" />
						</g>
						<g>
							<g>
								<path  d="M875.1 219.7H869.9C868.8 219.7 867.9 218.9 867.9 217.9V197.3C867.9 196.3 868.8 195.5 869.9 195.5H875.1C876.2 195.5 877.1 196.3 877.1 197.3V217.9C877.1 218.9 876.2 219.7 875.1 219.7Z" fill="#DFE1E8" />
								<path  d="M868.1 196.6L870.6 192.8H874.1L876.9 196.6H868.1Z" fill="#DFE1E8" />
							</g>
							<path  d="M874.1 191.2H870.6V192.8H874.1V191.2Z" fill="#DFE1E8" />
						</g>
					</g>
					<g>
						<g>
							<g>
								<path  d="M897.5 219.7H892.3C891.2 219.7 890.3 218.9 890.3 217.9V197.3C890.3 196.3 891.2 195.5 892.3 195.5H897.5C898.6 195.5 899.5 196.3 899.5 197.3V217.9C899.5 218.9 898.6 219.7 897.5 219.7Z" fill="#DFE1E8" />
								<path  d="M890.5 196.6L893 192.8H896.5L899.3 196.6H890.5Z" fill="#DFE1E8" />
							</g>
							<path  d="M896.5 191.2H893V192.8H896.5V191.2Z" fill="#DFE1E8" />
						</g>
						<g>
							<g>
								<path  d="M910.8 219.7H905.6C904.5 219.7 903.6 218.9 903.6 217.9V197.3C903.6 196.3 904.5 195.5 905.6 195.5H910.8C911.9 195.5 912.8 196.3 912.8 197.3V217.9C912.7 218.9 911.8 219.7 910.8 219.7Z" fill="#DFE1E8" />
								<path  d="M903.7 196.6L906.2 192.8H909.7L912.5 196.6H903.7Z" fill="#DFE1E8" />
							</g>
							<path  d="M909.8 191.2H906.3V192.8H909.8V191.2Z" fill="#DFE1E8" />
						</g>
					</g>
					<g>
						<g>
							<g>
								<path  d="M933.2 219.7H928C926.9 219.7 926 218.9 926 217.9V197.3C926 196.3 926.9 195.5 928 195.5H933.2C934.3 195.5 935.2 196.3 935.2 197.3V217.9C935.1 218.9 934.3 219.7 933.2 219.7Z" fill="#DFE1E8" />
								<path  d="M926.1 196.6L928.6 192.8H932.1L935 196.6H926.1Z" fill="#DFE1E8" />
							</g>
							<path  d="M932.2 191.2H928.7V192.8H932.2V191.2Z" fill="#DFE1E8" />
						</g>
						<g>
							<g>
								<path  d="M946.4 219.7H941.2C940.1 219.7 939.2 218.9 939.2 217.9V197.3C939.2 196.3 940.1 195.5 941.2 195.5H946.4C947.5 195.5 948.4 196.3 948.4 197.3V217.9C948.4 218.9 947.5 219.7 946.4 219.7Z" fill="#DFE1E8" />
								<path  d="M939.4 196.6L941.9 192.8H945.4L948.2 196.6H939.4Z" fill="#DFE1E8" />
							</g>
							<path  d="M945.4 191.2H941.9V192.8H945.4V191.2Z" fill="#DFE1E8" />
						</g>
					</g>
					<g>
						<g>
							<g>
								<path  d="M968.8 219.7H963.6C962.5 219.7 961.6 218.9 961.6 217.9V197.3C961.6 196.3 962.5 195.5 963.6 195.5H968.8C969.9 195.5 970.8 196.3 970.8 197.3V217.9C970.8 218.9 969.9 219.7 968.8 219.7Z" fill="#DFE1E8" />
								<path  d="M961.8 196.6L964.3 192.8H967.8L970.6 196.6H961.8Z" fill="#DFE1E8" />
							</g>
							<path  d="M967.8 191.2H964.3V192.8H967.8V191.2Z" fill="#DFE1E8" />
						</g>
						<g>
							<g>
								<path  d="M982.1 219.7H976.9C975.8 219.7 974.9 218.9 974.9 217.9V197.3C974.9 196.3 975.8 195.5 976.9 195.5H982.1C983.2 195.5 984.1 196.3 984.1 197.3V217.9C984 218.9 983.2 219.7 982.1 219.7Z" fill="#DFE1E8" />
								<path  d="M975 196.6L977.5 192.8H981L983.9 196.6H975Z" fill="#DFE1E8" />
							</g>
							<path  d="M981.1 191.2H977.6V192.8H981.1V191.2Z" fill="#DFE1E8" />
						</g>
					</g>
					<g>
						<g>
							<g>
								<path  d="M1004.5 219.7H999.3C998.2 219.7 997.3 218.9 997.3 217.9V197.3C997.3 196.3 998.2 195.5 999.3 195.5H1004.5C1005.6 195.5 1006.5 196.3 1006.5 197.3V217.9C1006.5 218.9 1005.6 219.7 1004.5 219.7Z" fill="#DFE1E8" />
								<path  d="M997.5 196.6L999.9 192.8H1003.4L1006.3 196.6H997.5Z" fill="#DFE1E8" />
							</g>
							<path  d="M1003.5 191.2H1000V192.8H1003.5V191.2Z" fill="#DFE1E8" />
						</g>
						<g>
							<g>
								<path  d="M1017.7 219.7H1012.5C1011.4 219.7 1010.5 218.9 1010.5 217.9V197.3C1010.5 196.3 1011.4 195.5 1012.5 195.5H1017.7C1018.8 195.5 1019.7 196.3 1019.7 197.3V217.9C1019.7 218.9 1018.8 219.7 1017.7 219.7Z" fill="#DFE1E8" />
								<path  d="M1010.7 196.6L1013.2 192.8H1016.7L1019.5 196.6H1010.7Z" fill="#DFE1E8" />
							</g>
							<path  d="M1016.7 191.2H1013.2V192.8H1016.7V191.2Z" fill="#DFE1E8" />
						</g>
					</g>
				</g>
				<g>
					<g>
						<g>
							<path  d="M576.8 178.4H571.6C570.5 178.4 569.6 177.6 569.6 176.6V156C569.6 155 570.5 154.2 571.6 154.2H576.8C577.9 154.2 578.8 155 578.8 156V176.6C578.7 177.6 577.9 178.4 576.8 178.4Z" fill="#DFE1E8" />
							<path  d="M569.7 155.3L572.2 151.5H575.7L578.6 155.3H569.7Z" fill="#DFE1E8" />
						</g>
						<path  d="M575.8 149.9H572.3V151.5H575.8V149.9Z" fill="#DFE1E8" />
					</g>
					<g>
						<g>
							<path  d="M594.4 178.4H589.2C588.1 178.4 587.2 177.6 587.2 176.6V156C587.2 155 588.1 154.2 589.2 154.2H594.4C595.5 154.2 596.4 155 596.4 156V176.6C596.4 177.6 595.5 178.4 594.4 178.4Z" fill="#DFE1E8" />
							<path  d="M587.4 155.3L589.9 151.5H593.4L596.2 155.3H587.4Z" fill="#DFE1E8" />
						</g>
						<path  d="M593.4 149.9H589.9V151.5H593.4V149.9Z" fill="#DFE1E8" />
					</g>
					<g>
						<g>
							<path  d="M612.1 178.4H606.9C605.8 178.4 604.9 177.6 604.9 176.6V156C604.9 155 605.8 154.2 606.9 154.2H612.1C613.2 154.2 614.1 155 614.1 156V176.6C614 177.6 613.2 178.4 612.1 178.4Z" fill="#DFE1E8" />
							<path  d="M605 155.3L607.5 151.5H611L613.9 155.3H605Z" fill="#DFE1E8" />
						</g>
						<path  d="M611.1 149.9H607.6V151.5H611.1V149.9Z" fill="#DFE1E8" />
					</g>
					<g>
						<g>
							<path  d="M629.7 178.4H624.5C623.4 178.4 622.5 177.6 622.5 176.6V156C622.5 155 623.4 154.2 624.5 154.2H629.7C630.8 154.2 631.7 155 631.7 156V176.6C631.7 177.6 630.8 178.4 629.7 178.4Z" fill="#DFE1E8" />
							<path  d="M622.7 155.3L625.2 151.5H628.7L631.5 155.3H622.7Z" fill="#DFE1E8" />
						</g>
						<path  d="M628.7 149.9H625.2V151.5H628.7V149.9Z" fill="#DFE1E8" />
					</g>
					<g>
						<g>
							<path  d="M647.4 178.4H642.2C641.1 178.4 640.2 177.6 640.2 176.6V156C640.2 155 641.1 154.2 642.2 154.2H647.4C648.5 154.2 649.4 155 649.4 156V176.6C649.3 177.6 648.5 178.4 647.4 178.4Z" fill="#DFE1E8" />
							<path  d="M640.3 155.3L642.8 151.5H646.3L649.2 155.3H640.3Z" fill="#DFE1E8" />
						</g>
						<path  d="M646.4 149.9H642.9V151.5H646.4V149.9Z" fill="#DFE1E8" />
					</g>
					<g>
						<g>
							<path  d="M665 178.4H659.8C658.7 178.4 657.8 177.6 657.8 176.6V156C657.8 155 658.7 154.2 659.8 154.2H665C666.1 154.2 667 155 667 156V176.6C667 177.6 666.1 178.4 665 178.4Z" fill="#DFE1E8" />
							<path  d="M658 155.3L660.5 151.5H664L666.8 155.3H658Z" fill="#DFE1E8" />
						</g>
						<path  d="M664 149.9H660.5V151.5H664V149.9Z" fill="#DFE1E8" />
					</g>
					<g>
						<g>
							<path  d="M682.7 178.4H677.5C676.4 178.4 675.5 177.6 675.5 176.6V156C675.5 155 676.4 154.2 677.5 154.2H682.7C683.8 154.2 684.7 155 684.7 156V176.6C684.6 177.6 683.8 178.4 682.7 178.4Z" fill="#DFE1E8" />
							<path  d="M675.6 155.3L678.1 151.5H681.6L684.5 155.3H675.6Z" fill="#DFE1E8" />
						</g>
						<path  d="M681.7 149.9H678.2V151.5H681.7V149.9Z" fill="#DFE1E8" />
					</g>
					<g>
						<g>
							<path  d="M700.3 178.4H695.1C694 178.4 693.1 177.6 693.1 176.6V156C693.1 155 694 154.2 695.1 154.2H700.3C701.4 154.2 702.3 155 702.3 156V176.6C702.3 177.6 701.4 178.4 700.3 178.4Z" fill="#DFE1E8" />
							<path  d="M693.3 155.3L695.8 151.5H699.3L702.1 155.3H693.3Z" fill="#DFE1E8" />
						</g>
						<path  d="M699.3 149.9H695.8V151.5H699.3V149.9Z" fill="#DFE1E8" />
					</g>
					<g>
						<g>
							<path  d="M718 178.4H712.8C711.7 178.4 710.8 177.6 710.8 176.6V156C710.8 155 711.7 154.2 712.8 154.2H718C719.1 154.2 720 155 720 156V176.6C719.9 177.6 719.1 178.4 718 178.4Z" fill="#DFE1E8" />
							<path  d="M710.9 155.3L713.4 151.5H716.9L719.8 155.3H710.9Z" fill="#DFE1E8" />
						</g>
						<path  d="M717 149.9H713.5V151.5H717V149.9Z" fill="#DFE1E8" />
					</g>
					<g>
						<g>
							<path  d="M735.6 178.4H730.4C729.3 178.4 728.4 177.6 728.4 176.6V156C728.4 155 729.3 154.2 730.4 154.2H735.6C736.7 154.2 737.6 155 737.6 156V176.6C737.6 177.6 736.7 178.4 735.6 178.4Z" fill="#DFE1E8" />
							<path  d="M728.6 155.3L731.1 151.5H734.6L737.4 155.3H728.6Z" fill="#DFE1E8" />
						</g>
						<path  d="M734.6 149.9H731.1V151.5H734.6V149.9Z" fill="#DFE1E8" />
					</g>
					<g>
						<g>
							<path  d="M753.3 178.4H748.1C747 178.4 746.1 177.6 746.1 176.6V156C746.1 155 747 154.2 748.1 154.2H753.3C754.4 154.2 755.3 155 755.3 156V176.6C755.2 177.6 754.4 178.4 753.3 178.4Z" fill="#DFE1E8" />
							<path  d="M746.2 155.3L748.7 151.5H752.2L755.1 155.3H746.2Z" fill="#DFE1E8" />
						</g>
						<path  d="M752.3 149.9H748.8V151.5H752.3V149.9Z" fill="#DFE1E8" />
					</g>
					<g>
						<g>
							<path  d="M770.9 178.4H765.7C764.6 178.4 763.7 177.6 763.7 176.6V156C763.7 155 764.6 154.2 765.7 154.2H770.9C772 154.2 772.9 155 772.9 156V176.6C772.9 177.6 772 178.4 770.9 178.4Z" fill="#DFE1E8" />
							<path  d="M763.9 155.3L766.4 151.5H769.9L772.7 155.3H763.9Z" fill="#DFE1E8" />
						</g>
						<path  d="M769.9 149.9H766.4V151.5H769.9V149.9Z" fill="#DFE1E8" />
					</g>
					<g>
						<g>
							<path  d="M788.6 178.4H783.4C782.3 178.4 781.4 177.6 781.4 176.6V156C781.4 155 782.3 154.2 783.4 154.2H788.6C789.7 154.2 790.6 155 790.6 156V176.6C790.5 177.6 789.7 178.4 788.6 178.4Z" fill="#DFE1E8" />
							<path  d="M781.6 155.3L784 151.5H787.5L790.4 155.3H781.6Z" fill="#DFE1E8" />
						</g>
						<path  d="M787.6 149.9H784.1V151.5H787.6V149.9Z" fill="#DFE1E8" />
					</g>
					<g>
						<g>
							<path  d="M806.2 178.4H801C799.9 178.4 799 177.6 799 176.6V156C799 155 799.9 154.2 801 154.2H806.2C807.3 154.2 808.2 155 808.2 156V176.6C808.2 177.6 807.3 178.4 806.2 178.4Z" fill="#DFE1E8" />
							<path  d="M799.2 155.3L801.7 151.5H805.2L808 155.3H799.2Z" fill="#DFE1E8" />
						</g>
						<path  d="M805.2 149.9H801.7V151.5H805.2V149.9Z" fill="#DFE1E8" />
					</g>
					<g>
						<g>
							<path  d="M823.9 178.4H818.7C817.6 178.4 816.7 177.6 816.7 176.6V156C816.7 155 817.6 154.2 818.7 154.2H823.9C825 154.2 825.9 155 825.9 156V176.6C825.9 177.6 825 178.4 823.9 178.4Z" fill="#DFE1E8" />
							<path  d="M816.9 155.3L819.3 151.5H822.8L825.7 155.3H816.9Z" fill="#DFE1E8" />
						</g>
						<path  d="M822.9 149.9H819.4V151.5H822.9V149.9Z" fill="#DFE1E8" />
					</g>
					<g>
						<g>
							<path  d="M841.5 178.4H836.3C835.2 178.4 834.3 177.6 834.3 176.6V156C834.3 155 835.2 154.2 836.3 154.2H841.5C842.6 154.2 843.5 155 843.5 156V176.6C843.5 177.6 842.6 178.4 841.5 178.4Z" fill="#DFE1E8" />
							<path  d="M834.5 155.3L837 151.5H840.5L843.3 155.3H834.5Z" fill="#DFE1E8" />
						</g>
						<path  d="M840.5 149.9H837V151.5H840.5V149.9Z" fill="#DFE1E8" />
					</g>
					<g>
						<g>
							<path  d="M859.2 178.4H854C852.9 178.4 852 177.6 852 176.6V156C852 155 852.9 154.2 854 154.2H859.2C860.3 154.2 861.2 155 861.2 156V176.6C861.2 177.6 860.3 178.4 859.2 178.4Z" fill="#DFE1E8" />
							<path  d="M852.2 155.3L854.6 151.5H858.1L861 155.3H852.2Z" fill="#DFE1E8" />
						</g>
						<path  d="M858.2 149.9H854.7V151.5H858.2V149.9Z" fill="#DFE1E8" />
					</g>
					<g>
						<g>
							<path  d="M876.8 178.4H871.6C870.5 178.4 869.6 177.6 869.6 176.6V156C869.6 155 870.5 154.2 871.6 154.2H876.8C877.9 154.2 878.8 155 878.8 156V176.6C878.8 177.6 877.9 178.4 876.8 178.4Z" fill="#DFE1E8" />
							<path  d="M869.8 155.3L872.3 151.5H875.8L878.6 155.3H869.8Z" fill="#DFE1E8" />
						</g>
						<path  d="M875.8 149.9H872.3V151.5H875.8V149.9Z" fill="#DFE1E8" />
					</g>
					<g>
						<g>
							<path  d="M894.5 178.4H889.3C888.2 178.4 887.3 177.6 887.3 176.6V156C887.3 155 888.2 154.2 889.3 154.2H894.5C895.6 154.2 896.5 155 896.5 156V176.6C896.5 177.6 895.6 178.4 894.5 178.4Z" fill="#DFE1E8" />
							<path  d="M887.5 155.3L889.9 151.5H893.4L896.3 155.3H887.5Z" fill="#DFE1E8" />
						</g>
						<path  d="M893.5 149.9H890V151.5H893.5V149.9Z" fill="#DFE1E8" />
					</g>
					<g>
						<g>
							<path  d="M912.1 178.4H906.9C905.8 178.4 904.9 177.6 904.9 176.6V156C904.9 155 905.8 154.2 906.9 154.2H912.1C913.2 154.2 914.1 155 914.1 156V176.6C914.1 177.6 913.2 178.4 912.1 178.4Z" fill="#DFE1E8" />
							<path  d="M905.1 155.3L907.6 151.5H911.1L913.9 155.3H905.1Z" fill="#DFE1E8" />
						</g>
						<path  d="M911.1 149.9H907.6V151.5H911.1V149.9Z" fill="#DFE1E8" />
					</g>
					<g>
						<g>
							<path  d="M929.8 178.4H924.6C923.5 178.4 922.6 177.6 922.6 176.6V156C922.6 155 923.5 154.2 924.6 154.2H929.8C930.9 154.2 931.8 155 931.8 156V176.6C931.8 177.6 930.9 178.4 929.8 178.4Z" fill="#DFE1E8" />
							<path  d="M922.8 155.3L925.2 151.5H928.7L931.6 155.3H922.8Z" fill="#DFE1E8" />
						</g>
						<path  d="M928.8 149.9H925.3V151.5H928.8V149.9Z" fill="#DFE1E8" />
					</g>
					<g>
						<g>
							<path  d="M947.4 178.4H942.2C941.1 178.4 940.2 177.6 940.2 176.6V156C940.2 155 941.1 154.2 942.2 154.2H947.4C948.5 154.2 949.4 155 949.4 156V176.6C949.4 177.6 948.5 178.4 947.4 178.4Z" fill="#DFE1E8" />
							<path  d="M940.4 155.3L942.9 151.5H946.4L949.2 155.3H940.4Z" fill="#DFE1E8" />
						</g>
						<path  d="M946.4 149.9H942.9V151.5H946.4V149.9Z" fill="#DFE1E8" />
					</g>
					<g>
						<g>
							<path  d="M965.1 178.4H959.9C958.8 178.4 957.9 177.6 957.9 176.6V156C957.9 155 958.8 154.2 959.9 154.2H965.1C966.2 154.2 967.1 155 967.1 156V176.6C967.1 177.6 966.2 178.4 965.1 178.4Z" fill="#DFE1E8" />
							<path  d="M958.1 155.3L960.5 151.5H964L966.9 155.3H958.1Z" fill="#DFE1E8" />
						</g>
						<path  d="M964.1 149.9H960.6V151.5H964.1V149.9Z" fill="#DFE1E8" />
					</g>
					<g>
						<g>
							<path  d="M982.7 178.4H977.5C976.4 178.4 975.5 177.6 975.5 176.6V156C975.5 155 976.4 154.2 977.5 154.2H982.7C983.8 154.2 984.7 155 984.7 156V176.6C984.7 177.6 983.8 178.4 982.7 178.4Z" fill="#DFE1E8" />
							<path  d="M975.7 155.3L978.2 151.5H981.7L984.5 155.3H975.7Z" fill="#DFE1E8" />
						</g>
						<path  d="M981.7 149.9H978.2V151.5H981.7V149.9Z" fill="#DFE1E8" />
					</g>
					<g>
						<g>
							<path  d="M1000.4 178.4H995.2C994.1 178.4 993.2 177.6 993.2 176.6V156C993.2 155 994.1 154.2 995.2 154.2H1000.4C1001.5 154.2 1002.4 155 1002.4 156V176.6C1002.4 177.6 1001.5 178.4 1000.4 178.4Z" fill="#DFE1E8" />
							<path  d="M993.4 155.3L995.8 151.5H999.3L1002.2 155.3H993.4Z" fill="#DFE1E8" />
						</g>
						<path  d="M999.4 149.9H995.9V151.5H999.4V149.9Z" fill="#DFE1E8" />
					</g>
					<g>
						<g>
							<path  d="M1018 178.4H1012.8C1011.7 178.4 1010.8 177.6 1010.8 176.6V156C1010.8 155 1011.7 154.2 1012.8 154.2H1018C1019.1 154.2 1020 155 1020 156V176.6C1020 177.6 1019.1 178.4 1018 178.4Z" fill="#DFE1E8" />
							<path  d="M1011 155.3L1013.5 151.5H1017L1019.8 155.3H1011Z" fill="#DFE1E8" />
						</g>
						<path  d="M1017 149.9H1013.5V151.5H1017V149.9Z" fill="#DFE1E8" />
					</g>
					<g>
						<g>
							<path  d="M1035.7 178.4H1030.5C1029.4 178.4 1028.5 177.6 1028.5 176.6V156C1028.5 155 1029.4 154.2 1030.5 154.2H1035.7C1036.8 154.2 1037.7 155 1037.7 156V176.6C1037.7 177.6 1036.8 178.4 1035.7 178.4Z" fill="#DFE1E8" />
							<path  d="M1028.7 155.3L1031.1 151.5H1034.6L1037.5 155.3H1028.7Z" fill="#DFE1E8" />
						</g>
						<path  d="M1034.7 149.9H1031.2V151.5H1034.7V149.9Z" fill="#DFE1E8" />
					</g>
				</g>
			</g>
		</g>
		<g class="svgIcon svgIcon4">
			<g>
				<path  d="M492.2 335.899C496.121 335.899 499.3 332.72 499.3 328.799C499.3 324.878 496.121 321.699 492.2 321.699C488.279 321.699 485.1 324.878 485.1 328.799C485.1 332.72 488.279 335.899 492.2 335.899Z" fill="#888FA6" />
				<path  d="M412.8 335.899C416.721 335.899 419.9 332.72 419.9 328.799C419.9 324.878 416.721 321.699 412.8 321.699C408.879 321.699 405.7 324.878 405.7 328.799C405.7 332.72 408.879 335.899 412.8 335.899Z" fill="#888FA6" />
				<path  d="M426.8 331H490C491.2 331 492.2 330 492.2 328.8C492.2 327.6 491.2 326.6 490 326.6H426.8V331Z" fill="#C28FBF" />
				<path  d="M416.3 273.799C415.5 273.799 415 273.099 415 272.399L417.2 225.699L419.9 225.899L417.7 272.599C417.7 273.299 417.1 273.899 416.3 273.799Z" fill="#54579C" />
				<path  d="M413.2 328.299C411.6 328.199 410.4 326.799 410.5 325.199L415.3 235.199L421.1 235.499L416.3 325.499C416.2 327.199 414.8 328.399 413.2 328.299Z" fill="#C28FBF" />
				<path  d="M415.7 312.199L428.9 326.599H436.8L417.5 304.699L415.7 312.199Z" fill="#C28FBF" />
				<path  d="M430.9 227.2H416.4C415.4 227.2 414.6 226.4 414.6 225.4C414.6 224.4 415.4 223.6 416.4 223.6H430.9C431.9 223.6 432.7 224.4 432.7 225.4C432.6 226.4 431.8 227.2 430.9 227.2Z" fill="#54579C" />
			</g>
			<path  d="M454.7 214.299H483.3C485.8 214.299 487.9 212.299 487.9 209.699V177.999C487.9 173.399 484.2 169.699 479.6 169.699H454.7V214.299V214.299Z" fill="url(#paint0_linear_102_23509)" />
			<g>
				<g>
					<g>
						<g>
							<path  d="M456.8 168.799L455.6 157.399H447.9V170.399" fill="#F7B29A" />
							<path  d="M451.5 161.3C451.5 161.3 449.8 165.2 447.9 165.2L448 162.6L451.5 161.3Z" fill="#D48068" />
							<path  d="M443.2 144.6C443.2 144.6 442.9 149.3 446.5 149.5C450.1 149.7 448.2 145.1 448.2 145.1" fill="#701745" />
							<path  d="M448.2 145.099C448.2 145.099 445.2 143.299 444.5 146.599C443.7 150.499 443.5 161.299 444.7 162.599C445.7 163.799 449.2 162.799 449.9 162.599C452.2 161.999 450.5 162.399 452.5 161.199L456 160.599C456 160.599 457.9 154.099 454.8 150.099C451.6 146.199 448.2 145.099 448.2 145.099Z" fill="#F7B29A" />
							<path  d="M456 160.7C456 160.7 454.5 153.7 453.7 153C452.9 152.2 446.8 145.7 446.8 145.7C446.8 145.7 446.6 143.6 448.7 142.3C450.5 141.2 455.5 140.8 457.9 141.7C462.9 143.5 463.2 149.9 461.9 153.2C460.7 156.5 456 160.7 456 160.7Z" fill="#701745" />
							<path  d="M452 154.3C452 154.3 453.6 151.3 455.6 151.4C457.6 151.5 458.2 156.2 453.8 156.2" fill="#F7B29A" />
							<path  d="M450.9 150.1C450.9 150.1 441.2 147.3 440.5 143.5C439.9 140 441.9 138.1 445.4 138.1C449.9 138.1 454.6 144.4 454.6 144.4" fill="#701745" />
						</g>
						<g>
							<path  d="M453.4 319.1V324.2C453.4 325.3 452.5 326.3 451.3 326.3H436.7C435.8 326.3 435.3 325.2 436 324.5C436.6 323.8 439.5 322.3 441.6 321.5C446.1 319.7 448.2 319.5 448.2 319.5L453.4 319.1Z" fill="#1F1341" />
							<g>
								<path  d="M441.8 216.1C441.8 216.1 440.5 290.4 444.4 320.5L453.5 320.9L457.8 267.1" fill="#A7D07D" />
								<path  d="M455.5 296.3C455.5 296.3 451.8 278.9 441.9 275.7C441.2 246.2 441.8 216 441.8 216L457.8 267L455.5 296.3Z" fill="#61A61C" />
								<path  d="M483.9 313.2L485.9 317.9C486.3 318.9 485.8 320.1 484.8 320.6L471.3 326.2C470.5 326.6 469.6 325.7 470 324.9C470.3 324.1 472.4 321.5 474.1 319.9C477.5 316.5 479.4 315.5 479.4 315.5L483.9 313.2Z" fill="#1F1341" />
								<path  d="M461.2 216.1C461.2 216.1 462.7 217.7 463.5 220.9C464.3 224.1 465.3 228.4 465.9 235.9C467 251 484.5 314.4 484.5 314.4L475.1 318.8C475.1 318.8 460.7 286 451.5 258C444.2 235.7 441.8 216.9 441.8 216.1C441.8 214.4 461.2 216.1 461.2 216.1Z" fill="#A7D07D" />
								<path  d="M461.9 217H441.8V213.7H461.9" fill="#322767" />
								<path  d="M448.1 169.9C448.1 169.9 439 176 437.8 185.2C436.6 194.3 439.5 227.5 439.5 227.5L466.2 220.8C466.2 220.8 467.6 209.9 467.1 202.5C466.2 188.7 466.2 171.8 460.8 168.7C456 165.7 448.1 169.9 448.1 169.9Z" fill="#A2AFF9" />
								<path  d="M461.9 169.5C461.9 169.5 449.3 168.3 445.6 176.9C441.9 185.6 450.2 204.6 450.2 204.6L450.6 197.6C450.6 197.6 447.6 184.9 448.2 180.4C449.2 173 457.3 171.6 464.2 171.8" fill="#E30313" />
								<path  d="M460.9 168.6L457.8 164L447.2 165.5V170.6" fill="#A2AFF9" />
							</g>
						</g>
					</g>
				</g>
			</g>
			<g>
				<path  d="M441.6 211.7L447.5 203.3C447.5 203.3 446.8 192.5 450.2 192.8C453.6 193 454.1 211.4 451.5 211.8C448.9 212.2 441.6 211.7 441.6 211.7Z" fill="#656DD6" />
				<path  d="M434.4 227.6H424.1C422.9 227.6 421.9 226.6 421.9 225.4C421.9 224.2 422.9 223.2 424.1 223.2H434.4C435.6 223.2 436.6 224.2 436.6 225.4C436.5 226.7 435.6 227.6 434.4 227.6Z" fill="#54579C" />
				<path  d="M433.3 219.3C433.3 219.3 428.1 221.8 427.4 222.9C426.8 224 427.1 228 428.5 228.4C429.9 228.8 431 228.7 431.7 228.4C432.3 228.1 434.6 222.4 434.6 222.4" fill="#F7B29A" />
				<path  d="M433.9 227.6H431.7C430.5 227.6 429.5 226.6 429.5 225.4C429.5 224.2 430.5 223.2 431.7 223.2H433.9C435.1 223.2 436.1 224.2 436.1 225.4C436 226.7 435.1 227.6 433.9 227.6Z" fill="#54579C" />
				<path  d="M460.2 174.5C460.2 174.5 466.5 176.7 464.8 192.2C463.3 206.1 463.6 211 461.2 214.7C459.3 217.7 434.1 226 434.1 226L431.3 219.1C431.3 219.1 445.8 208 449.8 207L449 187.9" fill="#A2AFF9" />
				<path  d="M458.9 213.1C462.9 209.4 464.8 183.1 464.8 183.1L465 185.6C465 187.9 465.2 187.7 464.7 192.3C463.2 206.2 463.5 211.1 461.1 214.8C459.2 217.8 434 226.1 434 226.1L433.2 224C433.3 223.9 454.9 216.8 458.9 213.1Z" fill="#656DD6" />
			</g>
			<path  d="M466.3 187.8L487.2 189.8C488.1 189.9 488.8 189.2 488.8 188.3V173.2C488.8 171.2 487.2 169.6 485.2 169.6H480.5" fill="#E30313" />
			<g>
				<path  d="M472.8 177.5H474.2L475.3 178.9L476.4 177.5H477.7V182H476.4L476.3 179.7L475.3 180.9L474.2 179.7V182H472.8V177.5Z" fill="white" />
				<path  d="M469.6 182V177.5C469.6 175.6 471.1 174 473.1 174H481V175.7H473C472 175.7 471.2 176.5 471.2 177.5V180.4C471.2 181.2 470.5 182 469.6 182Z" fill="white" />
				<path  d="M480.9 177.5V182C480.9 183.9 479.4 185.5 477.4 185.5H469.5V183.8H477.4C478.4 183.8 479.2 183 479.2 182V179.1C479.3 178.2 480 177.5 480.9 177.5Z" fill="white" />
			</g>
		</g>
		<g class="svgIcon svgIcon3">
			<g>
				<g>
					<path  d="M973.7 201.101H988.6C991.3 201.101 993.9 202.201 995.8 204.201C1006.2 215.401 1041.3 253.501 1042.7 261.901C1044.3 271.701 1038.4 274.001 1038.4 274.001H979.4L973.7 201.101Z" fill="url(#paint1_linear_102_23509)" />
					<path  d="M989.3 317H725V340.9H989.3V317Z" fill="#1F1341" />
					<path  d="M983.1 334.3H739.5V348.7H983.1V334.3Z" fill="#1F1341" />
					<path  d="M974.8 322H728.3C726.5 322 725 320.5 725 318.7V194.5C725 192.7 726.5 191.2 728.3 191.2H974.8C976.6 191.2 978.1 192.7 978.1 194.5V318.7C978.1 320.6 976.6 322 974.8 322Z" fill="#E30313" />
					<path  d="M978.1 250.3H1036.6L1082.2 293.2C1082.2 293.2 1114 307.3 1115.3 319.7C1116.6 332.1 1115.3 335.7 1115.3 335.7H1052.8L1039.1 353.4H988.1C982.6 353.4 978.2 349 978.2 343.5V299.4" fill="#A2AFF9" />
					<path  d="M978.1 250.3H1036.6L1082.2 293.2C1082.2 293.2 1114 307.3 1115.3 319.7C1116.6 332.1 1115.3 335.7 1115.3 335.7H1052.8L1039.1 353.4H988.1C982.6 353.4 978.2 349 978.2 343.5V299.4" fill="url(#paint2_linear_102_23509)" />
					<path  d="M1042.7 256.101H1032L1070.5 291.901H1080.7L1042.7 256.101Z" fill="#656DD6" />
					<g>
						<path  d="M1028.9 258.4L1064.4 292.1C1065.9 293.5 1064.9 296 1062.8 296H998.8C996.7 296 995.1 294.3 995.1 292.3V261.2C995.1 258.9 997 257 999.3 257H1025.1C1026.5 256.9 1027.9 257.4 1028.9 258.4Z" fill="#656DD6" />
						<g>
							<g>
								<g>
									<path  d="M1050.3 302.6C1049.9 302.4 1047.5 302.4 1047.5 302.4L1046.1 302.2L1044.5 305.9C1044.5 305.9 1047.2 307.2 1048.6 307.1L1050.3 302.6Z" fill="#F7B29A" />
									<path  d="M1046.1 305.2C1046.1 305.2 1048.3 305.4 1050.1 303.8L1051.2 304.4L1048.5 307.3C1048.5 307.3 1047.1 307 1046.5 306.8C1046 306.6 1046.1 305.2 1046.1 305.2Z" fill="#D48068" />
								</g>
								<g>
									<g>
										<path  d="M1015.9 280.2L1016.6 273.4H1021.2V281.1" fill="#F7B29A" />
										<path  d="M1019 275.7C1019 275.7 1020 278 1021.2 278V276.4L1019 275.7Z" fill="#D48068" />
										<path  d="M1024 265.8C1024 265.8 1024.2 268.6 1022.1 268.7C1020 268.8 1021.1 266.1 1021.1 266.1" fill="#1F1341" />
										<path  d="M1021 266.1C1021 266.1 1022.8 265 1023.2 267C1023.7 269.3 1023.8 275.7 1023.1 276.5C1022.5 277.2 1020.4 276.6 1020 276.5C1018.6 276.1 1019.7 276.4 1018.5 275.6L1016.4 275.3C1016.4 275.3 1015.2 271.4 1017.1 269C1019 266.7 1021 266.1 1021 266.1Z" fill="#F7B29A" />
										<path  d="M1016.4 275.4C1016.4 275.4 1017.3 271.3 1017.8 270.8C1018.2 270.4 1021.9 266.5 1021.9 266.5C1021.9 266.5 1022 265.2 1020.8 264.5C1019.7 263.9 1016.8 263.6 1015.3 264.2C1012.3 265.3 1012.2 269.1 1012.9 271C1013.6 272.9 1016.4 275.4 1016.4 275.4Z" fill="#1F1341" />
										<path  d="M1018.8 271.6C1018.8 271.6 1017.9 269.8 1016.7 269.9C1015.5 270 1015.2 272.8 1017.8 272.8" fill="#F7B29A" />
										<path  d="M1019.4 269.1C1019.4 269.1 1025.2 267.4 1025.6 265.2C1026 263.1 1024.7 262 1022.7 262C1020 262 1017.3 265.7 1017.3 265.7" fill="#1F1341" />
									</g>
									<g>
										<g>
											<path  d="M1021.2 281.1C1021.2 281.1 1024.8 283 1026 284.6C1027.2 286.2 1034 296.4 1034 296.4L1046.3 301.7L1045 306.2C1045 306.2 1031.5 302.7 1030.1 301.7C1028.8 300.7 1024.6 296.8 1024.6 296.8" fill="#54579C" />
											<path  d="M1045.1 306.3L1045.5 304.7C1045.5 304.7 1033.7 301.7 1031.4 300C1029.1 298.3 1024.7 288.6 1024.7 288.6L1024.8 296.9C1025.5 297.6 1029 300.7 1030.2 301.7C1031.5 302.8 1045.1 306.3 1045.1 306.3Z" fill="#1F1341" />
											<path  d="M1021.1 280.8C1021.1 280.8 1026.5 284.4 1027.2 289.8C1027.9 295.2 1024.8 307.2 1024.8 307.2H1013.3C1013.3 307.2 1010.3 304.8 1009.8 300C1008.9 291.8 1010.4 281.1 1012.2 280C1015 278.3 1021.1 280.8 1021.1 280.8Z" fill="#54579C" />
											<path  d="M1021.6 281.2C1021.6 281.2 1024 285.5 1024 291.2C1024 294.3 1024 294.9 1024 294.9H1027.2C1027.2 294.9 1026.8 285.1 1025.5 283.9C1024.3 282.7 1021.6 281.2 1021.6 281.2Z" fill="#AD1917" />
											<path  d="M1013.5 280.1L1015.4 277.3L1021.6 278.2V281.2" fill="#54579C" />
											<path  d="M1012.2 280.099C1012.2 280.099 1015.2 278.499 1017.8 281.399C1020.4 284.299 1022.2 297.2 1022.2 297.2L1012.8 297.399L1012.1 294.299C1012.1 294.299 1015.4 293.2 1015.9 290.7C1016.2 288.3 1016.8 279.799 1012.2 280.099Z" fill="#AD1917" />
											<path  d="M1046.1 289.7L1053.8 293.8V296.5L1046.1 296.9H1042.9" fill="#54579C" />
											<path  d="M1041.2 298C1040.6 297.7 1040.4 297.1 1040.6 296.5L1045.9 284.4C1046.2 283.8 1046.8 283.6 1047.4 283.8C1048 284.1 1048.2 284.7 1048 285.3L1042.7 297.4C1042.5 298 1041.8 298.3 1041.2 298Z" fill="#54579C" />
											<path  d="M1039.4 297.4C1039.4 297.4 1041.5 297.7 1041.9 297.6C1042.2 297.6 1043.6 296.6 1043.6 296.6L1045 293.1C1045.2 292.6 1044.8 292.2 1044.3 292.3C1043.3 292.6 1042.1 293 1042 292.9C1041.9 292.8 1042.2 292.8 1042.4 292.1C1042.5 291.7 1042.5 291.5 1042.4 291.2C1042.3 291 1041.9 291.1 1041.4 291.5C1039.5 293.1 1037.7 294 1037.7 294" fill="#F7B29A" />
											<path  d="M1012.2 280.1C1012.2 280.1 1005 285.8 1011.3 292.6C1017 298.6 1020.1 300.8 1022.5 301.7C1024.5 302.5 1039.3 297.3 1039.3 297.3L1038.1 293C1038.1 293 1027.2 292.9 1025 293.9L1018.4 286.7" fill="#54579C" />
										</g>
									</g>
								</g>
							</g>
							<path  d="M1021.9 273.9L1023.3 273.7C1023.3 273.7 1023.4 274.6 1022.8 274.6C1022.3 274.6 1021.9 273.9 1021.9 273.9Z" fill="white" />
						</g>
					</g>
					<path  d="M1054.7 301.9V322.6" stroke="#656DD6" stroke-width="1.6884" stroke-miterlimit="10" />
					<path  d="M1052.7 281V299.7H1055C1055.9 299.7 1056.8 299.3 1057.4 298.7C1058 298.1 1058.3 297.3 1058.3 296.5V284.2C1058.3 283.7 1058.2 283.3 1058 282.9L1057.9 282.7C1057.4 281.7 1056.4 281.1 1055.3 281.1H1052.7V281Z" fill="#1F1341" />
					<path  d="M1037.1 355.1C1037.1 339.4 1049.8 326.7 1065.5 326.7C1081.2 326.7 1093.9 339.4 1093.9 355.1H1037.1Z" fill="#1F1341" />
					<path  d="M841.8 348.6C838.9 336.1 827.6 326.7 814.2 326.7C800.8 326.7 789.6 336 786.6 348.6H841.8Z" fill="#1F1341" />
					<path  d="M1073.9 334.3H1114.5C1116.8 334.3 1118.7 336.2 1118.7 338.5V346.4L1115 353.4C1113.9 355.5 1111.7 356.9 1109.3 356.9H1025C1022.3 356.9 1020.2 354.8 1020.2 352.1V341.3C1020.2 337.4 1023.4 334.3 1027.2 334.3H1073.9V334.3Z" fill="#1F1341" />
					<path  d="M1065.4 377.601C1077.83 377.601 1087.9 367.527 1087.9 355.101C1087.9 342.674 1077.83 332.601 1065.4 332.601C1052.97 332.601 1042.9 342.674 1042.9 355.101C1042.9 367.527 1052.97 377.601 1065.4 377.601Z" fill="#888FA6" />
					<path  d="M1065.4 368C1072.52 368 1078.3 362.225 1078.3 355.1C1078.3 347.976 1072.52 342.2 1065.4 342.2C1058.28 342.2 1052.5 347.976 1052.5 355.1C1052.5 362.225 1058.28 368 1065.4 368Z" fill="#1F1341" />
					<path  d="M1065.4 361.601C1068.99 361.601 1071.9 358.69 1071.9 355.101C1071.9 351.511 1068.99 348.601 1065.4 348.601C1061.81 348.601 1058.9 351.511 1058.9 355.101C1058.9 358.69 1061.81 361.601 1065.4 361.601Z" fill="#888FA6" />
					<g>
						<path  d="M814.2 377.601C826.626 377.601 836.7 367.527 836.7 355.101C836.7 342.674 826.626 332.601 814.2 332.601C801.774 332.601 791.7 342.674 791.7 355.101C791.7 367.527 801.774 377.601 814.2 377.601Z" fill="#888FA6" />
						<path  d="M814.2 368C821.324 368 827.1 362.225 827.1 355.1C827.1 347.976 821.324 342.2 814.2 342.2C807.075 342.2 801.3 347.976 801.3 355.1C801.3 362.225 807.075 368 814.2 368Z" fill="#1F1341" />
						<path  d="M814.2 361.601C817.79 361.601 820.7 358.69 820.7 355.101C820.7 351.511 817.79 348.601 814.2 348.601C810.61 348.601 807.7 351.511 807.7 355.101C807.7 358.69 810.61 361.601 814.2 361.601Z" fill="#888FA6" />
					</g>
				</g>
				<path  d="M1087.9 307.601L1091 316.401C1091.7 318.301 1093.5 319.601 1095.5 319.601H1109.4C1109.4 319.601 1106.6 307.601 1101.9 307.601C1097.2 307.601 1087.9 307.601 1087.9 307.601Z" fill="white" />
			</g>
			<g>
				<path  d="M836.7 247H845L851.7 255.5L858.4 247H866.4V274.3H858.1L857.9 260.7L851.5 267.5L845.3 260.7V274.3H836.7V247Z" fill="white" />
				<path  d="M817.4 274.1V247C817.4 235.5 826.7 226.2 838.2 226.2H885.7V236.1H838.2C832.2 236.1 827.4 241 827.4 246.9V264C827.4 269.7 822.9 274.1 817.4 274.1Z" fill="white" />
				<path  d="M885.7 247V274.1C885.7 285.6 876.4 294.9 864.9 294.9H817.4V285H864.9C870.9 285 875.7 280.1 875.7 274.2V257C875.7 251.5 880.2 247 885.7 247Z" fill="white" />
			</g>
		</g>
		<g class="svgIcon svgIcon2">
			<path d="M557.316 311.388C549.35 311.388 542.27 309.323 536.074 305.192C529.879 300.963 525.011 294.965 521.47 287.196C517.93 279.328 516.16 269.887 516.16 258.873C516.16 247.859 517.93 238.467 521.47 230.698C525.011 222.831 529.879 216.832 536.074 212.701C542.27 208.473 549.35 206.358 557.316 206.358C565.282 206.358 572.362 208.473 578.558 212.701C584.754 216.832 589.621 222.831 593.162 230.698C596.8 238.467 598.62 247.859 598.62 258.873C598.62 269.887 596.8 279.328 593.162 287.196C589.621 294.965 584.754 300.963 578.558 305.192C572.362 309.323 565.282 311.388 557.316 311.388ZM557.316 301.652C563.413 301.652 568.724 300.029 573.247 296.784C577.771 293.44 581.312 288.622 583.868 282.328C586.425 275.935 587.704 268.117 587.704 258.873C587.704 249.629 586.425 241.86 583.868 235.566C581.312 229.174 577.771 224.355 573.247 221.11C568.724 217.766 563.413 216.094 557.316 216.094C551.416 216.094 546.154 217.766 541.532 221.11C536.91 224.355 533.321 229.174 530.764 235.566C528.207 241.86 526.928 249.629 526.928 258.873C526.928 268.117 528.207 275.935 530.764 282.328C533.321 288.622 536.91 293.44 541.532 296.784C546.154 300.029 551.416 301.652 557.316 301.652Z" fill="#E30313" />
			<path d="M643.219 311.388C635.745 311.388 628.665 310.208 621.978 307.847C615.389 305.389 610.078 302.144 606.046 298.112L611.209 289.703C614.553 293.145 619.027 295.997 624.633 298.259C630.337 300.521 636.532 301.652 643.219 301.652C651.775 301.652 658.315 299.783 662.839 296.046C667.461 292.309 669.772 287.294 669.772 281C669.772 274.706 667.51 269.691 662.986 265.954C658.561 262.217 651.529 260.348 641.892 260.348H634.516V252.53L666.379 212.554L667.854 216.684H610.324V207.243H676.705V214.767L644.842 254.743L639.679 251.35H643.662C656.053 251.35 665.297 254.103 671.394 259.611C677.59 265.118 680.688 272.198 680.688 280.853C680.688 286.655 679.311 291.867 676.557 296.489C673.804 301.111 669.624 304.75 664.019 307.405C658.512 310.06 651.578 311.388 643.219 311.388Z" fill="#E30313" />
		</g>
		<g class="svgIcon svgIcon6">
			<g>
				<path  d="M1229.4 113.3H1124C1121.6 113.3 1119.6 111.4 1119.6 108.9V43.9C1119.6 41.5 1121.5 39.5 1124 39.5H1229.4C1231.8 39.5 1233.8 41.4 1233.8 43.9V108.9C1233.8 111.4 1231.8 113.3 1229.4 113.3Z" fill="#DFE1E8" />
				<g>
					<g>
						<g>
							<path  d="M1152.1 86.4996C1162.7 86.4996 1171.3 77.9035 1171.3 67.2996C1171.3 56.6957 1162.7 48.0996 1152.1 48.0996C1141.5 48.0996 1132.9 56.6957 1132.9 67.2996C1132.9 77.9035 1141.5 86.4996 1152.1 86.4996Z" fill="#C28FBF" />
						</g>
						<g>
							<path  d="M1194.6 54.3994H1220.5" stroke="white" stroke-width="2" stroke-miterlimit="10" stroke-linecap="round" stroke-linejoin="round" />
							<path  d="M1194.6 62.999H1220.5" stroke="white" stroke-width="2" stroke-miterlimit="10" stroke-linecap="round" stroke-linejoin="round" />
							<path  d="M1194.6 84.8994H1207.6" stroke="white" stroke-width="2" stroke-miterlimit="10" stroke-linecap="round" stroke-linejoin="round" />
						</g>
					</g>
					<g>
						<path  d="M1140.9 92.6992L1142.4 95.7992C1142.5 95.9992 1142.7 96.0992 1142.9 96.1992L1146.3 96.6992C1146.9 96.7992 1147.1 97.4992 1146.7 97.8992L1144.2 100.299C1144 100.499 1144 100.699 1144 100.899L1144.6 104.299C1144.7 104.899 1144.1 105.299 1143.6 104.999L1140.6 103.399C1140.4 103.299 1140.2 103.299 1140 103.399L1137 104.999C1136.5 105.299 1135.9 104.799 1136 104.299L1136.6 100.899C1136.6 100.699 1136.6 100.499 1136.4 100.299L1133.9 97.8992C1133.5 97.4992 1133.7 96.7992 1134.3 96.6992L1137.7 96.1992C1137.9 96.1992 1138.1 95.9992 1138.2 95.7992L1139.7 92.6992C1140 92.1992 1140.7 92.1992 1140.9 92.6992Z" fill="white" />
						<path  d="M1159.1 92.6992L1160.6 95.7992C1160.7 95.9992 1160.9 96.0992 1161.1 96.1992L1164.5 96.6992C1165.1 96.7992 1165.3 97.4992 1164.9 97.8992L1162.4 100.299C1162.2 100.499 1162.2 100.699 1162.2 100.899L1162.8 104.299C1162.9 104.899 1162.3 105.299 1161.8 104.999L1158.8 103.399C1158.6 103.299 1158.4 103.299 1158.2 103.399L1155.2 104.999C1154.7 105.299 1154.1 104.799 1154.2 104.299L1154.8 100.899C1154.8 100.699 1154.8 100.499 1154.6 100.299L1152.1 97.8992C1151.7 97.4992 1151.9 96.7992 1152.5 96.6992L1155.9 96.1992C1156.1 96.1992 1156.3 95.9992 1156.4 95.7992L1157.9 92.6992C1158.2 92.1992 1158.9 92.1992 1159.1 92.6992Z" fill="white" />
						<path  d="M1177.3 92.6992L1178.8 95.7992C1178.9 95.9992 1179.1 96.0992 1179.3 96.1992L1182.7 96.6992C1183.3 96.7992 1183.5 97.4992 1183.1 97.8992L1180.6 100.299C1180.4 100.499 1180.4 100.699 1180.4 100.899L1181 104.299C1181.1 104.899 1180.5 105.299 1180 104.999L1177 103.399C1176.8 103.299 1176.6 103.299 1176.4 103.399L1173.4 104.999C1172.9 105.299 1172.3 104.799 1172.4 104.299L1173 100.899C1173 100.699 1173 100.499 1172.8 100.299L1170.3 97.8992C1169.9 97.4992 1170.1 96.7992 1170.7 96.6992L1174.1 96.1992C1174.3 96.1992 1174.5 95.9992 1174.6 95.7992L1176.1 92.6992C1176.3 92.1992 1177.1 92.1992 1177.3 92.6992Z" fill="white" />
						<path  d="M1195.5 92.6992L1197 95.7992C1197.1 95.9992 1197.3 96.0992 1197.5 96.1992L1200.9 96.6992C1201.5 96.7992 1201.7 97.4992 1201.3 97.8992L1198.8 100.299C1198.6 100.499 1198.6 100.699 1198.6 100.899L1199.2 104.299C1199.3 104.899 1198.7 105.299 1198.2 104.999L1195.2 103.399C1195 103.299 1194.8 103.299 1194.6 103.399L1191.6 104.999C1191.1 105.299 1190.5 104.799 1190.6 104.299L1191.2 100.899C1191.2 100.699 1191.2 100.499 1191 100.299L1188.5 97.8992C1188.1 97.4992 1188.3 96.7992 1188.9 96.6992L1192.3 96.1992C1192.5 96.1992 1192.7 95.9992 1192.8 95.7992L1194.3 92.6992C1194.5 92.1992 1195.2 92.1992 1195.5 92.6992Z" fill="white" />
						<path  d="M1213.7 92.6992L1215.2 95.7992C1215.3 95.9992 1215.5 96.0992 1215.7 96.1992L1219.1 96.6992C1219.7 96.7992 1219.9 97.4992 1219.5 97.8992L1217 100.299C1216.8 100.499 1216.8 100.699 1216.8 100.899L1217.4 104.299C1217.5 104.899 1216.9 105.299 1216.4 104.999L1213.4 103.399C1213.2 103.299 1213 103.299 1212.8 103.399L1209.8 104.999C1209.3 105.299 1208.7 104.799 1208.8 104.299L1209.4 100.899C1209.4 100.699 1209.4 100.499 1209.2 100.299L1206.7 97.8992C1206.3 97.4992 1206.5 96.7992 1207.1 96.6992L1210.5 96.1992C1210.7 96.1992 1210.9 95.9992 1211 95.7992L1212.5 92.6992C1212.7 92.1992 1213.4 92.1992 1213.7 92.6992Z" fill="white" />
					</g>
				</g>
			</g>
			<g>
				<path  d="M1153.9 75.6H1147.5L1145.5 63H1155.9L1153.9 75.6Z" stroke="white" stroke-width="2" stroke-miterlimit="10" stroke-linecap="round" stroke-linejoin="round" />
				<path  d="M1158 63H1143.3" stroke="white" stroke-width="2" stroke-miterlimit="10" stroke-linecap="round" stroke-linejoin="round" />
			</g>
			<g>
				<path  d="M1150.7 62.9996L1150 58.5996H1160.5L1158.5 71.1996H1155.2" stroke="white" stroke-width="2" stroke-miterlimit="10" stroke-linecap="round" stroke-linejoin="round" />
				<path  d="M1162.5 58.5996H1147.9" stroke="white" stroke-width="2" stroke-miterlimit="10" stroke-linecap="round" stroke-linejoin="round" />
			</g>
		</g>
		<g class="svgIcon svgIcon7">
			<g>
				<path  d="M134.9 235.2C143.626 235.2 150.7 228.126 150.7 219.4C150.7 210.673 143.626 203.6 134.9 203.6C126.174 203.6 119.1 210.673 119.1 219.4C119.1 228.126 126.174 235.2 134.9 235.2Z" fill="#DFE1E8" />
				<path  d="M127.6 219.8L134.1 225.9L142.1 213" stroke="white" stroke-miterlimit="10" stroke-linecap="round" stroke-linejoin="round" />
			</g>
			<g>
				<g>
					<path  d="M94.9 235H6C3 235 0.5 232.5 0.5 229.5V192.8C0.5 189.8 3 187.3 6 187.3H94.9C97.9 187.3 100.4 189.8 100.4 192.8V229.5C100.5 232.6 98 235 94.9 235Z" fill="#DFE1E8" />
					<path  d="M17.8 221C23.2677 221 27.7 216.568 27.7 211.1C27.7 205.633 23.2677 201.2 17.8 201.2C12.3324 201.2 7.90002 205.633 7.90002 211.1C7.90002 216.568 12.3324 221 17.8 221Z" fill="#A7D07D" />
					<path  d="M36.6 211.2H84.9" stroke="white" stroke-width="2" stroke-miterlimit="10" stroke-linecap="round" stroke-linejoin="round" />
				</g>
				<path  d="M44.5 204.399V217.799" stroke="#E30313" stroke-width="2.5364" stroke-miterlimit="10" stroke-linecap="round" stroke-linejoin="round" />
			</g>
		</g>
		<g class="svgIcon svgIcon5">
			<g>
				<g>
					<g>
						<g>
							<path  d="M1280.6 228.2C1280.6 228.2 1283.1 225.8 1285.6 226.5C1288 227.1 1287.7 231.1 1286.9 232C1286.5 232.5 1284.9 233.2 1283.3 233C1281.8 232.8 1280.5 233 1280.3 232.8C1279.6 232.4 1279.7 229.1 1280.6 228.2Z" fill="#F0AC95" />
						</g>
					</g>
					<path  d="M1249.2 202.601L1259.3 226.201L1281.1 226.901V233.401C1281.1 233.401 1253.7 237.401 1249.8 233.701" fill="#A2AFF9" />
					<path  d="M1255 216.1C1255 216.1 1253.4 228.2 1256 230.7C1258.6 233.2 1264 232.5 1264 232.5L1264.3 235.2L1255.1 235.1L1246.9 236V221.1L1251.6 213.5" fill="#656DD6" />
					<path  d="M1281.1 229.7C1281.1 229.7 1254.2 234.8 1251.4 233.3C1248.6 231.8 1250.2 236.3 1250.2 236.3L1252.9 235.9C1252.9 235.9 1274.6 236.9 1281.1 233.4V229.7Z" fill="#656DD6" />
					<g>
						<path  d="M1263.3 329.1L1264.4 333.8C1264.6 334.8 1265.7 335.5 1266.7 335.2L1280 332.1C1280.8 331.9 1281 330.8 1280.3 330.3C1279.6 329.8 1276.6 329.1 1274.5 328.7C1270 328 1268.1 328.3 1268.1 328.3L1263.3 329.1Z" fill="#1F1341" />
						<path  d="M1262.6 329.1L1263.7 333.8C1263.9 334.8 1265 335.5 1266 335.2L1279.3 332.1C1280.1 331.9 1280.3 330.8 1279.6 330.3C1278.9 329.8 1275.9 329.1 1273.8 328.7C1269.3 328 1267.4 328.3 1267.4 328.3L1262.6 329.1Z" fill="#54579C" />
						<path  d="M1211.5 324.4L1209.8 328.9C1209.4 329.9 1209.9 331 1210.9 331.4L1223.7 336.3C1224.5 336.6 1225.3 335.8 1224.9 335C1224.6 334.2 1222.5 331.9 1221 330.5C1217.7 327.4 1215.9 326.6 1215.9 326.6L1211.5 324.4Z" fill="#54579C" />
						<g>
							<path  d="M1249.9 184.5C1249.9 184.5 1254.1 201.1 1245.3 200.3C1236.6 199.5 1237.6 190.9 1237.6 190.9" fill="#1F1341" />
							<g>
								<path  d="M1252.3 253.9C1252.3 253.9 1246 292.2 1244.7 294.5L1217.7 327.8L1211.5 324.4L1232 289L1232.5 253.9" fill="#F07F35" />
								<path  d="M1232.2 274.101C1232.2 274.101 1236.6 274.001 1240.8 280.601C1243.5 284.901 1245.7 290.801 1245.7 290.801L1250.7 271.401L1232.5 253.801L1232.2 274.101Z" fill="#D15F20" />
								<path  d="M1231.7 241.801C1231.7 241.801 1228.9 249.701 1233.9 258.101C1238.9 266.501 1249.9 287.401 1250.5 289.901C1250.7 290.801 1253.4 296.501 1255.1 303.301C1257.9 314.901 1262.7 329.701 1262.7 329.701L1270.5 328.301L1261.7 283.501L1255 244.701L1231.7 241.801Z" fill="#F07F35" />
								<path  d="M1244.9 196.7L1246.2 191.2C1246.2 191.2 1249.8 191.6 1250.4 191.2C1251.3 190.6 1253.9 178.5 1251.2 175.6C1248.5 172.7 1242.1 172 1239.4 176.4C1236.7 180.8 1238.2 189.4 1238.2 189.4L1237.4 193.3" fill="#F7B29A" />
								<path  d="M1234.7 194L1237.6 190.9L1248 195.2V200.7C1248 200.7 1253.9 209.4 1254.5 214.1C1255.1 218.7 1251.8 227.9 1251.9 230.6C1252 233.3 1255 244.8 1255 244.8L1234.6 242.2V194H1234.7Z" fill="#A2AFF9" />
								<path  d="M1226.7 203.4L1234.8 194L1244.2 198.7C1244.2 198.7 1254.5 225.3 1242.8 244.7L1224.4 239.8C1224.4 239.8 1226.7 235.6 1226.7 228.9C1226.7 222.2 1226.7 203.4 1226.7 203.4Z" fill="#A2AFF9" />
								<path  d="M1224.7 238.3L1226.6 221.4L1234.7 216.5C1234.7 216.5 1232.2 235.1 1224.3 239.8" fill="#656DD6" />
							</g>
							<g>
								<g>
									<path  d="M1207.2 256.8C1207.2 256.8 1201 267.5 1202.6 269.3C1203.9 270.8 1211.2 267.4 1210.6 262.7C1210.3 260 1207.2 256.8 1207.2 256.8Z" fill="white" />
								</g>
								<path  d="M1204.1 226L1201 209.1L1207.6 207.1L1210.5 207.8L1214.1 225.2" fill="#FEDA8C" />
								<path  d="M1238 265.7L1229.8 265.2L1195 257.5L1201.2 221.2L1236.7 228.2L1246.2 231.3L1238 265.7Z" fill="#A7D07D" />
								<g>
									<path  d="M1211.5 239L1212.8 239.4L1213.6 241L1215 239.8L1216.3 240.1L1215.3 244.6L1214 244.3L1214.4 242L1213.2 242.9L1212.4 241.6L1211.9 243.8L1210.5 243.5L1211.5 239Z" fill="white" />
									<path  d="M1207.4 242.7L1208.4 238.3C1208.8 236.4 1210.7 235.3 1212.5 235.7L1220.2 237.4L1219.8 239L1212.1 237.3C1211.1 237.1 1210.2 237.7 1209.9 238.7L1209.3 241.5C1209.1 242.4 1208.3 242.9 1207.4 242.7Z" fill="white" />
									<path  d="M1219.4 240.8L1218.4 245.2C1218 247.1 1216.1 248.2 1214.3 247.8L1206.6 246.1L1207 244.5L1214.7 246.2C1215.7 246.4 1216.6 245.8 1216.9 244.8L1217.5 242C1217.7 241.2 1218.5 240.6 1219.4 240.8Z" fill="white" />
								</g>
								<g>
									<path  d="M1217.6 256.9C1217.6 258.1 1217.7 259.6 1218.1 260.8C1218.4 261.9 1219.7 262.2 1219.8 261C1219.9 259.8 1219.8 256.7 1219.6 255" fill="#F7B29A" />
									<g>
										<path  d="M1219.8 250.6C1219.5 252.4 1219.6 256.1 1219.4 257.3C1219.2 258.5 1217.1 258.7 1215 259.1C1213.2 259.5 1212 258.4 1212.2 256.5C1212.3 255.2 1213.5 249.4 1213.9 247.4" fill="#F7B29A" />
										<path  d="M1212.3 255.4C1211.8 257.2 1212.2 259.1 1212.5 259.9C1212.8 260.6 1213.9 262.5 1214.6 262.2C1215.2 262 1215.2 261.3 1214.8 260.6C1214.4 260.1 1214.1 259.4 1214.2 258.6" fill="#F7B29A" />
										<path  d="M1213.6 257.801C1213.5 259.301 1213.3 261.101 1213.6 261.901C1213.9 262.601 1215.2 263.901 1215.8 263.501C1216.4 263.201 1216 262.601 1215.6 262.101C1215.2 261.601 1215 261.201 1215.1 260.501C1215.2 259.801 1215.3 259.301 1215.7 258.101" fill="#F7B29A" />
										<path  d="M1215.4 256.9C1215.1 258.3 1214.9 260.7 1215 261.4C1215.1 262.2 1215.6 263.8 1216.3 263.5C1216.8 263.3 1216.8 262.6 1216.9 262C1217 260.6 1217.6 257.9 1218.1 256.4" fill="#F7B29A" />
									</g>
								</g>
								<path  d="M1240.1 232.2C1240.1 232.2 1246.1 198.2 1235 197.9C1223.9 197.6 1202.4 222.3 1202.4 222.3" stroke="#A7D07D" stroke-width="1.778" stroke-miterlimit="10" />
								<path  d="M1229.4 195.7C1229.4 195.7 1223 203.8 1220.2 218.3C1217.8 230.9 1212.1 254.2 1212.1 254.2L1220.2 255.9C1220.2 255.9 1226.5 239.3 1226.9 234.4C1227.3 229.4 1237.8 213.7 1236.7 208.3C1235.6 203 1231.8 200.3 1231.8 200.3" fill="#A2AFF9" />
								<path  d="M1249.2 173.8C1249.2 173.8 1243.6 171.1 1239.2 173.2C1234.8 175.3 1233.2 184.7 1227.9 188.2C1222.6 191.7 1219.1 194.9 1219.1 199.9C1219.1 204.9 1225.9 208.7 1233.2 208.7C1240.5 208.7 1245.3 182.5 1245.3 182.5" fill="#1F1341" />
							</g>
							<path  d="M1237.8 185.9C1248 185.4 1252.2 178.5 1252.2 178.5C1252.2 178.5 1251.5 172.4 1244.1 172.4C1236.7 172.4 1237.8 185.9 1237.8 185.9Z" fill="#1F1341" />
						</g>
					</g>
					<g>
						<g>
							<path  d="M1291.6 224.9L1292.8 224.5C1293.1 224.4 1293.5 224.6 1293.6 225C1293.7 225.3 1293.6 225.5 1293.3 225.7L1291.7 226.8" fill="#F0AC95" />
						</g>
					</g>
					<path  d="M1289.6 233.701H1285.4C1284.9 233.701 1284.6 233.301 1284.6 232.801L1286.6 221.401C1286.7 220.801 1287.3 220.301 1287.9 220.301H1292.1C1292.6 220.301 1292.9 220.701 1292.9 221.201L1290.9 232.601C1290.8 233.201 1290.2 233.701 1289.6 233.701Z" fill="#888FA6" />
					<path  d="M1283.1 226.7C1283.1 226.7 1285.7 224.5 1286.1 224.2C1286.7 223.8 1287.1 224.7 1286.7 225.4C1286.2 226.4 1285.2 227.4 1285.2 227.4" fill="#F0AC95" />
				</g>
				<path  d="M1229.8 265.2L1236.7 228.2L1246.2 231.3L1238 265.7L1229.8 265.2Z" fill="#61A61C" />
			</g>
			<g>
				<g>
					<path  d="M1346.6 201.7H1292.4C1289.7 201.7 1287.6 199.5 1287.6 196.9V170.3C1287.6 167.6 1289.8 165.5 1292.4 165.5H1346.6C1349.3 165.5 1351.4 167.7 1351.4 170.3V196.9C1351.5 199.5 1349.3 201.7 1346.6 201.7Z" fill="#DFE1E8" />
					<path  d="M1296.6 198V205.5C1296.6 206.5 1297.8 206.9 1298.4 206.2L1305.1 198.1" fill="#DFE1E8" />
				</g>
				<path  d="M1321.2 196.9C1328.6 196.9 1334.6 190.9 1334.6 183.5C1334.6 176.099 1328.6 170.1 1321.2 170.1C1313.8 170.1 1307.8 176.099 1307.8 183.5C1307.8 190.9 1313.8 196.9 1321.2 196.9Z" fill="white" />
				<path  d="M1324.2 178.2C1323 178.2 1321.9 178.7 1321.2 179.6C1320.5 178.8 1319.4 178.2 1318.2 178.2C1315.9 178.2 1314.1 180 1314.1 182.3C1314.1 185.6 1321.2 191 1321.2 191C1321.2 191 1328.3 185.7 1328.3 182.3C1328.3 180 1326.5 178.2 1324.2 178.2Z" fill="#E30313" />
			</g>
		</g>
		<g class="svgIcon svgIcon9">
			<g>
				<path  d="M359.2 77.5998C380.408 77.5998 397.6 60.4075 397.6 39.1998C397.6 17.9921 380.408 0.799805 359.2 0.799805C337.992 0.799805 320.8 17.9921 320.8 39.1998C320.8 60.4075 337.992 77.5998 359.2 77.5998Z" fill="#DFE1E8" />
			</g>
			<g>
				<g>
					<path  d="M340.1 40.0996L344.5 53.5996C344.9 54.6996 345.9 55.4996 347.2 55.4996H371.1C372.3 55.4996 373.4 54.6996 373.8 53.5996L378.2 40.2996" stroke="white" stroke-width="2" stroke-miterlimit="10" stroke-linecap="round" stroke-linejoin="round" />
					<path  d="M357.3 33.8994H341.1C339.3 33.8994 337.9 35.2994 337.9 37.0994C337.9 38.8994 339.3 40.2994 341.1 40.2994H377.2C379 40.2994 380.4 38.8994 380.4 37.0994C380.4 35.2994 379 33.8994 377.2 33.8994H368.1" stroke="white" stroke-width="2" stroke-miterlimit="10" stroke-linecap="round" stroke-linejoin="round" />
					<g>
						<g>
							<path  d="M371.1 43.6992L369.3 51.6992" stroke="white" stroke-width="2" stroke-miterlimit="10" stroke-linecap="round" stroke-linejoin="round" />
							<path  d="M365.1 43.6992L364.3 51.6992" stroke="white" stroke-width="2" stroke-miterlimit="10" stroke-linecap="round" stroke-linejoin="round" />
							<path  d="M359.2 43.6992V51.6992" stroke="white" stroke-width="2" stroke-miterlimit="10" stroke-linecap="round" stroke-linejoin="round" />
							<path  d="M353.2 43.6992L354.1 51.6992" stroke="white" stroke-width="2" stroke-miterlimit="10" stroke-linecap="round" stroke-linejoin="round" />
							<path  d="M347.3 43.6992L349 51.6992" stroke="white" stroke-width="2" stroke-miterlimit="10" stroke-linecap="round" stroke-linejoin="round" />
						</g>
					</g>
				</g>
				<path  d="M371.3 23.5996C370.3 22.5996 368.8 22.5996 367.8 23.5996L357.3 34.0996C356.3 35.0996 356.3 36.5996 357.3 37.5996C358.3 38.5996 359.8 38.5996 360.8 37.5996L371.3 27.0996C372.3 26.0996 372.3 24.5996 371.3 23.5996Z" stroke="white" stroke-width="2" stroke-miterlimit="10" stroke-linecap="round" stroke-linejoin="round" />
			</g>
		</g>
		<g class="svgIcon svgIcon8">
			<g>
				<g>
					<g>
						<g>
							<g>
								<path  d="M1559.9 356.099H1471C1468 356.099 1465.5 353.599 1465.5 350.599V313.899C1465.5 310.899 1468 308.399 1471 308.399H1559.9C1562.9 308.399 1565.4 310.899 1565.4 313.899V350.599C1565.4 353.599 1562.9 356.099 1559.9 356.099Z" fill="#DFE1E8" />
							</g>
						</g>
					</g>
				</g>
				<g>
					<path  d="M1484.5 321.6H1476.5C1475.6 321.6 1474.9 322.3 1474.9 323.2V342.4C1474.9 343.3 1475.6 344 1476.5 344H1484.5C1485.4 344 1486.1 343.3 1486.1 342.4V323.2C1486.2 322.3 1485.4 321.6 1484.5 321.6Z" fill="#A7D07D" />
					<path  d="M1502.7 332.8H1494.7C1493.8 332.8 1493.1 333.5 1493.1 334.4V342.4C1493.1 343.3 1493.8 344 1494.7 344H1502.7C1503.6 344 1504.3 343.3 1504.3 342.4V334.4C1504.4 333.5 1503.6 332.8 1502.7 332.8Z" fill="#A7D07D" />
					<path  d="M1539.1 323.8H1531.1C1530.2 323.8 1529.5 324.5 1529.5 325.4V342.4C1529.5 343.3 1530.2 344 1531.1 344H1539.1C1540 344 1540.7 343.3 1540.7 342.4V325.4C1540.7 324.5 1540 323.8 1539.1 323.8Z" fill="#A7D07D" />
					<path  d="M1557.3 332.8H1549.3C1548.4 332.8 1547.7 333.5 1547.7 334.4V342.4C1547.7 343.3 1548.4 344 1549.3 344H1557.3C1558.2 344 1558.9 343.3 1558.9 342.4V334.4C1558.9 333.5 1558.2 332.8 1557.3 332.8Z" fill="#A7D07D" />
					<path  d="M1520.9 321.6H1512.9C1512 321.6 1511.3 322.3 1511.3 323.2V342.4C1511.3 343.3 1512 344 1512.9 344H1520.9C1521.8 344 1522.5 343.3 1522.5 342.4V323.2C1522.5 322.3 1521.8 321.6 1520.9 321.6Z" fill="#A7D07D" />
				</g>
			</g>
			<path  d="M1592.8 327.3C1598.27 327.3 1602.7 322.868 1602.7 317.4C1602.7 311.932 1598.27 307.5 1592.8 307.5C1587.33 307.5 1582.9 311.932 1582.9 317.4C1582.9 322.868 1587.33 327.3 1592.8 327.3Z" fill="#A7D07D" />
		</g>
	</g>
	<defs>
		<linearGradient id="paint0_linear_102_23509" x1="477.328" y1="169.9" x2="461.628" y2="222.233" gradientUnits="userSpaceOnUse">
			<stop offset="0.2405" stop-color="#E30313" />
			<stop offset="0.9469" stop-color="#AD1917" />
		</linearGradient>
		<linearGradient id="paint1_linear_102_23509" x1="1106.32" y1="222.336" x2="887.95" y2="255.396" gradientUnits="userSpaceOnUse">
			<stop offset="0.4598" stop-color="#E30313" />
			<stop offset="0.6048" stop-color="#AD1917" />
		</linearGradient>
		<linearGradient id="paint2_linear_102_23509" x1="1047.27" y1="362.936" x2="1045.93" y2="257.928" gradientUnits="userSpaceOnUse">
			<stop stop-color="#656DD6" />
			<stop offset="0.2538" stop-color="#A2AFF9" />
		</linearGradient>
	</defs>
</svg>
