<svg width="375" height="667" viewBox="0 0 375 667" fill="none" xmlns="http://www.w3.org/2000/svg">
<style>
    .svgIcon {
      opacity: 0;
	  transform:translateY(0.63rem); 
	  transition: all ease 0.5s;
    }
	.svgIcon1{
		transition-delay: 0s;
	}
	.svgIcon2{
		transition-delay: 0.2s;
	}
	.svgIcon3{
		transition-delay: 0.4s;
	}
	.svgIcon4{
		transition-delay: 0.6s;
	}
	.svgIcon5{
		transition-delay: 1s;
	}
	.svgIcon6{
		transition-delay: 1.4s;
	}
	.svgIcon7{
		transition-delay: 2s;
	}
  </style>
	<g id="iPhone 8 - 26">
		<g class="svgIcon svgIcon1">
			<g id="Group" opacity="0.64">
				<g>
					<path id="Vector" d="M71.0099 189.82H66.6899V309.23H71.0099V189.82Z" fill="#DFE1E8" />
					<g>
						<path d="M322.14 188.02H66.6899V192.16H322.14V188.02Z" fill="#DFE1E8" />
						<g>
							<path d="M322.14 208.56H66.6899V212.7H322.14V208.56Z" fill="#DFE1E8" />
							<path d="M322.14 228.91H66.6899V233.05H322.14V228.91Z" fill="#DFE1E8" />
							<path d="M322.14 249.26H66.6899V253.4H322.14V249.26Z" fill="#DFE1E8" />
							<path d="M322.13 273.75V269.61H66.6899V273.75" fill="#DFE1E8" />
							<path d="M322.14 270.04H66.6899V274.18H322.14V270.04Z" fill="#DFE1E8" />
							<path d="M322.13 294.53V290.39H66.6899V294.53" fill="#DFE1E8" />
							<path d="M322.14 290.39H66.6899V309.22H322.14V290.39Z" fill="#DFE1E8" />
						</g>
						<path d="M322.42 189.82H318.1V309.23H322.42V189.82Z" fill="#DFE1E8" />
					</g>
					<g>
						<path d="M84.4101 257.09H79.9801C78.1023 257.09 76.5801 258.612 76.5801 260.49V267.25C76.5801 269.128 78.1023 270.65 79.9801 270.65H84.4101C86.2878 270.65 87.8101 269.128 87.8101 267.25V260.49C87.8101 258.612 86.2878 257.09 84.4101 257.09Z" fill="#DFE1E8" />
						<path d="M99.9101 257.09H95.4801C93.6023 257.09 92.0801 258.612 92.0801 260.49V267.25C92.0801 269.128 93.6023 270.65 95.4801 270.65H99.9101C101.788 270.65 103.31 269.128 103.31 267.25V260.49C103.31 258.612 101.788 257.09 99.9101 257.09Z" fill="#DFE1E8" />
						<path d="M115.55 257.09H111.12C109.242 257.09 107.72 258.612 107.72 260.49V267.25C107.72 269.128 109.242 270.65 111.12 270.65H115.55C117.428 270.65 118.95 269.128 118.95 267.25V260.49C118.95 258.612 117.428 257.09 115.55 257.09Z" fill="#DFE1E8" />
						<path d="M131.06 257.09H126.63C124.752 257.09 123.23 258.612 123.23 260.49V267.25C123.23 269.128 124.752 270.65 126.63 270.65H131.06C132.938 270.65 134.46 269.128 134.46 267.25V260.49C134.46 258.612 132.938 257.09 131.06 257.09Z" fill="#DFE1E8" />
						<path d="M148.02 257.09H143.59C141.712 257.09 140.19 258.612 140.19 260.49V267.25C140.19 269.128 141.712 270.65 143.59 270.65H148.02C149.898 270.65 151.42 269.128 151.42 267.25V260.49C151.42 258.612 149.898 257.09 148.02 257.09Z" fill="#DFE1E8" />
						<path d="M163.52 257.09H159.09C157.212 257.09 155.69 258.612 155.69 260.49V267.25C155.69 269.128 157.212 270.65 159.09 270.65H163.52C165.398 270.65 166.92 269.128 166.92 267.25V260.49C166.92 258.612 165.398 257.09 163.52 257.09Z" fill="#DFE1E8" />
						<path d="M179.16 257.09H174.73C172.852 257.09 171.33 258.612 171.33 260.49V267.25C171.33 269.128 172.852 270.65 174.73 270.65H179.16C181.038 270.65 182.56 269.128 182.56 267.25V260.49C182.56 258.612 181.038 257.09 179.16 257.09Z" fill="#DFE1E8" />
						<path d="M194.66 257.09H190.23C188.352 257.09 186.83 258.612 186.83 260.49V267.25C186.83 269.128 188.352 270.65 190.23 270.65H194.66C196.538 270.65 198.06 269.128 198.06 267.25V260.49C198.06 258.612 196.538 257.09 194.66 257.09Z" fill="#DFE1E8" />
						<path d="M212.44 257.09H208.01C206.132 257.09 204.61 258.612 204.61 260.49V267.25C204.61 269.128 206.132 270.65 208.01 270.65H212.44C214.318 270.65 215.84 269.128 215.84 267.25V260.49C215.84 258.612 214.318 257.09 212.44 257.09Z" fill="#DFE1E8" />
						<path d="M227.94 257.09H223.51C221.632 257.09 220.11 258.612 220.11 260.49V267.25C220.11 269.128 221.632 270.65 223.51 270.65H227.94C229.818 270.65 231.34 269.128 231.34 267.25V260.49C231.34 258.612 229.818 257.09 227.94 257.09Z" fill="#DFE1E8" />
						<path d="M243.58 257.09H239.15C237.272 257.09 235.75 258.612 235.75 260.49V267.25C235.75 269.128 237.272 270.65 239.15 270.65H243.58C245.458 270.65 246.98 269.128 246.98 267.25V260.49C246.98 258.612 245.458 257.09 243.58 257.09Z" fill="#DFE1E8" />
						<path d="M259.08 257.09H254.65C252.772 257.09 251.25 258.612 251.25 260.49V267.25C251.25 269.128 252.772 270.65 254.65 270.65H259.08C260.958 270.65 262.48 269.128 262.48 267.25V260.49C262.48 258.612 260.958 257.09 259.08 257.09Z" fill="#DFE1E8" />
						<path d="M276.04 257.09H271.61C269.732 257.09 268.21 258.612 268.21 260.49V267.25C268.21 269.128 269.732 270.65 271.61 270.65H276.04C277.918 270.65 279.44 269.128 279.44 267.25V260.49C279.44 258.612 277.918 257.09 276.04 257.09Z" fill="#DFE1E8" />
						<path d="M291.54 257.09H287.11C285.232 257.09 283.71 258.612 283.71 260.49V267.25C283.71 269.128 285.232 270.65 287.11 270.65H291.54C293.418 270.65 294.94 269.128 294.94 267.25V260.49C294.94 258.612 293.418 257.09 291.54 257.09Z" fill="#DFE1E8" />
						<path d="M307.18 257.09H302.75C300.872 257.09 299.35 258.612 299.35 260.49V267.25C299.35 269.128 300.872 270.65 302.75 270.65H307.18C309.058 270.65 310.58 269.128 310.58 267.25V260.49C310.58 258.612 309.058 257.09 307.18 257.09Z" fill="#DFE1E8" />
					</g>
					<g>
						<path d="M84.4101 281.75H79.9801C78.1023 281.75 76.5801 283.272 76.5801 285.15V291.91C76.5801 293.788 78.1023 295.31 79.9801 295.31H84.4101C86.2878 295.31 87.8101 293.788 87.8101 291.91V285.15C87.8101 283.272 86.2878 281.75 84.4101 281.75Z" fill="#DFE1E8" />
						<path d="M99.9101 281.75H95.4801C93.6023 281.75 92.0801 283.272 92.0801 285.15V291.91C92.0801 293.788 93.6023 295.31 95.4801 295.31H99.9101C101.788 295.31 103.31 293.788 103.31 291.91V285.15C103.31 283.272 101.788 281.75 99.9101 281.75Z" fill="#DFE1E8" />
						<path d="M115.55 281.75H111.12C109.242 281.75 107.72 283.272 107.72 285.15V291.91C107.72 293.788 109.242 295.31 111.12 295.31H115.55C117.428 295.31 118.95 293.788 118.95 291.91V285.15C118.95 283.272 117.428 281.75 115.55 281.75Z" fill="#DFE1E8" />
						<path d="M131.06 281.75H126.63C124.752 281.75 123.23 283.272 123.23 285.15V291.91C123.23 293.788 124.752 295.31 126.63 295.31H131.06C132.938 295.31 134.46 293.788 134.46 291.91V285.15C134.46 283.272 132.938 281.75 131.06 281.75Z" fill="#DFE1E8" />
						<path d="M148.02 281.75H143.59C141.712 281.75 140.19 283.272 140.19 285.15V291.91C140.19 293.788 141.712 295.31 143.59 295.31H148.02C149.898 295.31 151.42 293.788 151.42 291.91V285.15C151.42 283.272 149.898 281.75 148.02 281.75Z" fill="#DFE1E8" />
						<path d="M163.52 281.75H159.09C157.212 281.75 155.69 283.272 155.69 285.15V291.91C155.69 293.788 157.212 295.31 159.09 295.31H163.52C165.398 295.31 166.92 293.788 166.92 291.91V285.15C166.92 283.272 165.398 281.75 163.52 281.75Z" fill="#DFE1E8" />
						<path d="M179.16 281.75H174.73C172.852 281.75 171.33 283.272 171.33 285.15V291.91C171.33 293.788 172.852 295.31 174.73 295.31H179.16C181.038 295.31 182.56 293.788 182.56 291.91V285.15C182.56 283.272 181.038 281.75 179.16 281.75Z" fill="#DFE1E8" />
						<path d="M194.66 281.75H190.23C188.352 281.75 186.83 283.272 186.83 285.15V291.91C186.83 293.788 188.352 295.31 190.23 295.31H194.66C196.538 295.31 198.06 293.788 198.06 291.91V285.15C198.06 283.272 196.538 281.75 194.66 281.75Z" fill="#DFE1E8" />
						<path d="M212.44 281.75H208.01C206.132 281.75 204.61 283.272 204.61 285.15V291.91C204.61 293.788 206.132 295.31 208.01 295.31H212.44C214.318 295.31 215.84 293.788 215.84 291.91V285.15C215.84 283.272 214.318 281.75 212.44 281.75Z" fill="#DFE1E8" />
						<path d="M227.94 281.75H223.51C221.632 281.75 220.11 283.272 220.11 285.15V291.91C220.11 293.788 221.632 295.31 223.51 295.31H227.94C229.818 295.31 231.34 293.788 231.34 291.91V285.15C231.34 283.272 229.818 281.75 227.94 281.75Z" fill="#DFE1E8" />
						<path d="M243.58 281.75H239.15C237.272 281.75 235.75 283.272 235.75 285.15V291.91C235.75 293.788 237.272 295.31 239.15 295.31H243.58C245.458 295.31 246.98 293.788 246.98 291.91V285.15C246.98 283.272 245.458 281.75 243.58 281.75Z" fill="#DFE1E8" />
						<path d="M259.08 281.75H254.65C252.772 281.75 251.25 283.272 251.25 285.15V291.91C251.25 293.788 252.772 295.31 254.65 295.31H259.08C260.958 295.31 262.48 293.788 262.48 291.91V285.15C262.48 283.272 260.958 281.75 259.08 281.75Z" fill="#DFE1E8" />
						<path d="M276.04 281.75H271.61C269.732 281.75 268.21 283.272 268.21 285.15V291.91C268.21 293.788 269.732 295.31 271.61 295.31H276.04C277.918 295.31 279.44 293.788 279.44 291.91V285.15C279.44 283.272 277.918 281.75 276.04 281.75Z" fill="#DFE1E8" />
						<path d="M291.54 281.75H287.11C285.232 281.75 283.71 283.272 283.71 285.15V291.91C283.71 293.788 285.232 295.31 287.11 295.31H291.54C293.418 295.31 294.94 293.788 294.94 291.91V285.15C294.94 283.272 293.418 281.75 291.54 281.75Z" fill="#DFE1E8" />
						<path d="M307.18 281.75H302.75C300.872 281.75 299.35 283.272 299.35 285.15V291.91C299.35 293.788 300.872 295.31 302.75 295.31H307.18C309.058 295.31 310.58 293.788 310.58 291.91V285.15C310.58 283.272 309.058 281.75 307.18 281.75Z" fill="#DFE1E8" />
					</g>
				</g>
				<g>
					<g>
						<g>
							<path d="M80.36 208.95H77.74C77.19 208.95 76.75 208.55 76.75 208.06V197.67C76.75 197.18 77.19 196.78 77.74 196.78H80.36C80.91 196.78 81.35 197.18 81.35 197.67V208.06C81.35 208.55 80.91 208.95 80.36 208.95Z" fill="#DFE1E8" />
							<path d="M76.8198 197.33L78.0698 195.4H79.8398L81.2598 197.31L76.8198 197.33Z" fill="#DFE1E8" />
						</g>
						<path d="M79.8401 194.62H78.1001V195.4H79.8401V194.62Z" fill="#DFE1E8" />
					</g>
					<g>
						<g>
							<path d="M89.2399 208.95H86.6199C86.0699 208.95 85.6299 208.55 85.6299 208.06V197.67C85.6299 197.18 86.0699 196.78 86.6199 196.78H89.2399C89.7899 196.78 90.2299 197.18 90.2299 197.67V208.06C90.2299 208.55 89.7899 208.95 89.2399 208.95Z" fill="#DFE1E8" />
							<path d="M85.71 197.33L86.96 195.4H88.72L90.15 197.31L85.71 197.33Z" fill="#DFE1E8" />
						</g>
						<path d="M88.72 194.62H86.98V195.4H88.72V194.62Z" fill="#DFE1E8" />
					</g>
					<g>
						<g>
							<path d="M98.13 208.95H95.51C94.96 208.95 94.52 208.55 94.52 208.06V197.67C94.52 197.18 94.96 196.78 95.51 196.78H98.13C98.68 196.78 99.12 197.18 99.12 197.67V208.06C99.12 208.55 98.68 208.95 98.13 208.95Z" fill="#DFE1E8" />
							<path d="M94.5898 197.33L95.8398 195.4H97.6098L99.0298 197.31L94.5898 197.33Z" fill="#DFE1E8" />
						</g>
						<path d="M97.5999 194.62H95.8599V195.4H97.5999V194.62Z" fill="#DFE1E8" />
					</g>
					<g>
						<g>
							<path d="M107.01 208.95H104.39C103.84 208.95 103.4 208.55 103.4 208.06V197.67C103.4 197.18 103.84 196.78 104.39 196.78H107.01C107.56 196.78 108 197.18 108 197.67V208.06C108 208.55 107.56 208.95 107.01 208.95Z" fill="#DFE1E8" />
							<path d="M103.48 197.33L104.73 195.4H106.49L107.92 197.31L103.48 197.33Z" fill="#DFE1E8" />
						</g>
						<path d="M106.49 194.62H104.75V195.4H106.49V194.62Z" fill="#DFE1E8" />
					</g>
					<g>
						<g>
							<path d="M115.9 208.95H113.28C112.73 208.95 112.29 208.55 112.29 208.06V197.67C112.29 197.18 112.73 196.78 113.28 196.78H115.9C116.45 196.78 116.89 197.18 116.89 197.67V208.06C116.89 208.55 116.45 208.95 115.9 208.95Z" fill="#DFE1E8" />
							<path d="M112.36 197.33L113.61 195.4H115.37L116.8 197.31L112.36 197.33Z" fill="#DFE1E8" />
						</g>
						<path d="M115.37 194.62H113.63V195.4H115.37V194.62Z" fill="#DFE1E8" />
					</g>
					<g>
						<g>
							<path d="M124.78 208.95H122.16C121.61 208.95 121.17 208.55 121.17 208.06V197.67C121.17 197.18 121.61 196.78 122.16 196.78H124.78C125.33 196.78 125.77 197.18 125.77 197.67V208.06C125.77 208.55 125.33 208.95 124.78 208.95Z" fill="#DFE1E8" />
							<path d="M121.25 197.33L122.5 195.4H124.26L125.69 197.31L121.25 197.33Z" fill="#DFE1E8" />
						</g>
						<path d="M124.26 194.62H122.52V195.4H124.26V194.62Z" fill="#DFE1E8" />
					</g>
					<g>
						<g>
							<path d="M133.67 208.95H131.05C130.5 208.95 130.06 208.55 130.06 208.06V197.67C130.06 197.18 130.5 196.78 131.05 196.78H133.67C134.22 196.78 134.66 197.18 134.66 197.67V208.06C134.66 208.55 134.22 208.95 133.67 208.95Z" fill="#DFE1E8" />
							<path d="M130.13 197.33L131.38 195.4H133.14L134.57 197.31L130.13 197.33Z" fill="#DFE1E8" />
						</g>
						<path d="M133.14 194.62H131.4V195.4H133.14V194.62Z" fill="#DFE1E8" />
					</g>
					<g>
						<g>
							<path d="M142.55 208.95H139.93C139.38 208.95 138.94 208.55 138.94 208.06V197.67C138.94 197.18 139.38 196.78 139.93 196.78H142.55C143.1 196.78 143.54 197.18 143.54 197.67V208.06C143.54 208.55 143.1 208.95 142.55 208.95Z" fill="#DFE1E8" />
							<path d="M139.02 197.33L140.27 195.4H142.03L143.46 197.31L139.02 197.33Z" fill="#DFE1E8" />
						</g>
						<path d="M142.03 194.62H140.29V195.4H142.03V194.62Z" fill="#DFE1E8" />
					</g>
					<g>
						<g>
							<path d="M151.44 208.95H148.82C148.27 208.95 147.83 208.55 147.83 208.06V197.67C147.83 197.18 148.27 196.78 148.82 196.78H151.44C151.99 196.78 152.43 197.18 152.43 197.67V208.06C152.43 208.55 151.99 208.95 151.44 208.95Z" fill="#DFE1E8" />
							<path d="M147.9 197.33L149.15 195.4H150.91L152.34 197.31L147.9 197.33Z" fill="#DFE1E8" />
						</g>
						<path d="M150.91 194.62H149.17V195.4H150.91V194.62Z" fill="#DFE1E8" />
					</g>
					<g>
						<g>
							<path d="M160.32 208.95H157.7C157.15 208.95 156.71 208.55 156.71 208.06V197.67C156.71 197.18 157.15 196.78 157.7 196.78H160.32C160.87 196.78 161.31 197.18 161.31 197.67V208.06C161.31 208.55 160.87 208.95 160.32 208.95Z" fill="#DFE1E8" />
							<path d="M156.79 197.33L158.04 195.4H159.8L161.23 197.31L156.79 197.33Z" fill="#DFE1E8" />
						</g>
						<path d="M159.8 194.62H158.06V195.4H159.8V194.62Z" fill="#DFE1E8" />
					</g>
					<g>
						<g>
							<path d="M169.21 208.95H166.59C166.04 208.95 165.6 208.55 165.6 208.06V197.67C165.6 197.18 166.04 196.78 166.59 196.78H169.21C169.76 196.78 170.2 197.18 170.2 197.67V208.06C170.2 208.55 169.76 208.95 169.21 208.95Z" fill="#DFE1E8" />
							<path d="M165.67 197.33L166.92 195.4H168.68L170.11 197.31L165.67 197.33Z" fill="#DFE1E8" />
						</g>
						<path d="M168.68 194.62H166.94V195.4H168.68V194.62Z" fill="#DFE1E8" />
					</g>
					<g>
						<g>
							<path d="M178.09 208.95H175.47C174.92 208.95 174.48 208.55 174.48 208.06V197.67C174.48 197.18 174.92 196.78 175.47 196.78H178.09C178.64 196.78 179.08 197.18 179.08 197.67V208.06C179.08 208.55 178.64 208.95 178.09 208.95Z" fill="#DFE1E8" />
							<path d="M174.56 197.33L175.81 195.4H177.57L179 197.31L174.56 197.33Z" fill="#DFE1E8" />
						</g>
						<path d="M177.57 194.62H175.83V195.4H177.57V194.62Z" fill="#DFE1E8" />
					</g>
					<g>
						<g>
							<path d="M186.98 208.95H184.36C183.81 208.95 183.37 208.55 183.37 208.06V197.67C183.37 197.18 183.81 196.78 184.36 196.78H186.98C187.53 196.78 187.97 197.18 187.97 197.67V208.06C187.97 208.55 187.53 208.95 186.98 208.95Z" fill="#DFE1E8" />
							<path d="M183.44 197.33L184.69 195.4H186.45L187.88 197.31L183.44 197.33Z" fill="#DFE1E8" />
						</g>
						<path d="M186.45 194.62H184.71V195.4H186.45V194.62Z" fill="#DFE1E8" />
					</g>
					<g>
						<g>
							<path d="M195.86 208.95H193.24C192.69 208.95 192.25 208.55 192.25 208.06V197.67C192.25 197.18 192.69 196.78 193.24 196.78H195.86C196.41 196.78 196.85 197.18 196.85 197.67V208.06C196.85 208.55 196.41 208.95 195.86 208.95Z" fill="#DFE1E8" />
							<path d="M192.32 197.33L193.58 195.4H195.34L196.77 197.31L192.32 197.33Z" fill="#DFE1E8" />
						</g>
						<path d="M195.34 194.62H193.6V195.4H195.34V194.62Z" fill="#DFE1E8" />
					</g>
					<g>
						<g>
							<path d="M204.75 208.95H202.13C201.58 208.95 201.14 208.55 201.14 208.06V197.67C201.14 197.18 201.58 196.78 202.13 196.78H204.75C205.3 196.78 205.74 197.18 205.74 197.67V208.06C205.74 208.55 205.3 208.95 204.75 208.95Z" fill="#DFE1E8" />
							<path d="M201.21 197.33L202.46 195.4H204.22L205.65 197.31L201.21 197.33Z" fill="#DFE1E8" />
						</g>
						<path d="M204.22 194.62H202.48V195.4H204.22V194.62Z" fill="#DFE1E8" />
					</g>
					<g>
						<g>
							<path d="M213.63 208.95H211.01C210.46 208.95 210.02 208.55 210.02 208.06V197.67C210.02 197.18 210.46 196.78 211.01 196.78H213.63C214.18 196.78 214.62 197.18 214.62 197.67V208.06C214.62 208.55 214.18 208.95 213.63 208.95Z" fill="#DFE1E8" />
							<path d="M210.09 197.33L211.35 195.4H213.11L214.53 197.31L210.09 197.33Z" fill="#DFE1E8" />
						</g>
						<path d="M213.11 194.62H211.37V195.4H213.11V194.62Z" fill="#DFE1E8" />
					</g>
					<g>
						<g>
							<path d="M222.52 208.95H219.9C219.35 208.95 218.91 208.55 218.91 208.06V197.67C218.91 197.18 219.35 196.78 219.9 196.78H222.52C223.07 196.78 223.51 197.18 223.51 197.67V208.06C223.51 208.55 223.07 208.95 222.52 208.95Z" fill="#DFE1E8" />
							<path d="M218.98 197.33L220.23 195.4H221.99L223.42 197.31L218.98 197.33Z" fill="#DFE1E8" />
						</g>
						<path d="M221.99 194.62H220.25V195.4H221.99V194.62Z" fill="#DFE1E8" />
					</g>
					<g>
						<g>
							<path d="M231.4 208.95H228.78C228.23 208.95 227.79 208.55 227.79 208.06V197.67C227.79 197.18 228.23 196.78 228.78 196.78H231.4C231.95 196.78 232.39 197.18 232.39 197.67V208.06C232.39 208.55 231.95 208.95 231.4 208.95Z" fill="#DFE1E8" />
							<path d="M227.86 197.33L229.11 195.4H230.88L232.3 197.31L227.86 197.33Z" fill="#DFE1E8" />
						</g>
						<path d="M230.88 194.62H229.14V195.4H230.88V194.62Z" fill="#DFE1E8" />
					</g>
					<g>
						<g>
							<path d="M240.29 208.95H237.67C237.12 208.95 236.68 208.55 236.68 208.06V197.67C236.68 197.18 237.12 196.78 237.67 196.78H240.29C240.84 196.78 241.28 197.18 241.28 197.67V208.06C241.28 208.55 240.84 208.95 240.29 208.95Z" fill="#DFE1E8" />
							<path d="M236.75 197.33L238 195.4H239.76L241.19 197.31L236.75 197.33Z" fill="#DFE1E8" />
						</g>
						<path d="M239.76 194.62H238.02V195.4H239.76V194.62Z" fill="#DFE1E8" />
					</g>
					<g>
						<g>
							<path d="M249.17 208.95H246.55C246 208.95 245.56 208.55 245.56 208.06V197.67C245.56 197.18 246 196.78 246.55 196.78H249.17C249.72 196.78 250.16 197.18 250.16 197.67V208.06C250.16 208.55 249.72 208.95 249.17 208.95Z" fill="#DFE1E8" />
							<path d="M245.63 197.33L246.88 195.4H248.65L250.07 197.31L245.63 197.33Z" fill="#DFE1E8" />
						</g>
						<path d="M248.65 194.62H246.91V195.4H248.65V194.62Z" fill="#DFE1E8" />
					</g>
					<g>
						<g>
							<path d="M258.06 208.95H255.44C254.89 208.95 254.45 208.55 254.45 208.06V197.67C254.45 197.18 254.89 196.78 255.44 196.78H258.06C258.61 196.78 259.05 197.18 259.05 197.67V208.06C259.05 208.55 258.61 208.95 258.06 208.95Z" fill="#DFE1E8" />
							<path d="M254.52 197.33L255.77 195.4H257.53L258.96 197.31L254.52 197.33Z" fill="#DFE1E8" />
						</g>
						<path d="M257.53 194.62H255.79V195.4H257.53V194.62Z" fill="#DFE1E8" />
					</g>
					<g>
						<g>
							<path d="M266.94 208.95H264.32C263.77 208.95 263.33 208.55 263.33 208.06V197.67C263.33 197.18 263.77 196.78 264.32 196.78H266.94C267.49 196.78 267.93 197.18 267.93 197.67V208.06C267.93 208.55 267.49 208.95 266.94 208.95Z" fill="#DFE1E8" />
							<path d="M263.4 197.33L264.65 195.4H266.42L267.84 197.31L263.4 197.33Z" fill="#DFE1E8" />
						</g>
						<path d="M266.42 194.62H264.68V195.4H266.42V194.62Z" fill="#DFE1E8" />
					</g>
					<g>
						<g>
							<path d="M275.83 208.95H273.21C272.66 208.95 272.22 208.55 272.22 208.06V197.67C272.22 197.18 272.66 196.78 273.21 196.78H275.83C276.38 196.78 276.82 197.18 276.82 197.67V208.06C276.82 208.55 276.38 208.95 275.83 208.95Z" fill="#DFE1E8" />
							<path d="M272.29 197.33L273.54 195.4H275.3L276.73 197.31L272.29 197.33Z" fill="#DFE1E8" />
						</g>
						<path d="M275.3 194.62H273.56V195.4H275.3V194.62Z" fill="#DFE1E8" />
					</g>
					<g>
						<g>
							<path d="M284.71 208.95H282.09C281.54 208.95 281.1 208.55 281.1 208.06V197.67C281.1 197.18 281.54 196.78 282.09 196.78H284.71C285.26 196.78 285.7 197.18 285.7 197.67V208.06C285.7 208.55 285.26 208.95 284.71 208.95Z" fill="#DFE1E8" />
							<path d="M281.17 197.33L282.42 195.4H284.19L285.61 197.31L281.17 197.33Z" fill="#DFE1E8" />
						</g>
						<path d="M284.18 194.62H282.44V195.4H284.18V194.62Z" fill="#DFE1E8" />
					</g>
					<g>
						<g>
							<path d="M293.59 208.95H290.97C290.42 208.95 289.98 208.55 289.98 208.06V197.67C289.98 197.18 290.42 196.78 290.97 196.78H293.59C294.14 196.78 294.58 197.18 294.58 197.67V208.06C294.58 208.55 294.14 208.95 293.59 208.95Z" fill="#DFE1E8" />
							<path d="M290.06 197.33L291.31 195.4H293.07L294.5 197.31L290.06 197.33Z" fill="#DFE1E8" />
						</g>
						<path d="M293.07 194.62H291.33V195.4H293.07V194.62Z" fill="#DFE1E8" />
					</g>
					<g>
						<g>
							<path d="M302.48 208.95H299.86C299.31 208.95 298.87 208.55 298.87 208.06V197.67C298.87 197.18 299.31 196.78 299.86 196.78H302.48C303.03 196.78 303.47 197.18 303.47 197.67V208.06C303.47 208.55 303.03 208.95 302.48 208.95Z" fill="#DFE1E8" />
							<path d="M298.94 197.33L300.19 195.4H301.96L303.38 197.31L298.94 197.33Z" fill="#DFE1E8" />
						</g>
						<path d="M301.95 194.62H300.21V195.4H301.95V194.62Z" fill="#DFE1E8" />
					</g>
					<g>
						<g>
							<path d="M311.36 208.95H308.74C308.19 208.95 307.75 208.55 307.75 208.06V197.67C307.75 197.18 308.19 196.78 308.74 196.78H311.36C311.91 196.78 312.35 197.18 312.35 197.67V208.06C312.35 208.55 311.91 208.95 311.36 208.95Z" fill="#DFE1E8" />
							<path d="M307.83 197.33L309.08 195.4H310.84L312.27 197.31L307.83 197.33Z" fill="#DFE1E8" />
						</g>
						<path d="M310.84 194.62H309.1V195.4H310.84V194.62Z" fill="#DFE1E8" />
					</g>
				</g>
				<g>
					<g>
						<g>
							<g>
								<path d="M80.2799 250.79H77.6599C77.1099 250.79 76.6699 250.39 76.6699 249.9V239.51C76.6699 239.02 77.1099 238.62 77.6599 238.62H80.2799C80.8299 238.62 81.2699 239.02 81.2699 239.51V249.9C81.2699 250.39 80.8299 250.79 80.2799 250.79Z" fill="#DFE1E8" />
								<path d="M76.7397 239.17L77.9897 237.24H79.7497L81.1797 239.15L76.7397 239.17Z" fill="#DFE1E8" />
							</g>
							<path d="M79.7498 236.46H78.0098V237.24H79.7498V236.46Z" fill="#DFE1E8" />
						</g>
						<g>
							<g>
								<path d="M86.9401 250.79H84.3201C83.7701 250.79 83.3301 250.39 83.3301 249.9V239.51C83.3301 239.02 83.7701 238.62 84.3201 238.62H86.9401C87.4901 238.62 87.9301 239.02 87.9301 239.51V249.9C87.9301 250.39 87.4901 250.79 86.9401 250.79Z" fill="#DFE1E8" />
								<path d="M83.3999 239.17L84.6499 237.24H86.4199L87.8399 239.15L83.3999 239.17Z" fill="#DFE1E8" />
							</g>
							<path d="M86.4202 236.46H84.6802V237.24H86.4202V236.46Z" fill="#DFE1E8" />
						</g>
					</g>
					<g>
						<g>
							<g>
								<path d="M98.2301 250.79H95.6101C95.0601 250.79 94.6201 250.39 94.6201 249.9V239.51C94.6201 239.02 95.0601 238.62 95.6101 238.62H98.2301C98.7801 238.62 99.2201 239.02 99.2201 239.51V249.9C99.2201 250.39 98.7801 250.79 98.2301 250.79Z" fill="#DFE1E8" />
								<path d="M94.6899 239.17L95.9399 237.24H97.6999L99.1299 239.15L94.6899 239.17Z" fill="#DFE1E8" />
							</g>
							<path d="M97.7 236.46H95.96V237.24H97.7V236.46Z" fill="#DFE1E8" />
						</g>
						<g>
							<g>
								<path d="M104.89 250.79H102.27C101.72 250.79 101.28 250.39 101.28 249.9V239.51C101.28 239.02 101.72 238.62 102.27 238.62H104.89C105.44 238.62 105.88 239.02 105.88 239.51V249.9C105.88 250.39 105.44 250.79 104.89 250.79Z" fill="#DFE1E8" />
								<path d="M101.35 239.17L102.6 237.24H104.36L105.79 239.15L101.35 239.17Z" fill="#DFE1E8" />
							</g>
							<path d="M104.36 236.46H102.62V237.24H104.36V236.46Z" fill="#DFE1E8" />
						</g>
					</g>
					<g>
						<g>
							<g>
								<path d="M116.17 250.79H113.55C113 250.79 112.56 250.39 112.56 249.9V239.51C112.56 239.02 113 238.62 113.55 238.62H116.17C116.72 238.62 117.16 239.02 117.16 239.51V249.9C117.16 250.39 116.72 250.79 116.17 250.79Z" fill="#DFE1E8" />
								<path d="M112.64 239.17L113.89 237.24H115.65L117.08 239.15L112.64 239.17Z" fill="#DFE1E8" />
							</g>
							<path d="M115.65 236.46H113.91V237.24H115.65V236.46Z" fill="#DFE1E8" />
						</g>
						<g>
							<g>
								<path d="M122.84 250.79H120.22C119.67 250.79 119.23 250.39 119.23 249.9V239.51C119.23 239.02 119.67 238.62 120.22 238.62H122.84C123.39 238.62 123.83 239.02 123.83 239.51V249.9C123.83 250.39 123.39 250.79 122.84 250.79Z" fill="#DFE1E8" />
								<path d="M119.3 239.17L120.55 237.24H122.31L123.74 239.15L119.3 239.17Z" fill="#DFE1E8" />
							</g>
							<path d="M122.31 236.46H120.57V237.24H122.31V236.46Z" fill="#DFE1E8" />
						</g>
					</g>
					<g>
						<g>
							<g>
								<path d="M134.12 250.79H131.5C130.95 250.79 130.51 250.39 130.51 249.9V239.51C130.51 239.02 130.95 238.62 131.5 238.62H134.12C134.67 238.62 135.11 239.02 135.11 239.51V249.9C135.11 250.39 134.67 250.79 134.12 250.79Z" fill="#DFE1E8" />
								<path d="M130.59 239.17L131.84 237.24H133.6L135.03 239.15L130.59 239.17Z" fill="#DFE1E8" />
							</g>
							<path d="M133.6 236.46H131.86V237.24H133.6V236.46Z" fill="#DFE1E8" />
						</g>
						<g>
							<g>
								<path d="M140.79 250.79H138.17C137.62 250.79 137.18 250.39 137.18 249.9V239.51C137.18 239.02 137.62 238.62 138.17 238.62H140.79C141.34 238.62 141.78 239.02 141.78 239.51V249.9C141.78 250.39 141.34 250.79 140.79 250.79Z" fill="#DFE1E8" />
								<path d="M137.25 239.17L138.5 237.24H140.26L141.69 239.15L137.25 239.17Z" fill="#DFE1E8" />
							</g>
							<path d="M140.26 236.46H138.52V237.24H140.26V236.46Z" fill="#DFE1E8" />
						</g>
					</g>
					<g>
						<g>
							<g>
								<path d="M152.07 250.79H149.45C148.9 250.79 148.46 250.39 148.46 249.9V239.51C148.46 239.02 148.9 238.62 149.45 238.62H152.07C152.62 238.62 153.06 239.02 153.06 239.51V249.9C153.06 250.39 152.62 250.79 152.07 250.79Z" fill="#DFE1E8" />
								<path d="M148.53 239.17L149.78 237.24H151.55L152.97 239.15L148.53 239.17Z" fill="#DFE1E8" />
							</g>
							<path d="M151.55 236.46H149.81V237.24H151.55V236.46Z" fill="#DFE1E8" />
						</g>
						<g>
							<g>
								<path d="M158.73 250.79H156.11C155.56 250.79 155.12 250.39 155.12 249.9V239.51C155.12 239.02 155.56 238.62 156.11 238.62H158.73C159.28 238.62 159.72 239.02 159.72 239.51V249.9C159.72 250.39 159.28 250.79 158.73 250.79Z" fill="#DFE1E8" />
								<path d="M155.2 239.17L156.45 237.24H158.21L159.64 239.15L155.2 239.17Z" fill="#DFE1E8" />
							</g>
							<path d="M158.21 236.46H156.47V237.24H158.21V236.46Z" fill="#DFE1E8" />
						</g>
					</g>
					<g>
						<g>
							<g>
								<path d="M170.02 250.79H167.4C166.85 250.79 166.41 250.39 166.41 249.9V239.51C166.41 239.02 166.85 238.62 167.4 238.62H170.02C170.57 238.62 171.01 239.02 171.01 239.51V249.9C171.01 250.39 170.57 250.79 170.02 250.79Z" fill="#DFE1E8" />
								<path d="M166.48 239.17L167.73 237.24H169.49L170.92 239.15L166.48 239.17Z" fill="#DFE1E8" />
							</g>
							<path d="M169.49 236.46H167.75V237.24H169.49V236.46Z" fill="#DFE1E8" />
						</g>
						<g>
							<g>
								<path d="M176.68 250.79H174.06C173.51 250.79 173.07 250.39 173.07 249.9V239.51C173.07 239.02 173.51 238.62 174.06 238.62H176.68C177.23 238.62 177.67 239.02 177.67 239.51V249.9C177.67 250.39 177.23 250.79 176.68 250.79Z" fill="#DFE1E8" />
								<path d="M173.15 239.17L174.4 237.24H176.16L177.59 239.15L173.15 239.17Z" fill="#DFE1E8" />
							</g>
							<path d="M176.16 236.46H174.42V237.24H176.16V236.46Z" fill="#DFE1E8" />
						</g>
					</g>
					<g>
						<g>
							<g>
								<path d="M187.97 250.79H185.35C184.8 250.79 184.36 250.39 184.36 249.9V239.51C184.36 239.02 184.8 238.62 185.35 238.62H187.97C188.52 238.62 188.96 239.02 188.96 239.51V249.9C188.96 250.39 188.52 250.79 187.97 250.79Z" fill="#DFE1E8" />
								<path d="M184.43 239.17L185.68 237.24H187.44L188.87 239.15L184.43 239.17Z" fill="#DFE1E8" />
							</g>
							<path d="M187.44 236.46H185.7V237.24H187.44V236.46Z" fill="#DFE1E8" />
						</g>
						<g>
							<g>
								<path d="M194.63 250.79H192.01C191.46 250.79 191.02 250.39 191.02 249.9V239.51C191.02 239.02 191.46 238.62 192.01 238.62H194.63C195.18 238.62 195.62 239.02 195.62 239.51V249.9C195.62 250.39 195.18 250.79 194.63 250.79Z" fill="#DFE1E8" />
								<path d="M191.09 239.17L192.34 237.24H194.11L195.53 239.15L191.09 239.17Z" fill="#DFE1E8" />
							</g>
							<path d="M194.11 236.46H192.37V237.24H194.11V236.46Z" fill="#DFE1E8" />
						</g>
					</g>
					<g>
						<g>
							<g>
								<path d="M205.92 250.79H203.3C202.75 250.79 202.31 250.39 202.31 249.9V239.51C202.31 239.02 202.75 238.62 203.3 238.62H205.92C206.47 238.62 206.91 239.02 206.91 239.51V249.9C206.91 250.39 206.47 250.79 205.92 250.79Z" fill="#DFE1E8" />
								<path d="M202.38 239.17L203.63 237.24H205.39L206.82 239.15L202.38 239.17Z" fill="#DFE1E8" />
							</g>
							<path d="M205.39 236.46H203.65V237.24H205.39V236.46Z" fill="#DFE1E8" />
						</g>
						<g>
							<g>
								<path d="M212.58 250.79H209.96C209.41 250.79 208.97 250.39 208.97 249.9V239.51C208.97 239.02 209.41 238.62 209.96 238.62H212.58C213.13 238.62 213.57 239.02 213.57 239.51V249.9C213.57 250.39 213.13 250.79 212.58 250.79Z" fill="#DFE1E8" />
								<path d="M209.04 239.17L210.29 237.24H212.06L213.48 239.15L209.04 239.17Z" fill="#DFE1E8" />
							</g>
							<path d="M212.05 236.46H210.31V237.24H212.05V236.46Z" fill="#DFE1E8" />
						</g>
					</g>
					<g>
						<g>
							<g>
								<path d="M223.86 250.79H221.24C220.69 250.79 220.25 250.39 220.25 249.9V239.51C220.25 239.02 220.69 238.62 221.24 238.62H223.86C224.41 238.62 224.85 239.02 224.85 239.51V249.9C224.85 250.39 224.41 250.79 223.86 250.79Z" fill="#DFE1E8" />
								<path d="M220.33 239.17L221.58 237.24H223.34L224.77 239.15L220.33 239.17Z" fill="#DFE1E8" />
							</g>
							<path d="M223.34 236.46H221.6V237.24H223.34V236.46Z" fill="#DFE1E8" />
						</g>
						<g>
							<g>
								<path d="M230.53 250.79H227.91C227.36 250.79 226.92 250.39 226.92 249.9V239.51C226.92 239.02 227.36 238.62 227.91 238.62H230.53C231.08 238.62 231.52 239.02 231.52 239.51V249.9C231.52 250.39 231.08 250.79 230.53 250.79Z" fill="#DFE1E8" />
								<path d="M226.99 239.17L228.24 237.24H230L231.43 239.15L226.99 239.17Z" fill="#DFE1E8" />
							</g>
							<path d="M230 236.46H228.26V237.24H230V236.46Z" fill="#DFE1E8" />
						</g>
					</g>
					<g>
						<g>
							<g>
								<path d="M241.81 250.79H239.19C238.64 250.79 238.2 250.39 238.2 249.9V239.51C238.2 239.02 238.64 238.62 239.19 238.62H241.81C242.36 238.62 242.8 239.02 242.8 239.51V249.9C242.8 250.39 242.36 250.79 241.81 250.79Z" fill="#DFE1E8" />
								<path d="M238.28 239.17L239.53 237.24H241.29L242.72 239.15L238.28 239.17Z" fill="#DFE1E8" />
							</g>
							<path d="M241.29 236.46H239.55V237.24H241.29V236.46Z" fill="#DFE1E8" />
						</g>
						<g>
							<g>
								<path d="M248.48 250.79H245.86C245.31 250.79 244.87 250.39 244.87 249.9V239.51C244.87 239.02 245.31 238.62 245.86 238.62H248.48C249.03 238.62 249.47 239.02 249.47 239.51V249.9C249.47 250.39 249.03 250.79 248.48 250.79Z" fill="#DFE1E8" />
								<path d="M244.939 239.17L246.189 237.24H247.949L249.379 239.15L244.939 239.17Z" fill="#DFE1E8" />
							</g>
							<path d="M247.949 236.46H246.209V237.24H247.949V236.46Z" fill="#DFE1E8" />
						</g>
					</g>
					<g>
						<g>
							<g>
								<path d="M259.76 250.79H257.14C256.59 250.79 256.15 250.39 256.15 249.9V239.51C256.15 239.02 256.59 238.62 257.14 238.62H259.76C260.31 238.62 260.75 239.02 260.75 239.51V249.9C260.75 250.39 260.31 250.79 259.76 250.79Z" fill="#DFE1E8" />
								<path d="M256.22 239.17L257.47 237.24H259.24L260.66 239.15L256.22 239.17Z" fill="#DFE1E8" />
							</g>
							<path d="M259.24 236.46H257.5V237.24H259.24V236.46Z" fill="#DFE1E8" />
						</g>
						<g>
							<g>
								<path d="M266.43 250.79H263.81C263.26 250.79 262.82 250.39 262.82 249.9V239.51C262.82 239.02 263.26 238.62 263.81 238.62H266.43C266.98 238.62 267.42 239.02 267.42 239.51V249.9C267.42 250.39 266.98 250.79 266.43 250.79Z" fill="#DFE1E8" />
								<path d="M262.89 239.17L264.14 237.24H265.9L267.33 239.15L262.89 239.17Z" fill="#DFE1E8" />
							</g>
							<path d="M265.9 236.46H264.16V237.24H265.9V236.46Z" fill="#DFE1E8" />
						</g>
					</g>
					<g>
						<g>
							<g>
								<path d="M277.71 250.79H275.09C274.54 250.79 274.1 250.39 274.1 249.9V239.51C274.1 239.02 274.54 238.62 275.09 238.62H277.71C278.26 238.62 278.7 239.02 278.7 239.51V249.9C278.7 250.39 278.26 250.79 277.71 250.79Z" fill="#DFE1E8" />
								<path d="M274.17 239.17L275.42 237.24H277.19L278.61 239.15L274.17 239.17Z" fill="#DFE1E8" />
							</g>
							<path d="M277.18 236.46H275.44V237.24H277.18V236.46Z" fill="#DFE1E8" />
						</g>
						<g>
							<g>
								<path d="M284.37 250.79H281.75C281.2 250.79 280.76 250.39 280.76 249.9V239.51C280.76 239.02 281.2 238.62 281.75 238.62H284.37C284.92 238.62 285.36 239.02 285.36 239.51V249.9C285.36 250.39 284.92 250.79 284.37 250.79Z" fill="#DFE1E8" />
								<path d="M280.84 239.17L282.09 237.24H283.85L285.28 239.15L280.84 239.17Z" fill="#DFE1E8" />
							</g>
							<path d="M283.85 236.46H282.11V237.24H283.85V236.46Z" fill="#DFE1E8" />
						</g>
					</g>
					<g>
						<g>
							<g>
								<path d="M295.66 250.79H293.04C292.49 250.79 292.05 250.39 292.05 249.9V239.51C292.05 239.02 292.49 238.62 293.04 238.62H295.66C296.21 238.62 296.65 239.02 296.65 239.51V249.9C296.65 250.39 296.21 250.79 295.66 250.79Z" fill="#DFE1E8" />
								<path d="M292.12 239.17L293.37 237.24H295.13L296.56 239.15L292.12 239.17Z" fill="#DFE1E8" />
							</g>
							<path d="M295.13 236.46H293.39V237.24H295.13V236.46Z" fill="#DFE1E8" />
						</g>
						<g>
							<g>
								<path d="M302.32 250.79H299.7C299.15 250.79 298.71 250.39 298.71 249.9V239.51C298.71 239.02 299.15 238.62 299.7 238.62H302.32C302.87 238.62 303.31 239.02 303.31 239.51V249.9C303.31 250.39 302.87 250.79 302.32 250.79Z" fill="#DFE1E8" />
								<path d="M298.78 239.17L300.04 237.24H301.8L303.23 239.15L298.78 239.17Z" fill="#DFE1E8" />
							</g>
							<path d="M301.8 236.46H300.06V237.24H301.8V236.46Z" fill="#DFE1E8" />
						</g>
					</g>
				</g>
				<g>
					<g>
						<g>
							<path d="M80.36 230H77.74C77.19 230 76.75 229.6 76.75 229.11V218.72C76.75 218.23 77.19 217.83 77.74 217.83H80.36C80.91 217.83 81.35 218.23 81.35 218.72V229.11C81.35 229.6 80.91 230 80.36 230Z" fill="#DFE1E8" />
							<path d="M76.8198 218.38L78.0698 216.45H79.8398L81.2598 218.36L76.8198 218.38Z" fill="#DFE1E8" />
						</g>
						<path d="M79.8401 215.67H78.1001V216.45H79.8401V215.67Z" fill="#DFE1E8" />
					</g>
					<g>
						<g>
							<path d="M89.2399 230H86.6199C86.0699 230 85.6299 229.6 85.6299 229.11V218.72C85.6299 218.23 86.0699 217.83 86.6199 217.83H89.2399C89.7899 217.83 90.2299 218.23 90.2299 218.72V229.11C90.2299 229.6 89.7899 230 89.2399 230Z" fill="#DFE1E8" />
							<path d="M85.71 218.38L86.96 216.45H88.72L90.15 218.36L85.71 218.38Z" fill="#DFE1E8" />
						</g>
						<path d="M88.72 215.67H86.98V216.45H88.72V215.67Z" fill="#DFE1E8" />
					</g>
					<g>
						<g>
							<path d="M98.13 230H95.51C94.96 230 94.52 229.6 94.52 229.11V218.72C94.52 218.23 94.96 217.83 95.51 217.83H98.13C98.68 217.83 99.12 218.23 99.12 218.72V229.11C99.12 229.6 98.68 230 98.13 230Z" fill="#DFE1E8" />
							<path d="M94.5898 218.38L95.8398 216.45H97.6098L99.0298 218.36L94.5898 218.38Z" fill="#DFE1E8" />
						</g>
						<path d="M97.5999 215.67H95.8599V216.45H97.5999V215.67Z" fill="#DFE1E8" />
					</g>
					<g>
						<g>
							<path d="M107.01 230H104.39C103.84 230 103.4 229.6 103.4 229.11V218.72C103.4 218.23 103.84 217.83 104.39 217.83H107.01C107.56 217.83 108 218.23 108 218.72V229.11C108 229.6 107.56 230 107.01 230Z" fill="#DFE1E8" />
							<path d="M103.48 218.38L104.73 216.45H106.49L107.92 218.36L103.48 218.38Z" fill="#DFE1E8" />
						</g>
						<path d="M106.49 215.67H104.75V216.45H106.49V215.67Z" fill="#DFE1E8" />
					</g>
					<g>
						<g>
							<path d="M115.9 230H113.28C112.73 230 112.29 229.6 112.29 229.11V218.72C112.29 218.23 112.73 217.83 113.28 217.83H115.9C116.45 217.83 116.89 218.23 116.89 218.72V229.11C116.89 229.6 116.45 230 115.9 230Z" fill="#DFE1E8" />
							<path d="M112.36 218.38L113.61 216.45H115.37L116.8 218.36L112.36 218.38Z" fill="#DFE1E8" />
						</g>
						<path d="M115.37 215.67H113.63V216.45H115.37V215.67Z" fill="#DFE1E8" />
					</g>
					<g>
						<g>
							<path d="M124.78 230H122.16C121.61 230 121.17 229.6 121.17 229.11V218.72C121.17 218.23 121.61 217.83 122.16 217.83H124.78C125.33 217.83 125.77 218.23 125.77 218.72V229.11C125.77 229.6 125.33 230 124.78 230Z" fill="#DFE1E8" />
							<path d="M121.25 218.38L122.5 216.45H124.26L125.69 218.36L121.25 218.38Z" fill="#DFE1E8" />
						</g>
						<path d="M124.26 215.67H122.52V216.45H124.26V215.67Z" fill="#DFE1E8" />
					</g>
					<g>
						<g>
							<path d="M133.67 230H131.05C130.5 230 130.06 229.6 130.06 229.11V218.72C130.06 218.23 130.5 217.83 131.05 217.83H133.67C134.22 217.83 134.66 218.23 134.66 218.72V229.11C134.66 229.6 134.22 230 133.67 230Z" fill="#DFE1E8" />
							<path d="M130.13 218.38L131.38 216.45H133.14L134.57 218.36L130.13 218.38Z" fill="#DFE1E8" />
						</g>
						<path d="M133.14 215.67H131.4V216.45H133.14V215.67Z" fill="#DFE1E8" />
					</g>
					<g>
						<g>
							<path d="M142.55 230H139.93C139.38 230 138.94 229.6 138.94 229.11V218.72C138.94 218.23 139.38 217.83 139.93 217.83H142.55C143.1 217.83 143.54 218.23 143.54 218.72V229.11C143.54 229.6 143.1 230 142.55 230Z" fill="#DFE1E8" />
							<path d="M139.02 218.38L140.27 216.45H142.03L143.46 218.36L139.02 218.38Z" fill="#DFE1E8" />
						</g>
						<path d="M142.03 215.67H140.29V216.45H142.03V215.67Z" fill="#DFE1E8" />
					</g>
					<g>
						<g>
							<path d="M151.44 230H148.82C148.27 230 147.83 229.6 147.83 229.11V218.72C147.83 218.23 148.27 217.83 148.82 217.83H151.44C151.99 217.83 152.43 218.23 152.43 218.72V229.11C152.43 229.6 151.99 230 151.44 230Z" fill="#DFE1E8" />
							<path d="M147.9 218.38L149.15 216.45H150.91L152.34 218.36L147.9 218.38Z" fill="#DFE1E8" />
						</g>
						<path d="M150.91 215.67H149.17V216.45H150.91V215.67Z" fill="#DFE1E8" />
					</g>
					<g>
						<g>
							<path d="M160.32 230H157.7C157.15 230 156.71 229.6 156.71 229.11V218.72C156.71 218.23 157.15 217.83 157.7 217.83H160.32C160.87 217.83 161.31 218.23 161.31 218.72V229.11C161.31 229.6 160.87 230 160.32 230Z" fill="#DFE1E8" />
							<path d="M156.79 218.38L158.04 216.45H159.8L161.23 218.36L156.79 218.38Z" fill="#DFE1E8" />
						</g>
						<path d="M159.8 215.67H158.06V216.45H159.8V215.67Z" fill="#DFE1E8" />
					</g>
					<g>
						<g>
							<path d="M169.21 230H166.59C166.04 230 165.6 229.6 165.6 229.11V218.72C165.6 218.23 166.04 217.83 166.59 217.83H169.21C169.76 217.83 170.2 218.23 170.2 218.72V229.11C170.2 229.6 169.76 230 169.21 230Z" fill="#DFE1E8" />
							<path d="M165.67 218.38L166.92 216.45H168.68L170.11 218.36L165.67 218.38Z" fill="#DFE1E8" />
						</g>
						<path d="M168.68 215.67H166.94V216.45H168.68V215.67Z" fill="#DFE1E8" />
					</g>
					<g>
						<g>
							<path d="M178.09 230H175.47C174.92 230 174.48 229.6 174.48 229.11V218.72C174.48 218.23 174.92 217.83 175.47 217.83H178.09C178.64 217.83 179.08 218.23 179.08 218.72V229.11C179.08 229.6 178.64 230 178.09 230Z" fill="#DFE1E8" />
							<path d="M174.56 218.38L175.81 216.45H177.57L179 218.36L174.56 218.38Z" fill="#DFE1E8" />
						</g>
						<path d="M177.57 215.67H175.83V216.45H177.57V215.67Z" fill="#DFE1E8" />
					</g>
					<g>
						<g>
							<path d="M186.98 230H184.36C183.81 230 183.37 229.6 183.37 229.11V218.72C183.37 218.23 183.81 217.83 184.36 217.83H186.98C187.53 217.83 187.97 218.23 187.97 218.72V229.11C187.97 229.6 187.53 230 186.98 230Z" fill="#DFE1E8" />
							<path d="M183.44 218.38L184.69 216.45H186.45L187.88 218.36L183.44 218.38Z" fill="#DFE1E8" />
						</g>
						<path d="M186.45 215.67H184.71V216.45H186.45V215.67Z" fill="#DFE1E8" />
					</g>
					<g>
						<g>
							<path d="M195.86 230H193.24C192.69 230 192.25 229.6 192.25 229.11V218.72C192.25 218.23 192.69 217.83 193.24 217.83H195.86C196.41 217.83 196.85 218.23 196.85 218.72V229.11C196.85 229.6 196.41 230 195.86 230Z" fill="#DFE1E8" />
							<path d="M192.32 218.38L193.58 216.45H195.34L196.77 218.36L192.32 218.38Z" fill="#DFE1E8" />
						</g>
						<path d="M195.34 215.67H193.6V216.45H195.34V215.67Z" fill="#DFE1E8" />
					</g>
					<g>
						<g>
							<path d="M204.75 230H202.13C201.58 230 201.14 229.6 201.14 229.11V218.72C201.14 218.23 201.58 217.83 202.13 217.83H204.75C205.3 217.83 205.74 218.23 205.74 218.72V229.11C205.74 229.6 205.3 230 204.75 230Z" fill="#DFE1E8" />
							<path d="M201.21 218.38L202.46 216.45H204.22L205.65 218.36L201.21 218.38Z" fill="#DFE1E8" />
						</g>
						<path d="M204.22 215.67H202.48V216.45H204.22V215.67Z" fill="#DFE1E8" />
					</g>
					<g>
						<g>
							<path d="M213.63 230H211.01C210.46 230 210.02 229.6 210.02 229.11V218.72C210.02 218.23 210.46 217.83 211.01 217.83H213.63C214.18 217.83 214.62 218.23 214.62 218.72V229.11C214.62 229.6 214.18 230 213.63 230Z" fill="#DFE1E8" />
							<path d="M210.09 218.38L211.35 216.45H213.11L214.53 218.36L210.09 218.38Z" fill="#DFE1E8" />
						</g>
						<path d="M213.11 215.67H211.37V216.45H213.11V215.67Z" fill="#DFE1E8" />
					</g>
					<g>
						<g>
							<path d="M222.52 230H219.9C219.35 230 218.91 229.6 218.91 229.11V218.72C218.91 218.23 219.35 217.83 219.9 217.83H222.52C223.07 217.83 223.51 218.23 223.51 218.72V229.11C223.51 229.6 223.07 230 222.52 230Z" fill="#DFE1E8" />
							<path d="M218.98 218.38L220.23 216.45H221.99L223.42 218.36L218.98 218.38Z" fill="#DFE1E8" />
						</g>
						<path d="M221.99 215.67H220.25V216.45H221.99V215.67Z" fill="#DFE1E8" />
					</g>
					<g>
						<g>
							<path d="M231.4 230H228.78C228.23 230 227.79 229.6 227.79 229.11V218.72C227.79 218.23 228.23 217.83 228.78 217.83H231.4C231.95 217.83 232.39 218.23 232.39 218.72V229.11C232.39 229.6 231.95 230 231.4 230Z" fill="#DFE1E8" />
							<path d="M227.86 218.38L229.11 216.45H230.88L232.3 218.36L227.86 218.38Z" fill="#DFE1E8" />
						</g>
						<path d="M230.88 215.67H229.14V216.45H230.88V215.67Z" fill="#DFE1E8" />
					</g>
					<g>
						<g>
							<path d="M240.29 230H237.67C237.12 230 236.68 229.6 236.68 229.11V218.72C236.68 218.23 237.12 217.83 237.67 217.83H240.29C240.84 217.83 241.28 218.23 241.28 218.72V229.11C241.28 229.6 240.84 230 240.29 230Z" fill="#DFE1E8" />
							<path d="M236.75 218.38L238 216.45H239.76L241.19 218.36L236.75 218.38Z" fill="#DFE1E8" />
						</g>
						<path d="M239.76 215.67H238.02V216.45H239.76V215.67Z" fill="#DFE1E8" />
					</g>
					<g>
						<g>
							<path d="M249.17 230H246.55C246 230 245.56 229.6 245.56 229.11V218.72C245.56 218.23 246 217.83 246.55 217.83H249.17C249.72 217.83 250.16 218.23 250.16 218.72V229.11C250.16 229.6 249.72 230 249.17 230Z" fill="#DFE1E8" />
							<path d="M245.63 218.38L246.88 216.45H248.65L250.07 218.36L245.63 218.38Z" fill="#DFE1E8" />
						</g>
						<path d="M248.65 215.67H246.91V216.45H248.65V215.67Z" fill="#DFE1E8" />
					</g>
					<g>
						<g>
							<path d="M258.06 230H255.44C254.89 230 254.45 229.6 254.45 229.11V218.72C254.45 218.23 254.89 217.83 255.44 217.83H258.06C258.61 217.83 259.05 218.23 259.05 218.72V229.11C259.05 229.6 258.61 230 258.06 230Z" fill="#DFE1E8" />
							<path d="M254.52 218.38L255.77 216.45H257.53L258.96 218.36L254.52 218.38Z" fill="#DFE1E8" />
						</g>
						<path d="M257.53 215.67H255.79V216.45H257.53V215.67Z" fill="#DFE1E8" />
					</g>
					<g>
						<g>
							<path d="M266.94 230H264.32C263.77 230 263.33 229.6 263.33 229.11V218.72C263.33 218.23 263.77 217.83 264.32 217.83H266.94C267.49 217.83 267.93 218.23 267.93 218.72V229.11C267.93 229.6 267.49 230 266.94 230Z" fill="#DFE1E8" />
							<path d="M263.4 218.38L264.65 216.45H266.42L267.84 218.36L263.4 218.38Z" fill="#DFE1E8" />
						</g>
						<path d="M266.42 215.67H264.68V216.45H266.42V215.67Z" fill="#DFE1E8" />
					</g>
					<g>
						<g>
							<path d="M275.83 230H273.21C272.66 230 272.22 229.6 272.22 229.11V218.72C272.22 218.23 272.66 217.83 273.21 217.83H275.83C276.38 217.83 276.82 218.23 276.82 218.72V229.11C276.82 229.6 276.38 230 275.83 230Z" fill="#DFE1E8" />
							<path d="M272.29 218.38L273.54 216.45H275.3L276.73 218.36L272.29 218.38Z" fill="#DFE1E8" />
						</g>
						<path d="M275.3 215.67H273.56V216.45H275.3V215.67Z" fill="#DFE1E8" />
					</g>
					<g>
						<g>
							<path d="M284.71 230H282.09C281.54 230 281.1 229.6 281.1 229.11V218.72C281.1 218.23 281.54 217.83 282.09 217.83H284.71C285.26 217.83 285.7 218.23 285.7 218.72V229.11C285.7 229.6 285.26 230 284.71 230Z" fill="#DFE1E8" />
							<path d="M281.17 218.38L282.42 216.45H284.19L285.61 218.36L281.17 218.38Z" fill="#DFE1E8" />
						</g>
						<path d="M284.18 215.67H282.44V216.45H284.18V215.67Z" fill="#DFE1E8" />
					</g>
					<g>
						<g>
							<path d="M293.59 230H290.97C290.42 230 289.98 229.6 289.98 229.11V218.72C289.98 218.23 290.42 217.83 290.97 217.83H293.59C294.14 217.83 294.58 218.23 294.58 218.72V229.11C294.58 229.6 294.14 230 293.59 230Z" fill="#DFE1E8" />
							<path d="M290.06 218.38L291.31 216.45H293.07L294.5 218.36L290.06 218.38Z" fill="#DFE1E8" />
						</g>
						<path d="M293.07 215.67H291.33V216.45H293.07V215.67Z" fill="#DFE1E8" />
					</g>
					<g>
						<g>
							<path d="M302.48 230H299.86C299.31 230 298.87 229.6 298.87 229.11V218.72C298.87 218.23 299.31 217.83 299.86 217.83H302.48C303.03 217.83 303.47 218.23 303.47 218.72V229.11C303.47 229.6 303.03 230 302.48 230Z" fill="#DFE1E8" />
							<path d="M298.94 218.38L300.19 216.45H301.96L303.38 218.36L298.94 218.38Z" fill="#DFE1E8" />
						</g>
						<path d="M301.95 215.67H300.21V216.45H301.95V215.67Z" fill="#DFE1E8" />
					</g>
					<g>
						<g>
							<path d="M311.36 230H308.74C308.19 230 307.75 229.6 307.75 229.11V218.72C307.75 218.23 308.19 217.83 308.74 217.83H311.36C311.91 217.83 312.35 218.23 312.35 218.72V229.11C312.35 229.6 311.91 230 311.36 230Z" fill="#DFE1E8" />
							<path d="M307.83 218.38L309.08 216.45H310.84L312.27 218.36L307.83 218.38Z" fill="#DFE1E8" />
						</g>
						<path d="M310.84 215.67H309.1V216.45H310.84V215.67Z" fill="#DFE1E8" />
					</g>
				</g>
			</g>
			<g opacity="0.64">
				<path d="M355.16 309.29H19V311.84H355.16V309.29Z" fill="#DFE1E8" />
			</g>
		</g>
		<g class="svgIcon svgIcon4">
			<g>
				<g>
					<path d="M305.04 214.53C304.15 211.99 301.83 210.14 299.13 210.14C298.03 210.14 296.87 210.44 295.84 211.32C292.77 213.98 294.17 217.31 292.97 219.45C291.77 221.59 285.47 223.37 285.47 227.38C285.47 230.32 289.24 232.69 292.61 232.69C299.28 232.69 304.92 229.46 305.69 226.7C306.26 224.68 306.54 218.83 305.03 214.53H305.04Z" fill="#1F1341" />
					<g>
						<g>
							<path d="M311.33 273.5L309.87 306.97L306.82 307.05C306.82 307.05 304.31 295.16 303.94 292.25C303.57 289.34 303.73 284.78 304 282.97C304.27 281.16 304 273.1 304 273.1" fill="#F7B29A" />
							<path d="M308.6 278.55C308.6 278.55 305.64 283.09 305.76 291.1C305.85 297.45 306.28 304.45 306.28 304.45C305.52 300.78 304.2 294.29 303.94 292.24C303.57 289.33 303.73 284.77 304 282.96C304.16 281.92 304.13 278.84 304.09 276.39L308.6 278.55Z" fill="#D48068" />
							<g>
								<path d="M306.78 306.98V308.32C306.78 308.85 307.21 309.28 307.74 309.28H316.17C316.61 309.28 316.81 308.72 316.46 308.45C316.15 308.21 315.74 307.94 315.18 307.68C313.54 306.92 309.66 305.43 309.66 305.43L306.77 306.96L306.78 306.98Z" fill="#1F1341" />
								<path d="M313.86 307.12C313.38 307.44 312.73 307.79 312.13 307.81C311.01 307.85 306.77 306.98 306.77 306.98L309.66 305.45C309.66 305.45 312.04 306.36 313.86 307.12Z" fill="#F7B29A" />
							</g>
						</g>
						<g>
							<path d="M307.84 274.91L291.96 304.41L289.18 303.15C289.18 303.15 292.09 291.36 293.03 288.57C293.96 285.78 296.09 281.75 297.13 280.24C298.17 278.73 301.42 271.35 301.42 271.35" fill="#F7B29A" />
							<path d="M296.11 281.9C296.11 281.9 304.94 281.58 305.89 279.55C306.84 277.52 297.54 279.53 297.54 279.53L296.11 281.9Z" fill="#D48068" />
							<g>
								<path d="M289.17 303.07L288.59 304.28C288.36 304.76 288.56 305.34 289.04 305.57L296.63 309.24C297.03 309.43 297.45 309.02 297.25 308.62C297.08 308.27 296.82 307.85 296.43 307.37C295.28 305.97 292.43 302.94 292.43 302.94L289.16 303.07H289.17Z" fill="#1F1341" />
								<path d="M295.48 306.28C294.91 306.36 294.17 306.4 293.62 306.15C292.6 305.7 289.16 303.07 289.16 303.07L292.43 302.94C292.43 302.94 294.18 304.79 295.48 306.27V306.28Z" fill="#F7B29A" />
							</g>
						</g>
					</g>
					<g>
						<path d="M299.93 248C299.93 248 296.29 253.94 293.59 261.7C290.89 269.46 288.49 277.31 288.49 277.31C288.49 277.31 295.07 281.53 302.66 281.36C310.25 281.19 315.31 278.83 315.31 278.83C315.31 278.83 314.74 247.71 313.56 246.48C312.38 245.25 301.45 245.11 299.93 248Z" fill="#E30313" />
						<path d="M300.94 225.23C300.94 225.23 299.1 225.45 296.89 226.46C294.05 227.76 292.63 228.18 292.03 230.27C291.18 233.23 297.22 243.84 299.11 248.79C299.6 250.06 298.42 252.66 298.42 252.66L314.33 252.05C314.33 252.05 315.17 226.4 310.15 225.9C305.13 225.4 300.94 225.22 300.94 225.22V225.23Z" fill="#A7D07D" />
						<path d="M318.59 246.31L323.82 229.42C323.82 229.42 322.08 227.94 320.53 227.64C318.22 227.19 309.73 227.32 309.73 227.32L309.01 230.07L308.59 242.37" fill="#DEA62C" />
						<path d="M320.53 227.64L318.38 237.9L321.43 234.05L322.01 235.24L323.81 229.43C323.81 229.43 322.17 227.83 320.52 227.65L320.53 227.64Z" fill="#FEDA8C" />
						<path d="M301.51 246.09L300.84 230.38C300.84 230.38 303.68 229.29 306.52 229.09C308.09 228.97 315.31 229.09 315.31 229.09C315.31 229.09 315.47 237.53 315.31 238.95C315.15 240.37 315.31 246.76 315.31 246.76L301.51 246.1V246.09Z" fill="#FEDA8C" />
						<path d="M301.16 237.89C301.16 237.89 304.03 241 306.16 241H315.38V245.3L301.16 245.01L301.34 242.15L301.16 237.9V237.89Z" fill="#DEA62C" />
						<path d="M292.55 264.7C292.55 264.7 296.29 257.93 301.5 255.48C306.71 253.03 314.33 253.74 314.33 253.74L314.38 247.74L298.8 249.64C298.8 249.64 293.95 258.39 292.54 264.7H292.55Z" fill="#990D0D" />
						<g>
							<path d="M315.41 245.3C315.99 245.03 316.75 244.63 317.28 244.19C317.76 243.78 317.62 243.09 317 243.29C316.38 243.49 314.8 244.24 314.01 244.72" fill="#F7B29A" />
							<g>
								<path d="M311.66 245.59C312.64 245.36 314.51 244.46 315.18 244.29C315.85 244.12 316.41 245.15 317.09 246.12C317.69 246.96 317.4 247.8 316.38 248.15C315.67 248.39 312.98 248.79 311.37 248.79" fill="#F7B29A" />
								<path d="M315.82 248.32C316.82 248.15 317.74 247.51 318.05 247.2C318.36 246.89 319.07 245.9 318.76 245.6C318.53 245.37 318.13 245.49 317.91 245.88C317.73 246.18 317.43 246.5 317.03 246.61" fill="#F7B29A" />
								<path d="M316.73 247.15C317.51 246.88 318.48 246.54 318.8 246.25C319.12 245.96 319.47 245 319.12 244.74C318.83 244.53 318.62 244.83 318.44 245.14C318.26 245.45 318.14 245.64 317.74 245.74C317.34 245.84 317.08 245.88 316.41 245.97" fill="#F7B29A" />
								<path d="M316.76 246.17C317.57 246.01 318.79 245.6 319.14 245.35C319.49 245.1 320.21 244.52 319.9 244.22C319.7 244.02 319.33 244.17 318.99 244.28C318.24 244.53 316.74 244.83 315.88 244.9" fill="#F7B29A" />
							</g>
						</g>
						<path d="M296.89 226.46C296.89 226.46 299.13 228.17 302.17 228.17C305.21 228.17 308.36 225.75 308.36 225.75C308.36 225.75 305.64 225.23 302.76 225.2C300.74 225.18 299.72 225.23 296.89 226.46Z" fill="#F7B29A" />
						<path d="M299.11 226.31L298.26 219.56L302.63 220.12L303.42 225.76" fill="#F7B29A" />
						<path d="M300.84 222.93C300.84 222.93 301.4 224.63 303.27 224.65L303.03 222.93H300.46" fill="#D48068" />
						<path d="M303.36 212.39C303.36 212.39 305.17 214.56 305.17 218.86C305.17 221.49 305.03 223.5 303.36 223.73C301.69 223.96 300.95 224.07 299.05 221.83C297.15 219.59 297.64 213.78 299.65 213.32C301.66 212.86 303.37 212.39 303.37 212.39H303.36Z" fill="#F7B29A" />
					</g>
					<path d="M302.83 211.67C302.83 211.67 303.59 212.28 303.85 212.58C304.11 212.88 302.96 215.63 300.28 216.79C297.6 217.95 296.55 216.79 296.55 216.79L297.33 213.74" fill="#1F1341" />
					<path d="M300.46 215.37C300.46 215.37 299.27 220.46 297.54 222.18C295.81 223.9 294.76 223.59 294.76 223.59V217.54" fill="#1F1341" />
				</g>
				<path d="M298.26 231.19C298.26 231.19 294.96 226.34 292.97 228.61C292 229.72 291.39 231.48 291.36 233.36C291.29 239.06 294.06 248.12 294.59 249.14C295.2 250.31 302.14 250.45 304.96 250.35C307.78 250.25 313.12 249.25 313.12 249.25L313.01 244.99L300.12 243.34L298.62 233.06" fill="#A7D07D" />
				<path d="M297.39 247.15C293.57 245.24 294.97 229.97 292.88 230.15C292.17 230.21 291.74 231.14 291.48 232.33C291.48 232.49 291.46 232.65 291.46 232.81C291.46 235.05 291.8 237.96 292.25 240.72C293.09 244.8 294.27 248.5 294.6 249.13C295.21 250.3 302.15 250.44 304.97 250.34C307.67 250.24 313.13 249.24 313.13 249.24V248.95C309.22 249.09 300.34 248.61 297.4 247.15H297.39Z" fill="#61A61C" />
			</g>
			<g>
				<path d="M280.89 271.19C280.89 271.19 282.47 274.72 283.23 275.44C284.08 276.25 287.58 274.98 290.89 272.28C292.97 270.59 294.4 268.75 294.4 268.75L292.65 267.39C292.65 267.39 287.12 270.81 285.4 271.5L284.04 268.77" fill="#F7B29A" />
				<path d="M296.31 266.96C296.1 267.05 295.69 267.19 295.53 267.25L295.5 267.08C295.81 266.56 297.06 264.47 296.71 264.35C296.42 264.26 296.21 264.46 296.21 264.46C296.21 264.46 296.19 264.44 296.08 264.43C295.97 264.42 295.83 264.44 295.7 264.58C295.6 264.69 295.34 265.01 295.34 265.01C295.34 265.01 295.15 264.92 294.95 264.99C294.75 265.06 294.36 265.41 293.78 266.15C293.2 266.89 291.81 268.09 291.81 268.09L292.69 269.4L293.05 269.42C293.05 269.42 293.6 269.33 293.81 269.23C294.01 269.13 296.12 267.8 296.36 267.5C296.61 267.2 296.54 266.86 296.32 266.96H296.31Z" fill="#F7B29A" />
			</g>
			<path d="M280.68 264.35C280.68 264.35 282.33 265.2 283.69 267.59C284.93 269.75 285.26 270.85 285.26 270.85L282.56 271.96" fill="#30ADBA" />
			<g>
				<g>
					<path d="M280.56 255.59C280.2 253.87 279.37 253.02 277.69 252.53C276.39 252.15 274.32 252.1 272.91 252.96C269.77 254.86 271.08 259.17 270.64 261.06C270.2 262.95 267.45 264.76 267.45 266.6C267.45 268.44 271.58 271.48 274.61 268.45C277.64 265.42 280.77 264.2 281 261.66C281.15 259.92 280.97 257.5 280.56 255.59Z" fill="#FEDA8C" />
					<g>
						<path d="M283.24 307.46V308.77C283.24 309.06 283.47 309.29 283.76 309.29H287.46C287.69 309.29 287.81 309.01 287.64 308.84C287.47 308.67 286.74 308.29 286.21 308.07C285.08 307.61 284.54 307.57 284.54 307.57L283.24 307.45V307.46Z" fill="#1F1341" />
						<path d="M274.49 309.29H277.01C277.41 309.29 277.67 308.86 277.49 308.5C277.25 308.03 276.83 307.5 276.13 307.41C274.8 307.25 274.1 307.49 274.09 308.11C274.09 308.45 274.09 308.6 274.09 308.88C274.09 309.1 274.27 309.28 274.49 309.28V309.29Z" fill="#1F1341" />
						<path d="M279.01 289.61L283.23 307.69L285.25 307.73C285.25 307.73 285.15 288.33 282.42 285.06C279.69 281.79 279.01 289.61 279.01 289.61Z" fill="#F7B29A" />
						<path d="M282.621 294.01C282.621 294.01 281.811 295.43 281.831 297.85C281.851 300.27 282.621 305.09 282.621 305.09L279.811 293.13L282.621 294.01Z" fill="#D48068" />
						<path d="M272.09 287.1C272.11 287.75 272.51 291.72 272.54 292.34C273.03 303.49 274.39 307.54 274.39 307.54L276.5 307.51C276.5 307.51 276.42 298.37 277.58 289.67" fill="#F7B29A" />
						<path d="M274.09 293.54C274.09 293.54 273.41 300.62 273.68 303.96C273.68 303.96 271.46 291 272.96 290.53C274.46 290.06 274.09 293.54 274.09 293.54Z" fill="#D48068" />
					</g>
					<path d="M280.68 264.35C279.67 263.62 278.43 263.29 277.19 263.42C275.34 263.62 272.59 264.09 271.96 265.13C271.37 266.11 272.47 272.5 272.66 277.16C272.78 280.11 271.96 282.26 271.96 282.26L283.18 281.4C283.18 281.4 283.14 277.85 283.18 273.93C283.21 271.29 283.42 269.25 282.82 267.28C282.47 266.11 281.37 264.85 280.67 264.34L280.68 264.35Z" fill="#76C8D8" />
					<path d="M272.44 272.63C272.44 272.63 273.32 270.25 274.54 271.97C275.76 273.69 272.76 278.58 272.76 278.58L272.44 272.63Z" fill="#30ADBA" />
					<path d="M279.55 278.78C282.571 278.78 285.02 276.331 285.02 273.31C285.02 270.289 282.571 267.84 279.55 267.84C276.529 267.84 274.08 270.289 274.08 273.31C274.08 276.331 276.529 278.78 279.55 278.78Z" fill="#A7D07D" />
					<path d="M274.82 259.14L275.39 264.19H278.55V260.19" fill="#F7B29A" />
					<path d="M276.89 261.44C276.89 261.44 276.66 262.61 278.52 262.61V259.78L276.47 261.2" fill="#D48068" />
					<path d="M278.48 252.96C278.48 252.96 280.03 255.97 280.24 257.81C280.34 258.7 280.51 259.97 279.99 260.71C279.47 261.45 278.36 261.83 277.28 261.74C275.13 261.56 273.76 257.5 273.76 257.5" fill="#F7B29A" />
					<path d="M276.63 254.16C276.63 254.16 279.76 255.93 280.16 255.76C280.56 255.59 279.26 252.61 277.49 252.65C275.72 252.69 276.63 254.16 276.63 254.16Z" fill="#FEDA8C" />
					<path d="M277.73 254.33C277.73 254.33 278.1 258.85 273.98 260.29C269.86 261.73 273.33 254.33 273.33 254.33" fill="#FEDA8C" />
					<path d="M274.54 263.86C274.54 263.86 277.11 266.17 278.38 265.98C279.65 265.79 279.69 263.8 279.69 263.8C279.69 263.8 278.71 263.36 277.33 263.32C276.5 263.3 275.55 263.46 274.53 263.86H274.54Z" fill="#F7B29A" />
					<path d="M272.76 278.58L267.44 291.86C267.44 291.86 272.21 294.96 276.68 294.96C281.15 294.96 285.26 294.23 285.26 294.23L283.16 278.2L272.76 278.57V278.58Z" fill="#C28FBF" />
					<path d="M268.59 289C268.59 289 275.08 279.88 276.36 279.88C277.64 279.88 272.77 278.57 272.77 278.57L268.6 289H268.59Z" fill="#8856A6" />
					<path d="M268.18 271.67C268.18 271.67 266.7 275.24 266.7 276.29C266.7 277.46 270.02 279.14 274.26 279.69C276.92 280.04 279.23 279.82 279.23 279.82L279.01 277.61C279.01 277.61 272.73 275.94 271.05 275.16L272.1 272.3" fill="#F7B29A" />
				</g>
				<path d="M272.32 264.75C272.32 264.75 270.48 265.93 268.59 269.6C266.7 273.27 267.1 272.84 267.1 272.84L271.79 275.03L273.76 270.68" fill="#76C8D8" />
				<g>
					<path d="M280.87 277.57C281.26 277.39 281.77 277.12 282.13 276.82C282.46 276.55 282.36 276.07 281.94 276.21C281.52 276.35 280.15 277.08 279.44 277.33" fill="#F7B29A" />
					<g>
						<path d="M278.37 277.44C279.14 277.59 280.27 277 280.72 276.88C281.17 276.76 281.55 277.46 282.01 278.12C282.41 278.69 282.22 279.25 281.53 279.49C281.05 279.65 279.05 279.88 277.96 279.88" fill="#F7B29A" />
						<path d="M281.15 279.58C281.83 279.47 282.45 279.06 282.66 278.85C282.87 278.64 283.35 277.97 283.14 277.77C282.98 277.61 282.72 277.69 282.56 277.96C282.44 278.17 282.23 278.38 281.97 278.45" fill="#F7B29A" />
						<path d="M281.76 278.81C282.29 278.63 282.94 278.4 283.16 278.2C283.38 278 283.62 277.35 283.38 277.18C283.18 277.03 283.04 277.24 282.92 277.45C282.8 277.66 282.71 277.79 282.44 277.85C282.17 277.91 282 277.95 281.54 278.01" fill="#F7B29A" />
						<path d="M281.78 278.15C282.33 278.04 283.15 277.76 283.39 277.6C283.63 277.44 284.11 277.04 283.9 276.84C283.76 276.71 283.51 276.8 283.29 276.88C282.78 277.05 281.77 277.25 281.19 277.3" fill="#F7B29A" />
					</g>
				</g>
				<path d="M282.99 306.65H285.25V307.74L283.23 307.7L282.99 306.65Z" fill="#76C8D8" />
				<path d="M274.04 306.17H276.52L276.51 307.55L274.4 307.58L274.04 306.17Z" fill="#76C8D8" />
			</g>
		</g>
		<g class="svgIcon svgIcon3">
			<g>
				<g>
					<path d="M214.03 316.96V320.19C214.03 320.9 213.45 321.48 212.74 321.48H203.58C203 321.48 202.72 320.79 203.13 320.38C203.54 319.97 205.35 319.03 206.68 318.49C209.48 317.35 210.81 317.25 210.81 317.25L214.03 316.96Z" fill="#1F1341" />
					<path d="M233.53 316.96V320.19C233.53 320.9 232.95 321.48 232.24 321.48H223.08C222.5 321.48 222.22 320.79 222.63 320.38C223.04 319.97 224.85 319.03 226.18 318.49C228.98 317.35 230.31 317.25 230.31 317.25L233.53 316.96Z" fill="#1F1341" />
					<g>
						<path d="M217.98 268.41L214.53 317.91H208.21C208.21 317.91 203.94 273.12 203.95 252.46C203.95 247.68 204.6 253.42 205.8 252.29C211.61 246.82 218.72 253.65 218.72 253.65L217.98 268.42V268.41Z" fill="#54579C" />
						<path d="M217.84 272.65L214.53 317.91L214.65 313.77C214.65 313.77 214.04 295.95 213.59 282.76C213.14 269.43 213.47 262.35 216.04 262.6C218.08 262.8 219.56 266.3 219.8 273.68C219.86 275.6 217.84 272.64 217.84 272.64V272.65Z" fill="#322767" />
						<path d="M226.59 251.51C226.59 251.51 227.92 269.93 229.26 283.53C230.6 297.13 233.54 318.3 233.54 318.3H227.55C227.55 318.3 213.02 262.46 213.02 258.82C213.02 255.18 226.6 251.51 226.6 251.51H226.59Z" fill="#54579C" />
						<path d="M220.23 252.35L222.86 252.67L226.59 251.51C226.59 251.51 228.42 269.93 229.76 283.53C231.1 297.13 233.53 318.3 233.53 318.3H231.91C231.91 318.3 227.04 289.9 225.53 279.63C223.8 267.86 220.23 252.37 220.23 252.36V252.35Z" fill="#322767" />
						<path d="M209.65 211.68C209.65 211.68 209.64 210.26 214.41 210.43C215.86 210.48 223.81 213.07 225.2 214.11C229.44 217.28 228.08 226.03 228.05 234.03C228.03 238.87 229.95 256.29 229.95 256.29C229.95 256.29 207.97 259.15 202.1 256.29C202.1 256.29 201.57 246.02 201.89 236.18C202.16 227.89 200.4 219.82 203.05 215C203.93 213.39 208.17 212.33 209.65 211.69V211.68Z" fill="#C28FBF" />
						<path d="M214.91 210.96L214.15 203.91L209.65 209.54L210.57 214.49L214.91 210.96Z" fill="#F7B29A" />
						<g>
							<path d="M207.26 195.18C207.26 195.18 206.17 199.03 208.48 199.98C210.78 200.93 211.46 196.87 211.46 196.87" fill="#1F1341" />
							<path d="M211.82 207.36C211.82 207.36 211.9 210.29 209.82 210.47L209.45 208.83L211.82 207.36Z" fill="#D48068" />
							<path d="M214.47 209.91C214.47 209.91 213.65 207.92 212.96 208.42C211.31 209.61 208.86 209.29 208.09 208.43C206.81 207.02 207.29 197.9 209.13 196.57C210.97 195.24 216.92 198.19 217.73 200.45C218.54 202.71 214.48 209.91 214.48 209.91H214.47Z" fill="#F7B29A" />
							<path d="M215.32 208.26C215.32 208.26 218.93 204.79 219.78 201.92C220.63 199.05 217.78 197 217.11 196.67C216.23 196.24 214.58 192.22 210.64 192.22C205.75 192.22 206.46 196.72 209.47 198.48C210.64 199.17 211.56 199.38 212.39 199.99C213.11 200.53 215.12 203.98 215.17 204.31C215.21 204.6 215.02 204.13 215.03 204.43C215.07 205.93 214.29 207.83 215.32 208.24V208.26Z" fill="#1F1341" />
							<path d="M214.1 203.67C214.1 203.67 214.9 201.91 216.05 202.64C217.2 203.36 215.58 205.59 214.21 205.68" fill="#F7B29A" />
						</g>
						<path d="M206.11 258.25L207.09 246.92L213.39 223.96L214.91 258.25" fill="#54579C" />
						<path d="M215.62 213.53L214.41 246.92H207.09L208.6 212.85" fill="white" />
						<path d="M208.6 212.85L209.65 210.74L210.78 210.89L214.92 208.96L216.28 210.68L216.66 210.75L208.6 232.27" fill="white" />
						<path d="M210.89 211.99L211.56 213.15L214.91 211.81L211.39 214.49L210.89 211.99Z" fill="#B9C0D5" />
					</g>
				</g>
				<g>
					<path d="M189.89 241.011C189.89 241.011 191.26 239.961 192.05 240.011C192.99 240.081 196.5 241.091 196.5 241.091L196.37 241.461L196.87 244.821C196.87 244.821 194.37 246.001 193.57 245.981L189.86 245.361L188.47 244.981L187.94 244.771L186.54 244.481" fill="#F7B29A" />
					<path d="M190.98 245.551C190.98 245.551 192.56 245.291 193.65 245.261C194.74 245.231 197.07 243.581 197.07 243.581L197.41 244.561C197.41 244.561 194.7 245.911 193.87 245.981C193.04 246.051 190.99 245.541 190.99 245.541L190.98 245.551Z" fill="#D48068" />
					<path d="M218.12 220.61L211.05 233.98L195.41 240.59L196.86 246.16C196.86 246.16 215.4 242.41 218.04 240.11C220.68 237.81 228.04 222.65 228.04 222.65" fill="#C28FBF" />
					<path d="M225.69 225.071C225.69 225.071 218.19 237.151 215.44 239.411C212.62 241.731 196.41 244.421 196.41 244.421L196.86 246.151C196.86 246.151 214.67 243.781 217.31 241.481C219.1 239.921 224.67 230.841 225.69 225.061V225.071Z" fill="#8856A6" />
				</g>
			</g>
			<g>
				<path d="M191.56 244.43L189.87 245.37C189.54 245.64 189.08 245.69 188.69 245.51L187.78 245.09" fill="#F7B29A" />
				<path d="M189.36 239.9C188.91 239.66 186.15 239.72 186.15 239.72L184.55 239.52L182.77 243.68C182.77 243.68 185.81 245.22 187.4 245L189.37 239.9H189.36Z" fill="#F7B29A" />
				<path d="M188.9 241.07C188.9 241.07 188.51 242.32 190.53 241.96C191.42 241.8 192.56 241.98 192.56 241.98L188.9 241.06V241.07Z" fill="#D48068" />
				<path d="M184.66 242.88C184.66 242.88 187.16 243.13 189.27 241.28L190.53 241.97L187.47 245.28C187.47 245.28 185.9 244.92 185.23 244.69C184.56 244.46 184.67 242.89 184.67 242.89L184.66 242.88Z" fill="#D48068" />
				<path d="M186.97 242.55C188.31 242.19 189.27 241.27 189.27 241.27L190.41 241.89C191.36 242.37 192.25 242.33 192.5 241.89C192.63 241.65 192.45 241.17 191.98 240.92L189.48 239.27C189.03 239.03 185.82 239.77 185.82 239.77" fill="#F7B29A" />
				<path d="M191.44 243.44L188.23 245.52C188 245.66 187.71 245.63 187.51 245.46C187.23 245.22 187.22 244.78 187.5 244.54L190.09 242.43L191.44 243.44Z" fill="#F7B29A" />
			</g>
			<g>
				<g>
					<path d="M150.26 214.33L151.03 206.66H156.26V215.43" fill="#F7B29A" />
					<path d="M153.8 209.28C153.8 209.28 154.93 211.89 156.25 211.89L156.21 210.11L153.8 209.28Z" fill="#D48068" />
					<path d="M159.45 197.98C159.45 197.98 159.67 201.18 157.24 201.3C154.81 201.42 156.07 198.35 156.07 198.35" fill="#701745" />
					<path d="M156.07 198.36C156.07 198.36 158.09 197.12 158.55 199.37C159.08 201.98 159.2 209.31 158.43 210.2C157.75 210.98 155.36 210.36 154.89 210.23C153.34 209.8 154.5 210.09 153.13 209.26L150.79 208.89C150.79 208.89 149.48 204.47 151.63 201.76C153.78 199.06 156.08 198.37 156.08 198.37L156.07 198.36Z" fill="#F7B29A" />
					<path d="M150.79 208.87C150.79 208.87 151.83 204.16 152.34 203.65C152.85 203.14 157 198.71 157 198.71C157 198.71 157.15 197.28 155.71 196.44C154.49 195.73 151.14 195.45 149.48 196.05C146.09 197.25 145.92 201.61 146.78 203.82C147.63 206.03 150.79 208.86 150.79 208.86V208.87Z" fill="#701745" />
					<path d="M153.5 204.55C153.5 204.55 152.44 202.5 151.09 202.56C149.74 202.62 149.32 205.83 152.3 205.83" fill="#F7B29A" />
					<path d="M154.21 201.68C154.21 201.68 160.76 199.79 161.23 197.24C161.67 194.84 160.26 193.6 157.94 193.6C154.91 193.6 151.74 197.83 151.74 197.83" fill="#701745" />
				</g>
				<g>
					<path d="M152.52 315.95V319.43C152.52 320.2 153.14 320.82 153.91 320.82H163.77C164.39 320.82 164.69 320.07 164.26 319.63C163.83 319.19 161.87 318.17 160.44 317.59C157.43 316.37 156 316.26 156 316.26L152.53 315.95H152.52Z" fill="#1F1341" />
					<g>
						<path d="M160.38 246.3C160.38 246.3 161.24 296.54 158.65 316.87L152.52 317.12L149.59 280.75" fill="#54579C" />
						<path d="M151.13 300.55C151.13 300.55 153.64 288.81 160.3 286.66C160.74 266.71 160.38 246.3 160.38 246.3L149.59 280.75L151.13 300.55Z" fill="#322767" />
						<path d="M131.9 311.94L130.56 315.15C130.27 315.86 130.6 316.67 131.31 316.96L140.41 320.75C140.98 320.99 141.55 320.42 141.31 319.84C141.07 319.26 139.66 317.57 138.57 316.49C136.26 314.2 134.98 313.55 134.98 313.55L131.9 311.93V311.94Z" fill="#1F1341" />
						<path d="M147.26 246.3C147.26 246.3 146.25 247.39 145.71 249.55C145.17 251.71 144.49 254.64 144.1 259.69C143.32 269.88 145.66 278.59 145.66 278.59L131.51 312.73L137.86 315.71C137.86 315.71 155.96 286.96 157.02 279.66C157.46 276.63 160.37 247.45 160.37 246.31C160.37 245.17 147.25 246.31 147.25 246.31L147.26 246.3Z" fill="#54579C" />
						<path d="M146.81 246.92H160.38V244.68H146.79" fill="#322767" />
						<path d="M156.26 215.46C156.26 215.46 160.37 217.64 161.76 219.4C163.15 221.16 170.88 232.85 170.88 232.85L184.91 238.94L183.47 244.09C183.47 244.09 168.03 240.1 166.53 238.91C165.03 237.71 160.28 233.32 160.28 233.32" fill="#A2AFF9" />
						<path d="M183.48 244.09L183.99 242.28C183.99 242.28 170.55 238.85 167.9 236.91C165.25 234.97 160.3 223.96 160.3 223.96L160.45 233.46C161.26 234.21 165.2 237.84 166.55 238.92C168.05 240.12 183.49 244.1 183.49 244.1L183.48 244.09Z" fill="#656DD6" />
						<path d="M156.11 215.09C156.11 215.09 162.27 219.24 163.07 225.4C163.87 231.56 160.38 245.23 160.38 245.23H147.26C147.26 245.23 143.86 242.5 143.24 237.07C142.19 227.75 143.92 215.58 145.95 214.26C149.17 212.18 156.11 215.09 156.11 215.09Z" fill="#A2AFF9" />
						<path d="M147.45 227.11C147.45 227.11 149.41 236.48 153.06 239.99C156.71 243.5 160.95 242.84 160.95 242.84L160.38 245.23H145.95L139.26 234.48" fill="#656DD6" />
						<path d="M145.3 252.5C145.3 252.5 145.88 254.86 146.07 255.26C146.23 255.62 147.86 256.86 147.86 256.86L151.18 254.73C151.18 254.73 151.04 253.65 151.1 253.44C151.13 253.33 151.32 253.61 152.16 253.52C152.57 253.48 152.88 253.4 153.15 253.09C153.33 252.89 153.08 252.55 152.45 252.19C149.99 250.8 148.29 249.25 148.29 249.25" fill="#F7B29A" />
						<path d="M148.87 213.56C148.87 213.56 144.49 212.53 139.87 222.07C135.74 230.6 133.82 233.26 133.82 236.25C133.82 238.67 145.3 252.42 145.3 252.42L149.38 249.44C149.38 249.44 145.06 237.85 143.11 235.86L150.43 225.2" fill="#A2AFF9" />
						<path d="M147.49 214.21L149.59 211.09L156.75 212.1V215.57" fill="#A2AFF9" />
						<path d="M135.76 236.121C134.81 232.541 143.16 216.791 143.16 216.791L142.12 218.151C141.27 219.471 141.22 219.271 139.87 222.061C135.74 230.591 133.82 233.251 133.82 236.241C133.82 238.661 145.3 252.411 145.3 252.411L146.55 251.501C146.55 251.501 136.72 239.691 135.76 236.111V236.121Z" fill="#656DD6" />
						<path d="M153.95 252.081L145.67 257.281L152.79 258.251" fill="#54579C" />
						<path d="M153.67 214.711L155.48 213.331L155.91 216.641L154.79 214.771L153.67 214.711Z" fill="#656DD6" />
					</g>
				</g>
			</g>
			<path d="M157.01 207.18L158.57 206.98C158.57 206.98 158.67 208.04 157.99 208.04C157.48 208.04 157.01 207.18 157.01 207.18Z" fill="white" />
			<path d="M208.11 205.48L209.95 206.01C209.95 206.01 209.45 206.69 208.81 206.69C207.97 206.69 208.12 205.48 208.12 205.48H208.11Z" fill="white" />
		</g>
		<g class="svgIcon svgIcon6">
			<path d="M314.7 160.68C321.074 160.68 326.24 155.513 326.24 149.14C326.24 142.767 321.074 137.6 314.7 137.6C308.327 137.6 303.16 142.767 303.16 149.14C303.16 155.513 308.327 160.68 314.7 160.68Z" fill="#DFE1E8" />
			<path d="M309.42 149.38L314.18 153.84L319.99 144.44" stroke="white" stroke-width="2" stroke-linecap="round" stroke-linejoin="round" />
		</g>
		<g class="svgIcon svgIcon5">
			<g>
				<path d="M59.4 94H30.22C24.1836 94 19.29 98.8935 19.29 104.93V134.11C19.29 140.146 24.1836 145.04 30.22 145.04H59.4C65.4365 145.04 70.33 140.146 70.33 134.11V104.93C70.33 98.8935 65.4365 94 59.4 94Z" fill="#FEDA8C" />
				<g>
					<path d="M60.9899 111.4C61.1699 109.7 60.6399 108.26 59.6999 107.01C56.9299 103.3 51.5999 102.59 39.7899 111.41C27.9799 120.22 27.1399 125.54 29.9099 129.25C32.6799 132.96 38.0099 133.67 49.8199 124.85C55.0499 120.95 58.1199 117.74 59.6899 115.04" stroke="white" stroke-width="2" stroke-linecap="round" stroke-linejoin="round" />
					<path d="M48.9197 107.28L56.9097 113.27C56.9097 113.27 52.2097 115.63 46.3497 110.41M33.2397 120.19C39.1097 125.4 43.7997 123.05 43.7997 123.05L35.5897 116.9M39.8897 114.98C45.7597 120.19 50.4497 117.84 50.4497 117.84L41.8097 111.37" stroke="white" stroke-width="2" stroke-linecap="round" stroke-linejoin="round" />
				</g>
			</g>
			<path d="M58.4901 143.52C62.8587 143.52 66.4001 139.979 66.4001 135.61C66.4001 131.242 62.8587 127.7 58.4901 127.7C54.1215 127.7 50.5801 131.242 50.5801 135.61C50.5801 139.979 54.1215 143.52 58.4901 143.52Z" fill="white" />
			<path d="M60.2701 132.49C59.5601 132.49 58.9301 132.8 58.4901 133.29C58.0501 132.8 57.4201 132.49 56.7101 132.49C55.3901 132.49 54.3101 133.56 54.3101 134.89C54.3101 136.81 58.4901 139.99 58.4901 139.99C58.4901 139.99 62.6701 136.9 62.6701 134.89C62.6701 133.57 61.6001 132.49 60.2701 132.49Z" fill="#C28FBF" />
		</g>
		<g class="svgIcon svgIcon2">
			<path d="M43.1902 296.02C40.0502 293.89 37.6002 290.84 35.8402 286.85C34.0802 282.87 33.2002 278.17 33.2002 272.78C33.2002 267.39 34.0802 262.69 35.8402 258.71C37.6002 254.73 40.0502 251.67 43.1902 249.54C46.3302 247.41 49.9102 246.35 53.9202 246.35C57.9302 246.35 61.5102 247.41 64.6502 249.54C67.7902 251.67 70.2602 254.73 72.0402 258.71C73.8202 262.7 74.7102 267.39 74.7102 272.78C74.7102 278.17 73.8202 282.87 72.0402 286.85C70.2602 290.84 67.7902 293.89 64.6502 296.02C61.5102 298.15 57.9302 299.21 53.9202 299.21C49.9102 299.21 46.3302 298.15 43.1902 296.02ZM61.9002 291.79C64.2002 290.11 66.0002 287.66 67.2802 284.44C68.5702 281.22 69.2102 277.34 69.2102 272.78C69.2102 268.22 68.5702 264.34 67.2802 261.12C65.9902 257.9 64.2002 255.45 61.9002 253.77C59.6002 252.09 56.9402 251.25 53.9202 251.25C50.9002 251.25 48.2402 252.09 45.9402 253.77C43.6402 255.45 41.8402 257.9 40.5602 261.12C39.2702 264.34 38.6302 268.22 38.6302 272.78C38.6302 277.34 39.2702 281.22 40.5602 284.44C41.8502 287.66 43.6402 290.11 45.9402 291.79C48.2402 293.47 50.9002 294.31 53.9202 294.31C56.9402 294.31 59.6002 293.47 61.9002 291.79Z" fill="#E30313" />
			<path d="M93.5002 246.79V298.77H88.1502V251.54H75.9002V246.79H93.5002Z" fill="#E30313" />
		</g>
		<g class="svgIcon svgIcon7">
			<g>
				<path d="M94.2398 573.42C83.5642 573.42 74.9098 564.765 74.9098 554.09C74.9098 543.414 83.5642 534.76 94.2398 534.76C104.915 534.76 113.57 543.414 113.57 554.09C113.57 564.765 104.915 573.42 94.2398 573.42Z" fill="#DFE1E8" />
				<path d="M94.2397 556.15C91.0641 556.15 88.4897 553.576 88.4897 550.4C88.4897 547.224 91.0641 544.65 94.2397 544.65C97.4154 544.65 99.9897 547.224 99.9897 550.4C99.9897 553.576 97.4154 556.15 94.2397 556.15Z" stroke="white" stroke-width="2" stroke-linecap="round" stroke-linejoin="round" />
				<path d="M81.6097 566.34C84.6897 562.83 89.1996 560.62 94.2296 560.62C99.2596 560.62 103.82 562.85 106.89 566.38" stroke="white" stroke-width="2" stroke-linecap="round" stroke-linejoin="round" />
			</g>
			<g>
				<path d="M121.52 539.15C125.91 539.15 129.47 535.591 129.47 531.2C129.47 526.809 125.91 523.25 121.52 523.25C117.129 523.25 113.57 526.809 113.57 531.2C113.57 535.591 117.129 539.15 121.52 539.15Z" fill="#A7D07D" />
				<path d="M117.88 531.36L121.16 534.43L125.16 527.96" stroke="white" stroke-width="2" stroke-linecap="round" stroke-linejoin="round" />
			</g>
		</g>
	</g>
</svg>
