<svg width="375" height="667" viewBox="0 0 375 667" fill="none" xmlns="http://www.w3.org/2000/svg">
<style>
    .svgIcon {
      opacity: 0;
	  transform:translateY(0.63rem); 
	  transition: all ease 0.5s;
    }
	.svgIcon1{
		transition-delay: 0s;
	}
	.svgIcon2{
		transition-delay: 0.2s;
	}
	.svgIcon3{
		transition-delay: 0.4s;
	}
	.svgIcon4{
		transition-delay: 0.8s;
	}
	.svgIcon5{
		transition-delay: 1.2s;
	}
	.svgIcon6{
		transition-delay: 1.6s;
	}
	.svgIcon7{
		transition-delay: 2s;
	}
</style>
	<g id="iPhone 8 - 29">
		<!-- <g class="svgIcon svgIcon5">
			<path id="Vector" d="M152.85 548.81C155.904 548.81 158.38 546.334 158.38 543.28C158.38 540.226 155.904 537.75 152.85 537.75C149.796 537.75 147.32 540.226 147.32 543.28C147.32 546.334 149.796 548.81 152.85 548.81Z" fill="#A7D07D" />
			<g id="Group">
				<g>
					<path d="M135.96 552.61H91.0801C88.0315 552.61 85.5601 555.081 85.5601 558.13V573.79C85.5601 576.838 88.0315 579.31 91.0801 579.31H135.96C139.009 579.31 141.48 576.838 141.48 573.79V558.13C141.48 555.081 139.009 552.61 135.96 552.61Z" fill="#DFE1E8" />
					<path d="M93.77 565.96H132.76" stroke="white" stroke-linecap="round" stroke-linejoin="round" />
				</g>
				<path d="M100.47 562.14V569.69" stroke="#E30313" stroke-width="2" stroke-linecap="round" stroke-linejoin="round" />
			</g>
		</g> -->
		<g class="svgIcon svgIcon4">
			<path d="M61.09 135.96C72.7597 135.96 82.22 126.5 82.22 114.83C82.22 103.16 72.7597 93.7002 61.09 93.7002C49.4202 93.7002 39.96 103.16 39.96 114.83C39.96 126.5 49.4202 135.96 61.09 135.96Z" fill="#A7D07D" />
			<g>
				<g>
					<g>
						<path d="M66.5699 106.87H55.6699V126.19H66.5699V106.87Z" stroke="white" stroke-linecap="round" stroke-linejoin="round" />
						<path d="M65.0099 102.02H57.2199L55.6699 106.87H66.5699L65.0099 102.02Z" stroke="white" stroke-linecap="round" stroke-linejoin="round" />
					</g>
					<path d="M55.6699 113.35H66.5699" stroke="white" stroke-linecap="round" stroke-linejoin="round" />
					<path d="M66.5701 121.53H55.8101" stroke="white" stroke-linecap="round" stroke-linejoin="round" />
				</g>
				<path d="M60.6098 100.46H58.5498V102.02H60.6098V100.46Z" stroke="white" stroke-linecap="round" stroke-linejoin="round" />
			</g>
			<path d="M81.4 113.34C87.2929 113.34 92.07 108.563 92.07 102.67C92.07 96.7771 87.2929 92 81.4 92C75.5071 92 70.73 96.7771 70.73 102.67C70.73 108.563 75.5071 113.34 81.4 113.34Z" fill="#E30313" />
			<path d="M77.4902 101.91C77.1002 101.46 76.9102 100.87 76.9102 100.14C76.9102 99.4102 77.1002 98.8202 77.4902 98.3702C77.8802 97.9202 78.3902 97.7002 79.0302 97.7002C79.6702 97.7002 80.1802 97.9202 80.5702 98.3702C80.9602 98.8202 81.1602 99.4102 81.1602 100.14C81.1602 100.87 80.9602 101.47 80.5702 101.91C80.1802 102.35 79.6602 102.58 79.0302 102.58C78.4002 102.58 77.8802 102.36 77.4902 101.91ZM79.8302 101.29C80.0202 101.02 80.1202 100.64 80.1202 100.15C80.1202 99.6602 80.0202 99.2802 79.8302 99.0102C79.6402 98.7402 79.3702 98.6002 79.0202 98.6002C78.6702 98.6002 78.4202 98.7402 78.2302 99.0102C78.0302 99.2802 77.9302 99.6602 77.9302 100.15C77.9302 100.64 78.0302 101.01 78.2302 101.29C78.4302 101.57 78.6902 101.7 79.0202 101.7C79.3702 101.7 79.6402 101.56 79.8302 101.29ZM84.3602 97.8002H85.6002L79.5302 106.69H78.2902L84.3602 97.8002V97.8002ZM83.3202 106.11C82.9302 105.66 82.7402 105.07 82.7402 104.34C82.7402 103.61 82.9302 103.02 83.3202 102.57C83.7102 102.12 84.2202 101.9 84.8602 101.9C85.5002 101.9 86.0102 102.12 86.4002 102.57C86.7902 103.02 86.9902 103.61 86.9902 104.34C86.9902 105.07 86.7902 105.66 86.4002 106.11C86.0102 106.56 85.4902 106.78 84.8602 106.78C84.2302 106.78 83.7102 106.56 83.3202 106.11ZM85.6602 105.48C85.8502 105.21 85.9502 104.83 85.9502 104.34C85.9502 103.85 85.8502 103.48 85.6602 103.2C85.4602 102.92 85.2002 102.79 84.8602 102.79C84.5202 102.79 84.2502 102.93 84.0602 103.2C83.8702 103.47 83.7702 103.85 83.7702 104.34C83.7702 104.83 83.8702 105.21 84.0602 105.48C84.2502 105.75 84.5202 105.89 84.8602 105.89C85.2002 105.89 85.4602 105.75 85.6602 105.48Z" fill="white" />
		</g>
		<g class="svgIcon svgIcon1">
			<g opacity="0.64">
				<g>
					<path d="M93.0501 199.47H89.0801V309.18H93.0501V199.47Z" fill="#DFE1E8" />
					<g>
						<path d="M323.79 197.82H89.0801V201.62H323.79V197.82Z" fill="#DFE1E8" />
						<g>
							<path d="M323.79 216.69H89.0801V220.49H323.79V216.69Z" fill="#DFE1E8" />
							<path d="M323.79 235.39H89.0801V239.19H323.79V235.39Z" fill="#DFE1E8" />
							<path d="M323.79 254.09H89.0801V257.89H323.79V254.09Z" fill="#DFE1E8" />
							<path d="M323.79 276.59V272.79H89.0801V276.59" fill="#DFE1E8" />
							<path d="M323.79 273.18H89.0801V276.98H323.79V273.18Z" fill="#DFE1E8" />
							<path d="M323.79 295.68V291.88H89.0801V295.68" fill="#DFE1E8" />
							<path d="M323.79 291.88H89.0801V309.19H323.79V291.88Z" fill="#DFE1E8" />
						</g>
						<path d="M324.05 199.47H320.08V309.18H324.05V199.47Z" fill="#DFE1E8" />
					</g>
					<g>
						<path d="M105.09 261.29H101.57C99.6922 261.29 98.1699 262.812 98.1699 264.69V270.35C98.1699 272.228 99.6922 273.75 101.57 273.75H105.09C106.968 273.75 108.49 272.228 108.49 270.35V264.69C108.49 262.812 106.968 261.29 105.09 261.29Z" fill="#DFE1E8" />
						<path d="M119.33 261.29H115.81C113.932 261.29 112.41 262.812 112.41 264.69V270.35C112.41 272.228 113.932 273.75 115.81 273.75H119.33C121.208 273.75 122.73 272.228 122.73 270.35V264.69C122.73 262.812 121.208 261.29 119.33 261.29Z" fill="#DFE1E8" />
						<path d="M133.7 261.29H130.18C128.302 261.29 126.78 262.812 126.78 264.69V270.35C126.78 272.228 128.302 273.75 130.18 273.75H133.7C135.578 273.75 137.1 272.228 137.1 270.35V264.69C137.1 262.812 135.578 261.29 133.7 261.29Z" fill="#DFE1E8" />
						<path d="M147.95 261.29H144.43C142.552 261.29 141.03 262.812 141.03 264.69V270.35C141.03 272.228 142.552 273.75 144.43 273.75H147.95C149.828 273.75 151.35 272.228 151.35 270.35V264.69C151.35 262.812 149.828 261.29 147.95 261.29Z" fill="#DFE1E8" />
						<path d="M163.53 261.29H160.01C158.132 261.29 156.61 262.812 156.61 264.69V270.35C156.61 272.228 158.132 273.75 160.01 273.75H163.53C165.408 273.75 166.93 272.228 166.93 270.35V264.69C166.93 262.812 165.408 261.29 163.53 261.29Z" fill="#DFE1E8" />
						<path d="M177.77 261.29H174.25C172.372 261.29 170.85 262.812 170.85 264.69V270.35C170.85 272.228 172.372 273.75 174.25 273.75H177.77C179.648 273.75 181.17 272.228 181.17 270.35V264.69C181.17 262.812 179.648 261.29 177.77 261.29Z" fill="#DFE1E8" />
						<path d="M192.14 261.29H188.62C186.742 261.29 185.22 262.812 185.22 264.69V270.35C185.22 272.228 186.742 273.75 188.62 273.75H192.14C194.017 273.75 195.54 272.228 195.54 270.35V264.69C195.54 262.812 194.017 261.29 192.14 261.29Z" fill="#DFE1E8" />
						<path d="M206.39 261.29H202.87C200.992 261.29 199.47 262.812 199.47 264.69V270.35C199.47 272.228 200.992 273.75 202.87 273.75H206.39C208.267 273.75 209.79 272.228 209.79 270.35V264.69C209.79 262.812 208.267 261.29 206.39 261.29Z" fill="#DFE1E8" />
						<path d="M222.72 261.29H219.2C217.322 261.29 215.8 262.812 215.8 264.69V270.35C215.8 272.228 217.322 273.75 219.2 273.75H222.72C224.598 273.75 226.12 272.228 226.12 270.35V264.69C226.12 262.812 224.598 261.29 222.72 261.29Z" fill="#DFE1E8" />
						<path d="M236.97 261.29H233.45C231.572 261.29 230.05 262.812 230.05 264.69V270.35C230.05 272.228 231.572 273.75 233.45 273.75H236.97C238.848 273.75 240.37 272.228 240.37 270.35V264.69C240.37 262.812 238.848 261.29 236.97 261.29Z" fill="#DFE1E8" />
						<path d="M251.34 261.29H247.82C245.942 261.29 244.42 262.812 244.42 264.69V270.35C244.42 272.228 245.942 273.75 247.82 273.75H251.34C253.218 273.75 254.74 272.228 254.74 270.35V264.69C254.74 262.812 253.218 261.29 251.34 261.29Z" fill="#DFE1E8" />
						<path d="M265.58 261.29H262.06C260.182 261.29 258.66 262.812 258.66 264.69V270.35C258.66 272.228 260.182 273.75 262.06 273.75H265.58C267.458 273.75 268.98 272.228 268.98 270.35V264.69C268.98 262.812 267.458 261.29 265.58 261.29Z" fill="#DFE1E8" />
						<path d="M281.16 261.29H277.64C275.762 261.29 274.24 262.812 274.24 264.69V270.35C274.24 272.228 275.762 273.75 277.64 273.75H281.16C283.038 273.75 284.56 272.228 284.56 270.35V264.69C284.56 262.812 283.038 261.29 281.16 261.29Z" fill="#DFE1E8" />
						<path d="M295.41 261.29H291.89C290.012 261.29 288.49 262.812 288.49 264.69V270.35C288.49 272.228 290.012 273.75 291.89 273.75H295.41C297.288 273.75 298.81 272.228 298.81 270.35V264.69C298.81 262.812 297.288 261.29 295.41 261.29Z" fill="#DFE1E8" />
						<path d="M309.78 261.29H306.26C304.382 261.29 302.86 262.812 302.86 264.69V270.35C302.86 272.228 304.382 273.75 306.26 273.75H309.78C311.658 273.75 313.18 272.228 313.18 270.35V264.69C313.18 262.812 311.658 261.29 309.78 261.29Z" fill="#DFE1E8" />
					</g>
					<g>
						<path d="M105.09 283.95H101.57C99.6922 283.95 98.1699 285.472 98.1699 287.35V293.01C98.1699 294.887 99.6922 296.41 101.57 296.41H105.09C106.968 296.41 108.49 294.887 108.49 293.01V287.35C108.49 285.472 106.968 283.95 105.09 283.95Z" fill="#DFE1E8" />
						<path d="M119.33 283.95H115.81C113.932 283.95 112.41 285.472 112.41 287.35V293.01C112.41 294.887 113.932 296.41 115.81 296.41H119.33C121.208 296.41 122.73 294.887 122.73 293.01V287.35C122.73 285.472 121.208 283.95 119.33 283.95Z" fill="#DFE1E8" />
						<path d="M133.7 283.95H130.18C128.302 283.95 126.78 285.472 126.78 287.35V293.01C126.78 294.887 128.302 296.41 130.18 296.41H133.7C135.578 296.41 137.1 294.887 137.1 293.01V287.35C137.1 285.472 135.578 283.95 133.7 283.95Z" fill="#DFE1E8" />
						<path d="M147.95 283.95H144.43C142.552 283.95 141.03 285.472 141.03 287.35V293.01C141.03 294.887 142.552 296.41 144.43 296.41H147.95C149.828 296.41 151.35 294.887 151.35 293.01V287.35C151.35 285.472 149.828 283.95 147.95 283.95Z" fill="#DFE1E8" />
						<path d="M163.53 283.95H160.01C158.132 283.95 156.61 285.472 156.61 287.35V293.01C156.61 294.887 158.132 296.41 160.01 296.41H163.53C165.408 296.41 166.93 294.887 166.93 293.01V287.35C166.93 285.472 165.408 283.95 163.53 283.95Z" fill="#DFE1E8" />
						<path d="M177.77 283.95H174.25C172.372 283.95 170.85 285.472 170.85 287.35V293.01C170.85 294.887 172.372 296.41 174.25 296.41H177.77C179.648 296.41 181.17 294.887 181.17 293.01V287.35C181.17 285.472 179.648 283.95 177.77 283.95Z" fill="#DFE1E8" />
						<path d="M192.14 283.95H188.62C186.742 283.95 185.22 285.472 185.22 287.35V293.01C185.22 294.887 186.742 296.41 188.62 296.41H192.14C194.017 296.41 195.54 294.887 195.54 293.01V287.35C195.54 285.472 194.017 283.95 192.14 283.95Z" fill="#DFE1E8" />
						<path d="M206.39 283.95H202.87C200.992 283.95 199.47 285.472 199.47 287.35V293.01C199.47 294.887 200.992 296.41 202.87 296.41H206.39C208.267 296.41 209.79 294.887 209.79 293.01V287.35C209.79 285.472 208.267 283.95 206.39 283.95Z" fill="#DFE1E8" />
						<path d="M222.72 283.95H219.2C217.322 283.95 215.8 285.472 215.8 287.35V293.01C215.8 294.887 217.322 296.41 219.2 296.41H222.72C224.598 296.41 226.12 294.887 226.12 293.01V287.35C226.12 285.472 224.598 283.95 222.72 283.95Z" fill="#DFE1E8" />
						<path d="M236.97 283.95H233.45C231.572 283.95 230.05 285.472 230.05 287.35V293.01C230.05 294.887 231.572 296.41 233.45 296.41H236.97C238.848 296.41 240.37 294.887 240.37 293.01V287.35C240.37 285.472 238.848 283.95 236.97 283.95Z" fill="#DFE1E8" />
						<path d="M251.34 283.95H247.82C245.942 283.95 244.42 285.472 244.42 287.35V293.01C244.42 294.887 245.942 296.41 247.82 296.41H251.34C253.218 296.41 254.74 294.887 254.74 293.01V287.35C254.74 285.472 253.218 283.95 251.34 283.95Z" fill="#DFE1E8" />
						<path d="M265.58 283.95H262.06C260.182 283.95 258.66 285.472 258.66 287.35V293.01C258.66 294.887 260.182 296.41 262.06 296.41H265.58C267.458 296.41 268.98 294.887 268.98 293.01V287.35C268.98 285.472 267.458 283.95 265.58 283.95Z" fill="#DFE1E8" />
						<path d="M281.16 283.95H277.64C275.762 283.95 274.24 285.472 274.24 287.35V293.01C274.24 294.887 275.762 296.41 277.64 296.41H281.16C283.038 296.41 284.56 294.887 284.56 293.01V287.35C284.56 285.472 283.038 283.95 281.16 283.95Z" fill="#DFE1E8" />
						<path d="M295.41 283.95H291.89C290.012 283.95 288.49 285.472 288.49 287.35V293.01C288.49 294.887 290.012 296.41 291.89 296.41H295.41C297.288 296.41 298.81 294.887 298.81 293.01V287.35C298.81 285.472 297.288 283.95 295.41 283.95Z" fill="#DFE1E8" />
						<path d="M309.78 283.95H306.26C304.382 283.95 302.86 285.472 302.86 287.35V293.01C302.86 294.887 304.382 296.41 306.26 296.41H309.78C311.658 296.41 313.18 294.887 313.18 293.01V287.35C313.18 285.472 311.658 283.95 309.78 283.95Z" fill="#DFE1E8" />
					</g>
				</g>
				<g>
					<g>
						<g>
							<path d="M101.64 217.05H99.2303C98.7303 217.05 98.3203 216.68 98.3203 216.23V206.69C98.3203 206.24 98.7303 205.87 99.2303 205.87H101.64C102.14 205.87 102.55 206.24 102.55 206.69V216.23C102.55 216.68 102.14 217.05 101.64 217.05V217.05Z" fill="#DFE1E8" />
							<path d="M98.3901 206.37L99.5401 204.6H101.16L102.47 206.35L98.3901 206.37Z" fill="#DFE1E8" />
						</g>
						<path d="M101.161 203.88H99.5605V204.6H101.161V203.88Z" fill="#DFE1E8" />
					</g>
					<g>
						<g>
							<path d="M109.81 217.05H107.4C106.9 217.05 106.49 216.68 106.49 216.23V206.69C106.49 206.24 106.9 205.87 107.4 205.87H109.81C110.31 205.87 110.72 206.24 110.72 206.69V216.23C110.72 216.68 110.31 217.05 109.81 217.05V217.05Z" fill="#DFE1E8" />
							<path d="M106.55 206.37L107.7 204.6H109.32L110.63 206.35L106.55 206.37Z" fill="#DFE1E8" />
						</g>
						<path d="M109.32 203.88H107.72V204.6H109.32V203.88Z" fill="#DFE1E8" />
					</g>
					<g>
						<g>
							<path d="M117.97 217.05H115.56C115.06 217.05 114.65 216.68 114.65 216.23V206.69C114.65 206.24 115.06 205.87 115.56 205.87H117.97C118.47 205.87 118.88 206.24 118.88 206.69V216.23C118.88 216.68 118.47 217.05 117.97 217.05V217.05Z" fill="#DFE1E8" />
							<path d="M114.72 206.37L115.87 204.6H117.49L118.8 206.35L114.72 206.37Z" fill="#DFE1E8" />
						</g>
						<path d="M117.491 203.88H115.891V204.6H117.491V203.88Z" fill="#DFE1E8" />
					</g>
					<g>
						<g>
							<path d="M126.131 217.05H123.721C123.221 217.05 122.811 216.68 122.811 216.23V206.69C122.811 206.24 123.221 205.87 123.721 205.87H126.131C126.631 205.87 127.041 206.24 127.041 206.69V216.23C127.041 216.68 126.631 217.05 126.131 217.05V217.05Z" fill="#DFE1E8" />
							<path d="M122.88 206.37L124.03 204.6H125.65L126.96 206.35L122.88 206.37Z" fill="#DFE1E8" />
						</g>
						<path d="M125.651 203.88H124.051V204.6H125.651V203.88Z" fill="#DFE1E8" />
					</g>
					<g>
						<g>
							<path d="M134.3 217.05H131.89C131.39 217.05 130.98 216.68 130.98 216.23V206.69C130.98 206.24 131.39 205.87 131.89 205.87H134.3C134.8 205.87 135.21 206.24 135.21 206.69V216.23C135.21 216.68 134.8 217.05 134.3 217.05V217.05Z" fill="#DFE1E8" />
							<path d="M131.05 206.37L132.19 204.6H133.81L135.13 206.35L131.05 206.37Z" fill="#DFE1E8" />
						</g>
						<path d="M133.81 203.88H132.21V204.6H133.81V203.88Z" fill="#DFE1E8" />
					</g>
					<g>
						<g>
							<path d="M142.46 217.05H140.05C139.55 217.05 139.14 216.68 139.14 216.23V206.69C139.14 206.24 139.55 205.87 140.05 205.87H142.46C142.96 205.87 143.37 206.24 143.37 206.69V216.23C143.37 216.68 142.96 217.05 142.46 217.05V217.05Z" fill="#DFE1E8" />
							<path d="M139.21 206.37L140.36 204.6H141.98L143.29 206.35L139.21 206.37Z" fill="#DFE1E8" />
						</g>
						<path d="M141.98 203.88H140.38V204.6H141.98V203.88Z" fill="#DFE1E8" />
					</g>
					<g>
						<g>
							<path d="M150.62 217.05H148.21C147.71 217.05 147.3 216.68 147.3 216.23V206.69C147.3 206.24 147.71 205.87 148.21 205.87H150.62C151.12 205.87 151.53 206.24 151.53 206.69V216.23C151.53 216.68 151.12 217.05 150.62 217.05V217.05Z" fill="#DFE1E8" />
							<path d="M147.37 206.37L148.52 204.6H150.14L151.45 206.35L147.37 206.37Z" fill="#DFE1E8" />
						</g>
						<path d="M150.14 203.88H148.54V204.6H150.14V203.88Z" fill="#DFE1E8" />
					</g>
					<g>
						<g>
							<path d="M158.79 217.05H156.38C155.88 217.05 155.47 216.68 155.47 216.23V206.69C155.47 206.24 155.88 205.87 156.38 205.87H158.79C159.29 205.87 159.7 206.24 159.7 206.69V216.23C159.7 216.68 159.29 217.05 158.79 217.05V217.05Z" fill="#DFE1E8" />
							<path d="M155.54 206.37L156.69 204.6H158.3L159.62 206.35L155.54 206.37Z" fill="#DFE1E8" />
						</g>
						<path d="M158.31 203.88H156.71V204.6H158.31V203.88Z" fill="#DFE1E8" />
					</g>
					<g>
						<g>
							<path d="M166.95 217.05H164.54C164.04 217.05 163.63 216.68 163.63 216.23V206.69C163.63 206.24 164.04 205.87 164.54 205.87H166.95C167.45 205.87 167.86 206.24 167.86 206.69V216.23C167.86 216.68 167.45 217.05 166.95 217.05V217.05Z" fill="#DFE1E8" />
							<path d="M163.7 206.37L164.85 204.6H166.47L167.78 206.35L163.7 206.37Z" fill="#DFE1E8" />
						</g>
						<path d="M166.47 203.88H164.87V204.6H166.47V203.88Z" fill="#DFE1E8" />
					</g>
					<g>
						<g>
							<path d="M175.111 217.05H172.701C172.201 217.05 171.791 216.68 171.791 216.23V206.69C171.791 206.24 172.201 205.87 172.701 205.87H175.111C175.611 205.87 176.021 206.24 176.021 206.69V216.23C176.021 216.68 175.611 217.05 175.111 217.05V217.05Z" fill="#DFE1E8" />
							<path d="M171.86 206.37L173.01 204.6H174.63L175.94 206.35L171.86 206.37Z" fill="#DFE1E8" />
						</g>
						<path d="M174.631 203.88H173.031V204.6H174.631V203.88Z" fill="#DFE1E8" />
					</g>
					<g>
						<g>
							<path d="M183.28 217.05H180.87C180.37 217.05 179.96 216.68 179.96 216.23V206.69C179.96 206.24 180.37 205.87 180.87 205.87H183.28C183.78 205.87 184.19 206.24 184.19 206.69V216.23C184.19 216.68 183.78 217.05 183.28 217.05V217.05Z" fill="#DFE1E8" />
							<path d="M180.03 206.37L181.18 204.6H182.79L184.11 206.35L180.03 206.37Z" fill="#DFE1E8" />
						</g>
						<path d="M182.8 203.88H181.2V204.6H182.8V203.88Z" fill="#DFE1E8" />
					</g>
					<g>
						<g>
							<path d="M191.44 217.05H189.03C188.53 217.05 188.12 216.68 188.12 216.23V206.69C188.12 206.24 188.53 205.87 189.03 205.87H191.44C191.94 205.87 192.35 206.24 192.35 206.69V216.23C192.35 216.68 191.94 217.05 191.44 217.05V217.05Z" fill="#DFE1E8" />
							<path d="M188.19 206.37L189.34 204.6H190.96L192.27 206.35L188.19 206.37Z" fill="#DFE1E8" />
						</g>
						<path d="M190.96 203.88H189.36V204.6H190.96V203.88Z" fill="#DFE1E8" />
					</g>
					<g>
						<g>
							<path d="M199.6 217.05H197.19C196.69 217.05 196.28 216.68 196.28 216.23V206.69C196.28 206.24 196.69 205.87 197.19 205.87H199.6C200.1 205.87 200.51 206.24 200.51 206.69V216.23C200.51 216.68 200.1 217.05 199.6 217.05V217.05Z" fill="#DFE1E8" />
							<path d="M196.35 206.37L197.5 204.6H199.12L200.43 206.35L196.35 206.37Z" fill="#DFE1E8" />
						</g>
						<path d="M199.12 203.88H197.521V204.6H199.12V203.88Z" fill="#DFE1E8" />
					</g>
					<g>
						<g>
							<path d="M207.77 217.05H205.36C204.86 217.05 204.45 216.68 204.45 216.23V206.69C204.45 206.24 204.86 205.87 205.36 205.87H207.77C208.27 205.87 208.68 206.24 208.68 206.69V216.23C208.68 216.68 208.27 217.05 207.77 217.05V217.05Z" fill="#DFE1E8" />
							<path d="M204.52 206.37L205.67 204.6H207.29L208.6 206.35L204.52 206.37Z" fill="#DFE1E8" />
						</g>
						<path d="M207.29 203.88H205.69V204.6H207.29V203.88Z" fill="#DFE1E8" />
					</g>
					<g>
						<g>
							<path d="M215.93 217.05H213.52C213.02 217.05 212.61 216.68 212.61 216.23V206.69C212.61 206.24 213.02 205.87 213.52 205.87H215.93C216.43 205.87 216.84 206.24 216.84 206.69V216.23C216.84 216.68 216.43 217.05 215.93 217.05V217.05Z" fill="#DFE1E8" />
							<path d="M212.68 206.37L213.83 204.6H215.45L216.76 206.35L212.68 206.37Z" fill="#DFE1E8" />
						</g>
						<path d="M215.451 203.88H213.851V204.6H215.451V203.88Z" fill="#DFE1E8" />
					</g>
					<g>
						<g>
							<path d="M224.09 217.05H221.68C221.18 217.05 220.771 216.68 220.771 216.23V206.69C220.771 206.24 221.18 205.87 221.68 205.87H224.09C224.59 205.87 225.001 206.24 225.001 206.69V216.23C225.001 216.68 224.59 217.05 224.09 217.05V217.05Z" fill="#DFE1E8" />
							<path d="M220.84 206.37L221.99 204.6H223.61L224.92 206.35L220.84 206.37Z" fill="#DFE1E8" />
						</g>
						<path d="M223.611 203.88H222.011V204.6H223.611V203.88Z" fill="#DFE1E8" />
					</g>
					<g>
						<g>
							<path d="M232.26 217.05H229.85C229.35 217.05 228.94 216.68 228.94 216.23V206.69C228.94 206.24 229.35 205.87 229.85 205.87H232.26C232.76 205.87 233.17 206.24 233.17 206.69V216.23C233.17 216.68 232.76 217.05 232.26 217.05V217.05Z" fill="#DFE1E8" />
							<path d="M229.01 206.37L230.16 204.6H231.78L233.09 206.35L229.01 206.37Z" fill="#DFE1E8" />
						</g>
						<path d="M231.781 203.88H230.181V204.6H231.781V203.88Z" fill="#DFE1E8" />
					</g>
					<g>
						<g>
							<path d="M240.42 217.05H238.01C237.51 217.05 237.1 216.68 237.1 216.23V206.69C237.1 206.24 237.51 205.87 238.01 205.87H240.42C240.92 205.87 241.33 206.24 241.33 206.69V216.23C241.33 216.68 240.92 217.05 240.42 217.05V217.05Z" fill="#DFE1E8" />
							<path d="M237.17 206.37L238.32 204.6H239.94L241.25 206.35L237.17 206.37Z" fill="#DFE1E8" />
						</g>
						<path d="M239.94 203.88H238.34V204.6H239.94V203.88Z" fill="#DFE1E8" />
					</g>
					<g>
						<g>
							<path d="M248.59 217.05H246.18C245.68 217.05 245.271 216.68 245.271 216.23V206.69C245.271 206.24 245.68 205.87 246.18 205.87H248.59C249.09 205.87 249.501 206.24 249.501 206.69V216.23C249.501 216.68 249.09 217.05 248.59 217.05V217.05Z" fill="#DFE1E8" />
							<path d="M245.331 206.37L246.481 204.6H248.101L249.411 206.35L245.331 206.37Z" fill="#DFE1E8" />
						</g>
						<path d="M248.1 203.88H246.5V204.6H248.1V203.88Z" fill="#DFE1E8" />
					</g>
					<g>
						<g>
							<path d="M256.75 217.05H254.34C253.84 217.05 253.43 216.68 253.43 216.23V206.69C253.43 206.24 253.84 205.87 254.34 205.87H256.75C257.25 205.87 257.66 206.24 257.66 206.69V216.23C257.66 216.68 257.25 217.05 256.75 217.05V217.05Z" fill="#DFE1E8" />
							<path d="M253.5 206.37L254.65 204.6H256.27L257.58 206.35L253.5 206.37Z" fill="#DFE1E8" />
						</g>
						<path d="M256.27 203.88H254.67V204.6H256.27V203.88Z" fill="#DFE1E8" />
					</g>
					<g>
						<g>
							<path d="M264.91 217.05H262.5C262 217.05 261.59 216.68 261.59 216.23V206.69C261.59 206.24 262 205.87 262.5 205.87H264.91C265.41 205.87 265.82 206.24 265.82 206.69V216.23C265.82 216.68 265.41 217.05 264.91 217.05V217.05Z" fill="#DFE1E8" />
							<path d="M261.66 206.37L262.81 204.6H264.43L265.74 206.35L261.66 206.37Z" fill="#DFE1E8" />
						</g>
						<path d="M264.431 203.88H262.831V204.6H264.431V203.88Z" fill="#DFE1E8" />
					</g>
					<g>
						<g>
							<path d="M273.08 217.05H270.67C270.17 217.05 269.76 216.68 269.76 216.23V206.69C269.76 206.24 270.17 205.87 270.67 205.87H273.08C273.58 205.87 273.99 206.24 273.99 206.69V216.23C273.99 216.68 273.58 217.05 273.08 217.05V217.05Z" fill="#DFE1E8" />
							<path d="M269.83 206.37L270.97 204.6H272.59L273.91 206.35L269.83 206.37Z" fill="#DFE1E8" />
						</g>
						<path d="M272.59 203.88H270.99V204.6H272.59V203.88Z" fill="#DFE1E8" />
					</g>
					<g>
						<g>
							<path d="M281.24 217.05H278.83C278.33 217.05 277.92 216.68 277.92 216.23V206.69C277.92 206.24 278.33 205.87 278.83 205.87H281.24C281.74 205.87 282.15 206.24 282.15 206.69V216.23C282.15 216.68 281.74 217.05 281.24 217.05V217.05Z" fill="#DFE1E8" />
							<path d="M277.99 206.37L279.14 204.6H280.76L282.07 206.35L277.99 206.37Z" fill="#DFE1E8" />
						</g>
						<path d="M280.76 203.88H279.16V204.6H280.76V203.88Z" fill="#DFE1E8" />
					</g>
					<g>
						<g>
							<path d="M289.4 217.05H286.99C286.49 217.05 286.08 216.68 286.08 216.23V206.69C286.08 206.24 286.49 205.87 286.99 205.87H289.4C289.9 205.87 290.31 206.24 290.31 206.69V216.23C290.31 216.68 289.9 217.05 289.4 217.05V217.05Z" fill="#DFE1E8" />
							<path d="M286.15 206.37L287.3 204.6H288.92L290.23 206.35L286.15 206.37Z" fill="#DFE1E8" />
						</g>
						<path d="M288.92 203.88H287.32V204.6H288.92V203.88Z" fill="#DFE1E8" />
					</g>
					<g>
						<g>
							<path d="M297.57 217.05H295.16C294.66 217.05 294.25 216.68 294.25 216.23V206.69C294.25 206.24 294.66 205.87 295.16 205.87H297.57C298.07 205.87 298.48 206.24 298.48 206.69V216.23C298.48 216.68 298.07 217.05 297.57 217.05V217.05Z" fill="#DFE1E8" />
							<path d="M294.32 206.37L295.47 204.6H297.08L298.4 206.35L294.32 206.37Z" fill="#DFE1E8" />
						</g>
						<path d="M297.09 203.88H295.49V204.6H297.09V203.88Z" fill="#DFE1E8" />
					</g>
					<g>
						<g>
							<path d="M305.73 217.05H303.32C302.82 217.05 302.41 216.68 302.41 216.23V206.69C302.41 206.24 302.82 205.87 303.32 205.87H305.73C306.23 205.87 306.64 206.24 306.64 206.69V216.23C306.64 216.68 306.23 217.05 305.73 217.05V217.05Z" fill="#DFE1E8" />
							<path d="M302.48 206.37L303.63 204.6H305.25L306.56 206.35L302.48 206.37Z" fill="#DFE1E8" />
						</g>
						<path d="M305.25 203.88H303.65V204.6H305.25V203.88Z" fill="#DFE1E8" />
					</g>
					<g>
						<g>
							<path d="M313.89 217.05H311.48C310.98 217.05 310.57 216.68 310.57 216.23V206.69C310.57 206.24 310.98 205.87 311.48 205.87H313.89C314.39 205.87 314.8 206.24 314.8 206.69V216.23C314.8 216.68 314.39 217.05 313.89 217.05V217.05Z" fill="#DFE1E8" />
							<path d="M310.64 206.37L311.79 204.6H313.41L314.72 206.35L310.64 206.37Z" fill="#DFE1E8" />
						</g>
						<path d="M313.411 203.88H311.811V204.6H313.411V203.88Z" fill="#DFE1E8" />
					</g>
				</g>
				<g>
					<g>
						<g>
							<g>
								<path d="M101.57 255.5H99.16C98.66 255.5 98.25 255.13 98.25 254.68V245.14C98.25 244.69 98.66 244.32 99.16 244.32H101.57C102.07 244.32 102.48 244.69 102.48 245.14V254.68C102.48 255.13 102.07 255.5 101.57 255.5Z" fill="#DFE1E8" />
								<path d="M98.3198 244.82L99.4598 243.05H101.08L102.4 244.8L98.3198 244.82Z" fill="#DFE1E8" />
							</g>
							<path d="M101.08 242.33H99.48V243.05H101.08V242.33Z" fill="#DFE1E8" />
						</g>
						<g>
							<g>
								<path d="M107.69 255.5H105.28C104.78 255.5 104.37 255.13 104.37 254.68V245.14C104.37 244.69 104.78 244.32 105.28 244.32H107.69C108.19 244.32 108.6 244.69 108.6 245.14V254.68C108.6 255.13 108.19 255.5 107.69 255.5Z" fill="#DFE1E8" />
								<path d="M104.44 244.82L105.59 243.05H107.21L108.52 244.8L104.44 244.82Z" fill="#DFE1E8" />
							</g>
							<path d="M107.21 242.33H105.61V243.05H107.21V242.33Z" fill="#DFE1E8" />
						</g>
					</g>
					<g>
						<g>
							<g>
								<path d="M118.06 255.5H115.65C115.15 255.5 114.74 255.13 114.74 254.68V245.14C114.74 244.69 115.15 244.32 115.65 244.32H118.06C118.56 244.32 118.97 244.69 118.97 245.14V254.68C118.97 255.13 118.56 255.5 118.06 255.5Z" fill="#DFE1E8" />
								<path d="M114.81 244.82L115.96 243.05H117.57L118.89 244.8L114.81 244.82Z" fill="#DFE1E8" />
							</g>
							<path d="M117.58 242.33H115.98V243.05H117.58V242.33Z" fill="#DFE1E8" />
						</g>
						<g>
							<g>
								<path d="M124.18 255.5H121.77C121.27 255.5 120.86 255.13 120.86 254.68V245.14C120.86 244.69 121.27 244.32 121.77 244.32H124.18C124.68 244.32 125.09 244.69 125.09 245.14V254.68C125.09 255.13 124.68 255.5 124.18 255.5Z" fill="#DFE1E8" />
								<path d="M120.93 244.82L122.08 243.05H123.7L125.01 244.8L120.93 244.82Z" fill="#DFE1E8" />
							</g>
							<path d="M123.701 242.33H122.101V243.05H123.701V242.33Z" fill="#DFE1E8" />
						</g>
					</g>
					<g>
						<g>
							<g>
								<path d="M134.55 255.5H132.14C131.64 255.5 131.23 255.13 131.23 254.68V245.14C131.23 244.69 131.64 244.32 132.14 244.32H134.55C135.05 244.32 135.46 244.69 135.46 245.14V254.68C135.46 255.13 135.05 255.5 134.55 255.5Z" fill="#DFE1E8" />
								<path d="M131.3 244.82L132.45 243.05H134.07L135.38 244.8L131.3 244.82Z" fill="#DFE1E8" />
							</g>
							<path d="M134.07 242.33H132.47V243.05H134.07V242.33Z" fill="#DFE1E8" />
						</g>
						<g>
							<g>
								<path d="M140.67 255.5H138.26C137.76 255.5 137.35 255.13 137.35 254.68V245.14C137.35 244.69 137.76 244.32 138.26 244.32H140.67C141.17 244.32 141.58 244.69 141.58 245.14V254.68C141.58 255.13 141.17 255.5 140.67 255.5Z" fill="#DFE1E8" />
								<path d="M137.42 244.82L138.57 243.05H140.19L141.5 244.8L137.42 244.82Z" fill="#DFE1E8" />
							</g>
							<path d="M140.19 242.33H138.59V243.05H140.19V242.33Z" fill="#DFE1E8" />
						</g>
					</g>
					<g>
						<g>
							<g>
								<path d="M151.04 255.5H148.63C148.13 255.5 147.72 255.13 147.72 254.68V245.14C147.72 244.69 148.13 244.32 148.63 244.32H151.04C151.54 244.32 151.95 244.69 151.95 245.14V254.68C151.95 255.13 151.54 255.5 151.04 255.5Z" fill="#DFE1E8" />
								<path d="M147.79 244.82L148.94 243.05H150.56L151.87 244.8L147.79 244.82Z" fill="#DFE1E8" />
							</g>
							<path d="M150.56 242.33H148.96V243.05H150.56V242.33Z" fill="#DFE1E8" />
						</g>
						<g>
							<g>
								<path d="M157.16 255.5H154.75C154.25 255.5 153.84 255.13 153.84 254.68V245.14C153.84 244.69 154.25 244.32 154.75 244.32H157.16C157.66 244.32 158.07 244.69 158.07 245.14V254.68C158.07 255.13 157.66 255.5 157.16 255.5Z" fill="#DFE1E8" />
								<path d="M153.91 244.82L155.06 243.05H156.68L157.99 244.8L153.91 244.82Z" fill="#DFE1E8" />
							</g>
							<path d="M156.681 242.33H155.081V243.05H156.681V242.33Z" fill="#DFE1E8" />
						</g>
					</g>
					<g>
						<g>
							<g>
								<path d="M167.53 255.5H165.12C164.62 255.5 164.21 255.13 164.21 254.68V245.14C164.21 244.69 164.62 244.32 165.12 244.32H167.53C168.03 244.32 168.44 244.69 168.44 245.14V254.68C168.44 255.13 168.03 255.5 167.53 255.5Z" fill="#DFE1E8" />
								<path d="M164.28 244.82L165.43 243.05H167.05L168.36 244.8L164.28 244.82Z" fill="#DFE1E8" />
							</g>
							<path d="M167.05 242.33H165.45V243.05H167.05V242.33Z" fill="#DFE1E8" />
						</g>
						<g>
							<g>
								<path d="M173.65 255.5H171.24C170.74 255.5 170.33 255.13 170.33 254.68V245.14C170.33 244.69 170.74 244.32 171.24 244.32H173.65C174.15 244.32 174.56 244.69 174.56 245.14V254.68C174.56 255.13 174.15 255.5 173.65 255.5Z" fill="#DFE1E8" />
								<path d="M170.4 244.82L171.55 243.05H173.17L174.48 244.8L170.4 244.82Z" fill="#DFE1E8" />
							</g>
							<path d="M173.17 242.33H171.57V243.05H173.17V242.33Z" fill="#DFE1E8" />
						</g>
					</g>
					<g>
						<g>
							<g>
								<path d="M184.02 255.5H181.61C181.11 255.5 180.7 255.13 180.7 254.68V245.14C180.7 244.69 181.11 244.32 181.61 244.32H184.02C184.52 244.32 184.93 244.69 184.93 245.14V254.68C184.93 255.13 184.52 255.5 184.02 255.5Z" fill="#DFE1E8" />
								<path d="M180.77 244.82L181.92 243.05H183.54L184.85 244.8L180.77 244.82Z" fill="#DFE1E8" />
							</g>
							<path d="M183.54 242.33H181.94V243.05H183.54V242.33Z" fill="#DFE1E8" />
						</g>
						<g>
							<g>
								<path d="M190.15 255.5H187.74C187.24 255.5 186.83 255.13 186.83 254.68V245.14C186.83 244.69 187.24 244.32 187.74 244.32H190.15C190.65 244.32 191.06 244.69 191.06 245.14V254.68C191.06 255.13 190.65 255.5 190.15 255.5Z" fill="#DFE1E8" />
								<path d="M186.89 244.82L188.04 243.05H189.66L190.98 244.8L186.89 244.82Z" fill="#DFE1E8" />
							</g>
							<path d="M189.66 242.33H188.06V243.05H189.66V242.33Z" fill="#DFE1E8" />
						</g>
					</g>
					<g>
						<g>
							<g>
								<path d="M200.51 255.5H198.1C197.6 255.5 197.19 255.13 197.19 254.68V245.14C197.19 244.69 197.6 244.32 198.1 244.32H200.51C201.01 244.32 201.42 244.69 201.42 245.14V254.68C201.42 255.13 201.01 255.5 200.51 255.5Z" fill="#DFE1E8" />
								<path d="M197.26 244.82L198.41 243.05H200.03L201.34 244.8L197.26 244.82Z" fill="#DFE1E8" />
							</g>
							<path d="M200.03 242.33H198.43V243.05H200.03V242.33Z" fill="#DFE1E8" />
						</g>
						<g>
							<g>
								<path d="M206.64 255.5H204.23C203.73 255.5 203.32 255.13 203.32 254.68V245.14C203.32 244.69 203.73 244.32 204.23 244.32H206.64C207.14 244.32 207.55 244.69 207.55 245.14V254.68C207.55 255.13 207.14 255.5 206.64 255.5Z" fill="#DFE1E8" />
								<path d="M203.39 244.82L204.54 243.05H206.15L207.47 244.8L203.39 244.82Z" fill="#DFE1E8" />
							</g>
							<path d="M206.16 242.33H204.56V243.05H206.16V242.33Z" fill="#DFE1E8" />
						</g>
					</g>
					<g>
						<g>
							<g>
								<path d="M217.01 255.5H214.6C214.1 255.5 213.69 255.13 213.69 254.68V245.14C213.69 244.69 214.1 244.32 214.6 244.32H217.01C217.51 244.32 217.92 244.69 217.92 245.14V254.68C217.92 255.13 217.51 255.5 217.01 255.5Z" fill="#DFE1E8" />
								<path d="M213.76 244.82L214.9 243.05H216.52L217.84 244.8L213.76 244.82Z" fill="#DFE1E8" />
							</g>
							<path d="M216.52 242.33H214.92V243.05H216.52V242.33Z" fill="#DFE1E8" />
						</g>
						<g>
							<g>
								<path d="M223.13 255.5H220.72C220.22 255.5 219.81 255.13 219.81 254.68V245.14C219.81 244.69 220.22 244.32 220.72 244.32H223.13C223.63 244.32 224.04 244.69 224.04 245.14V254.68C224.04 255.13 223.63 255.5 223.13 255.5Z" fill="#DFE1E8" />
								<path d="M219.88 244.82L221.03 243.05H222.65L223.96 244.8L219.88 244.82Z" fill="#DFE1E8" />
							</g>
							<path d="M222.65 242.33H221.05V243.05H222.65V242.33Z" fill="#DFE1E8" />
						</g>
					</g>
					<g>
						<g>
							<g>
								<path d="M233.5 255.5H231.09C230.59 255.5 230.18 255.13 230.18 254.68V245.14C230.18 244.69 230.59 244.32 231.09 244.32H233.5C234 244.32 234.41 244.69 234.41 245.14V254.68C234.41 255.13 234 255.5 233.5 255.5Z" fill="#DFE1E8" />
								<path d="M230.25 244.82L231.4 243.05H233.01L234.33 244.8L230.25 244.82Z" fill="#DFE1E8" />
							</g>
							<path d="M233.02 242.33H231.42V243.05H233.02V242.33Z" fill="#DFE1E8" />
						</g>
						<g>
							<g>
								<path d="M239.62 255.5H237.21C236.71 255.5 236.3 255.13 236.3 254.68V245.14C236.3 244.69 236.71 244.32 237.21 244.32H239.62C240.12 244.32 240.53 244.69 240.53 245.14V254.68C240.53 255.13 240.12 255.5 239.62 255.5Z" fill="#DFE1E8" />
								<path d="M236.37 244.82L237.52 243.05H239.14L240.45 244.8L236.37 244.82Z" fill="#DFE1E8" />
							</g>
							<path d="M239.14 242.33H237.54V243.05H239.14V242.33Z" fill="#DFE1E8" />
						</g>
					</g>
					<g>
						<g>
							<g>
								<path d="M249.99 255.5H247.58C247.08 255.5 246.67 255.13 246.67 254.68V245.14C246.67 244.69 247.08 244.32 247.58 244.32H249.99C250.49 244.32 250.9 244.69 250.9 245.14V254.68C250.9 255.13 250.49 255.5 249.99 255.5Z" fill="#DFE1E8" />
								<path d="M246.74 244.82L247.89 243.05H249.51L250.82 244.8L246.74 244.82Z" fill="#DFE1E8" />
							</g>
							<path d="M249.51 242.33H247.91V243.05H249.51V242.33Z" fill="#DFE1E8" />
						</g>
						<g>
							<g>
								<path d="M256.11 255.5H253.7C253.2 255.5 252.79 255.13 252.79 254.68V245.14C252.79 244.69 253.2 244.32 253.7 244.32H256.11C256.61 244.32 257.02 244.69 257.02 245.14V254.68C257.02 255.13 256.61 255.5 256.11 255.5Z" fill="#DFE1E8" />
								<path d="M252.86 244.82L254.01 243.05H255.63L256.94 244.8L252.86 244.82Z" fill="#DFE1E8" />
							</g>
							<path d="M255.63 242.33H254.03V243.05H255.63V242.33Z" fill="#DFE1E8" />
						</g>
					</g>
					<g>
						<g>
							<g>
								<path d="M266.48 255.5H264.07C263.57 255.5 263.16 255.13 263.16 254.68V245.14C263.16 244.69 263.57 244.32 264.07 244.32H266.48C266.98 244.32 267.39 244.69 267.39 245.14V254.68C267.39 255.13 266.98 255.5 266.48 255.5Z" fill="#DFE1E8" />
								<path d="M263.23 244.82L264.38 243.05H266L267.31 244.8L263.23 244.82Z" fill="#DFE1E8" />
							</g>
							<path d="M266 242.33H264.4V243.05H266V242.33Z" fill="#DFE1E8" />
						</g>
						<g>
							<g>
								<path d="M272.6 255.5H270.19C269.69 255.5 269.28 255.13 269.28 254.68V245.14C269.28 244.69 269.69 244.32 270.19 244.32H272.6C273.1 244.32 273.51 244.69 273.51 245.14V254.68C273.51 255.13 273.1 255.5 272.6 255.5Z" fill="#DFE1E8" />
								<path d="M269.35 244.82L270.5 243.05H272.12L273.43 244.8L269.35 244.82Z" fill="#DFE1E8" />
							</g>
							<path d="M272.12 242.33H270.521V243.05H272.12V242.33Z" fill="#DFE1E8" />
						</g>
					</g>
					<g>
						<g>
							<g>
								<path d="M282.97 255.5H280.56C280.06 255.5 279.65 255.13 279.65 254.68V245.14C279.65 244.69 280.06 244.32 280.56 244.32H282.97C283.47 244.32 283.88 244.69 283.88 245.14V254.68C283.88 255.13 283.47 255.5 282.97 255.5Z" fill="#DFE1E8" />
								<path d="M279.72 244.82L280.87 243.05H282.49L283.8 244.8L279.72 244.82Z" fill="#DFE1E8" />
							</g>
							<path d="M282.49 242.33H280.89V243.05H282.49V242.33Z" fill="#DFE1E8" />
						</g>
						<g>
							<g>
								<path d="M289.09 255.5H286.68C286.18 255.5 285.77 255.13 285.77 254.68V245.14C285.77 244.69 286.18 244.32 286.68 244.32H289.09C289.59 244.32 290 244.69 290 245.14V254.68C290 255.13 289.59 255.5 289.09 255.5Z" fill="#DFE1E8" />
								<path d="M285.84 244.82L286.99 243.05H288.61L289.92 244.8L285.84 244.82Z" fill="#DFE1E8" />
							</g>
							<path d="M288.61 242.33H287.01V243.05H288.61V242.33Z" fill="#DFE1E8" />
						</g>
					</g>
					<g>
						<g>
							<g>
								<path d="M299.46 255.5H297.05C296.55 255.5 296.14 255.13 296.14 254.68V245.14C296.14 244.69 296.55 244.32 297.05 244.32H299.46C299.96 244.32 300.37 244.69 300.37 245.14V254.68C300.37 255.13 299.96 255.5 299.46 255.5Z" fill="#DFE1E8" />
								<path d="M296.21 244.82L297.36 243.05H298.98L300.29 244.8L296.21 244.82Z" fill="#DFE1E8" />
							</g>
							<path d="M298.98 242.33H297.38V243.05H298.98V242.33Z" fill="#DFE1E8" />
						</g>
						<g>
							<g>
								<path d="M305.59 255.5H303.18C302.68 255.5 302.27 255.13 302.27 254.68V245.14C302.27 244.69 302.68 244.32 303.18 244.32H305.59C306.09 244.32 306.5 244.69 306.5 245.14V254.68C306.5 255.13 306.09 255.5 305.59 255.5Z" fill="#DFE1E8" />
								<path d="M302.33 244.82L303.48 243.05H305.1L306.41 244.8L302.33 244.82Z" fill="#DFE1E8" />
							</g>
							<path d="M305.1 242.33H303.5V243.05H305.1V242.33Z" fill="#DFE1E8" />
						</g>
					</g>
				</g>
				<g>
					<g>
						<g>
							<path d="M101.64 236.4H99.2303C98.7303 236.4 98.3203 236.03 98.3203 235.58V226.04C98.3203 225.59 98.7303 225.22 99.2303 225.22H101.64C102.14 225.22 102.55 225.59 102.55 226.04V235.58C102.55 236.03 102.14 236.4 101.64 236.4Z" fill="#DFE1E8" />
							<path d="M98.3901 225.72L99.5401 223.94H101.16L102.47 225.7L98.3901 225.72Z" fill="#DFE1E8" />
						</g>
						<path d="M101.161 223.22H99.5605V223.94H101.161V223.22Z" fill="#DFE1E8" />
					</g>
					<g>
						<g>
							<path d="M109.81 236.4H107.4C106.9 236.4 106.49 236.03 106.49 235.58V226.04C106.49 225.59 106.9 225.22 107.4 225.22H109.81C110.31 225.22 110.72 225.59 110.72 226.04V235.58C110.72 236.03 110.31 236.4 109.81 236.4Z" fill="#DFE1E8" />
							<path d="M106.55 225.72L107.7 223.94H109.32L110.63 225.7L106.55 225.72Z" fill="#DFE1E8" />
						</g>
						<path d="M109.32 223.22H107.72V223.94H109.32V223.22Z" fill="#DFE1E8" />
					</g>
					<g>
						<g>
							<path d="M117.97 236.4H115.56C115.06 236.4 114.65 236.03 114.65 235.58V226.04C114.65 225.59 115.06 225.22 115.56 225.22H117.97C118.47 225.22 118.88 225.59 118.88 226.04V235.58C118.88 236.03 118.47 236.4 117.97 236.4Z" fill="#DFE1E8" />
							<path d="M114.72 225.72L115.87 223.94H117.49L118.8 225.7L114.72 225.72Z" fill="#DFE1E8" />
						</g>
						<path d="M117.491 223.22H115.891V223.94H117.491V223.22Z" fill="#DFE1E8" />
					</g>
					<g>
						<g>
							<path d="M126.131 236.4H123.721C123.221 236.4 122.811 236.03 122.811 235.58V226.04C122.811 225.59 123.221 225.22 123.721 225.22H126.131C126.631 225.22 127.041 225.59 127.041 226.04V235.58C127.041 236.03 126.631 236.4 126.131 236.4Z" fill="#DFE1E8" />
							<path d="M122.88 225.72L124.03 223.94H125.65L126.96 225.7L122.88 225.72Z" fill="#DFE1E8" />
						</g>
						<path d="M125.651 223.22H124.051V223.94H125.651V223.22Z" fill="#DFE1E8" />
					</g>
					<g>
						<g>
							<path d="M134.3 236.4H131.89C131.39 236.4 130.98 236.03 130.98 235.58V226.04C130.98 225.59 131.39 225.22 131.89 225.22H134.3C134.8 225.22 135.21 225.59 135.21 226.04V235.58C135.21 236.03 134.8 236.4 134.3 236.4Z" fill="#DFE1E8" />
							<path d="M131.05 225.72L132.19 223.94H133.81L135.13 225.7L131.05 225.72Z" fill="#DFE1E8" />
						</g>
						<path d="M133.81 223.22H132.21V223.94H133.81V223.22Z" fill="#DFE1E8" />
					</g>
					<g>
						<g>
							<path d="M142.46 236.4H140.05C139.55 236.4 139.14 236.03 139.14 235.58V226.04C139.14 225.59 139.55 225.22 140.05 225.22H142.46C142.96 225.22 143.37 225.59 143.37 226.04V235.58C143.37 236.03 142.96 236.4 142.46 236.4Z" fill="#DFE1E8" />
							<path d="M139.21 225.72L140.36 223.94H141.98L143.29 225.7L139.21 225.72Z" fill="#DFE1E8" />
						</g>
						<path d="M141.98 223.22H140.38V223.94H141.98V223.22Z" fill="#DFE1E8" />
					</g>
					<g>
						<g>
							<path d="M150.62 236.4H148.21C147.71 236.4 147.3 236.03 147.3 235.58V226.04C147.3 225.59 147.71 225.22 148.21 225.22H150.62C151.12 225.22 151.53 225.59 151.53 226.04V235.58C151.53 236.03 151.12 236.4 150.62 236.4Z" fill="#DFE1E8" />
							<path d="M147.37 225.72L148.52 223.94H150.14L151.45 225.7L147.37 225.72Z" fill="#DFE1E8" />
						</g>
						<path d="M150.14 223.22H148.54V223.94H150.14V223.22Z" fill="#DFE1E8" />
					</g>
					<g>
						<g>
							<path d="M158.79 236.4H156.38C155.88 236.4 155.47 236.03 155.47 235.58V226.04C155.47 225.59 155.88 225.22 156.38 225.22H158.79C159.29 225.22 159.7 225.59 159.7 226.04V235.58C159.7 236.03 159.29 236.4 158.79 236.4Z" fill="#DFE1E8" />
							<path d="M155.54 225.72L156.69 223.94H158.3L159.62 225.7L155.54 225.72Z" fill="#DFE1E8" />
						</g>
						<path d="M158.31 223.22H156.71V223.94H158.31V223.22Z" fill="#DFE1E8" />
					</g>
					<g>
						<g>
							<path d="M166.95 236.4H164.54C164.04 236.4 163.63 236.03 163.63 235.58V226.04C163.63 225.59 164.04 225.22 164.54 225.22H166.95C167.45 225.22 167.86 225.59 167.86 226.04V235.58C167.86 236.03 167.45 236.4 166.95 236.4Z" fill="#DFE1E8" />
							<path d="M163.7 225.72L164.85 223.94H166.47L167.78 225.7L163.7 225.72Z" fill="#DFE1E8" />
						</g>
						<path d="M166.47 223.22H164.87V223.94H166.47V223.22Z" fill="#DFE1E8" />
					</g>
					<g>
						<g>
							<path d="M175.111 236.4H172.701C172.201 236.4 171.791 236.03 171.791 235.58V226.04C171.791 225.59 172.201 225.22 172.701 225.22H175.111C175.611 225.22 176.021 225.59 176.021 226.04V235.58C176.021 236.03 175.611 236.4 175.111 236.4Z" fill="#DFE1E8" />
							<path d="M171.86 225.72L173.01 223.94H174.63L175.94 225.7L171.86 225.72Z" fill="#DFE1E8" />
						</g>
						<path d="M174.631 223.22H173.031V223.94H174.631V223.22Z" fill="#DFE1E8" />
					</g>
					<g>
						<g>
							<path d="M183.28 236.4H180.87C180.37 236.4 179.96 236.03 179.96 235.58V226.04C179.96 225.59 180.37 225.22 180.87 225.22H183.28C183.78 225.22 184.19 225.59 184.19 226.04V235.58C184.19 236.03 183.78 236.4 183.28 236.4Z" fill="#DFE1E8" />
							<path d="M180.03 225.72L181.18 223.94H182.79L184.11 225.7L180.03 225.72Z" fill="#DFE1E8" />
						</g>
						<path d="M182.8 223.22H181.2V223.94H182.8V223.22Z" fill="#DFE1E8" />
					</g>
					<g>
						<g>
							<path d="M191.44 236.4H189.03C188.53 236.4 188.12 236.03 188.12 235.58V226.04C188.12 225.59 188.53 225.22 189.03 225.22H191.44C191.94 225.22 192.35 225.59 192.35 226.04V235.58C192.35 236.03 191.94 236.4 191.44 236.4Z" fill="#DFE1E8" />
							<path d="M188.19 225.72L189.34 223.94H190.96L192.27 225.7L188.19 225.72Z" fill="#DFE1E8" />
						</g>
						<path d="M190.96 223.22H189.36V223.94H190.96V223.22Z" fill="#DFE1E8" />
					</g>
					<g>
						<g>
							<path d="M199.6 236.4H197.19C196.69 236.4 196.28 236.03 196.28 235.58V226.04C196.28 225.59 196.69 225.22 197.19 225.22H199.6C200.1 225.22 200.51 225.59 200.51 226.04V235.58C200.51 236.03 200.1 236.4 199.6 236.4Z" fill="#DFE1E8" />
							<path d="M196.35 225.72L197.5 223.94H199.12L200.43 225.7L196.35 225.72Z" fill="#DFE1E8" />
						</g>
						<path d="M199.12 223.22H197.521V223.94H199.12V223.22Z" fill="#DFE1E8" />
					</g>
					<g>
						<g>
							<path d="M207.77 236.4H205.36C204.86 236.4 204.45 236.03 204.45 235.58V226.04C204.45 225.59 204.86 225.22 205.36 225.22H207.77C208.27 225.22 208.68 225.59 208.68 226.04V235.58C208.68 236.03 208.27 236.4 207.77 236.4Z" fill="#DFE1E8" />
							<path d="M204.52 225.72L205.67 223.94H207.29L208.6 225.7L204.52 225.72Z" fill="#DFE1E8" />
						</g>
						<path d="M207.29 223.22H205.69V223.94H207.29V223.22Z" fill="#DFE1E8" />
					</g>
					<g>
						<g>
							<path d="M215.93 236.4H213.52C213.02 236.4 212.61 236.03 212.61 235.58V226.04C212.61 225.59 213.02 225.22 213.52 225.22H215.93C216.43 225.22 216.84 225.59 216.84 226.04V235.58C216.84 236.03 216.43 236.4 215.93 236.4Z" fill="#DFE1E8" />
							<path d="M212.68 225.72L213.83 223.94H215.45L216.76 225.7L212.68 225.72Z" fill="#DFE1E8" />
						</g>
						<path d="M215.451 223.22H213.851V223.94H215.451V223.22Z" fill="#DFE1E8" />
					</g>
					<g>
						<g>
							<path d="M224.09 236.4H221.68C221.18 236.4 220.771 236.03 220.771 235.58V226.04C220.771 225.59 221.18 225.22 221.68 225.22H224.09C224.59 225.22 225.001 225.59 225.001 226.04V235.58C225.001 236.03 224.59 236.4 224.09 236.4Z" fill="#DFE1E8" />
							<path d="M220.84 225.72L221.99 223.94H223.61L224.92 225.7L220.84 225.72Z" fill="#DFE1E8" />
						</g>
						<path d="M223.611 223.22H222.011V223.94H223.611V223.22Z" fill="#DFE1E8" />
					</g>
					<g>
						<g>
							<path d="M232.26 236.4H229.85C229.35 236.4 228.94 236.03 228.94 235.58V226.04C228.94 225.59 229.35 225.22 229.85 225.22H232.26C232.76 225.22 233.17 225.59 233.17 226.04V235.58C233.17 236.03 232.76 236.4 232.26 236.4Z" fill="#DFE1E8" />
							<path d="M229.01 225.72L230.16 223.94H231.78L233.09 225.7L229.01 225.72Z" fill="#DFE1E8" />
						</g>
						<path d="M231.781 223.22H230.181V223.94H231.781V223.22Z" fill="#DFE1E8" />
					</g>
					<g>
						<g>
							<path d="M240.42 236.4H238.01C237.51 236.4 237.1 236.03 237.1 235.58V226.04C237.1 225.59 237.51 225.22 238.01 225.22H240.42C240.92 225.22 241.33 225.59 241.33 226.04V235.58C241.33 236.03 240.92 236.4 240.42 236.4Z" fill="#DFE1E8" />
							<path d="M237.17 225.72L238.32 223.94H239.94L241.25 225.7L237.17 225.72Z" fill="#DFE1E8" />
						</g>
						<path d="M239.94 223.22H238.34V223.94H239.94V223.22Z" fill="#DFE1E8" />
					</g>
					<g>
						<g>
							<path d="M248.59 236.4H246.18C245.68 236.4 245.271 236.03 245.271 235.58V226.04C245.271 225.59 245.68 225.22 246.18 225.22H248.59C249.09 225.22 249.501 225.59 249.501 226.04V235.58C249.501 236.03 249.09 236.4 248.59 236.4Z" fill="#DFE1E8" />
							<path d="M245.331 225.72L246.481 223.94H248.101L249.411 225.7L245.331 225.72Z" fill="#DFE1E8" />
						</g>
						<path d="M248.1 223.22H246.5V223.94H248.1V223.22Z" fill="#DFE1E8" />
					</g>
					<g>
						<g>
							<path d="M256.75 236.4H254.34C253.84 236.4 253.43 236.03 253.43 235.58V226.04C253.43 225.59 253.84 225.22 254.34 225.22H256.75C257.25 225.22 257.66 225.59 257.66 226.04V235.58C257.66 236.03 257.25 236.4 256.75 236.4Z" fill="#DFE1E8" />
							<path d="M253.5 225.72L254.65 223.94H256.27L257.58 225.7L253.5 225.72Z" fill="#DFE1E8" />
						</g>
						<path d="M256.27 223.22H254.67V223.94H256.27V223.22Z" fill="#DFE1E8" />
					</g>
					<g>
						<g>
							<path d="M264.91 236.4H262.5C262 236.4 261.59 236.03 261.59 235.58V226.04C261.59 225.59 262 225.22 262.5 225.22H264.91C265.41 225.22 265.82 225.59 265.82 226.04V235.58C265.82 236.03 265.41 236.4 264.91 236.4Z" fill="#DFE1E8" />
							<path d="M261.66 225.72L262.81 223.94H264.43L265.74 225.7L261.66 225.72Z" fill="#DFE1E8" />
						</g>
						<path d="M264.431 223.22H262.831V223.94H264.431V223.22Z" fill="#DFE1E8" />
					</g>
					<g>
						<g>
							<path d="M273.08 236.4H270.67C270.17 236.4 269.76 236.03 269.76 235.58V226.04C269.76 225.59 270.17 225.22 270.67 225.22H273.08C273.58 225.22 273.99 225.59 273.99 226.04V235.58C273.99 236.03 273.58 236.4 273.08 236.4Z" fill="#DFE1E8" />
							<path d="M269.83 225.72L270.97 223.94H272.59L273.91 225.7L269.83 225.72Z" fill="#DFE1E8" />
						</g>
						<path d="M272.59 223.22H270.99V223.94H272.59V223.22Z" fill="#DFE1E8" />
					</g>
					<g>
						<g>
							<path d="M281.24 236.4H278.83C278.33 236.4 277.92 236.03 277.92 235.58V226.04C277.92 225.59 278.33 225.22 278.83 225.22H281.24C281.74 225.22 282.15 225.59 282.15 226.04V235.58C282.15 236.03 281.74 236.4 281.24 236.4Z" fill="#DFE1E8" />
							<path d="M277.99 225.72L279.14 223.94H280.76L282.07 225.7L277.99 225.72Z" fill="#DFE1E8" />
						</g>
						<path d="M280.76 223.22H279.16V223.94H280.76V223.22Z" fill="#DFE1E8" />
					</g>
					<g>
						<g>
							<path d="M289.4 236.4H286.99C286.49 236.4 286.08 236.03 286.08 235.58V226.04C286.08 225.59 286.49 225.22 286.99 225.22H289.4C289.9 225.22 290.31 225.59 290.31 226.04V235.58C290.31 236.03 289.9 236.4 289.4 236.4Z" fill="#DFE1E8" />
							<path d="M286.15 225.72L287.3 223.94H288.92L290.23 225.7L286.15 225.72Z" fill="#DFE1E8" />
						</g>
						<path d="M288.92 223.22H287.32V223.94H288.92V223.22Z" fill="#DFE1E8" />
					</g>
					<g>
						<g>
							<path d="M297.57 236.4H295.16C294.66 236.4 294.25 236.03 294.25 235.58V226.04C294.25 225.59 294.66 225.22 295.16 225.22H297.57C298.07 225.22 298.48 225.59 298.48 226.04V235.58C298.48 236.03 298.07 236.4 297.57 236.4Z" fill="#DFE1E8" />
							<path d="M294.32 225.72L295.47 223.94H297.08L298.4 225.7L294.32 225.72Z" fill="#DFE1E8" />
						</g>
						<path d="M297.09 223.22H295.49V223.94H297.09V223.22Z" fill="#DFE1E8" />
					</g>
					<g>
						<g>
							<path d="M305.73 236.4H303.32C302.82 236.4 302.41 236.03 302.41 235.58V226.04C302.41 225.59 302.82 225.22 303.32 225.22H305.73C306.23 225.22 306.64 225.59 306.64 226.04V235.58C306.64 236.03 306.23 236.4 305.73 236.4Z" fill="#DFE1E8" />
							<path d="M302.48 225.72L303.63 223.94H305.25L306.56 225.7L302.48 225.72Z" fill="#DFE1E8" />
						</g>
						<path d="M305.25 223.22H303.65V223.94H305.25V223.22Z" fill="#DFE1E8" />
					</g>
					<g>
						<g>
							<path d="M313.89 236.4H311.48C310.98 236.4 310.57 236.03 310.57 235.58V226.04C310.57 225.59 310.98 225.22 311.48 225.22H313.89C314.39 225.22 314.8 225.59 314.8 226.04V235.58C314.8 236.03 314.39 236.4 313.89 236.4Z" fill="#DFE1E8" />
							<path d="M310.64 225.72L311.79 223.94H313.41L314.72 225.7L310.64 225.72Z" fill="#DFE1E8" />
						</g>
						<path d="M313.411 223.22H311.811V223.94H313.411V223.22Z" fill="#DFE1E8" />
					</g>
				</g>
			</g>
			<g opacity="0.64">
				<path d="M355.35 309.25H20V311.59H355.35V309.25Z" fill="#DFE1E8" />
			</g>
		</g>
		<g class="svgIcon svgIcon3">
			<g>
				<g>
					<path d="M278 189.48H193.99C192.101 189.48 190.57 191.011 190.57 192.9V250.39C190.57 252.279 192.101 253.81 193.99 253.81H278C279.889 253.81 281.42 252.279 281.42 250.39V192.9C281.42 191.011 279.889 189.48 278 189.48Z" fill="#E9EBF2" />
					<path d="M262.75 220.45H235.99V225.42H262.75V220.45Z" fill="#B9C0D5" />
					<path d="M278 189.48H193.99C192.101 189.48 190.57 191.011 190.57 192.9V250.39C190.57 252.279 192.101 253.81 193.99 253.81H278C279.889 253.81 281.42 252.279 281.42 250.39V192.9C281.42 191.011 279.889 189.48 278 189.48Z" stroke="#B9C0D5" stroke-width="2.18" stroke-miterlimit="10" />
				</g>
				<g>
					<path d="M241.86 209.64H235.7V216H241.86V209.64Z" fill="#A7D07D" />
					<path d="M252.3 196.44H246.14V216.01H252.3V196.44Z" fill="#E16056" />
					<path d="M262.74 203.28H256.58V216H262.74V203.28Z" fill="#7F5DA4" />
				</g>
				<g>
					<path d="M215.32 223.54C222.77 223.54 228.81 217.5 228.81 210.05C228.81 202.6 222.77 196.56 215.32 196.56C207.87 196.56 201.83 202.6 201.83 210.05C201.83 217.5 207.87 223.54 215.32 223.54Z" fill="#E16056" />
					<path d="M222.64 198.72L220.37 199.99L215.31 210.05L224.61 219.82C227.19 217.36 228.8 213.9 228.8 210.05C228.8 205.3 226.34 201.13 222.63 198.72H222.64Z" fill="#7F5DA4" />
					<path d="M224.31 200C221.92 197.86 218.77 196.56 215.32 196.56V210.05L224.31 199.99V200Z" fill="#A7D07D" />
				</g>
				<g>
					<path d="M190.63 315.45V318.59C190.63 319.28 191.19 319.84 191.88 319.84H200.77C201.33 319.84 201.6 319.17 201.21 318.77C200.82 318.37 199.05 317.46 197.77 316.93C195.05 315.83 193.76 315.73 193.76 315.73L190.63 315.45Z" fill="#1F1341" />
					<path d="M169.49 319.84H174.28C175.05 319.84 175.54 319.03 175.19 318.35C174.74 317.45 173.94 316.45 172.6 316.29C170.08 315.98 168.75 316.45 168.73 317.62C168.73 318.26 168.73 318.55 168.73 319.09C168.73 319.51 169.07 319.84 169.48 319.84H169.49Z" fill="#1F1341" />
					<path d="M177.13 274.33L190.3 316.28H196.1C196.1 316.28 187.85 258.57 182.68 252.36C177.5 246.15 173.02 253.63 173.02 253.63L176.15 269.39L177.13 274.33Z" fill="#E30313" />
					<path d="M180.12 283.86C180.12 283.86 181.75 265.33 177.51 265.8C173.27 266.27 175.85 271.9 175.85 271.9L180.11 283.86H180.12Z" fill="#AD1917" />
					<path d="M170.16 249.49C170.16 249.49 164.24 254.4 164.95 277.75C164.99 278.99 165.75 286.51 165.81 287.7C166.75 308.85 168.75 316.71 168.75 316.71H174.14C174.14 316.71 176.02 266.99 180.96 260.22" fill="#E30313" />
					<path d="M168.67 251.58C166.97 254.74 164.47 262.1 164.94 277.75C164.98 278.99 165.74 286.51 165.8 287.7C166.09 294.2 166.48 299.43 166.88 303.58C166.91 299.09 167 284.37 166.88 276.72C166.73 267.62 170.31 252.4 170.31 252.4L168.68 251.58H168.67Z" fill="#990D0D" />
					<path d="M223.16 227.43C224.21 226.76 224.95 225.59 225.15 225.1C225.35 224.61 225.68 223.14 225.19 222.94C224.81 222.79 224.43 223.11 224.36 223.67C224.31 224.1 224.01 225.17 222.23 226.42" fill="#E29882" />
					<g>
						<g>
							<path d="M224.64 226.3C224.64 226.3 226.99 223.62 227.03 223.39C227.08 223.08 226.35 222.74 225.69 223.42C225.03 224.1 223.22 225.64 223.22 225.64" fill="#E29882" />
							<path d="M219.42 226.6C219.42 226.6 219.54 226.45 220.86 225.87C222.1 225.33 223.09 224.71 223.55 224.11C223.79 223.8 223.66 223.64 223.5 223.54C223.01 223.23 221.29 224.14 220.35 224.47C219.25 224.85 218.42 225.23 217.77 225.46C217.12 225.69 216.63 225.96 216.63 225.96V228.5C216.63 228.5 221.87 228.24 222.3 228.07C222.95 227.82 224.73 226.77 226.12 225.64C227 224.93 227.87 224.3 227.87 224.06C227.87 223.8 227.61 223.63 227.22 223.67C226.76 223.72 226.01 224.09 225.67 224.29C225.02 224.67 223.05 225.72 222.66 225.72C222.27 225.72 221.14 225.06 221.14 225.06" fill="#F7B29A" />
						</g>
						<path d="M213.7 229.09C213.7 229.09 215.17 226.54 216.4 226.01C217.07 225.72 218.5 225.17 218.5 225.17L219.42 228.27L217.49 228.71C216.92 228.84 216.4 229.13 216 229.55L215.5 230.07" fill="#F7B29A" />
					</g>
					<g>
						<path d="M188.54 235.28C188.54 235.28 197.49 243.68 202.43 243.68C206.42 243.68 218.57 228.76 218.57 228.76L215.48 226L203.45 233.32C202.87 233.77 202.05 233.69 201.56 233.14C200 231.38 194 225.16 191.14 223.86" fill="#A7D07D" />
						<path d="M202.54 241.05C199.54 241.05 194.49 237.76 192.03 236.03C191.34 235.54 190.38 235.91 190.17 236.73C192.98 239.13 198.79 243.69 202.43 243.69C206.42 243.69 218.57 228.77 218.57 228.77L217.77 228.06C217.77 228.06 206.6 241.06 202.53 241.06L202.54 241.05Z" fill="#61A61C" />
					</g>
					<path d="M191.15 223.85C191.15 223.85 174.06 217.93 166.6 221.14C159.14 224.35 165.83 253.31 165.83 253.31C165.83 253.31 176.32 254.02 184.75 253.14C184.75 253.14 186.47 247.23 187.05 237.95C187.42 231.99 192.36 226.77 191.15 223.85V223.85Z" fill="#A7D07D" />
					<path d="M167.48 231.96C167.48 231.96 167.28 229.35 163.98 233.49C162.98 234.75 162.76 237.06 162.93 239.68C164.06 246.87 165.83 253.31 165.83 253.31C165.83 253.31 176.32 254.02 184.75 253.14C174.5 252.23 167.48 231.96 167.48 231.96Z" fill="#61A61C" />
					<g>
						<path d="M173.81 214.74L175.41 220.59C175.41 220.59 177.65 222.64 180.57 221.03L179.93 216.38" fill="#F7B29A" />
						<path d="M176.28 217.02C176.28 217.02 176.56 218.82 180.27 218.82L179.8 213.86L176.28 217.02Z" fill="#D48068" />
						<path d="M179.89 206.37C179.89 206.37 181.59 210.22 178.86 209.82C176.13 209.42 176.48 206.37 176.48 206.37" fill="#F07F35" />
						<path d="M178.31 206.89C178.31 206.89 180.12 208.62 180.88 212.08C181.65 215.54 181.44 218.03 178.82 218.05C176.64 218.07 175.98 217.93 174.19 216.2C172.4 214.47 171.07 207.9 174.53 206.59C177.99 205.28 178.31 206.89 178.31 206.89Z" fill="#F7B29A" />
						<path d="M176.29 203.93C176.29 203.93 177.37 202.05 180.06 202.05C183.17 202.05 183.08 207.6 178.92 207.6C178.92 207.6 175.7 207.73 174.55 209.64C174.15 210.31 175.08 211.63 174.99 212.65C174.95 213.07 174.51 213.55 174.41 213.93C174.08 215.27 174.2 216.19 174.2 216.19L172.49 215.11C171.32 214.38 170.35 213.37 169.71 212.14C169.71 212.12 169.69 212.11 169.68 212.09C168.8 210.38 170.98 209.54 170.98 209.54C170.98 209.54 168.94 208.28 169.85 206.06C170.76 203.84 172.46 203.05 174.35 203.17C175.5 203.25 176.29 203.92 176.29 203.92V203.93Z" fill="#F07F35" />
						<path d="M174.65 213.37C174.65 213.37 173.08 212.08 172.56 212.97C172.04 213.86 173.02 215.4 174.99 215" fill="#F7B29A" />
						<path d="M178.12 215.07L180.28 214.44C180.28 214.44 180.5 215.51 179.71 215.79C178.92 216.07 178.13 215.08 178.13 215.08L178.12 215.07Z" fill="white" />
					</g>
					<path d="M179.07 244.09C179.84 243.91 180.84 243.61 181.59 243.2C182.27 242.83 182.27 241.95 181.47 242.05C180.67 242.15 178.59 242.66 177.51 243.05" fill="#F7B29A" />
					<path d="M191.47 249.9H181.1C179.95 249.9 179.18 248.97 179.38 247.82L182.14 231.97C182.34 230.82 183.44 229.89 184.59 229.89H194.96C196.11 229.89 196.88 230.82 196.68 231.97L193.92 247.82C193.72 248.97 192.62 249.9 191.47 249.9Z" fill="#888FA6" />
					<g>
						<path d="M174.47 243.53C175.7 243.49 178.18 242.86 179.03 242.82C179.88 242.78 180.3 244.15 180.89 245.49C181.4 246.65 180.86 247.59 179.54 247.76C178.63 247.88 174.61 247.96 173.2 248" fill="#F7B29A" />
						<path d="M178.82 247.83C180.07 247.87 181.33 247.32 181.78 247.03C182.23 246.74 183.32 245.71 183.03 245.27C182.8 244.93 182.3 244.98 181.93 245.4C181.64 245.73 181.2 246.03 180.69 246.06" fill="#F7B29A" />
						<path d="M180.21 246.639C181.21 246.509 182.47 246.329 182.92 246.059C183.37 245.789 184.04 244.709 183.68 244.319C183.38 243.989 183.05 244.309 182.77 244.639C182.49 244.969 182.28 245.169 181.78 245.189C181.28 245.209 180.95 245.199 180.12 245.149" fill="#F7B29A" />
						<path d="M180.49 245.47C181.5 245.47 183.08 245.28 183.56 245.06C184.04 244.84 185.05 244.32 184.75 243.88C184.55 243.59 184.07 243.68 183.64 243.73C182.67 243.85 180.79 243.85 179.74 243.73" fill="#F7B29A" />
					</g>
					<path d="M168.94 228.93C165.31 236.46 163.82 240.68 163.82 240.68C163.82 240.68 169.05 242.32 174.92 243.34V248.16C170.67 248.58 160.99 249.98 154.43 247.34C152.92 246.73 151.58 245.3 155.22 237.44C158.86 229.58 165.23 222.22 165.23 222.22" fill="#A7D07D" />
					<path d="M167.95 247.45C164.85 247.53 154.85 247.12 154.19 244.68C153.53 242.23 151.31 246.7 152.82 247.31C159.39 249.96 170.66 248.68 174.91 248.27V246.58C174.1 246.74 170.66 247.38 167.95 247.45Z" fill="#61A61C" />
					<path d="M179.35 267.34L185.43 286.71C186.79 291.05 187.76 295.5 188.31 300.01L190.3 316.29L178.82 280.23" fill="#AD1917" />
				</g>
				<g>
					<path d="M271.74 228.92C271.74 228.92 270.62 228.53 270.13 228.33C269.71 228.15 269.58 228.8 270.05 229.36C270.52 229.92 274.52 232.44 274.9 232.64C275.28 232.84 276.34 233 276.34 233L277.03 232.97L278.7 230.48C278.7 230.48 276.06 228.21 274.95 226.79C273.84 225.37 273.11 224.72 272.73 224.58C272.35 224.44 271.98 224.61 271.98 224.61C271.98 224.61 271.49 224.01 271.3 223.8C271.05 223.53 270.79 223.48 270.59 223.51C270.39 223.54 270.34 223.57 270.34 223.57C270.34 223.57 269.94 223.19 269.4 223.36C268.63 223.6 271.83 228.75 271.83 228.75" fill="#F7B29A" />
					<path d="M271.711 228.34L271.601 228.96L272.251 229.26L271.891 228.33" fill="#F7B29A" />
				</g>
				<g>
					<path d="M302.4 234.86L292.64 240.15L277.87 229.07L274.54 232.51C274.54 232.51 282.71 244.28 290.39 248.8C291.52 249.47 292.65 250.12 293.95 249.89C298.67 249.06 301.21 243.63 305.78 234.58" fill="#FEDA8C" />
					<path d="M290.39 248.8C291.52 249.47 292.65 250.12 293.95 249.89C297.54 249.26 290.9 246.71 296.31 241.88C294.56 242.41 300 240.93 298.63 241.85C296.1 243.55 297.35 243.97 294.7 243.74C292.06 243.52 290.6 243.84 285.38 240.98C279.29 237.64 275.95 231.05 275.95 231.05L274.54 232.5C274.54 232.5 282.71 244.27 290.39 248.79V248.8Z" fill="#DEA62C" />
				</g>
				<g>
					<path d="M295.66 215.42C295.66 215.42 298.04 219.41 294.86 222.52C291.68 225.63 289.49 222.89 288.68 221.04C287.87 219.19 288.68 215.41 288.68 215.41" fill="#1F1341" />
					<path d="M290.88 223.26C290.88 223.26 285.88 230.23 285.03 233.39C284.35 235.92 288.25 243.37 287.64 249.89C287.19 254.62 287.59 284.88 287.59 284.88C287.59 284.88 296.73 282.51 302.23 276.65C302.23 276.65 306.73 268.82 306.06 260.8C305.39 252.78 300.49 249.89 301.61 242.54C302.73 235.19 308.96 226.85 304.95 222.45C300.94 218.05 293.4 218.76 290.88 223.26V223.26Z" fill="#FEDA8C" />
					<g>
						<path d="M287.6 278.66L289.29 317.28L292.81 317.37C292.81 317.37 295.7 303.66 296.13 300.29C296.56 296.92 296.37 291.67 296.06 289.58C295.75 287.49 296.06 278.19 296.06 278.19" fill="#F7B29A" />
						<path d="M290.75 284.5C290.75 284.5 294.16 289.74 294.03 298.98C293.92 306.3 293.43 314.38 293.43 314.38C294.3 310.15 295.83 302.66 296.13 300.29C296.56 296.93 296.37 291.67 296.06 289.58C295.88 288.38 295.91 284.83 295.96 282L290.76 284.49L290.75 284.5Z" fill="#D48068" />
						<g>
							<path d="M292.85 317.29V318.84C292.85 319.45 292.35 319.95 291.74 319.95H282.01C281.5 319.95 281.27 319.31 281.67 318.99C282.02 318.71 282.5 318.41 283.14 318.11C285.03 317.23 289.51 315.52 289.51 315.52L292.84 317.29H292.85Z" fill="#1F1341" />
							<path d="M284.68 317.45C285.23 317.82 285.98 318.23 286.67 318.25C287.96 318.29 292.85 317.29 292.85 317.29L289.52 315.52C289.52 315.52 286.78 316.57 284.68 317.45V317.45Z" fill="#F7B29A" />
						</g>
					</g>
					<g>
						<path d="M291.63 281.28L309.95 315.32L313.16 313.87C313.16 313.87 309.8 300.26 308.72 297.05C307.64 293.84 305.19 289.18 304 287.44C302.81 285.7 299.05 277.19 299.05 277.19" fill="#F7B29A" />
						<path d="M295.92 285.44L303.4 286.4L302.4 284.43L295.92 285.44Z" fill="#D48068" />
						<g>
							<path d="M313.17 313.77L313.84 315.17C314.11 315.72 313.88 316.39 313.32 316.66L304.56 320.89C304.1 321.11 303.62 320.63 303.84 320.17C304.04 319.77 304.33 319.28 304.78 318.73C306.1 317.11 309.39 313.62 309.39 313.62L313.16 313.77H313.17Z" fill="#1F1341" />
							<path d="M305.88 317.47C306.54 317.57 307.39 317.6 308.02 317.32C309.2 316.8 313.17 313.77 313.17 313.77L309.4 313.62C309.4 313.62 307.39 315.76 305.88 317.46V317.47Z" fill="#F7B29A" />
						</g>
					</g>
					<path d="M300.651 243.96C299.151 244.76 301.711 247.07 297.711 247.36C292.111 247.76 287.711 248.75 287.711 248.75L287.221 252.45C286.571 260.92 287.601 284.88 287.601 284.88C287.601 284.88 298.071 286.04 303.481 285.04C303.481 285.04 307.471 267.73 306.801 259.71C306.501 256.15 301.721 246.34 300.661 243.96H300.651Z" fill="#A2AFF9" />
					<path d="M306.79 259.7C306.49 256.14 301.71 246.33 300.65 243.95C299.15 244.75 301.71 247.06 297.71 247.35C292.11 247.75 287.71 248.74 287.71 248.74L287.5 250.31V251.12C287.5 251.12 294.87 250.91 300.11 254.84C305.33 258.75 306.27 269.36 306.28 269.45C306.74 265.83 307.01 262.29 306.79 259.71V259.7Z" fill="#656DD6" />
					<path d="M287 243.4L287.95 243.64L290.38 246.09L296.92 243.85L299.77 230.02C299.77 230.02 296.92 234.39 291.82 235.92C286.72 237.45 285.03 233.39 285.03 233.39C284.61 234.95 286.19 239.3 287 243.4V243.4Z" fill="#DEA62C" />
					<g>
						<g>
							<path d="M269.83 241.38C269.12 241.06 268.21 240.57 267.57 240.03C266.98 239.54 267.16 238.7 267.91 238.95C268.66 239.2 270.57 240.1 271.53 240.68" fill="#F7B29A" />
							<path d="M258.97 246.75L267.79 247.34C268.77 247.41 269.48 246.66 269.37 245.67L266.89 232.32C266.79 231.33 265.91 230.48 264.93 230.41L256.11 229.82C255.13 229.75 254.42 230.5 254.53 231.49L257.01 244.84C257.11 245.83 257.99 246.68 258.97 246.75Z" fill="#888FA6" />
							<g>
								<path d="M274.38 241.73C273.2 241.45 270.93 240.36 270.12 240.16C269.31 239.96 268.64 241.2 267.81 242.37C267.09 243.39 267.43 244.4 268.67 244.82C269.53 245.11 273.39 245.97 274.74 246.28" fill="#F7B29A" />
								<path d="M269.341 245.04C268.131 244.83 267.021 244.05 266.641 243.69C266.261 243.33 265.411 242.12 265.781 241.75C266.061 241.47 266.541 241.61 266.811 242.09C267.021 242.46 267.391 242.84 267.871 242.97" fill="#F7B29A" />
								<path d="M268.23 243.62C267.29 243.3 266.11 242.88 265.73 242.53C265.35 242.18 264.91 241.01 265.34 240.7C265.7 240.44 265.95 240.81 266.16 241.18C266.37 241.55 266.53 241.78 267.01 241.9C267.49 242.02 267.81 242.07 268.62 242.18" fill="#F7B29A" />
								<path d="M268.201 242.44C267.221 242.25 265.741 241.75 265.311 241.45C264.881 241.15 264.021 240.45 264.391 240.08C264.641 239.84 265.091 240.02 265.491 240.15C266.401 240.45 268.211 240.82 269.261 240.91" fill="#F7B29A" />
							</g>
						</g>
						<path d="M299.891 226.7L292.3 241.56H273.521V246.35C273.521 246.35 288.041 251.44 296.701 249.34C297.981 249.03 299.241 248.71 300.011 247.65C302.831 243.77 309.071 233.69 306.061 224.01" fill="#FEDA8C" />
						<path d="M296.69 249.33C297.97 249.02 299.23 248.7 300 247.64C302.14 244.69 306.27 238.15 306.79 230.92C305.9 232.52 304.85 234.62 304.5 236.24C303.86 239.22 299.76 245.23 297.71 246.9C295.65 248.58 293.6 248.51 287.71 248.29C280.77 248.03 273.51 244.32 273.51 244.32V246.34C273.51 246.34 288.03 251.43 296.69 249.33Z" fill="#D1B477" />
						<path d="M299.891 226.7L292.3 241.56H273.521V246.35C273.521 246.35 288.041 251.44 296.701 249.34C297.981 249.03 299.241 248.71 300.011 247.65C302.831 243.77 309.071 233.69 306.061 224.01" fill="#FEDA8C" />
						<path d="M296.69 249.33C297.97 249.02 299.23 248.7 300 247.64C302.14 244.69 306.27 238.15 306.79 230.92C305.9 232.52 304.85 234.62 304.5 236.24C303.86 239.22 299.76 245.23 297.71 246.9C295.65 248.58 293.6 248.51 287.71 248.29C280.77 248.03 273.51 244.32 273.51 244.32V246.34C273.51 246.34 288.03 251.43 296.69 249.33Z" fill="#DEA62C" />
					</g>
					<path d="M297.97 219.5L291.82 226.78L292.65 221.23C292.65 221.23 295.92 219.61 297.97 219.5V219.5Z" fill="#F7B29A" />
					<g>
						<g>
							<path d="M284.92 206.73C284.92 206.73 284.99 208.66 286.16 211.66C287.34 214.66 288.65 218.12 290.01 218.27C291.09 218.39 292.28 217.62 292.28 217.62L293.34 221.05L298.03 219.41L295.51 215.09L296.16 212.33L295.57 207.86L287.87 205.98" fill="#F7B29A" />
							<path d="M295.66 215.42L293.98 213.26C293.98 213.26 295.27 211.65 294.45 210.59C294.06 210.08 293.34 210.59 292.77 211.15C292.4 211.51 291.88 211.32 291.6 210.89C290.76 209.59 289.19 208.78 288.12 208.59C287.18 208.43 285.29 209.06 285.29 209.06C285.29 209.06 279.66 206.13 283.17 202.39C286.68 198.65 291.83 204.02 291.83 204.02C291.83 204.02 293.2 201.92 295.68 202.34C295.68 202.34 297.95 202.54 298.52 206.21C299.28 211.11 295.66 215.42 295.66 215.42V215.42Z" fill="#1F1341" />
						</g>
						<path d="M292.29 217.62L293.53 216.91L292.91 219.64L292.29 217.62Z" fill="#D48068" />
					</g>
					<path d="M293.98 213.27L293.73 214.75C292.99 219.15 295.94 223.36 300.35 224.06C300.89 224.15 301.46 224.19 302.06 224.19C307.87 224.19 307.14 217.81 305.12 216.09C303.1 214.37 300.42 212.08 300.42 207.9C300.42 203.17 295.91 202.39 295.91 202.39" fill="#1F1341" />
					<path d="M292.47 211.66C292.47 211.66 292.69 209.87 294.15 209.97C295.61 210.07 294.72 212.78 293.62 213.29" fill="#F7B29A" />
				</g>
				<g>
					<path d="M220.3 236.09H215.32V241.07H220.3V236.09Z" fill="#E16056" />
					<path d="M235.86 241.07V236.09H230.88V241.07H235.86Z" fill="#A7D07D" />
					<path d="M251.42 241.06V236.08H246.44V241.06H251.42Z" fill="#7F5DA4" />
				</g>
				<path d="M288.24 215.27L289.98 214.66C289.98 214.66 289.98 216.19 288.96 216.19C288.69 216.19 288.24 215.27 288.24 215.27Z" fill="white" />
			</g>
			<path d="M179.35 267.34L185.43 286.71C186.79 291.05 187.76 295.5 188.31 300.01L190.3 316.29L178.82 280.23" fill="#990D0D" />
		</g>
		<g class="svgIcon svgIcon2">
			<path d="M43.8401 295.03C40.7001 292.9 38.2501 289.85 36.4901 285.86C34.7301 281.88 33.8501 277.18 33.8501 271.79C33.8501 266.4 34.7301 261.7 36.4901 257.72C38.2501 253.74 40.7001 250.68 43.8401 248.55C46.9801 246.42 50.5601 245.36 54.5701 245.36C58.5801 245.36 62.1501 246.42 65.3001 248.55C68.4401 250.68 70.9101 253.74 72.6901 257.72C74.4701 261.71 75.3601 266.4 75.3601 271.79C75.3601 277.18 74.4701 281.88 72.6901 285.86C70.9101 289.85 68.4401 292.9 65.3001 295.03C62.1601 297.16 58.5801 298.22 54.5701 298.22C50.5601 298.22 46.9801 297.16 43.8401 295.03V295.03ZM62.5501 290.8C64.8501 289.12 66.6501 286.67 67.9301 283.45C69.2201 280.23 69.8601 276.35 69.8601 271.79C69.8601 267.23 69.2201 263.35 67.9301 260.13C66.6401 256.91 64.8501 254.46 62.5501 252.78C60.2501 251.1 57.5901 250.26 54.5701 250.26C51.5501 250.26 48.8901 251.1 46.5901 252.78C44.2901 254.46 42.4901 256.91 41.2101 260.13C39.9201 263.35 39.2801 267.23 39.2801 271.79C39.2801 276.35 39.9201 280.23 41.2101 283.45C42.5001 286.67 44.2901 289.12 46.5901 290.8C48.8901 292.48 51.5501 293.32 54.5701 293.32C57.5901 293.32 60.2501 292.48 62.5501 290.8Z" fill="#E30313" />
			<path d="M125.85 284.12H115.45V297.78H110.1V284.12H80.77V280.26L108.32 245.81H114.26L87.68 279.37H110.25V267.34H115.45V279.37H125.85V284.12V284.12Z" fill="#E30313" />
		</g>
	</g>
</svg>
