<svg width="375" height="667" viewBox="0 0 375 667" fill="none" xmlns="http://www.w3.org/2000/svg">
<style>
    .svgIcon {
      opacity: 0;
	  transform:translateY(0.63rem); 
	  transition: all ease 0.5s;
    }
	.svgIcon1{
		transition-delay: 0s;
	}
	.svgIcon2{
		transition-delay: 0.2s;
	}
	.svgIcon3{
		transition-delay: 0.4s;
	}
	.svgIcon4{
		transition-delay: 0.8s;
	}
	.svgIcon5{
		transition-delay: 1.2s;
	}
	.svgIcon6{
		transition-delay: 1.6s;
	}
	.svgIcon7{
		transition-delay: 2s;
	}
</style>
	<g id="iPhone 8 - 30">
		<g class="svgIcon svgIcon5">
			<g id="Group">
				<path id="Vector" d="M329.02 78H305.06C299.023 78 294.13 82.8935 294.13 88.93V112.89C294.13 118.926 299.023 123.82 305.06 123.82H329.02C335.056 123.82 339.95 118.926 339.95 112.89V88.93C339.95 82.8935 335.056 78 329.02 78Z" fill="#F3A2C5" />
				<g>
					<path d="M331.56 93.6198C331.72 92.0998 331.25 90.7998 330.41 89.6798C327.92 86.3498 323.14 85.7098 312.53 93.6298C301.93 101.54 301.17 106.31 303.66 109.64C306.15 112.97 310.93 113.61 321.54 105.69C326.23 102.19 329 99.2998 330.4 96.8898" stroke="white" stroke-linecap="round" stroke-linejoin="round" />
					<path d="M320.73 89.9297L327.91 95.3097C327.91 95.3097 323.69 97.4197 318.43 92.7497M306.66 101.53C311.93 106.21 316.14 104.09 316.14 104.09L308.77 98.5697M312.63 96.8497C317.9 101.53 322.11 99.4097 322.11 99.4097L314.35 93.5997" stroke="white" stroke-linecap="round" stroke-linejoin="round" />
				</g>
			</g>
			<path d="M329.32 122.46C333.241 122.46 336.42 119.281 336.42 115.36C336.42 111.439 333.241 108.26 329.32 108.26C325.399 108.26 322.22 111.439 322.22 115.36C322.22 119.281 325.399 122.46 329.32 122.46Z" fill="white" />
			<path d="M330.92 112.56C330.28 112.56 329.71 112.84 329.32 113.28C328.93 112.84 328.36 112.56 327.72 112.56C326.53 112.56 325.57 113.52 325.57 114.71C325.57 116.44 329.32 119.28 329.32 119.28C329.32 119.28 333.07 116.5 333.07 114.71C333.07 113.52 332.11 112.56 330.92 112.56Z" fill="#C28FBF" />
		</g>
		<g class="svgIcon svgIcon4">
			<path d="M59.02 158.03C65.3933 158.03 70.56 152.864 70.56 146.49C70.56 140.117 65.3933 134.95 59.02 134.95C52.6466 134.95 47.48 140.117 47.48 146.49C47.48 152.864 52.6466 158.03 59.02 158.03Z" fill="#DFE1E8" />
			<path d="M53.73 146.72L58.5 151.19L64.31 141.79" stroke="white" stroke-linecap="round" stroke-linejoin="round" />
		</g>
		<g class="svgIcon svgIcon1" opacity="0.64">
			<g>
				<path d="M337.95 294.87H95.9502V310.58H337.95V294.87Z" fill="#DFE1E8" />
				<path d="M337.95 195.57H95.9502V199.5H337.95V195.57Z" fill="#DFE1E8" />
				<g>
					<path d="M337.95 220.45H95.9502V224.38H337.95V220.45Z" fill="#DFE1E8" />
					<path d="M337.95 239.76H95.9502V243.69H337.95V239.76Z" fill="#DFE1E8" />
					<path d="M337.95 259.07H95.9502V263H337.95V259.07Z" fill="#DFE1E8" />
					<path d="M337.95 278.38H95.9502V282.31H337.95V278.38Z" fill="#DFE1E8" />
				</g>
				<path d="M100.05 197.28H95.9502V310.58H100.05V197.28Z" fill="#DFE1E8" />
				<path d="M354.87 309.82H20V312.24H354.87V309.82Z" fill="#DFE1E8" />
				<path d="M95.8398 209.1V218.53H46.0998V209.1H42.0698V309.88H95.9498V209.1H95.8398ZM95.8398 278.64H46.0998V263.94H95.8498V278.64H95.8398ZM95.8398 259.04H46.0998V244.34H95.8498V259.04H95.8398ZM95.8398 238.79H46.0998V224.09H95.8498V238.79H95.8398Z" fill="#DFE1E8" />
				<path d="M337.85 197.28H333.75V310.58H337.85V197.28Z" fill="#DFE1E8" />
			</g>
			<g>
				<g>
					<path d="M109.86 204.68H107.14C104.611 204.68 102.56 206.73 102.56 209.26V218.35C102.56 220.879 104.611 222.93 107.14 222.93H109.86C112.39 222.93 114.44 220.879 114.44 218.35V209.26C114.44 206.73 112.39 204.68 109.86 204.68Z" fill="#DFE1E8" />
					<path d="M124.13 204.68H121.41C118.881 204.68 116.83 206.73 116.83 209.26V218.35C116.83 220.879 118.881 222.93 121.41 222.93H124.13C126.66 222.93 128.71 220.879 128.71 218.35V209.26C128.71 206.73 126.66 204.68 124.13 204.68Z" fill="#DFE1E8" />
					<path d="M138.39 204.68H135.67C133.14 204.68 131.09 206.73 131.09 209.26V218.35C131.09 220.879 133.14 222.93 135.67 222.93H138.39C140.919 222.93 142.97 220.879 142.97 218.35V209.26C142.97 206.73 140.919 204.68 138.39 204.68Z" fill="#DFE1E8" />
					<path d="M152.66 204.68H149.94C147.41 204.68 145.36 206.73 145.36 209.26V218.35C145.36 220.879 147.41 222.93 149.94 222.93H152.66C155.189 222.93 157.24 220.879 157.24 218.35V209.26C157.24 206.73 155.189 204.68 152.66 204.68Z" fill="#DFE1E8" />
					<path d="M166.93 204.68H164.21C161.68 204.68 159.63 206.73 159.63 209.26V218.35C159.63 220.879 161.68 222.93 164.21 222.93H166.93C169.459 222.93 171.51 220.879 171.51 218.35V209.26C171.51 206.73 169.459 204.68 166.93 204.68Z" fill="#DFE1E8" />
					<path d="M181.2 204.68H178.48C175.95 204.68 173.9 206.73 173.9 209.26V218.35C173.9 220.879 175.95 222.93 178.48 222.93H181.2C183.729 222.93 185.78 220.879 185.78 218.35V209.26C185.78 206.73 183.729 204.68 181.2 204.68Z" fill="#DFE1E8" />
					<path d="M195.47 204.68H192.75C190.22 204.68 188.17 206.73 188.17 209.26V218.35C188.17 220.879 190.22 222.93 192.75 222.93H195.47C197.999 222.93 200.05 220.879 200.05 218.35V209.26C200.05 206.73 197.999 204.68 195.47 204.68Z" fill="#DFE1E8" />
					<path d="M209.73 204.68H207.01C204.481 204.68 202.43 206.73 202.43 209.26V218.35C202.43 220.879 204.481 222.93 207.01 222.93H209.73C212.26 222.93 214.31 220.879 214.31 218.35V209.26C214.31 206.73 212.26 204.68 209.73 204.68Z" fill="#DFE1E8" />
					<path d="M224 204.68H221.28C218.751 204.68 216.7 206.73 216.7 209.26V218.35C216.7 220.879 218.751 222.93 221.28 222.93H224C226.53 222.93 228.58 220.879 228.58 218.35V209.26C228.58 206.73 226.53 204.68 224 204.68Z" fill="#DFE1E8" />
					<path d="M238.27 204.68H235.55C233.021 204.68 230.97 206.73 230.97 209.26V218.35C230.97 220.879 233.021 222.93 235.55 222.93H238.27C240.8 222.93 242.85 220.879 242.85 218.35V209.26C242.85 206.73 240.8 204.68 238.27 204.68Z" fill="#DFE1E8" />
					<path d="M252.54 204.68H249.82C247.291 204.68 245.24 206.73 245.24 209.26V218.35C245.24 220.879 247.291 222.93 249.82 222.93H252.54C255.07 222.93 257.12 220.879 257.12 218.35V209.26C257.12 206.73 255.07 204.68 252.54 204.68Z" fill="#DFE1E8" />
					<path d="M266.81 204.68H264.09C261.561 204.68 259.51 206.73 259.51 209.26V218.35C259.51 220.879 261.561 222.93 264.09 222.93H266.81C269.34 222.93 271.39 220.879 271.39 218.35V209.26C271.39 206.73 269.34 204.68 266.81 204.68Z" fill="#DFE1E8" />
					<path d="M281.07 204.68H278.35C275.821 204.68 273.77 206.73 273.77 209.26V218.35C273.77 220.879 275.821 222.93 278.35 222.93H281.07C283.599 222.93 285.65 220.879 285.65 218.35V209.26C285.65 206.73 283.599 204.68 281.07 204.68Z" fill="#DFE1E8" />
					<path d="M295.34 204.68H292.62C290.091 204.68 288.04 206.73 288.04 209.26V218.35C288.04 220.879 290.091 222.93 292.62 222.93H295.34C297.869 222.93 299.92 220.879 299.92 218.35V209.26C299.92 206.73 297.869 204.68 295.34 204.68Z" fill="#DFE1E8" />
					<path d="M309.61 204.68H306.89C304.361 204.68 302.31 206.73 302.31 209.26V218.35C302.31 220.879 304.361 222.93 306.89 222.93H309.61C312.14 222.93 314.19 220.879 314.19 218.35V209.26C314.19 206.73 312.14 204.68 309.61 204.68Z" fill="#DFE1E8" />
					<path d="M323.88 204.68H321.16C318.631 204.68 316.58 206.73 316.58 209.26V218.35C316.58 220.879 318.631 222.93 321.16 222.93H323.88C326.41 222.93 328.46 220.879 328.46 218.35V209.26C328.46 206.73 326.41 204.68 323.88 204.68Z" fill="#DFE1E8" />
				</g>
				<g>
					<path d="M111.12 272.52H105.88C104.046 272.52 102.56 274.006 102.56 275.84V278.79C102.56 280.623 104.046 282.11 105.88 282.11H111.12C112.954 282.11 114.44 280.623 114.44 278.79V275.84C114.44 274.006 112.954 272.52 111.12 272.52Z" fill="#DFE1E8" />
					<path d="M125.39 272.52H120.15C118.316 272.52 116.83 274.006 116.83 275.84V278.79C116.83 280.623 118.316 282.11 120.15 282.11H125.39C127.224 282.11 128.71 280.623 128.71 278.79V275.84C128.71 274.006 127.224 272.52 125.39 272.52Z" fill="#DFE1E8" />
					<path d="M139.65 272.52H134.41C132.576 272.52 131.09 274.006 131.09 275.84V278.79C131.09 280.623 132.576 282.11 134.41 282.11H139.65C141.483 282.11 142.97 280.623 142.97 278.79V275.84C142.97 274.006 141.483 272.52 139.65 272.52Z" fill="#DFE1E8" />
					<path d="M153.92 272.52H148.68C146.846 272.52 145.36 274.006 145.36 275.84V278.79C145.36 280.623 146.846 282.11 148.68 282.11H153.92C155.753 282.11 157.24 280.623 157.24 278.79V275.84C157.24 274.006 155.753 272.52 153.92 272.52Z" fill="#DFE1E8" />
					<path d="M168.19 272.52H162.95C161.116 272.52 159.63 274.006 159.63 275.84V278.79C159.63 280.623 161.116 282.11 162.95 282.11H168.19C170.023 282.11 171.51 280.623 171.51 278.79V275.84C171.51 274.006 170.023 272.52 168.19 272.52Z" fill="#DFE1E8" />
					<path d="M182.46 272.52H177.22C175.386 272.52 173.9 274.006 173.9 275.84V278.79C173.9 280.623 175.386 282.11 177.22 282.11H182.46C184.294 282.11 185.78 280.623 185.78 278.79V275.84C185.78 274.006 184.294 272.52 182.46 272.52Z" fill="#DFE1E8" />
					<path d="M196.73 272.52H191.49C189.656 272.52 188.17 274.006 188.17 275.84V278.79C188.17 280.623 189.656 282.11 191.49 282.11H196.73C198.564 282.11 200.05 280.623 200.05 278.79V275.84C200.05 274.006 198.564 272.52 196.73 272.52Z" fill="#DFE1E8" />
					<path d="M210.99 272.52H205.75C203.917 272.52 202.43 274.006 202.43 275.84V278.79C202.43 280.623 203.917 282.11 205.75 282.11H210.99C212.824 282.11 214.31 280.623 214.31 278.79V275.84C214.31 274.006 212.824 272.52 210.99 272.52Z" fill="#DFE1E8" />
					<path d="M225.26 272.52H220.02C218.187 272.52 216.7 274.006 216.7 275.84V278.79C216.7 280.623 218.187 282.11 220.02 282.11H225.26C227.094 282.11 228.58 280.623 228.58 278.79V275.84C228.58 274.006 227.094 272.52 225.26 272.52Z" fill="#DFE1E8" />
					<path d="M239.53 272.52H234.29C232.457 272.52 230.97 274.006 230.97 275.84V278.79C230.97 280.623 232.457 282.11 234.29 282.11H239.53C241.364 282.11 242.85 280.623 242.85 278.79V275.84C242.85 274.006 241.364 272.52 239.53 272.52Z" fill="#DFE1E8" />
					<path d="M253.8 272.52H248.56C246.727 272.52 245.24 274.006 245.24 275.84V278.79C245.24 280.623 246.727 282.11 248.56 282.11H253.8C255.634 282.11 257.12 280.623 257.12 278.79V275.84C257.12 274.006 255.634 272.52 253.8 272.52Z" fill="#DFE1E8" />
					<path d="M268.07 272.52H262.83C260.997 272.52 259.51 274.006 259.51 275.84V278.79C259.51 280.623 260.997 282.11 262.83 282.11H268.07C269.904 282.11 271.39 280.623 271.39 278.79V275.84C271.39 274.006 269.904 272.52 268.07 272.52Z" fill="#DFE1E8" />
					<path d="M282.33 272.52H277.09C275.256 272.52 273.77 274.006 273.77 275.84V278.79C273.77 280.623 275.256 282.11 277.09 282.11H282.33C284.164 282.11 285.65 280.623 285.65 278.79V275.84C285.65 274.006 284.164 272.52 282.33 272.52Z" fill="#DFE1E8" />
					<path d="M296.6 272.52H291.36C289.526 272.52 288.04 274.006 288.04 275.84V278.79C288.04 280.623 289.526 282.11 291.36 282.11H296.6C298.434 282.11 299.92 280.623 299.92 278.79V275.84C299.92 274.006 298.434 272.52 296.6 272.52Z" fill="#DFE1E8" />
					<path d="M310.87 272.52H305.63C303.796 272.52 302.31 274.006 302.31 275.84V278.79C302.31 280.623 303.796 282.11 305.63 282.11H310.87C312.704 282.11 314.19 280.623 314.19 278.79V275.84C314.19 274.006 312.704 272.52 310.87 272.52Z" fill="#DFE1E8" />
					<path d="M325.14 272.52H319.9C318.067 272.52 316.58 274.006 316.58 275.84V278.79C316.58 280.623 318.067 282.11 319.9 282.11H325.14C326.974 282.11 328.46 280.623 328.46 278.79V275.84C328.46 274.006 326.974 272.52 325.14 272.52Z" fill="#DFE1E8" />
				</g>
				<g>
					<path d="M111.12 286.07H105.88C104.046 286.07 102.56 287.556 102.56 289.39V292.34C102.56 294.173 104.046 295.66 105.88 295.66H111.12C112.954 295.66 114.44 294.173 114.44 292.34V289.39C114.44 287.556 112.954 286.07 111.12 286.07Z" fill="#DFE1E8" />
					<path d="M125.39 286.07H120.15C118.316 286.07 116.83 287.556 116.83 289.39V292.34C116.83 294.173 118.316 295.66 120.15 295.66H125.39C127.224 295.66 128.71 294.173 128.71 292.34V289.39C128.71 287.556 127.224 286.07 125.39 286.07Z" fill="#DFE1E8" />
					<path d="M139.65 286.07H134.41C132.576 286.07 131.09 287.556 131.09 289.39V292.34C131.09 294.173 132.576 295.66 134.41 295.66H139.65C141.483 295.66 142.97 294.173 142.97 292.34V289.39C142.97 287.556 141.483 286.07 139.65 286.07Z" fill="#DFE1E8" />
					<path d="M153.92 286.07H148.68C146.846 286.07 145.36 287.556 145.36 289.39V292.34C145.36 294.173 146.846 295.66 148.68 295.66H153.92C155.753 295.66 157.24 294.173 157.24 292.34V289.39C157.24 287.556 155.753 286.07 153.92 286.07Z" fill="#DFE1E8" />
					<path d="M168.19 286.07H162.95C161.116 286.07 159.63 287.556 159.63 289.39V292.34C159.63 294.173 161.116 295.66 162.95 295.66H168.19C170.023 295.66 171.51 294.173 171.51 292.34V289.39C171.51 287.556 170.023 286.07 168.19 286.07Z" fill="#DFE1E8" />
					<path d="M182.46 286.07H177.22C175.386 286.07 173.9 287.556 173.9 289.39V292.34C173.9 294.173 175.386 295.66 177.22 295.66H182.46C184.294 295.66 185.78 294.173 185.78 292.34V289.39C185.78 287.556 184.294 286.07 182.46 286.07Z" fill="#DFE1E8" />
					<path d="M196.73 286.07H191.49C189.656 286.07 188.17 287.556 188.17 289.39V292.34C188.17 294.173 189.656 295.66 191.49 295.66H196.73C198.564 295.66 200.05 294.173 200.05 292.34V289.39C200.05 287.556 198.564 286.07 196.73 286.07Z" fill="#DFE1E8" />
					<path d="M210.99 286.07H205.75C203.917 286.07 202.43 287.556 202.43 289.39V292.34C202.43 294.173 203.917 295.66 205.75 295.66H210.99C212.824 295.66 214.31 294.173 214.31 292.34V289.39C214.31 287.556 212.824 286.07 210.99 286.07Z" fill="#DFE1E8" />
					<path d="M225.26 286.07H220.02C218.187 286.07 216.7 287.556 216.7 289.39V292.34C216.7 294.173 218.187 295.66 220.02 295.66H225.26C227.094 295.66 228.58 294.173 228.58 292.34V289.39C228.58 287.556 227.094 286.07 225.26 286.07Z" fill="#DFE1E8" />
					<path d="M239.53 286.07H234.29C232.457 286.07 230.97 287.556 230.97 289.39V292.34C230.97 294.173 232.457 295.66 234.29 295.66H239.53C241.364 295.66 242.85 294.173 242.85 292.34V289.39C242.85 287.556 241.364 286.07 239.53 286.07Z" fill="#DFE1E8" />
					<path d="M253.8 286.07H248.56C246.727 286.07 245.24 287.556 245.24 289.39V292.34C245.24 294.173 246.727 295.66 248.56 295.66H253.8C255.634 295.66 257.12 294.173 257.12 292.34V289.39C257.12 287.556 255.634 286.07 253.8 286.07Z" fill="#DFE1E8" />
					<path d="M268.07 286.07H262.83C260.997 286.07 259.51 287.556 259.51 289.39V292.34C259.51 294.173 260.997 295.66 262.83 295.66H268.07C269.904 295.66 271.39 294.173 271.39 292.34V289.39C271.39 287.556 269.904 286.07 268.07 286.07Z" fill="#DFE1E8" />
					<path d="M282.33 286.07H277.09C275.256 286.07 273.77 287.556 273.77 289.39V292.34C273.77 294.173 275.256 295.66 277.09 295.66H282.33C284.164 295.66 285.65 294.173 285.65 292.34V289.39C285.65 287.556 284.164 286.07 282.33 286.07Z" fill="#DFE1E8" />
					<path d="M296.6 286.07H291.36C289.526 286.07 288.04 287.556 288.04 289.39V292.34C288.04 294.173 289.526 295.66 291.36 295.66H296.6C298.434 295.66 299.92 294.173 299.92 292.34V289.39C299.92 287.556 298.434 286.07 296.6 286.07Z" fill="#DFE1E8" />
					<path d="M310.87 286.07H305.63C303.796 286.07 302.31 287.556 302.31 289.39V292.34C302.31 294.173 303.796 295.66 305.63 295.66H310.87C312.704 295.66 314.19 294.173 314.19 292.34V289.39C314.19 287.556 312.704 286.07 310.87 286.07Z" fill="#DFE1E8" />
					<path d="M325.14 286.07H319.9C318.067 286.07 316.58 287.556 316.58 289.39V292.34C316.58 294.173 318.067 295.66 319.9 295.66H325.14C326.974 295.66 328.46 294.173 328.46 292.34V289.39C328.46 287.556 326.974 286.07 325.14 286.07Z" fill="#DFE1E8" />
				</g>
				<g>
					<path d="M109.57 228.11H105.63C104.758 228.11 104.05 228.817 104.05 229.69V238.52C104.05 239.392 104.758 240.1 105.63 240.1H109.57C110.443 240.1 111.15 239.392 111.15 238.52V229.69C111.15 228.817 110.443 228.11 109.57 228.11Z" fill="#DFE1E8" />
					<path d="M119.66 228.11H115.72C114.848 228.11 114.14 228.817 114.14 229.69V238.52C114.14 239.392 114.848 240.1 115.72 240.1H119.66C120.533 240.1 121.24 239.392 121.24 238.52V229.69C121.24 228.817 120.533 228.11 119.66 228.11Z" fill="#DFE1E8" />
					<path d="M129.93 228.11H125.99C125.118 228.11 124.41 228.817 124.41 229.69V238.52C124.41 239.392 125.118 240.1 125.99 240.1H129.93C130.803 240.1 131.51 239.392 131.51 238.52V229.69C131.51 228.817 130.803 228.11 129.93 228.11Z" fill="#DFE1E8" />
					<path d="M140.02 228.11H136.08C135.208 228.11 134.5 228.817 134.5 229.69V238.52C134.5 239.392 135.208 240.1 136.08 240.1H140.02C140.893 240.1 141.6 239.392 141.6 238.52V229.69C141.6 228.817 140.893 228.11 140.02 228.11Z" fill="#DFE1E8" />
					<path d="M150.77 228.11H146.83C145.958 228.11 145.25 228.817 145.25 229.69V238.52C145.25 239.392 145.958 240.1 146.83 240.1H150.77C151.643 240.1 152.35 239.392 152.35 238.52V229.69C152.35 228.817 151.643 228.11 150.77 228.11Z" fill="#DFE1E8" />
					<path d="M160.85 228.11H156.91C156.037 228.11 155.33 228.817 155.33 229.69V238.52C155.33 239.392 156.037 240.1 156.91 240.1H160.85C161.723 240.1 162.43 239.392 162.43 238.52V229.69C162.43 228.817 161.723 228.11 160.85 228.11Z" fill="#DFE1E8" />
					<path d="M171.13 228.11H167.19C166.318 228.11 165.61 228.817 165.61 229.69V238.52C165.61 239.392 166.318 240.1 167.19 240.1H171.13C172.003 240.1 172.71 239.392 172.71 238.52V229.69C172.71 228.817 172.003 228.11 171.13 228.11Z" fill="#DFE1E8" />
					<path d="M181.21 228.11H177.27C176.398 228.11 175.69 228.817 175.69 229.69V238.52C175.69 239.392 176.398 240.1 177.27 240.1H181.21C182.083 240.1 182.79 239.392 182.79 238.52V229.69C182.79 228.817 182.083 228.11 181.21 228.11Z" fill="#DFE1E8" />
					<path d="M190.76 228.11H186.82C185.948 228.11 185.24 228.817 185.24 229.69V238.52C185.24 239.392 185.948 240.1 186.82 240.1H190.76C191.633 240.1 192.34 239.392 192.34 238.52V229.69C192.34 228.817 191.633 228.11 190.76 228.11Z" fill="#DFE1E8" />
					<path d="M200.85 228.11H196.91C196.037 228.11 195.33 228.817 195.33 229.69V238.52C195.33 239.392 196.037 240.1 196.91 240.1H200.85C201.723 240.1 202.43 239.392 202.43 238.52V229.69C202.43 228.817 201.723 228.11 200.85 228.11Z" fill="#DFE1E8" />
					<path d="M211.12 228.11H207.18C206.307 228.11 205.6 228.817 205.6 229.69V238.52C205.6 239.392 206.307 240.1 207.18 240.1H211.12C211.993 240.1 212.7 239.392 212.7 238.52V229.69C212.7 228.817 211.993 228.11 211.12 228.11Z" fill="#DFE1E8" />
					<path d="M221.21 228.11H217.27C216.398 228.11 215.69 228.817 215.69 229.69V238.52C215.69 239.392 216.398 240.1 217.27 240.1H221.21C222.083 240.1 222.79 239.392 222.79 238.52V229.69C222.79 228.817 222.083 228.11 221.21 228.11Z" fill="#DFE1E8" />
					<path d="M231.96 228.11H228.02C227.148 228.11 226.44 228.817 226.44 229.69V238.52C226.44 239.392 227.148 240.1 228.02 240.1H231.96C232.833 240.1 233.54 239.392 233.54 238.52V229.69C233.54 228.817 232.833 228.11 231.96 228.11Z" fill="#DFE1E8" />
					<path d="M242.05 228.11H238.11C237.238 228.11 236.53 228.817 236.53 229.69V238.52C236.53 239.392 237.238 240.1 238.11 240.1H242.05C242.923 240.1 243.63 239.392 243.63 238.52V229.69C243.63 228.817 242.923 228.11 242.05 228.11Z" fill="#DFE1E8" />
					<path d="M252.32 228.11H248.38C247.508 228.11 246.8 228.817 246.8 229.69V238.52C246.8 239.392 247.508 240.1 248.38 240.1H252.32C253.193 240.1 253.9 239.392 253.9 238.52V229.69C253.9 228.817 253.193 228.11 252.32 228.11Z" fill="#DFE1E8" />
					<path d="M262.41 228.11H258.47C257.598 228.11 256.89 228.817 256.89 229.69V238.52C256.89 239.392 257.598 240.1 258.47 240.1H262.41C263.283 240.1 263.99 239.392 263.99 238.52V229.69C263.99 228.817 263.283 228.11 262.41 228.11Z" fill="#DFE1E8" />
					<path d="M274.11 228.11H270.17C269.298 228.11 268.59 228.817 268.59 229.69V238.52C268.59 239.392 269.298 240.1 270.17 240.1H274.11C274.983 240.1 275.69 239.392 275.69 238.52V229.69C275.69 228.817 274.983 228.11 274.11 228.11Z" fill="#DFE1E8" />
					<path d="M284.2 228.11H280.26C279.388 228.11 278.68 228.817 278.68 229.69V238.52C278.68 239.392 279.388 240.1 280.26 240.1H284.2C285.073 240.1 285.78 239.392 285.78 238.52V229.69C285.78 228.817 285.073 228.11 284.2 228.11Z" fill="#DFE1E8" />
					<path d="M294.47 228.11H290.53C289.658 228.11 288.95 228.817 288.95 229.69V238.52C288.95 239.392 289.658 240.1 290.53 240.1H294.47C295.343 240.1 296.05 239.392 296.05 238.52V229.69C296.05 228.817 295.343 228.11 294.47 228.11Z" fill="#DFE1E8" />
					<path d="M304.561 228.11H300.621C299.748 228.11 299.041 228.817 299.041 229.69V238.52C299.041 239.392 299.748 240.1 300.621 240.1H304.561C305.433 240.1 306.141 239.392 306.141 238.52V229.69C306.141 228.817 305.433 228.11 304.561 228.11Z" fill="#DFE1E8" />
					<path d="M315.311 228.11H311.371C310.498 228.11 309.791 228.817 309.791 229.69V238.52C309.791 239.392 310.498 240.1 311.371 240.1H315.311C316.183 240.1 316.891 239.392 316.891 238.52V229.69C316.891 228.817 316.183 228.11 315.311 228.11Z" fill="#DFE1E8" />
					<path d="M325.39 228.11H321.45C320.578 228.11 319.87 228.817 319.87 229.69V238.52C319.87 239.392 320.578 240.1 321.45 240.1H325.39C326.263 240.1 326.97 239.392 326.97 238.52V229.69C326.97 228.817 326.263 228.11 325.39 228.11Z" fill="#DFE1E8" />
				</g>
				<g>
					<path d="M110.06 248.51H106.12C105.247 248.51 104.54 249.217 104.54 250.09V258.92C104.54 259.792 105.247 260.5 106.12 260.5H110.06C110.933 260.5 111.64 259.792 111.64 258.92V250.09C111.64 249.217 110.933 248.51 110.06 248.51Z" fill="#DFE1E8" />
					<path d="M120.14 248.51H116.2C115.328 248.51 114.62 249.217 114.62 250.09V258.92C114.62 259.792 115.328 260.5 116.2 260.5H120.14C121.013 260.5 121.72 259.792 121.72 258.92V250.09C121.72 249.217 121.013 248.51 120.14 248.51Z" fill="#DFE1E8" />
					<path d="M130.42 248.51H126.48C125.607 248.51 124.9 249.217 124.9 250.09V258.92C124.9 259.792 125.607 260.5 126.48 260.5H130.42C131.293 260.5 132 259.792 132 258.92V250.09C132 249.217 131.293 248.51 130.42 248.51Z" fill="#DFE1E8" />
					<path d="M140.5 248.51H136.56C135.687 248.51 134.98 249.217 134.98 250.09V258.92C134.98 259.792 135.687 260.5 136.56 260.5H140.5C141.373 260.5 142.08 259.792 142.08 258.92V250.09C142.08 249.217 141.373 248.51 140.5 248.51Z" fill="#DFE1E8" />
					<path d="M151.25 248.51H147.31C146.437 248.51 145.73 249.217 145.73 250.09V258.92C145.73 259.792 146.437 260.5 147.31 260.5H151.25C152.123 260.5 152.83 259.792 152.83 258.92V250.09C152.83 249.217 152.123 248.51 151.25 248.51Z" fill="#DFE1E8" />
					<path d="M161.34 248.51H157.4C156.527 248.51 155.82 249.217 155.82 250.09V258.92C155.82 259.792 156.527 260.5 157.4 260.5H161.34C162.212 260.5 162.92 259.792 162.92 258.92V250.09C162.92 249.217 162.212 248.51 161.34 248.51Z" fill="#DFE1E8" />
					<path d="M171.61 248.51H167.67C166.797 248.51 166.09 249.217 166.09 250.09V258.92C166.09 259.792 166.797 260.5 167.67 260.5H171.61C172.482 260.5 173.19 259.792 173.19 258.92V250.09C173.19 249.217 172.482 248.51 171.61 248.51Z" fill="#DFE1E8" />
					<path d="M181.7 248.51H177.76C176.888 248.51 176.18 249.217 176.18 250.09V258.92C176.18 259.792 176.888 260.5 177.76 260.5H181.7C182.573 260.5 183.28 259.792 183.28 258.92V250.09C183.28 249.217 182.573 248.51 181.7 248.51Z" fill="#DFE1E8" />
					<path d="M191.25 248.51H187.31C186.437 248.51 185.73 249.217 185.73 250.09V258.92C185.73 259.792 186.437 260.5 187.31 260.5H191.25C192.123 260.5 192.83 259.792 192.83 258.92V250.09C192.83 249.217 192.123 248.51 191.25 248.51Z" fill="#DFE1E8" />
					<path d="M201.34 248.51H197.4C196.527 248.51 195.82 249.217 195.82 250.09V258.92C195.82 259.792 196.527 260.5 197.4 260.5H201.34C202.212 260.5 202.92 259.792 202.92 258.92V250.09C202.92 249.217 202.212 248.51 201.34 248.51Z" fill="#DFE1E8" />
					<path d="M211.61 248.51H207.67C206.797 248.51 206.09 249.217 206.09 250.09V258.92C206.09 259.792 206.797 260.5 207.67 260.5H211.61C212.482 260.5 213.19 259.792 213.19 258.92V250.09C213.19 249.217 212.482 248.51 211.61 248.51Z" fill="#DFE1E8" />
					<path d="M221.7 248.51H217.76C216.888 248.51 216.18 249.217 216.18 250.09V258.92C216.18 259.792 216.888 260.5 217.76 260.5H221.7C222.573 260.5 223.28 259.792 223.28 258.92V250.09C223.28 249.217 222.573 248.51 221.7 248.51Z" fill="#DFE1E8" />
					<path d="M232.45 248.51H228.51C227.638 248.51 226.93 249.217 226.93 250.09V258.92C226.93 259.792 227.638 260.5 228.51 260.5H232.45C233.323 260.5 234.03 259.792 234.03 258.92V250.09C234.03 249.217 233.323 248.51 232.45 248.51Z" fill="#DFE1E8" />
					<g>
						<path d="M243.1 255.52H238.04C237.477 255.52 237.02 255.976 237.02 256.54V259.48C237.02 260.043 237.477 260.5 238.04 260.5H243.1C243.663 260.5 244.12 260.043 244.12 259.48V256.54C244.12 255.976 243.663 255.52 243.1 255.52Z" fill="#DFE1E8" />
						<path d="M253.39 255.52H248.33C247.767 255.52 247.31 255.976 247.31 256.54V259.48C247.31 260.043 247.767 260.5 248.33 260.5H253.39C253.953 260.5 254.41 260.043 254.41 259.48V256.54C254.41 255.976 253.953 255.52 253.39 255.52Z" fill="#DFE1E8" />
						<path d="M263.69 255.52H258.63C258.067 255.52 257.61 255.976 257.61 256.54V259.48C257.61 260.043 258.067 260.5 258.63 260.5H263.69C264.253 260.5 264.71 260.043 264.71 259.48V256.54C264.71 255.976 264.253 255.52 263.69 255.52Z" fill="#DFE1E8" />
						<path d="M273.99 255.52H268.93C268.367 255.52 267.91 255.976 267.91 256.54V259.48C267.91 260.043 268.367 260.5 268.93 260.5H273.99C274.553 260.5 275.01 260.043 275.01 259.48V256.54C275.01 255.976 274.553 255.52 273.99 255.52Z" fill="#DFE1E8" />
						<path d="M284.28 255.52H279.22C278.657 255.52 278.2 255.976 278.2 256.54V259.48C278.2 260.043 278.657 260.5 279.22 260.5H284.28C284.844 260.5 285.3 260.043 285.3 259.48V256.54C285.3 255.976 284.844 255.52 284.28 255.52Z" fill="#DFE1E8" />
						<path d="M294.58 255.52H289.52C288.957 255.52 288.5 255.976 288.5 256.54V259.48C288.5 260.043 288.957 260.5 289.52 260.5H294.58C295.143 260.5 295.6 260.043 295.6 259.48V256.54C295.6 255.976 295.143 255.52 294.58 255.52Z" fill="#DFE1E8" />
						<path d="M304.87 255.52H299.81C299.247 255.52 298.79 255.976 298.79 256.54V259.48C298.79 260.043 299.247 260.5 299.81 260.5H304.87C305.433 260.5 305.89 260.043 305.89 259.48V256.54C305.89 255.976 305.433 255.52 304.87 255.52Z" fill="#DFE1E8" />
						<path d="M315.17 255.52H310.11C309.547 255.52 309.09 255.976 309.09 256.54V259.48C309.09 260.043 309.547 260.5 310.11 260.5H315.17C315.733 260.5 316.19 260.043 316.19 259.48V256.54C316.19 255.976 315.733 255.52 315.17 255.52Z" fill="#DFE1E8" />
						<path d="M325.47 255.52H320.41C319.847 255.52 319.39 255.976 319.39 256.54V259.48C319.39 260.043 319.847 260.5 320.41 260.5H325.47C326.033 260.5 326.49 260.043 326.49 259.48V256.54C326.49 255.976 326.033 255.52 325.47 255.52Z" fill="#DFE1E8" />
					</g>
					<g>
						<path d="M237.83 250.64H232.77C232.207 250.64 231.75 251.096 231.75 251.66V254.6C231.75 255.163 232.207 255.62 232.77 255.62H237.83C238.393 255.62 238.85 255.163 238.85 254.6V251.66C238.85 251.096 238.393 250.64 237.83 250.64Z" fill="#DFE1E8" />
						<path d="M248.13 250.64H243.07C242.506 250.64 242.05 251.096 242.05 251.66V254.6C242.05 255.163 242.506 255.62 243.07 255.62H248.13C248.693 255.62 249.15 255.163 249.15 254.6V251.66C249.15 251.096 248.693 250.64 248.13 250.64Z" fill="#DFE1E8" />
						<path d="M258.42 250.64H253.36C252.797 250.64 252.34 251.096 252.34 251.66V254.6C252.34 255.163 252.797 255.62 253.36 255.62H258.42C258.983 255.62 259.44 255.163 259.44 254.6V251.66C259.44 251.096 258.983 250.64 258.42 250.64Z" fill="#DFE1E8" />
						<path d="M268.72 250.64H263.66C263.097 250.64 262.64 251.096 262.64 251.66V254.6C262.64 255.163 263.097 255.62 263.66 255.62H268.72C269.283 255.62 269.74 255.163 269.74 254.6V251.66C269.74 251.096 269.283 250.64 268.72 250.64Z" fill="#DFE1E8" />
						<path d="M279.01 250.64H273.95C273.387 250.64 272.93 251.096 272.93 251.66V254.6C272.93 255.163 273.387 255.62 273.95 255.62H279.01C279.574 255.62 280.03 255.163 280.03 254.6V251.66C280.03 251.096 279.574 250.64 279.01 250.64Z" fill="#DFE1E8" />
						<path d="M289.31 250.64H284.25C283.687 250.64 283.23 251.096 283.23 251.66V254.6C283.23 255.163 283.687 255.62 284.25 255.62H289.31C289.873 255.62 290.33 255.163 290.33 254.6V251.66C290.33 251.096 289.873 250.64 289.31 250.64Z" fill="#DFE1E8" />
						<path d="M299.61 250.64H294.55C293.986 250.64 293.53 251.096 293.53 251.66V254.6C293.53 255.163 293.986 255.62 294.55 255.62H299.61C300.173 255.62 300.63 255.163 300.63 254.6V251.66C300.63 251.096 300.173 250.64 299.61 250.64Z" fill="#DFE1E8" />
						<path d="M309.9 250.64H304.84C304.276 250.64 303.82 251.096 303.82 251.66V254.6C303.82 255.163 304.276 255.62 304.84 255.62H309.9C310.463 255.62 310.92 255.163 310.92 254.6V251.66C310.92 251.096 310.463 250.64 309.9 250.64Z" fill="#DFE1E8" />
						<path d="M320.2 250.64H315.14C314.577 250.64 314.12 251.096 314.12 251.66V254.6C314.12 255.163 314.577 255.62 315.14 255.62H320.2C320.763 255.62 321.22 255.163 321.22 254.6V251.66C321.22 251.096 320.763 250.64 320.2 250.64Z" fill="#DFE1E8" />
					</g>
				</g>
			</g>
		</g>
		<g class="svgIcon svgIcon3">
			<path d="M216.52 315.86V319.37C216.52 320.14 217.15 320.77 217.92 320.77H227.88C228.51 320.77 228.81 320.02 228.37 319.57C227.93 319.12 225.95 318.1 224.51 317.51C221.47 316.28 220.02 316.16 220.02 316.16L216.51 315.85L216.52 315.86Z" fill="#1F1341" />
			<path d="M204.92 281L216.16 316.8H222.66C222.66 316.8 220.1 298.91 216.84 280.95" fill="#842857" />
			<path d="M202.32 315.86V319.37C202.32 320.14 202.95 320.77 203.72 320.77H213.68C214.31 320.77 214.61 320.02 214.17 319.57C213.73 319.12 211.75 318.1 210.31 317.51C207.27 316.28 205.82 316.16 205.82 316.16L202.31 315.85L202.32 315.86Z" fill="#1F1341" />
			<path d="M190.72 281L201.96 316.8H208.46C208.46 316.8 205.9 298.91 202.64 280.95" fill="#842857" />
			<path d="M165.19 264.78C165.19 264.78 162.54 269.84 165.64 275.88C167.35 279.21 178.18 277.95 182.72 277.69C187.26 277.43 185.74 269.96 185.74 269.96V265.81" fill="#842857" />
			<g>
				<g>
					<g>
						<path d="M181.638 311.693L196.735 319.131L197.438 317.705L182.341 310.267L181.638 311.693Z" fill="#1F1341" />
						<path d="M195.81 321.69C197.417 321.69 198.72 320.387 198.72 318.78C198.72 317.173 197.417 315.87 195.81 315.87C194.203 315.87 192.9 317.173 192.9 318.78C192.9 320.387 194.203 321.69 195.81 321.69Z" fill="#1F1341" />
					</g>
					<g>
						<g>
							<g>
								<path d="M261.64 221.18C261.64 221.18 259.01 218.18 258.96 217.92C258.9 217.57 259.72 217.19 260.46 217.95C261.2 218.71 263.23 220.44 263.23 220.44" fill="#E29882" />
								<path d="M267.48 221.51C267.48 221.51 267.34 221.34 265.87 220.69C264.48 220.08 263.38 219.39 262.86 218.72C262.59 218.37 262.74 218.2 262.92 218.08C263.47 217.73 265.4 218.75 266.45 219.12C267.68 219.55 268.61 219.97 269.34 220.23C270.07 220.49 270.62 220.79 270.62 220.79V223.64C270.62 223.64 264.75 223.34 264.27 223.16C263.54 222.87 261.55 221.71 259.99 220.44C259.01 219.65 258.03 218.94 258.03 218.67C258.03 218.38 258.32 218.19 258.76 218.24C259.27 218.29 260.11 218.71 260.5 218.94C261.22 219.36 263.43 220.54 263.87 220.54C264.31 220.54 265.57 219.8 265.57 219.8" fill="#F7B29A" />
							</g>
							<path d="M273.89 224.3C273.89 224.3 272.24 221.44 270.87 220.85C270.12 220.53 268.52 219.91 268.52 219.91L267.49 223.38L269.65 223.87C270.29 224.02 270.87 224.34 271.32 224.81L271.88 225.39" fill="#F7B29A" />
						</g>
						<g>
							<g>
								<g>
									<path d="M178.48 284.8V292.84H180.55V312.24H185.34V292.84H186.98V282.23" fill="#1F1341" />
									<path d="M168.84 226.78C168.51 225.84 167.63 225.21 166.63 225.21H149.99C148.09 225.21 146.23 225.67 144.54 226.54L141.83 227.94C140.91 228.42 140.44 229.47 140.7 230.48C142.81 238.53 151.69 272.2 153.19 273.7C154.62 275.13 176.08 274.16 183.02 273.81C184.1 273.76 184.81 272.68 184.46 271.67L168.83 226.78H168.84Z" fill="#E30313" />
									<path d="M162.29 274.45L148.15 225.35C146.9 225.55 145.68 225.94 144.54 226.53L141.83 227.93C140.91 228.41 140.44 229.46 140.7 230.47C142.81 238.52 151.69 272.19 153.19 273.69C153.76 274.26 157.53 274.45 162.28 274.45H162.29Z" fill="#990D0D" />
									<path d="M152.4 242.23L162.29 274.45L183.02 273.81L170.76 235.55C170.76 235.55 156.68 226.92 152.45 239.08C152.1 240.09 152.08 241.2 152.39 242.23H152.4Z" fill="#990D0D" />
									<path d="M189.83 275.61H165.77C163.158 275.61 161.04 277.728 161.04 280.34C161.04 282.952 163.158 285.07 165.77 285.07H189.83C192.442 285.07 194.56 282.952 194.56 280.34C194.56 277.728 192.442 275.61 189.83 275.61Z" fill="#AD1917" />
									<path d="M189.83 275.61H165.77C163.158 275.61 161.04 277.728 161.04 280.34C161.04 282.952 163.158 285.07 165.77 285.07H189.83C192.442 285.07 194.56 282.952 194.56 280.34C194.56 277.728 192.442 275.61 189.83 275.61Z" fill="#AD1917" />
									<path d="M170.58 261.32L169.96 268.02L187.13 270.68L187.75 265.11" fill="#140B2E" />
									<path d="M227.37 261.66C227.06 261.54 226.7 261.4 226.32 261.27C226.29 261.2 226.24 261.12 226.13 261.05C225.08 260.35 222.92 259.25 222.05 259.19C221.3 259.11 214.86 259.55 213.74 259.62C211.73 259.75 212.23 263.21 212.94 263.21C214.48 263.21 219.13 263.27 221.36 263.21C222.79 263.24 225.21 263.18 225.58 263.17C225.81 263.17 225.98 262.98 226.01 262.8C226.37 262.83 226.66 262.85 226.82 262.85C227.12 262.85 227.31 262.62 227.25 262.41C227.25 262.41 227.25 262.41 227.26 262.41C227.71 262.41 227.94 261.89 227.36 261.66H227.37Z" fill="#F7B29A" />
									<path d="M193.6 233.25C193.6 233.25 197.15 236.79 198.82 245.8C200.49 254.81 200.82 257.14 200.82 257.14C200.82 257.14 214.94 257.25 218.39 258.47V263.03L186.43 262.33" fill="#54579C" />
									<path d="M182.84 231.04C182.84 231.04 171.87 228.1 168.3 234.13C164.73 240.16 170.88 264.78 170.88 264.78H189.45C189.45 264.78 195.43 245.2 195.92 239.79C196.41 234.38 192.55 229.81 182.84 231.04Z" fill="#54579C" />
									<path d="M171.9 240.11C171.9 240.11 177.02 250.08 184.1 252.44C191.44 254.89 193.3 251.53 193.3 251.53L189.46 264.77L170.78 261.88L166.45 257.78V246.48" fill="#322767" />
									<path d="M198.93 261.58C198.62 261.46 198.26 261.32 197.88 261.19C197.85 261.12 197.8 261.04 197.69 260.97C196.64 260.27 194.48 259.17 193.61 259.11C192.86 259.03 186.42 259.47 185.3 259.54C183.29 259.67 183.79 263.13 184.5 263.13C186.04 263.13 190.69 263.19 192.92 263.13C194.35 263.16 196.77 263.1 197.14 263.09C197.37 263.09 197.54 262.9 197.57 262.72C197.93 262.75 198.22 262.77 198.38 262.77C198.68 262.77 198.87 262.54 198.81 262.33C198.81 262.33 198.81 262.33 198.82 262.33C199.27 262.33 199.5 261.81 198.92 261.58H198.93Z" fill="#F7B29A" />
									<g>
										<path d="M177.8 224.98L179.53 230.8C179.53 230.8 181.74 233.02 184.93 231.26L183.7 226.15" fill="#F7B29A" />
										<path d="M179.7 226.86C179.7 226.86 180.24 228.92 184.3 228.92L182.95 223.4L179.71 226.85L179.7 226.86Z" fill="#D48068" />
										<path d="M184.94 214.89C184.94 214.89 185.84 218.8 184.23 218.63C182.62 218.46 180.56 216.12 180.56 216.12" fill="#701745" />
										<path d="M183.1 215.78C183.1 215.78 185.08 217.67 185.92 221.46C186.76 225.25 186.54 227.97 183.67 227.99C181.29 228.01 180.56 227.86 178.6 225.97C176.64 224.08 175.18 216.89 178.97 215.45C182.76 214.01 183.11 215.78 183.11 215.78H183.1Z" fill="#F7B29A" />
										<path d="M180.87 212.82C180.87 212.82 182.88 211.06 185 212.71C186.87 214.16 186.47 216.87 181.92 216.87C181.92 216.87 180.22 216.71 178.97 218.8C178.53 219.53 179.55 220.98 179.45 222.1C179.41 222.56 179.01 223.12 178.82 223.5C178.35 224.44 177.86 224.99 177.86 224.99L176.6 224.04C175.31 222.87 173.06 220.42 173.06 217.38C173.06 213.99 176.43 212.06 178.49 212.2C179.74 212.28 180.87 212.82 180.87 212.82V212.82Z" fill="#701745" />
										<path d="M179.47 222.64C179.47 222.64 177.75 221.23 177.18 222.2C176.61 223.17 177.68 224.86 179.84 224.42" fill="#F7B29A" />
										<path d="M182.88 224.73L185.24 224.04C185.24 224.04 185.49 225.21 184.61 225.51C183.73 225.81 182.88 224.73 182.88 224.73V224.73Z" fill="white" />
									</g>
									<path d="M173.8 230.63C173.8 230.63 167.1 230.51 165.49 235.62C163.88 240.73 160.95 256.61 161.14 259.26C161.33 261.91 164.07 262.35 166.53 262.35H189.41L189.16 258.23C189.16 258.23 175.76 253.01 170.08 253.1C170.08 253.1 175.87 238.95 170.67 237.28" fill="#54579C" />
									<path d="M177.8 230.36L184.1 247.96L187.31 230.9L182.3 229.75L177.8 230.36Z" fill="white" />
									<path d="M178.93 228.57L177.8 230.36L181.58 231.85L182.3 229.75L178.93 228.57Z" fill="white" />
									<path d="M182.3 229.75L182.91 231.94L185.89 230.85L184.3 228.93L182.3 229.75Z" fill="white" />
									<path d="M182.3 230.44L181.58 231.85L178.75 230.73L181.71 232.92L182.3 230.44Z" fill="#B9C0D5" />
									<path d="M262.52 266.56H259V321.69H262.52V266.56Z" fill="#F5CD95" />
									<path d="M169.96 266.56H166.45L159.38 321.69H162.9L169.96 266.56Z" fill="#C79D5B" />
									<g>
										<path d="M265.16 262.34H154.87V266.56H265.16V262.34Z" fill="#F5CD95" />
										<path d="M182.91 262.34H154.87V266.56H182.91V262.34Z" fill="#C79D5B" />
									</g>
									<path d="M261.24 255.05H229.42C227.85 255.05 226.7 253.58 227.07 252.06L231.47 234.01C232.01 231.78 234.01 230.21 236.31 230.21H268.13C269.7 230.21 270.85 231.68 270.48 233.2L266.08 251.25C265.54 253.48 263.54 255.05 261.24 255.05Z" fill="#656DD6" />
									<path d="M243.42 253.52L241.18 260.77H234.92C234.33 260.77 233.78 261.07 233.46 261.57L232.96 262.35H249.95L252.26 254.35" fill="#888FA6" />
									<path d="M243.42 253.52L241.18 260.77H234.92C234.33 260.77 233.78 261.07 233.46 261.57L232.96 262.35H249.95L252.26 254.35" fill="#656DD6" />
									<path d="M242.95 255.05L245.78 245.74C245.78 245.74 243.82 246.35 243.1 248.15C242.38 249.95 241.03 255.05 241.03 255.05H242.96H242.95Z" fill="url(#paint0_linear_435_1521)" />
									<path d="M181.85 310.266L166.753 317.704L167.456 319.13L182.553 311.692L181.85 310.266Z" fill="#1F1341" />
								</g>
								<g>
									<path d="M304.69 316.3V319.63C304.69 320.36 304.1 320.96 303.36 320.96H293.93C293.34 320.96 293.05 320.25 293.47 319.83C293.89 319.41 295.76 318.44 297.12 317.88C300 316.71 301.37 316.61 301.37 316.61L304.69 316.31V316.3Z" fill="#1F1341" />
									<g>
										<path d="M305.85 269.34L304.69 317.28H298.7C298.7 317.28 288.69 255.38 294.67 249.74C300.65 244.11 307.97 251.14 307.97 251.14L305.85 269.34Z" fill="#C28FBF" />
										<path d="M306.08 270.65L304.69 317.28L304.82 313.02C304.82 313.02 304.15 294.61 302.69 281.11C301.23 267.61 302.56 260.1 305.21 260.37C307.31 260.58 306.96 272.84 307.2 280.44C307.26 282.41 306.07 270.66 306.07 270.66L306.08 270.65Z" fill="#8856A6" />
										<path d="M314.52 248.94C314.52 248.94 317.44 267.9 318.82 281.9C320.2 295.9 320.63 317.68 320.63 317.68H314.46C314.46 317.68 301.59 260.06 301.59 256.31C301.59 252.56 314.51 248.94 314.51 248.94H314.52Z" fill="#C28FBF" />
										<path d="M307.97 249.8L310.68 250.13L314.52 248.93C314.52 248.93 317.44 267.89 318.82 281.89C320.2 295.89 320.63 317.67 320.63 317.67H318.97C318.97 317.67 316.55 288.44 314.99 277.87C313.21 265.76 307.98 249.81 307.98 249.8H307.97Z" fill="#8856A6" />
										<path d="M296.66 225.88C296.66 225.88 289.01 241.08 284.24 241.08C279.88 241.08 267.33 225.34 267.33 225.34L271.39 221.1L282.96 229.59C282.96 229.59 292.37 210.6 297.56 209.14" fill="#54579C" />
										<path d="M283.36 236.29C287.58 236.29 293.25 222.69 293.25 222.69L296.78 223.64L296.66 225.88C296.66 225.88 289.01 241.08 284.24 241.08C279.88 241.08 267.33 225.34 267.33 225.34L268.36 224.26C268.36 224.26 279.13 236.28 283.36 236.28V236.29Z" fill="#322767" />
										<path d="M298.64 207.94C298.64 207.94 298.62 206.48 303.54 206.65C305.03 206.7 311.46 208.04 312.87 209.14C318.91 213.86 317.7 237.77 317.41 242.93C317.12 248.09 317.66 253.84 317.66 253.84C317.66 253.84 296.92 256.79 290.87 253.84C290.87 253.84 291.35 243.87 291.68 233.74C292.05 222.36 292.56 210.56 298.64 207.93V207.94Z" fill="#54579C" />
										<g>
											<path d="M304.05 207.21L303.26 199.95L298.64 205.75L299.58 210.83L304.05 207.21Z" fill="#F7B29A" />
											<path d="M300.88 203.5C300.88 203.5 300.96 206.52 298.82 206.7L298.44 205.01L300.88 203.49V203.5Z" fill="#D48068" />
											<path d="M290.34 193.56C290.34 193.56 290.97 197.63 293.53 197.54C296.09 197.45 294.99 193.35 294.99 193.35" fill="#1F1341" />
											<path d="M303.39 204.27C303.39 204.27 301.77 202.76 301.34 203.52C300.3 205.34 297.88 206.09 296.78 205.61C294.98 204.83 291.53 196.09 292.68 194.06C293.83 192.03 300.67 192.25 302.39 194.02C304.11 195.79 303.39 204.27 303.39 204.27V204.27Z" fill="#F7B29A" />
											<path d="M303.48 202.36C303.48 202.36 305.38 197.57 304.95 194.52C304.52 191.47 300.98 190.77 300.21 190.75C299.2 190.72 295.14 186.69 291.73 189.21C287.69 192.21 290.25 195.35 293.82 195.72C295.21 195.86 296.17 195.67 297.2 195.89C298.11 196.09 301.46 198.46 301.65 198.74C301.82 199 301.43 198.64 301.57 198.91C302.25 200.3 302.33 202.41 303.48 202.36Z" fill="#1F1341" />
											<path d="M300.38 198.58C300.38 198.58 300.38 196.59 301.77 196.78C303.16 196.97 302.59 199.74 301.35 200.41" fill="#F7B29A" />
										</g>
										<path d="M307.97 242.61C310.46 236.09 310.12 222.69 310.12 222.69L316.44 253.84C316.19 253.93 315.94 254.01 315.68 254.09C312.57 254.47 306.32 255.13 300.67 255.14C302.87 252.7 306.07 247.54 307.96 242.59L307.97 242.61Z" fill="#322767" />
										<path d="M302.361 260.006L327.128 263.893C327.772 263.994 328.376 263.554 328.477 262.91L331.477 243.794C331.578 243.151 331.138 242.547 330.494 242.446L305.728 238.559C305.084 238.457 304.48 238.897 304.379 239.541L301.379 258.657C301.278 259.301 301.718 259.905 302.361 260.006Z" fill="#E30313" />
										<path d="M304.36 262.63H328.82V243.28H304.36V262.63Z" fill="white" />
										<path d="M318.02 256.43L317.97 253.17L322.22 251.91V253.37C322.22 253.37 322.22 262 322.22 262.37C322.22 262.74 321.99 263.52 321.43 263.73C320.78 263.98 319.75 263.93 319.1 263.93C318.7 263.93 318.34 263.91 318.04 263.88C317.55 263.83 317.12 263.56 316.87 263.14L316.59 262.67L317.55 262.62L317.25 259.76L318.01 256.42L318.02 256.43Z" fill="#F7B29A" />
										<path d="M318.38 255.66C318.38 255.66 316.34 257.95 316.16 258.43C315.98 258.91 315.46 261.87 315.44 262.07C315.42 262.27 316.35 262.97 316.97 261.63C317.59 260.29 318.38 258.18 318.38 258.18" fill="#F7B29A" />
										<path d="M312.87 209.15C312.87 209.15 319.04 213 320.63 225.12C322.22 237.24 322.32 254.99 322.32 254.99L316.66 255.53C316.66 255.53 309.76 226.68 307.97 222.15" fill="#54579C" />
										<path d="M297.56 209.15L298.64 206.98L299.81 207.13L304.07 205.14L305.46 206.91L305.85 206.99L297.56 229.14" fill="white" />
										<path d="M299.91 208.26L300.6 209.46L304.05 208.08L300.43 210.83L299.91 208.26Z" fill="#B9C0D5" />
									</g>
									<path d="M316.01 320.95H321.54C322.42 320.95 322.99 320.02 322.59 319.23C322.07 318.2 321.15 317.04 319.6 316.85C316.69 316.5 315.16 317.03 315.14 318.39C315.13 319.13 315.14 319.47 315.14 320.08C315.14 320.56 315.53 320.95 316.01 320.95Z" fill="#1F1341" />
								</g>
								<path d="M168.4 321.69C170.007 321.69 171.31 320.387 171.31 318.78C171.31 317.172 170.007 315.87 168.4 315.87C166.793 315.87 165.49 317.172 165.49 318.78C165.49 320.387 166.793 321.69 168.4 321.69Z" fill="#1F1341" />
							</g>
							<path d="M295.43 202.87L297.15 202.25C297.15 202.25 297.08 203.73 296.29 203.67C295.5 203.61 295.43 202.87 295.43 202.87Z" fill="white" />
						</g>
					</g>
				</g>
				<path d="M186.42 266.56H182.73V321.69H186.42V266.56Z" fill="#F5CD95" />
				<path d="M262.52 266.56H182.91V294.12H262.52V266.56Z" fill="#F5CD95" />
				<path d="M262.69 266.56H182.73V285.65L262.69 279.56V266.56Z" fill="url(#paint1_linear_435_1521)" />
			</g>
		</g>
		<g class="svgIcon svgIcon2">
			<path d="M43.5798 293.37C40.4398 291.24 37.9898 288.19 36.2298 284.2C34.4698 280.22 33.5898 275.52 33.5898 270.13C33.5898 264.74 34.4698 260.04 36.2298 256.06C37.9898 252.08 40.4398 249.02 43.5798 246.89C46.7198 244.76 50.2998 243.7 54.3098 243.7C58.3198 243.7 61.8998 244.76 65.0398 246.89C68.1798 249.02 70.6498 252.08 72.4298 256.06C74.2098 260.05 75.0998 264.74 75.0998 270.13C75.0998 275.52 74.2098 280.22 72.4298 284.2C70.6498 288.19 68.1798 291.24 65.0398 293.37C61.8998 295.5 58.3198 296.56 54.3098 296.56C50.2998 296.56 46.7198 295.5 43.5798 293.37V293.37ZM62.2898 289.14C64.5898 287.46 66.3898 285.01 67.6698 281.79C68.9598 278.57 69.5998 274.69 69.5998 270.13C69.5998 265.57 68.9598 261.69 67.6698 258.47C66.3798 255.25 64.5898 252.8 62.2898 251.12C59.9898 249.44 57.3298 248.6 54.3098 248.6C51.2898 248.6 48.6298 249.44 46.3298 251.12C44.0298 252.8 42.2298 255.25 40.9498 258.47C39.6598 261.69 39.0198 265.57 39.0198 270.13C39.0198 274.69 39.6598 278.57 40.9498 281.79C42.2398 285.01 44.0298 287.46 46.3298 289.14C48.6298 290.82 51.2898 291.66 54.3098 291.66C57.3298 291.66 59.9898 290.82 62.2898 289.14V289.14Z" fill="#E30313" />
			<path d="M112.07 269.5C115.51 272.2 117.23 275.97 117.23 280.82C117.23 283.84 116.52 286.54 115.11 288.91C113.7 291.29 111.58 293.16 108.76 294.52C105.94 295.88 102.47 296.56 98.3597 296.56C94.6497 296.56 91.1197 295.95 87.7797 294.74C84.4397 293.53 81.7497 291.91 79.7197 289.88L82.3197 285.65C84.0497 287.43 86.3297 288.88 89.1497 289.99C91.9697 291.1 95.0197 291.66 98.2797 291.66C102.59 291.66 105.92 290.69 108.27 288.76C110.62 286.83 111.8 284.26 111.8 281.04C111.8 277.48 110.48 274.78 107.83 272.95C105.18 271.12 100.71 270.2 94.4297 270.2H83.3697L86.0397 244.14H114.48V248.89H90.7197L88.9397 265.45H95.6197C103.14 265.45 108.63 266.8 112.07 269.5V269.5Z" fill="#E30313" />
		</g>
		<!-- <g class="svgIcon svgIcon6">
			<path d="M93.1301 542.18C97.9681 542.18 101.89 538.258 101.89 533.42C101.89 528.582 97.9681 524.66 93.1301 524.66C88.2921 524.66 84.3701 528.582 84.3701 533.42C84.3701 538.258 88.2921 542.18 93.1301 542.18Z" fill="#A7D07D" />
			<g>
				<path d="M87 536.57H66C62.9624 536.57 60.5 539.033 60.5 542.07V570.09C60.5 573.128 62.9624 575.59 66 575.59H87C90.0376 575.59 92.5 573.128 92.5 570.09V542.07C92.5 539.033 90.0376 536.57 87 536.57Z" fill="#DFE1E8" />
				<path d="M65.6099 565.22H80.0099" stroke="white" stroke-linecap="round" stroke-linejoin="round" />
				<path d="M65.6099 561.061H80.0099" stroke="white" stroke-linecap="round" stroke-linejoin="round" />
			</g>
		</g> -->
	</g>
	<defs>
		<linearGradient id="paint0_linear_435_1521" x1="234.4" y1="249.75" x2="253.57" y2="251.12" gradientUnits="userSpaceOnUse">
			<stop offset="0.41" stop-color="#656DD6" />
			<stop offset="0.64" stop-color="#322767" />
		</linearGradient>
		<linearGradient id="paint1_linear_435_1521" x1="222.88" y1="294.61" x2="222.61" y2="265.93" gradientUnits="userSpaceOnUse">
			<stop offset="0.46" stop-color="#F4CC93" />
			<stop offset="1" stop-color="#C79D5B" />
		</linearGradient>
	</defs>
</svg>
