<svg width="1528" height="402" viewBox="0 0 1528 402" fill="none" xmlns="http://www.w3.org/2000/svg">
	<style>
    .svgIcon {
      opacity: 0;
	  transform:translateY(0.63rem); 
	  transition: all ease 0.5s;
    }
	.svgIcon1{
		transition-delay: 0s;
	}
	.svgIcon2{
		transition-delay: 0.2s;
	}
	.svgIcon3{
		transition-delay: 0.4s;
	}
	.svgIcon4{
		transition-delay: 0.6s;
	}
	.svgIcon5{
		transition-delay: 0.8s;
	}
	.svgIcon6{
		transition-delay: 1.4s;
	}
	.svgIcon7{
		transition-delay: 1.8s;
	}
	.svgIcon8{
		transition-delay: 2.2s;
	}
	.svgIcon9{
		transition-delay: 2.6s;
	}
	.svgIcon10{
		transition-delay: 3s;
	}
	.svgIcon11{
		transition-delay: 3.4s;
	}
  </style>
	<g>
		<g class="svgIcon svgIcon1">
			<g>
				<g opacity="0.64">
					<g>
						<path d="M1050.4 347.301H543.7V380.201H1050.4V347.301Z" fill="#DFE1E8" />
						<path d="M1050.4 139.4H543.7V147.6H1050.4V139.4Z" fill="#DFE1E8" />
						<g>
							<path d="M1050.4 191.5H543.7V199.7H1050.4V191.5Z" fill="#DFE1E8" />
							<path d="M1050.4 232H543.7V240.2H1050.4V232Z" fill="#DFE1E8" />
							<path d="M1050.4 272.4H543.7V280.6H1050.4V272.4Z" fill="#DFE1E8" />
							<path d="M1050.4 312.8H543.7V321H1050.4V312.8Z" fill="#DFE1E8" />
						</g>
						<path d="M552.3 143H543.7V380.2H552.3V143Z" fill="#DFE1E8" />
						<path d="M1238.1 378.601H274.7V383.701H1238.1V378.601Z" fill="#DFE1E8" />
						<path d="M543.5 167.801V187.501H439.3V167.801H430.9V378.801H543.7V167.801H543.5V167.801ZM543.5 313.401H439.3V282.601H543.5V313.401ZM543.5 272.301H439.3V241.501H543.5V272.301ZM543.5 229.901H439.3V199.101H543.5V229.901Z" fill="#DFE1E8" />
						<path d="M1050.2 143H1041.6V380.2H1050.2V143Z" fill="#DFE1E8" />
					</g>
					<g>
						<g>
							<path d="M577.8 196.7H562.1C559.6 196.7 557.5 194.7 557.5 192.1V163C557.5 160.5 559.5 158.4 562.1 158.4H577.8C580.3 158.4 582.4 160.4 582.4 163V192.1C582.4 194.7 580.3 196.7 577.8 196.7Z" fill="#DFE1E8" />
							<path d="M607.7 196.7H592C589.5 196.7 587.4 194.7 587.4 192.1V163C587.4 160.5 589.4 158.4 592 158.4H607.7C610.2 158.4 612.3 160.4 612.3 163V192.1C612.3 194.7 610.2 196.7 607.7 196.7Z" fill="#DFE1E8" />
							<path d="M637.6 196.7H621.9C619.4 196.7 617.3 194.7 617.3 192.1V163C617.3 160.5 619.3 158.4 621.9 158.4H637.6C640.1 158.4 642.2 160.4 642.2 163V192.1C642.1 194.7 640.1 196.7 637.6 196.7Z" fill="#DFE1E8" />
							<path d="M667.4 196.7H651.7C649.2 196.7 647.1 194.7 647.1 192.1V163C647.1 160.5 649.1 158.4 651.7 158.4H667.4C669.9 158.4 672 160.4 672 163V192.1C672 194.7 670 196.7 667.4 196.7Z" fill="#DFE1E8" />
							<path d="M697.3 196.7H681.6C679.1 196.7 677 194.7 677 192.1V163C677 160.5 679 158.4 681.6 158.4H697.3C699.8 158.4 701.9 160.4 701.9 163V192.1C701.9 194.7 699.8 196.7 697.3 196.7Z" fill="#DFE1E8" />
							<path d="M727.2 196.7H711.5C709 196.7 706.9 194.7 706.9 192.1V163C706.9 160.5 708.9 158.4 711.5 158.4H727.2C729.7 158.4 731.8 160.4 731.8 163V192.1C731.8 194.7 729.7 196.7 727.2 196.7Z" fill="#DFE1E8" />
							<path d="M757.1 196.7H741.4C738.9 196.7 736.8 194.7 736.8 192.1V163C736.8 160.5 738.8 158.4 741.4 158.4H757.1C759.6 158.4 761.7 160.4 761.7 163V192.1C761.6 194.7 759.6 196.7 757.1 196.7Z" fill="#DFE1E8" />
							<path d="M786.9 196.7H771.2C768.7 196.7 766.6 194.7 766.6 192.1V163C766.6 160.5 768.6 158.4 771.2 158.4H786.9C789.4 158.4 791.5 160.4 791.5 163V192.1C791.5 194.7 789.5 196.7 786.9 196.7Z" fill="#DFE1E8" />
							<path d="M816.8 196.7H801.1C798.6 196.7 796.5 194.7 796.5 192.1V163C796.5 160.5 798.5 158.4 801.1 158.4H816.8C819.3 158.4 821.4 160.4 821.4 163V192.1C821.4 194.7 819.3 196.7 816.8 196.7Z" fill="#DFE1E8" />
							<path d="M846.7 196.7H831C828.5 196.7 826.4 194.7 826.4 192.1V163C826.4 160.5 828.4 158.4 831 158.4H846.7C849.2 158.4 851.3 160.4 851.3 163V192.1C851.3 194.7 849.2 196.7 846.7 196.7Z" fill="#DFE1E8" />
							<path d="M876.6 196.7H860.9C858.4 196.7 856.3 194.7 856.3 192.1V163C856.3 160.5 858.3 158.4 860.9 158.4H876.6C879.1 158.4 881.2 160.4 881.2 163V192.1C881.1 194.7 879.1 196.7 876.6 196.7Z" fill="#DFE1E8" />
							<path d="M906.4 196.7H890.7C888.2 196.7 886.1 194.7 886.1 192.1V163C886.1 160.5 888.1 158.4 890.7 158.4H906.4C908.9 158.4 911 160.4 911 163V192.1C911 194.7 909 196.7 906.4 196.7Z" fill="#DFE1E8" />
							<path d="M936.3 196.7H920.6C918.1 196.7 916 194.7 916 192.1V163C916 160.5 918 158.4 920.6 158.4H936.3C938.8 158.4 940.9 160.4 940.9 163V192.1C940.9 194.7 938.8 196.7 936.3 196.7Z" fill="#DFE1E8" />
							<path d="M966.2 196.7H950.5C948 196.7 945.9 194.7 945.9 192.1V163C945.9 160.5 947.9 158.4 950.5 158.4H966.2C968.7 158.4 970.8 160.4 970.8 163V192.1C970.8 194.7 968.7 196.7 966.2 196.7Z" fill="#DFE1E8" />
							<path d="M996.1 196.7H980.4C977.9 196.7 975.8 194.7 975.8 192.1V163C975.8 160.5 977.8 158.4 980.4 158.4H996.1C998.6 158.4 1000.7 160.4 1000.7 163V192.1C1000.6 194.7 998.6 196.7 996.1 196.7Z" fill="#DFE1E8" />
							<path d="M1025.9 196.7H1010.2C1007.7 196.7 1005.6 194.7 1005.6 192.1V163C1005.6 160.5 1007.6 158.4 1010.2 158.4H1025.9C1028.4 158.4 1030.5 160.4 1030.5 163V192.1C1030.5 194.7 1028.5 196.7 1025.9 196.7Z" fill="#DFE1E8" />
						</g>
						<g>
							<path d="M579.1 320.601H560.9C559.1 320.601 557.6 319.101 557.6 317.301V303.901C557.6 302.101 559.1 300.601 560.9 300.601H579.1C580.9 300.601 582.4 302.101 582.4 303.901V317.301C582.4 319.101 580.9 320.601 579.1 320.601Z" fill="#DFE1E8" />
							<path d="M609 320.601H590.8C589 320.601 587.5 319.101 587.5 317.301V303.901C587.5 302.101 589 300.601 590.8 300.601H609C610.8 300.601 612.3 302.101 612.3 303.901V317.301C612.3 319.101 610.8 320.601 609 320.601Z" fill="#DFE1E8" />
							<path d="M638.8 320.601H620.6C618.8 320.601 617.3 319.101 617.3 317.301V303.901C617.3 302.101 618.8 300.601 620.6 300.601H638.8C640.6 300.601 642.1 302.101 642.1 303.901V317.301C642.1 319.101 640.7 320.601 638.8 320.601Z" fill="#DFE1E8" />
							<path d="M668.7 320.601H650.5C648.7 320.601 647.2 319.101 647.2 317.301V303.901C647.2 302.101 648.7 300.601 650.5 300.601H668.7C670.5 300.601 672 302.101 672 303.901V317.301C672 319.101 670.5 320.601 668.7 320.601Z" fill="#DFE1E8" />
							<path d="M698.6 320.601H680.4C678.6 320.601 677.1 319.101 677.1 317.301V303.901C677.1 302.101 678.6 300.601 680.4 300.601H698.6C700.4 300.601 701.9 302.101 701.9 303.901V317.301C701.9 319.101 700.4 320.601 698.6 320.601Z" fill="#DFE1E8" />
							<path d="M728.5 320.601H710.3C708.5 320.601 707 319.101 707 317.301V303.901C707 302.101 708.5 300.601 710.3 300.601H728.5C730.3 300.601 731.8 302.101 731.8 303.901V317.301C731.8 319.101 730.3 320.601 728.5 320.601Z" fill="#DFE1E8" />
							<path d="M758.3 320.601H740.1C738.3 320.601 736.8 319.101 736.8 317.301V303.901C736.8 302.101 738.3 300.601 740.1 300.601H758.3C760.1 300.601 761.6 302.101 761.6 303.901V317.301C761.6 319.101 760.2 320.601 758.3 320.601Z" fill="#DFE1E8" />
							<path d="M788.2 320.601H770C768.2 320.601 766.7 319.101 766.7 317.301V303.901C766.7 302.101 768.2 300.601 770 300.601H788.2C790 300.601 791.5 302.101 791.5 303.901V317.301C791.5 319.101 790 320.601 788.2 320.601Z" fill="#DFE1E8" />
							<path d="M818.1 320.601H799.9C798.1 320.601 796.6 319.101 796.6 317.301V303.901C796.6 302.101 798.1 300.601 799.9 300.601H818.1C819.9 300.601 821.4 302.101 821.4 303.901V317.301C821.4 319.101 819.9 320.601 818.1 320.601Z" fill="#DFE1E8" />
							<path d="M847.9 320.601H829.7C827.9 320.601 826.4 319.101 826.4 317.301V303.901C826.4 302.101 827.9 300.601 829.7 300.601H847.9C849.7 300.601 851.2 302.101 851.2 303.901V317.301C851.3 319.101 849.8 320.601 847.9 320.601Z" fill="#DFE1E8" />
							<path d="M877.8 320.601H859.6C857.8 320.601 856.3 319.101 856.3 317.301V303.901C856.3 302.101 857.8 300.601 859.6 300.601H877.8C879.6 300.601 881.1 302.101 881.1 303.901V317.301C881.1 319.101 879.7 320.601 877.8 320.601Z" fill="#DFE1E8" />
							<path d="M907.7 320.601H889.5C887.7 320.601 886.2 319.101 886.2 317.301V303.901C886.2 302.101 887.7 300.601 889.5 300.601H907.7C909.5 300.601 911 302.101 911 303.901V317.301C911 319.101 909.5 320.601 907.7 320.601Z" fill="#DFE1E8" />
							<path d="M937.6 320.601H919.4C917.6 320.601 916.1 319.101 916.1 317.301V303.901C916.1 302.101 917.6 300.601 919.4 300.601H937.6C939.4 300.601 940.9 302.101 940.9 303.901V317.301C940.9 319.101 939.4 320.601 937.6 320.601Z" fill="#DFE1E8" />
							<path d="M967.4 320.601H949.2C947.4 320.601 945.9 319.101 945.9 317.301V303.901C945.9 302.101 947.4 300.601 949.2 300.601H967.4C969.2 300.601 970.7 302.101 970.7 303.901V317.301C970.8 319.101 969.3 320.601 967.4 320.601Z" fill="#DFE1E8" />
							<path d="M997.3 320.601H979.1C977.3 320.601 975.8 319.101 975.8 317.301V303.901C975.8 302.101 977.3 300.601 979.1 300.601H997.3C999.1 300.601 1000.6 302.101 1000.6 303.901V317.301C1000.6 319.101 999.1 320.601 997.3 320.601Z" fill="#DFE1E8" />
							<path d="M1027.2 320.601H1009C1007.2 320.601 1005.7 319.101 1005.7 317.301V303.901C1005.7 302.101 1007.2 300.601 1009 300.601H1027.2C1029 300.601 1030.5 302.101 1030.5 303.901V317.301C1030.5 319.101 1029 320.601 1027.2 320.601Z" fill="#DFE1E8" />
						</g>
						<g>
							<path d="M579.1 349H560.9C559.1 349 557.6 347.5 557.6 345.7V332.3C557.6 330.5 559.1 329 560.9 329H579.1C580.9 329 582.4 330.5 582.4 332.3V345.7C582.4 347.5 580.9 349 579.1 349Z" fill="#DFE1E8" />
							<path d="M609 349H590.8C589 349 587.5 347.5 587.5 345.7V332.3C587.5 330.5 589 329 590.8 329H609C610.8 329 612.3 330.5 612.3 332.3V345.7C612.3 347.5 610.8 349 609 349Z" fill="#DFE1E8" />
							<path d="M638.8 349H620.6C618.8 349 617.3 347.5 617.3 345.7V332.3C617.3 330.5 618.8 329 620.6 329H638.8C640.6 329 642.1 330.5 642.1 332.3V345.7C642.1 347.5 640.7 349 638.8 349Z" fill="#DFE1E8" />
							<path d="M668.7 349H650.5C648.7 349 647.2 347.5 647.2 345.7V332.3C647.2 330.5 648.7 329 650.5 329H668.7C670.5 329 672 330.5 672 332.3V345.7C672 347.5 670.5 349 668.7 349Z" fill="#DFE1E8" />
							<path d="M698.6 349H680.4C678.6 349 677.1 347.5 677.1 345.7V332.3C677.1 330.5 678.6 329 680.4 329H698.6C700.4 329 701.9 330.5 701.9 332.3V345.7C701.9 347.5 700.4 349 698.6 349Z" fill="#DFE1E8" />
							<path d="M728.5 349H710.3C708.5 349 707 347.5 707 345.7V332.3C707 330.5 708.5 329 710.3 329H728.5C730.3 329 731.8 330.5 731.8 332.3V345.7C731.8 347.5 730.3 349 728.5 349Z" fill="#DFE1E8" />
							<path d="M758.3 349H740.1C738.3 349 736.8 347.5 736.8 345.7V332.3C736.8 330.5 738.3 329 740.1 329H758.3C760.1 329 761.6 330.5 761.6 332.3V345.7C761.6 347.5 760.2 349 758.3 349Z" fill="#DFE1E8" />
							<path d="M788.2 349H770C768.2 349 766.7 347.5 766.7 345.7V332.3C766.7 330.5 768.2 329 770 329H788.2C790 329 791.5 330.5 791.5 332.3V345.7C791.5 347.5 790 349 788.2 349Z" fill="#DFE1E8" />
							<path d="M818.1 349H799.9C798.1 349 796.6 347.5 796.6 345.7V332.3C796.6 330.5 798.1 329 799.9 329H818.1C819.9 329 821.4 330.5 821.4 332.3V345.7C821.4 347.5 819.9 349 818.1 349Z" fill="#DFE1E8" />
							<path d="M847.9 349H829.7C827.9 349 826.4 347.5 826.4 345.7V332.3C826.4 330.5 827.9 329 829.7 329H847.9C849.7 329 851.2 330.5 851.2 332.3V345.7C851.3 347.5 849.8 349 847.9 349Z" fill="#DFE1E8" />
							<path d="M877.8 349H859.6C857.8 349 856.3 347.5 856.3 345.7V332.3C856.3 330.5 857.8 329 859.6 329H877.8C879.6 329 881.1 330.5 881.1 332.3V345.7C881.1 347.5 879.7 349 877.8 349Z" fill="#DFE1E8" />
							<path d="M907.7 349H889.5C887.7 349 886.2 347.5 886.2 345.7V332.3C886.2 330.5 887.7 329 889.5 329H907.7C909.5 329 911 330.5 911 332.3V345.7C911 347.5 909.5 349 907.7 349Z" fill="#DFE1E8" />
							<path d="M937.6 349H919.4C917.6 349 916.1 347.5 916.1 345.7V332.3C916.1 330.5 917.6 329 919.4 329H937.6C939.4 329 940.9 330.5 940.9 332.3V345.7C940.9 347.5 939.4 349 937.6 349Z" fill="#DFE1E8" />
							<path d="M967.4 349H949.2C947.4 349 945.9 347.5 945.9 345.7V332.3C945.9 330.5 947.4 329 949.2 329H967.4C969.2 329 970.7 330.5 970.7 332.3V345.7C970.8 347.5 969.3 349 967.4 349Z" fill="#DFE1E8" />
							<path d="M997.3 349H979.1C977.3 349 975.8 347.5 975.8 345.7V332.3C975.8 330.5 977.3 329 979.1 329H997.3C999.1 329 1000.6 330.5 1000.6 332.3V345.7C1000.6 347.5 999.1 349 997.3 349Z" fill="#DFE1E8" />
							<path d="M1027.2 349H1009C1007.2 349 1005.7 347.5 1005.7 345.7V332.3C1005.7 330.5 1007.2 329 1009 329H1027.2C1029 329 1030.5 330.5 1030.5 332.3V345.7C1030.5 347.5 1029 349 1027.2 349Z" fill="#DFE1E8" />
						</g>
						<g>
							<path d="M573.9 232.701H562.2C561.3 232.701 560.6 232.001 560.6 231.101V209.201C560.6 208.301 561.3 207.601 562.2 207.601H573.9C574.8 207.601 575.5 208.301 575.5 209.201V231.101C575.5 232.001 574.8 232.701 573.9 232.701Z" fill="#DFE1E8" />
							<path d="M595 232.701H583.3C582.4 232.701 581.7 232.001 581.7 231.101V209.201C581.7 208.301 582.4 207.601 583.3 207.601H595C595.9 207.601 596.6 208.301 596.6 209.201V231.101C596.6 232.001 595.9 232.701 595 232.701Z" fill="#DFE1E8" />
							<path d="M616.5 232.701H604.8C603.9 232.701 603.2 232.001 603.2 231.101V209.201C603.2 208.301 603.9 207.601 604.8 207.601H616.5C617.4 207.601 618.1 208.301 618.1 209.201V231.101C618.1 232.001 617.4 232.701 616.5 232.701Z" fill="#DFE1E8" />
							<path d="M637.7 232.701H626C625.1 232.701 624.4 232.001 624.4 231.101V209.201C624.4 208.301 625.1 207.601 626 207.601H637.7C638.6 207.601 639.3 208.301 639.3 209.201V231.101C639.2 232.001 638.5 232.701 637.7 232.701Z" fill="#DFE1E8" />
							<path d="M660.2 232.701H648.5C647.6 232.701 646.9 232.001 646.9 231.101V209.201C646.9 208.301 647.6 207.601 648.5 207.601H660.2C661.1 207.601 661.8 208.301 661.8 209.201V231.101C661.8 232.001 661 232.701 660.2 232.701Z" fill="#DFE1E8" />
							<path d="M681.3 232.701H669.6C668.7 232.701 668 232.001 668 231.101V209.201C668 208.301 668.7 207.601 669.6 207.601H681.3C682.2 207.601 682.9 208.301 682.9 209.201V231.101C682.9 232.001 682.2 232.701 681.3 232.701Z" fill="#DFE1E8" />
							<path d="M702.8 232.701H691.1C690.2 232.701 689.5 232.001 689.5 231.101V209.201C689.5 208.301 690.2 207.601 691.1 207.601H702.8C703.7 207.601 704.4 208.301 704.4 209.201V231.101C704.4 232.001 703.7 232.701 702.8 232.701Z" fill="#DFE1E8" />
							<path d="M723.9 232.701H712.2C711.3 232.701 710.6 232.001 710.6 231.101V209.201C710.6 208.301 711.3 207.601 712.2 207.601H723.9C724.8 207.601 725.5 208.301 725.5 209.201V231.101C725.5 232.001 724.8 232.701 723.9 232.701Z" fill="#DFE1E8" />
							<path d="M743.9 232.701H732.2C731.3 232.701 730.6 232.001 730.6 231.101V209.201C730.6 208.301 731.3 207.601 732.2 207.601H743.9C744.8 207.601 745.5 208.301 745.5 209.201V231.101C745.5 232.001 744.8 232.701 743.9 232.701Z" fill="#DFE1E8" />
							<path d="M765 232.701H753.3C752.4 232.701 751.7 232.001 751.7 231.101V209.201C751.7 208.301 752.4 207.601 753.3 207.601H765C765.9 207.601 766.6 208.301 766.6 209.201V231.101C766.6 232.001 765.9 232.701 765 232.701Z" fill="#DFE1E8" />
							<path d="M786.6 232.701H774.9C774 232.701 773.3 232.001 773.3 231.101V209.201C773.3 208.301 774 207.601 774.9 207.601H786.6C787.5 207.601 788.2 208.301 788.2 209.201V231.101C788.1 232.001 787.4 232.701 786.6 232.701Z" fill="#DFE1E8" />
							<path d="M807.7 232.701H796C795.1 232.701 794.4 232.001 794.4 231.101V209.201C794.4 208.301 795.1 207.601 796 207.601H807.7C808.6 207.601 809.3 208.301 809.3 209.201V231.101C809.3 232.001 808.5 232.701 807.7 232.701Z" fill="#DFE1E8" />
							<path d="M830.2 232.701H818.5C817.6 232.701 816.9 232.001 816.9 231.101V209.201C816.9 208.301 817.6 207.601 818.5 207.601H830.2C831.1 207.601 831.8 208.301 831.8 209.201V231.101C831.8 232.001 831.1 232.701 830.2 232.701Z" fill="#DFE1E8" />
							<path d="M851.3 232.701H839.6C838.7 232.701 838 232.001 838 231.101V209.201C838 208.301 838.7 207.601 839.6 207.601H851.3C852.2 207.601 852.9 208.301 852.9 209.201V231.101C852.9 232.001 852.2 232.701 851.3 232.701Z" fill="#DFE1E8" />
							<path d="M872.8 232.701H861.1C860.2 232.701 859.5 232.001 859.5 231.101V209.201C859.5 208.301 860.2 207.601 861.1 207.601H872.8C873.7 207.601 874.4 208.301 874.4 209.201V231.101C874.4 232.001 873.7 232.701 872.8 232.701Z" fill="#DFE1E8" />
							<path d="M893.9 232.701H882.2C881.3 232.701 880.6 232.001 880.6 231.101V209.201C880.6 208.301 881.3 207.601 882.2 207.601H893.9C894.8 207.601 895.5 208.301 895.5 209.201V231.101C895.5 232.001 894.8 232.701 893.9 232.701Z" fill="#DFE1E8" />
							<path d="M918.4 232.701H906.7C905.8 232.701 905.1 232.001 905.1 231.101V209.201C905.1 208.301 905.8 207.601 906.7 207.601H918.4C919.3 207.601 920 208.301 920 209.201V231.101C920 232.001 919.3 232.701 918.4 232.701Z" fill="#DFE1E8" />
							<path d="M939.6 232.701H927.9C927 232.701 926.3 232.001 926.3 231.101V209.201C926.3 208.301 927 207.601 927.9 207.601H939.6C940.5 207.601 941.2 208.301 941.2 209.201V231.101C941.1 232.001 940.4 232.701 939.6 232.701Z" fill="#DFE1E8" />
							<path d="M961.1 232.701H949.4C948.5 232.701 947.8 232.001 947.8 231.101V209.201C947.8 208.301 948.5 207.601 949.4 207.601H961.1C962 207.601 962.7 208.301 962.7 209.201V231.101C962.6 232.001 961.9 232.701 961.1 232.701Z" fill="#DFE1E8" />
							<path d="M982.2 232.701H970.5C969.6 232.701 968.9 232.001 968.9 231.101V209.201C968.9 208.301 969.6 207.601 970.5 207.601H982.2C983.1 207.601 983.8 208.301 983.8 209.201V231.101C983.8 232.001 983.1 232.701 982.2 232.701Z" fill="#DFE1E8" />
							<path d="M1004.7 232.701H993C992.1 232.701 991.4 232.001 991.4 231.101V209.201C991.4 208.301 992.1 207.601 993 207.601H1004.7C1005.6 207.601 1006.3 208.301 1006.3 209.201V231.101C1006.3 232.001 1005.6 232.701 1004.7 232.701Z" fill="#DFE1E8" />
							<path d="M1025.8 232.701H1014.1C1013.2 232.701 1012.5 232.001 1012.5 231.101V209.201C1012.5 208.301 1013.2 207.601 1014.1 207.601H1025.8C1026.7 207.601 1027.4 208.301 1027.4 209.201V231.101C1027.4 232.001 1026.7 232.701 1025.8 232.701Z" fill="#DFE1E8" />
						</g>
						<g>
							<path d="M574.9 275.401H563.2C562.3 275.401 561.6 274.701 561.6 273.801V251.901C561.6 251.001 562.3 250.301 563.2 250.301H574.9C575.8 250.301 576.5 251.001 576.5 251.901V273.801C576.5 274.701 575.8 275.401 574.9 275.401Z" fill="#DFE1E8" />
							<path d="M596.1 275.401H584.4C583.5 275.401 582.8 274.701 582.8 273.801V251.901C582.8 251.001 583.5 250.301 584.4 250.301H596.1C597 250.301 597.7 251.001 597.7 251.901V273.801C597.6 274.701 596.9 275.401 596.1 275.401Z" fill="#DFE1E8" />
							<path d="M617.6 275.401H605.9C605 275.401 604.3 274.701 604.3 273.801V251.901C604.3 251.001 605 250.301 605.9 250.301H617.6C618.5 250.301 619.2 251.001 619.2 251.901V273.801C619.2 274.701 618.4 275.401 617.6 275.401Z" fill="#DFE1E8" />
							<path d="M638.7 275.401H627C626.1 275.401 625.4 274.701 625.4 273.801V251.901C625.4 251.001 626.1 250.301 627 250.301H638.7C639.6 250.301 640.3 251.001 640.3 251.901V273.801C640.3 274.701 639.6 275.401 638.7 275.401Z" fill="#DFE1E8" />
							<path d="M661.2 275.401H649.5C648.6 275.401 647.9 274.701 647.9 273.801V251.901C647.9 251.001 648.6 250.301 649.5 250.301H661.2C662.1 250.301 662.8 251.001 662.8 251.901V273.801C662.8 274.701 662.1 275.401 661.2 275.401Z" fill="#DFE1E8" />
							<path d="M682.3 275.401H670.6C669.7 275.401 669 274.701 669 273.801V251.901C669 251.001 669.7 250.301 670.6 250.301H682.3C683.2 250.301 683.9 251.001 683.9 251.901V273.801C683.9 274.701 683.2 275.401 682.3 275.401Z" fill="#DFE1E8" />
							<path d="M703.8 275.401H692.1C691.2 275.401 690.5 274.701 690.5 273.801V251.901C690.5 251.001 691.2 250.301 692.1 250.301H703.8C704.7 250.301 705.4 251.001 705.4 251.901V273.801C705.4 274.701 704.7 275.401 703.8 275.401Z" fill="#DFE1E8" />
							<path d="M724.9 275.401H713.2C712.3 275.401 711.6 274.701 711.6 273.801V251.901C711.6 251.001 712.3 250.301 713.2 250.301H724.9C725.8 250.301 726.5 251.001 726.5 251.901V273.801C726.5 274.701 725.8 275.401 724.9 275.401Z" fill="#DFE1E8" />
							<path d="M744.9 275.401H733.2C732.3 275.401 731.6 274.701 731.6 273.801V251.901C731.6 251.001 732.3 250.301 733.2 250.301H744.9C745.8 250.301 746.5 251.001 746.5 251.901V273.801C746.5 274.701 745.8 275.401 744.9 275.401Z" fill="#DFE1E8" />
							<path d="M766.1 275.401H754.4C753.5 275.401 752.8 274.701 752.8 273.801V251.901C752.8 251.001 753.5 250.301 754.4 250.301H766.1C767 250.301 767.7 251.001 767.7 251.901V273.801C767.6 274.701 766.9 275.401 766.1 275.401Z" fill="#DFE1E8" />
							<path d="M787.6 275.401H775.9C775 275.401 774.3 274.701 774.3 273.801V251.901C774.3 251.001 775 250.301 775.9 250.301H787.6C788.5 250.301 789.2 251.001 789.2 251.901V273.801C789.2 274.701 788.4 275.401 787.6 275.401Z" fill="#DFE1E8" />
							<path d="M808.7 275.401H797C796.1 275.401 795.4 274.701 795.4 273.801V251.901C795.4 251.001 796.1 250.301 797 250.301H808.7C809.6 250.301 810.3 251.001 810.3 251.901V273.801C810.3 274.701 809.6 275.401 808.7 275.401Z" fill="#DFE1E8" />
							<path d="M831.2 275.401H819.5C818.6 275.401 817.9 274.701 817.9 273.801V251.901C817.9 251.001 818.6 250.301 819.5 250.301H831.2C832.1 250.301 832.8 251.001 832.8 251.901V273.801C832.8 274.701 832.1 275.401 831.2 275.401Z" fill="#DFE1E8" />
							<g>
								<path d="M852.9 275.401H840.1C839.5 275.401 839.1 274.901 839.1 274.401V266.001C839.1 265.401 839.6 265.001 840.1 265.001H852.9C853.5 265.001 853.9 265.501 853.9 266.001V274.401C853.9 274.901 853.4 275.401 852.9 275.401Z" fill="#DFE1E8" />
								<path d="M874.4 275.401H861.6C861 275.401 860.6 274.901 860.6 274.401V266.001C860.6 265.401 861.1 265.001 861.6 265.001H874.4C875 265.001 875.4 265.501 875.4 266.001V274.401C875.5 274.901 875 275.401 874.4 275.401Z" fill="#DFE1E8" />
								<path d="M896 275.401H883.2C882.6 275.401 882.2 274.901 882.2 274.401V266.001C882.2 265.401 882.7 265.001 883.2 265.001H896C896.6 265.001 897 265.501 897 266.001V274.401C897 274.901 896.6 275.401 896 275.401Z" fill="#DFE1E8" />
								<path d="M917.6 275.401H904.8C904.2 275.401 903.8 274.901 903.8 274.401V266.001C903.8 265.401 904.3 265.001 904.8 265.001H917.6C918.2 265.001 918.6 265.501 918.6 266.001V274.401C918.6 274.901 918.1 275.401 917.6 275.401Z" fill="#DFE1E8" />
								<path d="M939.1 275.401H926.3C925.7 275.401 925.3 274.901 925.3 274.401V266.001C925.3 265.401 925.8 265.001 926.3 265.001H939.1C939.7 265.001 940.1 265.501 940.1 266.001V274.401C940.1 274.901 939.7 275.401 939.1 275.401Z" fill="#DFE1E8" />
								<path d="M960.7 275.401H947.9C947.3 275.401 946.9 274.901 946.9 274.401V266.001C946.9 265.401 947.4 265.001 947.9 265.001H960.7C961.3 265.001 961.7 265.501 961.7 266.001V274.401C961.7 274.901 961.2 275.401 960.7 275.401Z" fill="#DFE1E8" />
								<path d="M982.2 275.401H969.4C968.8 275.401 968.4 274.901 968.4 274.401V266.001C968.4 265.401 968.9 265.001 969.4 265.001H982.2C982.8 265.001 983.2 265.501 983.2 266.001V274.401C983.3 274.901 982.8 275.401 982.2 275.401Z" fill="#DFE1E8" />
								<path d="M1003.8 275.401H991C990.4 275.401 990 274.901 990 274.401V266.001C990 265.401 990.5 265.001 991 265.001H1003.8C1004.4 265.001 1004.8 265.501 1004.8 266.001V274.401C1004.8 274.901 1004.4 275.401 1003.8 275.401Z" fill="#DFE1E8" />
								<path d="M1025.3 275.401H1012.5C1011.9 275.401 1011.5 274.901 1011.5 274.401V266.001C1011.5 265.401 1012 265.001 1012.5 265.001H1025.3C1025.9 265.001 1026.3 265.501 1026.3 266.001V274.401C1026.4 274.901 1025.9 275.401 1025.3 275.401Z" fill="#DFE1E8" />
							</g>
							<g>
								<path d="M841.9 265.201H829C828.4 265.201 828 264.701 828 264.201V255.801C828 255.201 828.5 254.801 829 254.801H841.8C842.4 254.801 842.8 255.301 842.8 255.801V264.201C842.9 264.701 842.4 265.201 841.9 265.201Z" fill="#DFE1E8" />
								<path d="M863.4 265.201H850.6C850 265.201 849.6 264.701 849.6 264.201V255.801C849.6 255.201 850.1 254.801 850.6 254.801H863.4C864 254.801 864.4 255.301 864.4 255.801V264.201C864.4 264.701 864 265.201 863.4 265.201Z" fill="#DFE1E8" />
								<path d="M885 265.201H872.2C871.6 265.201 871.2 264.701 871.2 264.201V255.801C871.2 255.201 871.7 254.801 872.2 254.801H885C885.6 254.801 886 255.301 886 255.801V264.201C886 264.701 885.5 265.201 885 265.201Z" fill="#DFE1E8" />
								<path d="M906.5 265.201H893.7C893.1 265.201 892.7 264.701 892.7 264.201V255.801C892.7 255.201 893.2 254.801 893.7 254.801H906.5C907.1 254.801 907.5 255.301 907.5 255.801V264.201C907.5 264.701 907.1 265.201 906.5 265.201Z" fill="#DFE1E8" />
								<path d="M928.1 265.201H915.3C914.7 265.201 914.3 264.701 914.3 264.201V255.801C914.3 255.201 914.8 254.801 915.3 254.801H928.1C928.7 254.801 929.1 255.301 929.1 255.801V264.201C929.1 264.701 928.7 265.201 928.1 265.201Z" fill="#DFE1E8" />
								<path d="M949.6 265.201H936.8C936.2 265.201 935.8 264.701 935.8 264.201V255.801C935.8 255.201 936.3 254.801 936.8 254.801H949.6C950.2 254.801 950.6 255.301 950.6 255.801V264.201C950.7 264.701 950.2 265.201 949.6 265.201Z" fill="#DFE1E8" />
								<path d="M971.2 265.201H958.4C957.8 265.201 957.4 264.701 957.4 264.201V255.801C957.4 255.201 957.9 254.801 958.4 254.801H971.2C971.8 254.801 972.2 255.301 972.2 255.801V264.201C972.2 264.701 971.8 265.201 971.2 265.201Z" fill="#DFE1E8" />
								<path d="M992.8 265.201H980C979.4 265.201 979 264.701 979 264.201V255.801C979 255.201 979.5 254.801 980 254.801H992.8C993.4 254.801 993.8 255.301 993.8 255.801V264.201C993.8 264.701 993.3 265.201 992.8 265.201Z" fill="#DFE1E8" />
								<path d="M1014.3 265.201H1001.5C1000.9 265.201 1000.5 264.701 1000.5 264.201V255.801C1000.5 255.201 1001 254.801 1001.5 254.801H1014.3C1014.9 254.801 1015.3 255.301 1015.3 255.801V264.201C1015.3 264.701 1014.9 265.201 1014.3 265.201Z" fill="#DFE1E8" />
							</g>
						</g>
					</g>
				</g>
			</g>
		</g>
		<g class="svgIcon svgIcon5">
			<g>
				<path d="M1130.5 152V139.4H1144.4L1150 152" fill="#A2AFF9" />
			</g>
			<path d="M1147.7 152L1142 139.4H1128.1V152V378.3H1148V152H1147.7Z" fill="url(#paint0_linear_102_23523)" />
			<g>
				<g>
					<g>
						<g>
							<g>
								<g>
									<g>
										<g>
											<g>
												<path d="M1097.7 195.4H1082.1V218.3H1097.7V195.4Z" fill="#FEDA8C" />
												<path d="M1082.1 195.4H1077.9V218.3H1082.1V195.4Z" fill="#F7C559" />
											</g>
											<path d="M1097.6 203.5H1077.9V208.4H1097.6V203.5Z" fill="#E30313" />
										</g>
										<g>
											<g>
												<path d="M1120.9 195.4H1105.3V218.3H1120.9V195.4Z" fill="#FEDA8C" />
												<path d="M1105.4 195.4H1101.2V218.3H1105.4V195.4Z" fill="#F7C559" />
											</g>
											<path d="M1120.9 203.5H1101.2V208.4H1120.9V203.5Z" fill="#E30313" />
											<path d="M1105.4 203.5H1101.2V208.4H1105.4V203.5Z" fill="#AD1917" />
										</g>
										<g>
											<g>
												<path d="M1143.7 195.4H1128.1V218.3H1143.7V195.4Z" fill="#FEDA8C" />
												<path d="M1128.1 195.4H1123.9V218.3H1128.1V195.4Z" fill="#F7C559" />
											</g>
											<path d="M1143.6 203.5H1123.9V208.4H1143.6V203.5Z" fill="#E30313" />
											<path d="M1128.1 203.5H1123.9V208.4H1128.1V203.5Z" fill="#AD1917" />
											<path d="M1128.1 203.5H1123.9V208.4H1128.1V203.5Z" fill="#AD1917" />
										</g>
									</g>
									<path d="M1147.7 218.301H1074.3V222.801H1147.7V218.301Z" fill="#A2AFF9" />
								</g>
								<path d="M1094.5 222.801L1080 226.801L1074.3 227.501V218.301H1094.5V222.801Z" fill="#7D84E2" />
							</g>
							<g>
								<g>
									<g>
										<g>
											<g>
												<path d="M1097.7 154.5H1082.1V177.4H1097.7V154.5Z" fill="#FEDA8C" />
												<path d="M1082.1 154.5H1077.9V177.4H1082.1V154.5Z" fill="#F7C559" />
											</g>
											<path d="M1097.6 162.6H1077.9V167.5H1097.6V162.6Z" fill="#E30313" />
										</g>
										<g>
											<g>
												<path d="M1120.9 154.5H1105.3V177.4H1120.9V154.5Z" fill="#FEDA8C" />
												<path d="M1105.4 154.5H1101.2V177.4H1105.4V154.5Z" fill="#F7C559" />
											</g>
											<path d="M1120.9 162.6H1101.2V167.5H1120.9V162.6Z" fill="#E30313" />
											<path d="M1105.4 162.6H1101.2V167.5H1105.4V162.6Z" fill="#AD1917" />
										</g>
										<g>
											<g>
												<path d="M1143.7 154.5H1128.1V177.4H1143.7V154.5Z" fill="#FEDA8C" />
												<path d="M1128.1 154.5H1123.9V177.4H1128.1V154.5Z" fill="#F7C559" />
											</g>
											<path d="M1143.6 162.6H1123.9V167.5H1143.6V162.6Z" fill="#E30313" />
											<path d="M1128.1 162.6H1123.9V167.5H1128.1V162.6Z" fill="#AD1917" />
											<path d="M1128.1 162.6H1123.9V167.5H1128.1V162.6Z" fill="#AD1917" />
										</g>
									</g>
									<path d="M1147.7 177.4H1074.3V181.9H1147.7V177.4Z" fill="#A2AFF9" />
								</g>
								<path d="M1094.5 181.9L1080 185.9L1074.3 186.6V177.4H1094.5V181.9Z" fill="#656DD6" />
							</g>
							<g>
								<g>
									<g>
										<g>
											<path d="M1097.7 231.6H1082.1V254.5H1097.7V231.6Z" fill="#FEDA8C" />
											<path d="M1082.1 231.6H1077.9V254.5H1082.1V231.6Z" fill="#F7C559" />
										</g>
										<path d="M1097.6 239.699H1077.9V244.599H1097.6V239.699Z" fill="#76C8D8" />
									</g>
									<g>
										<g>
											<path d="M1120.9 231.6H1105.3V254.5H1120.9V231.6Z" fill="#FEDA8C" />
											<path d="M1105.4 231.6H1101.2V254.5H1105.4V231.6Z" fill="#F7C559" />
										</g>
									</g>
									<g>
										<g>
											<path d="M1143.7 231.6H1128.1V254.5H1143.7V231.6Z" fill="#FEDA8C" />
											<path d="M1128.1 231.6H1123.9V254.5H1128.1V231.6Z" fill="#F7C559" />
										</g>
									</g>
								</g>
								<path d="M1147.7 254.5H1074.3V259H1147.7V254.5Z" fill="#A2AFF9" />
							</g>
							<g>
								<g>
									<g>
										<g>
											<path d="M1097.7 267.7H1082.1V290.6H1097.7V267.7Z" fill="#A7D07D" />
											<path d="M1082.1 267.7H1077.9V290.6H1082.1V267.7Z" fill="#F7C559" />
										</g>
										<path d="M1097.6 275.8H1077.9V280.7H1097.6V275.8Z" fill="white" />
									</g>
									<g>
										<g>
											<path d="M1120.9 267.7H1105.3V290.6H1120.9V267.7Z" fill="#A7D07D" />
											<path d="M1105.4 267.7H1101.2V290.6H1105.4V267.7Z" fill="#70B42C" />
										</g>
										<path d="M1120.9 275.8H1101.2V280.7H1120.9V275.8Z" fill="white" />
										<path d="M1105.4 275.8H1101.2V280.7H1105.4V275.8Z" fill="#DFE1E8" />
									</g>
									<g>
										<g>
											<path d="M1143.7 267.7H1128.1V290.6H1143.7V267.7Z" fill="#A7D07D" />
											<path d="M1128.1 267.7H1123.9V290.6H1128.1V267.7Z" fill="#70B42C" />
										</g>
										<path d="M1143.6 275.8H1123.9V280.7H1143.6V275.8Z" fill="white" />
										<path d="M1128.1 275.8H1123.9V280.7H1128.1V275.8Z" fill="#DFE1E8" />
									</g>
								</g>
								<path d="M1147.7 290.601H1074.3V295.101H1147.7V290.601Z" fill="#A2AFF9" />
							</g>
							<g>
								<g>
									<g>
										<g>
											<path d="M1097.7 303.9H1082.1V326.8H1097.7V303.9Z" fill="#FEDA8C" />
											<path d="M1082.1 303.9H1077.9V326.8H1082.1V303.9Z" fill="#F7C559" />
										</g>
										<path d="M1097.6 312H1077.9V316.9H1097.6V312Z" fill="#E30313" />
									</g>
									<g>
										<g>
											<path d="M1120.9 303.9H1105.3V326.8H1120.9V303.9Z" fill="#FEDA8C" />
											<path d="M1105.4 303.9H1101.2V326.8H1105.4V303.9Z" fill="#F7C559" />
										</g>
										<path d="M1120.9 312H1101.2V316.9H1120.9V312Z" fill="#E30313" />
									</g>
									<g>
										<g>
											<path d="M1143.7 303.9H1128.1V326.8H1143.7V303.9Z" fill="#FEDA8C" />
											<path d="M1128.1 303.9H1123.9V326.8H1128.1V303.9Z" fill="#F7C559" />
										</g>
										<path d="M1143.6 312H1123.9V316.9H1143.6V312Z" fill="#E30313" />
									</g>
								</g>
								<path d="M1147.7 326.801H1074.3V331.301H1147.7V326.801Z" fill="#A2AFF9" />
							</g>
							<path d="M1082.1 182.9H1062.2V378.3H1082.1V182.9Z" fill="#888FA6" />
							<path d="M1084.5 152H1082.1V354.6H1084.5V152Z" fill="#A2AFF9" />
							<path d="M1150.1 152H1147.7V378.3H1150.1V152Z" fill="#A2AFF9" />
							<path d="M1148 348.8H1062.2V378.3H1148V348.8Z" fill="#A2AFF9" />
							<path d="M1148 352.1H1062.2V378.2H1148V352.1Z" fill="url(#paint1_linear_102_23523)" />
							<path d="M1082.1 348.8H1062.2V378.3H1082.1V348.8Z" fill="#656DD6" />
						</g>
						<path d="M1094.5 258.9L1080 262.9L1074.3 263.6V254.5H1094.5V258.9Z" fill="#656DD6" />
						<path d="M1094.5 295.1L1080 299.1L1074.3 299.8V290.6H1094.5V295.1Z" fill="#656DD6" />
						<path d="M1094.5 331.2L1080 335.2L1074.3 335.9V326.8H1094.5V331.2Z" fill="#656DD6" />
					</g>
					<g>
						<path d="M1064.5 152V139.4H1078.5L1084.4 152" fill="#A2AFF9" />
						<path d="M1076.1 139.4H1062.2V152V378.3H1082.1V152L1076.1 139.4Z" fill="url(#paint2_linear_102_23523)" />
					</g>
				</g>
				<g>
					<g>
						<g>
							<path d="M1147.1 216.3C1147.1 216.3 1146.6 212.3 1144 211C1141.4 209.7 1138.7 213.5 1138.7 214.8C1138.7 215.5 1139.6 217.4 1141.2 218.4C1142.7 219.3 1143.6 220.4 1144 220.5C1144.9 220.7 1147.3 217.7 1147.1 216.3Z" fill="#F7B29A" />
						</g>
					</g>
					<path d="M1167 235.001L1180 222.101L1186.5 229.701C1186.5 229.701 1177.5 248.001 1170.9 247.401C1164.7 246.901 1142.8 219.901 1142.8 219.901L1147.1 216.301L1167.5 230.501L1173.9 234.501" fill="#F7B29A" />
					<path d="M1170.9 247.401C1174.8 247.701 1179.6 241.301 1182.8 236.101L1177.6 231.601C1177.6 231.601 1174.3 243.301 1170.7 243.901C1167.1 244.501 1157.4 236.401 1157.2 236.301C1162.7 242.001 1168.2 247.101 1170.9 247.401Z" fill="#D48068" />
					<g>
						<g>
							<path d="M1143.7 195.4H1128.1V218.3H1143.7V195.4Z" fill="#FEDA8C" />
							<path d="M1128.1 195.4H1123.9V218.3H1128.1V195.4Z" fill="#F7C559" />
						</g>
						<path d="M1143.6 203.5H1123.9V208.4H1143.6V203.5Z" fill="#E30313" />
						<path d="M1128.1 203.5H1123.9V208.4H1128.1V203.5Z" fill="#AD1917" />
						<path d="M1128.1 203.5H1123.9V208.4H1128.1V203.5Z" fill="#AD1917" />
					</g>
					<path d="M1146.1 213.1C1146.1 213.1 1145.4 209.2 1145.3 208.6C1145.1 207.8 1144.1 208.2 1143.8 209.2C1143.5 210.5 1143.6 212.1 1143.6 212.1" fill="#F7B29A" />
				</g>
				<g>
					<path d="M1185.7 214.2L1172.6 229.6L1185.7 239.2L1193.1 220.5" fill="#842857" />
					<g>
						<g>
							<g>
								<g>
									<path d="M1190.4 369.9V375.5C1190.4 376.7 1189.4 377.7 1188.2 377.7H1172.3C1171.3 377.7 1170.8 376.5 1171.5 375.8C1172.2 375.1 1175.3 373.5 1177.6 372.5C1182.4 370.5 1184.7 370.4 1184.7 370.4L1190.4 369.9Z" fill="#1F1341" />
									<path d="M1220.3 369.9V375.5C1220.3 376.7 1219.3 377.7 1218.1 377.7H1202.2C1201.2 377.7 1200.7 376.5 1201.4 375.8C1202.1 375.1 1205.2 373.5 1207.5 372.5C1212.3 370.5 1214.6 370.4 1214.6 370.4L1220.3 369.9Z" fill="#1F1341" />
								</g>
								<g>
									<path d="M1182.8 266.1L1181.1 371.3H1190.3C1190.3 371.3 1204 304.8 1202.1 284.9C1200.4 264.9 1183.9 259.8 1182.8 266.1Z" fill="#76A5D9" />
									<path d="M1201.6 290C1196.7 280.3 1195 295.6 1195 295.6C1195 295.6 1193.6 353.4 1187.6 371.2L1190.4 371.3C1190.4 371.3 1198.7 330.2 1201.5 303.3C1201.6 301.4 1201.6 299.9 1201.6 299C1201.6 297.1 1201.8 296 1202.1 295.4C1202.2 294 1202.2 292.7 1202.3 291.5C1202.1 291 1201.9 290.5 1201.6 290Z" fill="#54579E" />
									<path d="M1193.5 282.9C1193.5 282.9 1199.9 318.4 1202.4 330C1204.9 341.6 1211.3 371.201 1211.3 371.201H1220.3C1220.3 371.201 1222.3 328 1217.7 316.9C1213.1 305.8 1222.4 267.601 1210.7 265.601C1199 263.601 1193 273 1193 273" fill="#76A5D9" />
									<path d="M1220.3 371.2C1220.3 371.2 1222.3 328 1217.7 316.9C1215.1 310.8 1216.8 296.4 1216.9 284.3C1217 274.6 1219.5 289.1 1214.3 288.2C1214.3 288.2 1212.3 282.2 1212.3 288.4C1212.3 293.3 1212.6 298.4 1212.4 302.9C1211.9 318.1 1217 320 1218.2 336.2" fill="#54579E" />
								</g>
								<path d="M1198.4 208.5C1198.4 208.5 1185.7 209.3 1182.7 219.4C1179.7 229.5 1181.2 273.6 1181.2 273.6C1181.2 273.6 1209.6 277.5 1219.7 268.9C1219.7 268.9 1219.3 256.4 1220 247.9C1221.3 231.8 1223.5 214.3 1217.3 211.9C1207.7 208 1198.4 208.5 1198.4 208.5Z" fill="#842857" />
								<path d="M1207.2 209.301L1209.3 198.601L1200.3 202.401L1198.5 208.501C1198.5 208.501 1198.3 212.101 1207.2 209.301Z" fill="#F7B29A" />
								<path d="M1199.6 204.6L1198.9 206.8C1198.9 206.8 1203.9 206.9 1203.9 204.6C1204 202.2 1199.6 204.6 1199.6 204.6Z" fill="#D48068" />
								<path d="M1200.8 182.601C1200.8 182.601 1198.4 188.601 1200.3 190.701C1202.2 192.801 1205.4 187.701 1205.4 187.701" fill="#1F1341" />
								<g>
									<path d="M1197 185.7C1197 185.7 1195 191.6 1197.6 192C1200.2 192.4 1200.4 187.5 1200.4 187.5" fill="#1F1341" />
									<path d="M1199.1 187.7C1199.1 187.7 1199.1 184.3 1198.4 185.7C1197.6 187.6 1195.7 192.5 1195.7 196.6C1195.7 202.8 1198.3 205.5 1199.9 205.5C1202 205.5 1204.3 204.2 1205.6 204C1207.2 203.7 1207.4 204.9 1207.1 204.8L1212.1 193.8L1206.8 186.2L1199.1 187.7Z" fill="#F7B29A" />
									<path d="M1207.2 190.9C1207.2 190.9 1196.6 191.5 1196.6 185.1C1196.6 180.5 1199 178.7 1201.9 178.7C1205.9 178.7 1209.9 180 1212.1 183.6C1214.1 186.8 1215.3 187.1 1215.3 190.6C1215.3 194.7 1211.4 201 1208.9 200.7C1206.4 200.4 1206.2 194.9 1207.2 190.9Z" fill="#1F1341" />
									<path d="M1206.3 196.1C1206.3 196.1 1208.3 194.4 1209.3 196.3C1210.3 198.2 1208.4 200 1205.9 199.9" fill="#F7B29A" />
								</g>
							</g>
							<path d="M1172.6 255.4C1175.1 254 1179.9 253.5 1184.8 252.1C1194.5 249.4 1205.5 246.3 1205.5 246.3L1207.6 235L1219.9 237.9C1219.9 237.9 1216.8 254.3 1215.2 256.2C1213.6 258.1 1181.6 260.3 1181.6 260.3L1172.6 255.4Z" fill="#F7B29A" />
							<path d="M1219.9 238.2C1219.4 240.8 1216.7 254.3 1215.3 256C1214.7 256.8 1208.4 257.6 1201.2 258.3C1201.2 258.3 1211 256 1212.2 254.1C1213.3 252.5 1216 240.3 1216.7 236.9L1218.9 237.4L1219.9 238.2Z" fill="#D48068" />
							<g>
								<g>
									<g>
										<path d="M1171.7 269.5L1175.9 288.6C1176.2 290 1177.4 290.9 1178.8 290.9H1213.8C1215.1 290.9 1216.3 290 1216.6 288.7L1221.4 269.6C1221.9 267.7 1220.6 265.9 1218.7 265.9H1174.4C1172.6 265.9 1171.3 267.7 1171.7 269.5ZM1210.3 286.3L1213.1 273C1213.2 272.4 1213.9 271.8 1214.5 271.8C1215.1 271.8 1215.5 272.3 1215.4 273L1212.2 286.3C1212.1 286.7 1211.6 287.1 1211.1 287.1C1210.6 287.1 1210.2 286.7 1210.3 286.3ZM1204.4 286.3L1206 273C1206.1 272.4 1206.7 271.8 1207.3 271.8C1207.9 271.8 1208.4 272.3 1208.3 273L1206.3 286.3C1206.2 286.7 1205.8 287.1 1205.3 287.1C1204.8 287.1 1204.4 286.7 1204.4 286.3ZM1198.5 286.3L1198.9 273C1198.9 272.4 1199.4 271.8 1200.1 271.8C1200.8 271.8 1201.2 272.3 1201.2 273L1200.4 286.3C1200.4 286.7 1199.9 287.1 1199.4 287.1C1198.9 287.1 1198.5 286.7 1198.5 286.3ZM1191.8 273C1191.8 272.4 1192.2 271.8 1192.9 271.8C1193.5 271.8 1194.1 272.3 1194.1 273L1194.5 286.3C1194.5 286.7 1194.1 287.1 1193.6 287.1C1193.1 287.1 1192.7 286.7 1192.6 286.3L1191.8 273ZM1184.7 273C1184.6 272.4 1185 271.8 1185.7 271.8C1186.3 271.8 1186.9 272.3 1187 273L1188.6 286.3C1188.7 286.7 1188.3 287.1 1187.8 287.1C1187.3 287.1 1186.8 286.7 1186.8 286.3L1184.7 273ZM1178.5 271.8C1179.1 271.8 1179.7 272.3 1179.9 273L1182.7 286.3C1182.8 286.7 1182.5 287.1 1181.9 287.1C1181.3 287.1 1180.9 286.7 1180.8 286.3L1177.6 273C1177.5 272.4 1177.9 271.8 1178.5 271.8Z" fill="#E30313" />
									</g>
								</g>
								<g>
									<path d="M1193.8 248.4L1196.6 269.4C1196.7 270.2 1197.4 270.7 1198.1 270.6C1198.9 270.5 1199.4 269.8 1199.3 269.1L1196.5 248.1C1196.4 247.3 1195.7 246.8 1195 246.9C1194.2 247 1193.7 247.7 1193.8 248.4Z" fill="#E30313" />
								</g>
							</g>
							<path d="M1215.3 211.101C1215.3 211.101 1223.2 213.301 1223.8 222.201C1224.4 231.101 1221.8 239.201 1221.8 239.201L1203.8 233.901" fill="#842857" />
							<g>
								<path d="M1173.6 254.1C1172.4 253.8 1170.8 253.4 1169.7 252.7C1168.6 252.1 1168.6 250.7 1169.9 250.9C1171.2 251.1 1174.4 251.9 1176.1 252.5" fill="#F7B29A" />
								<path d="M1168.9 245.101L1175.1 263.201H1163.4L1157.2 245.101H1168.9Z" fill="#A7D07D" />
								<g>
									<path d="M1181.8 253.301C1179.9 253.201 1175.1 252.201 1173.7 252.101C1172.4 252.001 1171.7 254.201 1170.8 256.301C1170 258.101 1170.9 259.601 1172.9 259.901C1174.3 260.101 1180.4 260.501 1182.7 260.001" fill="#F7B29A" />
									<path d="M1174 260.001C1172.1 260.101 1170.1 259.201 1169.4 258.701C1168.7 258.201 1167 256.601 1167.4 255.901C1167.8 255.401 1168.5 255.401 1169.1 256.101C1169.5 256.601 1170.2 257.101 1171 257.101" fill="#F7B29A" />
									<path d="M1171.8 258.101C1170.2 257.901 1168.3 257.601 1167.6 257.201C1166.9 256.801 1165.8 255.101 1166.4 254.501C1166.9 254.001 1167.4 254.501 1167.8 255.001C1168.2 255.501 1168.6 255.801 1169.4 255.901C1170.2 255.901 1170.7 255.901 1172 255.801" fill="#F7B29A" />
									<path d="M1171.4 256.301C1169.8 256.301 1167.3 256.001 1166.6 255.701C1165.8 255.401 1164.3 254.501 1164.7 253.901C1165 253.401 1165.8 253.601 1166.4 253.701C1167.9 253.901 1170.9 253.901 1172.5 253.701" fill="#F7B29A" />
								</g>
							</g>
						</g>
					</g>
				</g>
			</g>
		</g>
		<g class="svgIcon svgIcon4">
			<g>
				<g>
					<path d="M360.6 253.001C360.6 253.001 357.6 250.201 354.8 251.001C352 251.801 352.3 256.301 353.3 257.401C353.8 257.901 355.6 258.801 357.5 258.501C359.2 258.201 360.7 258.501 361 258.301C361.7 257.901 361.6 254.001 360.6 253.001Z" fill="#F0AC95" />
				</g>
			</g>
			<path d="M394 223.301L385.3 250.601L360 251.401V259.001C360 259.001 392.5 267.301 397 263.001" fill="#E30313" />
			<path d="M360 254.701C360 254.701 383.8 260.301 387 258.501C390.2 256.701 388.401 262.001 388.401 262.001L386 264.001C386 264.001 364.6 261.101 360 259.001V254.701Z" fill="#AD1917" />
			<g>
				<path d="M380.6 370.001L379.3 375.501C379 376.701 377.8 377.401 376.6 377.201L361.1 373.601C360.1 373.401 359.9 372.101 360.8 371.601C361.6 371.101 365.1 370.201 367.5 369.801C372.7 369.001 374.9 369.301 374.9 369.301L380.6 370.001Z" fill="#1F1341" />
				<path d="M381.5 370.001L380.2 375.501C379.9 376.701 378.7 377.401 377.5 377.201L362 373.601C361 373.401 360.8 372.101 361.7 371.601C362.5 371.101 366 370.201 368.4 369.801C373.6 369.001 375.8 369.301 375.8 369.301L381.5 370.001Z" fill="#54579C" />
				<path d="M449.001 364.501L451.001 369.701C451.401 370.801 450.901 372.101 449.701 372.601L434.901 378.301C434.001 378.701 433.101 377.701 433.501 376.801C433.901 375.901 436.3 373.201 438.1 371.501C441.9 367.901 444.001 366.901 444.001 366.901L449.001 364.501Z" fill="#54579C" />
				<g>
					<path d="M396.2 202.4C396.2 202.4 391.4 221.6 401.5 220.7C411.6 219.8 410.5 209.8 410.5 209.8" fill="#F07F35" />
					<g>
						<path d="M398.3 217.201L390.4 228.501V239.801L377.7 310.701L421.7 311.901L411.7 228.501L398.3 217.201Z" fill="#990D0D" />
						<path d="M417.3 268.801C417.3 268.801 420.5 278.001 414.7 287.701C408.9 297.401 393.1 321.601 392.4 324.501C392.1 325.601 392 332.201 390.1 340.101C386.9 353.501 381.3 370.701 381.3 370.701L372.2 369.101L379.4 317.101L390.1 272.101L417.3 268.801Z" fill="#F3A2C5" />
						<path d="M402 216.401L400.4 210.101C400.4 210.101 396.2 210.601 395.5 210.101C394.4 209.401 391.5 195.401 394.6 192.001C397.7 188.601 405.2 187.801 408.3 192.901C411.4 198.001 409.6 207.901 409.6 207.901L410.6 212.401" fill="#F7B29A" />
						<path d="M413.8 213.301L410.5 209.701L398.4 214.701V221.101C398.4 221.101 391.5 231.201 390.8 236.601C390.1 241.901 393.9 252.601 393.8 255.701C393.7 258.801 390.2 272.101 390.2 272.101L413.8 269.101V213.301Z" fill="#A2AFF9" />
						<path d="M404.4 286.301L413.3 320.501C414.1 323.501 416.4 329.101 417.9 331.701L441.8 368.401L449 364.501L431.9 321.901L424.6 282.701" fill="#F3A2C5" />
						<path d="M423.1 224.301L413.8 213.301L402.8 218.801C402.8 218.801 409.6 293.501 423.1 316.101L440.5 313.801C440.5 313.801 423.1 261.601 423.1 253.901C423.1 246.201 423.1 224.301 423.1 224.301Z" fill="#E30313" />
						<path d="M425.3 264.701L423.1 245.201L413.8 239.501C413.8 239.501 416.7 261.101 425.9 266.501" fill="#990D0D" />
					</g>
					<g>
						<g>
							<path d="M448.8 288.501C448.8 288.501 455.9 305.001 461.1 321.401C463.3 328.501 463.2 332.101 461.7 334.601C457.6 341.401 437.1 336.101 435.3 334.001C429.6 327.301 438.3 292.101 443.9 288.001C445.4 286.901 448.8 288.501 448.8 288.501Z" fill="#A7D07D" />
							<path d="M445.7 286.201C445.7 286.201 452.9 298.601 451 300.701C449.5 302.401 441 298.401 441.7 293.001C442.1 289.801 445.7 286.201 445.7 286.201Z" fill="white" />
						</g>
						<g>
							<path d="M440.8 284.501C440.8 284.501 440.3 290.701 441.5 292.201C442.2 293.101 444.8 294.301 446.3 292.101C447.8 289.901 440.8 284.501 440.8 284.501Z" fill="#F7B29A" />
							<path d="M440.7 299.201C440.3 299.201 439.9 299.001 439.8 298.601C439 296.801 441 290.701 443.1 289.801C443.6 289.601 444.2 289.801 444.4 290.301C444.6 290.801 444.4 291.401 443.9 291.601C442.6 292.401 441.2 296.901 441.6 297.801C441.8 298.301 441.6 298.901 441.1 299.101C441 299.201 440.9 299.201 440.7 299.201Z" fill="#A7D07D" />
							<path d="M446.6 279.501L439.5 281.601C439.5 281.601 442.4 288.601 443.2 290.701C444 292.701 444.1 294.101 447.8 292.301C450.5 290.901 450.1 289.001 450.1 289.001C450.1 289.001 449.2 284.901 446.6 279.501Z" fill="#F7B29A" />
						</g>
						<path d="M417.5 218.001C417.5 218.001 426.4 226.001 432.4 242.001C437.6 255.901 448.6 281.501 448.6 281.501L439.7 284.901C439.7 284.901 429.3 267.201 427.9 261.601C426.5 256.001 411.5 240.001 411.7 233.701C411.9 227.401 415.8 223.601 415.8 223.601" fill="#E30313" />
						<path d="M397 189.901C397 189.901 403.5 186.701 408.6 189.201C413.7 191.701 415.5 202.501 421.6 206.601C427.7 210.701 431.8 214.401 431.8 220.201C431.8 226.001 423.9 230.401 415.4 230.401C407 230.401 401.4 200.001 401.4 200.001" fill="#F07F35" />
					</g>
					<path d="M410.2 204.001C398.4 203.401 393.5 195.401 393.5 195.401C393.5 195.401 394.3 188.301 402.9 188.301C411.5 188.401 410.2 204.001 410.2 204.001Z" fill="#F07F35" />
					<path d="M407.7 299.5L405 290.4L395.7 318.5L407.7 299.5Z" fill="#B84B7A" />
				</g>
			</g>
			<g>
				<g>
					<path d="M347.8 249.201L346.4 248.801C346 248.701 345.6 248.901 345.5 249.301C345.4 249.601 345.5 249.901 345.8 250.101L347.7 251.401" fill="#F0AC95" />
					<path d="M354.5 261.501L350.5 262.101C349.7 262.201 348.9 261.701 348.8 261.001L346.5 245.301C346.4 244.601 347 243.901 347.8 243.701L351.8 243.101C352.6 243.001 353.4 243.501 353.5 244.201L355.8 259.901C355.9 260.601 355.4 261.301 354.5 261.501Z" fill="#76C8D8" />
					<path d="M348.401 258L355.001 257C355.101 257 355.201 257 355.301 256.9L354.501 251.4C354.401 251.4 354.301 251.4 354.201 251.4L347.601 252.4L348.401 258Z" fill="#DFE1E8" />
					<path d="M346.601 244.701L348.101 241.501L350.701 241.101L353.301 243.601L346.601 244.701Z" fill="#76C8D8" />
				</g>
				<path d="M350.592 239.881L347.921 240.272L348.095 241.46L350.766 241.068L350.592 239.881Z" fill="#76C8D8" />
			</g>
			<path d="M357.7 251.301C357.7 251.301 354.7 248.701 354.2 248.301C353.6 247.801 353 248.801 353.5 249.701C354.1 250.901 355.2 252.101 355.2 252.101" fill="#F0AC95" />
		</g>
		<g class="svgIcon svgIcon3">
			<path d="M791.3 390.7V397.5C791.3 399 792.5 400.2 794 400.2H813.2C814.4 400.2 815 398.7 814.1 397.9C813.2 397 809.4 395.1 806.7 393.9C800.8 391.5 798 391.3 798 391.3L791.3 390.7Z" fill="#1F1341" />
			<path d="M768.9 323.4L790.6 392.5H803.1C803.1 392.5 798.2 358 791.9 323.3" fill="#842857" />
			<path d="M763.9 390.7V397.5C763.9 399 765.1 400.2 766.6 400.2H785.8C787 400.2 787.6 398.7 786.7 397.9C785.8 397 782 395.1 779.3 393.9C773.4 391.5 770.6 391.3 770.6 391.3L763.9 390.7Z" fill="#1F1341" />
			<path d="M741.5 323.4L763.2 392.5H775.7C775.7 392.5 770.8 358 764.5 323.3" fill="#842857" />
			<path d="M692.2 292.1C692.2 292.1 687.1 301.9 693.1 313.5C696.4 319.9 717.3 317.5 726.1 317C734.9 316.5 731.9 302.1 731.9 302.1V294.1" fill="#842857" />
			<g>
				<g>
					<g>
						<g>
							<path d="M723.976 382.666L753.129 397.031L754.499 394.251L725.347 379.886L723.976 382.666Z" fill="#1F1341" />
							<path d="M751.3 401.899C754.393 401.899 756.9 399.392 756.9 396.299C756.9 393.206 754.393 390.699 751.3 390.699C748.207 390.699 745.7 393.206 745.7 396.299C745.7 399.392 748.207 401.899 751.3 401.899Z" fill="#1F1341" />
						</g>
						<g>
							<g>
								<g>
									<path d="M878.4 207.9C878.4 207.9 873.3 202.1 873.2 201.6C873.1 200.9 874.7 200.2 876.1 201.7C877.5 203.2 881.4 206.5 881.4 206.5" fill="#E29882" />
									<path d="M889.7 208.6C889.7 208.6 889.4 208.3 886.6 207C883.9 205.8 881.8 204.5 880.8 203.2C880.3 202.5 880.6 202.2 880.9 202C882 201.3 885.7 203.3 887.7 204C890.1 204.8 891.9 205.6 893.3 206.1C894.7 206.6 895.8 207.2 895.8 207.2V212.7C895.8 212.7 884.5 212.1 883.5 211.8C882.1 211.2 878.3 209 875.2 206.6C873.3 205.1 871.4 203.7 871.4 203.2C871.4 202.6 872 202.3 872.8 202.4C873.8 202.5 875.4 203.3 876.2 203.7C877.6 204.5 881.9 206.8 882.7 206.8C883.5 206.8 886 205.4 886 205.4" fill="#F7B29A" />
								</g>
								<path d="M902 214C902 214 898.8 208.5 896.2 207.3C894.8 206.7 891.7 205.5 891.7 205.5L889.7 212.2L893.9 213.2C895.1 213.5 896.2 214.1 897.1 215L898.2 216.1" fill="#F7B29A" />
							</g>
							<g>
								<g>
									<g>
										<g>
											<path d="M717.9 330.8V346.3H721.9V383.7H731.1V346.3H734.3V325.8" fill="#1F1341" />
											<path d="M699.3 218.699C698.7 216.899 697 215.699 695 215.699H662.9C659.2 215.699 655.6 216.599 652.4 218.299L647.2 220.999C645.4 221.899 644.5 223.999 645 225.899C649.1 241.399 666.2 306.399 669.1 309.299C671.9 312.099 713.3 310.199 726.7 309.499C728.8 309.399 730.2 307.299 729.5 305.399L699.3 218.699Z" fill="#E30313" />
											<path d="M686.6 310.8L659.3 216C656.9 216.4 654.5 217.1 652.3 218.3L647.1 221C645.3 221.9 644.4 224 644.9 225.9C649 241.4 666.1 306.4 669 309.3C670.2 310.4 677.4 310.8 686.6 310.8Z" fill="#990D0D" />
											<path d="M667.5 248.6L686.6 310.799L726.6 309.6L703 235.7C703 235.7 675.8 219 667.7 242.5C667 244.5 666.9 246.6 667.5 248.6Z" fill="#990D0D" />
											<path d="M690.1 331.3H743C746.3 331.3 748.9 328.6 748.9 325.4V319C748.9 315.7 746.2 313.1 743 313.1H690.2C686.9 313.1 684.3 315.8 684.3 319V325.4C684.2 328.6 686.9 331.3 690.1 331.3Z" fill="#AD1917" />
											<path d="M690.1 331.3H743C746.3 331.3 748.9 328.6 748.9 325.4V319C748.9 315.7 746.2 313.1 743 313.1H690.2C686.9 313.1 684.3 315.8 684.3 319V325.4C684.2 328.6 686.9 331.3 690.1 331.3Z" fill="#AD1917" />
											<path d="M702.6 285.399L701.4 298.399L734.6 303.499L735.8 292.699" fill="#140B2E" />
											<path d="M812.2 286.099C811.6 285.899 810.9 285.599 810.2 285.299C810.1 285.199 810 284.999 809.8 284.899C807.8 283.499 803.6 281.399 801.9 281.299C800.5 281.099 788 281.999 785.9 282.099C782 282.299 783 288.999 784.3 288.999C787.3 288.999 796.3 289.099 800.6 288.999C803.4 289.099 808 288.899 808.7 288.899C809.2 288.899 809.5 288.499 809.5 288.199C810.2 288.299 810.8 288.299 811.1 288.299C811.7 288.299 812 287.899 811.9 287.399C812.9 287.499 813.3 286.499 812.2 286.099Z" fill="#F7B29A" />
											<path d="M747 231.199C747 231.199 753.9 237.999 757.1 255.399C760.3 272.799 761 277.299 761 277.299C761 277.299 788.3 277.499 794.9 279.899V288.699L733.2 287.399" fill="#54579C" />
											<path d="M726.3 227C726.3 227 705.1 221.3 698.2 233C691.3 244.6 703.2 292.2 703.2 292.2H739C739 292.2 750.5 254.4 751.5 244C752.5 233.6 745 224.6 726.3 227Z" fill="#54579C" />
											<path d="M705.2 244.5C705.2 244.5 715.1 263.7 728.8 268.3C743 273 746.6 266.5 746.6 266.5L739.2 292.1L703.2 286.5L694.8 278.6V256.8" fill="#322767" />
											<path d="M757.3 285.899C756.7 285.699 756 285.399 755.3 285.099C755.2 284.999 755.1 284.799 754.9 284.699C752.9 283.299 748.7 281.199 747 281.099C745.6 280.899 733.1 281.799 731 281.899C727.1 282.099 728.1 288.799 729.4 288.799C732.4 288.799 741.4 288.899 745.7 288.799C748.5 288.899 753.1 288.699 753.8 288.699C754.3 288.699 754.6 288.299 754.6 287.999C755.3 288.099 755.9 288.099 756.2 288.099C756.8 288.099 757.1 287.699 757 287.199C758 287.399 758.5 286.399 757.3 285.899Z" fill="#F7B29A" />
											<g>
												<path d="M716.5 215.3L719.8 226.5C719.8 226.5 724.1 230.8 730.2 227.4L727.8 217.5" fill="#F7B29A" />
												<path d="M720.2 218.9C720.2 218.9 721.2 222.9 729.1 222.9L726.5 212.3L720.2 218.9Z" fill="#D48068" />
												<path d="M730.3 195.8C730.3 195.8 732 203.3 728.9 203C725.8 202.7 721.8 198.2 721.8 198.2" fill="#701745" />
												<path d="M726.8 197.5C726.8 197.5 730.6 201.2 732.2 208.5C733.8 215.8 733.4 221.1 727.9 221.1C723.3 221.1 721.9 220.8 718.1 217.2C714.3 213.6 711.5 199.7 718.8 196.9C726.1 194.1 726.8 197.5 726.8 197.5Z" fill="#F7B29A" />
												<path d="M722.5 191.8C722.5 191.8 726.4 188.4 730.5 191.6C734.1 194.4 733.3 199.6 724.6 199.6C724.6 199.6 721.3 199.3 718.9 203.3C718 204.7 720 207.5 719.8 209.7C719.7 210.6 718.9 211.7 718.6 212.4C717.7 214.2 716.7 215.3 716.7 215.3L714.3 213.5C711.8 211.2 707.5 206.5 707.5 200.7C707.5 194.2 714 190.4 718 190.7C720.3 190.8 722.5 191.8 722.5 191.8Z" fill="#701745" />
												<path d="M719.8 210.8C719.8 210.8 716.5 208.1 715.4 210C714.3 211.9 716.4 215.1 720.5 214.3" fill="#F7B29A" />
												<path d="M726.4 214.8L731 213.5C731 213.5 731.5 215.8 729.8 216.3C728.1 216.8 726.4 214.8 726.4 214.8Z" fill="white" />
											</g>
											<path d="M708.8 226.2C708.8 226.2 695.9 226 692.8 235.8C689.7 245.7 684 276.3 684.4 281.4C684.8 286.5 690.1 287.4 694.8 287.4C699.5 287.4 739 287.4 739 287.4L738.5 279.5C738.5 279.5 712.6 269.4 701.7 269.6C701.7 269.6 712.9 242.3 702.8 239.1" fill="#54579C" />
											<path d="M716.5 225.7L728.7 259.6L734.9 226.7L725.3 224.5L716.5 225.7Z" fill="white" />
											<path d="M718.7 222.199L716.5 225.699L723.8 228.499L725.3 224.499L718.7 222.199Z" fill="white" />
											<path d="M725.3 224.499L726.4 228.699L732.2 226.599L729.1 222.899L725.3 224.499Z" fill="white" />
											<path d="M725.3 225.8L723.8 228.5L718.4 226.4L724.1 230.6L725.3 225.8Z" fill="#B9C0D5" />
											<path d="M880.1 295.5H873.3V401.9H880.1V295.5Z" fill="#F5CD95" />
											<path d="M701.4 295.5H694.6L681 402H687.8L701.4 295.5Z" fill="#C79D5B" />
											<g>
												<path d="M885.2 287.399H672.3V295.499H885.2V287.399Z" fill="#F5CD95" />
												<path d="M726.4 287.399H672.3V295.499H726.4V287.399Z" fill="#C79D5B" />
											</g>
											<path d="M877.6 273.299H816.2C813.2 273.299 810.9 270.499 811.7 267.499L820.2 232.699C821.3 228.399 825.1 225.399 829.5 225.399H890.9C893.9 225.399 896.2 228.199 895.4 231.199L887 265.999C885.9 270.299 882.1 273.299 877.6 273.299Z" fill="#656DD6" />
											<path d="M843.2 270.399L838.9 284.399H826.8C825.7 284.399 824.6 284.999 824 285.899L823 287.399H855.8L860.3 271.999" fill="#888FA6" />
											<path d="M843.2 270.399L838.9 284.399H826.8C825.7 284.399 824.6 284.999 824 285.899L823 287.399H855.8L860.3 271.999" fill="#656DD6" />
											<path d="M842.3 273.3L847.8 255.3C847.8 255.3 844 256.5 842.6 259.9C841.2 263.4 838.6 273.2 838.6 273.2H842.3V273.3Z" fill="url(#paint3_linear_102_23523)" />
											<path d="M724.42 379.841L695.267 394.206L696.637 396.987L725.79 382.622L724.42 379.841Z" fill="#1F1341" />
										</g>
									</g>
									<g>
										<path d="M961.5 391.5V397.9C961.5 399.3 960.4 400.5 958.9 400.5H940.7C939.6 400.5 939 399.1 939.8 398.3C940.6 397.5 944.2 395.6 946.8 394.5C952.4 392.2 955 392 955 392L961.5 391.5Z" fill="#1F1341" />
										<g>
											<path d="M963.7 300.9L961.5 393.4H949.9C949.9 393.4 930.6 273.9 942.1 263C953.6 252.1 967.8 265.7 967.8 265.7L963.7 300.9Z" fill="#C28FBF" />
											<path d="M964.2 303.4L961.5 393.4L961.7 385.2C961.7 385.2 960.4 349.7 957.6 323.6C954.8 297.5 957.4 283 962.5 283.6C966.6 284 965.9 307.7 966.3 322.3C966.5 326.1 964.2 303.4 964.2 303.4Z" fill="#8856A6" />
											<path d="M980.5 261.5C980.5 261.5 986.1 298.1 988.8 325.1C991.5 352.1 992.3 394.2 992.3 394.2H980.4C980.4 394.2 955.6 283 955.6 275.7C955.5 268.5 980.5 261.5 980.5 261.5Z" fill="#C28FBF" />
											<path d="M967.8 263.2L973 263.8L980.4 261.5C980.4 261.5 986 298.1 988.7 325.1C991.4 352.1 992.2 394.2 992.2 394.2H989C989 394.2 984.3 337.8 981.3 317.4C977.9 294 967.8 263.2 967.8 263.2Z" fill="#8856A6" />
											<path d="M946 217C946 217 931.2 246.3 922 246.3C913.6 246.3 889.4 215.9 889.4 215.9L897.2 207.7L919.5 224.1C919.5 224.1 937.7 187.4 947.7 184.6" fill="#54579C" />
											<path d="M920.3 237.1C928.5 237.1 939.4 210.9 939.4 210.9L946.2 212.7L946 217C946 217 931.2 246.3 922 246.3C913.6 246.3 889.4 215.9 889.4 215.9L891.4 213.8C891.4 213.9 912.2 237.1 920.3 237.1Z" fill="#322767" />
											<path d="M949.8 182.4C949.8 182.4 949.8 179.6 959.3 179.9C962.2 180 974.6 182.6 977.3 184.7C989 193.8 986.6 240 986.1 249.9C985.5 259.9 986.6 271 986.6 271C986.6 271 946.6 276.7 934.9 271C934.9 271 935.8 251.8 936.5 232.2C937.1 210.2 938.1 187.5 949.8 182.4Z" fill="#54579C" />
											<g>
												<path d="M960.3 181L958.7 167L949.8 178.1L951.6 188L960.3 181Z" fill="#F7B29A" />
												<path d="M954.1 173.8C954.1 173.8 954.3 179.6 950.1 180L949.4 176.7L954.1 173.8Z" fill="#D48068" />
												<path d="M933.8 154.6C933.8 154.6 935 162.4 940 162.3C944.9 162.1 942.8 154.2 942.8 154.2" fill="#1F1341" />
												<path d="M959 175.3C959 175.3 955.9 172.4 955 173.9C953 177.4 948.3 178.9 946.2 177.9C942.7 176.4 936.1 159.5 938.3 155.6C940.5 151.7 953.7 152.1 957 155.5C960.4 158.9 959 175.3 959 175.3Z" fill="#F7B29A" />
												<path d="M959.2 171.6C959.2 171.6 962.9 162.4 962 156.5C961.1 150.6 954.3 149.3 952.9 149.2C950.9 149.1 943.1 141.4 936.5 146.2C928.7 152 933.6 158 940.5 158.8C943.2 159.1 945 158.7 947 159.1C948.8 159.5 955.2 164.1 955.6 164.6C955.9 165.1 955.2 164.4 955.4 164.9C956.8 167.6 956.9 171.7 959.2 171.6Z" fill="#1F1341" />
												<path d="M953.2 164.3C953.2 164.3 953.2 160.5 955.9 160.8C958.6 161.2 957.5 166.5 955.1 167.8" fill="#F7B29A" />
											</g>
											<path d="M967.8 249.3C972.6 236.7 971.9 210.9 971.9 210.9L984.1 271C983.6 271.2 983.1 271.3 982.6 271.5C976.6 272.2 964.5 273.5 953.6 273.5C958 268.8 964.2 258.9 967.8 249.3Z" fill="#322767" />
											<path d="M955.9 282.7L1005.9 290.5C1006.5 290.6 1007.1 290.2 1007.2 289.5L1013.3 250.4C1013.4 249.8 1013 249.2 1012.3 249.1L962.3 241.3C961.7 241.2 961.1 241.6 961 242.3L954.9 281.4C954.8 282 955.3 282.6 955.9 282.7Z" fill="#E30313" />
											<path d="M960.844 287.957L1008.04 287.957L1008.04 250.557L960.844 250.557L960.844 287.957Z" fill="white" />
											<path d="M987.2 276L987.1 269.7L995.3 267.3V270.1C995.3 270.1 995.3 286.8 995.3 287.5C995.3 288.1 994.9 289.7 993.8 290.1C992.5 290.6 990.5 290.5 989.3 290.5C988.5 290.5 987.8 290.5 987.3 290.4C986.4 290.3 985.5 289.8 985 289L984.5 288.1L986.4 288L985.8 282.5L987.2 276Z" fill="#F7B29A" />
											<path d="M987.9 274.5C987.9 274.5 984 278.9 983.6 279.8C983.2 280.7 982.2 286.4 982.2 286.8C982.2 287.2 984 288.5 985.2 285.9C986.4 283.3 987.9 279.2 987.9 279.2" fill="#F7B29A" />
											<path d="M977.3 184.7C977.3 184.7 989.2 192.1 992.3 215.5C995.4 238.9 995.6 273.2 995.6 273.2L984.7 274.2C984.7 274.2 971.4 218.5 967.9 209.8" fill="#54579C" />
											<path d="M947.7 184.7L949.8 180.5L952.1 180.8L960.3 177L963 180.4L963.7 180.5L947.7 223.3" fill="white" />
											<path d="M952.3 183L953.6 185.3L960.3 182.6L953.3 188L952.3 183Z" fill="#B9C0D5" />
										</g>
										<path d="M983.3 400.5H994C995.7 400.5 996.8 398.7 996 397.2C995 395.2 993.2 393 990.2 392.6C984.6 391.9 981.6 393 981.6 395.6C981.6 397 981.6 397.7 981.6 398.9C981.7 399.8 982.4 400.5 983.3 400.5Z" fill="#1F1341" />
									</g>
									<path d="M698.4 401.9C701.493 401.9 704 399.393 704 396.3C704 393.207 701.493 390.7 698.4 390.7C695.307 390.7 692.8 393.207 692.8 396.3C692.8 399.393 695.307 401.9 698.4 401.9Z" fill="#1F1341" />
								</g>
								<path d="M943.6 172.6L946.9 171.4C946.9 171.4 946.8 174.3 945.2 174.1C943.8 174 943.6 172.6 943.6 172.6Z" fill="white" />
							</g>
						</g>
					</g>
				</g>
				<path d="M733.2 295.5H726.1V401.9H733.2V295.5Z" fill="#F5CD95" />
				<path d="M880.1 295.5H726.4V348.7H880.1V295.5Z" fill="#F5CD95" />
				<path d="M880.4 295.5H726.1V332.4L880.4 320.6V295.5Z" fill="url(#paint4_linear_102_23523)" />
			</g>
		</g>
		<g class="svgIcon svgIcon2">
			<path d="M510.316 351.388C502.351 351.388 495.27 349.323 489.074 345.192C482.879 340.963 478.011 334.965 474.471 327.196C470.93 319.328 469.16 309.887 469.16 298.873C469.16 287.859 470.93 278.467 474.471 270.698C478.011 262.831 482.879 256.832 489.074 252.701C495.27 248.473 502.351 246.358 510.316 246.358C518.282 246.358 525.363 248.473 531.558 252.701C537.754 256.832 542.622 262.831 546.162 270.698C549.801 278.467 551.62 287.859 551.62 298.873C551.62 309.887 549.801 319.328 546.162 327.196C542.622 334.965 537.754 340.963 531.558 345.192C525.363 349.323 518.282 351.388 510.316 351.388ZM510.316 341.652C516.414 341.652 521.724 340.029 526.248 336.784C530.771 333.44 534.312 328.622 536.869 322.328C539.426 315.935 540.704 308.117 540.704 298.873C540.704 289.629 539.426 281.86 536.869 275.566C534.312 269.174 530.771 264.355 526.248 261.11C521.724 257.766 516.414 256.094 510.316 256.094C504.416 256.094 499.154 257.766 494.532 261.11C489.91 264.355 486.321 269.174 483.764 275.566C481.207 281.86 479.929 289.629 479.929 298.873C479.929 308.117 481.207 315.935 483.764 322.328C486.321 328.622 489.91 333.44 494.532 336.784C499.154 340.029 504.416 341.652 510.316 341.652Z" fill="#E30313" />
			<path d="M599.43 351.388C592.055 351.388 585.023 350.208 578.336 347.847C571.649 345.389 566.338 342.144 562.405 338.112L567.568 329.703C570.813 333.145 575.238 335.997 580.844 338.259C586.548 340.521 592.694 341.652 599.283 341.652C608.035 341.652 614.673 339.734 619.197 335.899C623.819 331.965 626.13 326.851 626.13 320.557C626.13 316.132 625.048 312.346 622.885 309.199C620.82 305.954 617.279 303.446 612.264 301.676C607.249 299.906 600.365 299.021 591.612 299.021H569.633L574.943 247.243H631.441V256.684H579.221L584.679 251.521L580.106 294.89L574.648 289.58H593.972C604.397 289.58 612.756 290.858 619.05 293.415C625.344 295.972 629.867 299.561 632.621 304.184C635.473 308.707 636.899 314.018 636.899 320.115C636.899 325.917 635.522 331.228 632.768 336.046C630.015 340.767 625.884 344.504 620.377 347.257C614.87 350.011 607.888 351.388 599.43 351.388Z" fill="#E30313" />
		</g>
		<g class="svgIcon svgIcon8">
			<path d="M50.4 158.6C57.8006 158.6 63.8 152.6 63.8 145.2C63.8 137.799 57.8006 131.8 50.4 131.8C42.9994 131.8 37 137.799 37 145.2C37 152.6 42.9994 158.6 50.4 158.6Z" fill="#E30313" />
			<g>
				<path d="M43.9 209.599H6C3 209.599 0.5 207.099 0.5 204.099V155.399C0.5 152.399 3 149.899 6 149.899H43.9C46.9 149.899 49.4 152.399 49.4 155.399V204.099C49.4 207.199 46.9 209.599 43.9 209.599Z" fill="#DFE1E8" />
				<path d="M8.2998 193.8H30.2998" stroke="white" stroke-width="2" stroke-miterlimit="10" stroke-linecap="round" stroke-linejoin="round" />
				<path d="M8.2998 187.399H30.2998" stroke="white" stroke-width="2" stroke-miterlimit="10" stroke-linecap="round" stroke-linejoin="round" />
			</g>
		</g>
		<path class="svgIcon svgIcon6" d="M117.8 384.8C125.587 384.8 131.9 378.487 131.9 370.7C131.9 362.912 125.587 356.6 117.8 356.6C110.013 356.6 103.7 362.912 103.7 370.7C103.7 378.487 110.013 384.8 117.8 384.8Z" fill="#A7D07D" />
		<g class="svgIcon svgIcon10">
			<path d="M1496.6 306.899C1513.78 306.899 1527.7 292.975 1527.7 275.799C1527.7 258.623 1513.78 244.699 1496.6 244.699C1479.42 244.699 1465.5 258.623 1465.5 275.799C1465.5 292.975 1479.42 306.899 1496.6 306.899Z" fill="#DFE1E8" />
			<path d="M1496.6 279.2C1501.74 279.2 1505.9 275.036 1505.9 269.9C1505.9 264.763 1501.74 260.6 1496.6 260.6C1491.46 260.6 1487.3 264.763 1487.3 269.9C1487.3 275.036 1491.46 279.2 1496.6 279.2Z" stroke="white" stroke-width="2" stroke-miterlimit="10" stroke-linecap="round" stroke-linejoin="round" />
			<path d="M1516.9 295.499C1511.9 289.899 1504.7 286.299 1496.6 286.299C1488.5 286.299 1481.2 289.899 1476.2 295.599" stroke="white" stroke-width="2" stroke-miterlimit="10" stroke-linecap="round" stroke-linejoin="round" />
		</g>
		<g class="svgIcon svgIcon7">
			<g>
				<path d="M1395.4 163.099H1330.5C1324.5 163.099 1319.6 158.199 1319.6 152.199V87.2994C1319.6 81.2994 1324.5 76.3994 1330.5 76.3994H1395.4C1401.4 76.3994 1406.3 81.2994 1406.3 87.2994V152.199C1406.3 158.199 1401.4 163.099 1395.4 163.099Z" fill="#F3A2C5" />
				<g>
					<path d="M1390.4 105.899C1390.7 102.999 1389.8 100.599 1388.2 98.3994C1383.5 92.0994 1374.4 90.8994 1354.4 105.899C1334.4 120.899 1332.9 129.899 1337.6 136.199C1342.3 142.499 1351.4 143.699 1371.4 128.699C1380.3 122.099 1385.5 116.599 1388.2 111.999" stroke="white" stroke-width="2" stroke-miterlimit="10" stroke-linecap="round" stroke-linejoin="round" />
					<path d="M1369.9 98.8994L1383.5 109.099C1383.5 109.099 1375.5 113.099 1365.5 104.199M1343.3 120.799C1353.3 129.699 1361.3 125.699 1361.3 125.699L1347.3 115.199M1354.6 111.999C1364.6 120.899 1372.6 116.899 1372.6 116.899L1357.9 105.899" stroke="white" stroke-width="2" stroke-miterlimit="10" stroke-linecap="round" stroke-linejoin="round" />
				</g>
			</g>
			<path d="M1386.2 160.4C1393.6 160.4 1399.6 154.4 1399.6 147C1399.6 139.599 1393.6 133.6 1386.2 133.6C1378.8 133.6 1372.8 139.599 1372.8 147C1372.8 154.4 1378.8 160.4 1386.2 160.4Z" fill="white" />
			<path d="M1389.2 141.699C1388 141.699 1386.9 142.199 1386.2 143.099C1385.5 142.299 1384.4 141.699 1383.2 141.699C1380.9 141.699 1379.1 143.499 1379.1 145.799C1379.1 149.099 1386.2 154.499 1386.2 154.499C1386.2 154.499 1393.3 149.199 1393.3 145.799C1393.3 143.599 1391.4 141.699 1389.2 141.699Z" fill="#C28FBF" />
		</g>
		<g class="svgIcon svgIcon11">
			<path d="M964.8 32.1996C973.526 32.1996 980.6 25.1257 980.6 16.3996C980.6 7.6735 973.526 0.599609 964.8 0.599609C956.074 0.599609 949 7.6735 949 16.3996C949 25.1257 956.074 32.1996 964.8 32.1996Z" fill="#DFE1E8" />
			<path d="M957.6 16.7L964.1 22.8L972 10" stroke="white" stroke-width="2" stroke-miterlimit="10" stroke-linecap="round" stroke-linejoin="round" />
		</g>
		<g class="svgIcon svgIcon9">
			<path d="M423 106.499H317.6C315.2 106.499 313.2 104.599 313.2 102.099V37.0992C313.2 34.6992 315.1 32.6992 317.6 32.6992H423C425.4 32.6992 427.4 34.5992 427.4 37.0992V102.099C427.3 104.599 425.4 106.499 423 106.499Z" fill="#DFE1E8" />
			<g>
				<g>
					<g>
						<path d="M345.7 79.6988C356.304 79.6988 364.9 71.1027 364.9 60.4988C364.9 49.895 356.304 41.2988 345.7 41.2988C335.096 41.2988 326.5 49.895 326.5 60.4988C326.5 71.1027 335.096 79.6988 345.7 79.6988Z" fill="#A7D07D" />
						<g>
							<g>
								<path d="M334.4 54.7988L334.8 68.1988C334.8 68.7988 335.4 69.2988 336 69.1988L357.9 66.5988C358.4 66.4988 358.7 66.0988 358.7 65.5988V58.0988C358.7 57.5988 358.3 57.1988 357.9 57.0988L335.6 53.7988C335 53.7988 334.4 54.1988 334.4 54.7988Z" stroke="white" stroke-width="2" stroke-miterlimit="10" stroke-linecap="round" stroke-linejoin="round" />
								<path d="M334.8 54.0986L344 49.5986L358.4 57.3986" stroke="white" stroke-width="2" stroke-miterlimit="10" stroke-linecap="round" stroke-linejoin="round" />
							</g>
							<path d="M341.8 59.8982C341.8 61.0982 340.8 62.0983 339.6 62.0983C338.4 62.0983 337.4 61.0982 337.4 59.8982C337.4 58.6982 338.4 57.6982 339.6 57.6982" stroke="white" stroke-width="2" stroke-miterlimit="10" stroke-linecap="round" stroke-linejoin="round" />
							<path d="M345.7 64.8984C346.1 63.9984 346.9 63.3984 347.9 63.3984C349.2 63.3984 350.3 64.4984 350.3 65.7984C350.3 66.2984 350.1 66.7984 349.8 67.1984" stroke="white" stroke-width="2" stroke-miterlimit="10" stroke-linecap="round" stroke-linejoin="round" />
							<path d="M355.7 56.999C355.9 57.299 355.9 57.699 355.9 57.999C355.9 59.299 354.8 60.399 353.5 60.399" stroke="white" stroke-width="2" stroke-miterlimit="10" stroke-linecap="round" stroke-linejoin="round" />
						</g>
					</g>
					<g>
						<path d="M388.2 47.5986H414.1" stroke="white" stroke-width="2" stroke-miterlimit="10" stroke-linecap="round" stroke-linejoin="round" />
						<path d="M388.2 56.1982H414.1" stroke="white" stroke-width="2" stroke-miterlimit="10" stroke-linecap="round" stroke-linejoin="round" />
						<path d="M388.2 78.0986H401.2" stroke="white" stroke-width="2" stroke-miterlimit="10" stroke-linecap="round" stroke-linejoin="round" />
					</g>
				</g>
				<g>
					<path d="M334.5 85.8984L336 88.9984C336.1 89.1984 336.3 89.2984 336.5 89.3984L339.9 89.8984C340.5 89.9984 340.7 90.6984 340.3 91.0984L337.8 93.4984C337.6 93.6984 337.6 93.8984 337.6 94.0984L338.2 97.4984C338.3 98.0984 337.7 98.4984 337.2 98.1984L334.2 96.5984C334 96.4984 333.8 96.4984 333.6 96.5984L330.6 98.1984C330.1 98.4984 329.5 97.9984 329.6 97.4984L330.2 94.0984C330.2 93.8984 330.2 93.6984 330 93.4984L327.5 91.0984C327.1 90.6984 327.3 89.9984 327.9 89.8984L331.3 89.3984C331.5 89.3984 331.7 89.1984 331.8 88.9984L333.3 85.8984C333.6 85.3984 334.3 85.3984 334.5 85.8984Z" fill="white" />
					<path d="M352.7 85.8984L354.2 88.9984C354.3 89.1984 354.5 89.2984 354.7 89.3984L358.1 89.8984C358.7 89.9984 358.9 90.6984 358.5 91.0984L356 93.4984C355.8 93.6984 355.8 93.8984 355.8 94.0984L356.4 97.4984C356.5 98.0984 355.9 98.4984 355.4 98.1984L352.4 96.5984C352.2 96.4984 352 96.4984 351.8 96.5984L348.8 98.1984C348.3 98.4984 347.7 97.9984 347.8 97.4984L348.4 94.0984C348.4 93.8984 348.4 93.6984 348.2 93.4984L345.7 91.0984C345.3 90.6984 345.5 89.9984 346.1 89.8984L349.5 89.3984C349.7 89.3984 349.9 89.1984 350 88.9984L351.5 85.8984C351.7 85.3984 352.5 85.3984 352.7 85.8984Z" fill="white" />
					<path d="M370.9 85.8984L372.4 88.9984C372.5 89.1984 372.7 89.2984 372.9 89.3984L376.3 89.8984C376.9 89.9984 377.1 90.6984 376.7 91.0984L374.2 93.4984C374 93.6984 374 93.8984 374 94.0984L374.6 97.4984C374.7 98.0984 374.1 98.4984 373.6 98.1984L370.6 96.5984C370.4 96.4984 370.2 96.4984 370 96.5984L367 98.1984C366.5 98.4984 365.9 97.9984 366 97.4984L366.6 94.0984C366.6 93.8984 366.6 93.6984 366.4 93.4984L363.9 91.0984C363.5 90.6984 363.7 89.9984 364.3 89.8984L367.7 89.3984C367.9 89.3984 368.1 89.1984 368.2 88.9984L369.7 85.8984C369.9 85.3984 370.6 85.3984 370.9 85.8984Z" fill="white" />
					<path d="M389.1 85.8984L390.6 88.9984C390.7 89.1984 390.9 89.2984 391.1 89.3984L394.5 89.8984C395.1 89.9984 395.3 90.6984 394.9 91.0984L392.4 93.4984C392.2 93.6984 392.2 93.8984 392.2 94.0984L392.8 97.4984C392.9 98.0984 392.3 98.4984 391.8 98.1984L388.8 96.5984C388.6 96.4984 388.4 96.4984 388.2 96.5984L385.2 98.1984C384.7 98.4984 384.1 97.9984 384.2 97.4984L384.8 94.0984C384.8 93.8984 384.8 93.6984 384.6 93.4984L382.1 91.0984C381.7 90.6984 381.9 89.9984 382.5 89.8984L385.9 89.3984C386.1 89.3984 386.3 89.1984 386.4 88.9984L387.9 85.8984C388.1 85.3984 388.8 85.3984 389.1 85.8984Z" fill="white" />
					<path d="M407.3 85.8984L408.8 88.9984C408.9 89.1984 409.1 89.2984 409.3 89.3984L412.7 89.8984C413.3 89.9984 413.5 90.6984 413.1 91.0984L410.6 93.4984C410.4 93.6984 410.4 93.8984 410.4 94.0984L411 97.4984C411.1 98.0984 410.5 98.4984 410 98.1984L407 96.5984C406.8 96.4984 406.6 96.4984 406.4 96.5984L403.4 98.1984C402.9 98.4984 402.3 97.9984 402.4 97.4984L403 94.0984C403 93.8984 403 93.6984 402.8 93.4984L400.3 91.0984C399.9 90.6984 400.1 89.9984 400.7 89.8984L404.1 89.3984C404.3 89.3984 404.5 89.1984 404.6 88.9984L406.1 85.8984C406.3 85.3984 407 85.3984 407.3 85.8984Z" fill="white" />
				</g>
			</g>
		</g>
	</g>
	<defs>
		<linearGradient id="paint0_linear_102_23523" x1="1204.81" y1="252.778" x2="1047.84" y2="267.048" gradientUnits="userSpaceOnUse">
			<stop offset="0.4051" stop-color="#656DD6" />
			<stop offset="0.6431" stop-color="#322767" />
		</linearGradient>
		<linearGradient id="paint1_linear_102_23523" x1="1105.38" y1="329.442" x2="1104.83" y2="392.033" gradientUnits="userSpaceOnUse">
			<stop offset="0.1639" stop-color="#656DD6" />
			<stop offset="0.6444" stop-color="#A2AFF9" />
		</linearGradient>
		<linearGradient id="paint2_linear_102_23523" x1="1242.81" y1="329.591" x2="764.347" y2="134.698" gradientUnits="userSpaceOnUse">
			<stop offset="0.4051" stop-color="#656DD6" />
			<stop offset="0.6431" stop-color="#322767" />
		</linearGradient>
		<linearGradient id="paint3_linear_102_23523" x1="825.802" y1="263.096" x2="862.817" y2="265.733" gradientUnits="userSpaceOnUse">
			<stop offset="0.4051" stop-color="#656DD6" />
			<stop offset="0.6431" stop-color="#322767" />
		</linearGradient>
		<linearGradient id="paint4_linear_102_23523" x1="803.577" y1="349.687" x2="803.059" y2="294.319" gradientUnits="userSpaceOnUse">
			<stop offset="0.4608" stop-color="#F4CC93" />
			<stop offset="0.9985" stop-color="#C79D5B" />
		</linearGradient>
	</defs>
</svg>
