<svg width="375" height="667" viewBox="0 0 375 667" fill="none" xmlns="http://www.w3.org/2000/svg">
<style>
    .svgIcon {
      opacity: 0;
	  transform:translateY(0.63rem); 
	  transition: all ease 0.5s;
    }
	.svgIcon1{
		transition-delay: 0s;
	}
	.svgIcon2{
		transition-delay: 0.2s;
	}
	.svgIcon3{
		transition-delay: 0.4s;
	}
	.svgIcon4{
		transition-delay: 0.8s;
	}
	.svgIcon5{
		transition-delay: 1.2s;
	}
	.svgIcon6{
		transition-delay: 1.6s;
	}
	.svgIcon7{
		transition-delay: 2s;
	}
</style>
	<g id="iPhone 8 - 28">
		<g class="svgIcon svgIcon1">
			<g id="Group" opacity="0.64">
				<g>
					<path id="Vector" d="M58.1902 183.75H53.6802V308.39H58.1902V183.75Z" fill="#DFE1E8" />
					<g>
						<path d="M320.32 181.87H53.6802V186.19H320.32V181.87Z" fill="#DFE1E8" />
						<g>
							<path d="M320.32 203.31H53.6802V207.63H320.32V203.31Z" fill="#DFE1E8" />
							<path d="M320.32 224.55H53.6802V228.87H320.32V224.55Z" fill="#DFE1E8" />
							<path d="M320.32 245.8H53.6802V250.12H320.32V245.8Z" fill="#DFE1E8" />
							<path d="M320.32 271.36V267.04H53.6802V271.36" fill="#DFE1E8" />
							<path d="M320.32 267.48H53.6802V271.8H320.32V267.48Z" fill="#DFE1E8" />
							<path d="M320.32 293.05V288.73H53.6802V293.05" fill="#DFE1E8" />
							<path d="M320.32 288.73H53.6802V308.39H320.32V288.73Z" fill="#DFE1E8" />
						</g>
						<path d="M320.62 183.75H316.11V308.39H320.62V183.75Z" fill="#DFE1E8" />
					</g>
					<g>
						<path d="M72.3303 253.97H67.4103C65.5325 253.97 64.0103 255.492 64.0103 257.37V264.72C64.0103 266.598 65.5325 268.12 67.4103 268.12H72.3303C74.208 268.12 75.7303 266.598 75.7303 264.72V257.37C75.7303 255.492 74.208 253.97 72.3303 253.97Z" fill="#DFE1E8" />
						<path d="M88.5104 253.97H83.5904C81.7127 253.97 80.1904 255.492 80.1904 257.37V264.72C80.1904 266.598 81.7127 268.12 83.5904 268.12H88.5104C90.3882 268.12 91.9104 266.598 91.9104 264.72V257.37C91.9104 255.492 90.3882 253.97 88.5104 253.97Z" fill="#DFE1E8" />
						<path d="M104.83 253.97H99.9103C98.0325 253.97 96.5103 255.492 96.5103 257.37V264.72C96.5103 266.598 98.0325 268.12 99.9103 268.12H104.83C106.708 268.12 108.23 266.598 108.23 264.72V257.37C108.23 255.492 106.708 253.97 104.83 253.97Z" fill="#DFE1E8" />
						<path d="M121.02 253.97H116.1C114.222 253.97 112.7 255.492 112.7 257.37V264.72C112.7 266.598 114.222 268.12 116.1 268.12H121.02C122.898 268.12 124.42 266.598 124.42 264.72V257.37C124.42 255.492 122.898 253.97 121.02 253.97Z" fill="#DFE1E8" />
						<path d="M138.72 253.97H133.8C131.923 253.97 130.4 255.492 130.4 257.37V264.72C130.4 266.598 131.923 268.12 133.8 268.12H138.72C140.598 268.12 142.12 266.598 142.12 264.72V257.37C142.12 255.492 140.598 253.97 138.72 253.97Z" fill="#DFE1E8" />
						<path d="M154.9 253.97H149.98C148.102 253.97 146.58 255.492 146.58 257.37V264.72C146.58 266.598 148.102 268.12 149.98 268.12H154.9C156.778 268.12 158.3 266.598 158.3 264.72V257.37C158.3 255.492 156.778 253.97 154.9 253.97Z" fill="#DFE1E8" />
						<path d="M171.23 253.97H166.31C164.432 253.97 162.91 255.492 162.91 257.37V264.72C162.91 266.598 164.432 268.12 166.31 268.12H171.23C173.108 268.12 174.63 266.598 174.63 264.72V257.37C174.63 255.492 173.108 253.97 171.23 253.97Z" fill="#DFE1E8" />
						<path d="M187.41 253.97H182.49C180.613 253.97 179.09 255.492 179.09 257.37V264.72C179.09 266.598 180.613 268.12 182.49 268.12H187.41C189.288 268.12 190.81 266.598 190.81 264.72V257.37C190.81 255.492 189.288 253.97 187.41 253.97Z" fill="#DFE1E8" />
						<path d="M205.97 253.97H201.05C199.173 253.97 197.65 255.492 197.65 257.37V264.72C197.65 266.598 199.173 268.12 201.05 268.12H205.97C207.848 268.12 209.37 266.598 209.37 264.72V257.37C209.37 255.492 207.848 253.97 205.97 253.97Z" fill="#DFE1E8" />
						<path d="M222.15 253.97H217.23C215.352 253.97 213.83 255.492 213.83 257.37V264.72C213.83 266.598 215.352 268.12 217.23 268.12H222.15C224.028 268.12 225.55 266.598 225.55 264.72V257.37C225.55 255.492 224.028 253.97 222.15 253.97Z" fill="#DFE1E8" />
						<path d="M238.47 253.97H233.55C231.673 253.97 230.15 255.492 230.15 257.37V264.72C230.15 266.598 231.673 268.12 233.55 268.12H238.47C240.348 268.12 241.87 266.598 241.87 264.72V257.37C241.87 255.492 240.348 253.97 238.47 253.97Z" fill="#DFE1E8" />
						<path d="M254.65 253.97H249.73C247.852 253.97 246.33 255.492 246.33 257.37V264.72C246.33 266.598 247.852 268.12 249.73 268.12H254.65C256.528 268.12 258.05 266.598 258.05 264.72V257.37C258.05 255.492 256.528 253.97 254.65 253.97Z" fill="#DFE1E8" />
						<path d="M272.36 253.97H267.44C265.562 253.97 264.04 255.492 264.04 257.37V264.72C264.04 266.598 265.562 268.12 267.44 268.12H272.36C274.238 268.12 275.76 266.598 275.76 264.72V257.37C275.76 255.492 274.238 253.97 272.36 253.97Z" fill="#DFE1E8" />
						<path d="M288.54 253.97H283.62C281.742 253.97 280.22 255.492 280.22 257.37V264.72C280.22 266.598 281.742 268.12 283.62 268.12H288.54C290.418 268.12 291.94 266.598 291.94 264.72V257.37C291.94 255.492 290.418 253.97 288.54 253.97Z" fill="#DFE1E8" />
						<path d="M304.86 253.97H299.94C298.062 253.97 296.54 255.492 296.54 257.37V264.72C296.54 266.598 298.062 268.12 299.94 268.12H304.86C306.738 268.12 308.26 266.598 308.26 264.72V257.37C308.26 255.492 306.738 253.97 304.86 253.97Z" fill="#DFE1E8" />
					</g>
					<g>
						<path d="M72.3303 279.71H67.4103C65.5325 279.71 64.0103 281.232 64.0103 283.11V290.46C64.0103 292.338 65.5325 293.86 67.4103 293.86H72.3303C74.208 293.86 75.7303 292.338 75.7303 290.46V283.11C75.7303 281.232 74.208 279.71 72.3303 279.71Z" fill="#DFE1E8" />
						<path d="M88.5104 279.71H83.5904C81.7127 279.71 80.1904 281.232 80.1904 283.11V290.46C80.1904 292.338 81.7127 293.86 83.5904 293.86H88.5104C90.3882 293.86 91.9104 292.338 91.9104 290.46V283.11C91.9104 281.232 90.3882 279.71 88.5104 279.71Z" fill="#DFE1E8" />
						<path d="M104.83 279.71H99.9103C98.0325 279.71 96.5103 281.232 96.5103 283.11V290.46C96.5103 292.338 98.0325 293.86 99.9103 293.86H104.83C106.708 293.86 108.23 292.338 108.23 290.46V283.11C108.23 281.232 106.708 279.71 104.83 279.71Z" fill="#DFE1E8" />
						<path d="M121.02 279.71H116.1C114.222 279.71 112.7 281.232 112.7 283.11V290.46C112.7 292.338 114.222 293.86 116.1 293.86H121.02C122.898 293.86 124.42 292.338 124.42 290.46V283.11C124.42 281.232 122.898 279.71 121.02 279.71Z" fill="#DFE1E8" />
						<path d="M138.72 279.71H133.8C131.923 279.71 130.4 281.232 130.4 283.11V290.46C130.4 292.338 131.923 293.86 133.8 293.86H138.72C140.598 293.86 142.12 292.338 142.12 290.46V283.11C142.12 281.232 140.598 279.71 138.72 279.71Z" fill="#DFE1E8" />
						<path d="M154.9 279.71H149.98C148.102 279.71 146.58 281.232 146.58 283.11V290.46C146.58 292.338 148.102 293.86 149.98 293.86H154.9C156.778 293.86 158.3 292.338 158.3 290.46V283.11C158.3 281.232 156.778 279.71 154.9 279.71Z" fill="#DFE1E8" />
						<path d="M171.23 279.71H166.31C164.432 279.71 162.91 281.232 162.91 283.11V290.46C162.91 292.338 164.432 293.86 166.31 293.86H171.23C173.108 293.86 174.63 292.338 174.63 290.46V283.11C174.63 281.232 173.108 279.71 171.23 279.71Z" fill="#DFE1E8" />
						<path d="M187.41 279.71H182.49C180.613 279.71 179.09 281.232 179.09 283.11V290.46C179.09 292.338 180.613 293.86 182.49 293.86H187.41C189.288 293.86 190.81 292.338 190.81 290.46V283.11C190.81 281.232 189.288 279.71 187.41 279.71Z" fill="#DFE1E8" />
						<path d="M205.97 279.71H201.05C199.173 279.71 197.65 281.232 197.65 283.11V290.46C197.65 292.338 199.173 293.86 201.05 293.86H205.97C207.848 293.86 209.37 292.338 209.37 290.46V283.11C209.37 281.232 207.848 279.71 205.97 279.71Z" fill="#DFE1E8" />
						<path d="M222.15 279.71H217.23C215.352 279.71 213.83 281.232 213.83 283.11V290.46C213.83 292.338 215.352 293.86 217.23 293.86H222.15C224.028 293.86 225.55 292.338 225.55 290.46V283.11C225.55 281.232 224.028 279.71 222.15 279.71Z" fill="#DFE1E8" />
						<path d="M238.47 279.71H233.55C231.673 279.71 230.15 281.232 230.15 283.11V290.46C230.15 292.338 231.673 293.86 233.55 293.86H238.47C240.348 293.86 241.87 292.338 241.87 290.46V283.11C241.87 281.232 240.348 279.71 238.47 279.71Z" fill="#DFE1E8" />
						<path d="M254.65 279.71H249.73C247.852 279.71 246.33 281.232 246.33 283.11V290.46C246.33 292.338 247.852 293.86 249.73 293.86H254.65C256.528 293.86 258.05 292.338 258.05 290.46V283.11C258.05 281.232 256.528 279.71 254.65 279.71Z" fill="#DFE1E8" />
						<path d="M272.36 279.71H267.44C265.562 279.71 264.04 281.232 264.04 283.11V290.46C264.04 292.338 265.562 293.86 267.44 293.86H272.36C274.238 293.86 275.76 292.338 275.76 290.46V283.11C275.76 281.232 274.238 279.71 272.36 279.71Z" fill="#DFE1E8" />
						<path d="M288.54 279.71H283.62C281.742 279.71 280.22 281.232 280.22 283.11V290.46C280.22 292.338 281.742 293.86 283.62 293.86H288.54C290.418 293.86 291.94 292.338 291.94 290.46V283.11C291.94 281.232 290.418 279.71 288.54 279.71Z" fill="#DFE1E8" />
						<path d="M304.86 279.71H299.94C298.062 279.71 296.54 281.232 296.54 283.11V290.46C296.54 292.338 298.062 293.86 299.94 293.86H304.86C306.738 293.86 308.26 292.338 308.26 290.46V283.11C308.26 281.232 306.738 279.71 304.86 279.71Z" fill="#DFE1E8" />
					</g>
				</g>
				<path d="M354.01 308.45H20V311.11H354.01V308.45Z" fill="#DFE1E8" />
				<g>
					<g>
						<g>
							<path d="M67.9499 203.721H65.2099C64.6399 203.721 64.1699 203.301 64.1699 202.791V191.951C64.1699 191.441 64.6299 191.021 65.2099 191.021H67.9499C68.5199 191.021 68.9899 191.441 68.9899 191.951V202.791C68.9899 203.301 68.5299 203.721 67.9499 203.721Z" fill="#DFE1E8" />
							<path d="M64.2598 191.59L65.5598 189.57H67.3998L68.8898 191.56L64.2598 191.59Z" fill="#DFE1E8" />
						</g>
						<path d="M67.4098 188.76H65.5898V189.58H67.4098V188.76Z" fill="#DFE1E8" />
					</g>
					<g>
						<g>
							<path d="M77.2297 203.721H74.4897C73.9197 203.721 73.4497 203.301 73.4497 202.791V191.951C73.4497 191.441 73.9097 191.021 74.4897 191.021H77.2297C77.7997 191.021 78.2697 191.441 78.2697 191.951V202.791C78.2697 203.301 77.8097 203.721 77.2297 203.721Z" fill="#DFE1E8" />
							<path d="M73.5298 191.59L74.8398 189.57H76.6798L78.1698 191.56L73.5298 191.59Z" fill="#DFE1E8" />
						</g>
						<path d="M76.6799 188.76H74.8599V189.58H76.6799V188.76Z" fill="#DFE1E8" />
					</g>
					<g>
						<g>
							<path d="M86.4997 203.721H83.7597C83.1897 203.721 82.7197 203.301 82.7197 202.791V191.951C82.7197 191.441 83.1797 191.021 83.7597 191.021H86.4997C87.0697 191.021 87.5397 191.441 87.5397 191.951V202.791C87.5397 203.301 87.0797 203.721 86.4997 203.721Z" fill="#DFE1E8" />
							<path d="M82.8096 191.59L84.1096 189.57H85.9496L87.4396 191.56L82.8096 191.59Z" fill="#DFE1E8" />
						</g>
						<path d="M85.9596 188.76H84.1396V189.58H85.9596V188.76Z" fill="#DFE1E8" />
					</g>
					<g>
						<g>
							<path d="M95.7697 203.721H93.0297C92.4597 203.721 91.9897 203.301 91.9897 202.791V191.951C91.9897 191.441 92.4497 191.021 93.0297 191.021H95.7697C96.3397 191.021 96.8097 191.441 96.8097 191.951V202.791C96.8097 203.301 96.3497 203.721 95.7697 203.721Z" fill="#DFE1E8" />
							<path d="M92.0796 191.59L93.3896 189.57H95.2296L96.7196 191.56L92.0796 191.59Z" fill="#DFE1E8" />
						</g>
						<path d="M95.2297 188.76H93.4097V189.58H95.2297V188.76Z" fill="#DFE1E8" />
					</g>
					<g>
						<g>
							<path d="M105.05 203.721H102.31C101.74 203.721 101.27 203.301 101.27 202.791V191.951C101.27 191.441 101.73 191.021 102.31 191.021H105.05C105.62 191.021 106.09 191.441 106.09 191.951V202.791C106.09 203.301 105.63 203.721 105.05 203.721Z" fill="#DFE1E8" />
							<path d="M101.36 191.59L102.66 189.57H104.5L105.99 191.56L101.36 191.59Z" fill="#DFE1E8" />
						</g>
						<path d="M104.5 188.76H102.68V189.58H104.5V188.76Z" fill="#DFE1E8" />
					</g>
					<g>
						<g>
							<path d="M114.32 203.721H111.58C111.01 203.721 110.54 203.301 110.54 202.791V191.951C110.54 191.441 111 191.021 111.58 191.021H114.32C114.89 191.021 115.36 191.441 115.36 191.951V202.791C115.36 203.301 114.9 203.721 114.32 203.721Z" fill="#DFE1E8" />
							<path d="M110.63 191.59L111.94 189.57H113.78L115.27 191.56L110.63 191.59Z" fill="#DFE1E8" />
						</g>
						<path d="M113.78 188.76H111.96V189.58H113.78V188.76Z" fill="#DFE1E8" />
					</g>
					<g>
						<g>
							<path d="M123.6 203.721H120.86C120.29 203.721 119.82 203.301 119.82 202.791V191.951C119.82 191.441 120.28 191.021 120.86 191.021H123.6C124.17 191.021 124.64 191.441 124.64 191.951V202.791C124.64 203.301 124.18 203.721 123.6 203.721Z" fill="#DFE1E8" />
							<path d="M119.9 191.59L121.21 189.57H123.05L124.54 191.56L119.9 191.59Z" fill="#DFE1E8" />
						</g>
						<path d="M123.05 188.76H121.23V189.58H123.05V188.76Z" fill="#DFE1E8" />
					</g>
					<g>
						<g>
							<path d="M132.87 203.721H130.13C129.56 203.721 129.09 203.301 129.09 202.791V191.951C129.09 191.441 129.55 191.021 130.13 191.021H132.87C133.44 191.021 133.91 191.441 133.91 191.951V202.791C133.91 203.301 133.45 203.721 132.87 203.721Z" fill="#DFE1E8" />
							<path d="M129.18 191.59L130.48 189.57H132.32L133.81 191.56L129.18 191.59Z" fill="#DFE1E8" />
						</g>
						<path d="M132.33 188.76H130.51V189.58H132.33V188.76Z" fill="#DFE1E8" />
					</g>
					<g>
						<g>
							<path d="M142.15 203.721H139.41C138.84 203.721 138.37 203.301 138.37 202.791V191.951C138.37 191.441 138.83 191.021 139.41 191.021H142.15C142.72 191.021 143.19 191.441 143.19 191.951V202.791C143.19 203.301 142.73 203.721 142.15 203.721Z" fill="#DFE1E8" />
							<path d="M138.45 191.59L139.76 189.57H141.6L143.09 191.56L138.45 191.59Z" fill="#DFE1E8" />
						</g>
						<path d="M141.6 188.76H139.78V189.58H141.6V188.76Z" fill="#DFE1E8" />
					</g>
					<g>
						<g>
							<path d="M151.42 203.721H148.68C148.11 203.721 147.64 203.301 147.64 202.791V191.951C147.64 191.441 148.1 191.021 148.68 191.021H151.42C151.99 191.021 152.46 191.441 152.46 191.951V202.791C152.46 203.301 152 203.721 151.42 203.721Z" fill="#DFE1E8" />
							<path d="M147.73 191.59L149.03 189.57H150.87L152.36 191.56L147.73 191.59Z" fill="#DFE1E8" />
						</g>
						<path d="M150.88 188.76H149.06V189.58H150.88V188.76Z" fill="#DFE1E8" />
					</g>
					<g>
						<g>
							<path d="M160.69 203.721H157.95C157.38 203.721 156.91 203.301 156.91 202.791V191.951C156.91 191.441 157.37 191.021 157.95 191.021H160.69C161.26 191.021 161.73 191.441 161.73 191.951V202.791C161.73 203.301 161.27 203.721 160.69 203.721Z" fill="#DFE1E8" />
							<path d="M157 191.59L158.31 189.57H160.15L161.64 191.56L157 191.59Z" fill="#DFE1E8" />
						</g>
						<path d="M160.15 188.76H158.33V189.58H160.15V188.76Z" fill="#DFE1E8" />
					</g>
					<g>
						<g>
							<path d="M169.97 203.721H167.23C166.66 203.721 166.19 203.301 166.19 202.791V191.951C166.19 191.441 166.65 191.021 167.23 191.021H169.97C170.54 191.021 171.01 191.441 171.01 191.951V202.791C171.01 203.301 170.55 203.721 169.97 203.721Z" fill="#DFE1E8" />
							<path d="M166.28 191.59L167.58 189.57H169.42L170.91 191.56L166.28 191.59Z" fill="#DFE1E8" />
						</g>
						<path d="M169.42 188.76H167.6V189.58H169.42V188.76Z" fill="#DFE1E8" />
					</g>
					<g>
						<g>
							<path d="M179.24 203.721H176.5C175.93 203.721 175.46 203.301 175.46 202.791V191.951C175.46 191.441 175.92 191.021 176.5 191.021H179.24C179.81 191.021 180.28 191.441 180.28 191.951V202.791C180.28 203.301 179.82 203.721 179.24 203.721Z" fill="#DFE1E8" />
							<path d="M175.55 191.59L176.86 189.57H178.69L180.19 191.56L175.55 191.59Z" fill="#DFE1E8" />
						</g>
						<path d="M178.7 188.76H176.88V189.58H178.7V188.76Z" fill="#DFE1E8" />
					</g>
					<g>
						<g>
							<path d="M188.52 203.721H185.78C185.21 203.721 184.74 203.301 184.74 202.791V191.951C184.74 191.441 185.2 191.021 185.78 191.021H188.52C189.09 191.021 189.56 191.441 189.56 191.951V202.791C189.56 203.301 189.1 203.721 188.52 203.721Z" fill="#DFE1E8" />
							<path d="M184.82 191.59L186.13 189.57H187.97L189.46 191.56L184.82 191.59Z" fill="#DFE1E8" />
						</g>
						<path d="M187.97 188.76H186.15V189.58H187.97V188.76Z" fill="#DFE1E8" />
					</g>
					<g>
						<g>
							<path d="M197.79 203.721H195.05C194.48 203.721 194.01 203.301 194.01 202.791V191.951C194.01 191.441 194.47 191.021 195.05 191.021H197.79C198.36 191.021 198.83 191.441 198.83 191.951V202.791C198.83 203.301 198.37 203.721 197.79 203.721Z" fill="#DFE1E8" />
							<path d="M194.1 191.59L195.4 189.57H197.24L198.73 191.56L194.1 191.59Z" fill="#DFE1E8" />
						</g>
						<path d="M197.25 188.76H195.43V189.58H197.25V188.76Z" fill="#DFE1E8" />
					</g>
					<g>
						<g>
							<path d="M207.07 203.721H204.33C203.76 203.721 203.29 203.301 203.29 202.791V191.951C203.29 191.441 203.75 191.021 204.33 191.021H207.07C207.64 191.021 208.11 191.441 208.11 191.951V202.791C208.11 203.301 207.65 203.721 207.07 203.721Z" fill="#DFE1E8" />
							<path d="M203.37 191.59L204.68 189.57H206.52L208.01 191.56L203.37 191.59Z" fill="#DFE1E8" />
						</g>
						<path d="M206.52 188.76H204.7V189.58H206.52V188.76Z" fill="#DFE1E8" />
					</g>
					<g>
						<g>
							<path d="M216.34 203.721H213.6C213.03 203.721 212.56 203.301 212.56 202.791V191.951C212.56 191.441 213.02 191.021 213.6 191.021H216.34C216.91 191.021 217.38 191.441 217.38 191.951V202.791C217.38 203.301 216.92 203.721 216.34 203.721Z" fill="#DFE1E8" />
							<path d="M212.65 191.59L213.95 189.57H215.79L217.28 191.56L212.65 191.59Z" fill="#DFE1E8" />
						</g>
						<path d="M215.79 188.76H213.97V189.58H215.79V188.76Z" fill="#DFE1E8" />
					</g>
					<g>
						<g>
							<path d="M225.61 203.721H222.87C222.3 203.721 221.83 203.301 221.83 202.791V191.951C221.83 191.441 222.29 191.021 222.87 191.021H225.61C226.18 191.021 226.65 191.441 226.65 191.951V202.791C226.65 203.301 226.19 203.721 225.61 203.721Z" fill="#DFE1E8" />
							<path d="M221.92 191.59L223.23 189.57H225.07L226.56 191.56L221.92 191.59Z" fill="#DFE1E8" />
						</g>
						<path d="M225.07 188.76H223.25V189.58H225.07V188.76Z" fill="#DFE1E8" />
					</g>
					<g>
						<g>
							<path d="M234.89 203.721H232.15C231.58 203.721 231.11 203.301 231.11 202.791V191.951C231.11 191.441 231.57 191.021 232.15 191.021H234.89C235.46 191.021 235.93 191.441 235.93 191.951V202.791C235.93 203.301 235.47 203.721 234.89 203.721Z" fill="#DFE1E8" />
							<path d="M231.2 191.59L232.5 189.57H234.34L235.83 191.56L231.2 191.59Z" fill="#DFE1E8" />
						</g>
						<path d="M234.34 188.76H232.52V189.58H234.34V188.76Z" fill="#DFE1E8" />
					</g>
					<g>
						<g>
							<path d="M244.16 203.721H241.42C240.85 203.721 240.38 203.301 240.38 202.791V191.951C240.38 191.441 240.84 191.021 241.42 191.021H244.16C244.73 191.021 245.2 191.441 245.2 191.951V202.791C245.2 203.301 244.74 203.721 244.16 203.721Z" fill="#DFE1E8" />
							<path d="M240.47 191.59L241.78 189.57H243.61L245.1 191.56L240.47 191.59Z" fill="#DFE1E8" />
						</g>
						<path d="M243.62 188.76H241.8V189.58H243.62V188.76Z" fill="#DFE1E8" />
					</g>
					<g>
						<g>
							<path d="M253.44 203.721H250.7C250.13 203.721 249.66 203.301 249.66 202.791V191.951C249.66 191.441 250.12 191.021 250.7 191.021H253.44C254.01 191.021 254.48 191.441 254.48 191.951V202.791C254.48 203.301 254.02 203.721 253.44 203.721Z" fill="#DFE1E8" />
							<path d="M249.74 191.59L251.05 189.57H252.89L254.38 191.56L249.74 191.59Z" fill="#DFE1E8" />
						</g>
						<path d="M252.89 188.76H251.07V189.58H252.89V188.76Z" fill="#DFE1E8" />
					</g>
					<g>
						<g>
							<path d="M262.71 203.721H259.97C259.4 203.721 258.93 203.301 258.93 202.791V191.951C258.93 191.441 259.39 191.021 259.97 191.021H262.71C263.28 191.021 263.75 191.441 263.75 191.951V202.791C263.75 203.301 263.29 203.721 262.71 203.721Z" fill="#DFE1E8" />
							<path d="M259.02 191.59L260.32 189.57H262.16L263.65 191.56L259.02 191.59Z" fill="#DFE1E8" />
						</g>
						<path d="M262.17 188.76H260.35V189.58H262.17V188.76Z" fill="#DFE1E8" />
					</g>
					<g>
						<g>
							<path d="M271.98 203.721H269.24C268.67 203.721 268.2 203.301 268.2 202.791V191.951C268.2 191.441 268.66 191.021 269.24 191.021H271.98C272.55 191.021 273.02 191.441 273.02 191.951V202.791C273.02 203.301 272.56 203.721 271.98 203.721Z" fill="#DFE1E8" />
							<path d="M268.29 191.59L269.6 189.57H271.44L272.93 191.56L268.29 191.59Z" fill="#DFE1E8" />
						</g>
						<path d="M271.44 188.76H269.62V189.58H271.44V188.76Z" fill="#DFE1E8" />
					</g>
					<g>
						<g>
							<path d="M281.26 203.721H278.52C277.95 203.721 277.48 203.301 277.48 202.791V191.951C277.48 191.441 277.94 191.021 278.52 191.021H281.26C281.83 191.021 282.3 191.441 282.3 191.951V202.791C282.3 203.301 281.84 203.721 281.26 203.721Z" fill="#DFE1E8" />
							<path d="M277.57 191.59L278.87 189.57H280.71L282.2 191.56L277.57 191.59Z" fill="#DFE1E8" />
						</g>
						<path d="M280.71 188.76H278.89V189.58H280.71V188.76Z" fill="#DFE1E8" />
					</g>
					<g>
						<g>
							<path d="M290.53 203.721H287.79C287.22 203.721 286.75 203.301 286.75 202.791V191.951C286.75 191.441 287.21 191.021 287.79 191.021H290.53C291.1 191.021 291.57 191.441 291.57 191.951V202.791C291.57 203.301 291.11 203.721 290.53 203.721Z" fill="#DFE1E8" />
							<path d="M286.84 191.59L288.15 189.57H289.99L291.48 191.56L286.84 191.59Z" fill="#DFE1E8" />
						</g>
						<path d="M289.99 188.76H288.17V189.58H289.99V188.76Z" fill="#DFE1E8" />
					</g>
					<g>
						<g>
							<path d="M299.81 203.721H297.07C296.5 203.721 296.03 203.301 296.03 202.791V191.951C296.03 191.441 296.49 191.021 297.07 191.021H299.81C300.38 191.021 300.85 191.441 300.85 191.951V202.791C300.85 203.301 300.39 203.721 299.81 203.721Z" fill="#DFE1E8" />
							<path d="M296.11 191.59L297.42 189.57H299.26L300.75 191.56L296.11 191.59Z" fill="#DFE1E8" />
						</g>
						<path d="M299.26 188.76H297.44V189.58H299.26V188.76Z" fill="#DFE1E8" />
					</g>
					<g>
						<g>
							<path d="M309.08 203.721H306.34C305.77 203.721 305.3 203.301 305.3 202.791V191.951C305.3 191.441 305.76 191.021 306.34 191.021H309.08C309.65 191.021 310.12 191.441 310.12 191.951V202.791C310.12 203.301 309.66 203.721 309.08 203.721Z" fill="#DFE1E8" />
							<path d="M305.39 191.59L306.69 189.57H308.53L310.02 191.56L305.39 191.59Z" fill="#DFE1E8" />
						</g>
						<path d="M308.54 188.76H306.72V189.58H308.54V188.76Z" fill="#DFE1E8" />
					</g>
				</g>
				<g>
					<g>
						<g>
							<g>
								<path d="M67.8698 247.39H65.1298C64.5598 247.39 64.0898 246.97 64.0898 246.46V235.62C64.0898 235.11 64.5498 234.69 65.1298 234.69H67.8698C68.4398 234.69 68.9098 235.11 68.9098 235.62V246.46C68.9098 246.97 68.4498 247.39 67.8698 247.39Z" fill="#DFE1E8" />
								<path d="M64.1699 235.26L65.4799 233.25H67.3199L68.8099 235.24L64.1699 235.26Z" fill="#DFE1E8" />
							</g>
							<path d="M67.32 232.43H65.5V233.25H67.32V232.43Z" fill="#DFE1E8" />
						</g>
						<g>
							<g>
								<path d="M74.82 247.39H72.08C71.51 247.39 71.04 246.97 71.04 246.46V235.62C71.04 235.11 71.5 234.69 72.08 234.69H74.82C75.39 234.69 75.86 235.11 75.86 235.62V246.46C75.86 246.97 75.4 247.39 74.82 247.39Z" fill="#DFE1E8" />
								<path d="M71.1299 235.26L72.4299 233.25H74.2699L75.7599 235.24L71.1299 235.26Z" fill="#DFE1E8" />
							</g>
							<path d="M74.28 232.43H72.46V233.25H74.28V232.43Z" fill="#DFE1E8" />
						</g>
					</g>
					<g>
						<g>
							<g>
								<path d="M86.5998 247.39H83.8598C83.2898 247.39 82.8198 246.97 82.8198 246.46V235.62C82.8198 235.11 83.2798 234.69 83.8598 234.69H86.5998C87.1698 234.69 87.6398 235.11 87.6398 235.62V246.46C87.6398 246.97 87.1798 247.39 86.5998 247.39Z" fill="#DFE1E8" />
								<path d="M82.9097 235.26L84.2097 233.25H86.0497L87.5397 235.24L82.9097 235.26Z" fill="#DFE1E8" />
							</g>
							<path d="M86.0597 232.43H84.2397V233.25H86.0597V232.43Z" fill="#DFE1E8" />
						</g>
						<g>
							<g>
								<path d="M93.5598 247.39H90.8198C90.2498 247.39 89.7798 246.97 89.7798 246.46V235.62C89.7798 235.11 90.2398 234.69 90.8198 234.69H93.5598C94.1298 234.69 94.5998 235.11 94.5998 235.62V246.46C94.5998 246.97 94.1398 247.39 93.5598 247.39Z" fill="#DFE1E8" />
								<path d="M89.8599 235.26L91.1699 233.25H93.0099L94.4999 235.24L89.8599 235.26Z" fill="#DFE1E8" />
							</g>
							<path d="M93.0099 232.43H91.1899V233.25H93.0099V232.43Z" fill="#DFE1E8" />
						</g>
					</g>
					<g>
						<g>
							<g>
								<path d="M105.34 247.39H102.6C102.03 247.39 101.56 246.97 101.56 246.46V235.62C101.56 235.11 102.02 234.69 102.6 234.69H105.34C105.91 234.69 106.38 235.11 106.38 235.62V246.46C106.38 246.97 105.92 247.39 105.34 247.39Z" fill="#DFE1E8" />
								<path d="M101.64 235.26L102.95 233.25H104.79L106.28 235.24L101.64 235.26Z" fill="#DFE1E8" />
							</g>
							<path d="M104.79 232.43H102.97V233.25H104.79V232.43Z" fill="#DFE1E8" />
						</g>
						<g>
							<g>
								<path d="M112.29 247.39H109.55C108.98 247.39 108.51 246.97 108.51 246.46V235.62C108.51 235.11 108.97 234.69 109.55 234.69H112.29C112.86 234.69 113.33 235.11 113.33 235.62V246.46C113.33 246.97 112.87 247.39 112.29 247.39Z" fill="#DFE1E8" />
								<path d="M108.6 235.26L109.9 233.25H111.74L113.23 235.24L108.6 235.26Z" fill="#DFE1E8" />
							</g>
							<path d="M111.75 232.43H109.93V233.25H111.75V232.43Z" fill="#DFE1E8" />
						</g>
					</g>
					<g>
						<g>
							<g>
								<path d="M124.07 247.39H121.33C120.76 247.39 120.29 246.97 120.29 246.46V235.62C120.29 235.11 120.75 234.69 121.33 234.69H124.07C124.64 234.69 125.11 235.11 125.11 235.62V246.46C125.11 246.97 124.65 247.39 124.07 247.39Z" fill="#DFE1E8" />
								<path d="M120.38 235.26L121.68 233.25H123.52L125.01 235.24L120.38 235.26Z" fill="#DFE1E8" />
							</g>
							<path d="M123.53 232.43H121.71V233.25H123.53V232.43Z" fill="#DFE1E8" />
						</g>
						<g>
							<g>
								<path d="M131.03 247.39H128.29C127.72 247.39 127.25 246.97 127.25 246.46V235.62C127.25 235.11 127.71 234.69 128.29 234.69H131.03C131.6 234.69 132.07 235.11 132.07 235.62V246.46C132.07 246.97 131.61 247.39 131.03 247.39Z" fill="#DFE1E8" />
								<path d="M127.33 235.26L128.64 233.25H130.48L131.97 235.24L127.33 235.26Z" fill="#DFE1E8" />
							</g>
							<path d="M130.48 232.43H128.66V233.25H130.48V232.43Z" fill="#DFE1E8" />
						</g>
					</g>
					<g>
						<g>
							<g>
								<path d="M142.81 247.39H140.07C139.5 247.39 139.03 246.97 139.03 246.46V235.62C139.03 235.11 139.49 234.69 140.07 234.69H142.81C143.38 234.69 143.85 235.11 143.85 235.62V246.46C143.85 246.97 143.39 247.39 142.81 247.39Z" fill="#DFE1E8" />
								<path d="M139.11 235.26L140.42 233.25H142.26L143.75 235.24L139.11 235.26Z" fill="#DFE1E8" />
							</g>
							<path d="M142.26 232.43H140.44V233.25H142.26V232.43Z" fill="#DFE1E8" />
						</g>
						<g>
							<g>
								<path d="M149.76 247.39H147.02C146.45 247.39 145.98 246.97 145.98 246.46V235.62C145.98 235.11 146.44 234.69 147.02 234.69H149.76C150.33 234.69 150.8 235.11 150.8 235.62V246.46C150.8 246.97 150.34 247.39 149.76 247.39Z" fill="#DFE1E8" />
								<path d="M146.07 235.26L147.37 233.25H149.21L150.7 235.24L146.07 235.26Z" fill="#DFE1E8" />
							</g>
							<path d="M149.22 232.43H147.4V233.25H149.22V232.43Z" fill="#DFE1E8" />
						</g>
					</g>
					<g>
						<g>
							<g>
								<path d="M161.54 247.39H158.8C158.23 247.39 157.76 246.97 157.76 246.46V235.62C157.76 235.11 158.22 234.69 158.8 234.69H161.54C162.11 234.69 162.58 235.11 162.58 235.62V246.46C162.58 246.97 162.12 247.39 161.54 247.39Z" fill="#DFE1E8" />
								<path d="M157.85 235.26L159.15 233.25H160.99L162.48 235.24L157.85 235.26Z" fill="#DFE1E8" />
							</g>
							<path d="M161 232.43H159.18V233.25H161V232.43Z" fill="#DFE1E8" />
						</g>
						<g>
							<g>
								<path d="M168.5 247.39H165.76C165.19 247.39 164.72 246.97 164.72 246.46V235.62C164.72 235.11 165.18 234.69 165.76 234.69H168.5C169.07 234.69 169.54 235.11 169.54 235.62V246.46C169.54 246.97 169.08 247.39 168.5 247.39Z" fill="#DFE1E8" />
								<path d="M164.8 235.26L166.11 233.25H167.95L169.44 235.24L164.8 235.26Z" fill="#DFE1E8" />
							</g>
							<path d="M167.95 232.43H166.13V233.25H167.95V232.43Z" fill="#DFE1E8" />
						</g>
					</g>
					<g>
						<g>
							<g>
								<path d="M180.28 247.39H177.54C176.97 247.39 176.5 246.97 176.5 246.46V235.62C176.5 235.11 176.96 234.69 177.54 234.69H180.28C180.85 234.69 181.32 235.11 181.32 235.62V246.46C181.32 246.97 180.86 247.39 180.28 247.39Z" fill="#DFE1E8" />
								<path d="M176.58 235.26L177.89 233.25H179.73L181.22 235.24L176.58 235.26Z" fill="#DFE1E8" />
							</g>
							<path d="M179.73 232.43H177.91V233.25H179.73V232.43Z" fill="#DFE1E8" />
						</g>
						<g>
							<g>
								<path d="M187.23 247.39H184.49C183.92 247.39 183.45 246.97 183.45 246.46V235.62C183.45 235.11 183.91 234.69 184.49 234.69H187.23C187.8 234.69 188.27 235.11 188.27 235.62V246.46C188.27 246.97 187.81 247.39 187.23 247.39Z" fill="#DFE1E8" />
								<path d="M183.54 235.26L184.84 233.25H186.68L188.17 235.24L183.54 235.26Z" fill="#DFE1E8" />
							</g>
							<path d="M186.69 232.43H184.87V233.25H186.69V232.43Z" fill="#DFE1E8" />
						</g>
					</g>
					<g>
						<g>
							<g>
								<path d="M199.01 247.39H196.27C195.7 247.39 195.23 246.97 195.23 246.46V235.62C195.23 235.11 195.69 234.69 196.27 234.69H199.01C199.58 234.69 200.05 235.11 200.05 235.62V246.46C200.05 246.97 199.59 247.39 199.01 247.39Z" fill="#DFE1E8" />
								<path d="M195.32 235.26L196.62 233.25H198.46L199.95 235.24L195.32 235.26Z" fill="#DFE1E8" />
							</g>
							<path d="M198.47 232.43H196.65V233.25H198.47V232.43Z" fill="#DFE1E8" />
						</g>
						<g>
							<g>
								<path d="M205.97 247.39H203.23C202.66 247.39 202.19 246.97 202.19 246.46V235.62C202.19 235.11 202.65 234.69 203.23 234.69H205.97C206.54 234.69 207.01 235.11 207.01 235.62V246.46C207.01 246.97 206.55 247.39 205.97 247.39Z" fill="#DFE1E8" />
								<path d="M202.27 235.26L203.58 233.25H205.42L206.91 235.24L202.27 235.26Z" fill="#DFE1E8" />
							</g>
							<path d="M205.42 232.43H203.6V233.25H205.42V232.43Z" fill="#DFE1E8" />
						</g>
					</g>
					<g>
						<g>
							<g>
								<path d="M217.75 247.39H215.01C214.44 247.39 213.97 246.97 213.97 246.46V235.62C213.97 235.11 214.43 234.69 215.01 234.69H217.75C218.32 234.69 218.79 235.11 218.79 235.62V246.46C218.79 246.97 218.33 247.39 217.75 247.39Z" fill="#DFE1E8" />
								<path d="M214.05 235.26L215.36 233.25H217.2L218.69 235.24L214.05 235.26Z" fill="#DFE1E8" />
							</g>
							<path d="M217.2 232.43H215.38V233.25H217.2V232.43Z" fill="#DFE1E8" />
						</g>
						<g>
							<g>
								<path d="M224.7 247.39H221.96C221.39 247.39 220.92 246.97 220.92 246.46V235.62C220.92 235.11 221.38 234.69 221.96 234.69H224.7C225.27 234.69 225.74 235.11 225.74 235.62V246.46C225.74 246.97 225.28 247.39 224.7 247.39Z" fill="#DFE1E8" />
								<path d="M221.01 235.26L222.32 233.25H224.15L225.64 235.24L221.01 235.26Z" fill="#DFE1E8" />
							</g>
							<path d="M224.16 232.43H222.34V233.25H224.16V232.43Z" fill="#DFE1E8" />
						</g>
					</g>
					<g>
						<g>
							<g>
								<path d="M236.48 247.39H233.74C233.17 247.39 232.7 246.97 232.7 246.46V235.62C232.7 235.11 233.16 234.69 233.74 234.69H236.48C237.05 234.69 237.52 235.11 237.52 235.62V246.46C237.52 246.97 237.06 247.39 236.48 247.39Z" fill="#DFE1E8" />
								<path d="M232.79 235.26L234.09 233.25H235.93L237.42 235.24L232.79 235.26Z" fill="#DFE1E8" />
							</g>
							<path d="M235.94 232.43H234.12V233.25H235.94V232.43Z" fill="#DFE1E8" />
						</g>
						<g>
							<g>
								<path d="M243.44 247.39H240.7C240.13 247.39 239.66 246.97 239.66 246.46V235.62C239.66 235.11 240.12 234.69 240.7 234.69H243.44C244.01 234.69 244.48 235.11 244.48 235.62V246.46C244.48 246.97 244.02 247.39 243.44 247.39Z" fill="#DFE1E8" />
								<path d="M239.74 235.26L241.05 233.25H242.89L244.38 235.24L239.74 235.26Z" fill="#DFE1E8" />
							</g>
							<path d="M242.89 232.43H241.07V233.25H242.89V232.43Z" fill="#DFE1E8" />
						</g>
					</g>
					<g>
						<g>
							<g>
								<path d="M255.22 247.39H252.48C251.91 247.39 251.44 246.97 251.44 246.46V235.62C251.44 235.11 251.9 234.69 252.48 234.69H255.22C255.79 234.69 256.26 235.11 256.26 235.62V246.46C256.26 246.97 255.8 247.39 255.22 247.39Z" fill="#DFE1E8" />
								<path d="M251.52 235.26L252.83 233.25H254.67L256.16 235.24L251.52 235.26Z" fill="#DFE1E8" />
							</g>
							<path d="M254.67 232.43H252.85V233.25H254.67V232.43Z" fill="#DFE1E8" />
						</g>
						<g>
							<g>
								<path d="M262.17 247.39H259.43C258.86 247.39 258.39 246.97 258.39 246.46V235.62C258.39 235.11 258.85 234.69 259.43 234.69H262.17C262.74 234.69 263.21 235.11 263.21 235.62V246.46C263.21 246.97 262.75 247.39 262.17 247.39Z" fill="#DFE1E8" />
								<path d="M258.48 235.26L259.79 233.25H261.62L263.12 235.24L258.48 235.26Z" fill="#DFE1E8" />
							</g>
							<path d="M261.63 232.43H259.81V233.25H261.63V232.43Z" fill="#DFE1E8" />
						</g>
					</g>
					<g>
						<g>
							<g>
								<path d="M273.95 247.39H271.21C270.64 247.39 270.17 246.97 270.17 246.46V235.62C270.17 235.11 270.63 234.69 271.21 234.69H273.95C274.52 234.69 274.99 235.11 274.99 235.62V246.46C274.99 246.97 274.53 247.39 273.95 247.39Z" fill="#DFE1E8" />
								<path d="M270.26 235.26L271.57 233.25H273.4L274.89 235.24L270.26 235.26Z" fill="#DFE1E8" />
							</g>
							<path d="M273.41 232.43H271.59V233.25H273.41V232.43Z" fill="#DFE1E8" />
						</g>
						<g>
							<g>
								<path d="M280.91 247.39H278.17C277.6 247.39 277.13 246.97 277.13 246.46V235.62C277.13 235.11 277.59 234.69 278.17 234.69H280.91C281.48 234.69 281.95 235.11 281.95 235.62V246.46C281.95 246.97 281.49 247.39 280.91 247.39Z" fill="#DFE1E8" />
								<path d="M277.22 235.26L278.52 233.25H280.36L281.85 235.24L277.22 235.26Z" fill="#DFE1E8" />
							</g>
							<path d="M280.36 232.43H278.54V233.25H280.36V232.43Z" fill="#DFE1E8" />
						</g>
					</g>
					<g>
						<g>
							<g>
								<path d="M292.69 247.39H289.95C289.38 247.39 288.91 246.97 288.91 246.46V235.62C288.91 235.11 289.37 234.69 289.95 234.69H292.69C293.26 234.69 293.73 235.11 293.73 235.62V246.46C293.73 246.97 293.27 247.39 292.69 247.39Z" fill="#DFE1E8" />
								<path d="M288.99 235.26L290.3 233.25H292.14L293.63 235.24L288.99 235.26Z" fill="#DFE1E8" />
							</g>
							<path d="M292.14 232.43H290.32V233.25H292.14V232.43Z" fill="#DFE1E8" />
						</g>
						<g>
							<g>
								<path d="M299.64 247.39H296.9C296.33 247.39 295.86 246.97 295.86 246.46V235.62C295.86 235.11 296.32 234.69 296.9 234.69H299.64C300.21 234.69 300.68 235.11 300.68 235.62V246.46C300.68 246.97 300.22 247.39 299.64 247.39Z" fill="#DFE1E8" />
								<path d="M295.95 235.26L297.26 233.25H299.1L300.59 235.24L295.95 235.26Z" fill="#DFE1E8" />
							</g>
							<path d="M299.1 232.43H297.28V233.25H299.1V232.43Z" fill="#DFE1E8" />
						</g>
					</g>
				</g>
				<g>
					<g>
						<g>
							<path d="M67.9499 225.69H65.2099C64.6399 225.69 64.1699 225.27 64.1699 224.76V213.92C64.1699 213.41 64.6299 212.99 65.2099 212.99H67.9499C68.5199 212.99 68.9899 213.41 68.9899 213.92V224.76C68.9899 225.27 68.5299 225.69 67.9499 225.69Z" fill="#DFE1E8" />
							<path d="M64.2598 213.56L65.5598 211.55H67.3998L68.8898 213.54L64.2598 213.56Z" fill="#DFE1E8" />
						</g>
						<path d="M67.4098 210.73H65.5898V211.55H67.4098V210.73Z" fill="#DFE1E8" />
					</g>
					<g>
						<g>
							<path d="M77.2297 225.69H74.4897C73.9197 225.69 73.4497 225.27 73.4497 224.76V213.92C73.4497 213.41 73.9097 212.99 74.4897 212.99H77.2297C77.7997 212.99 78.2697 213.41 78.2697 213.92V224.76C78.2697 225.27 77.8097 225.69 77.2297 225.69Z" fill="#DFE1E8" />
							<path d="M73.5298 213.56L74.8398 211.55H76.6798L78.1698 213.54L73.5298 213.56Z" fill="#DFE1E8" />
						</g>
						<path d="M76.6799 210.73H74.8599V211.55H76.6799V210.73Z" fill="#DFE1E8" />
					</g>
					<g>
						<g>
							<path d="M86.4997 225.69H83.7597C83.1897 225.69 82.7197 225.27 82.7197 224.76V213.92C82.7197 213.41 83.1797 212.99 83.7597 212.99H86.4997C87.0697 212.99 87.5397 213.41 87.5397 213.92V224.76C87.5397 225.27 87.0797 225.69 86.4997 225.69Z" fill="#DFE1E8" />
							<path d="M82.8096 213.56L84.1096 211.55H85.9496L87.4396 213.54L82.8096 213.56Z" fill="#DFE1E8" />
						</g>
						<path d="M85.9596 210.73H84.1396V211.55H85.9596V210.73Z" fill="#DFE1E8" />
					</g>
					<g>
						<g>
							<path d="M95.7697 225.69H93.0297C92.4597 225.69 91.9897 225.27 91.9897 224.76V213.92C91.9897 213.41 92.4497 212.99 93.0297 212.99H95.7697C96.3397 212.99 96.8097 213.41 96.8097 213.92V224.76C96.8097 225.27 96.3497 225.69 95.7697 225.69Z" fill="#DFE1E8" />
							<path d="M92.0796 213.56L93.3896 211.55H95.2296L96.7196 213.54L92.0796 213.56Z" fill="#DFE1E8" />
						</g>
						<path d="M95.2297 210.73H93.4097V211.55H95.2297V210.73Z" fill="#DFE1E8" />
					</g>
					<g>
						<g>
							<path d="M105.05 225.69H102.31C101.74 225.69 101.27 225.27 101.27 224.76V213.92C101.27 213.41 101.73 212.99 102.31 212.99H105.05C105.62 212.99 106.09 213.41 106.09 213.92V224.76C106.09 225.27 105.63 225.69 105.05 225.69Z" fill="#DFE1E8" />
							<path d="M101.36 213.56L102.66 211.55H104.5L105.99 213.54L101.36 213.56Z" fill="#DFE1E8" />
						</g>
						<path d="M104.5 210.73H102.68V211.55H104.5V210.73Z" fill="#DFE1E8" />
					</g>
					<g>
						<g>
							<path d="M114.32 225.69H111.58C111.01 225.69 110.54 225.27 110.54 224.76V213.92C110.54 213.41 111 212.99 111.58 212.99H114.32C114.89 212.99 115.36 213.41 115.36 213.92V224.76C115.36 225.27 114.9 225.69 114.32 225.69Z" fill="#DFE1E8" />
							<path d="M110.63 213.56L111.94 211.55H113.78L115.27 213.54L110.63 213.56Z" fill="#DFE1E8" />
						</g>
						<path d="M113.78 210.73H111.96V211.55H113.78V210.73Z" fill="#DFE1E8" />
					</g>
					<g>
						<g>
							<path d="M123.6 225.69H120.86C120.29 225.69 119.82 225.27 119.82 224.76V213.92C119.82 213.41 120.28 212.99 120.86 212.99H123.6C124.17 212.99 124.64 213.41 124.64 213.92V224.76C124.64 225.27 124.18 225.69 123.6 225.69Z" fill="#DFE1E8" />
							<path d="M119.9 213.56L121.21 211.55H123.05L124.54 213.54L119.9 213.56Z" fill="#DFE1E8" />
						</g>
						<path d="M123.05 210.73H121.23V211.55H123.05V210.73Z" fill="#DFE1E8" />
					</g>
					<g>
						<g>
							<path d="M132.87 225.69H130.13C129.56 225.69 129.09 225.27 129.09 224.76V213.92C129.09 213.41 129.55 212.99 130.13 212.99H132.87C133.44 212.99 133.91 213.41 133.91 213.92V224.76C133.91 225.27 133.45 225.69 132.87 225.69Z" fill="#DFE1E8" />
							<path d="M129.18 213.56L130.48 211.55H132.32L133.81 213.54L129.18 213.56Z" fill="#DFE1E8" />
						</g>
						<path d="M132.33 210.73H130.51V211.55H132.33V210.73Z" fill="#DFE1E8" />
					</g>
					<g>
						<g>
							<path d="M142.15 225.69H139.41C138.84 225.69 138.37 225.27 138.37 224.76V213.92C138.37 213.41 138.83 212.99 139.41 212.99H142.15C142.72 212.99 143.19 213.41 143.19 213.92V224.76C143.19 225.27 142.73 225.69 142.15 225.69Z" fill="#DFE1E8" />
							<path d="M138.45 213.56L139.76 211.55H141.6L143.09 213.54L138.45 213.56Z" fill="#DFE1E8" />
						</g>
						<path d="M141.6 210.73H139.78V211.55H141.6V210.73Z" fill="#DFE1E8" />
					</g>
					<g>
						<g>
							<path d="M151.42 225.69H148.68C148.11 225.69 147.64 225.27 147.64 224.76V213.92C147.64 213.41 148.1 212.99 148.68 212.99H151.42C151.99 212.99 152.46 213.41 152.46 213.92V224.76C152.46 225.27 152 225.69 151.42 225.69Z" fill="#DFE1E8" />
							<path d="M147.73 213.56L149.03 211.55H150.87L152.36 213.54L147.73 213.56Z" fill="#DFE1E8" />
						</g>
						<path d="M150.88 210.73H149.06V211.55H150.88V210.73Z" fill="#DFE1E8" />
					</g>
					<g>
						<g>
							<path d="M160.69 225.69H157.95C157.38 225.69 156.91 225.27 156.91 224.76V213.92C156.91 213.41 157.37 212.99 157.95 212.99H160.69C161.26 212.99 161.73 213.41 161.73 213.92V224.76C161.73 225.27 161.27 225.69 160.69 225.69Z" fill="#DFE1E8" />
							<path d="M157 213.56L158.31 211.55H160.15L161.64 213.54L157 213.56Z" fill="#DFE1E8" />
						</g>
						<path d="M160.15 210.73H158.33V211.55H160.15V210.73Z" fill="#DFE1E8" />
					</g>
					<g>
						<g>
							<path d="M169.97 225.69H167.23C166.66 225.69 166.19 225.27 166.19 224.76V213.92C166.19 213.41 166.65 212.99 167.23 212.99H169.97C170.54 212.99 171.01 213.41 171.01 213.92V224.76C171.01 225.27 170.55 225.69 169.97 225.69Z" fill="#DFE1E8" />
							<path d="M166.28 213.56L167.58 211.55H169.42L170.91 213.54L166.28 213.56Z" fill="#DFE1E8" />
						</g>
						<path d="M169.42 210.73H167.6V211.55H169.42V210.73Z" fill="#DFE1E8" />
					</g>
					<g>
						<g>
							<path d="M179.24 225.69H176.5C175.93 225.69 175.46 225.27 175.46 224.76V213.92C175.46 213.41 175.92 212.99 176.5 212.99H179.24C179.81 212.99 180.28 213.41 180.28 213.92V224.76C180.28 225.27 179.82 225.69 179.24 225.69Z" fill="#DFE1E8" />
							<path d="M175.55 213.56L176.86 211.55H178.69L180.19 213.54L175.55 213.56Z" fill="#DFE1E8" />
						</g>
						<path d="M178.7 210.73H176.88V211.55H178.7V210.73Z" fill="#DFE1E8" />
					</g>
					<g>
						<g>
							<path d="M188.52 225.69H185.78C185.21 225.69 184.74 225.27 184.74 224.76V213.92C184.74 213.41 185.2 212.99 185.78 212.99H188.52C189.09 212.99 189.56 213.41 189.56 213.92V224.76C189.56 225.27 189.1 225.69 188.52 225.69Z" fill="#DFE1E8" />
							<path d="M184.82 213.56L186.13 211.55H187.97L189.46 213.54L184.82 213.56Z" fill="#DFE1E8" />
						</g>
						<path d="M187.97 210.73H186.15V211.55H187.97V210.73Z" fill="#DFE1E8" />
					</g>
					<g>
						<g>
							<path d="M197.79 225.69H195.05C194.48 225.69 194.01 225.27 194.01 224.76V213.92C194.01 213.41 194.47 212.99 195.05 212.99H197.79C198.36 212.99 198.83 213.41 198.83 213.92V224.76C198.83 225.27 198.37 225.69 197.79 225.69Z" fill="#DFE1E8" />
							<path d="M194.1 213.56L195.4 211.55H197.24L198.73 213.54L194.1 213.56Z" fill="#DFE1E8" />
						</g>
						<path d="M197.25 210.73H195.43V211.55H197.25V210.73Z" fill="#DFE1E8" />
					</g>
					<g>
						<g>
							<path d="M207.07 225.69H204.33C203.76 225.69 203.29 225.27 203.29 224.76V213.92C203.29 213.41 203.75 212.99 204.33 212.99H207.07C207.64 212.99 208.11 213.41 208.11 213.92V224.76C208.11 225.27 207.65 225.69 207.07 225.69Z" fill="#DFE1E8" />
							<path d="M203.37 213.56L204.68 211.55H206.52L208.01 213.54L203.37 213.56Z" fill="#DFE1E8" />
						</g>
						<path d="M206.52 210.73H204.7V211.55H206.52V210.73Z" fill="#DFE1E8" />
					</g>
					<g>
						<g>
							<path d="M216.34 225.69H213.6C213.03 225.69 212.56 225.27 212.56 224.76V213.92C212.56 213.41 213.02 212.99 213.6 212.99H216.34C216.91 212.99 217.38 213.41 217.38 213.92V224.76C217.38 225.27 216.92 225.69 216.34 225.69Z" fill="#DFE1E8" />
							<path d="M212.65 213.56L213.95 211.55H215.79L217.28 213.54L212.65 213.56Z" fill="#DFE1E8" />
						</g>
						<path d="M215.79 210.73H213.97V211.55H215.79V210.73Z" fill="#DFE1E8" />
					</g>
					<g>
						<g>
							<path d="M225.61 225.69H222.87C222.3 225.69 221.83 225.27 221.83 224.76V213.92C221.83 213.41 222.29 212.99 222.87 212.99H225.61C226.18 212.99 226.65 213.41 226.65 213.92V224.76C226.65 225.27 226.19 225.69 225.61 225.69Z" fill="#DFE1E8" />
							<path d="M221.92 213.56L223.23 211.55H225.07L226.56 213.54L221.92 213.56Z" fill="#DFE1E8" />
						</g>
						<path d="M225.07 210.73H223.25V211.55H225.07V210.73Z" fill="#DFE1E8" />
					</g>
					<g>
						<g>
							<path d="M234.89 225.69H232.15C231.58 225.69 231.11 225.27 231.11 224.76V213.92C231.11 213.41 231.57 212.99 232.15 212.99H234.89C235.46 212.99 235.93 213.41 235.93 213.92V224.76C235.93 225.27 235.47 225.69 234.89 225.69Z" fill="#DFE1E8" />
							<path d="M231.2 213.56L232.5 211.55H234.34L235.83 213.54L231.2 213.56Z" fill="#DFE1E8" />
						</g>
						<path d="M234.34 210.73H232.52V211.55H234.34V210.73Z" fill="#DFE1E8" />
					</g>
					<g>
						<g>
							<path d="M244.16 225.69H241.42C240.85 225.69 240.38 225.27 240.38 224.76V213.92C240.38 213.41 240.84 212.99 241.42 212.99H244.16C244.73 212.99 245.2 213.41 245.2 213.92V224.76C245.2 225.27 244.74 225.69 244.16 225.69Z" fill="#DFE1E8" />
							<path d="M240.47 213.56L241.78 211.55H243.61L245.1 213.54L240.47 213.56Z" fill="#DFE1E8" />
						</g>
						<path d="M243.62 210.73H241.8V211.55H243.62V210.73Z" fill="#DFE1E8" />
					</g>
					<g>
						<g>
							<path d="M253.44 225.69H250.7C250.13 225.69 249.66 225.27 249.66 224.76V213.92C249.66 213.41 250.12 212.99 250.7 212.99H253.44C254.01 212.99 254.48 213.41 254.48 213.92V224.76C254.48 225.27 254.02 225.69 253.44 225.69Z" fill="#DFE1E8" />
							<path d="M249.74 213.56L251.05 211.55H252.89L254.38 213.54L249.74 213.56Z" fill="#DFE1E8" />
						</g>
						<path d="M252.89 210.73H251.07V211.55H252.89V210.73Z" fill="#DFE1E8" />
					</g>
					<g>
						<g>
							<path d="M262.71 225.69H259.97C259.4 225.69 258.93 225.27 258.93 224.76V213.92C258.93 213.41 259.39 212.99 259.97 212.99H262.71C263.28 212.99 263.75 213.41 263.75 213.92V224.76C263.75 225.27 263.29 225.69 262.71 225.69Z" fill="#DFE1E8" />
							<path d="M259.02 213.56L260.32 211.55H262.16L263.65 213.54L259.02 213.56Z" fill="#DFE1E8" />
						</g>
						<path d="M262.17 210.73H260.35V211.55H262.17V210.73Z" fill="#DFE1E8" />
					</g>
					<g>
						<g>
							<path d="M271.98 225.69H269.24C268.67 225.69 268.2 225.27 268.2 224.76V213.92C268.2 213.41 268.66 212.99 269.24 212.99H271.98C272.55 212.99 273.02 213.41 273.02 213.92V224.76C273.02 225.27 272.56 225.69 271.98 225.69Z" fill="#DFE1E8" />
							<path d="M268.29 213.56L269.6 211.55H271.44L272.93 213.54L268.29 213.56Z" fill="#DFE1E8" />
						</g>
						<path d="M271.44 210.73H269.62V211.55H271.44V210.73Z" fill="#DFE1E8" />
					</g>
					<g>
						<g>
							<path d="M281.26 225.69H278.52C277.95 225.69 277.48 225.27 277.48 224.76V213.92C277.48 213.41 277.94 212.99 278.52 212.99H281.26C281.83 212.99 282.3 213.41 282.3 213.92V224.76C282.3 225.27 281.84 225.69 281.26 225.69Z" fill="#DFE1E8" />
							<path d="M277.57 213.56L278.87 211.55H280.71L282.2 213.54L277.57 213.56Z" fill="#DFE1E8" />
						</g>
						<path d="M280.71 210.73H278.89V211.55H280.71V210.73Z" fill="#DFE1E8" />
					</g>
					<g>
						<g>
							<path d="M290.53 225.69H287.79C287.22 225.69 286.75 225.27 286.75 224.76V213.92C286.75 213.41 287.21 212.99 287.79 212.99H290.53C291.1 212.99 291.57 213.41 291.57 213.92V224.76C291.57 225.27 291.11 225.69 290.53 225.69Z" fill="#DFE1E8" />
							<path d="M286.84 213.56L288.15 211.55H289.99L291.48 213.54L286.84 213.56Z" fill="#DFE1E8" />
						</g>
						<path d="M289.99 210.73H288.17V211.55H289.99V210.73Z" fill="#DFE1E8" />
					</g>
					<g>
						<g>
							<path d="M299.81 225.69H297.07C296.5 225.69 296.03 225.27 296.03 224.76V213.92C296.03 213.41 296.49 212.99 297.07 212.99H299.81C300.38 212.99 300.85 213.41 300.85 213.92V224.76C300.85 225.27 300.39 225.69 299.81 225.69Z" fill="#DFE1E8" />
							<path d="M296.11 213.56L297.42 211.55H299.26L300.75 213.54L296.11 213.56Z" fill="#DFE1E8" />
						</g>
						<path d="M299.26 210.73H297.44V211.55H299.26V210.73Z" fill="#DFE1E8" />
					</g>
					<g>
						<g>
							<path d="M309.08 225.69H306.34C305.77 225.69 305.3 225.27 305.3 224.76V213.92C305.3 213.41 305.76 212.99 306.34 212.99H309.08C309.65 212.99 310.12 213.41 310.12 213.92V224.76C310.12 225.27 309.66 225.69 309.08 225.69Z" fill="#DFE1E8" />
							<path d="M305.39 213.56L306.69 211.55H308.53L310.02 213.54L305.39 213.56Z" fill="#DFE1E8" />
						</g>
						<path d="M308.54 210.73H306.72V211.55H308.54V210.73Z" fill="#DFE1E8" />
					</g>
				</g>
			</g>
		</g>
		<g class="svgIcon svgIcon2">
			<path d="M53.7506 298.447C49.7287 298.447 46.1537 297.404 43.0255 295.319C39.8973 293.184 37.4395 290.155 35.652 286.232C33.8645 282.26 32.9707 277.493 32.9707 271.932C32.9707 266.371 33.8645 261.629 35.652 257.706C37.4395 253.734 39.8973 250.705 43.0255 248.62C46.1537 246.485 49.7287 245.417 53.7506 245.417C57.7725 245.417 61.3476 246.485 64.4757 248.62C67.6039 250.705 70.0617 253.734 71.8493 257.706C73.6864 261.629 74.605 266.371 74.605 271.932C74.605 277.493 73.6864 282.26 71.8493 286.232C70.0617 290.155 67.6039 293.184 64.4757 295.319C61.3476 297.404 57.7725 298.447 53.7506 298.447ZM53.7506 293.531C56.8291 293.531 59.5104 292.712 61.7945 291.073C64.0785 289.385 65.866 286.952 67.157 283.774C68.448 280.547 69.0935 276.599 69.0935 271.932C69.0935 267.264 68.448 263.342 67.157 260.164C65.866 256.937 64.0785 254.504 61.7945 252.865C59.5104 251.177 56.8291 250.333 53.7506 250.333C50.7714 250.333 48.115 251.177 45.7813 252.865C43.4476 254.504 41.6352 256.937 40.3442 260.164C39.0532 263.342 38.4077 267.264 38.4077 271.932C38.4077 276.599 39.0532 280.547 40.3442 283.774C41.6352 286.952 43.4476 289.385 45.7813 291.073C48.115 292.712 50.7714 293.531 53.7506 293.531Z" fill="#E30613" />
			<path d="M97.1236 298.447C93.3499 298.447 89.7749 297.851 86.3985 296.659C83.0717 295.418 80.3904 293.779 78.3546 291.744L80.9614 287.498C82.6496 289.236 84.9089 290.676 87.7391 291.818C90.619 292.96 93.7472 293.531 97.1236 293.531C101.443 293.531 104.745 292.588 107.029 290.701C109.363 288.814 110.53 286.282 110.53 283.104C110.53 279.926 109.388 277.394 107.104 275.507C104.87 273.62 101.319 272.677 96.4533 272.677H92.7293V268.729L108.817 248.545L109.562 250.631H80.5145V245.864H114.031V249.662L97.9429 269.846L95.3361 268.133H97.347C103.603 268.133 108.271 269.524 111.349 272.304C114.477 275.085 116.042 278.66 116.042 283.029C116.042 285.959 115.346 288.591 113.956 290.924C112.566 293.258 110.456 295.095 107.625 296.436C104.845 297.776 101.344 298.447 97.1236 298.447Z" fill="#E30613" />
		</g>
		<g class="svgIcon svgIcon3">
			<g>
				<g>
					<path d="M266.85 237.6H274.7C276.13 237.6 277.49 238.19 278.46 239.23C283.95 245.12 302.35 265.14 303.09 269.53C303.95 274.7 300.85 275.9 300.85 275.9H269.88L266.86 237.59L266.85 237.6Z" fill="url(#paint0_linear_435_1503)" />
					<path d="M275.08 298.53H136.22V311.1H275.08V298.53Z" fill="#1F1341" />
					<path d="M271.81 307.59H143.83V315.14H271.81V307.59Z" fill="#1F1341" />
					<path d="M265.88 232.43H139.51C137.693 232.43 136.22 233.903 136.22 235.72V297.88C136.22 299.697 137.693 301.17 139.51 301.17H265.88C267.697 301.17 269.17 299.697 269.17 297.88V235.72C269.17 233.903 267.697 232.43 265.88 232.43Z" fill="#E30313" />
					<path d="M269.17 263.49H299.91L323.85 286.03C323.85 286.03 340.54 293.43 341.23 299.97C341.92 306.51 341.23 308.4 341.23 308.4H308.41L301.19 317.69H274.39C271.51 317.69 269.18 315.36 269.18 312.48V289.3" fill="#A2AFF9" />
					<path d="M269.17 263.49H299.91L323.85 286.03C323.85 286.03 340.54 293.43 341.23 299.97C341.92 306.51 341.23 308.4 341.23 308.4H308.41L301.19 317.69H274.39C271.51 317.69 269.18 315.36 269.18 312.48V289.3" fill="url(#paint1_linear_435_1503)" />
					<path d="M303.11 266.5H297.53L317.73 285.33H323.12L303.11 266.5Z" fill="#656DD6" />
					<g>
						<path d="M295.89 267.73L314.54 285.43C315.32 286.17 314.8 287.48 313.72 287.48H280.09C279.01 287.48 278.13 286.6 278.13 285.52V269.16C278.13 267.93 279.12 266.94 280.35 266.94H293.88C294.63 266.94 295.35 267.23 295.89 267.74V267.73Z" fill="#656DD6" />
						<g>
							<g>
								<g>
									<g>
										<path d="M307.111 290.951C306.901 290.841 305.631 290.871 305.631 290.871L304.891 290.781L304.071 292.701C304.071 292.701 305.471 293.411 306.201 293.311L307.111 290.961V290.951Z" fill="#F7B29A" />
										<path d="M304.941 292.321C304.941 292.321 306.091 292.441 307.061 291.581L307.641 291.901L306.231 293.421C306.231 293.421 305.501 293.251 305.191 293.151C304.881 293.051 304.931 292.321 304.931 292.321H304.941Z" fill="#D48068" />
									</g>
									<g>
										<g>
											<path d="M289.071 279.161L289.431 275.621H291.841V279.671" fill="#F7B29A" />
											<path d="M290.701 276.831C290.701 276.831 291.221 278.031 291.831 278.031L291.811 277.211L290.701 276.831Z" fill="#D48068" />
											<path d="M293.311 271.621C293.311 271.621 293.411 273.101 292.291 273.151C291.171 273.201 291.751 271.791 291.751 271.791" fill="#1F1341" />
											<path d="M291.751 271.791C291.751 271.791 292.681 271.221 292.891 272.251C293.131 273.451 293.191 276.841 292.831 277.241C292.521 277.601 291.421 277.311 291.201 277.251C290.491 277.051 291.021 277.181 290.391 276.801L289.311 276.631C289.311 276.631 288.701 274.591 289.701 273.341C290.701 272.091 291.751 271.781 291.751 271.781V271.791Z" fill="#F7B29A" />
											<path d="M289.321 276.641C289.321 276.641 289.801 274.471 290.041 274.231C290.281 273.991 292.191 271.951 292.191 271.951C292.191 271.951 292.261 271.291 291.601 270.911C291.041 270.581 289.491 270.461 288.731 270.731C287.171 271.281 287.091 273.291 287.481 274.311C287.871 275.331 289.331 276.641 289.331 276.641H289.321Z" fill="#1F1341" />
											<path d="M290.571 274.651C290.571 274.651 290.081 273.701 289.461 273.731C288.841 273.761 288.651 275.241 290.021 275.241" fill="#F7B29A" />
											<path d="M290.891 273.331C290.891 273.331 293.911 272.461 294.131 271.281C294.331 270.181 293.681 269.601 292.611 269.601C291.211 269.601 289.751 271.551 289.751 271.551" fill="#1F1341" />
										</g>
										<g>
											<path d="M291.841 279.681C291.841 279.681 293.741 280.681 294.381 281.501C295.021 282.321 298.591 287.701 298.591 287.701L305.061 290.511L304.401 292.891C304.401 292.891 297.281 291.051 296.591 290.501C295.901 289.951 293.711 287.921 293.711 287.921" fill="#54579C" />
											<path d="M304.391 292.881L304.621 292.041C304.621 292.041 298.421 290.461 297.201 289.561C295.981 288.661 293.701 283.591 293.701 283.591L293.771 287.971C294.141 288.321 295.961 289.991 296.581 290.491C297.271 291.041 304.391 292.881 304.391 292.881Z" fill="#1F1341" />
											<path d="M291.771 279.511C291.771 279.511 294.611 281.421 294.981 284.271C295.351 287.111 293.741 293.421 293.741 293.421H287.691C287.691 293.421 286.121 292.161 285.841 289.661C285.351 285.361 286.151 279.751 287.091 279.141C288.571 278.181 291.781 279.521 291.781 279.521L291.771 279.511Z" fill="#54579C" />
											<path d="M292.061 279.73C292.061 279.73 293.341 281.99 293.341 284.99V286.93H295.041C295.041 286.93 294.851 281.78 294.171 281.14C293.491 280.5 292.071 279.73 292.071 279.73H292.061Z" fill="#AD1917" />
											<path d="M287.791 279.111L288.761 277.661L292.061 278.131V279.731" fill="#54579C" />
											<path d="M287.081 279.13C287.081 279.13 288.631 278.29 290.011 279.8C291.391 281.3 292.301 288.11 292.301 288.11L287.371 288.22L286.991 286.61C286.991 286.61 288.751 286.04 288.981 284.74C289.211 283.44 289.551 278.95 287.081 279.13Z" fill="#AD1917" />
											<path d="M304.951 284.17L308.971 286.31V287.77L304.951 287.96H303.241" fill="#54579C" />
											<path d="M305.658 281.065L305.63 281.053C305.332 280.922 304.984 281.057 304.853 281.356L302.035 287.763C301.904 288.061 302.039 288.41 302.337 288.541L302.365 288.553C302.663 288.684 303.011 288.549 303.142 288.25L305.96 281.843C306.092 281.544 305.956 281.196 305.658 281.065Z" fill="#54579C" />
											<path d="M301.411 288.2C301.411 288.2 302.521 288.33 302.731 288.32C302.911 288.31 303.601 287.79 303.601 287.79L304.341 285.94C304.441 285.7 304.211 285.45 303.961 285.53C303.451 285.69 302.811 285.88 302.771 285.85C302.731 285.82 302.881 285.78 302.981 285.4C303.031 285.22 303.041 285.07 302.961 284.9C302.901 284.79 302.711 284.84 302.461 285.05C301.461 285.88 300.511 286.37 300.511 286.37" fill="#F7B29A" />
											<path d="M287.081 279.131C287.081 279.131 283.271 282.141 286.631 285.701C289.631 288.871 291.241 290.021 292.531 290.501C293.581 290.901 301.381 288.191 301.381 288.191L300.761 285.941C300.761 285.941 295.061 285.911 293.881 286.431L290.431 282.661" fill="#54579C" />
										</g>
									</g>
								</g>
								<path d="M292.181 275.861L292.901 275.771C292.901 275.771 292.941 276.26 292.631 276.26C292.401 276.26 292.181 275.861 292.181 275.861Z" fill="white" />
							</g>
						</g>
					</g>
					<path d="M309.44 290.59V301.45" stroke="#656DD6" stroke-width="1.69" stroke-miterlimit="10" />
					<path d="M308.41 279.62V289.44H309.59C310.07 289.44 310.53 289.24 310.86 288.89C311.16 288.57 311.33 288.15 311.33 287.71V281.27C311.33 281.03 311.28 280.8 311.17 280.59L311.12 280.49C310.86 279.96 310.32 279.62 309.73 279.62H308.41Z" fill="#1F1341" />
					<path d="M300.17 318.55C300.17 310.32 306.84 303.65 315.07 303.65C323.3 303.65 329.97 310.32 329.97 318.55H300.17Z" fill="#1F1341" />
					<path d="M197.58 315.13C196.03 308.55 190.14 303.65 183.09 303.65C176.04 303.65 170.14 308.55 168.6 315.13H197.59H197.58Z" fill="#1F1341" />
					<path d="M319.52 307.59H340.87C342.1 307.59 343.1 308.59 343.1 309.82V313.99L341.17 317.67C340.58 318.79 339.42 319.49 338.16 319.49H293.86C292.47 319.49 291.34 318.36 291.34 316.97V311.3C291.34 309.26 293 307.6 295.04 307.6H319.52V307.59Z" fill="#1F1341" />
					<path d="M315.07 330.39C321.61 330.39 326.91 325.089 326.91 318.55C326.91 312.011 321.61 306.71 315.07 306.71C308.531 306.71 303.23 312.011 303.23 318.55C303.23 325.089 308.531 330.39 315.07 330.39Z" fill="#888FA6" />
					<path d="M315.07 325.33C318.815 325.33 321.85 322.295 321.85 318.55C321.85 314.806 318.815 311.77 315.07 311.77C311.326 311.77 308.29 314.806 308.29 318.55C308.29 322.295 311.326 325.33 315.07 325.33Z" fill="#1F1341" />
					<path d="M315.07 321.97C316.959 321.97 318.49 320.439 318.49 318.55C318.49 316.662 316.959 315.13 315.07 315.13C313.182 315.13 311.65 316.662 311.65 318.55C311.65 320.439 313.182 321.97 315.07 321.97Z" fill="#888FA6" />
					<g>
						<path d="M183.09 330.39C189.629 330.39 194.93 325.089 194.93 318.55C194.93 312.011 189.629 306.71 183.09 306.71C176.551 306.71 171.25 312.011 171.25 318.55C171.25 325.089 176.551 330.39 183.09 330.39Z" fill="#888FA6" />
						<path d="M183.09 325.33C186.835 325.33 189.87 322.295 189.87 318.55C189.87 314.806 186.835 311.77 183.09 311.77C179.346 311.77 176.31 314.806 176.31 318.55C176.31 322.295 179.346 325.33 183.09 325.33Z" fill="#1F1341" />
						<path d="M183.09 321.97C184.979 321.97 186.51 320.439 186.51 318.55C186.51 316.661 184.979 315.13 183.09 315.13C181.201 315.13 179.67 316.661 179.67 318.55C179.67 320.439 181.201 321.97 183.09 321.97Z" fill="#888FA6" />
					</g>
				</g>
				<path d="M326.91 293.61L328.55 298.21C328.91 299.22 329.87 299.89 330.94 299.89H338.22C338.22 299.89 336.76 293.6 334.28 293.6H326.91V293.61Z" fill="white" />
			</g>
			<g>
				<path d="M194.91 261.75H199.28L202.79 266.19L206.29 261.75H210.48V276.08H206.16L206.04 268.91L202.7 272.51L199.41 268.91V276.08H194.91V261.75Z" fill="white" />
				<path d="M184.77 275.99V261.77C184.77 255.74 189.66 250.86 195.68 250.86H220.63V256.08H195.68C192.54 256.08 189.99 258.63 189.99 261.77V270.78C189.99 273.66 187.65 276 184.77 276V275.99Z" fill="white" />
				<path d="M220.63 261.75V275.97C220.63 282 215.74 286.88 209.72 286.88H184.77V281.66H209.72C212.86 281.66 215.41 279.11 215.41 275.97V266.96C215.41 264.08 217.75 261.74 220.63 261.74V261.75Z" fill="white" />
			</g>
		</g>
		<g class="svgIcon svgIcon4">
			<g>
				<path d="M319.34 66H281.82C279.142 66 276.97 68.1714 276.97 70.85V87.96C276.97 90.6386 279.142 92.81 281.82 92.81H319.34C322.019 92.81 324.19 90.6386 324.19 87.96V70.85C324.19 68.1714 322.019 66 319.34 66Z" fill="#DFE1E8" />
				<path d="M283.61 90.1099V95.6299C283.61 96.3399 284.5 96.6599 284.95 96.1099L289.91 90.1099" fill="#DFE1E8" />
			</g>
			<path d="M301.82 89.34C307.304 89.34 311.75 84.8942 311.75 79.41C311.75 73.9258 307.304 69.48 301.82 69.48C296.336 69.48 291.89 73.9258 291.89 79.41C291.89 84.8942 296.336 89.34 301.82 89.34Z" fill="white" />
			<path d="M304.06 75.4902C303.17 75.4902 302.37 75.8802 301.82 76.4902C301.27 75.8802 300.47 75.4902 299.58 75.4902C297.92 75.4902 296.57 76.8402 296.57 78.5002C296.57 80.9202 301.82 84.9002 301.82 84.9002C301.82 84.9002 307.07 81.0102 307.07 78.5002C307.07 76.8402 305.72 75.4902 304.06 75.4902Z" fill="#E30313" />
		</g>
		<g class="svgIcon svgIcon5">
			<path d="M108 575C111.314 575 114 572.314 114 569C114 565.686 111.314 563 108 563C104.686 563 102 565.686 102 569C102 572.314 104.686 575 108 575Z" fill="#A7D07D" />
			<g>
				<path d="M83.1837 528.816H23.5759C20.916 528.816 18.7598 530.972 18.7598 533.632V557.058C18.7598 559.718 20.916 561.874 23.5759 561.874H83.1837C85.8435 561.874 87.9998 559.718 87.9998 557.058V533.632C87.9998 530.972 85.8435 528.816 83.1837 528.816Z" fill="#DFE1E8" />
				<g>
					<path d="M31.6988 537.995H26.7606C25.98 537.995 25.3472 538.627 25.3472 539.408V552.12C25.3472 552.901 25.98 553.533 26.7606 553.533H31.6988C32.4794 553.533 33.1122 552.901 33.1122 552.12V539.408C33.1122 538.627 32.4794 537.995 31.6988 537.995Z" fill="#A7D07D" />
					<path d="M44.3062 545.769H39.368C38.5874 545.769 37.9546 546.401 37.9546 547.182V552.12C37.9546 552.901 38.5874 553.534 39.368 553.534H44.3062C45.0869 553.534 45.7197 552.901 45.7197 552.12V547.182C45.7197 546.401 45.0869 545.769 44.3062 545.769Z" fill="#A7D07D" />
					<path d="M69.5035 539.496H64.5653C63.7847 539.496 63.1519 540.128 63.1519 540.909V552.12C63.1519 552.901 63.7847 553.534 64.5653 553.534H69.5035C70.2841 553.534 70.9169 552.901 70.9169 552.12V540.909C70.9169 540.128 70.2841 539.496 69.5035 539.496Z" fill="#A7D07D" />
					<path d="M82.1021 545.769H77.1639C76.3833 545.769 75.7505 546.401 75.7505 547.182V552.12C75.7505 552.901 76.3833 553.534 77.1639 553.534H82.1021C82.8827 553.534 83.5156 552.901 83.5156 552.12V547.182C83.5156 546.401 82.8827 545.769 82.1021 545.769Z" fill="#A7D07D" />
					<path d="M56.9049 537.995H51.9666C51.186 537.995 50.5532 538.627 50.5532 539.408V552.12C50.5532 552.901 51.186 553.533 51.9666 553.533H56.9049C57.6855 553.533 58.3183 552.901 58.3183 552.12V539.408C58.3183 538.627 57.6855 537.995 56.9049 537.995Z" fill="#A7D07D" />
				</g>
			</g>
		</g>
	</g>
	<defs>
		<linearGradient id="paint0_linear_435_1503" x1="336.56" y1="248.78" x2="221.82" y2="266.15" gradientUnits="userSpaceOnUse">
			<stop offset="0.46" stop-color="#E30313" />
			<stop offset="0.6" stop-color="#AD1917" />
		</linearGradient>
		<linearGradient id="paint1_linear_435_1503" x1="305.54" y1="322.66" x2="304.83" y2="267.48" gradientUnits="userSpaceOnUse">
			<stop stop-color="#656DD6" />
			<stop offset="0.25" stop-color="#A2AFF9" />
		</linearGradient>
	</defs>
</svg>
