<svg width="1688" height="379" viewBox="0 0 1688 379" fill="none" xmlns="http://www.w3.org/2000/svg">
<style>
    .svgIcon {
      opacity: 0;
	  transform:translateY(0.63rem); 
	  transition: all ease 0.5s;
    }
	.svgIcon1{
		transition-delay: 0s;
	}
	.svgIcon2{
		transition-delay: 0.2s;
	}
	.svgIcon3{
		transition-delay: 0.4s;
	}
	.svgIcon4{
		transition-delay: 0.6s;
	}
	.svgIcon5{
		transition-delay: 0.8s;
	}
	.svgIcon6{
		transition-delay: 1.4s;
	}
	.svgIcon7{
		transition-delay: 1.8s;
	}
	.svgIcon8{
		transition-delay: 2.2s;
	}
	.svgIcon9{
		transition-delay: 2.6s;
	}
	.svgIcon10{
		transition-delay: 3s;
	}
  </style>
	<g>
		<g class="svgIcon svgIcon1">
			<g >
				<g  opacity="0.64">
					<g >
						<path id="Vector" d="M575.5 115.6H566.9V352.8H575.5V115.6Z" fill="#DFE1E8" />
						<g >
							<path d="M1074.4 112H566.9V120.2H1074.4V112Z" fill="#DFE1E8" />
							<g >
								<path d="M1074.4 152.8H566.9V161H1074.4V152.8Z" fill="#DFE1E8" />
								<path d="M1074.4 193.2H566.9V201.4H1074.4V193.2Z" fill="#DFE1E8" />
								<path d="M1074.4 233.7H566.9V241.9H1074.4V233.7Z" fill="#DFE1E8" />
								<path d="M1074.4 282.3V274.1H566.9V282.3" fill="#DFE1E8" />
								<path d="M1074.4 274.899H566.9V283.099H1074.4V274.899Z" fill="#DFE1E8" />
								<path d="M1074.4 323.599V315.399H566.9V323.599" fill="#DFE1E8" />
								<path d="M1074.4 315.399H566.9V352.799H1074.4V315.399Z" fill="#DFE1E8" />
							</g>
							<path d="M1075 115.6H1066.4V352.8H1075V115.6Z" fill="#DFE1E8" />
						</g>
						<g >
							<path d="M605.5 276.1H590C588.1 276.1 586.6 274.6 586.6 272.7V252.6C586.6 250.7 588.1 249.2 590 249.2H605.5C607.4 249.2 608.9 250.7 608.9 252.6V272.7C608.9 274.6 607.3 276.1 605.5 276.1Z" fill="#DFE1E8" />
							<path d="M636.299 276.1H620.799C618.899 276.1 617.399 274.6 617.399 272.7V252.6C617.399 250.7 618.899 249.2 620.799 249.2H636.299C638.199 249.2 639.699 250.7 639.699 252.6V272.7C639.699 274.6 638.099 276.1 636.299 276.1Z" fill="#DFE1E8" />
							<path d="M667.299 276.1H651.799C649.899 276.1 648.399 274.6 648.399 272.7V252.6C648.399 250.7 649.899 249.2 651.799 249.2H667.299C669.199 249.2 670.699 250.7 670.699 252.6V272.7C670.699 274.6 669.199 276.1 667.299 276.1Z" fill="#DFE1E8" />
							<path d="M698.1 276.1H682.6C680.7 276.1 679.2 274.6 679.2 272.7V252.6C679.2 250.7 680.7 249.2 682.6 249.2H698.1C700 249.2 701.5 250.7 701.5 252.6V272.7C701.5 274.6 700 276.1 698.1 276.1Z" fill="#DFE1E8" />
							<path d="M731.799 276.1H716.299C714.399 276.1 712.899 274.6 712.899 272.7V252.6C712.899 250.7 714.399 249.2 716.299 249.2H731.799C733.699 249.2 735.199 250.7 735.199 252.6V272.7C735.199 274.6 733.699 276.1 731.799 276.1Z" fill="#DFE1E8" />
							<path d="M762.6 276.1H747.1C745.2 276.1 743.7 274.6 743.7 272.7V252.6C743.7 250.7 745.2 249.2 747.1 249.2H762.6C764.5 249.2 766 250.7 766 252.6V272.7C766 274.6 764.5 276.1 762.6 276.1Z" fill="#DFE1E8" />
							<path d="M793.7 276.1H778.2C776.3 276.1 774.8 274.6 774.8 272.7V252.6C774.8 250.7 776.3 249.2 778.2 249.2H793.7C795.6 249.2 797.1 250.7 797.1 252.6V272.7C797.1 274.6 795.6 276.1 793.7 276.1Z" fill="#DFE1E8" />
							<path d="M824.5 276.1H809C807.1 276.1 805.6 274.6 805.6 272.7V252.6C805.6 250.7 807.1 249.2 809 249.2H824.5C826.4 249.2 827.9 250.7 827.9 252.6V272.7C827.9 274.6 826.4 276.1 824.5 276.1Z" fill="#DFE1E8" />
							<path d="M859.799 276.1H844.299C842.399 276.1 840.899 274.6 840.899 272.7V252.6C840.899 250.7 842.399 249.2 844.299 249.2H859.799C861.699 249.2 863.199 250.7 863.199 252.6V272.7C863.199 274.6 861.699 276.1 859.799 276.1Z" fill="#DFE1E8" />
							<path d="M890.6 276.1H875.1C873.2 276.1 871.7 274.6 871.7 272.7V252.6C871.7 250.7 873.2 249.2 875.1 249.2H890.6C892.5 249.2 894 250.7 894 252.6V272.7C894 274.6 892.5 276.1 890.6 276.1Z" fill="#DFE1E8" />
							<path d="M921.7 276.1H906.2C904.3 276.1 902.8 274.6 902.8 272.7V252.6C902.8 250.7 904.3 249.2 906.2 249.2H921.7C923.6 249.2 925.1 250.7 925.1 252.6V272.7C925.1 274.6 923.6 276.1 921.7 276.1Z" fill="#DFE1E8" />
							<path d="M952.5 276.1H937C935.1 276.1 933.6 274.6 933.6 272.7V252.6C933.6 250.7 935.1 249.2 937 249.2H952.5C954.4 249.2 955.9 250.7 955.9 252.6V272.7C955.9 274.6 954.4 276.1 952.5 276.1Z" fill="#DFE1E8" />
							<path d="M986.2 276.1H970.7C968.8 276.1 967.3 274.6 967.3 272.7V252.6C967.3 250.7 968.8 249.2 970.7 249.2H986.2C988.1 249.2 989.6 250.7 989.6 252.6V272.7C989.6 274.6 988 276.1 986.2 276.1Z" fill="#DFE1E8" />
							<path d="M1017 276.1H1001.5C999.6 276.1 998.1 274.6 998.1 272.7V252.6C998.1 250.7 999.6 249.2 1001.5 249.2H1017C1018.9 249.2 1020.4 250.7 1020.4 252.6V272.7C1020.4 274.6 1018.8 276.1 1017 276.1Z" fill="#DFE1E8" />
							<path d="M1048 276.1H1032.5C1030.6 276.1 1029.1 274.6 1029.1 272.7V252.6C1029.1 250.7 1030.6 249.2 1032.5 249.2H1048C1049.9 249.2 1051.4 250.7 1051.4 252.6V272.7C1051.4 274.6 1049.9 276.1 1048 276.1Z" fill="#DFE1E8" />
						</g>
						<g >
							<path d="M605.5 325.1H590C588.1 325.1 586.6 323.6 586.6 321.7V301.6C586.6 299.7 588.1 298.2 590 298.2H605.5C607.4 298.2 608.9 299.7 608.9 301.6V321.7C608.9 323.6 607.3 325.1 605.5 325.1Z" fill="#DFE1E8" />
							<path d="M636.299 325.1H620.799C618.899 325.1 617.399 323.6 617.399 321.7V301.6C617.399 299.7 618.899 298.2 620.799 298.2H636.299C638.199 298.2 639.699 299.7 639.699 301.6V321.7C639.699 323.6 638.099 325.1 636.299 325.1Z" fill="#DFE1E8" />
							<path d="M667.299 325.1H651.799C649.899 325.1 648.399 323.6 648.399 321.7V301.6C648.399 299.7 649.899 298.2 651.799 298.2H667.299C669.199 298.2 670.699 299.7 670.699 301.6V321.7C670.699 323.6 669.199 325.1 667.299 325.1Z" fill="#DFE1E8" />
							<path d="M698.1 325.1H682.6C680.7 325.1 679.2 323.6 679.2 321.7V301.6C679.2 299.7 680.7 298.2 682.6 298.2H698.1C700 298.2 701.5 299.7 701.5 301.6V321.7C701.5 323.6 700 325.1 698.1 325.1Z" fill="#DFE1E8" />
							<path d="M731.799 325.1H716.299C714.399 325.1 712.899 323.6 712.899 321.7V301.6C712.899 299.7 714.399 298.2 716.299 298.2H731.799C733.699 298.2 735.199 299.7 735.199 301.6V321.7C735.199 323.6 733.699 325.1 731.799 325.1Z" fill="#DFE1E8" />
							<path d="M762.6 325.1H747.1C745.2 325.1 743.7 323.6 743.7 321.7V301.6C743.7 299.7 745.2 298.2 747.1 298.2H762.6C764.5 298.2 766 299.7 766 301.6V321.7C766 323.6 764.5 325.1 762.6 325.1Z" fill="#DFE1E8" />
							<path d="M793.7 325.1H778.2C776.3 325.1 774.8 323.6 774.8 321.7V301.6C774.8 299.7 776.3 298.2 778.2 298.2H793.7C795.6 298.2 797.1 299.7 797.1 301.6V321.7C797.1 323.6 795.6 325.1 793.7 325.1Z" fill="#DFE1E8" />
							<path d="M824.5 325.1H809C807.1 325.1 805.6 323.6 805.6 321.7V301.6C805.6 299.7 807.1 298.2 809 298.2H824.5C826.4 298.2 827.9 299.7 827.9 301.6V321.7C827.9 323.6 826.4 325.1 824.5 325.1Z" fill="#DFE1E8" />
							<path d="M859.799 325.1H844.299C842.399 325.1 840.899 323.6 840.899 321.7V301.6C840.899 299.7 842.399 298.2 844.299 298.2H859.799C861.699 298.2 863.199 299.7 863.199 301.6V321.7C863.199 323.6 861.699 325.1 859.799 325.1Z" fill="#DFE1E8" />
							<path d="M890.6 325.1H875.1C873.2 325.1 871.7 323.6 871.7 321.7V301.6C871.7 299.7 873.2 298.2 875.1 298.2H890.6C892.5 298.2 894 299.7 894 301.6V321.7C894 323.6 892.5 325.1 890.6 325.1Z" fill="#DFE1E8" />
							<path d="M921.7 325.1H906.2C904.3 325.1 902.8 323.6 902.8 321.7V301.6C902.8 299.7 904.3 298.2 906.2 298.2H921.7C923.6 298.2 925.1 299.7 925.1 301.6V321.7C925.1 323.6 923.6 325.1 921.7 325.1Z" fill="#DFE1E8" />
							<path d="M952.5 325.1H937C935.1 325.1 933.6 323.6 933.6 321.7V301.6C933.6 299.7 935.1 298.2 937 298.2H952.5C954.4 298.2 955.9 299.7 955.9 301.6V321.7C955.9 323.6 954.4 325.1 952.5 325.1Z" fill="#DFE1E8" />
							<path d="M986.2 325.1H970.7C968.8 325.1 967.3 323.6 967.3 321.7V301.6C967.3 299.7 968.8 298.2 970.7 298.2H986.2C988.1 298.2 989.6 299.7 989.6 301.6V321.7C989.6 323.6 988 325.1 986.2 325.1Z" fill="#DFE1E8" />
							<path d="M1017 325.1H1001.5C999.6 325.1 998.1 323.6 998.1 321.7V301.6C998.1 299.7 999.6 298.2 1001.5 298.2H1017C1018.9 298.2 1020.4 299.7 1020.4 301.6V321.7C1020.4 323.6 1018.8 325.1 1017 325.1Z" fill="#DFE1E8" />
							<path d="M1048 325.1H1032.5C1030.6 325.1 1029.1 323.6 1029.1 321.7V301.6C1029.1 299.7 1030.6 298.2 1032.5 298.2H1048C1049.9 298.2 1051.4 299.7 1051.4 301.6V321.7C1051.4 323.6 1049.9 325.1 1048 325.1Z" fill="#DFE1E8" />
						</g>
					</g>
					<g >
						<g >
							<g >
								<path d="M594.1 153.599H588.9C587.8 153.599 586.9 152.799 586.9 151.799V131.199C586.9 130.199 587.8 129.399 588.9 129.399H594.1C595.2 129.399 596.1 130.199 596.1 131.199V151.799C596 152.799 595.2 153.599 594.1 153.599Z" fill="#DFE1E8" />
								<path d="M587 130.499L589.5 126.699H593L595.9 130.399L587 130.499Z" fill="#DFE1E8" />
							</g>
							<path d="M593.1 125.1H589.6V126.7H593.1V125.1Z" fill="#DFE1E8" />
						</g>
						<g >
							<g >
								<path d="M611.7 153.599H606.5C605.4 153.599 604.5 152.799 604.5 151.799V131.199C604.5 130.199 605.4 129.399 606.5 129.399H611.7C612.8 129.399 613.7 130.199 613.7 131.199V151.799C613.7 152.799 612.8 153.599 611.7 153.599Z" fill="#DFE1E8" />
								<path d="M604.7 130.499L607.2 126.699H610.7L613.5 130.399L604.7 130.499Z" fill="#DFE1E8" />
							</g>
							<path d="M610.7 125.1H607.2V126.7H610.7V125.1Z" fill="#DFE1E8" />
						</g>
						<g >
							<g >
								<path d="M629.4 153.599H624.2C623.1 153.599 622.2 152.799 622.2 151.799V131.199C622.2 130.199 623.1 129.399 624.2 129.399H629.4C630.5 129.399 631.4 130.199 631.4 131.199V151.799C631.3 152.799 630.5 153.599 629.4 153.599Z" fill="#DFE1E8" />
								<path d="M622.3 130.499L624.8 126.699H628.3L631.2 130.399L622.3 130.499Z" fill="#DFE1E8" />
							</g>
							<path d="M628.4 125.1H624.9V126.7H628.4V125.1Z" fill="#DFE1E8" />
						</g>
						<g >
							<g >
								<path d="M647 153.599H641.8C640.7 153.599 639.8 152.799 639.8 151.799V131.199C639.8 130.199 640.7 129.399 641.8 129.399H647C648.1 129.399 649 130.199 649 131.199V151.799C649 152.799 648.1 153.599 647 153.599Z" fill="#DFE1E8" />
								<path d="M640 130.499L642.5 126.699H646L648.8 130.399L640 130.499Z" fill="#DFE1E8" />
							</g>
							<path d="M646 125.1H642.5V126.7H646V125.1Z" fill="#DFE1E8" />
						</g>
						<g >
							<g >
								<path d="M664.7 153.599H659.5C658.4 153.599 657.5 152.799 657.5 151.799V131.199C657.5 130.199 658.4 129.399 659.5 129.399H664.7C665.8 129.399 666.7 130.199 666.7 131.199V151.799C666.6 152.799 665.8 153.599 664.7 153.599Z" fill="#DFE1E8" />
								<path d="M657.6 130.499L660.1 126.699H663.6L666.5 130.399L657.6 130.499Z" fill="#DFE1E8" />
							</g>
							<path d="M663.7 125.1H660.2V126.7H663.7V125.1Z" fill="#DFE1E8" />
						</g>
						<g >
							<g >
								<path d="M682.3 153.599H677.1C676 153.599 675.1 152.799 675.1 151.799V131.199C675.1 130.199 676 129.399 677.1 129.399H682.3C683.4 129.399 684.3 130.199 684.3 131.199V151.799C684.3 152.799 683.4 153.599 682.3 153.599Z" fill="#DFE1E8" />
								<path d="M675.3 130.499L677.8 126.699H681.3L684.1 130.399L675.3 130.499Z" fill="#DFE1E8" />
							</g>
							<path d="M681.3 125.1H677.8V126.7H681.3V125.1Z" fill="#DFE1E8" />
						</g>
						<g >
							<g >
								<path d="M700 153.599H694.8C693.7 153.599 692.8 152.799 692.8 151.799V131.199C692.8 130.199 693.7 129.399 694.8 129.399H700C701.1 129.399 702 130.199 702 131.199V151.799C701.9 152.799 701.1 153.599 700 153.599Z" fill="#DFE1E8" />
								<path d="M692.9 130.499L695.4 126.699H698.9L701.8 130.399L692.9 130.499Z" fill="#DFE1E8" />
							</g>
							<path d="M699 125.1H695.5V126.7H699V125.1Z" fill="#DFE1E8" />
						</g>
						<g >
							<g >
								<path d="M717.6 153.599H712.4C711.3 153.599 710.4 152.799 710.4 151.799V131.199C710.4 130.199 711.3 129.399 712.4 129.399H717.6C718.7 129.399 719.6 130.199 719.6 131.199V151.799C719.6 152.799 718.7 153.599 717.6 153.599Z" fill="#DFE1E8" />
								<path d="M710.6 130.499L713.1 126.699H716.6L719.4 130.399L710.6 130.499Z" fill="#DFE1E8" />
							</g>
							<path d="M716.6 125.1H713.1V126.7H716.6V125.1Z" fill="#DFE1E8" />
						</g>
						<g >
							<g >
								<path d="M735.3 153.599H730.1C729 153.599 728.1 152.799 728.1 151.799V131.199C728.1 130.199 729 129.399 730.1 129.399H735.3C736.4 129.399 737.3 130.199 737.3 131.199V151.799C737.2 152.799 736.4 153.599 735.3 153.599Z" fill="#DFE1E8" />
								<path d="M728.2 130.499L730.7 126.699H734.2L737.1 130.399L728.2 130.499Z" fill="#DFE1E8" />
							</g>
							<path d="M734.3 125.1H730.8V126.7H734.3V125.1Z" fill="#DFE1E8" />
						</g>
						<g >
							<g >
								<path d="M752.9 153.599H747.7C746.6 153.599 745.7 152.799 745.7 151.799V131.199C745.7 130.199 746.6 129.399 747.7 129.399H752.9C754 129.399 754.9 130.199 754.9 131.199V151.799C754.9 152.799 754 153.599 752.9 153.599Z" fill="#DFE1E8" />
								<path d="M745.9 130.499L748.4 126.699H751.9L754.7 130.399L745.9 130.499Z" fill="#DFE1E8" />
							</g>
							<path d="M751.9 125.1H748.4V126.7H751.9V125.1Z" fill="#DFE1E8" />
						</g>
						<g >
							<g >
								<path d="M770.6 153.599H765.4C764.3 153.599 763.4 152.799 763.4 151.799V131.199C763.4 130.199 764.3 129.399 765.4 129.399H770.6C771.7 129.399 772.6 130.199 772.6 131.199V151.799C772.5 152.799 771.7 153.599 770.6 153.599Z" fill="#DFE1E8" />
								<path d="M763.5 130.499L766 126.699H769.5L772.4 130.399L763.5 130.499Z" fill="#DFE1E8" />
							</g>
							<path d="M769.6 125.1H766.1V126.7H769.6V125.1Z" fill="#DFE1E8" />
						</g>
						<g >
							<g >
								<path d="M788.2 153.599H783C781.9 153.599 781 152.799 781 151.799V131.199C781 130.199 781.9 129.399 783 129.399H788.2C789.3 129.399 790.2 130.199 790.2 131.199V151.799C790.2 152.799 789.3 153.599 788.2 153.599Z" fill="#DFE1E8" />
								<path d="M781.2 130.499L783.7 126.699H787.2L790 130.399L781.2 130.499Z" fill="#DFE1E8" />
							</g>
							<path d="M787.2 125.1H783.7V126.7H787.2V125.1Z" fill="#DFE1E8" />
						</g>
						<g >
							<g >
								<path d="M805.9 153.599H800.7C799.6 153.599 798.7 152.799 798.7 151.799V131.199C798.7 130.199 799.6 129.399 800.7 129.399H805.9C807 129.399 807.9 130.199 807.9 131.199V151.799C807.8 152.799 807 153.599 805.9 153.599Z" fill="#DFE1E8" />
								<path d="M798.9 130.499L801.3 126.699H804.8L807.7 130.399L798.9 130.499Z" fill="#DFE1E8" />
							</g>
							<path d="M804.9 125.1H801.4V126.7H804.9V125.1Z" fill="#DFE1E8" />
						</g>
						<g >
							<g >
								<path d="M823.5 153.599H818.3C817.2 153.599 816.3 152.799 816.3 151.799V131.199C816.3 130.199 817.2 129.399 818.3 129.399H823.5C824.6 129.399 825.5 130.199 825.5 131.199V151.799C825.5 152.799 824.6 153.599 823.5 153.599Z" fill="#DFE1E8" />
								<path d="M816.5 130.499L819 126.699H822.5L825.3 130.399L816.5 130.499Z" fill="#DFE1E8" />
							</g>
							<path d="M822.5 125.1H819V126.7H822.5V125.1Z" fill="#DFE1E8" />
						</g>
						<g >
							<g >
								<path d="M841.2 153.599H836C834.9 153.599 834 152.799 834 151.799V131.199C834 130.199 834.9 129.399 836 129.399H841.2C842.3 129.399 843.2 130.199 843.2 131.199V151.799C843.2 152.799 842.3 153.599 841.2 153.599Z" fill="#DFE1E8" />
								<path d="M834.2 130.499L836.6 126.699H840.1L843 130.399L834.2 130.499Z" fill="#DFE1E8" />
							</g>
							<path d="M840.2 125.1H836.7V126.7H840.2V125.1Z" fill="#DFE1E8" />
						</g>
						<g >
							<g >
								<path d="M858.8 153.599H853.6C852.5 153.599 851.6 152.799 851.6 151.799V131.199C851.6 130.199 852.5 129.399 853.6 129.399H858.8C859.9 129.399 860.8 130.199 860.8 131.199V151.799C860.8 152.799 859.9 153.599 858.8 153.599Z" fill="#DFE1E8" />
								<path d="M851.8 130.499L854.3 126.699H857.8L860.6 130.399L851.8 130.499Z" fill="#DFE1E8" />
							</g>
							<path d="M857.8 125.1H854.3V126.7H857.8V125.1Z" fill="#DFE1E8" />
						</g>
						<g >
							<g >
								<path d="M876.5 153.599H871.3C870.2 153.599 869.3 152.799 869.3 151.799V131.199C869.3 130.199 870.2 129.399 871.3 129.399H876.5C877.6 129.399 878.5 130.199 878.5 131.199V151.799C878.5 152.799 877.6 153.599 876.5 153.599Z" fill="#DFE1E8" />
								<path d="M869.5 130.499L871.9 126.699H875.4L878.3 130.399L869.5 130.499Z" fill="#DFE1E8" />
							</g>
							<path d="M875.5 125.1H872V126.7H875.5V125.1Z" fill="#DFE1E8" />
						</g>
						<g >
							<g >
								<path d="M894.1 153.599H888.9C887.8 153.599 886.9 152.799 886.9 151.799V131.199C886.9 130.199 887.8 129.399 888.9 129.399H894.1C895.2 129.399 896.1 130.199 896.1 131.199V151.799C896.1 152.799 895.2 153.599 894.1 153.599Z" fill="#DFE1E8" />
								<path d="M887.1 130.499L889.6 126.699H893.1L895.9 130.399L887.1 130.499Z" fill="#DFE1E8" />
							</g>
							<path d="M893.1 125.1H889.6V126.7H893.1V125.1Z" fill="#DFE1E8" />
						</g>
						<g >
							<g >
								<path d="M911.8 153.599H906.6C905.5 153.599 904.6 152.799 904.6 151.799V131.199C904.6 130.199 905.5 129.399 906.6 129.399H911.8C912.9 129.399 913.8 130.199 913.8 131.199V151.799C913.8 152.799 912.9 153.599 911.8 153.599Z" fill="#DFE1E8" />
								<path d="M904.8 130.499L907.2 126.699H910.7L913.6 130.399L904.8 130.499Z" fill="#DFE1E8" />
							</g>
							<path d="M910.8 125.1H907.3V126.7H910.8V125.1Z" fill="#DFE1E8" />
						</g>
						<g >
							<g >
								<path d="M929.4 153.599H924.2C923.1 153.599 922.2 152.799 922.2 151.799V131.199C922.2 130.199 923.1 129.399 924.2 129.399H929.4C930.5 129.399 931.4 130.199 931.4 131.199V151.799C931.4 152.799 930.5 153.599 929.4 153.599Z" fill="#DFE1E8" />
								<path d="M922.4 130.499L924.9 126.699H928.4L931.2 130.399L922.4 130.499Z" fill="#DFE1E8" />
							</g>
							<path d="M928.4 125.1H924.9V126.7H928.4V125.1Z" fill="#DFE1E8" />
						</g>
						<g >
							<g >
								<path d="M947.1 153.599H941.9C940.8 153.599 939.9 152.799 939.9 151.799V131.199C939.9 130.199 940.8 129.399 941.9 129.399H947.1C948.2 129.399 949.1 130.199 949.1 131.199V151.799C949.1 152.799 948.2 153.599 947.1 153.599Z" fill="#DFE1E8" />
								<path d="M940.1 130.499L942.5 126.699H946L948.9 130.399L940.1 130.499Z" fill="#DFE1E8" />
							</g>
							<path d="M946.1 125.1H942.6V126.7H946.1V125.1Z" fill="#DFE1E8" />
						</g>
						<g >
							<g >
								<path d="M964.7 153.599H959.5C958.4 153.599 957.5 152.799 957.5 151.799V131.199C957.5 130.199 958.4 129.399 959.5 129.399H964.7C965.8 129.399 966.7 130.199 966.7 131.199V151.799C966.7 152.799 965.8 153.599 964.7 153.599Z" fill="#DFE1E8" />
								<path d="M957.7 130.499L960.2 126.699H963.7L966.5 130.399L957.7 130.499Z" fill="#DFE1E8" />
							</g>
							<path d="M963.7 125.1H960.2V126.7H963.7V125.1Z" fill="#DFE1E8" />
						</g>
						<g >
							<g >
								<path d="M982.4 153.599H977.2C976.1 153.599 975.2 152.799 975.2 151.799V131.199C975.2 130.199 976.1 129.399 977.2 129.399H982.4C983.5 129.399 984.4 130.199 984.4 131.199V151.799C984.4 152.799 983.5 153.599 982.4 153.599Z" fill="#DFE1E8" />
								<path d="M975.4 130.499L977.8 126.699H981.3L984.2 130.399L975.4 130.499Z" fill="#DFE1E8" />
							</g>
							<path d="M981.4 125.1H977.9V126.7H981.4V125.1Z" fill="#DFE1E8" />
						</g>
						<g >
							<g >
								<path d="M1000 153.599H994.8C993.7 153.599 992.8 152.799 992.8 151.799V131.199C992.8 130.199 993.7 129.399 994.8 129.399H1000C1001.1 129.399 1002 130.199 1002 131.199V151.799C1002 152.799 1001.1 153.599 1000 153.599Z" fill="#DFE1E8" />
								<path d="M993 130.499L995.5 126.699H999L1001.8 130.399L993 130.499Z" fill="#DFE1E8" />
							</g>
							<path d="M999 125.1H995.5V126.7H999V125.1Z" fill="#DFE1E8" />
						</g>
						<g >
							<g >
								<path d="M1017.7 153.599H1012.5C1011.4 153.599 1010.5 152.799 1010.5 151.799V131.199C1010.5 130.199 1011.4 129.399 1012.5 129.399H1017.7C1018.8 129.399 1019.7 130.199 1019.7 131.199V151.799C1019.7 152.799 1018.8 153.599 1017.7 153.599Z" fill="#DFE1E8" />
								<path d="M1010.7 130.499L1013.1 126.699H1016.6L1019.5 130.399L1010.7 130.499Z" fill="#DFE1E8" />
							</g>
							<path d="M1016.7 125.1H1013.2V126.7H1016.7V125.1Z" fill="#DFE1E8" />
						</g>
						<g >
							<g >
								<path d="M1035.3 153.599H1030.1C1029 153.599 1028.1 152.799 1028.1 151.799V131.199C1028.1 130.199 1029 129.399 1030.1 129.399H1035.3C1036.4 129.399 1037.3 130.199 1037.3 131.199V151.799C1037.3 152.799 1036.4 153.599 1035.3 153.599Z" fill="#DFE1E8" />
								<path d="M1028.3 130.499L1030.8 126.699H1034.3L1037.1 130.399L1028.3 130.499Z" fill="#DFE1E8" />
							</g>
							<path d="M1034.3 125.1H1030.8V126.7H1034.3V125.1Z" fill="#DFE1E8" />
						</g>
						<g >
							<g >
								<path d="M1053 153.599H1047.8C1046.7 153.599 1045.8 152.799 1045.8 151.799V131.199C1045.8 130.199 1046.7 129.399 1047.8 129.399H1053C1054.1 129.399 1055 130.199 1055 131.199V151.799C1055 152.799 1054.1 153.599 1053 153.599Z" fill="#DFE1E8" />
								<path d="M1046 130.499L1048.4 126.699H1051.9L1054.8 130.399L1046 130.499Z" fill="#DFE1E8" />
							</g>
							<path d="M1052 125.1H1048.5V126.7H1052V125.1Z" fill="#DFE1E8" />
						</g>
					</g>
					<g >
						<g >
							<g >
								<g >
									<path d="M593.9 236.7H588.7C587.6 236.7 586.7 235.9 586.7 234.9V214.3C586.7 213.3 587.6 212.5 588.7 212.5H593.9C595 212.5 595.9 213.3 595.9 214.3V234.9C595.9 235.9 595 236.7 593.9 236.7Z" fill="#DFE1E8" />
									<path d="M586.9 213.6L589.4 209.8H592.9L595.7 213.6H586.9Z" fill="#DFE1E8" />
								</g>
								<path d="M592.9 208.2H589.4V209.8H592.9V208.2Z" fill="#DFE1E8" />
							</g>
							<g >
								<g >
									<path d="M607.1 236.7H601.9C600.8 236.7 599.9 235.9 599.9 234.9V214.3C599.9 213.3 600.8 212.5 601.9 212.5H607.1C608.2 212.5 609.1 213.3 609.1 214.3V234.9C609.1 235.9 608.2 236.7 607.1 236.7Z" fill="#DFE1E8" />
									<path d="M600.1 213.6L602.6 209.8H606.1L608.9 213.6H600.1Z" fill="#DFE1E8" />
								</g>
								<path d="M606.1 208.2H602.6V209.8H606.1V208.2Z" fill="#DFE1E8" />
							</g>
						</g>
						<g >
							<g >
								<g >
									<path d="M629.6 236.7H624.4C623.3 236.7 622.4 235.9 622.4 234.9V214.3C622.4 213.3 623.3 212.5 624.4 212.5H629.6C630.7 212.5 631.6 213.3 631.6 214.3V234.9C631.5 235.9 630.7 236.7 629.6 236.7Z" fill="#DFE1E8" />
									<path d="M622.5 213.6L625 209.8H628.5L631.4 213.6H622.5Z" fill="#DFE1E8" />
								</g>
								<path d="M628.6 208.2H625.1V209.8H628.6V208.2Z" fill="#DFE1E8" />
							</g>
							<g >
								<g >
									<path d="M642.8 236.7H637.6C636.5 236.7 635.6 235.9 635.6 234.9V214.3C635.6 213.3 636.5 212.5 637.6 212.5H642.8C643.9 212.5 644.8 213.3 644.8 214.3V234.9C644.8 235.9 643.9 236.7 642.8 236.7Z" fill="#DFE1E8" />
									<path d="M635.8 213.6L638.3 209.8H641.8L644.6 213.6H635.8Z" fill="#DFE1E8" />
								</g>
								<path d="M641.8 208.2H638.3V209.8H641.8V208.2Z" fill="#DFE1E8" />
							</g>
						</g>
						<g >
							<g >
								<g >
									<path d="M665.2 236.7H660C658.9 236.7 658 235.9 658 234.9V214.3C658 213.3 658.9 212.5 660 212.5H665.2C666.3 212.5 667.2 213.3 667.2 214.3V234.9C667.2 235.9 666.3 236.7 665.2 236.7Z" fill="#DFE1E8" />
									<path d="M658.2 213.6L660.7 209.8H664.2L667 213.6H658.2Z" fill="#DFE1E8" />
								</g>
								<path d="M664.2 208.2H660.7V209.8H664.2V208.2Z" fill="#DFE1E8" />
							</g>
							<g >
								<g >
									<path d="M678.499 236.7H673.299C672.199 236.7 671.299 235.9 671.299 234.9V214.3C671.299 213.3 672.199 212.5 673.299 212.5H678.499C679.599 212.5 680.499 213.3 680.499 214.3V234.9C680.399 235.9 679.499 236.7 678.499 236.7Z" fill="#DFE1E8" />
									<path d="M671.399 213.6L673.899 209.8H677.399L680.299 213.6H671.399Z" fill="#DFE1E8" />
								</g>
								<path d="M677.5 208.2H674V209.8H677.5V208.2Z" fill="#DFE1E8" />
							</g>
						</g>
						<g >
							<g >
								<g >
									<path d="M700.9 236.7H695.7C694.6 236.7 693.7 235.9 693.7 234.9V214.3C693.7 213.3 694.6 212.5 695.7 212.5H700.9C702 212.5 702.9 213.3 702.9 214.3V234.9C702.8 235.9 702 236.7 700.9 236.7Z" fill="#DFE1E8" />
									<path d="M693.8 213.6L696.3 209.8H699.8L702.7 213.6H693.8Z" fill="#DFE1E8" />
								</g>
								<path d="M699.9 208.2H696.4V209.8H699.9V208.2Z" fill="#DFE1E8" />
							</g>
							<g >
								<g >
									<path d="M714.1 236.7H708.9C707.8 236.7 706.9 235.9 706.9 234.9V214.3C706.9 213.3 707.8 212.5 708.9 212.5H714.1C715.2 212.5 716.1 213.3 716.1 214.3V234.9C716.1 235.9 715.2 236.7 714.1 236.7Z" fill="#DFE1E8" />
									<path d="M707.1 213.6L709.6 209.8H713.1L715.9 213.6H707.1Z" fill="#DFE1E8" />
								</g>
								<path d="M713.1 208.2H709.6V209.8H713.1V208.2Z" fill="#DFE1E8" />
							</g>
						</g>
						<g >
							<g >
								<g >
									<path d="M736.5 236.7H731.3C730.2 236.7 729.3 235.9 729.3 234.9V214.3C729.3 213.3 730.2 212.5 731.3 212.5H736.5C737.6 212.5 738.5 213.3 738.5 214.3V234.9C738.5 235.9 737.6 236.7 736.5 236.7Z" fill="#DFE1E8" />
									<path d="M729.5 213.6L732 209.8H735.5L738.3 213.6H729.5Z" fill="#DFE1E8" />
								</g>
								<path d="M735.5 208.2H732V209.8H735.5V208.2Z" fill="#DFE1E8" />
							</g>
							<g >
								<g >
									<path d="M749.8 236.7H744.6C743.5 236.7 742.6 235.9 742.6 234.9V214.3C742.6 213.3 743.5 212.5 744.6 212.5H749.8C750.9 212.5 751.8 213.3 751.8 214.3V234.9C751.7 235.9 750.9 236.7 749.8 236.7Z" fill="#DFE1E8" />
									<path d="M742.7 213.6L745.2 209.8H748.7L751.6 213.6H742.7Z" fill="#DFE1E8" />
								</g>
								<path d="M748.8 208.2H745.3V209.8H748.8V208.2Z" fill="#DFE1E8" />
							</g>
						</g>
						<g >
							<g >
								<g >
									<path d="M772.2 236.7H767C765.9 236.7 765 235.9 765 234.9V214.3C765 213.3 765.9 212.5 767 212.5H772.2C773.3 212.5 774.2 213.3 774.2 214.3V234.9C774.2 235.9 773.3 236.7 772.2 236.7Z" fill="#DFE1E8" />
									<path d="M765.2 213.6L767.6 209.8H771.1L774 213.6H765.2Z" fill="#DFE1E8" />
								</g>
								<path d="M771.2 208.2H767.7V209.8H771.2V208.2Z" fill="#DFE1E8" />
							</g>
							<g >
								<g >
									<path d="M785.4 236.7H780.2C779.1 236.7 778.2 235.9 778.2 234.9V214.3C778.2 213.3 779.1 212.5 780.2 212.5H785.4C786.5 212.5 787.4 213.3 787.4 214.3V234.9C787.4 235.9 786.5 236.7 785.4 236.7Z" fill="#DFE1E8" />
									<path d="M778.4 213.6L780.9 209.8H784.4L787.2 213.6H778.4Z" fill="#DFE1E8" />
								</g>
								<path d="M784.4 208.2H780.9V209.8H784.4V208.2Z" fill="#DFE1E8" />
							</g>
						</g>
						<g >
							<g >
								<g >
									<path d="M807.8 236.7H802.6C801.5 236.7 800.6 235.9 800.6 234.9V214.3C800.6 213.3 801.5 212.5 802.6 212.5H807.8C808.9 212.5 809.8 213.3 809.8 214.3V234.9C809.8 235.9 808.9 236.7 807.8 236.7Z" fill="#DFE1E8" />
									<path d="M800.8 213.6L803.3 209.8H806.8L809.6 213.6H800.8Z" fill="#DFE1E8" />
								</g>
								<path d="M806.8 208.2H803.3V209.8H806.8V208.2Z" fill="#DFE1E8" />
							</g>
							<g >
								<g >
									<path d="M821.099 236.7H815.899C814.799 236.7 813.899 235.9 813.899 234.9V214.3C813.899 213.3 814.799 212.5 815.899 212.5H821.099C822.199 212.5 823.099 213.3 823.099 214.3V234.9C823.099 235.9 822.199 236.7 821.099 236.7Z" fill="#DFE1E8" />
									<path d="M814.1 213.6L816.5 209.8H820L822.9 213.6H814.1Z" fill="#DFE1E8" />
								</g>
								<path d="M820.1 208.2H816.6V209.8H820.1V208.2Z" fill="#DFE1E8" />
							</g>
						</g>
						<g >
							<g >
								<g >
									<path d="M843.5 236.7H838.3C837.2 236.7 836.3 235.9 836.3 234.9V214.3C836.3 213.3 837.2 212.5 838.3 212.5H843.5C844.6 212.5 845.5 213.3 845.5 214.3V234.9C845.5 235.9 844.6 236.7 843.5 236.7Z" fill="#DFE1E8" />
									<path d="M836.5 213.6L839 209.8H842.5L845.3 213.6H836.5Z" fill="#DFE1E8" />
								</g>
								<path d="M842.5 208.2H839V209.8H842.5V208.2Z" fill="#DFE1E8" />
							</g>
							<g >
								<g >
									<path d="M856.7 236.7H851.5C850.4 236.7 849.5 235.9 849.5 234.9V214.3C849.5 213.3 850.4 212.5 851.5 212.5H856.7C857.8 212.5 858.7 213.3 858.7 214.3V234.9C858.7 235.9 857.8 236.7 856.7 236.7Z" fill="#DFE1E8" />
									<path d="M849.7 213.6L852.2 209.8H855.7L858.5 213.6H849.7Z" fill="#DFE1E8" />
								</g>
								<path d="M855.7 208.2H852.2V209.8H855.7V208.2Z" fill="#DFE1E8" />
							</g>
						</g>
						<g >
							<g >
								<g >
									<path d="M879.2 236.7H874C872.9 236.7 872 235.9 872 234.9V214.3C872 213.3 872.9 212.5 874 212.5H879.2C880.3 212.5 881.2 213.3 881.2 214.3V234.9C881.1 235.9 880.2 236.7 879.2 236.7Z" fill="#DFE1E8" />
									<path d="M872.1 213.6L874.6 209.8H878.1L881 213.6H872.1Z" fill="#DFE1E8" />
								</g>
								<path d="M878.2 208.2H874.7V209.8H878.2V208.2Z" fill="#DFE1E8" />
							</g>
							<g >
								<g >
									<path d="M892.399 236.7H887.199C886.099 236.7 885.199 235.9 885.199 234.9V214.3C885.199 213.3 886.099 212.5 887.199 212.5H892.399C893.499 212.5 894.399 213.3 894.399 214.3V234.9C894.399 235.9 893.499 236.7 892.399 236.7Z" fill="#DFE1E8" />
									<path d="M885.399 213.6L887.899 209.8H891.399L894.199 213.6H885.399Z" fill="#DFE1E8" />
								</g>
								<path d="M891.399 208.2H887.899V209.8H891.399V208.2Z" fill="#DFE1E8" />
							</g>
						</g>
						<g >
							<g >
								<g >
									<path d="M914.8 236.7H909.6C908.5 236.7 907.6 235.9 907.6 234.9V214.3C907.6 213.3 908.5 212.5 909.6 212.5H914.8C915.9 212.5 916.8 213.3 916.8 214.3V234.9C916.8 235.9 915.9 236.7 914.8 236.7Z" fill="#DFE1E8" />
									<path d="M907.8 213.6L910.3 209.8H913.8L916.6 213.6H907.8Z" fill="#DFE1E8" />
								</g>
								<path d="M913.8 208.2H910.3V209.8H913.8V208.2Z" fill="#DFE1E8" />
							</g>
							<g >
								<g >
									<path d="M928.099 236.7H922.899C921.799 236.7 920.899 235.9 920.899 234.9V214.3C920.899 213.3 921.799 212.5 922.899 212.5H928.099C929.199 212.5 930.099 213.3 930.099 214.3V234.9C929.999 235.9 929.099 236.7 928.099 236.7Z" fill="#DFE1E8" />
									<path d="M921 213.6L923.5 209.8H927L929.8 213.6H921Z" fill="#DFE1E8" />
								</g>
								<path d="M927.1 208.2H923.6V209.8H927.1V208.2Z" fill="#DFE1E8" />
							</g>
						</g>
						<g >
							<g >
								<g >
									<path d="M950.5 236.7H945.3C944.2 236.7 943.3 235.9 943.3 234.9V214.3C943.3 213.3 944.2 212.5 945.3 212.5H950.5C951.6 212.5 952.5 213.3 952.5 214.3V234.9C952.4 235.9 951.6 236.7 950.5 236.7Z" fill="#DFE1E8" />
									<path d="M943.4 213.6L945.9 209.8H949.4L952.3 213.6H943.4Z" fill="#DFE1E8" />
								</g>
								<path d="M949.5 208.2H946V209.8H949.5V208.2Z" fill="#DFE1E8" />
							</g>
							<g >
								<g >
									<path d="M963.7 236.7H958.5C957.4 236.7 956.5 235.9 956.5 234.9V214.3C956.5 213.3 957.4 212.5 958.5 212.5H963.7C964.8 212.5 965.7 213.3 965.7 214.3V234.9C965.7 235.9 964.8 236.7 963.7 236.7Z" fill="#DFE1E8" />
									<path d="M956.7 213.6L959.2 209.8H962.7L965.5 213.6H956.7Z" fill="#DFE1E8" />
								</g>
								<path d="M962.7 208.2H959.2V209.8H962.7V208.2Z" fill="#DFE1E8" />
							</g>
						</g>
						<g >
							<g >
								<g >
									<path d="M986.1 236.7H980.9C979.8 236.7 978.9 235.9 978.9 234.9V214.3C978.9 213.3 979.8 212.5 980.9 212.5H986.1C987.2 212.5 988.1 213.3 988.1 214.3V234.9C988.1 235.9 987.2 236.7 986.1 236.7Z" fill="#DFE1E8" />
									<path d="M979.1 213.6L981.6 209.8H985.1L987.9 213.6H979.1Z" fill="#DFE1E8" />
								</g>
								<path d="M985.1 208.2H981.6V209.8H985.1V208.2Z" fill="#DFE1E8" />
							</g>
							<g >
								<g >
									<path d="M999.4 236.7H994.2C993.1 236.7 992.2 235.9 992.2 234.9V214.3C992.2 213.3 993.1 212.5 994.2 212.5H999.4C1000.5 212.5 1001.4 213.3 1001.4 214.3V234.9C1001.3 235.9 1000.5 236.7 999.4 236.7Z" fill="#DFE1E8" />
									<path d="M992.3 213.6L994.8 209.8H998.3L1001.2 213.6H992.3Z" fill="#DFE1E8" />
								</g>
								<path d="M998.4 208.2H994.9V209.8H998.4V208.2Z" fill="#DFE1E8" />
							</g>
						</g>
						<g >
							<g >
								<g >
									<path d="M1021.8 236.7H1016.6C1015.5 236.7 1014.6 235.9 1014.6 234.9V214.3C1014.6 213.3 1015.5 212.5 1016.6 212.5H1021.8C1022.9 212.5 1023.8 213.3 1023.8 214.3V234.9C1023.8 235.9 1022.9 236.7 1021.8 236.7Z" fill="#DFE1E8" />
									<path d="M1014.8 213.6L1017.2 209.8H1020.7L1023.6 213.6H1014.8Z" fill="#DFE1E8" />
								</g>
								<path d="M1020.8 208.2H1017.3V209.8H1020.8V208.2Z" fill="#DFE1E8" />
							</g>
							<g >
								<g >
									<path d="M1035 236.7H1029.8C1028.7 236.7 1027.8 235.9 1027.8 234.9V214.3C1027.8 213.3 1028.7 212.5 1029.8 212.5H1035C1036.1 212.5 1037 213.3 1037 214.3V234.9C1037 235.9 1036.1 236.7 1035 236.7Z" fill="#DFE1E8" />
									<path d="M1028 213.6L1030.5 209.8H1034L1036.8 213.6H1028Z" fill="#DFE1E8" />
								</g>
								<path d="M1034 208.2H1030.5V209.8H1034V208.2Z" fill="#DFE1E8" />
							</g>
						</g>
					</g>
					<g >
						<g >
							<g >
								<path d="M594.1 195.4H588.9C587.8 195.4 586.9 194.6 586.9 193.6V173C586.9 172 587.8 171.2 588.9 171.2H594.1C595.2 171.2 596.1 172 596.1 173V193.6C596 194.6 595.2 195.4 594.1 195.4Z" fill="#DFE1E8" />
								<path d="M587 172.3L589.5 168.5H593L595.9 172.3H587Z" fill="#DFE1E8" />
							</g>
							<path d="M593.1 166.9H589.6V168.5H593.1V166.9Z" fill="#DFE1E8" />
						</g>
						<g >
							<g >
								<path d="M611.7 195.4H606.5C605.4 195.4 604.5 194.6 604.5 193.6V173C604.5 172 605.4 171.2 606.5 171.2H611.7C612.8 171.2 613.7 172 613.7 173V193.6C613.7 194.6 612.8 195.4 611.7 195.4Z" fill="#DFE1E8" />
								<path d="M604.7 172.3L607.2 168.5H610.7L613.5 172.3H604.7Z" fill="#DFE1E8" />
							</g>
							<path d="M610.7 166.9H607.2V168.5H610.7V166.9Z" fill="#DFE1E8" />
						</g>
						<g >
							<g >
								<path d="M629.4 195.4H624.2C623.1 195.4 622.2 194.6 622.2 193.6V173C622.2 172 623.1 171.2 624.2 171.2H629.4C630.5 171.2 631.4 172 631.4 173V193.6C631.3 194.6 630.5 195.4 629.4 195.4Z" fill="#DFE1E8" />
								<path d="M622.3 172.3L624.8 168.5H628.3L631.2 172.3H622.3Z" fill="#DFE1E8" />
							</g>
							<path d="M628.4 166.9H624.9V168.5H628.4V166.9Z" fill="#DFE1E8" />
						</g>
						<g >
							<g >
								<path d="M647 195.4H641.8C640.7 195.4 639.8 194.6 639.8 193.6V173C639.8 172 640.7 171.2 641.8 171.2H647C648.1 171.2 649 172 649 173V193.6C649 194.6 648.1 195.4 647 195.4Z" fill="#DFE1E8" />
								<path d="M640 172.3L642.5 168.5H646L648.8 172.3H640Z" fill="#DFE1E8" />
							</g>
							<path d="M646 166.9H642.5V168.5H646V166.9Z" fill="#DFE1E8" />
						</g>
						<g >
							<g >
								<path d="M664.7 195.4H659.5C658.4 195.4 657.5 194.6 657.5 193.6V173C657.5 172 658.4 171.2 659.5 171.2H664.7C665.8 171.2 666.7 172 666.7 173V193.6C666.6 194.6 665.8 195.4 664.7 195.4Z" fill="#DFE1E8" />
								<path d="M657.6 172.3L660.1 168.5H663.6L666.5 172.3H657.6Z" fill="#DFE1E8" />
							</g>
							<path d="M663.7 166.9H660.2V168.5H663.7V166.9Z" fill="#DFE1E8" />
						</g>
						<g >
							<g >
								<path d="M682.3 195.4H677.1C676 195.4 675.1 194.6 675.1 193.6V173C675.1 172 676 171.2 677.1 171.2H682.3C683.4 171.2 684.3 172 684.3 173V193.6C684.3 194.6 683.4 195.4 682.3 195.4Z" fill="#DFE1E8" />
								<path d="M675.3 172.3L677.8 168.5H681.3L684.1 172.3H675.3Z" fill="#DFE1E8" />
							</g>
							<path d="M681.3 166.9H677.8V168.5H681.3V166.9Z" fill="#DFE1E8" />
						</g>
						<g >
							<g >
								<path d="M700 195.4H694.8C693.7 195.4 692.8 194.6 692.8 193.6V173C692.8 172 693.7 171.2 694.8 171.2H700C701.1 171.2 702 172 702 173V193.6C701.9 194.6 701.1 195.4 700 195.4Z" fill="#DFE1E8" />
								<path d="M692.9 172.3L695.4 168.5H698.9L701.8 172.3H692.9Z" fill="#DFE1E8" />
							</g>
							<path d="M699 166.9H695.5V168.5H699V166.9Z" fill="#DFE1E8" />
						</g>
						<g >
							<g >
								<path d="M717.6 195.4H712.4C711.3 195.4 710.4 194.6 710.4 193.6V173C710.4 172 711.3 171.2 712.4 171.2H717.6C718.7 171.2 719.6 172 719.6 173V193.6C719.6 194.6 718.7 195.4 717.6 195.4Z" fill="#DFE1E8" />
								<path d="M710.6 172.3L713.1 168.5H716.6L719.4 172.3H710.6Z" fill="#DFE1E8" />
							</g>
							<path d="M716.6 166.9H713.1V168.5H716.6V166.9Z" fill="#DFE1E8" />
						</g>
						<g >
							<g >
								<path d="M735.3 195.4H730.1C729 195.4 728.1 194.6 728.1 193.6V173C728.1 172 729 171.2 730.1 171.2H735.3C736.4 171.2 737.3 172 737.3 173V193.6C737.2 194.6 736.4 195.4 735.3 195.4Z" fill="#DFE1E8" />
								<path d="M728.2 172.3L730.7 168.5H734.2L737.1 172.3H728.2Z" fill="#DFE1E8" />
							</g>
							<path d="M734.3 166.9H730.8V168.5H734.3V166.9Z" fill="#DFE1E8" />
						</g>
						<g >
							<g >
								<path d="M752.9 195.4H747.7C746.6 195.4 745.7 194.6 745.7 193.6V173C745.7 172 746.6 171.2 747.7 171.2H752.9C754 171.2 754.9 172 754.9 173V193.6C754.9 194.6 754 195.4 752.9 195.4Z" fill="#DFE1E8" />
								<path d="M745.9 172.3L748.4 168.5H751.9L754.7 172.3H745.9Z" fill="#DFE1E8" />
							</g>
							<path d="M751.9 166.9H748.4V168.5H751.9V166.9Z" fill="#DFE1E8" />
						</g>
						<g >
							<g >
								<path d="M770.6 195.4H765.4C764.3 195.4 763.4 194.6 763.4 193.6V173C763.4 172 764.3 171.2 765.4 171.2H770.6C771.7 171.2 772.6 172 772.6 173V193.6C772.5 194.6 771.7 195.4 770.6 195.4Z" fill="#DFE1E8" />
								<path d="M763.5 172.3L766 168.5H769.5L772.4 172.3H763.5Z" fill="#DFE1E8" />
							</g>
							<path d="M769.6 166.9H766.1V168.5H769.6V166.9Z" fill="#DFE1E8" />
						</g>
						<g >
							<g >
								<path d="M788.2 195.4H783C781.9 195.4 781 194.6 781 193.6V173C781 172 781.9 171.2 783 171.2H788.2C789.3 171.2 790.2 172 790.2 173V193.6C790.2 194.6 789.3 195.4 788.2 195.4Z" fill="#DFE1E8" />
								<path d="M781.2 172.3L783.7 168.5H787.2L790 172.3H781.2Z" fill="#DFE1E8" />
							</g>
							<path d="M787.2 166.9H783.7V168.5H787.2V166.9Z" fill="#DFE1E8" />
						</g>
						<g >
							<g >
								<path d="M805.9 195.4H800.7C799.6 195.4 798.7 194.6 798.7 193.6V173C798.7 172 799.6 171.2 800.7 171.2H805.9C807 171.2 807.9 172 807.9 173V193.6C807.8 194.6 807 195.4 805.9 195.4Z" fill="#DFE1E8" />
								<path d="M798.9 172.3L801.3 168.5H804.8L807.7 172.3H798.9Z" fill="#DFE1E8" />
							</g>
							<path d="M804.9 166.9H801.4V168.5H804.9V166.9Z" fill="#DFE1E8" />
						</g>
						<g >
							<g >
								<path d="M823.5 195.4H818.3C817.2 195.4 816.3 194.6 816.3 193.6V173C816.3 172 817.2 171.2 818.3 171.2H823.5C824.6 171.2 825.5 172 825.5 173V193.6C825.5 194.6 824.6 195.4 823.5 195.4Z" fill="#DFE1E8" />
								<path d="M816.5 172.3L819 168.5H822.5L825.3 172.3H816.5Z" fill="#DFE1E8" />
							</g>
							<path d="M822.5 166.9H819V168.5H822.5V166.9Z" fill="#DFE1E8" />
						</g>
						<g >
							<g >
								<path d="M841.2 195.4H836C834.9 195.4 834 194.6 834 193.6V173C834 172 834.9 171.2 836 171.2H841.2C842.3 171.2 843.2 172 843.2 173V193.6C843.2 194.6 842.3 195.4 841.2 195.4Z" fill="#DFE1E8" />
								<path d="M834.2 172.3L836.6 168.5H840.1L843 172.3H834.2Z" fill="#DFE1E8" />
							</g>
							<path d="M840.2 166.9H836.7V168.5H840.2V166.9Z" fill="#DFE1E8" />
						</g>
						<g >
							<g >
								<path d="M858.8 195.4H853.6C852.5 195.4 851.6 194.6 851.6 193.6V173C851.6 172 852.5 171.2 853.6 171.2H858.8C859.9 171.2 860.8 172 860.8 173V193.6C860.8 194.6 859.9 195.4 858.8 195.4Z" fill="#DFE1E8" />
								<path d="M851.8 172.3L854.3 168.5H857.8L860.6 172.3H851.8Z" fill="#DFE1E8" />
							</g>
							<path d="M857.8 166.9H854.3V168.5H857.8V166.9Z" fill="#DFE1E8" />
						</g>
						<g >
							<g >
								<path d="M876.5 195.4H871.3C870.2 195.4 869.3 194.6 869.3 193.6V173C869.3 172 870.2 171.2 871.3 171.2H876.5C877.6 171.2 878.5 172 878.5 173V193.6C878.5 194.6 877.6 195.4 876.5 195.4Z" fill="#DFE1E8" />
								<path d="M869.5 172.3L871.9 168.5H875.4L878.3 172.3H869.5Z" fill="#DFE1E8" />
							</g>
							<path d="M875.5 166.9H872V168.5H875.5V166.9Z" fill="#DFE1E8" />
						</g>
						<g >
							<g >
								<path d="M894.1 195.4H888.9C887.8 195.4 886.9 194.6 886.9 193.6V173C886.9 172 887.8 171.2 888.9 171.2H894.1C895.2 171.2 896.1 172 896.1 173V193.6C896.1 194.6 895.2 195.4 894.1 195.4Z" fill="#DFE1E8" />
								<path d="M887.1 172.3L889.6 168.5H893.1L895.9 172.3H887.1Z" fill="#DFE1E8" />
							</g>
							<path d="M893.1 166.9H889.6V168.5H893.1V166.9Z" fill="#DFE1E8" />
						</g>
						<g >
							<g >
								<path d="M911.8 195.4H906.6C905.5 195.4 904.6 194.6 904.6 193.6V173C904.6 172 905.5 171.2 906.6 171.2H911.8C912.9 171.2 913.8 172 913.8 173V193.6C913.8 194.6 912.9 195.4 911.8 195.4Z" fill="#DFE1E8" />
								<path d="M904.8 172.3L907.2 168.5H910.7L913.6 172.3H904.8Z" fill="#DFE1E8" />
							</g>
							<path d="M910.8 166.9H907.3V168.5H910.8V166.9Z" fill="#DFE1E8" />
						</g>
						<g >
							<g >
								<path d="M929.4 195.4H924.2C923.1 195.4 922.2 194.6 922.2 193.6V173C922.2 172 923.1 171.2 924.2 171.2H929.4C930.5 171.2 931.4 172 931.4 173V193.6C931.4 194.6 930.5 195.4 929.4 195.4Z" fill="#DFE1E8" />
								<path d="M922.4 172.3L924.9 168.5H928.4L931.2 172.3H922.4Z" fill="#DFE1E8" />
							</g>
							<path d="M928.4 166.9H924.9V168.5H928.4V166.9Z" fill="#DFE1E8" />
						</g>
						<g >
							<g >
								<path d="M947.1 195.4H941.9C940.8 195.4 939.9 194.6 939.9 193.6V173C939.9 172 940.8 171.2 941.9 171.2H947.1C948.2 171.2 949.1 172 949.1 173V193.6C949.1 194.6 948.2 195.4 947.1 195.4Z" fill="#DFE1E8" />
								<path d="M940.1 172.3L942.5 168.5H946L948.9 172.3H940.1Z" fill="#DFE1E8" />
							</g>
							<path d="M946.1 166.9H942.6V168.5H946.1V166.9Z" fill="#DFE1E8" />
						</g>
						<g >
							<g >
								<path d="M964.7 195.4H959.5C958.4 195.4 957.5 194.6 957.5 193.6V173C957.5 172 958.4 171.2 959.5 171.2H964.7C965.8 171.2 966.7 172 966.7 173V193.6C966.7 194.6 965.8 195.4 964.7 195.4Z" fill="#DFE1E8" />
								<path d="M957.7 172.3L960.2 168.5H963.7L966.5 172.3H957.7Z" fill="#DFE1E8" />
							</g>
							<path d="M963.7 166.9H960.2V168.5H963.7V166.9Z" fill="#DFE1E8" />
						</g>
						<g >
							<g >
								<path d="M982.4 195.4H977.2C976.1 195.4 975.2 194.6 975.2 193.6V173C975.2 172 976.1 171.2 977.2 171.2H982.4C983.5 171.2 984.4 172 984.4 173V193.6C984.4 194.6 983.5 195.4 982.4 195.4Z" fill="#DFE1E8" />
								<path d="M975.4 172.3L977.8 168.5H981.3L984.2 172.3H975.4Z" fill="#DFE1E8" />
							</g>
							<path d="M981.4 166.9H977.9V168.5H981.4V166.9Z" fill="#DFE1E8" />
						</g>
						<g >
							<g >
								<path d="M1000 195.4H994.8C993.7 195.4 992.8 194.6 992.8 193.6V173C992.8 172 993.7 171.2 994.8 171.2H1000C1001.1 171.2 1002 172 1002 173V193.6C1002 194.6 1001.1 195.4 1000 195.4Z" fill="#DFE1E8" />
								<path d="M993 172.3L995.5 168.5H999L1001.8 172.3H993Z" fill="#DFE1E8" />
							</g>
							<path d="M999 166.9H995.5V168.5H999V166.9Z" fill="#DFE1E8" />
						</g>
						<g >
							<g >
								<path d="M1017.7 195.4H1012.5C1011.4 195.4 1010.5 194.6 1010.5 193.6V173C1010.5 172 1011.4 171.2 1012.5 171.2H1017.7C1018.8 171.2 1019.7 172 1019.7 173V193.6C1019.7 194.6 1018.8 195.4 1017.7 195.4Z" fill="#DFE1E8" />
								<path d="M1010.7 172.3L1013.1 168.5H1016.6L1019.5 172.3H1010.7Z" fill="#DFE1E8" />
							</g>
							<path d="M1016.7 166.9H1013.2V168.5H1016.7V166.9Z" fill="#DFE1E8" />
						</g>
						<g >
							<g >
								<path d="M1035.3 195.4H1030.1C1029 195.4 1028.1 194.6 1028.1 193.6V173C1028.1 172 1029 171.2 1030.1 171.2H1035.3C1036.4 171.2 1037.3 172 1037.3 173V193.6C1037.3 194.6 1036.4 195.4 1035.3 195.4Z" fill="#DFE1E8" />
								<path d="M1028.3 172.3L1030.8 168.5H1034.3L1037.1 172.3H1028.3Z" fill="#DFE1E8" />
							</g>
							<path d="M1034.3 166.9H1030.8V168.5H1034.3V166.9Z" fill="#DFE1E8" />
						</g>
						<g >
							<g >
								<path d="M1053 195.4H1047.8C1046.7 195.4 1045.8 194.6 1045.8 193.6V173C1045.8 172 1046.7 171.2 1047.8 171.2H1053C1054.1 171.2 1055 172 1055 173V193.6C1055 194.6 1054.1 195.4 1053 195.4Z" fill="#DFE1E8" />
								<path d="M1046 172.3L1048.4 168.5H1051.9L1054.8 172.3H1046Z" fill="#DFE1E8" />
							</g>
							<path d="M1052 166.9H1048.5V168.5H1052V166.9Z" fill="#DFE1E8" />
						</g>
					</g>
				</g>
			</g>
			<g >
				<g >
					<g  opacity="0.64">
						<g >
							<path d="M1330.7 352.9H307.3V358H1330.7V352.9Z" fill="#DFE1E8" />
						</g>
					</g>
				</g>
			</g>
		</g>
		<g class="svgIcon svgIcon4">
			<path d="M474.1 284.3C476.198 284.3 477.9 282.599 477.9 280.5C477.9 278.402 476.198 276.7 474.1 276.7C472.001 276.7 470.3 278.402 470.3 280.5C470.3 282.599 472.001 284.3 474.1 284.3Z" fill="#A7D07D" />
			<path d="M506.219 283.316C514.793 276.007 519.217 267.118 516.1 263.461C512.983 259.805 503.506 262.766 494.932 270.074C486.358 277.383 481.934 286.272 485.051 289.928C488.168 293.585 497.646 290.624 506.219 283.316Z" fill="#FEDA8C" />
			<g >
				<path d="M469.8 287.999C469.8 287.999 462.7 279.999 458 277.899C458 277.899 458 275.399 460.1 275.099C462.2 274.799 462.4 271.299 463.8 270.799C465.2 270.299 466.2 271.499 467.6 271.499C469 271.499 468.9 269.899 470.8 269.899C472.7 269.899 472.4 270.799 473.7 270.799C475 270.799 475.4 284.099 475.4 284.099L469.8 287.999Z" fill="#A7D07D" />
				<path d="M491.291 267.503L482.546 264.056L473.232 287.685L481.977 291.132L491.291 267.503Z" fill="#E16056" />
			</g>
			<g >
				<g >
					<g >
						<path d="M426.9 225.299C426.9 225.299 426.6 224.599 426.3 224.099C426 223.599 426.3 223.199 426.5 223.199C426.7 223.199 426.9 223.399 427.2 223.799C427.4 223.999 427.7 224.199 427.8 224.299C428.1 224.499 428.7 224.799 428.9 224.999C429.1 225.199 430.7 227.499 430.7 227.499L430.8 227.699C430.8 227.699 429 230.499 428.3 230.299C427.8 230.199 427.2 229.799 427 229.599C426.7 229.399 425.6 228.299 425.4 228.099C425.1 227.699 425.1 227.199 425.1 227.099C425.1 226.999 424.8 226.099 424.8 225.899C424.8 225.599 425 225.099 425 225.099" fill="#F7B29A" />
						<path d="M427.8 220.6L427.1 225.1" stroke="#C28EBF" stroke-width="0.4226" stroke-miterlimit="10" />
						<path d="M428.5 225.3L427.7 225C427.7 225 426 223.4 426 223.3C426 223.2 425.6 223 425.4 223.3C425.1 223.6 425.3 224 425.4 224.2C425.5 224.4 426.3 225.6 426.3 225.6" fill="#F7B29A" />
						<path d="M425.5 226.5C425.5 226.5 425.2 225.9 425 225.4C424.8 225 424.8 224.4 424.9 224.2C425 224 425.3 223.6 425.3 223.6L426.3 225.1L426.6 225.2" fill="#F7B29A" />
					</g>
					<g >
						<g >
							<path d="M410.2 246.799C410.2 246.799 409 251.899 409.1 252.499C409.2 253.099 412.1 254.199 412.1 254.199L412.8 248.899C412.8 248.899 412.5 245.499 411.8 245.099C411.1 244.699 410.5 245.599 410.2 246.799Z" fill="#1F1341" />
							<path d="M426.2 259.3C426.2 259.3 414.4 255.8 412 254.1L412.7 248.8C412.7 248.8 438.6 249.2 440.2 250.5" fill="#E06E24" />
							<g >
								<path d="M445 226.4C445 226.4 446.1 226.9 446.7 227.7C447.3 228.6 447.299 229.6 447.299 229.6H452.099C452.099 229.6 450.5 227 451 226.1" fill="#F7B29A" />
								<path d="M453.399 230.299C454.399 231.199 454.899 232.199 455.299 233.199C456.399 236.699 455.499 243.499 451.899 248.499C447.199 255.099 446.199 259.099 446.199 259.099L435.299 260.199C435.299 260.199 438.499 255.099 438.399 250.599C438.199 245.199 437.899 238.599 440.599 235.499C444.899 230.499 448.699 226.199 453.399 230.299Z" fill="#A7D07D" />
								<path d="M430.7 227.3L427 230C427 230 434.6 241.9 438.5 241.9C443.3 241.9 451.9 238.9 451.9 236.1C451.9 233.5 449.6 231.7 446.7 232.4C443.8 233.1 439.9 234.1 439.9 234.1L430.7 227.3Z" fill="#A7D07D" />
								<path d="M438.5 241.899C443.3 241.899 449 240.099 450.5 236.799C451.1 235.499 451.3 233.599 450.2 232.899C450.1 233.199 450 233.499 450 233.999C449.7 238.799 441.7 240.099 438.5 239.699C435.2 239.299 427.9 229.399 427.9 229.399L427 229.999C427 229.999 434.6 241.899 438.5 241.899Z" fill="#70B42C" />
							</g>
							<path d="M438.9 248.8L450.5 249.6C450.5 249.6 451.7 258.6 446.2 259.1L434 259C434 259 427.7 269.6 425.4 271.5L420.4 269.5C420.4 269.5 423.7 253.7 425.4 252.6C427.2 251.4 438.9 248.8 438.9 248.8Z" fill="#F07F35" />
							<path d="M417.8 271.499C417.8 271.499 422.5 273.899 423.1 273.999C423.7 274.099 425.5 271.499 425.5 271.499L420.5 269.499C420.5 269.499 417.2 268.899 416.6 269.499C416 270.099 416.7 270.899 417.8 271.499Z" fill="#1F1341" />
							<g >
								<path d="M444.4 217.4C443.7 219.2 441 222.8 441.5 225.6C442.3 229.9 447.7 228.8 450.7 226.9C453.1 225.4 455.2 220.1 455 217.5C454.6 213.3 452.8 214 448.4 215.8C446.6 216.6 444.7 216.5 444.4 217.4Z" fill="#F7B29A" />
								<path d="M448.4 215.899C448.4 215.899 447.6 220.199 448.3 222.999C449 225.899 451.5 226.299 451.5 226.299C451.5 226.299 456.3 222.799 456.7 220.499C457.1 218.199 448.4 215.899 448.4 215.899Z" fill="#1F1341" />
								<path d="M443.9 218.2L454.3 223.9C454.3 223.9 460.3 219.5 455.3 215C450.3 210.5 444.5 216 444.5 216C444.5 216 442.4 213.6 441.1 214.8C440 216.1 443.9 218.2 443.9 218.2Z" fill="#46BCC8" />
								<path d="M447.9 222.6C447.9 222.6 449.8 221.3 450.4 222.4C450.9 223.5 450.5 225.1 448.4 225.7" fill="#F7B29A" />
							</g>
						</g>
						<path d="M446.3 259.499L455 239.899C456.2 239.899 457 241.099 456.6 242.199L449.5 259.499H446.3Z" fill="#E30313" />
						<g >
							<g >
								<path d="M504.4 291.999H443.5L430.8 246.199L520.5 251.499L511.9 286.199C511 289.599 507.9 291.999 504.4 291.999Z" stroke="#888FA6" stroke-width="1.8217" stroke-miterlimit="10" stroke-linecap="round" stroke-linejoin="round" />
								<g >
									<g >
										<g >
											<g >
												<path d="M460.5 248.199V292.099" stroke="#888FA6" stroke-width="1.8217" stroke-miterlimit="10" stroke-linecap="round" stroke-linejoin="round" />
												<path d="M455.9 292.1L438.1 343.4" stroke="#888FA6" stroke-width="1.8217" stroke-miterlimit="10" stroke-linecap="round" stroke-linejoin="round" />
												<g >
													<path d="M434.5 259.499H518.4" stroke="#888FA6" stroke-width="1.8217" stroke-miterlimit="10" stroke-linecap="round" stroke-linejoin="round" />
													<path d="M514.7 274.199H460.5" stroke="#888FA6" stroke-width="1.8217" stroke-miterlimit="10" stroke-linecap="round" stroke-linejoin="round" />
													<path d="M500.6 250.499L494.2 292.099" stroke="#888FA6" stroke-width="1.8217" stroke-miterlimit="10" stroke-linecap="round" stroke-linejoin="round" />
													<path d="M478.3 249.199L475.4 292.099" stroke="#888FA6" stroke-width="1.8217" stroke-miterlimit="10" stroke-linecap="round" stroke-linejoin="round" />
												</g>
											</g>
											<path d="M449.1 311.699H504.9" stroke="#888FA6" stroke-width="1.8217" stroke-miterlimit="10" stroke-linecap="round" stroke-linejoin="round" />
											<path d="M502.4 343.399L494.2 311.699" stroke="#888FA6" stroke-width="1.8217" stroke-miterlimit="10" stroke-linecap="round" stroke-linejoin="round" />
										</g>
										<path d="M437.1 352.799C439.972 352.799 442.3 350.471 442.3 347.599C442.3 344.728 439.972 342.399 437.1 342.399C434.228 342.399 431.9 344.728 431.9 347.599C431.9 350.471 434.228 352.799 437.1 352.799Z" fill="#1F1341" />
										<path d="M503.8 352.799C506.672 352.799 509 350.471 509 347.599C509 344.728 506.672 342.399 503.8 342.399C500.928 342.399 498.6 344.728 498.6 347.599C498.6 350.471 500.928 352.799 503.8 352.799Z" fill="#1F1341" />
									</g>
									<path d="M409.5 239.999C409.5 239.999 413.6 242.299 415.9 242.299H417.5C418.1 242.299 418.7 242.099 419.3 241.799L422.7 239.499C422.7 239.499 424.2 235.899 421.2 235.799C418.2 235.699 413.5 237.899 413.5 237.899" fill="#F7B29A" />
									<path d="M520.3 252.999L430.7 247.699C430.2 247.699 429.7 247.299 429.6 246.799L427.9 241.699C427.8 241.399 427.6 241.299 427.3 241.299H417.5C416.8 241.299 416.2 240.699 416.2 239.999C416.2 239.299 416.8 238.699 417.5 238.699H427.3C428.7 238.699 429.9 239.599 430.3 240.899L431.7 245.199L520.4 250.499C521.1 250.499 521.6 251.099 521.6 251.799C521.6 252.499 521 252.999 520.3 252.999Z" fill="#E30313" />
								</g>
								<path d="M503.3 347.6H496.5" stroke="#888FA6" stroke-width="1.8217" stroke-miterlimit="10" stroke-linecap="round" stroke-linejoin="round" />
							</g>
							<path d="M436.4 347.6H429.6" stroke="#888FA6" stroke-width="1.8217" stroke-miterlimit="10" stroke-linecap="round" stroke-linejoin="round" />
						</g>
						<g >
							<g >
								<g >
									<path d="M380.6 251.2L364 295.7C362.8 298.8 361 301.7 358.7 304.1L325.3 338.8L320.4 335.9C320.4 335.9 322.6 331.5 325 326.6C327.5 321.7 330.3 316.3 331.5 314.2C334 310.1 336.2 307.5 339.2 302.8C340.9 300.2 350.5 289.6 350.5 289.6L359.3 246.1" fill="#F7B29A" />
									<g >
										<path d="M320.4 335.8L319 337.5C318.4 338.2 318.7 339.2 319.5 339.7L332.9 347.9C333.6 348.3 334.5 347.8 334.2 347.1C334 346.5 333.6 345.8 333 344.9C331.2 342.3 326.6 336.7 326.6 336.7L320.4 335.8Z" fill="#1F1341" />
										<path d="M331.6 342.9C330.5 342.8 329.1 342.7 328.1 342.1C326.3 341.1 320.4 335.8 320.4 335.8L323.4 329.8L327 337.2C327.1 337.2 329.5 340.1 331.6 342.9Z" fill="#F7B29A" />
									</g>
								</g>
								<path d="M367.2 285.599L352.7 279.899L352.4 280.599L350.6 289.599C350.6 289.599 341.1 300.199 339.3 302.799C338.9 303.399 338.5 303.999 338.1 304.599C338.1 304.599 350.8 294.699 355.6 293.399C360.4 291.999 364.1 295.599 364.1 295.599L364.7 294.099C365.7 291.099 367.2 285.599 367.2 285.599Z" fill="#D48068" />
								<g >
									<path d="M390.3 280.999L385.2 348.399L379.3 348.499C379.3 348.499 374.5 329.499 373.8 324.899C373.1 320.299 373.4 312.999 373.9 310.099C374.4 307.199 373.9 294.399 373.9 294.399" fill="#F7B29A" />
									<path d="M382.7 292.199C382.7 292.199 377.2 303.699 377.2 323.099C377.2 333.199 378.2 344.399 378.2 344.399C376.7 338.599 374.2 328.199 373.7 324.899C373 320.299 373.3 312.999 373.8 310.099C374.1 308.399 373.9 298.299 373.8 294.399L382.7 292.199Z" fill="#D48068" />
									<g >
										<path d="M379.2 348.399V350.499C379.2 351.299 380 351.999 381.1 351.999H397.3C398.2 351.999 398.5 351.099 397.9 350.699C397.3 350.299 396.5 349.899 395.4 349.499C392.2 348.299 384.8 345.899 384.8 345.899L379.2 348.399Z" fill="#1F1341" />
										<path d="M392.8 348.599C391.9 349.099 390.6 349.699 389.5 349.699C387.3 349.799 379.2 348.399 379.2 348.399L378.2 344.399L384.7 345.999C384.8 345.899 389.3 347.399 392.8 348.599Z" fill="#F7B29A" />
									</g>
								</g>
								<path d="M389.4 292.5C389.4 292.5 394 236.2 394.9 225.9C395.8 215.6 402 209.9 396.1 200.3C392.5 194.5 390.6 191.7 386.7 186.6C384.9 184.2 382.3 180.2 379 182.3C370.6 187.6 366.6 194.3 369.4 208C371.4 217.9 370.7 224.4 370.2 225.3C366.5 231.2 361.9 238.2 358.5 248.4C356.6 254.2 353.6 259.6 349.8 264.4C345.4 270 340 276.9 338.1 279.5C338.1 279.6 368.5 301.1 389.4 292.5Z" fill="#A2AFF9" />
								<path d="M396.1 229.699L388.8 239.899H386.1L394.9 225.899" fill="#AD1917" />
								<path d="M398.2 204.999C398.2 204.999 390.3 216.899 384.4 216.899C378.5 216.899 394.8 223.699 394.8 223.699C394.8 223.699 400.3 210.699 398.2 204.999Z" fill="#656DD6" />
								<g >
									<path d="M371.1 202.6C371.1 202.6 374.7 219.4 382.4 226.2C390.1 233.1 412 241.8 412 241.8L415.8 236.2C415.8 236.2 396 221.1 392.3 213.8C390.1 209.4 383.5 194.6 383.5 194.6" fill="#A2AFF9" />
									<path d="M372.2 206.899C372.2 206.899 377.7 216.399 382.7 222.199C387.7 228.099 413.2 239.899 413.2 239.899L411.9 241.799C411.9 241.799 387.2 233.099 380.9 225.699C374.7 218.399 372.2 206.899 372.2 206.899Z" fill="#656DD6" />
								</g>
								<path d="M379.7 182.7L381.9 176.6L388.2 178.9C388.2 178.9 387.9 181.2 387.7 183.5C387.6 185.8 387.6 188.1 386.7 188.1C385.1 188.1 379.1 186.3 379.7 182.7Z" fill="#F7B29A" />
								<path d="M383.1 178.399C383.1 178.399 384.3 182.899 387.7 183.399L388.2 178.799L383.1 178.399Z" fill="#E29882" />
								<path d="M380.4 172.699C380.4 172.699 381.7 179.199 386.5 180.799C391.3 182.299 393.8 178.599 395.4 173.999C397 169.399 397.8 163.199 393.4 159.999C390.1 157.699 385.1 157.499 383 160.599C380.9 163.699 380.4 172.699 380.4 172.699Z" fill="#F7B29A" />
								<path d="M358.1 249.699C358.1 249.699 350.2 277.699 343.6 283.299L338.1 279.699C338.1 279.599 355.4 256.699 358.1 249.699Z" fill="#656DD6" />
							</g>
							<path d="M381.6 165.1C381.6 165.1 384.8 183.5 377.7 189.5C373.5 193.1 364.5 191.6 363 184.7C361.5 177.8 369.3 177.1 369.7 168.1C370.1 159.1 374 151.6 379.7 151.6C385.4 151.6 387.7 158.8 387.7 158.8" fill="#FEDA8C" />
							<path d="M388.9 158.799C388.9 158.799 387.2 155.499 383.8 156.599C380.4 157.699 379.2 161.199 382.3 162.999" fill="#C28EBF" />
							<path d="M396.5 163.6C396.5 163.6 397.2 169.7 389.6 169.9L389.3 170C387.1 170.9 385.2 172.3 383.7 174.1C382.6 175.3 381.4 176.6 380.6 176.5C379.1 176.3 376.6 161 383.6 158.5C392.7 155.3 396.5 163.6 396.5 163.6Z" fill="#FEDA8C" />
						</g>
					</g>
					<path d="M428 221.5C428.828 221.5 429.5 220.828 429.5 220C429.5 219.172 428.828 218.5 428 218.5C427.172 218.5 426.5 219.172 426.5 220C426.5 220.828 427.172 221.5 428 221.5Z" fill="#F07F35" />
				</g>
				<path d="M398.1 221.1C398.1 221.1 397.7 216 393.4 217.4C389.1 218.7 373.8 234.4 373.8 234.4L376.4 235.4C376.4 235.4 391.8 221.6 394.3 220C396.5 218.7 398.1 221.1 398.1 221.1Z" fill="#AD1917" />
				<path d="M373.8 234.399L388.8 239.899C388.8 239.899 383.9 251.599 375.8 249.599C361.9 246.199 370 238.099 373.8 234.399Z" fill="#AD1917" />
			</g>
		</g>
		<g class="svgIcon svgIcon5">
			<g >
				<g >
					<g >
						<path d="M1317.7 275.8L1289.9 286.6C1289 286.9 1288 286.5 1287.7 285.6C1287.4 284.7 1287.8 283.7 1288.7 283.4L1316.5 272.6C1317.4 272.3 1318.4 272.7 1318.7 273.6C1319 274.4 1318.6 275.4 1317.7 275.8Z" fill="#E30313" />
						<path d="M1345.6 286.3L1324.5 265.2C1323.8 264.5 1323.8 263.5 1324.5 262.8C1325.2 262.1 1326.2 262.1 1326.9 262.8L1348 283.9C1348.7 284.6 1348.7 285.6 1348 286.3C1347.3 287 1346.2 287 1345.6 286.3Z" fill="#E30313" />
						<g >
							<path d="M1344.8 283H1290.2C1287.9 283 1286.3 285.2 1286.9 287.6L1292.8 311.1C1293.2 312.7 1294.7 313.9 1296.3 313.9H1339.5C1341.2 313.9 1342.7 312.7 1343 311L1348.1 287.5C1348.7 285.1 1347.1 283 1344.8 283ZM1299.6 309C1299 309 1298.4 308.6 1298.2 308L1294.3 291.6C1294.1 290.8 1294.6 290.2 1295.4 290.2C1296.2 290.2 1296.9 290.9 1297.1 291.6L1300.6 308C1300.7 308.6 1300.3 309 1299.6 309ZM1306.8 309C1306.2 309 1305.6 308.6 1305.5 308L1303.1 291.6C1303 290.8 1303.5 290.2 1304.3 290.2C1305.1 290.2 1305.8 290.9 1305.9 291.6L1307.9 308C1307.9 308.6 1307.4 309 1306.8 309ZM1314 309C1313.4 309 1312.8 308.6 1312.8 308L1311.8 291.6C1311.8 290.8 1312.3 290.2 1313.1 290.2C1313.9 290.2 1314.5 290.9 1314.5 291.6L1315 308C1315.1 308.6 1314.6 309 1314 309ZM1322.4 308.1C1322.4 308.6 1321.8 309.1 1321.2 309.1C1320.6 309.1 1320.1 308.7 1320.1 308.1L1320.6 291.7C1320.6 290.9 1321.3 290.3 1322 290.3C1322.8 290.3 1323.4 291 1323.3 291.7L1322.4 308.1ZM1329.6 308.1C1329.5 308.6 1328.9 309.1 1328.3 309.1C1327.7 309.1 1327.2 308.7 1327.3 308.1L1329.3 291.7C1329.4 290.9 1330.1 290.3 1330.9 290.3C1331.7 290.3 1332.2 291 1332.1 291.7L1329.6 308.1ZM1340.8 291.7L1336.9 308.1C1336.8 308.6 1336.2 309.1 1335.5 309.1C1334.9 309.1 1334.5 308.7 1334.6 308.1L1338.1 291.7C1338.3 290.9 1339 290.3 1339.8 290.3C1340.6 290.3 1341 290.9 1340.8 291.7Z" fill="#E30313" />
							<path d="M1345.2 301.1L1338.9 299.9L1336.9 308.1C1336.8 308.6 1336.2 309.1 1335.5 309.1C1334.9 309.1 1334.5 308.7 1334.6 308.1L1336.4 299.5L1331 298.5L1329.6 308.1C1329.5 308.6 1328.9 309.1 1328.3 309.1C1327.7 309.1 1327.2 308.7 1327.3 308.1L1328.5 298L1323 297L1322.3 308.1C1322.3 308.6 1321.7 309.1 1321.1 309.1C1320.5 309.1 1320 308.7 1320 308.1L1320.4 296.5L1314.7 295.4L1315.1 308.1C1315.1 308.6 1314.6 309.1 1314 309.1C1313.4 309.1 1312.8 308.7 1312.8 308.1L1312 294.9L1306.1 293.8L1307.8 308.1C1307.9 308.6 1307.4 309.1 1306.8 309.1C1306.2 309.1 1305.6 308.7 1305.5 308.1L1303.3 293.2L1297.2 292L1300.6 308C1300.7 308.5 1300.3 309 1299.7 309C1299.1 309 1298.5 308.6 1298.3 308L1294.4 291.6C1294.4 291.5 1294.4 291.5 1294.4 291.4L1287.7 290.1L1293.5 312.2C1294.2 313.1 1295.2 313.7 1296.4 313.7H1339.6C1340.4 313.7 1341.2 313.4 1341.8 312.9L1345.2 301.1Z" fill="#AD1917" />
						</g>
					</g>
					<g >
						<g >
							<path d="M1317.7 305.201L1289.9 316.001C1289 316.301 1288 315.901 1287.7 315.001C1287.4 314.101 1287.8 313.101 1288.7 312.801L1316.5 302.001C1317.4 301.701 1318.4 302.101 1318.7 303.001C1319 303.901 1318.6 304.901 1317.7 305.201Z" fill="#E30313" />
							<path d="M1345.6 315.8L1324.5 294.7C1323.8 294 1323.8 293 1324.5 292.3C1325.2 291.6 1326.2 291.6 1326.9 292.3L1348 313.4C1348.7 314.1 1348.7 315.1 1348 315.8C1347.3 316.5 1346.2 316.5 1345.6 315.8Z" fill="#E30313" />
							<g >
								<path d="M1339.5 343.3H1296.3C1294.7 343.3 1293.2 342.1 1292.8 340.5L1287 317C1286.4 314.6 1288 312.4 1290.3 312.4H1344.9C1347.2 312.4 1348.7 314.5 1348.2 316.9L1343.1 340.4C1342.7 342.1 1341.2 343.3 1339.5 343.3Z" fill="#E30313" />
								<g >
									<path d="M1314 338.5C1313.4 338.5 1312.8 338.1 1312.8 337.5L1311.8 321.1C1311.8 320.3 1312.3 319.7 1313.1 319.7C1313.9 319.7 1314.5 320.4 1314.5 321.1L1315 337.5C1315.1 338.1 1314.6 338.5 1314 338.5Z" fill="#DFE1E8" />
									<path d="M1299.6 338.5C1299 338.5 1298.4 338.1 1298.2 337.5L1294.3 321.1C1294.1 320.3 1294.6 319.7 1295.4 319.7C1296.2 319.7 1296.9 320.4 1297.1 321.1L1300.6 337.5C1300.7 338.1 1300.3 338.5 1299.6 338.5Z" fill="#DFE1E8" />
									<path d="M1306.8 338.5C1306.2 338.5 1305.6 338.1 1305.5 337.5L1303.1 321.1C1303 320.3 1303.5 319.7 1304.3 319.7C1305.1 319.7 1305.8 320.4 1305.9 321.1L1307.9 337.5C1307.9 338.1 1307.4 338.5 1306.8 338.5Z" fill="#DFE1E8" />
									<path d="M1321.2 338.5C1320.6 338.5 1320.1 338.1 1320.1 337.5L1320.6 321.1C1320.6 320.3 1321.3 319.7 1322 319.7C1322.8 319.7 1323.4 320.4 1323.3 321.1L1322.3 337.5C1322.3 338.1 1321.8 338.5 1321.2 338.5Z" fill="#DFE1E8" />
									<path d="M1328.4 338.5C1327.8 338.5 1327.3 338.1 1327.4 337.5L1329.4 321.1C1329.5 320.3 1330.2 319.7 1331 319.7C1331.8 319.7 1332.3 320.4 1332.2 321.1L1329.8 337.5C1329.6 338.1 1329 338.5 1328.4 338.5Z" fill="#DFE1E8" />
									<path d="M1335.5 338.5C1334.9 338.5 1334.5 338.1 1334.6 337.5L1338.1 321.1C1338.3 320.3 1339 319.7 1339.8 319.7C1340.6 319.7 1341 320.4 1340.9 321.1L1337 337.5C1336.8 338.1 1336.2 338.5 1335.5 338.5Z" fill="#DFE1E8" />
								</g>
							</g>
						</g>
						<path d="M1343.3 346.601H1292.9C1291.8 346.601 1291 345.701 1291 344.701C1291 343.601 1291.9 342.801 1292.9 342.801H1343.3C1344.4 342.801 1345.2 343.701 1345.2 344.701C1345.2 345.701 1344.3 346.601 1343.3 346.601Z" fill="#701745" />
						<g >
							<path d="M1297.4 354.001C1299.44 354.001 1301.1 352.344 1301.1 350.301C1301.1 348.257 1299.44 346.601 1297.4 346.601C1295.36 346.601 1293.7 348.257 1293.7 350.301C1293.7 352.344 1295.36 354.001 1297.4 354.001Z" fill="#1F1341" />
							<path d="M1338.8 354.001C1340.84 354.001 1342.5 352.344 1342.5 350.301C1342.5 348.257 1340.84 346.601 1338.8 346.601C1336.76 346.601 1335.1 348.257 1335.1 350.301C1335.1 352.344 1336.76 354.001 1338.8 354.001Z" fill="#1F1341" />
						</g>
					</g>
				</g>
			</g>
			<g >
				<g >
					<g >
						<path d="M1138.9 352.8L1146.1 264.8C1146.6 258.1 1152.3 252.9 1159 252.9H1207.7L1216.5 191.4L1230 195.1C1242.8 198.7 1251.6 210.3 1251.6 223.6V352.8H1138.9Z" fill="#B9C0D5" />
						<path d="M1231.5 191.4H1195.2L1186.4 252.9H1137.7C1131 252.9 1125.3 258.1 1124.8 264.8L1117.6 352.8H1230.2V262.8L1231.4 265.2V191.4H1231.5Z" fill="#888FA6" />
						<path d="M1203.4 256.6V226.7H1215V257.8L1203.4 256.6Z" fill="#76C8D8" />
						<path d="M1197.5 256.6V226.7H1209.2V257.8L1197.5 256.6Z" fill="#E9EBF2" />
						<path d="M1190 215.301L1189.1 220.201C1188.9 221.301 1189.7 222.301 1190.9 222.301H1206.4L1207.1 215.301" fill="#B9C0D5" />
						<path d="M1183.7 255.501C1183.7 255.501 1179.7 251.101 1179.7 247.501C1179.7 243.901 1183.3 244.4 1185.5 244.3C1187.7 244.2 1189.6 243.701 1190.4 246.001C1191.2 248.301 1191 254.701 1188.5 255.001C1186 255.301 1183.7 255.501 1183.7 255.501Z" fill="#A7D07D" />
						<path d="M1195.9 256C1195.9 256 1191.9 251.6 1191.9 248C1191.9 244.4 1195.5 244.9 1197.7 244.8C1199.9 244.6 1201.8 244.2 1202.6 246.5C1203.4 248.8 1203.2 255.2 1200.7 255.5C1198.2 255.8 1195.9 256 1195.9 256Z" fill="#A7D07D" />
						<path d="M1154 352.8L1161.2 264.8C1161.7 258.1 1167.4 252.9 1174.1 252.9H1222.8L1231.6 191.4L1245.1 195.1C1257.9 198.7 1266.7 210.3 1266.7 223.6V352.8H1154Z" fill="url(#paint0_linear_102_23517)" />
						<path d="M1122.9 289.2C1122.9 289.2 1129.2 295.9 1138.9 295.9C1148.6 295.9 1159.1 290.5 1159.1 290.5L1154 352.8H1117.7L1122.9 289.2Z" fill="#A2AFF9" />
						<path d="M1213.8 297.301H1179.5V352.801H1213.8V297.301Z" fill="#A2AFF9" />
						<path d="M1279.2 297.301H1214.4V352.801H1279.2V297.301Z" fill="url(#paint1_linear_102_23517)" />
						<path d="M1118.9 338.4H1279.1V327.7H1119.7L1118.9 338.4Z" fill="#E30313" />
						<path d="M1279.2 327.7H1213.8V338.4H1279.2V327.7Z" fill="#AD1917" />
						<path d="M1156 327.7L1155.2 338.4H1179.5V327.7H1156Z" fill="#AD1917" />
						<path d="M1279.1 297.301H1179.5V300.301H1279.1V297.301Z" fill="#1F1341" />
						<g >
							<path d="M1216.6 216.1H1178.1C1175.2 216.1 1172.9 213.8 1172.9 210.9L1176.4 182.6C1176.4 179.7 1178.7 177.4 1181.6 177.4H1220.1C1223 177.4 1225.3 179.7 1225.3 182.6L1221.8 210.9C1221.8 213.8 1219.4 216.1 1216.6 216.1Z" fill="#1F1341" />
							<path d="M1214.2 216.1H1175.7C1172.8 216.1 1170.5 213.8 1170.5 210.9L1174 182.6C1174 179.7 1176.3 177.4 1179.2 177.4H1217.7C1220.6 177.4 1222.9 179.7 1222.9 182.6L1219.4 210.9C1219.4 213.8 1217.1 216.1 1214.2 216.1Z" fill="#B9C0D5" />
							<path d="M1212.2 212.9H1177.7C1175.3 212.9 1173.4 211 1173.4 208.6L1176.3 185C1176.3 182.6 1178.2 180.7 1180.6 180.7H1215.1C1217.5 180.7 1219.4 182.6 1219.4 185L1216.5 208.6C1216.6 211 1214.6 212.9 1212.2 212.9Z" fill="white" />
							<path d="M1211.4 206.8H1200.6C1200.2 206.8 1199.8 206.5 1199.8 206L1200.3 201.8C1200.3 201.4 1200.6 201 1201.1 201H1211.9C1212.3 201 1212.7 201.3 1212.7 201.8L1212.2 206C1212.2 206.5 1211.9 206.8 1211.4 206.8Z" fill="#E30313" />
							<path d="M1212.1 198.401H1201.3C1200.9 198.401 1200.5 198.101 1200.5 197.601L1201 193.401C1201 193.001 1201.3 192.601 1201.8 192.601H1212.6C1213 192.601 1213.4 192.901 1213.4 193.401L1212.9 197.601C1212.9 198.101 1212.5 198.401 1212.1 198.401Z" fill="#E30313" />
						</g>
					</g>
					<path d="M1213.8 297.301H1179.5V300.301H1213.8V297.301Z" fill="#888FA6" />
				</g>
				<path d="M1177.5 247.601H1157.1V253.001H1177.5V247.601Z" fill="#D1B477" />
				<path d="M1170.3 247.601H1149.9V253.001H1170.3V247.601Z" fill="#FEDA8C" />
			</g>
			<g >
				<path d="M1060 329.5L1056.9 333.6C1056.2 334.5 1056.4 335.8 1057.3 336.5L1068.8 345.4C1069.5 346 1070.6 345.4 1070.4 344.5C1070.3 343.6 1068.9 340.6 1067.8 338.7C1065.4 334.5 1063.8 333.1 1063.8 333.1L1060 329.5Z" fill="#1F1341" />
				<g >
					<g >
						<path d="M1085 244.1C1085 244.1 1083.6 282.3 1081.4 290.6C1080 295.7 1074.5 293.4 1058.8 330.3L1065.9 335.6C1065.9 335.6 1100.7 298.4 1101.9 295.5C1103.1 292.7 1101.9 253.3 1101.9 253.3" fill="#76C8D8" />
						<path d="M1084.7 237.899L1083.6 270.699C1083.6 270.699 1090.8 282.199 1090.8 289.199C1090.8 296.199 1087.5 305.699 1084.5 310.099C1081.5 314.599 1063.4 333.699 1063.4 333.699L1065.9 335.599C1065.9 335.599 1102.3 299.899 1103.6 294.199C1104.9 288.399 1104.3 252.199 1104.3 252.199" fill="#30ADBA" />
						<path d="M1104.2 344.899L1104.1 349.999C1104.1 351.099 1105 352.099 1106.1 352.099L1120.7 352.299C1121.6 352.299 1122.1 351.199 1121.4 350.599C1120.8 349.899 1117.9 348.399 1115.8 347.499C1111.4 345.599 1109.3 345.399 1109.3 345.399L1104.2 344.899Z" fill="#1F1341" />
						<path d="M1088.9 241.899C1088.9 241.899 1098.5 282.299 1097.2 293.399C1095.7 306.399 1104.3 346.899 1104.3 346.899H1112.2C1112.2 346.899 1121.1 253.699 1117 244.699C1113.1 235.599 1088.9 241.899 1088.9 241.899Z" fill="#76C8D8" />
						<path d="M1117.1 175.1C1117.1 175.1 1105.4 169.2 1095.7 184C1086 198.8 1080 247.8 1080 247.8C1080 247.8 1105.4 253.6 1120.7 253.3C1120.7 253.3 1131.1 212.2 1127.9 192.7C1124.8 173.2 1117.1 175.1 1117.1 175.1Z" fill="#842857" />
						<path d="M1128.3 195.599L1128.2 195.199C1128.2 195.199 1124.5 214.499 1119.5 225.599C1114 237.899 1100.8 251.599 1100.8 251.599C1107.6 252.599 1114.9 253.399 1120.8 253.199C1120.7 253.299 1130.1 215.999 1128.3 195.599Z" fill="#5C0A34" />
					</g>
					<path d="M1159.1 235.8C1159.1 235.8 1155.1 231.4 1155.1 227.8C1155.1 224.2 1158.7 224.7 1160.9 224.6C1163.1 224.4 1165 224 1165.8 226.3C1166.6 228.6 1166.4 235 1163.9 235.3C1161.4 235.6 1159.1 235.8 1159.1 235.8Z" fill="#A7D07D" />
					<g >
						<path d="M1159 232.099C1160.2 231.799 1161.8 231.299 1163 230.699C1164.1 230.099 1164.1 228.699 1162.8 228.899C1161.5 229.099 1158.2 229.899 1156.5 230.499" fill="#F7B29A" />
						<g >
							<path d="M1149.9 231.199C1151.9 231.099 1157.5 230.199 1158.9 230.099C1160.2 229.999 1160.9 232.199 1161.9 234.299C1162.7 236.099 1161.8 237.599 1159.8 237.899C1158.4 238.099 1152 238.199 1149.7 238.299" fill="#F7B29A" />
							<path d="M1158.6 238.099C1160.6 238.199 1162.6 237.299 1163.3 236.799C1164 236.299 1165.8 234.699 1165.3 233.999C1164.9 233.499 1164.1 233.499 1163.6 234.199C1163.1 234.699 1162.4 235.199 1161.6 235.299" fill="#F7B29A" />
							<path d="M1160.8 236.199C1162.4 235.999 1164.4 235.699 1165.1 235.299C1165.8 234.899 1166.9 233.199 1166.3 232.499C1165.8 231.999 1165.3 232.499 1164.9 232.999C1164.4 233.499 1164.1 233.799 1163.3 233.899C1162.5 233.999 1162 233.899 1160.7 233.799" fill="#F7B29A" />
							<path d="M1161.2 234.299C1162.8 234.299 1165.3 233.999 1166.1 233.699C1166.9 233.399 1168.5 232.499 1168 231.799C1167.7 231.299 1166.9 231.499 1166.2 231.599C1164.7 231.799 1161.7 231.799 1160 231.599" fill="#F7B29A" />
						</g>
					</g>
					<path d="M1104.4 185.6C1104.4 185.6 1097.6 190.1 1099 201.7C1100.6 215.2 1104.5 231.8 1110.9 235.7C1119.2 240.7 1150.3 239.1 1150.3 239.1L1151.3 231.2C1151.3 231.2 1134.2 223.5 1124.8 220.4C1122.6 219.7 1121.4 218.3 1120.5 216.1L1116 193.7" fill="#842857" />
					<path d="M1115.9 232.1C1112.3 230 1110.3 225.7 1107.4 216.6C1104 205.9 1103.2 191.5 1104.8 185.8L1104.5 185.6C1104.5 185.6 1097.7 190.1 1099.1 201.7C1100.7 215.2 1104.6 231.8 1111 235.7C1119.3 240.7 1150.4 239.1 1150.4 239.1L1150.8 236C1146.3 235.8 1119.2 234 1115.9 232.1Z" fill="#5C0A34" />
					<path d="M1117.8 206.3L1120.4 216.2C1120.4 216.2 1121.2 205.8 1120.4 202.9C1119.6 200 1116.9 198.8 1116.9 198.8L1117.8 206.3Z" fill="#5C0A34" />
					<path d="M1123.2 176.6L1124.7 174.9C1124.7 174.9 1127.1 176.9 1128.5 176.6C1129.9 176.2 1140 167.8 1140 161.6C1140 153.6 1129.7 153.3 1129.7 153.3C1129.7 153.3 1121.4 158.8 1120.8 168.1L1115.6 173.1" fill="#F7B29A" />
					<path d="M1137.1 163.4L1128.5 166.2C1128.5 166.2 1128.1 163.9 1126.9 164.1C1125.7 164.2 1125.8 167.4 1125.8 167.4C1125.8 167.4 1124.2 169.4 1122.9 169.4C1121.6 169.4 1120.7 168.1 1120.7 168.1C1120.7 168.1 1118.5 163.6 1123 158.5C1127.5 153.4 1131.6 154.2 1131.6 154.2" fill="#B9C0D5" />
					<path d="M1128.6 164.399C1128.6 164.399 1125.6 170.899 1125.6 172.699C1125.6 174.499 1126.2 176.999 1128.5 177.499C1130.8 177.999 1131.9 174.099 1131.9 174.099C1128.4 173.099 1128.2 169.399 1129.6 167.399C1130.9 165.499 1136.7 164.399 1136.7 164.399L1133 161.399" fill="#B9C0D5" />
					<path d="M1115.9 170.9C1115.9 170.9 1118.7 167.2 1119.7 167.7C1120.7 168.2 1126.1 173.3 1126.8 175.2C1127.5 177.1 1125.6 182.6 1125.6 182.6" fill="#1F1341" />
					<path d="M1109.4 175.4C1109.4 175.4 1112.8 167.8 1115.9 168.2C1119 168.6 1125 176 1126.7 181.7C1128.3 187.4 1126 192.6 1126 192.6" fill="#842857" />
					<path d="M1125.1 152.8C1123.5 154.1 1123.7 156.6 1125.4 157.9C1129.2 160.7 1137.4 166.6 1140 166.8C1143.4 167.1 1141.6 165.1 1141.8 164.4C1142.1 163.8 1140.5 165 1140.5 165C1140.5 165 1145.5 164.3 1146.8 162.8C1147.7 161.7 1142.5 158.3 1137.4 155.2C1135.1 153.8 1131.5 151.8 1128.9 151.9C1127.4 151.8 1126.2 151.8 1125.1 152.8Z" fill="#1F1341" />
					<path d="M1125.4 168.499C1125.4 168.499 1124.1 164.999 1126.2 163.699C1128.3 162.399 1128.5 166.999 1128.5 166.999" fill="#F7B29A" />
				</g>
			</g>
		</g>
		<g class="svgIcon svgIcon3">
			<g >
				<g >
					<path d="M789.8 233H979.4C981.3 233 982.8 231.5 982.8 229.6V97.4C982.8 95.5 981.3 94 979.4 94H789.8C787.9 94 786.4 95.5 786.4 97.4V229.6C786.3 231.5 787.9 233 789.8 233Z" fill="#E9EBF2" />
					<path d="M942.4 160.9H884.6V171.6H942.4V160.9Z" fill="#B9C0D5" />
					<path d="M789.8 233H979.4C981.3 233 982.8 231.5 982.8 229.6V97.4C982.8 95.5 981.3 94 979.4 94H789.8C787.9 94 786.4 95.5 786.4 97.4V229.6C786.3 231.5 787.9 233 789.8 233Z" stroke="#B9C0D5" stroke-width="2.1798" stroke-miterlimit="10" />
				</g>
				<g >
					<path d="M897.2 137.6H883.9V151.4H897.2V137.6Z" fill="#A7D07D" />
					<path d="M919.8 109H906.5V151.3H919.8V109Z" fill="#E16056" />
					<path d="M942.4 123.8H929.1V151.3H942.4V123.8Z" fill="#7F5DA4" />
				</g>
				<g >
					<path d="M839.9 167.6C856.026 167.6 869.1 154.527 869.1 138.4C869.1 122.273 856.026 109.2 839.9 109.2C823.773 109.2 810.7 122.273 810.7 138.4C810.7 154.527 823.773 167.6 839.9 167.6Z" fill="#E16056" />
					<path d="M855.7 113.9L850.8 116.7L839.9 138.4L860 159.5C865.6 154.2 869.1 146.7 869.1 138.4C869 128.2 863.7 119.1 855.7 113.9Z" fill="#7F5DA4" />
					<path d="M859.3 116.7C854.1 112.1 847.3 109.3 839.9 109.3V138.5L859.3 116.7Z" fill="#A7D07D" />
				</g>
				<g >
					<path d="M786.5 366.3V373.1C786.5 374.6 787.7 375.8 789.2 375.8H808.4C809.6 375.8 810.2 374.3 809.3 373.5C808.4 372.6 804.6 370.7 801.9 369.5C796 367.1 793.2 366.9 793.2 366.9L786.5 366.3Z" fill="#1F1341" />
					<path d="M740.8 375.8H751.2C752.9 375.8 753.9 374.1 753.2 372.6C752.2 370.7 750.5 368.5 747.6 368.1C742.2 367.4 739.3 368.4 739.2 371C739.2 372.4 739.2 373 739.2 374.2C739.1 375.1 739.9 375.8 740.8 375.8Z" fill="#1F1341" />
					<path d="M757.3 277.399L785.8 368.099H798.3C798.3 368.099 780.5 243.299 769.3 229.899C758.1 216.499 748.4 232.599 748.4 232.599L755.2 266.699L757.3 277.399Z" fill="#E30313" />
					<path d="M763.8 298C763.8 298 767.3 257.9 758.2 259C749.1 260.1 754.6 272.2 754.6 272.2L763.8 298Z" fill="#AD1917" />
					<g >
						<path d="M742.2 223.699C742.2 223.699 729.4 234.299 730.9 284.799C731 287.499 732.6 303.699 732.7 306.299C734.7 351.999 739 368.999 739 368.999H750.7C750.7 368.999 754.8 261.499 765.5 246.899" fill="#E30313" />
					</g>
					<path d="M739 228.199C735.3 234.999 729.9 250.999 730.9 284.799C731 287.499 732.6 303.699 732.7 306.299C733.3 320.299 734.2 331.699 735 340.599C735.1 330.899 735.3 299.099 735 282.499C734.7 262.799 742.4 229.899 742.4 229.899L739 228.199Z" fill="#990D0D" />
					<path d="M856.8 176C859.1 174.6 860.7 172 861.1 171C861.5 170 862.3 166.8 861.2 166.3C860.4 166 859.5 166.7 859.4 167.9C859.3 168.8 858.7 171.1 854.8 173.8" fill="#E29882" />
					<g >
						<g >
							<path d="M860 173.599C860 173.599 865.1 167.799 865.2 167.299C865.3 166.599 863.699 165.899 862.299 167.399C860.899 168.899 857 172.199 857 172.199" fill="#E29882" />
							<path d="M848.7 174.2C848.7 174.2 849 173.9 851.8 172.6C854.5 171.4 856.6 170.099 857.6 168.799C858.1 168.099 857.8 167.8 857.5 167.6C856.4 166.9 852.7 168.9 850.7 169.6C848.3 170.4 846.5 171.2 845.1 171.7C843.7 172.2 842.6 172.799 842.6 172.799V178.299C842.6 178.299 853.9 177.7 854.9 177.4C856.3 176.8 860.1 174.6 863.2 172.2C865.1 170.7 867 169.299 867 168.799C867 168.199 866.4 167.9 865.6 168C864.6 168.1 863 168.899 862.2 169.299C860.8 170.099 856.5 172.4 855.7 172.4C854.9 172.4 852.4 171 852.4 171" fill="#F7B29A" />
						</g>
						<path d="M836.4 179.6C836.4 179.6 839.6 174.1 842.2 172.9C843.6 172.3 846.7 171.1 846.7 171.1L848.7 177.8L844.5 178.8C843.3 179.1 842.2 179.7 841.3 180.6L840.2 181.7" fill="#F7B29A" />
					</g>
					<g >
						<path d="M782 192.999C782 192.999 801.3 211.199 812 211.199C820.6 211.199 846.9 178.899 846.9 178.899L840.2 172.899L814.2 188.699C812.9 189.699 811.2 189.499 810.1 188.299C806.7 184.499 793.7 171.099 787.6 168.199" fill="#A7D07D" />
						<path d="M812.2 205.499C805.7 205.499 794.8 198.399 789.5 194.599C788 193.499 785.9 194.299 785.5 196.099C791.6 201.299 804.1 211.099 812 211.099C820.6 211.099 846.9 178.799 846.9 178.799L845.2 177.299C845.2 177.299 821 205.499 812.2 205.499Z" fill="#61A61C" />
					</g>
					<path d="M787.6 168.299C787.6 168.299 750.6 155.499 734.5 162.399C718.4 169.399 732.8 231.999 732.8 231.999C732.8 231.999 755.5 233.499 773.7 231.599C773.7 231.599 777.4 218.799 778.7 198.799C779.5 185.899 790.2 174.599 787.6 168.299Z" fill="#A7D07D" />
					<path d="M736.4 185.8C736.4 185.8 736 180.1 728.8 189.1C726.6 191.8 726.2 196.8 726.5 202.5C728.9 218.1 732.8 232 732.8 232C732.8 232 755.5 233.5 773.7 231.6C751.6 229.6 736.4 185.8 736.4 185.8Z" fill="#61A61C" />
					<g >
						<path d="M750.1 148.6L753.6 161.2C753.6 161.2 758.4 165.6 764.8 162.1L763.4 152.1" fill="#F7B29A" />
						<path d="M755.5 153.499C755.5 153.499 756.1 157.399 764.1 157.399L763.1 146.699L755.5 153.499Z" fill="#D48068" />
						<path d="M763.2 130.5C763.2 130.5 766.9 138.8 761 138C755.1 137.2 755.9 130.5 755.9 130.5" fill="#F07F35" />
						<path d="M759.8 131.599C759.8 131.599 763.7 135.299 765.4 142.799C767.1 150.299 766.6 155.699 760.9 155.699C756.2 155.699 754.8 155.399 750.9 151.699C747 147.999 744.1 133.799 751.6 130.899C759.2 128.099 759.8 131.599 759.8 131.599Z" fill="#F7B29A" />
						<path d="M755.5 125.2C755.5 125.2 757.8 121.1 763.6 121.1C770.3 121.1 770.1 133.1 761.1 133.1C761.1 133.1 754.1 133.4 751.7 137.5C750.8 139 752.8 141.8 752.6 144C752.5 144.9 751.6 146 751.4 146.8C750.7 149.7 750.9 151.7 750.9 151.7L747.2 149.4C744.7 147.8 742.6 145.6 741.2 143C741.2 143 741.2 142.9 741.1 142.9C739.2 139.2 743.9 137.4 743.9 137.4C743.9 137.4 739.5 134.7 741.5 129.9C743.5 125.1 747.2 123.4 751.2 123.7C753.8 123.8 755.5 125.2 755.5 125.2Z" fill="#F07F35" />
						<path d="M751.9 145.6C751.9 145.6 748.5 142.8 747.4 144.7C746.3 146.6 748.4 150 752.7 149.1" fill="#F7B29A" />
						<path d="M759.4 149.299L764.1 147.899C764.1 147.899 764.6 150.199 762.9 150.799C761.1 151.399 759.4 149.299 759.4 149.299Z" fill="white" />
					</g>
					<path d="M761.5 212C763.2 211.6 765.3 211 767 210.1C768.5 209.3 768.5 207.4 766.7 207.6C764.9 207.8 760.5 208.9 758.1 209.8" fill="#F7B29A" />
					<path d="M788.3 224.6H765.9C763.4 224.6 761.7 222.6 762.2 220.1L768.2 185.8C768.6 183.3 771 181.3 773.5 181.3H795.9C798.4 181.3 800.1 183.3 799.6 185.8L793.6 220.1C793.2 222.6 790.8 224.6 788.3 224.6Z" fill="#888FA6" />
					<g >
						<path d="M751.5 210.799C754.2 210.699 759.5 209.399 761.4 209.299C763.2 209.199 764.1 212.199 765.4 215.099C766.5 217.599 765.3 219.599 762.5 219.999C760.5 220.299 751.8 220.399 748.8 220.499" fill="#F7B29A" />
						<path d="M761 220.099C763.7 220.199 766.4 218.999 767.4 218.399C768.4 217.799 770.7 215.499 770.1 214.599C769.6 213.899 768.5 213.999 767.7 214.899C767.1 215.599 766.1 216.299 765 216.299" fill="#F7B29A" />
						<path d="M764 217.599C766.2 217.299 768.9 216.899 769.9 216.299C770.9 215.699 772.3 213.399 771.5 212.499C770.8 211.799 770.1 212.499 769.5 213.199C768.9 213.899 768.4 214.299 767.4 214.399C766.3 214.399 765.6 214.399 763.8 214.299" fill="#F7B29A" />
						<path d="M764.5 214.999C766.7 214.999 770.1 214.599 771.1 214.099C772.1 213.599 774.3 212.499 773.7 211.599C773.3 210.999 772.2 211.199 771.3 211.299C769.2 211.599 765.1 211.599 762.9 211.299" fill="#F7B29A" />
					</g>
					<path d="M739.6 179.3C731.8 195.6 728.5 204.7 728.5 204.7C728.5 204.7 739.8 208.2 752.5 210.5V220.9C743.3 221.8 722.4 224.8 708.2 219.1C704.9 217.8 702 214.7 709.9 197.7C717.8 180.7 731.5 164.8 731.5 164.8" fill="#A7D07D" />
					<path d="M737.4 219.3C730.7 219.5 709.1 218.6 707.7 213.3C706.3 208 701.5 217.7 704.7 219C718.9 224.7 743.3 222 752.5 221.1V217.4C750.7 217.7 743.3 219.1 737.4 219.3Z" fill="#61A61C" />
					<path d="M762.1 262.3L775.3 304.2C778.2 313.6 780.3 323.2 781.5 333L785.8 368.2L761 290.2" fill="#AD1917" />
				</g>
				<g >
					<path d="M961.8 179.2C961.8 179.2 959.4 178.4 958.3 177.9C957.4 177.5 957.1 178.9 958.1 180.1C959.1 181.3 967.8 186.8 968.6 187.2C969.4 187.6 971.7 188 971.7 188L973.2 187.9L976.8 182.5C976.8 182.5 971.1 177.6 968.7 174.5C966.3 171.4 964.7 170 963.9 169.7C963.1 169.4 962.3 169.8 962.3 169.8C962.3 169.8 961.2 168.5 960.8 168C960.3 167.4 959.7 167.3 959.3 167.4C958.9 167.5 958.8 167.5 958.8 167.5C958.8 167.5 957.9 166.7 956.8 167.1C955.1 167.6 962 178.8 962 178.8" fill="#F7B29A" />
					<g >
						<path d="M961.8 178L961.5 179.3L963 180L962.199 178" fill="#F7B29A" />
					</g>
				</g>
				<g >
					<path d="M1028.1 192.1L1007 203.5L975.1 179.5L967.9 186.9C967.9 186.9 985.6 212.3 1002.2 222.1C1004.6 223.5 1007.1 224.9 1009.9 224.5C1020.1 222.7 1025.6 211 1035.5 191.4" fill="#FEDA8C" />
					<path d="M1002.2 222.2C1004.6 223.6 1007.1 225 1009.9 224.6C1017.7 223.2 1003.3 217.7 1015 207.3C1011.2 208.4 1023 205.3 1020 207.2C1014.5 210.9 1017.2 211.8 1011.5 211.3C1005.8 210.8 1002.6 211.5 991.3 205.3C978.1 198.1 970.9 183.8 970.9 183.8L967.9 186.9C967.9 187 985.6 212.4 1002.2 222.2Z" fill="#DEA62C" />
				</g>
				<g >
					<path d="M1013.6 150C1013.6 150 1018.7 158.6 1011.9 165.4C1005.1 172.2 1000.3 166.2 998.5 162.2C996.8 158.2 998.5 150 998.5 150" fill="#1F1341" />
					<path d="M1003.2 167.001C1003.2 167.001 992.4 182.101 990.6 188.901C989.1 194.401 997.6 210.501 996.2 224.601C995.2 234.801 996.1 300.301 996.1 300.301C996.1 300.301 1015.9 295.201 1027.8 282.501C1027.8 282.501 1037.5 265.601 1036.1 248.201C1034.7 230.901 1024.1 224.601 1026.5 208.701C1028.9 192.801 1042.4 174.801 1033.7 165.301C1025 155.701 1008.7 157.301 1003.2 167.001Z" fill="#FEDA8C" />
					<g >
						<path d="M996.1 286.8L999.8 370.3L1007.4 370.5C1007.4 370.5 1013.7 340.8 1014.6 333.6C1015.5 326.4 1015.1 315 1014.4 310.4C1013.7 305.9 1014.4 285.8 1014.4 285.8" fill="#F7B29A" />
						<path d="M1003 299.399C1003 299.399 1010.4 310.699 1010.1 330.699C1009.9 346.499 1008.8 363.999 1008.8 363.999C1010.7 354.899 1014 338.699 1014.6 333.499C1015.5 326.199 1015.1 314.899 1014.4 310.299C1014 307.699 1014.1 299.999 1014.2 293.899L1003 299.399Z" fill="#D48068" />
						<g >
							<path d="M1007.5 370.299V373.699C1007.5 374.999 1006.4 376.099 1005.1 376.099H984.1C983 376.099 982.5 374.699 983.4 373.999C984.2 373.399 985.2 372.699 986.6 372.099C990.7 370.199 1000.4 366.499 1000.4 366.499L1007.5 370.299Z" fill="#1F1341" />
							<path d="M989.8 370.599C991 371.399 992.6 372.299 994.1 372.299C996.9 372.399 1007.5 370.199 1007.5 370.199L1000.3 366.399C1000.3 366.499 994.4 368.699 989.8 370.599Z" fill="#F7B29A" />
						</g>
					</g>
					<g >
						<path d="M1004.9 292.4L1044.5 366L1051.4 362.9C1051.4 362.9 1044.1 333.5 1041.8 326.5C1039.5 319.6 1034.2 309.5 1031.6 305.7C1029 301.9 1020.9 283.5 1020.9 283.5" fill="#F7B29A" />
						<path d="M1014.1 301.4L1030.3 303.5L1028.1 299.3L1014.1 301.4Z" fill="#D48068" />
						<g >
							<path d="M1051.4 362.7L1052.9 365.7C1053.5 366.9 1053 368.3 1051.8 368.9L1032.9 378C1031.9 378.5 1030.9 377.4 1031.3 376.5C1031.7 375.6 1032.4 374.6 1033.3 373.4C1036.2 369.9 1043.3 362.4 1043.3 362.4L1051.4 362.7Z" fill="#1F1341" />
							<path d="M1035.7 370.7C1037.1 370.9 1039 371 1040.3 370.4C1042.9 369.3 1051.4 362.7 1051.4 362.7L1043.3 362.4C1043.3 362.4 1038.9 367 1035.7 370.7Z" fill="#F7B29A" />
						</g>
					</g>
					<g >
						<path d="M1024.4 211.8C1021.2 213.5 1026.7 218.5 1018 219.2C1005.9 220.1 996.4 222.2 996.4 222.2L995.3 230.2C993.9 248.5 996.1 300.3 996.1 300.3C996.1 300.3 1018.7 302.8 1030.4 300.6C1030.4 300.6 1039 263.2 1037.6 245.8C1037 238.1 1026.7 216.9 1024.4 211.8Z" fill="#A2AFF9" />
					</g>
					<path d="M1037.6 245.8C1037 238.1 1026.6 216.9 1024.3 211.8C1021.1 213.5 1026.6 218.5 1017.9 219.2C1005.8 220.1 996.3 222.2 996.3 222.2L995.9 225.6V227.3C995.9 227.3 1011.8 226.9 1023.2 235.3C1034.5 243.7 1036.5 266.7 1036.5 266.9C1037.5 259 1038.1 251.4 1037.6 245.8Z" fill="#656DD6" />
					<path d="M994.8 210.501L996.9 211.001L1002.2 216.301L1016.3 211.501L1022.5 181.601C1022.5 181.601 1016.3 191.101 1005.3 194.401C994.3 197.701 990.6 188.901 990.6 188.901C989.7 192.301 993.1 201.701 994.8 210.501Z" fill="#DEA62C" />
					<g >
						<g >
							<path d="M957.7 206.199C956.2 205.499 954.2 204.499 952.8 203.299C951.5 202.199 951.9 200.399 953.5 200.999C955.2 201.599 959.3 203.499 961.3 204.699" fill="#F7B29A" />
							<path d="M934.2 217.8L953.3 219.1C955.4 219.2 956.9 217.6 956.7 215.5L951.3 186.6C951.1 184.5 949.2 182.6 947.1 182.5L928 181.2C925.9 181.1 924.4 182.7 924.6 184.8L930 213.7C930.2 215.8 932.1 217.6 934.2 217.8Z" fill="#888FA6" />
							<g >
								<path d="M967.5 206.899C964.9 206.299 960 203.899 958.3 203.499C956.5 203.099 955.1 205.699 953.3 208.299C951.7 210.499 952.5 212.699 955.1 213.599C957 214.199 965.3 216.099 968.2 216.799" fill="#F7B29A" />
								<path d="M956.7 214.099C954.1 213.699 951.7 211.999 950.9 211.199C950.1 210.399 948.2 207.799 949 206.999C949.6 206.399 950.6 206.699 951.2 207.699C951.7 208.499 952.5 209.299 953.5 209.599" fill="#F7B29A" />
								<path d="M954.3 210.999C952.3 210.299 949.7 209.399 948.9 208.599C948.1 207.799 947.1 205.299 948 204.599C948.8 203.999 949.3 204.799 949.8 205.599C950.3 206.399 950.6 206.899 951.6 207.199C952.6 207.499 953.3 207.599 955.1 207.799" fill="#F7B29A" />
								<path d="M954.2 208.499C952.1 208.099 948.9 206.999 948 206.399C947.1 205.799 945.2 204.199 946 203.399C946.5 202.899 947.5 203.299 948.4 203.599C950.4 204.299 954.3 205.099 956.5 205.199" fill="#F7B29A" />
							</g>
						</g>
						<path d="M1022.7 174.4L1006.3 206.5H965.7V216.8C965.7 216.8 997.1 227.8 1015.8 223.3C1018.6 222.6 1021.3 221.9 1023 219.6C1029.1 211.2 1042.6 189.4 1036.1 168.5" fill="#FEDA8C" />
						<path d="M1015.8 223.4C1018.6 222.7 1021.3 222 1023 219.7C1027.6 213.3 1036.6 199.2 1037.7 183.5C1035.8 187 1033.5 191.5 1032.7 195C1031.3 201.4 1022.5 214.4 1018 218.1C1013.6 221.7 1009.1 221.6 996.4 221.1C981.4 220.5 965.7 212.5 965.7 212.5V216.9C965.7 216.9 997.1 227.9 1015.8 223.4Z" fill="#D1B477" />
						<path d="M1022.7 174.4L1006.3 206.5H965.7V216.8C965.7 216.8 997.1 227.8 1015.8 223.3C1018.6 222.6 1021.3 221.9 1023 219.6C1029.1 211.2 1042.6 189.4 1036.1 168.5" fill="#FEDA8C" />
						<path d="M1015.8 223.4C1018.6 222.7 1021.3 222 1023 219.7C1027.6 213.3 1036.6 199.2 1037.7 183.5C1035.8 187 1033.5 191.5 1032.7 195C1031.3 201.4 1022.5 214.4 1018 218.1C1013.6 221.7 1009.1 221.6 996.4 221.1C981.4 220.5 965.7 212.5 965.7 212.5V216.9C965.7 216.9 997.1 227.9 1015.8 223.4Z" fill="#DEA62C" />
					</g>
					<path d="M1018.6 158.9L1005.3 174.6L1007.1 162.6C1007.1 162.6 1014.1 159.1 1018.6 158.9Z" fill="#F7B29A" />
					<g >
						<g >
							<path d="M990.4 131.3C990.4 131.3 990.5 135.5 993.1 142C995.6 148.5 998.5 156 1001.4 156.3C1003.7 156.5 1006.3 154.9 1006.3 154.9L1008.6 162.3L1018.7 158.8L1013.2 149.5L1014.6 143.5L1013.3 133.8L996.7 129.7" fill="#F7B29A" />
							<path d="M1013.6 150L1010 145.3C1010 145.3 1012.8 141.8 1011 139.5C1010.2 138.4 1008.6 139.5 1007.4 140.7C1006.6 141.5 1005.5 141.1 1004.9 140.1C1003.1 137.3 999.7 135.5 997.4 135.1C995.4 134.8 991.3 136.1 991.3 136.1C991.3 136.1 979.1 129.8 986.7 121.7C994.3 113.6 1005.4 125.2 1005.4 125.2C1005.4 125.2 1008.4 120.7 1013.7 121.6C1013.7 121.6 1018.6 122 1019.8 130C1021.4 140.7 1013.6 150 1013.6 150Z" fill="#1F1341" />
						</g>
						<path d="M1006.3 154.8L1009 153.3L1007.6 159.2L1006.3 154.8Z" fill="#D48068" />
					</g>
					<path d="M1009.9 145.4L1009.4 148.6C1007.8 158.1 1014.2 167.2 1023.7 168.7C1024.9 168.9 1026.1 169 1027.4 169C1040 169 1038.4 155.2 1034 151.5C1029.6 147.8 1023.8 142.8 1023.8 133.8C1023.8 123.6 1014.1 121.9 1014.1 121.9" fill="#1F1341" />
					<path d="M1006.7 141.9C1006.7 141.9 1007.2 138 1010.3 138.3C1013.4 138.5 1011.5 144.4 1009.2 145.5" fill="#F7B29A" />
				</g>
				<g >
					<path d="M850.7 194.7H839.9V205.5H850.7V194.7Z" fill="#E16056" />
					<path d="M884.299 205.526V194.726H873.499V205.526H884.299Z" fill="#A7D07D" />
					<path d="M917.95 205.574V194.774H907.15V205.574H917.95Z" fill="#7F5DA4" />
				</g>
				<path d="M997.5 149.7L1001.3 148.4C1001.3 148.4 1001.3 151.7 999.1 151.7C998.5 151.7 997.5 149.7 997.5 149.7Z" fill="white" />
			</g>
			<path d="M762.1 262.3L775.3 304.2C778.2 313.6 780.3 323.2 781.5 333L785.8 368.2L761 290.2" fill="#990D0D" />
		</g>
		<g class="svgIcon svgIcon2">
			<path d="M575.316 328.388C567.351 328.388 560.27 326.323 554.074 322.192C547.879 317.963 543.011 311.965 539.471 304.196C535.93 296.328 534.16 286.887 534.16 275.873C534.16 264.859 535.93 255.467 539.471 247.698C543.011 239.831 547.879 233.832 554.074 229.701C560.27 225.473 567.351 223.358 575.316 223.358C583.282 223.358 590.363 225.473 596.558 229.701C602.754 233.832 607.622 239.831 611.162 247.698C614.801 255.467 616.62 264.859 616.62 275.873C616.62 286.887 614.801 296.328 611.162 304.196C607.622 311.965 602.754 317.963 596.558 322.192C590.363 326.323 583.282 328.388 575.316 328.388ZM575.316 318.652C581.414 318.652 586.724 317.029 591.248 313.784C595.771 310.44 599.312 305.622 601.869 299.328C604.426 292.935 605.704 285.117 605.704 275.873C605.704 266.629 604.426 258.86 601.869 252.566C599.312 246.174 595.771 241.355 591.248 238.11C586.724 234.766 581.414 233.094 575.316 233.094C569.416 233.094 564.154 234.766 559.532 238.11C554.91 241.355 551.321 246.174 548.764 252.566C546.207 258.86 544.929 266.629 544.929 275.873C544.929 285.117 546.207 292.935 548.764 299.328C551.321 305.622 554.91 310.44 559.532 313.784C564.154 317.029 569.416 318.652 575.316 318.652Z" fill="#E30313" />
			<path d="M630.06 300.36V292.69L684.787 224.243H696.588L642.303 292.69L636.55 290.919H719.6V300.36H630.06ZM688.327 327.503V300.36L688.623 290.919V267.022H698.948V327.503H688.327Z" fill="#E30313" />
		</g>
		<g class="svgIcon svgIcon7">
			<path d="M130.7 212.601C136.775 212.601 141.7 207.676 141.7 201.601C141.7 195.525 136.775 190.601 130.7 190.601C124.625 190.601 119.7 195.525 119.7 201.601C119.7 207.676 124.625 212.601 130.7 212.601Z" fill="#A7D07D" />
			<g >
				<path d="M98.1 214.101H9.09996C4.49996 214.101 0.699951 210.301 0.699951 205.701V150.501C0.699951 145.901 4.49996 142.101 9.09996 142.101H98.1C102.7 142.101 106.5 145.901 106.5 150.501V205.701C106.5 210.401 102.7 214.101 98.1 214.101Z" fill="#DFE1E8" />
				<g >
					<path d="M14.3999 203.401H91.3999" stroke="white" stroke-width="2" stroke-miterlimit="10" stroke-linecap="round" stroke-linejoin="round" />
					<path d="M13.3999 197.401L24.8999 186.501L35.3999 194.401L60.8999 170.701L74.8999 181.401L92.7999 159.001" stroke="white" stroke-width="2" stroke-miterlimit="10" stroke-linecap="round" stroke-linejoin="round" />
				</g>
			</g>
			<path d="M13.3999 151.101H29.9999" stroke="#E30313" stroke-width="2" stroke-miterlimit="10" stroke-linecap="round" stroke-linejoin="round" />
			<path d="M13.3999 157.101H29.9999" stroke="#E30313" stroke-width="2" stroke-miterlimit="10" stroke-linecap="round" stroke-linejoin="round" />
			<path d="M13.3999 163.101H29.9999" stroke="#E30313" stroke-width="2" stroke-miterlimit="10" stroke-linecap="round" stroke-linejoin="round" />
		</g>
		<g class="svgIcon svgIcon6">
			<path d="M1435.7 174.8C1456.91 174.8 1474.1 157.608 1474.1 136.4C1474.1 115.192 1456.91 98 1435.7 98C1414.49 98 1397.3 115.192 1397.3 136.4C1397.3 157.608 1414.49 174.8 1435.7 174.8Z" fill="#DFE1E8" />
			<path d="M1435.7 140.5C1442 140.5 1447.1 135.396 1447.1 129.1C1447.1 122.804 1442 117.7 1435.7 117.7C1429.4 117.7 1424.3 122.804 1424.3 129.1C1424.3 135.396 1429.4 140.5 1435.7 140.5Z" stroke="white" stroke-width="2" stroke-miterlimit="10" stroke-linecap="round" stroke-linejoin="round" />
			<path d="M1460.7 160.8C1454.6 153.8 1445.6 149.4 1435.6 149.4C1425.6 149.4 1416.6 153.8 1410.4 160.9" stroke="white" stroke-width="2" stroke-miterlimit="10" stroke-linecap="round" stroke-linejoin="round" />
		</g>
		<g class="svgIcon svgIcon8">
			<path d="M1677.5 268.401C1682.97 268.401 1687.4 263.968 1687.4 258.501C1687.4 253.033 1682.97 248.601 1677.5 248.601C1672.03 248.601 1667.6 253.033 1667.6 258.501C1667.6 263.968 1672.03 268.401 1677.5 268.401Z" fill="#A7D07D" />
			<g >
				<g >
					<path d="M1651.7 322.9H1562.8C1559.8 322.9 1557.3 320.4 1557.3 317.4V280.7C1557.3 277.7 1559.8 275.2 1562.8 275.2H1651.7C1654.7 275.2 1657.2 277.7 1657.2 280.7V317.4C1657.2 320.4 1654.7 322.9 1651.7 322.9Z" fill="#DFE1E8" />
					<path d="M1571.9 299.101H1641.6" stroke="white" stroke-width="2" stroke-miterlimit="10" stroke-linecap="round" stroke-linejoin="round" />
				</g>
				<path d="M1583.9 292.2V305.7" stroke="#E30313" stroke-width="2" stroke-miterlimit="10" stroke-linecap="round" stroke-linejoin="round" />
			</g>
		</g>
		<g class="svgIcon svgIcon9">
			<path d="M1286.8 179.3C1295.53 179.3 1302.6 172.226 1302.6 163.5C1302.6 154.774 1295.53 147.7 1286.8 147.7C1278.07 147.7 1271 154.774 1271 163.5C1271 172.226 1278.07 179.3 1286.8 179.3Z" fill="#DFE1E8" />
			<path d="M1279.6 163.801L1286.1 169.901L1294.1 157.101" stroke="white" stroke-width="2" stroke-miterlimit="10" stroke-linecap="round" stroke-linejoin="round" />
		</g>
		<g class="svgIcon svgIcon10">
			<g >
				<path d="M465.3 79.0004C486.176 79.0004 503.1 62.0768 503.1 41.2004C503.1 20.324 486.176 3.40039 465.3 3.40039C444.424 3.40039 427.5 20.324 427.5 41.2004C427.5 62.0768 444.424 79.0004 465.3 79.0004Z" fill="#A7D07D" />
			</g>
			<g >
				<g >
					<g >
						<path d="M475.1 27H455.6V61.5H475.1V27Z" stroke="white" stroke-width="2" stroke-miterlimit="10" stroke-linecap="round" stroke-linejoin="round" />
						<path d="M472.3 18.2998H458.3L455.6 26.9998H475L472.3 18.2998Z" stroke="white" stroke-width="2" stroke-miterlimit="10" stroke-linecap="round" stroke-linejoin="round" />
					</g>
					<path d="M455.6 38.5996H475" stroke="white" stroke-width="2" stroke-miterlimit="10" stroke-linecap="round" stroke-linejoin="round" />
					<path d="M475 53.2002H455.8" stroke="white" stroke-width="2" stroke-miterlimit="10" stroke-linecap="round" stroke-linejoin="round" />
				</g>
				<path d="M464.4 15.5H460.7V18.3H464.4V15.5Z" stroke="white" stroke-width="2" stroke-miterlimit="10" stroke-linecap="round" stroke-linejoin="round" />
			</g>
			<path d="M501.5 38.6004C512.049 38.6004 520.6 30.049 520.6 19.5004C520.6 8.95176 512.049 0.400391 501.5 0.400391C490.951 0.400391 482.4 8.95176 482.4 19.5004C482.4 30.049 490.951 38.6004 501.5 38.6004Z" fill="#E30313" />
			<path id="%" d="M502.892 22.8888V22.0185C502.892 21.4168 503.015 20.8661 503.262 20.3665C503.515 19.8614 503.88 19.4585 504.358 19.1576C504.842 18.8514 505.428 18.6983 506.115 18.6983C506.814 18.6983 507.399 18.8514 507.872 19.1576C508.345 19.4585 508.702 19.8614 508.944 20.3665C509.186 20.8661 509.307 21.4168 509.307 22.0185V22.8888C509.307 23.4906 509.183 24.0439 508.936 24.5489C508.694 25.0486 508.334 25.4515 507.856 25.7578C507.383 26.0586 506.803 26.209 506.115 26.209C505.417 26.209 504.829 26.0586 504.35 25.7578C503.872 25.4515 503.51 25.0486 503.262 24.5489C503.015 24.0439 502.892 23.4906 502.892 22.8888ZM504.536 22.0185V22.8888C504.536 23.3885 504.654 23.8371 504.89 24.2347C505.127 24.6268 505.535 24.8229 506.115 24.8229C506.679 24.8229 507.077 24.6268 507.308 24.2347C507.544 23.8371 507.663 23.3885 507.663 22.8888V22.0185C507.663 21.5189 507.55 21.0729 507.324 20.6808C507.098 20.2832 506.696 20.0844 506.115 20.0844C505.551 20.0844 505.146 20.2832 504.898 20.6808C504.657 21.0729 504.536 21.5189 504.536 22.0185ZM494.672 13.444V12.5737C494.672 11.9719 494.795 11.4213 495.043 10.9216C495.295 10.4166 495.66 10.0137 496.139 9.71281C496.622 9.40658 497.208 9.25346 497.895 9.25346C498.594 9.25346 499.179 9.40658 499.652 9.71281C500.125 10.0137 500.482 10.4166 500.724 10.9216C500.966 11.4213 501.087 11.9719 501.087 12.5737V13.444C501.087 14.0457 500.963 14.5991 500.716 15.1041C500.474 15.6037 500.114 16.0067 499.636 16.3129C499.163 16.6138 498.583 16.7642 497.895 16.7642C497.197 16.7642 496.609 16.6138 496.131 16.3129C495.652 16.0067 495.29 15.6037 495.043 15.1041C494.795 14.5991 494.672 14.0457 494.672 13.444ZM496.316 12.5737V13.444C496.316 13.9436 496.434 14.3923 496.67 14.7898C496.907 15.182 497.315 15.3781 497.895 15.3781C498.459 15.3781 498.857 15.182 499.088 14.7898C499.324 14.3923 499.443 13.9436 499.443 13.444V12.5737C499.443 12.074 499.33 11.6281 499.104 11.2359C498.879 10.8383 498.476 10.6396 497.895 10.6396C497.331 10.6396 496.926 10.8383 496.679 11.2359C496.437 11.6281 496.316 12.074 496.316 12.5737ZM495.284 25.9834L506.631 9.47911H508.468L497.122 25.9834H495.284Z" fill="white" />
		</g>
	</g>
	<defs>
		<linearGradient id="paint0_linear_102_23517" x1="1105.79" y1="171.641" x2="1356.37" y2="437.105" gradientUnits="userSpaceOnUse">
			<stop offset="0.4051" stop-color="#656DD6" />
			<stop offset="0.6431" stop-color="#322767" />
		</linearGradient>
		<linearGradient id="paint1_linear_102_23517" x1="1079.02" y1="325.073" x2="1494.73" y2="325.073" gradientUnits="userSpaceOnUse">
			<stop offset="0.4051" stop-color="#656DD6" />
			<stop offset="0.6431" stop-color="#322767" />
		</linearGradient>
	</defs>
</svg>
