<svg width="375" height="667" viewBox="0 0 375 667" fill="none" xmlns="http://www.w3.org/2000/svg">
<style>
    .svgIcon {
      opacity: 0;
	  transform:translateY(0.63rem); 
	  transition: all ease 0.5s;
    }
	.svgIcon1{
		transition-delay: 0s;
	}
	.svgIcon2{
		transition-delay: 0.2s;
	}
	.svgIcon3{
		transition-delay: 0.4s;
	}
	.svgIcon4{
		transition-delay: 0.8s;
	}
	.svgIcon5{
		transition-delay: 1.2s;
	}
	.svgIcon6{
		transition-delay: 1.6s;
	}
	.svgIcon7{
		transition-delay: 2s;
	}
</style>
	<g id="iPhone 8 - 27">
		<g class="svgIcon svgIcon1" opacity="0.64">
			<path id="Vector" d="M357.06 309.95H19.0698V312.52H357.06V309.95Z" fill="#DFE1E8" />
			<g id="Group">
				<path d="M105.29 204.4V214.41H52.4699V204.4H48.1899V311.4H105.4V204.4H105.29ZM105.29 278.23H52.4699V262.62H105.29V278.23V278.23ZM105.29 257.42H52.4699V241.81H105.29V257.42V257.42ZM105.29 235.92H52.4699V220.31H105.29V235.92V235.92Z" fill="#DFE1E8" />
				<path d="M162.39 204.4V214.41H109.57V204.4H105.29V311.4H162.5V204.4H162.39ZM162.39 278.23H109.57V262.62H162.39V278.23ZM162.39 257.42H109.57V241.81H162.39V257.42ZM162.39 235.92H109.57V220.31H162.39V235.92Z" fill="#DFE1E8" />
				<path d="M218.99 204.4V214.41H166.17V204.4H161.89V311.4H219.1V204.4H218.99ZM218.99 278.23H166.17V262.62H218.99V278.23ZM218.99 257.42H166.17V241.81H218.99V257.42ZM218.99 235.92H166.17V220.31H218.99V235.92Z" fill="#DFE1E8" />
				<path d="M282.49 204.4V311.4H339.7V204.4H335.42V214.41H282.6V204.4H282.49V204.4ZM282.6 262.62H335.42V278.23H282.6V262.62ZM282.6 241.81H335.42V257.42H282.6V241.81ZM282.6 220.31H335.42V235.92H282.6V220.31Z" fill="#DFE1E8" />
			</g>
		</g>
		<g class="svgIcon svgIcon3">
			<g>
				<path d="M221.18 206.22V199.88H214.1L211.09 206.22" fill="#A2AFF9" />
				<path d="M215.31 199.88H222.39V206.22V320.99H212.3V206.22L215.31 199.88Z" fill="url(#paint0_linear_435_1490)" />
			</g>
			<g>
				<g>
					<g>
						<g>
							<g>
								<path d="M212.29 242.13H279.94V239.87H212.29V242.13Z" fill="#A2AFF9" />
								<path d="M269.7 242.14L277.09 244.17L279.95 244.51V239.88H269.7V242.14Z" fill="#7D84E2" />
							</g>
							<g>
								<g>
									<g>
										<path d="M228.06 203.07H222.84C222.84 203.07 220.32 207.27 220.32 209.71C220.32 212.15 220.44 214.73 220.7 216.01C220.96 217.29 221.83 219.54 221.83 219.54H229.1C229.1 219.54 229.97 217.29 230.23 216.01C230.49 214.73 230.61 212.14 230.61 209.71C230.61 207.28 228.09 203.07 228.09 203.07H228.06ZM229.06 210.19C228.55 210.43 227.58 209.41 226.9 207.93C226.21 206.45 226.07 205.06 226.58 204.82C227.09 204.58 228.06 205.6 228.74 207.08C229.43 208.56 229.57 209.95 229.06 210.19Z" fill="#76A5D9" />
										<path d="M227.02 200.92H223.9C223.51 200.92 223.18 201.2 223.11 201.58L222.84 203.07H228.09L227.82 201.58C227.75 201.2 227.42 200.92 227.03 200.92H227.02Z" fill="#E30313" />
									</g>
									<path d="M223.29 207.19C223.29 207.19 226.06 211.99 228.09 211.99C230.12 211.99 229.77 217 226.27 217C222.77 217 221.23 214.34 221.23 211.87C221.23 209.4 223.28 207.19 223.28 207.19H223.29Z" fill="#A7D07D" />
								</g>
								<g>
									<g>
										<path d="M243.28 203.07H238.06C238.06 203.07 235.54 207.27 235.54 209.71C235.54 212.15 235.66 214.73 235.92 216.01C236.18 217.29 237.05 219.54 237.05 219.54H244.32C244.32 219.54 245.19 217.29 245.45 216.01C245.71 214.73 245.83 212.14 245.83 209.71C245.83 207.28 243.31 203.07 243.31 203.07H243.28ZM244.28 210.19C243.77 210.43 242.8 209.41 242.12 207.93C241.43 206.45 241.29 205.06 241.8 204.82C242.31 204.58 243.28 205.6 243.96 207.08C244.65 208.56 244.79 209.95 244.28 210.19Z" fill="#76A5D9" />
										<path d="M242.24 200.92H239.12C238.73 200.92 238.4 201.2 238.33 201.58L238.06 203.07H243.31L243.04 201.58C242.97 201.2 242.64 200.92 242.25 200.92H242.24Z" fill="#E30313" />
									</g>
									<path d="M238.5 207.19C238.5 207.19 241.27 211.99 243.3 211.99C245.33 211.99 244.98 217 241.48 217C237.98 217 236.44 214.34 236.44 211.87C236.44 209.4 238.49 207.19 238.49 207.19H238.5Z" fill="#A7D07D" />
								</g>
								<g>
									<g>
										<path d="M228.06 223.94H222.84C222.84 223.94 220.32 228.14 220.32 230.58C220.32 233.02 220.44 235.6 220.7 236.88C220.96 238.16 221.83 240.41 221.83 240.41H229.1C229.1 240.41 229.97 238.16 230.23 236.88C230.49 235.6 230.61 233.01 230.61 230.58C230.61 228.15 228.09 223.94 228.09 223.94H228.06ZM229.06 231.06C228.55 231.3 227.58 230.28 226.9 228.8C226.21 227.32 226.07 225.93 226.58 225.69C227.09 225.45 228.06 226.47 228.74 227.95C229.43 229.43 229.57 230.82 229.06 231.06Z" fill="#76A5D9" />
										<path d="M227.02 221.79H223.9C223.51 221.79 223.18 222.07 223.11 222.45L222.84 223.94H228.09L227.82 222.45C227.75 222.07 227.42 221.79 227.03 221.79H227.02Z" fill="#E30313" />
									</g>
									<path d="M223.29 228.06C223.29 228.06 226.06 232.86 228.09 232.86C230.12 232.86 229.77 237.87 226.27 237.87C222.77 237.87 221.23 235.21 221.23 232.74C221.23 230.27 223.28 228.06 223.28 228.06H223.29Z" fill="#A7D07D" />
								</g>
								<g>
									<g>
										<path d="M243.28 223.94H238.06C238.06 223.94 235.54 228.14 235.54 230.58C235.54 233.02 235.66 235.6 235.92 236.88C236.18 238.16 237.05 240.41 237.05 240.41H244.32C244.32 240.41 245.19 238.16 245.45 236.88C245.71 235.6 245.83 233.01 245.83 230.58C245.83 228.15 243.31 223.94 243.31 223.94H243.28ZM244.28 231.06C243.77 231.3 242.8 230.28 242.12 228.8C241.43 227.32 241.29 225.93 241.8 225.69C242.31 225.45 243.28 226.47 243.96 227.95C244.65 229.43 244.79 230.82 244.28 231.06Z" fill="#76A5D9" />
										<path d="M242.24 221.79H239.12C238.73 221.79 238.4 222.07 238.33 222.45L238.06 223.94H243.31L243.04 222.45C242.97 222.07 242.64 221.79 242.25 221.79H242.24Z" fill="#E30313" />
									</g>
									<path d="M238.5 228.06C238.5 228.06 241.27 232.86 243.3 232.86C245.33 232.86 244.98 237.87 241.48 237.87C237.98 237.87 236.44 235.21 236.44 232.74C236.44 230.27 238.49 228.06 238.49 228.06H238.5Z" fill="#A7D07D" />
								</g>
								<path d="M212.29 221.4H279.94V219.14H212.29V221.4Z" fill="#A2AFF9" />
								<path d="M269.7 221.41L277.09 223.44L279.95 223.78V219.15H269.7V221.41Z" fill="#656DD6" />
							</g>
							<path d="M212.29 260.47H279.94V258.21H212.29V260.47Z" fill="#A2AFF9" />
							<g>
								<g>
									<g>
										<g>
											<path d="M269.94 276.55H277.83V264.93H269.94V276.55Z" fill="#8856A6" />
											<path d="M264.87 276.55H272.76V264.93H264.87V276.55Z" fill="#C28FBF" />
										</g>
										<g>
											<path d="M253.07 276.55H260.96V264.93H253.07V276.55Z" fill="#C28FBF" />
											<path d="M260.95 276.55H263.07V264.93H260.95V276.55Z" fill="#8856A6" />
										</g>
										<g>
											<path d="M241.53 276.55H249.42V264.93H241.53V276.55Z" fill="#A7D07D" />
											<path d="M249.42 276.55H251.54V264.93H249.42V276.55Z" fill="#8856A6" />
										</g>
									</g>
									<g>
										<path d="M241.52 276.55H249.41V264.93H241.52V276.55Z" fill="#C28FBF" />
										<g>
											<path d="M229.71 276.55H237.6V264.93H229.71V276.55Z" fill="#C28FBF" />
											<path d="M237.6 276.55H239.72V264.93H237.6V276.55Z" fill="#8856A6" />
										</g>
										<g>
											<path d="M218.18 276.55H226.07V264.93H218.18V276.55Z" fill="#C28FBF" />
											<path d="M226.06 276.55H228.18V264.93H226.06V276.55Z" fill="#8856A6" />
										</g>
									</g>
								</g>
								<path d="M212.29 278.8H279.94V276.54H212.29V278.8Z" fill="#A2AFF9" />
							</g>
							<g>
								<g>
									<g>
										<g>
											<path d="M269.94 258.22H277.83V246.6H269.94V258.22Z" fill="#8856A6" />
											<path d="M264.87 258.22H272.76V246.6H264.87V258.22Z" fill="#C28FBF" />
										</g>
										<g>
											<path d="M253.07 258.22H260.96V246.6H253.07V258.22Z" fill="#C28FBF" />
											<path d="M260.95 258.22H263.07V246.6H260.95V258.22Z" fill="#8856A6" />
										</g>
										<g>
											<path d="M241.53 258.22H249.42V246.6H241.53V258.22Z" fill="#A7D07D" />
											<path d="M249.42 258.22H251.54V246.6H249.42V258.22Z" fill="#8856A6" />
										</g>
									</g>
									<g>
										<path d="M241.52 258.22H249.41V246.6H241.52V258.22Z" fill="#C28FBF" />
										<g>
											<path d="M229.71 258.22H237.6V246.6H229.71V258.22Z" fill="#C28FBF" />
											<path d="M237.6 258.22H239.72V246.6H237.6V258.22Z" fill="#8856A6" />
										</g>
										<g>
											<path d="M218.18 258.22H226.07V246.6H218.18V258.22Z" fill="#C28FBF" />
											<path d="M226.06 258.22H228.18V246.6H226.06V258.22Z" fill="#8856A6" />
										</g>
									</g>
								</g>
								<path d="M212.29 260.48H279.94V258.22H212.29V260.48Z" fill="#A2AFF9" />
							</g>
							<g>
								<g>
									<g>
										<path d="M269.94 296H277.83V284.38H269.94V296Z" fill="#8856A6" />
										<path d="M264.87 296H272.76V284.38H264.87V296Z" fill="#C28FBF" />
									</g>
									<g>
										<path d="M253.07 296H260.96V284.38H253.07V296Z" fill="#C28FBF" />
										<path d="M260.95 296H263.07V284.38H260.95V296Z" fill="#8856A6" />
									</g>
									<g>
										<path d="M241.53 296H249.42V284.38H241.53V296Z" fill="#A7D07D" />
										<path d="M249.42 296H251.54V284.38H249.42V296Z" fill="#8856A6" />
									</g>
								</g>
								<g>
									<path d="M241.52 296H249.41V284.38H241.52V296Z" fill="#C28FBF" />
									<g>
										<path d="M229.71 296H237.6V284.38H229.71V296Z" fill="#C28FBF" />
										<path d="M237.6 296H239.72V284.38H237.6V296Z" fill="#8856A6" />
									</g>
									<g>
										<path d="M218.18 296H226.07V284.38H218.18V296Z" fill="#C28FBF" />
										<path d="M226.06 296H228.18V284.38H226.06V296Z" fill="#8856A6" />
									</g>
								</g>
							</g>
							<path d="M212.29 297.14H279.94V294.88H212.29V297.14Z" fill="#A2AFF9" />
							<path d="M276.03 320.98H286.12V221.89H276.03V320.98Z" fill="#888FA6" />
							<path d="M274.82 308.99H276.03V206.23H274.82V308.99Z" fill="#A2AFF9" />
							<path d="M211.09 320.99H212.3V206.23H211.09V320.99Z" fill="#A2AFF9" />
							<path d="M212.18 320.98H286.12V306.04H212.18V320.98Z" fill="#A2AFF9" />
							<path d="M212.18 320.98H286.12V307.73H212.18V320.98Z" fill="url(#paint1_linear_435_1490)" />
							<path d="M276.03 320.98H286.12V306.04H276.03V320.98Z" fill="#656DD6" />
						</g>
						<path d="M269.7 260.47L277.09 262.51L279.95 262.84V258.21H269.7V260.47Z" fill="#656DD6" />
						<path d="M269.7 278.8L277.09 280.84L279.95 281.17V276.54H269.7V278.8Z" fill="#656DD6" />
						<path d="M269.7 297.13L277.09 299.17L279.95 299.5V294.87H269.7V297.13Z" fill="#656DD6" />
					</g>
					<g>
						<path d="M284.91 206.22V199.88H277.83L274.82 206.22" fill="#A2AFF9" />
						<path d="M279.04 199.88H286.12V206.22V320.99H276.03V206.22L279.04 199.88Z" fill="url(#paint2_linear_435_1490)" />
					</g>
				</g>
				<g>
					<g>
						<path d="M244.8 239.88H252.69V228.26H244.8V239.88Z" fill="#FEDA8C" />
						<path d="M252.68 239.88H254.8V228.26H252.68V239.88Z" fill="#F7C559" />
					</g>
					<path d="M244.8 234.88H254.81V232.37H244.8V234.88Z" fill="#E30313" />
					<path d="M252.68 234.88H254.8V232.37H252.68V234.88Z" fill="#AD1917" />
					<path d="M252.68 234.88H254.8V232.37H252.68V234.88Z" fill="#AD1917" />
				</g>
			</g>
			<g>
				<g>
					<path d="M224.77 244.87C225.49 244.77 226.44 244.58 227.16 244.27C227.82 243.99 227.89 243.18 227.15 243.21C226.41 243.24 224.45 243.53 223.43 243.79" fill="#F7B29A" />
					<g>
						<path d="M220.6 243.95C221.74 244.02 224.07 243.65 224.85 243.69C225.63 243.73 225.9 245.02 226.33 246.3C226.7 247.41 226.12 248.22 224.9 248.27C224.05 248.3 220.36 248.03 219.06 247.94" fill="#F7B29A" />
						<path d="M224.22 248.28C225.36 248.42 226.57 248.02 227.01 247.8C227.45 247.58 228.54 246.72 228.31 246.29C228.13 245.96 227.67 245.96 227.29 246.32C227 246.59 226.56 246.83 226.1 246.82" fill="#F7B29A" />
						<path d="M225.6 247.309C226.53 247.279 227.7 247.219 228.14 247.009C228.58 246.799 229.28 245.869 228.99 245.479C228.74 245.149 228.41 245.419 228.13 245.689C227.85 245.959 227.64 246.129 227.17 246.109C226.7 246.089 226.41 246.049 225.65 245.929" fill="#F7B29A" />
						<path d="M225.95 246.26C226.88 246.35 228.34 246.3 228.81 246.15C229.28 246 230.24 245.6 230 245.17C229.84 244.89 229.39 244.93 228.99 244.94C228.09 244.97 226.36 244.81 225.41 244.6" fill="#F7B29A" />
					</g>
				</g>
				<g>
					<g>
						<g>
							<path d="M307.625 294.773L293.539 300.242C293.097 300.414 292.877 300.913 293.049 301.355C293.221 301.798 293.719 302.018 294.162 301.846L308.248 296.377C308.69 296.205 308.91 295.707 308.738 295.264C308.566 294.821 308.068 294.601 307.625 294.773Z" fill="#E30313" />
							<path d="M323.585 300.547L312.901 289.863C312.565 289.527 312.02 289.527 311.684 289.863C311.349 290.199 311.349 290.743 311.684 291.079L322.369 301.764C322.705 302.099 323.249 302.099 323.585 301.764C323.921 301.428 323.921 300.883 323.585 300.547Z" fill="#E30313" />
							<g>
								<path d="M321.99 300.05H294.32C293.15 300.05 292.34 301.18 292.64 302.38L295.63 314.29C295.83 315.11 296.58 315.69 297.4 315.69H319.29C320.14 315.69 320.89 315.08 321.08 314.23L323.68 302.31C323.94 301.13 323.13 300.05 321.99 300.05V300.05ZM299.07 313.27C298.75 313.27 298.44 313.05 298.38 312.78L296.39 304.48C296.29 304.08 296.53 303.75 296.93 303.75C297.33 303.75 297.71 304.08 297.8 304.48L299.55 312.78C299.61 313.05 299.4 313.27 299.08 313.27H299.07ZM302.71 313.27C302.39 313.27 302.1 313.05 302.06 312.78L300.82 304.48C300.76 304.08 301.03 303.75 301.42 303.75C301.81 303.75 302.17 304.08 302.22 304.48L303.22 312.78C303.25 313.05 303.02 313.27 302.7 313.27H302.71ZM306.35 313.27C306.03 313.27 305.76 313.05 305.75 312.78L305.26 304.48C305.24 304.08 305.53 303.75 305.93 303.75C306.33 303.75 306.65 304.08 306.66 304.48L306.91 312.78C306.91 313.05 306.67 313.27 306.35 313.27ZM310.6 312.78C310.58 313.05 310.31 313.27 310 313.27C309.69 313.27 309.43 313.05 309.44 312.78L309.7 304.48C309.71 304.08 310.04 303.75 310.43 303.75C310.82 303.75 311.12 304.08 311.1 304.48L310.61 312.78H310.6ZM314.29 312.78C314.25 313.05 313.96 313.27 313.64 313.27C313.32 313.27 313.09 313.05 313.12 312.78L314.12 304.48C314.17 304.08 314.53 303.75 314.92 303.75C315.31 303.75 315.58 304.08 315.52 304.48L314.28 312.78H314.29ZM319.96 304.48L317.97 312.78C317.9 313.05 317.59 313.27 317.28 313.27C316.97 313.27 316.75 313.05 316.81 312.78L318.56 304.48C318.64 304.08 319.03 303.75 319.43 303.75C319.83 303.75 320.06 304.08 319.97 304.48H319.96Z" fill="#E30313" />
								<path d="M322.17 309.24L318.97 308.64L317.98 312.78C317.91 313.05 317.6 313.27 317.29 313.27C316.98 313.27 316.76 313.05 316.82 312.78L317.74 308.41L315.03 307.9L314.3 312.79C314.26 313.06 313.97 313.28 313.65 313.28C313.33 313.28 313.1 313.06 313.13 312.79L313.75 307.66L310.94 307.13L310.6 312.78C310.58 313.05 310.31 313.27 310 313.27C309.69 313.27 309.43 313.05 309.44 312.78L309.62 306.88L306.72 306.33L306.92 312.78C306.92 313.05 306.68 313.27 306.36 313.27C306.04 313.27 305.77 313.05 305.76 312.78L305.36 306.08L302.36 305.52L303.24 312.79C303.27 313.06 303.04 313.28 302.72 313.28C302.4 313.28 302.11 313.06 302.07 312.79L300.95 305.26L297.84 304.68L299.55 312.8C299.61 313.07 299.4 313.29 299.08 313.29C298.76 313.29 298.45 313.07 298.39 312.8L296.4 304.5C296.4 304.5 296.4 304.44 296.4 304.41L293 303.77L295.95 314.95C296.29 315.41 296.83 315.71 297.42 315.71H319.31C319.73 315.71 320.12 315.56 320.43 315.31L322.19 309.26L322.17 309.24Z" fill="#AD1917" />
							</g>
						</g>
						<g>
							<path d="M321.19 315.46H295.65C295.114 315.46 294.68 315.894 294.68 316.43C294.68 316.966 295.114 317.4 295.65 317.4H321.19C321.725 317.4 322.16 316.966 322.16 316.43C322.16 315.894 321.725 315.46 321.19 315.46Z" fill="#701745" />
							<g>
								<path d="M297.95 321.1C298.971 321.1 299.8 320.272 299.8 319.25C299.8 318.228 298.971 317.4 297.95 317.4C296.928 317.4 296.1 318.228 296.1 319.25C296.1 320.272 296.928 321.1 297.95 321.1Z" fill="#1F1341" />
								<path d="M318.91 321.1C319.931 321.1 320.76 320.272 320.76 319.25C320.76 318.228 319.931 317.4 318.91 317.4C317.888 317.4 317.06 318.228 317.06 319.25C317.06 320.272 317.888 321.1 318.91 321.1Z" fill="#1F1341" />
							</g>
						</g>
					</g>
					<g>
						<path d="M251.18 316.55V319.81C251.18 320.53 250.6 321.11 249.88 321.11H240.65C240.07 321.11 239.79 320.41 240.19 320C240.59 319.59 242.43 318.64 243.76 318.09C246.58 316.95 247.92 316.84 247.92 316.84L251.17 316.55H251.18Z" fill="#1F1341" />
						<path d="M245.59 258.41V317.5H251.21C251.21 317.5 256.13 299.85 255.25 290.8C254.37 281.74 260.16 258.41 260.16 258.41H245.6H245.59Z" fill="#A7D07D" />
						<path d="M253.48 270.73L255.03 287.61L258.22 276.25L253.48 270.73Z" fill="#61A61C" />
						<path d="M267.52 315.01L268.01 318.23C268.12 318.94 267.63 319.6 266.92 319.71L257.8 321.1C257.23 321.19 256.84 320.54 257.18 320.07C257.52 319.6 259.19 318.38 260.43 317.65C263.04 316.1 264.35 315.79 264.35 315.79L267.52 315.01V315.01Z" fill="#1F1341" />
						<path d="M252.87 267.75L262.36 316.55L267.73 315.63C267.73 315.63 269.47 304.519 268.26 295.869C267.2 288.349 265.76 285.95 265.76 280.64C265.76 275.33 269.16 257.04 265.55 255.34C261.94 253.64 252.87 267.74 252.87 267.74V267.75Z" fill="#A7D07D" />
						<path d="M268.26 295.88C267.2 288.36 265.76 285.96 265.76 280.65C265.76 276.47 267.86 264.27 267 258.42L264.53 263.41C264.53 263.41 262.9 279.31 263.64 282.85C264.38 286.39 266.44 291.11 266.88 297.89C267.32 304.67 266.35 315.88 266.35 315.88L267.73 315.64C267.73 315.64 269.47 304.53 268.26 295.88V295.88Z" fill="#61A61C" />
						<path d="M252.66 227.59V222.05L257.46 219.03L258.28 227.89L252.66 227.59Z" fill="#F7B29A" />
						<path d="M252.25 226.14V224.29L258.45 224.05L258.96 226.14" fill="#FEDA8C" />
						<path d="M267.91 227.46C267.91 227.46 265.78 226.48 261.51 225.91C259.14 225.59 255.24 225.65 252.88 225.73C246.15 225.95 245.78 232.8 245.6 237.87C245.42 242.95 246.97 258.42 246.97 258.42L260.79 259.05L267.92 227.47L267.91 227.46Z" fill="#FEDA8C" />
						<path d="M250.66 226.95C250.66 226.95 246.33 253.77 246.96 258.41H245.59L246.52 242.33L250.66 226.95Z" fill="#DEA62C" />
						<path d="M225.52 224.48C224.65 222.85 224.02 222.05 223.66 221.85C223.3 221.65 222.9 221.75 222.9 221.75C222.9 221.75 222.51 221.05 222.35 220.81C222.15 220.49 221.89 220.4 221.68 220.39C221.46 220.39 221.42 220.41 221.42 220.41C221.42 220.41 221.08 219.96 220.5 220.03C219.78 220.12 221.48 224.58 221.91 225.68L221.79 226C221.51 225.84 220.75 225.42 220.38 225.18C219.99 224.92 219.74 225.55 220.11 226.21C220.48 226.87 224.09 230.13 224.44 230.39C224.8 230.65 225.83 231.01 225.83 231.01L226.53 231.1L228.66 228.88C228.66 228.88 226.38 226.11 225.52 224.48V224.48Z" fill="#F7B29A" />
						<path d="M223.82 230.66L228.02 227.6L237.77 237.38L247.23 227.14L245.05 241.63C245.05 241.63 239.49 247.7 237.05 246.99C233.47 245.94 223.81 230.67 223.81 230.67L223.82 230.66Z" fill="#FEDA8C" />
						<path d="M237.76 244.97C235.24 244.97 226.17 233.01 224.21 230.37L223.83 230.65C223.83 230.65 233.48 245.92 237.07 246.97C238.97 247.53 242.76 243.98 244.34 242.37V237.68C244.34 237.68 240.59 244.97 237.77 244.97H237.76Z" fill="#DEA62C" />
						<path d="M250.94 225.87C250.94 225.87 248.23 236.15 247.37 245.2C246.66 252.73 246.86 259.41 246.99 262.12C247.02 262.82 246.47 263.4 245.76 263.4H243.12C242.67 263.4 242.3 263.05 242.28 262.61C242.07 258.71 241.41 241.2 245.58 228.85C246.32 226.64 250.94 225.87 250.94 225.87V225.87Z" fill="#E30313" />
						<path d="M263.07 231.4C263.07 231.4 264.18 237.26 265.82 238.95L267.46 240.65V242.63L262.54 243.05L260.78 233.1" fill="#DEA62C" />
						<path d="M263.64 237.91C262.07 232.94 264.8 226.41 264.8 226.41C262.74 226.05 260.25 225.63 259.59 225.64C258.21 225.65 255.33 235.3 255.24 241.29C255.17 246.12 255.43 257.51 255.54 261.77C255.56 262.68 256.31 263.41 257.22 263.41H267.4C268.09 263.41 268.65 262.84 268.63 262.14L268.15 243.24C267.18 243.15 265.04 242.42 263.63 237.91H263.64Z" fill="#E30313" />
						<path d="M255.42 255.61C255.42 255.61 260.77 254.69 264.36 256.41C267.23 257.78 268.59 260.43 268.59 260.43L268.27 249.61L255.41 252.49V254.8" fill="#990D0D" />
						<g>
							<path d="M249.19 252.73C248.5 252.76 247.58 252.76 246.85 252.6C246.18 252.45 245.97 251.72 246.67 251.6C247.37 251.48 249.25 251.41 250.25 251.47" fill="#F7B29A" />
							<g>
								<path d="M252.93 251.13C251.88 251.4 249.63 251.47 248.91 251.65C248.19 251.83 248.16 253.08 247.99 254.36C247.84 255.47 248.53 256.12 249.68 255.95C250.48 255.83 253.89 254.91 255.08 254.6" fill="#F7B29A" />
								<path d="M250.31 255.82C249.27 256.16 248.06 256 247.62 255.86C247.18 255.72 245.99 255.12 246.14 254.68C246.25 254.34 246.68 254.26 247.1 254.52C247.42 254.72 247.87 254.87 248.3 254.78" fill="#F7B29A" />
								<path d="M248.84 255.16C247.96 255.29 246.86 255.45 246.41 255.33C245.96 255.21 245.14 254.46 245.34 254.05C245.51 253.7 245.87 253.89 246.19 254.09C246.51 254.29 246.73 254.41 247.16 254.31C247.59 254.21 247.86 254.12 248.55 253.87" fill="#F7B29A" />
								<path d="M248.33 254.24C247.48 254.49 246.1 254.71 245.64 254.65C245.18 254.59 244.2 254.39 244.35 253.95C244.45 253.66 244.87 253.61 245.25 253.55C246.1 253.41 247.68 252.96 248.54 252.59" fill="#F7B29A" />
							</g>
						</g>
						<path d="M264.12 229.62C264.5 227.18 266.84 226.47 268.98 228.07C269.66 228.58 270.97 229.56 271.47 231.18C272.82 235.59 275.27 247.04 272.86 250.08C270.76 252.72 253.48 255.21 253.48 255.21L252.98 251.12C252.98 251.12 261.15 246.06 266.97 245.58C266.97 245.58 263.3 234.93 264.12 229.63V229.62Z" fill="#FEDA8C" />
						<path d="M271.47 231.18C271.35 230.8 271.19 230.44 271.01 230.1C270.7 230.01 269.94 229.92 269.45 231.2C268.4 233.92 273.71 245.43 271.34 248.47C269.32 251.06 253.39 254.46 253.39 254.46L253.48 255.21C253.48 255.21 270.76 252.73 272.86 250.08C272.86 250.08 272.86 250.08 272.86 250.07C273.23 249.6 273.49 248.91 273.65 248.06C273.65 248.01 273.67 247.96 273.68 247.91C273.7 247.8 273.72 247.69 273.73 247.58C274.37 242.99 272.55 234.76 271.46 231.18H271.47Z" fill="#DEA62C" />
						<path d="M252.82 208.3C252.82 208.3 251.27 213.45 253.23 213.88C255.19 214.31 257.01 208.3 257.01 208.3" fill="#F07F35" />
						<path d="M254.63 220.56C254.63 220.56 255.24 223.26 252.66 223.55V221.5L254.63 220.56Z" fill="#D48068" />
						<path d="M254.04 209.26C254.04 209.26 252.1 211.77 251 215.17C249.72 219.11 249.57 221.76 251.62 222.5C252.81 222.93 255.24 222.93 256.33 222.47C256.84 222.25 257.07 223.03 257.07 223.03L260.02 218.86L260.73 214.06L254.04 209.26V209.26Z" fill="#F7B29A" />
						<path d="M257.76 222.05C257.76 222.05 262.93 216.94 264.12 215.13C265.47 213.07 264.52 207.77 259.17 208.71C259.17 208.71 258.95 205.73 256.15 204.97C253.35 204.21 252.07 206.28 252.25 208.21C252.43 210.14 257.73 213.05 257.73 213.05C257.73 213.05 256.55 215.33 257.47 216.27C258.14 216.95 257.41 219.84 257.41 220.27C257.41 220.7 257.77 222.05 257.77 222.05H257.76Z" fill="#F07F35" />
						<path d="M256.79 216.44C256.79 216.44 258.21 215.63 258.66 216.73C259.11 217.83 257.74 219.33 256.15 218.99" fill="#F7B29A" />
					</g>
					<g>
						<g>
							<g>
								<path d="M160.39 269.95L151.96 292.51C151.37 294.1 150.46 295.54 149.28 296.77L132.34 314.39L129.83 312.93C129.83 312.93 130.93 310.7 132.19 308.21C133.45 305.72 134.86 302.97 135.5 301.94C136.77 299.87 137.87 298.53 139.4 296.17C140.26 294.84 145.11 289.46 145.11 289.46L149.56 267.41" fill="#F7B29A" />
								<g>
									<path d="M129.84 312.859L129.11 313.729C128.82 314.069 128.94 314.569 129.37 314.829L136.19 318.989C136.55 319.209 137.01 318.939 136.87 318.599C136.75 318.289 136.56 317.919 136.25 317.469C135.34 316.169 133 313.289 133 313.289L129.84 312.859Z" fill="#1F1341" />
									<path d="M135.49 316.44C134.93 316.41 134.21 316.32 133.72 316.04C132.8 315.51 129.84 312.86 129.84 312.86L131.38 309.81L133.21 313.55C133.21 313.55 134.43 315.05 135.49 316.44V316.44Z" fill="#F7B29A" />
								</g>
							</g>
							<path d="M153.57 287.41L146.2 284.52L146.03 284.86L145.11 289.45C145.11 289.45 140.27 294.83 139.4 296.16C139.19 296.48 138.99 296.79 138.79 297.08V297.1C138.79 297.1 145.2 292.1 147.64 291.4C150.08 290.7 152.24 291.74 152.24 291.74C152.78 290.17 153.57 287.42 153.57 287.42V287.41Z" fill="#D48068" />
							<g>
								<path d="M165.26 285.05L162.67 319.23L159.69 319.29C159.69 319.29 157.24 309.68 156.88 307.32C156.52 304.96 156.67 301.28 156.94 299.82C157.21 298.36 156.94 291.84 156.94 291.84" fill="#F7B29A" />
								<path d="M161.43 290.73C161.43 290.73 158.65 296.56 158.65 306.41C158.65 311.54 159.16 317.2 159.16 317.2C158.42 314.23 157.13 308.99 156.88 307.33C156.52 304.97 156.67 301.29 156.94 299.83C157.09 298.99 156.99 291.74 156.94 289.76L161.43 290.74V290.73Z" fill="#D48068" />
								<g>
									<path d="M159.65 319.24V320.33C159.65 320.76 160.07 321.11 160.59 321.11H168.82C169.25 321.11 169.44 320.66 169.1 320.44C168.8 320.25 168.4 320.03 167.85 319.82C166.25 319.2 162.46 318 162.46 318L159.64 319.24H159.65Z" fill="#1F1341" />
									<path d="M166.57 319.35C166.1 319.61 165.47 319.89 164.88 319.91C163.79 319.94 159.65 319.24 159.65 319.24L159.16 317.2L162.47 318C162.47 318 164.79 318.74 166.57 319.35V319.35Z" fill="#F7B29A" />
								</g>
							</g>
						</g>
						<path d="M156.09 249.61C156.09 249.61 148.44 256.67 144.98 266.69C141.52 276.71 140.43 290.03 140.43 290.03C140.43 290.03 151.42 290.65 157.61 290.88C163.8 291.11 165.57 290.8 165.57 290.8C165.57 290.8 168.67 253.95 166.3 251.12C163.93 248.29 156.1 249.61 156.1 249.61H156.09Z" fill="#C28FBF" />
						<path d="M160.18 256.169C160.18 256.169 151.66 255.539 146.96 262.029C146.96 262.029 153.05 249.539 157.33 251.309C161.61 253.079 160.18 256.169 160.18 256.169V256.169Z" fill="#8856A6" />
						<path d="M155.32 220.899C155.32 220.899 147.2 223.469 145.92 226.139C144.83 228.429 146.4 230.349 145.52 232.759C144.4 235.839 140.42 236.509 140.42 239.739C140.42 242.969 145.6 246.909 150.57 242.969C155.54 239.029 158.11 230.579 158.11 230.579L158.5 224.589" fill="#701745" />
						<path d="M153.3 252.6C149.98 245.34 147.92 234.62 149.72 232.04C150.63 230.75 153.68 229.1 156.2 228.32C157.46 227.93 157.6 227.6 159.23 227.93C160.33 228.15 160.39 229.73 161.22 230.57C164.09 233.47 166.26 238.1 165.97 239.33C165.6 240.92 167.15 257.22 167.15 257.22" fill="#C28FBF" />
						<path d="M154.9 237.73C154.9 237.73 157.1 240.01 158.5 242.48C159.89 244.96 156.82 245.96 156.82 245.96L154.9 237.72V237.73Z" fill="#8856A6" />
						<path d="M154.49 250.16L163.31 231.18L174.84 232.03L180.27 237.75L170.6 257.73L154.49 250.16Z" fill="#A7D07D" />
						<path d="M170.6 257.73L155.46 255.47L155.92 253.39H167.38L170.6 257.73Z" fill="#61A61C" />
						<g>
							<g>
								<path d="M172.88 249.27C173.48 248.99 174.26 248.58 174.81 248.12C175.31 247.7 175.16 246.98 174.52 247.2C173.88 247.42 172.25 248.18 171.43 248.68" fill="#F7B29A" />
								<g>
									<path d="M169 249.57C170.01 249.33 171.94 248.4 172.63 248.23C173.32 248.06 173.89 249.11 174.6 250.11C175.21 250.98 174.92 251.84 173.87 252.2C173.14 252.45 170.36 252.86 168.7 252.86" fill="#F7B29A" />
									<path d="M173.3 252.379C174.33 252.209 175.28 251.539 175.6 251.229C175.92 250.919 176.65 249.889 176.33 249.579C176.09 249.339 175.68 249.459 175.45 249.869C175.27 250.179 174.95 250.509 174.54 250.619" fill="#F7B29A" />
									<path d="M174.24 251.169C175.04 250.899 176.05 250.539 176.37 250.239C176.69 249.939 177.06 248.949 176.71 248.679C176.41 248.459 176.19 248.779 176.01 249.089C175.83 249.399 175.7 249.599 175.28 249.699C174.86 249.799 174.6 249.849 173.91 249.939" fill="#F7B29A" />
									<path d="M174.27 250.169C175.1 250.009 176.36 249.579 176.73 249.319C177.1 249.059 177.83 248.469 177.51 248.149C177.3 247.939 176.92 248.099 176.57 248.209C175.79 248.469 174.25 248.779 173.36 248.849" fill="#F7B29A" />
								</g>
							</g>
							<path d="M155.18 234.71C155.18 234.71 151.77 229.71 149.72 232.04C148.71 233.19 148.18 234.45 148.16 236.38C148.09 242.26 150.84 252.16 151.39 253.22C152.01 254.42 159.18 254.57 162.09 254.47C165 254.37 170.51 253.33 170.51 253.33L170.4 248.93L157.1 247.23L155.56 236.62L155.19 234.7L155.18 234.71Z" fill="#C28FBF" />
							<path d="M154.28 251.17C150.33 249.2 151.79 233.45 149.63 233.63C148.9 233.69 148.45 234.65 148.18 235.88C148.18 236.05 148.16 236.21 148.16 236.38C148.17 238.69 148.51 241.69 148.97 244.55C149.84 248.76 151.05 252.57 151.39 253.22C152.01 254.42 159.18 254.57 162.09 254.47C164.87 254.37 170.51 253.33 170.51 253.33V253.03C166.48 253.18 157.32 252.68 154.28 251.17V251.17Z" fill="#8856A6" />
						</g>
						<g>
							<path d="M191.68 316.55V319.81C191.68 320.53 192.26 321.11 192.98 321.11H202.21C202.79 321.11 203.07 320.41 202.67 320C202.27 319.59 200.43 318.64 199.1 318.09C196.28 316.95 194.94 316.84 194.94 316.84L191.69 316.55H191.68Z" fill="#1F1341" />
							<g>
								<path d="M170.55 312.68L169.25 315.67C168.96 316.33 169.27 317.09 169.92 317.38L178.38 321.05C178.91 321.28 179.45 320.75 179.24 320.21C179.03 319.67 177.73 318.07 176.72 317.04C174.59 314.87 173.4 314.24 173.4 314.24L170.54 312.68H170.55Z" fill="#1F1341" />
								<path d="M177.41 255.47C177.41 255.47 179.6 281.83 180.14 285.63C180.14 285.63 175.49 293.33 173.75 298.74C172.01 304.15 169.63 313.11 169.63 313.11L175.24 315.79C175.24 315.79 190.67 287.46 190.67 283.82C190.67 280.18 190.03 256.13 190.03 256.13" fill="#54579C" />
								<path d="M185.01 268.05C185.01 268.05 182.78 271.85 183.93 277.48C185.08 283.11 185.46 286.49 185.35 289.08C185.24 291.67 173.26 314.84 173.26 314.84L175.24 315.79L195.27 281.9L186.23 269.39L185.01 268.06V268.05Z" fill="#322767" />
								<path d="M198.28 257.49L199.64 287.54L197.41 317.4L190.99 317.57C190.99 317.57 190.06 290.89 189.51 289.18C186.5 279.79 184.91 268.7 184.91 264.08C184.91 260.31 185.23 256.12 190.03 256.14C194.83 256.16 198.28 257.51 198.28 257.51V257.49Z" fill="#54579C" />
								<path d="M185.74 223.52L186.61 218.76L192.66 219.39L191.88 225.49L185.74 223.52Z" fill="#F7B29A" />
								<g>
									<path d="M178.64 224.569C178.64 224.569 169.81 237.459 169.15 240.169C168.49 242.879 172.35 246.289 174.22 248.499C176.09 250.709 178.74 252.809 178.74 252.809" fill="#DEA62C" />
									<path d="M186.89 222.959C186.89 222.959 181.14 222.149 178.88 224.229C176.62 226.309 175.56 236.909 176.21 241.899C176.86 246.889 177.62 258.549 177.62 258.549L197.2 257.489C197.2 257.489 199.89 245.279 201.01 236.309C202.17 227.029 197.92 225.809 194.96 224.809C191.74 223.729 186.89 222.959 186.89 222.959V222.959Z" fill="#FEDA8C" />
									<path d="M194.54 237.849C194.54 237.849 199.36 246.109 203.65 247.699C206.73 248.849 220.82 248.489 220.82 248.489V243.359L206.31 240.169C206.31 240.169 202.14 227.749 197.47 225.899" fill="#FEDA8C" />
									<path d="M194.49 233.669C194.25 234.089 194.54 238.549 197.65 242.759C199.28 245.199 201.48 246.899 203.65 247.709C206.73 248.859 220.82 248.499 220.82 248.499V247.189C220.82 247.189 206.44 247.089 203.64 245.489C201.54 244.289 198.62 240.489 197.01 237.389C196.4 236.219 195.04 232.769 194.51 233.679L194.49 233.669Z" fill="#DEA62C" />
									<path d="M199.23 247.38C199.23 247.38 196.16 255.16 191.31 257.8L198.28 257.48C198.28 257.48 198.88 249.24 199.23 247.37V247.38Z" fill="#DEA62C" />
								</g>
								<path d="M191.82 220.62L192.29 222.29L192.56 219.99L191.07 220.16" fill="#D48068" />
								<path d="M191.82 206.539C191.82 206.539 195.15 206.459 195.73 208.479C196.31 210.499 194.38 211.989 194.38 211.989" fill="#1F1341" />
								<path d="M190.93 220.78C190.93 220.78 192.58 221.04 193.61 220.73C194.64 220.42 196.2 208.37 193.32 208.48C190.44 208.59 188.32 210.24 187.52 212.63C186.72 215.02 187.15 220.99 187.15 220.99L190.93 220.78Z" fill="#F7B29A" />
								<path d="M189.49 206.09C189.49 206.09 189.57 206.09 189.62 206.09C193.86 206.09 194.84 208.69 194.84 210.02C194.84 211.67 190.45 214.47 190.4 215.54C190.35 216.61 190.17 221.4 187.04 221.4C183.91 221.4 182.02 219.53 182.02 216.2C182.02 209.38 186.81 206.12 189.49 206.08V206.09Z" fill="#1F1341" />
								<path d="M191.43 215.449C191.43 215.449 190.77 213.879 189.8 214.739C188.83 215.599 189.26 217.809 190.92 218.039" fill="#F7B29A" />
							</g>
						</g>
						<path d="M156.2 228.32L156.64 223.53L161.23 224.58V230.57C161.23 230.57 158.72 228.28 156.2 228.32V228.32Z" fill="#F7B29A" />
						<path d="M160.18 225.78C160.18 225.78 163.18 225.14 164.22 223.94C165.08 222.95 162.26 212.77 160.51 212.77C157.91 212.77 154.49 219.54 154.49 219.54C154.49 219.54 156.32 224.08 157.66 225.21C159 226.34 160.17 225.78 160.17 225.78H160.18Z" fill="#F7B29A" />
						<path d="M152.25 222.36C152.25 222.36 148.62 216.11 152.37 212.79C155.89 209.68 160.02 212.03 160.97 212.79C161.92 213.55 162.01 214.26 162.01 214.26C162.01 214.26 161.22 217.99 159.22 219.56C158.87 219.84 159.04 220.67 158.82 221.05C157.95 222.55 157.04 223.8 156.26 224.13C153.96 225.12 155.64 223.18 155.64 223.18L152.25 222.35V222.36Z" fill="#701745" />
						<path d="M160.48 218.11C160.48 218.11 165.51 213.53 163.4 211.53C161.29 209.53 159.57 212.31 159.57 212.31" fill="#701745" />
						<path d="M161.23 225.5V227.74L160.18 225.78L161.23 225.5Z" fill="#D48068" />
						<path d="M159.33 219.62C159.33 219.62 157.75 218.8 157.25 220.01C156.75 221.22 159 222.05 159 222.05" fill="#F7B29A" />
					</g>
				</g>
			</g>
		</g>
		<g class="svgIcon svgIcon4">
			<g>
				<path d="M68.4702 153.18C79.2287 153.18 87.9502 144.459 87.9502 133.7C87.9502 122.942 79.2287 114.22 68.4702 114.22C57.7117 114.22 48.9902 122.942 48.9902 133.7C48.9902 144.459 57.7117 153.18 68.4702 153.18Z" fill="#C28FBF" />
				<g>
					<g>
						<path d="M58.79 134.15L61.04 140.98C61.23 141.56 61.78 141.95 62.39 141.95H74.52C75.13 141.95 75.68 141.56 75.87 140.98L78.09 134.23" stroke="white" stroke-linecap="round" stroke-linejoin="round" />
						<path d="M67.5002 131.01H59.2902C58.4002 131.01 57.6802 131.73 57.6802 132.62C57.6802 133.51 58.4002 134.23 59.2902 134.23H77.6102C78.5002 134.23 79.2202 133.51 79.2202 132.62C79.2202 131.73 78.5002 131.01 77.6102 131.01H73.0102" stroke="white" stroke-linecap="round" stroke-linejoin="round" />
						<g>
							<path d="M74.4901 135.98L73.6001 140.07" stroke="white" stroke-linecap="round" stroke-linejoin="round" />
							<path d="M71.47 135.98L71.02 140.07" stroke="white" stroke-linecap="round" stroke-linejoin="round" />
							<path d="M68.4502 135.98V140.07" stroke="white" stroke-linecap="round" stroke-linejoin="round" />
							<path d="M65.4302 135.98L65.8802 140.07" stroke="white" stroke-linecap="round" stroke-linejoin="round" />
							<path d="M62.4102 135.98L63.3102 140.07" stroke="white" stroke-linecap="round" stroke-linejoin="round" />
						</g>
					</g>
					<path d="M74.5901 125.82C74.1101 125.34 73.3201 125.34 72.8401 125.82L67.5001 131.16C67.0201 131.64 67.0201 132.43 67.5001 132.91C67.9801 133.39 68.7701 133.39 69.2501 132.91L74.5901 127.57C75.0701 127.09 75.0701 126.3 74.5901 125.82V125.82Z" stroke="white" stroke-linecap="round" stroke-linejoin="round" />
				</g>
			</g>
			<g>
				<path d="M32.93 108.28C39.9109 108.28 45.57 102.621 45.57 95.64C45.57 88.6591 39.9109 83 32.93 83C25.9492 83 20.29 88.6591 20.29 95.64C20.29 102.621 25.9492 108.28 32.93 108.28Z" fill="#DFE1E8" />
				<path d="M32.9299 96.98C35.0065 96.98 36.6899 95.2966 36.6899 93.22C36.6899 91.1434 35.0065 89.46 32.9299 89.46C30.8533 89.46 29.1699 91.1434 29.1699 93.22C29.1699 95.2966 30.8533 96.98 32.9299 96.98Z" stroke="white" stroke-linecap="round" stroke-linejoin="round" />
				<path d="M41.1799 103.64C39.1699 101.35 36.2199 99.8999 32.9299 99.8999C29.6399 99.8999 26.6699 101.36 24.6499 103.67" stroke="white" stroke-linecap="round" stroke-linejoin="round" />
			</g>
		</g>
		<g class="svgIcon svgIcon2">
			<path d="M43.53 296.47C40.39 294.34 37.94 291.29 36.18 287.3C34.42 283.32 33.54 278.62 33.54 273.23C33.54 267.84 34.42 263.14 36.18 259.16C37.94 255.18 40.39 252.12 43.53 249.99C46.67 247.86 50.25 246.8 54.26 246.8C58.27 246.8 61.85 247.86 64.99 249.99C68.13 252.12 70.6 255.18 72.38 259.16C74.16 263.15 75.05 267.84 75.05 273.23C75.05 278.62 74.16 283.32 72.38 287.3C70.6 291.29 68.13 294.34 64.99 296.47C61.85 298.6 58.27 299.66 54.26 299.66C50.25 299.66 46.67 298.6 43.53 296.47ZM62.24 292.24C64.54 290.56 66.34 288.11 67.62 284.89C68.91 281.67 69.55 277.79 69.55 273.23C69.55 268.67 68.91 264.79 67.62 261.57C66.33 258.35 64.54 255.9 62.24 254.22C59.94 252.54 57.28 251.7 54.26 251.7C51.24 251.7 48.58 252.54 46.28 254.22C43.98 255.9 42.18 258.35 40.9 261.57C39.61 264.79 38.97 268.67 38.97 273.23C38.97 277.79 39.61 281.67 40.9 284.89C42.19 288.11 43.98 290.56 46.28 292.24C48.58 293.92 51.24 294.76 54.26 294.76C57.28 294.76 59.94 293.92 62.24 292.24Z" fill="#E30313" />
			<path d="M115.54 294.47V299.22H79.09V295.43L100.7 274.27C103.42 271.6 105.27 269.28 106.23 267.33C107.2 265.38 107.68 263.41 107.68 261.43C107.68 258.36 106.63 255.97 104.52 254.26C102.42 252.55 99.41 251.7 95.5 251.7C89.41 251.7 84.68 253.63 81.32 257.49L77.53 254.22C79.56 251.84 82.15 250.01 85.29 248.73C88.43 247.44 91.98 246.8 95.95 246.8C101.25 246.8 105.44 248.05 108.54 250.55C111.63 253.05 113.18 256.48 113.18 260.83C113.18 263.5 112.59 266.08 111.4 268.55C110.21 271.03 107.96 273.87 104.64 277.09L86.97 294.47H115.56H115.54Z" fill="#E30313" />
		</g>
		<g class="svgIcon svgIcon5">
			<path d="M80.9797 561.82C83.7467 561.82 85.9897 559.577 85.9897 556.81C85.9897 554.043 83.7467 551.8 80.9797 551.8C78.2128 551.8 75.9697 554.043 75.9697 556.81C75.9697 559.577 78.2128 561.82 80.9797 561.82Z" fill="#A7D07D" />
			<g>
				<g>
					<path d="M65.15 565.27H25.52C22.4714 565.27 20 567.741 20 570.79V583.94C20 586.989 22.4714 589.46 25.52 589.46H65.15C68.1986 589.46 70.67 586.989 70.67 583.94V570.79C70.67 567.741 68.1986 565.27 65.15 565.27Z" fill="#DFE1E8" />
					<path d="M27.4302 577.36H62.7702" stroke="white" stroke-linecap="round" stroke-linejoin="round" />
				</g>
				<path d="M33.5098 573.91V580.74" stroke="#E30313" stroke-linecap="round" stroke-linejoin="round" />
			</g>
		</g>
	</g>
	<defs>
		<linearGradient id="paint0_linear_435_1490" x1="130.78" y1="296.3" x2="373.41" y2="197.47" gradientUnits="userSpaceOnUse">
			<stop offset="0.41" stop-color="#656DD6" />
			<stop offset="0.64" stop-color="#322767" />
		</linearGradient>
		<linearGradient id="paint1_linear_435_1490" x1="248.98" y1="295.87" x2="249.27" y2="328.24" gradientUnits="userSpaceOnUse">
			<stop offset="0.16" stop-color="#656DD6" />
			<stop offset="0.64" stop-color="#A2AFF9" />
		</linearGradient>
		<linearGradient id="paint2_linear_435_1490" x1="194.51" y1="296.3" x2="437.14" y2="197.47" gradientUnits="userSpaceOnUse">
			<stop offset="0.41" stop-color="#656DD6" />
			<stop offset="0.64" stop-color="#322767" />
		</linearGradient>
	</defs>
</svg>
