<svg width="1578" height="349" viewBox="0 0 1578 349" fill="none" xmlns="http://www.w3.org/2000/svg">
<style>
    .svgIcon {
      opacity: 0;
	  transform:translateY(0.63rem); 
	  transition: all ease 0.5s;
    }
	.svgIcon1{
		transition-delay: 0s;
	}
	.svgIcon2{
		transition-delay: 0.2s;
	}
	.svgIcon3{
		transition-delay: 0.4s;
	}
	.svgIcon4{
		transition-delay: 0.6s;
	}
	.svgIcon5{
		transition-delay: 0.8s;
	}
	.svgIcon6{
		transition-delay: 1.4s;
	}
	.svgIcon7{
		transition-delay: 1.8s;
	}
	.svgIcon8{
		transition-delay: 2.2s;
	}
	.svgIcon9{
		transition-delay: 2.6s;
	}
	.svgIcon10{
		transition-delay: 3s;
	}
  </style>
	<g>
		<g class="svgIcon svgIcon1">
			<g>
				<g opacity="0.64">
					<g>
						<path d="M1251.7 326.899H228.3V331.999H1251.7V326.899Z" fill="#DFE1E8" />
					</g>
					<g>
						<path d="M585.7 118.8V138.5H481.5V118.8H473.1V329.8H585.9V118.8H585.7V118.8ZM585.7 264.4H481.5V233.6H585.7V264.4ZM585.7 223.3H481.5V192.5H585.7V223.3ZM585.7 180.9H481.5V150.1H585.7V180.9Z" fill="#DFE1E8" />
						<path d="M698.2 118.8V138.5H594.1V118.8H585.7V329.8H698.5V118.8H698.2V118.8ZM698.2 264.4H594.1V233.6H698.3V264.4H698.2ZM698.2 223.3H594.1V192.5H698.3V223.3H698.2ZM698.2 180.9H594.1V150.1H698.3V180.9H698.2Z" fill="#DFE1E8" />
						<path d="M809.9 118.8V138.5H705.7V118.8H697.3V329.8H810.1V118.8H809.9V118.8ZM809.9 264.4H705.7V233.6H809.9V264.4ZM809.9 223.3H705.7V192.5H809.9V223.3ZM809.9 180.9H705.7V150.1H809.9V180.9Z" fill="#DFE1E8" />
						<path d="M935.1 118.8V329.8H1047.9V118.8H1039.5V138.5H935.3V118.8H935.1V118.8ZM935.3 233.6H1039.5V264.4H935.3V233.6ZM935.3 192.5H1039.5V223.3H935.3V192.5ZM935.3 150.1H1039.5V180.9H935.3V150.1Z" fill="#DFE1E8" />
					</g>
				</g>
			</g>
		</g>
		<g class="svgIcon svgIcon5">
			<path d="M388.7 170.601C388.7 170.601 393 164.8 396.7 163.3C400.6 161.6 402.8 162.9 404.9 164.9C406.5 166.4 408.3 172.001 408.3 172.001" stroke="#61A61C" stroke-width="2.3357" stroke-miterlimit="10" />
			<path d="M374.9 192.9L368.8 194.3L360.9 160C360.5 158.3 361.6 156.6 363.2 156.2C364.9 155.8 366.6 156.9 367 158.5L374.9 192.9Z" fill="#990D0D" />
			<path d="M367.9 173.8C367.9 173.8 367.9 167.4 375.6 166.5C383.2 165.6 385.6 173.7 385.6 173.7" fill="#FEDA8C" />
			<path d="M383.7 179.1L390.1 161.8L413.4 165.8L410.3 178.4" fill="#76A5D9" />
			<path d="M413.4 165.8L419 167.9L417.5 173.8L411.8 172.4" fill="#54579E" />
			<path d="M374.3 212.2L359.7 211.5L362.9 171.9L405 168.2L414.6 171.4L408.4 200.4L398.8 218.6L374.3 212.2Z" fill="#A7D07D" />
			<g>
				<path d="M374.5 190L375.9 190.2L376.9 191.7L378.1 190.4L379.4 190.6L378.9 195.1L377.6 194.9L377.8 192.7L376.6 193.7L375.7 192.4L375.5 194.7L374 194.5L374.5 190Z" fill="white" />
				<path d="M370.9 194.2L371.4 189.7C371.6 187.8 373.3 186.4 375.2 186.6L383.1 187.5L382.9 189.1L375 188.2C374 188.1 373.1 188.8 373 189.8L372.7 192.6C372.6 193.6 371.8 194.3 370.9 194.2Z" fill="white" />
				<path d="M382.6 190.9L382.1 195.4C381.9 197.3 380.2 198.7 378.3 198.5L370.4 197.6L370.6 196L378.5 196.9C379.5 197 380.4 196.3 380.5 195.3L380.8 192.5C380.9 191.5 381.7 190.8 382.6 190.9Z" fill="white" />
			</g>
			<path d="M405 168.2L393 196.3L391.7 212L400.7 211L410.7 189.6L424.1 174.1L405 168.2Z" fill="#61A61C" />
			<g>
				<g>
					<path d="M363.9 208.9C362.7 208.4 361 207.7 359.9 206.8C358.8 206 359.1 204.6 360.4 204.9C361.8 205.3 365.1 206.6 366.8 207.5" fill="#F7B29A" />
					<g>
						<path d="M371.7 209.1C369.7 208.7 365.7 207.1 364.2 206.9C362.8 206.6 361.8 208.8 360.5 210.9C359.4 212.7 360.1 214.4 362.2 215C363.7 215.4 370.4 216.5 372.7 216.9" fill="#F7B29A" />
						<path d="M363.5 215.2C361.4 215 359.4 213.8 358.7 213.2C358 212.6 356.4 210.6 357 210C357.5 209.5 358.3 209.7 358.8 210.5C359.2 211.1 359.9 211.7 360.7 211.9" fill="#F7B29A" />
						<path d="M361.4 212.9C359.8 212.4 357.7 211.9 357 211.3C356.3 210.7 355.4 208.8 356.1 208.2C356.7 207.7 357.2 208.3 357.6 208.9C358 209.5 358.3 209.9 359.1 210C359.9 210.2 360.5 210.2 361.9 210.3" fill="#F7B29A" />
						<path d="M361.2 210.899C359.5 210.699 356.9 209.999 356.2 209.499C355.5 208.999 353.9 207.899 354.5 207.299C354.9 206.899 355.7 207.099 356.4 207.299C358 207.699 361.1 208.199 362.9 208.199" fill="#F7B29A" />
					</g>
				</g>
				<g>
					<path d="M425 176.6L422.3 169L431.2 166.5L435.9 175.4L423.1 176.9" fill="#F7B29A" />
					<g>
						<path d="M441.8 307.5L445.8 311.6C446.7 312.5 446.7 314 445.8 314.9L434 326.3C433.3 327 432 326.5 432 325.5C432 324.5 433.2 321 434.2 318.6C436.4 313.6 437.9 311.9 437.9 311.9L441.8 307.5Z" fill="#1F1341" />
						<path d="M398.6 250.8C398.6 250.8 400.3 274 401.9 279.8C402.9 283.3 434.8 315.2 434.8 315.2L444.5 308.1C444.5 308.1 436.5 289.6 423.5 273.4C422.4 272 421.7 270.2 421.7 268.3C421.6 261.5 419.8 240.2 420.7 234.5" fill="#C28FBF" />
						<path d="M437.8 313C437.8 313 408.7 283.7 407.3 279.1C406.5 276.3 407.3 271 409.7 265.3C412.7 258.2 420.9 254.2 420.9 254.2C420.4 245.3 420 238.6 420.6 234.6L398.4 250.9C398.4 250.9 400.1 274.1 401.7 279.9C402.7 283.4 434.6 315.3 434.6 315.3L437.8 313Z" fill="#8856A6" />
						<g>
							<path d="M359.8 315.7L356.2 320.1C355.4 321.1 354 321.2 353 320.4L340.6 310.3C339.8 309.7 340.2 308.4 341.2 308.3C342.2 308.2 345.7 308.9 348.1 309.6C353.1 311.1 355.1 312.5 355.1 312.5L359.8 315.7Z" fill="#1F1341" />
						</g>
						<path d="M402 218.3C402 218.3 361.3 292.3 350.8 310.8L358.8 317.7C358.8 317.7 400.5 267.6 406.5 260.3C412.5 253 423.1 233.8 421.1 227.9C419.1 222 402 218.3 402 218.3Z" fill="#C28FBF" />
						<path d="M412.4 235.5C412.4 235.5 396.7 271.9 382.9 287.7C383.1 287.8 430 234.9 425.4 231.3C421.1 227.9 412.4 235.5 412.4 235.5Z" fill="#8856A6" />
						<path d="M427.4 174.3C432.2 172.5 435.8 173.2 438.6 177.4C441.6 181.8 443.2 185.1 443 197.8C442.7 217.2 430 236.9 430 236.9L389.5 231.4C389.5 231.4 398.8 199.3 409.4 186.9C415.3 180 422.3 176.2 427.4 174.3Z" fill="#E30313" />
						<path d="M430.1 198C430.1 198 407.9 222.2 399.4 223.2C390.9 224.2 364 216.7 364 216.7L366.8 207.5C366.8 207.5 393.3 209.8 395.9 210.5C395.9 210.5 411 184.1 420.8 182.9C430.5 181.8 433.3 194.8 430.1 198Z" fill="#E30313" />
						<path d="M423.6 204.7C424.6 203.3 425.6 202.2 426.3 201.5C430.8 197.4 428.6 193.5 425.3 192.7C422 191.8 403 217.6 398.8 218.7C394.6 219.9 364.9 213.6 364.9 213.6L363.9 216.8C363.9 216.8 390.9 224.2 399.3 223.3C404.9 222.5 416.4 211.9 423.6 204.7Z" fill="#990D0D" />
					</g>
					<path d="M423.1 176.9L421.5 173.6L433.8 169.9L438.6 177.3" fill="#E30313" />
					<g>
						<path d="M421.9 169.701C421.9 169.701 416.6 167.601 415 165.001C413.7 162.901 422.2 145.001 425.4 145.501C430.2 146.301 434.4 159.901 434.4 159.901C434.4 159.901 429.6 167.701 426.7 169.401C423.9 171.101 421.9 169.701 421.9 169.701Z" fill="#F7B29A" />
						<path d="M437 163.5C437 163.5 445.1 154.1 439.2 146.7C433.7 139.8 426.6 144.2 424.6 145.3C422.6 146.4 422.2 147.7 422.2 147.7C422.2 147.7 422.5 154.9 425.7 158.4C426.3 159 425.7 160.5 426 161.3C427.1 164.4 429.3 167.3 430.9 167.8C432.6 168.4 437 163.5 437 163.5Z" fill="#FEDA8C" />
						<path d="M423.8 155.4C423.8 155.4 415.9 145.3 420.5 142.3C425 139.3 427.3 145 427.3 145" fill="#FEDA8C" />
						<path d="M425.4 158.501C425.4 158.501 428.6 157.501 429.1 159.901C429.7 162.301 425.2 163.101 425.2 163.101" fill="#F7B29A" />
					</g>
				</g>
			</g>
			<path d="M375.1 173C375.1 173 378.5 166.7 381.9 164.6C385.5 162.4 387.9 163.3 390.3 164.9C392.1 166.2 394.7 171.4 394.7 171.4" stroke="#A7D07D" stroke-width="2.3357" stroke-miterlimit="10" />
		</g>
		<g class="svgIcon svgIcon4">
			<g>
				<path d="M1143.35 125.536L1117.57 126.709L1118.75 152.483L1144.52 151.311L1143.35 125.536Z" fill="#FEDA8C" />
				<path d="M1124.5 126.3L1125.4 154.5L1144.4 151.3L1144 145.8L1118.5 148.2L1117.5 126.7L1124.5 126.3Z" fill="#DEA62C" />
				<path d="M1144.15 143.805L1102.11 150.048L1105.9 175.569L1147.94 169.326L1144.15 143.805Z" fill="#FEDA8C" />
				<path d="M1104 163.4L1146.9 162.5L1147.9 169.3L1105.8 175.5L1104 163.4Z" fill="#DEA62C" />
				<path d="M1103.1 320L1103 324.7C1103 325.7 1103.8 326.6 1104.8 326.6L1118.1 326.8C1118.9 326.8 1119.4 325.8 1118.8 325.2C1118.2 324.6 1115.6 323.2 1113.7 322.4C1109.7 320.7 1107.7 320.5 1107.7 320.5L1103.1 320Z" fill="#1F1341" />
				<path d="M1089.1 226.1C1089.1 226.1 1097.9 262.9 1096.7 273.1C1095.3 285 1103 321.1 1103 321.1L1110.5 321.2C1110.5 321.2 1117.8 232.5 1114.1 224.2C1110.4 215.9 1089.1 226.1 1089.1 226.1Z" fill="#A2AFF9" />
				<path d="M1100.7 309.1C1100.7 309.1 1103.4 284.8 1104 279.7C1104.6 274.3 1104.9 264.5 1104.9 260.8C1105 252.9 1107 227.8 1107 227.8L1096.9 232.8V270.5L1095.3 278.1L1100.7 309.1Z" fill="#656DD6" />
				<g>
					<path d="M1062.7 308.699L1059.8 312.399C1059.2 313.199 1059.3 314.399 1060.1 314.999L1070.6 323.099C1071.3 323.599 1072.2 323.099 1072.1 322.199C1072 321.399 1070.8 318.699 1069.7 316.899C1067.5 313.099 1066.1 311.799 1066.1 311.799L1062.7 308.699Z" fill="#1F1341" />
					<g>
						<g>
							<path d="M1080.7 232.999C1080.7 232.999 1084.3 265.699 1082.3 273.299C1081 277.999 1076 275.899 1061.7 309.499L1068.2 314.299C1068.2 314.299 1099.4 281.899 1101.1 277.699C1102.7 273.499 1101.3 234.799 1101.3 234.799" fill="#A2AFF9" />
							<path d="M1086.7 252.199C1086.7 252.199 1084.9 244.699 1090.1 238.499C1094.3 233.499 1096.9 232.699 1096.9 232.699L1090 231.899L1083.4 233.499L1086.7 252.199Z" fill="#656DD6" />
							<path d="M1080.7 232.999C1080.7 232.999 1084.3 265.699 1082.3 273.299C1081 277.999 1076 275.899 1061.7 309.499L1064.4 311.499C1064.4 311.499 1067.1 301.599 1072.2 293.199C1076 286.899 1084.2 279.999 1086.1 273.299C1089 262.899 1084.8 234.699 1084.8 234.699L1084.9 233.499L1080.7 232.999Z" fill="#656DD6" />
						</g>
					</g>
				</g>
				<g>
					<path d="M1094.9 174.1L1094 166.2C1094 166.2 1095.2 166.2 1098 164.4C1099.5 163.4 1094 145.3 1090.3 145.4C1086.6 145.5 1079.7 151.8 1080.5 156.3C1081.3 160.8 1085.7 164.3 1085.7 164.3L1086.5 170.4" fill="#F7B29A" />
					<path d="M1096.7 173.399C1096.7 173.399 1082.2 164.599 1075.9 164.799C1069.6 164.999 1065.3 175.299 1065.3 182.799C1065.3 190.299 1076.4 193.299 1076.4 193.299" fill="#F07F35" />
					<path d="M1080 171.699C1080 171.699 1072.2 169.299 1069.3 177.199C1066.4 185.099 1069.3 190.999 1072.7 192.099C1076.2 193.199 1080 171.699 1080 171.699Z" fill="#D15F20" />
					<path d="M1084.9 171.4C1084.9 171.4 1072.8 169.1 1072.1 192.4C1071.3 215.8 1080 237.4 1080 237.4L1119 231.8C1119 231.9 1118.2 168.6 1084.9 171.4Z" fill="#F07F35" />
					<path d="M1104.5 197.7L1149.8 190.1V167.3H1104.5V197.7Z" fill="#FEDA8C" />
					<path d="M1112.5 167.3H1104.5V197.7H1112.5V167.3Z" fill="#DEA62C" />
					<g>
						<path d="M1140.5 189.699C1141.9 189.299 1143.6 188.599 1144.9 187.699C1146.1 186.899 1146 185.299 1144.5 185.599C1143 185.899 1139.4 187.099 1137.5 187.999" fill="#F7B29A" />
						<g>
							<path d="M1132.1 189.4C1134.3 189.1 1138.7 187.6 1140.2 187.5C1141.7 187.3 1142.7 189.7 1144 192.1C1145.1 194.1 1144.2 195.9 1141.9 196.4C1140.3 196.8 1133 197.5 1130.5 197.8" fill="#F7B29A" />
							<path d="M1140.6 196.5C1142.9 196.4 1145.1 195.2 1145.8 194.6C1146.6 194 1148.4 192 1147.8 191.2C1147.3 190.6 1146.4 190.8 1145.8 191.6C1145.3 192.2 1144.6 192.8 1143.7 193" fill="#F7B29A" />
							<path d="M1142.9 194.2C1144.7 193.8 1146.9 193.3 1147.7 192.7C1148.5 192.1 1149.5 190.1 1148.8 189.4C1148.2 188.8 1147.7 189.5 1147.2 190.1C1146.7 190.7 1146.4 191.1 1145.5 191.2C1144.6 191.3 1144 191.3 1142.5 191.4" fill="#F7B29A" />
							<path d="M1143.2 192C1145 191.9 1147.9 191.3 1148.7 190.8C1149.5 190.3 1151.3 189.2 1150.7 188.5C1150.3 188 1149.4 188.2 1148.7 188.4C1147 188.8 1143.6 189 1141.6 189" fill="#F7B29A" />
						</g>
					</g>
					<path d="M1080 197.7C1080 197.7 1101.4 209.8 1108.8 209.8C1116.2 209.8 1135.5 196.8 1135.5 196.8L1131.8 189.2L1106.5 195.1L1086.4 187.1" fill="#F07F35" />
					<path d="M1109.2 205.1C1104.4 205.1 1090.4 194.1 1084.6 193.4C1083.3 193.3 1082.1 194.1 1081.8 195.4C1081.5 196.5 1081.6 197.5 1082.4 198.4C1083.2 199.3 1086.8 201.2 1086.8 201.2C1093.7 204.8 1104.2 209.7 1108.9 209.7C1113.9 209.7 1124.2 203.8 1130.5 200C1133.5 198.1 1135.6 196.7 1135.6 196.7L1134.8 195C1134.7 195.1 1114 205.1 1109.2 205.1Z" fill="#D15F20" />
					<path d="M1086.8 154.3C1086.8 154.3 1097.6 150.1 1097.6 142.8C1097.6 135.5 1084.4 137.8 1083.6 145.4C1083.6 145.4 1074.8 147.2 1075.1 154.1C1075.3 161 1083.2 165 1086.4 165C1089.6 165 1086.8 154.3 1086.8 154.3Z" fill="#1F1341" />
					<path d="M1079.4 147.199C1079.4 147.199 1076.7 139.199 1069.7 140.499C1062.6 141.799 1064.4 155.499 1077.1 155.499" fill="#1F1341" />
					<path d="M1094.3 166.199L1092.8 166.399L1094.3 169.099V166.199Z" fill="#D48068" />
				</g>
			</g>
			<path d="M1120.2 191.2C1120.2 191.2 1118.5 189.5 1118.1 190.9C1117.7 192.4 1134.2 248.3 1165.1 273.6C1193.3 296.7 1221.8 302.2 1221.8 302.2" stroke="#1F1341" stroke-width="0.7163" stroke-miterlimit="10" stroke-linecap="round" stroke-linejoin="round" />
			<path d="M1192.5 324.9C1192.1 324 1191.7 323 1191.8 322.7C1192 322.2 1196.7 316.7 1196.7 316.7L1186.9 319.7L1190.4 326.4C1190.6 326.7 1190.9 326.9 1191.2 326.9H1192.1H1193.4H1194.5C1194.5 326.9 1194.6 325.8 1194.3 325.3C1194 324.7 1192.8 324.8 1192.5 324.9Z" fill="#701745" />
			<path d="M1193.4 320.599C1193.4 320.599 1190.9 320.799 1190.3 322.399C1189.7 323.999 1189.8 325.099 1189.8 325.099L1187.4 320.499L1192.3 318.399L1194.3 319.499L1193.4 320.599Z" fill="#5C0A34" />
			<g>
				<g>
					<path d="M1221.4 320.5L1222.8 326.3C1222.9 326.6 1223.2 326.9 1223.5 326.9H1224.8L1225 322.3C1225 321.6 1225.2 320.9 1225.4 320.3L1226.3 316.6" fill="#5C0A34" />
					<path d="M1224.8 324.699C1224.8 324.699 1225.9 324.799 1226.1 325.299C1226.3 325.799 1226.3 326.899 1226.3 326.899H1223.9" fill="#5C0A34" />
				</g>
				<path d="M1185.9 310.7C1183.6 312.7 1182.5 318 1181 319.4C1180.3 320.1 1179.6 321.2 1179.6 324.4V325.9C1179.6 326.5 1180 326.9 1180.6 326.9H1181.9C1181.9 326.9 1182 323 1183.3 322.4C1184.6 321.9 1189.2 319.1 1191.4 319.1C1193.6 319.1 1207 322.9 1210.8 322.9C1214.6 322.9 1227.8 319.8 1227.8 314.2C1227.8 309.5 1228.2 305 1228.2 305L1221.9 302.3C1221.9 302.3 1215.7 308 1210.5 308.6C1205.4 309.1 1188.2 308.6 1185.9 310.7Z" fill="#701745" />
				<path d="M1173.8 297.899C1173.7 297.599 1174.1 297.499 1174.2 297.799C1175.4 300.599 1178.2 305.799 1182.8 307.399C1188 309.199 1190.8 309.499 1190.8 309.499L1184.9 311.699C1184.9 311.699 1178.9 308.499 1176.5 305.099C1175 303.099 1174.2 299.999 1173.8 297.899Z" fill="#701745" />
				<path d="M1228 306.299C1228 306.299 1229.7 303.699 1230.9 303.699C1232.1 303.699 1235.9 304.499 1237.5 304.299C1239.1 304.099 1240.8 303.299 1240.8 302.199C1240.8 301.099 1236 298.199 1236 297.699C1236 297.199 1236.2 293.399 1232.1 293.399C1228 293.399 1225.8 293.499 1225.4 293.899C1225 294.299 1221.4 295.899 1221.4 297.699C1221.4 299.499 1221.8 302.199 1221.8 302.199" fill="#701745" />
				<path d="M1225.9 294.499C1225.7 293.899 1225 293.799 1224.5 294.199C1223 295.499 1220.1 297.999 1220.1 298.699C1220.1 299.599 1223.3 305.199 1224.6 305.199C1225.9 305.199 1228.1 304.999 1228.1 302.199C1228.1 300.199 1226.7 296.399 1225.9 294.499Z" fill="#1F1341" />
				<g>
					<path d="M1219.4 319.1L1220.9 326.2C1221 326.7 1221.4 327 1221.9 327H1222.9L1224 318.3" fill="#701745" />
					<path d="M1222.9 324.7C1222.9 324.7 1224 324.8 1224.2 325.3C1224.4 325.8 1224.4 326.9 1224.4 326.9H1222" fill="#701745" />
				</g>
				<path d="M1182 325.3C1182 325.3 1183.3 325.6 1183.3 326.2C1183.3 326.8 1183.3 327 1183.3 327H1180.9" fill="#701745" />
			</g>
		</g>
		<g class="svgIcon svgIcon10">
			<path d="M1200.5 153.299C1209.23 153.299 1216.3 146.225 1216.3 137.499C1216.3 128.773 1209.23 121.699 1200.5 121.699C1191.77 121.699 1184.7 128.773 1184.7 137.499C1184.7 146.225 1191.77 153.299 1200.5 153.299Z" fill="#DFE1E8" />
			<path d="M1193.3 137.8L1199.8 143.9L1207.7 131.1" stroke="white" stroke-width="2" stroke-miterlimit="10" stroke-linecap="round" stroke-linejoin="round" />
		</g>
		<g class="svgIcon svgIcon3">
			<g>
				<path d="M814.2 122.4V109.8H800.2L794.3 122.4" fill="#A2AFF9" />
				<path d="M802.6 109.8H816.6V122.4V348.7H796.7V122.4L802.6 109.8Z" fill="url(#paint0_linear_102_23505)" />
			</g>
			<g>
				<g>
					<g>
						<g>
							<g>
								<g>
									<path d="M796.622 193.193L930.022 193.193L930.022 188.693L796.622 188.693L796.622 193.193Z" fill="#A2AFF9" />
								</g>
								<path d="M909.9 193.199L924.4 197.199L930.1 197.899V188.699H909.9V193.199Z" fill="#7D84E2" />
							</g>
							<g>
								<g>
									<g>
										<path d="M827.8 116.1H822.9H822.3H817.4C817.4 116.1 812.4 124.4 812.4 129.2C812.4 134 812.6 139.1 813.1 141.6C813.6 144.1 815.3 148.6 815.3 148.6H822.2H822.8H829.7C829.7 148.6 831.4 144.2 831.9 141.6C832.4 139.1 832.6 134 832.6 129.2C832.6 124.4 827.8 116.1 827.8 116.1ZM829.7 130.2C828.7 130.7 826.8 128.7 825.4 125.7C824 122.7 823.8 120 824.8 119.6C825.8 119.2 827.7 121.1 829.1 124.1C830.5 127.1 830.7 129.7 829.7 130.2Z" fill="#76A5D9" />
										<path d="M825.7 111.899H819.6C818.8 111.899 818.2 112.399 818 113.199L817.5 116.099H827.9L827.4 113.199C827.1 112.399 826.5 111.899 825.7 111.899Z" fill="#E30313" />
									</g>
									<path d="M818.3 124.3C818.3 124.3 823.8 133.8 827.8 133.8C831.8 133.8 831.1 143.7 824.2 143.7C817.3 143.7 814.3 138.4 814.3 133.6C814.3 128.8 818.3 124.3 818.3 124.3Z" fill="#A7D07D" />
								</g>
								<g>
									<g>
										<path d="M857.8 116.1H852.9H852.3H847.4C847.4 116.1 842.4 124.4 842.4 129.2C842.4 134 842.6 139.1 843.1 141.6C843.6 144.1 845.3 148.6 845.3 148.6H852.2H852.8H859.7C859.7 148.6 861.4 144.2 861.9 141.6C862.4 139.1 862.6 134 862.6 129.2C862.6 124.4 857.8 116.1 857.8 116.1ZM859.7 130.2C858.7 130.7 856.8 128.7 855.4 125.7C854 122.7 853.8 120 854.8 119.6C855.8 119.2 857.7 121.1 859.1 124.1C860.5 127.1 860.7 129.7 859.7 130.2Z" fill="#76A5D9" />
										<path d="M855.7 111.899H849.6C848.8 111.899 848.2 112.399 848 113.199L847.5 116.099H857.9L857.4 113.199C857.1 112.399 856.5 111.899 855.7 111.899Z" fill="#E30313" />
									</g>
									<path d="M848.3 124.3C848.3 124.3 853.8 133.8 857.8 133.8C861.8 133.8 861.1 143.7 854.2 143.7C847.3 143.7 844.3 138.4 844.3 133.6C844.3 128.8 848.3 124.3 848.3 124.3Z" fill="#A7D07D" />
								</g>
								<g>
									<g>
										<path d="M827.8 157.3H822.9H822.3H817.4C817.4 157.3 812.4 165.6 812.4 170.4C812.4 175.2 812.6 180.3 813.1 182.8C813.6 185.3 815.3 189.8 815.3 189.8H822.2H822.8H829.7C829.7 189.8 831.4 185.4 831.9 182.8C832.4 180.3 832.6 175.2 832.6 170.4C832.6 165.6 827.8 157.3 827.8 157.3ZM829.7 171.3C828.7 171.8 826.8 169.8 825.4 166.8C824 163.8 823.8 161.1 824.8 160.7C825.8 160.3 827.7 162.2 829.1 165.2C830.4 168.1 830.7 170.9 829.7 171.3Z" fill="#76A5D9" />
										<path d="M825.7 153.1H819.6C818.8 153.1 818.2 153.6 818 154.4L817.5 157.3H827.9L827.4 154.4C827.1 153.6 826.5 153.1 825.7 153.1Z" fill="#E30313" />
									</g>
									<path d="M818.3 165.399C818.3 165.399 823.8 174.899 827.8 174.899C831.8 174.899 831.1 184.799 824.2 184.799C817.3 184.799 814.3 179.499 814.3 174.699C814.3 169.799 818.3 165.399 818.3 165.399Z" fill="#A7D07D" />
								</g>
								<g>
									<g>
										<path d="M857.8 157.3H852.9H852.3H847.4C847.4 157.3 842.4 165.6 842.4 170.4C842.4 175.2 842.6 180.3 843.1 182.8C843.6 185.3 845.3 189.8 845.3 189.8H852.2H852.8H859.7C859.7 189.8 861.4 185.4 861.9 182.8C862.4 180.3 862.6 175.2 862.6 170.4C862.6 165.6 857.8 157.3 857.8 157.3ZM859.7 171.3C858.7 171.8 856.8 169.8 855.4 166.8C854 163.8 853.8 161.1 854.8 160.7C855.8 160.3 857.7 162.2 859.1 165.2C860.4 168.1 860.7 170.9 859.7 171.3Z" fill="#76A5D9" />
										<path d="M855.7 153.1H849.6C848.8 153.1 848.2 153.6 848 154.4L847.5 157.3H857.9L857.4 154.4C857.1 153.6 856.5 153.1 855.7 153.1Z" fill="#E30313" />
									</g>
									<path d="M848.3 165.399C848.3 165.399 853.8 174.899 857.8 174.899C861.8 174.899 861.1 184.799 854.2 184.799C847.3 184.799 844.3 179.499 844.3 174.699C844.3 169.799 848.3 165.399 848.3 165.399Z" fill="#A7D07D" />
								</g>
								<g>
									<path d="M796.622 152.338L930.022 152.338L930.022 147.838L796.622 147.838L796.622 152.338Z" fill="#A2AFF9" />
								</g>
								<path d="M909.9 152.3L924.4 156.3L930.1 157V147.8H909.9V152.3Z" fill="#656DD6" />
							</g>
							<g>
								<path d="M796.622 229.294L930.022 229.294L930.022 224.794L796.622 224.794L796.622 229.294Z" fill="#A2AFF9" />
							</g>
							<g>
								<g>
									<g>
										<g>
											<g>
												<path d="M910.309 261.032L925.909 261.032L925.909 238.132L910.309 238.132L910.309 261.032Z" fill="#8856A6" />
											</g>
											<g>
												<path d="M900.309 261.032L915.909 261.032L915.909 238.132L900.309 238.132L900.309 261.032Z" fill="#C28FBF" />
											</g>
										</g>
										<g>
											<g>
												<path d="M877.056 261.032L892.656 261.032L892.656 238.132L877.056 238.132L877.056 261.032Z" fill="#C28FBF" />
												<path d="M892.598 261.032L896.798 261.032L896.798 238.132L892.598 238.132L892.598 261.032Z" fill="#8856A6" />
											</g>
										</g>
										<g>
											<g>
												<path d="M854.26 261.032L869.86 261.032L869.86 238.132L854.26 238.132L854.26 261.032Z" fill="#A7D07D" />
												<path d="M869.802 261.032L874.002 261.032L874.002 238.132L869.802 238.132L869.802 261.032Z" fill="#8856A6" />
											</g>
										</g>
									</g>
									<g>
										<g>
											<g>
												<path d="M854.205 261.032L869.805 261.032L869.805 238.132L854.205 238.132L854.205 261.032Z" fill="#C28FBF" />
											</g>
										</g>
										<g>
											<g>
												<path d="M830.953 261.032L846.552 261.032L846.552 238.132L830.953 238.132L830.953 261.032Z" fill="#C28FBF" />
												<path d="M846.494 261.032L850.694 261.032L850.694 238.132L846.494 238.132L846.494 261.032Z" fill="#8856A6" />
											</g>
										</g>
										<g>
											<g>
												<path d="M808.257 261.032L823.857 261.032L823.857 238.132L808.257 238.132L808.257 261.032Z" fill="#C28FBF" />
												<path d="M823.799 261.032L827.999 261.032L827.999 238.132L823.799 238.132L823.799 261.032Z" fill="#8856A6" />
											</g>
										</g>
									</g>
								</g>
								<path d="M796.622 265.493L930.022 265.493L930.022 260.993L796.622 260.993L796.622 265.493Z" fill="#A2AFF9" />
							</g>
							<g>
								<g>
									<g>
										<g>
											<g>
												<path d="M910.309 224.896L925.909 224.896L925.909 201.996L910.309 201.996L910.309 224.896Z" fill="#8856A6" />
											</g>
											<g>
												<path d="M900.309 224.896L915.909 224.896L915.909 201.996L900.309 201.996L900.309 224.896Z" fill="#C28FBF" />
											</g>
										</g>
										<g>
											<g>
												<path d="M877.056 224.896L892.656 224.896L892.656 201.996L877.056 201.996L877.056 224.896Z" fill="#C28FBF" />
												<path d="M892.598 224.896L896.798 224.896L896.798 201.996L892.598 201.996L892.598 224.896Z" fill="#8856A6" />
											</g>
										</g>
										<g>
											<g>
												<path d="M854.26 224.896L869.86 224.896L869.86 201.996L854.26 201.996L854.26 224.896Z" fill="#A7D07D" />
												<path d="M869.802 224.896L874.002 224.896L874.002 201.996L869.802 201.996L869.802 224.896Z" fill="#8856A6" />
											</g>
										</g>
									</g>
									<g>
										<g>
											<g>
												<path d="M854.205 224.896L869.805 224.896L869.805 201.996L854.205 201.996L854.205 224.896Z" fill="#C28FBF" />
											</g>
										</g>
										<g>
											<g>
												<path d="M830.953 224.896L846.552 224.896L846.552 201.996L830.953 201.996L830.953 224.896Z" fill="#C28FBF" />
												<path d="M846.494 224.896L850.694 224.896L850.694 201.996L846.494 201.996L846.494 224.896Z" fill="#8856A6" />
											</g>
										</g>
										<g>
											<g>
												<path d="M808.257 224.896L823.857 224.896L823.857 201.996L808.257 201.996L808.257 224.896Z" fill="#C28FBF" />
												<path d="M823.799 224.896L827.999 224.896L827.999 201.996L823.799 201.996L823.799 224.896Z" fill="#8856A6" />
											</g>
										</g>
									</g>
								</g>
								<path d="M796.622 229.356L930.022 229.356L930.022 224.856L796.622 224.856L796.622 229.356Z" fill="#A2AFF9" />
							</g>
							<g>
								<g>
									<g>
										<g>
											<path d="M910.309 299.386L925.909 299.386L925.909 276.486L910.309 276.486L910.309 299.386Z" fill="#8856A6" />
										</g>
										<g>
											<path d="M900.309 299.386L915.909 299.386L915.909 276.486L900.309 276.486L900.309 299.386Z" fill="#C28FBF" />
										</g>
									</g>
									<g>
										<g>
											<path d="M877.056 299.386L892.656 299.386L892.656 276.486L877.056 276.486L877.056 299.386Z" fill="#C28FBF" />
											<path d="M892.598 299.386L896.798 299.386L896.798 276.486L892.598 276.486L892.598 299.386Z" fill="#8856A6" />
										</g>
									</g>
									<g>
										<g>
											<path d="M854.26 299.386L869.86 299.386L869.86 276.486L854.26 276.486L854.26 299.386Z" fill="#A7D07D" />
											<path d="M869.802 299.386L874.002 299.386L874.002 276.486L869.802 276.486L869.802 299.386Z" fill="#8856A6" />
										</g>
									</g>
								</g>
								<g>
									<g>
										<g>
											<path d="M854.205 299.386L869.805 299.386L869.805 276.486L854.205 276.486L854.205 299.386Z" fill="#C28FBF" />
										</g>
									</g>
									<g>
										<g>
											<path d="M830.953 299.386L846.552 299.386L846.552 276.486L830.953 276.486L830.953 299.386Z" fill="#C28FBF" />
											<path d="M846.494 299.386L850.694 299.386L850.694 276.486L846.494 276.486L846.494 299.386Z" fill="#8856A6" />
										</g>
									</g>
									<g>
										<g>
											<path d="M808.257 299.386L823.857 299.386L823.857 276.486L808.257 276.486L808.257 299.386Z" fill="#C28FBF" />
											<path d="M823.799 299.386L827.999 299.386L827.999 276.486L823.799 276.486L823.799 299.386Z" fill="#8856A6" />
										</g>
									</g>
								</g>
							</g>
							<g>
								<path d="M796.622 301.594L930.022 301.594L930.022 297.094L796.622 297.094L796.622 301.594Z" fill="#A2AFF9" />
							</g>
							<path d="M922.364 348.625L942.264 348.625L942.264 153.225L922.364 153.225L922.364 348.625Z" fill="#888FA6" />
							<path d="M919.892 324.949L922.292 324.949L922.292 122.349L919.892 122.349L919.892 324.949Z" fill="#A2AFF9" />
							<path d="M794.242 348.612L796.643 348.612L796.643 122.312L794.242 122.312L794.242 348.612Z" fill="#A2AFF9" />
							<path d="M796.445 348.663L942.245 348.663L942.245 319.163L796.445 319.163L796.445 348.663Z" fill="#A2AFF9" />
							<path d="M796.4 348.699H942.2V322.499H796.4V348.699Z" fill="url(#paint1_linear_102_23505)" />
							<path d="M922.364 348.663L942.264 348.663L942.264 319.163L922.364 319.163L922.364 348.663Z" fill="#656DD6" />
						</g>
						<path d="M909.9 229.299L924.4 233.299L930.1 233.999V224.899H909.9V229.299Z" fill="#656DD6" />
						<path d="M909.9 265.499L924.4 269.499L930.1 270.199V260.999H909.9V265.499Z" fill="#656DD6" />
						<path d="M909.9 301.599L924.4 305.599L930.1 306.299V297.199H909.9V301.599Z" fill="#656DD6" />
					</g>
					<g>
						<path d="M939.9 122.4V109.8H925.9L920 122.4" fill="#A2AFF9" />
						<path d="M928.3 109.8H942.2V122.4V348.7H922.3V122.4L928.3 109.8Z" fill="url(#paint2_linear_102_23505)" />
					</g>
				</g>
				<g>
					<g>
						<g>
							<path d="M860.752 188.732L876.352 188.732L876.352 165.832L860.752 165.832L860.752 188.732Z" fill="#FEDA8C" />
							<path d="M876.294 188.732L880.494 188.732L880.494 165.832L876.294 165.832L876.294 188.732Z" fill="#F7C559" />
						</g>
						<path d="M860.826 178.873L880.526 178.873L880.526 173.973L860.826 173.973L860.826 178.873Z" fill="#E30313" />
						<path d="M876.294 178.873L880.494 178.873L880.494 173.973L876.294 173.973L876.294 178.873Z" fill="#AD1917" />
						<path d="M876.294 178.873L880.494 178.873L880.494 173.973L876.294 173.973L876.294 178.873Z" fill="#AD1917" />
					</g>
				</g>
			</g>
			<g>
				<g>
					<path d="M821.3 198.6C822.7 198.4 824.6 198 826 197.4C827.3 196.8 827.4 195.3 826 195.3C824.5 195.3 820.7 195.9 818.7 196.4" fill="#F7B29A" />
					<g>
						<path d="M813 196.8C815.2 196.9 819.8 196.2 821.4 196.3C822.9 196.4 823.5 198.9 824.3 201.4C825 203.6 823.9 205.2 821.5 205.3C819.8 205.4 812.5 204.8 810 204.7" fill="#F7B29A" />
						<path d="M820.2 205.3C822.4 205.6 824.8 204.8 825.7 204.3C826.6 203.8 828.7 202.2 828.3 201.3C827.9 200.6 827 200.7 826.3 201.4C825.7 201.9 824.9 202.4 823.9 202.4" fill="#F7B29A" />
						<path d="M822.9 203.4C824.7 203.3 827 203.2 827.9 202.8C828.8 202.4 830.2 200.5 829.6 199.8C829.1 199.1 828.5 199.7 827.9 200.2C827.3 200.7 826.9 201.1 826 201C825.1 201 824.5 200.9 823 200.6" fill="#F7B29A" />
						<path d="M823.6 201.3C825.4 201.5 828.3 201.4 829.2 201.1C830.1 200.8 832 200 831.6 199.2C831.3 198.6 830.4 198.7 829.6 198.7C827.8 198.8 824.4 198.4 822.5 198" fill="#F7B29A" />
					</g>
				</g>
				<g>
					<g>
						<g>
							<g>
								<path d="M985.8 300.2L958 311C957.1 311.3 956.1 310.9 955.8 310C955.5 309.1 955.9 308.1 956.8 307.8L984.6 297C985.5 296.7 986.5 297.1 986.8 298C987.2 298.9 986.7 299.8 985.8 300.2Z" fill="#E30313" />
								<path d="M1013.7 310.7L992.6 289.6C991.9 288.9 991.9 287.9 992.6 287.2C993.3 286.5 994.3 286.5 995 287.2L1016.1 308.3C1016.8 309 1016.8 310 1016.1 310.7C1015.4 311.4 1014.4 311.4 1013.7 310.7Z" fill="#E30313" />
								<g>
									<path d="M1013 307.399H958.4C956.1 307.399 954.5 309.599 955.1 311.999L961 335.499C961.4 337.099 962.9 338.299 964.5 338.299H1007.7C1009.4 338.299 1010.9 337.099 1011.2 335.399L1016.3 311.899C1016.8 309.499 1015.2 307.399 1013 307.399ZM967.8 333.499C967.2 333.499 966.6 333.099 966.4 332.499L962.5 316.099C962.3 315.299 962.8 314.699 963.6 314.699C964.4 314.699 965.1 315.399 965.3 316.099L968.8 332.499C968.8 332.999 968.4 333.499 967.8 333.499ZM975 333.499C974.4 333.499 973.8 333.099 973.7 332.499L971.3 316.099C971.2 315.299 971.7 314.699 972.5 314.699C973.3 314.699 974 315.399 974.1 316.099L976.1 332.499C976 332.999 975.6 333.499 975 333.499ZM982.1 333.499C981.5 333.499 980.9 333.099 980.9 332.499L979.9 316.099C979.9 315.299 980.4 314.699 981.2 314.699C982 314.699 982.6 315.399 982.6 316.099L983.1 332.499C983.3 332.999 982.8 333.499 982.1 333.499ZM990.5 332.499C990.5 332.999 989.9 333.499 989.3 333.499C988.7 333.499 988.2 333.099 988.2 332.499L988.7 316.099C988.7 315.299 989.4 314.699 990.1 314.699C990.9 314.699 991.5 315.399 991.4 316.099L990.5 332.499ZM997.8 332.499C997.7 332.999 997.1 333.499 996.5 333.499C995.9 333.499 995.4 333.099 995.5 332.499L997.5 316.099C997.6 315.299 998.3 314.699 999.1 314.699C999.9 314.699 1000.4 315.399 1000.3 316.099L997.8 332.499ZM1009 316.099L1005.1 332.499C1005 332.999 1004.4 333.499 1003.7 333.499C1003.1 333.499 1002.7 333.099 1002.8 332.499L1006.3 316.099C1006.5 315.299 1007.2 314.699 1008 314.699C1008.7 314.699 1009.2 315.299 1009 316.099Z" fill="#E30313" />
									<path d="M1013.3 325.499L1007 324.299L1005 332.499C1004.9 332.999 1004.3 333.499 1003.6 333.499C1003 333.499 1002.6 333.099 1002.7 332.499L1004.5 323.899L999.1 322.899L997.7 332.499C997.6 332.999 997 333.499 996.4 333.499C995.8 333.499 995.3 333.099 995.4 332.499L996.6 322.399L991.1 321.399L990.4 332.499C990.4 332.999 989.8 333.499 989.2 333.499C988.6 333.499 988.1 333.099 988.1 332.499L988.5 320.899L982.8 319.799L983.2 332.499C983.2 332.999 982.7 333.499 982.1 333.499C981.5 333.499 980.9 333.099 980.9 332.499L980.1 319.299L974.2 318.199L975.9 332.499C976 332.999 975.5 333.499 974.9 333.499C974.3 333.499 973.7 333.099 973.6 332.499L971.4 317.599L965.3 316.399L968.7 332.399C968.8 332.899 968.4 333.399 967.8 333.399C967.2 333.399 966.6 332.999 966.4 332.399L962.5 315.999C962.5 315.899 962.5 315.899 962.5 315.799L955.8 314.499L961.6 336.599C962.3 337.499 963.3 338.099 964.5 338.099H1007.7C1008.5 338.099 1009.3 337.799 1009.9 337.299L1013.3 325.499Z" fill="#AD1917" />
								</g>
							</g>
							<g>
								<path d="M1011.4 341.6H961C959.9 341.6 959.1 340.7 959.1 339.7C959.1 338.6 960 337.8 961 337.8H1011.4C1012.5 337.8 1013.3 338.7 1013.3 339.7C1013.3 340.7 1012.5 341.6 1011.4 341.6Z" fill="#701745" />
								<g>
									<path d="M965.6 348.9C967.643 348.9 969.3 347.243 969.3 345.2C969.3 343.157 967.643 341.5 965.6 341.5C963.557 341.5 961.9 343.157 961.9 345.2C961.9 347.243 963.557 348.9 965.6 348.9Z" fill="#1F1341" />
									<path d="M1006.9 348.9C1008.94 348.9 1010.6 347.243 1010.6 345.2C1010.6 343.157 1008.94 341.5 1006.9 341.5C1004.86 341.5 1003.2 343.157 1003.2 345.2C1003.2 347.243 1004.86 348.9 1006.9 348.9Z" fill="#1F1341" />
								</g>
							</g>
						</g>
					</g>
					<g>
						<path d="M873.3 339.899V346.299C873.3 347.699 872.2 348.899 870.7 348.899H852.5C851.4 348.899 850.8 347.499 851.6 346.699C852.4 345.899 856 343.999 858.6 342.899C864.2 340.599 866.8 340.399 866.8 340.399L873.3 339.899Z" fill="#1F1341" />
						<path d="M862.3 225.299V341.799H873.4C873.4 341.799 883.1 306.999 881.4 289.099C879.7 271.199 891.1 225.199 891.1 225.199H862.3V225.299Z" fill="#A7D07D" />
						<path d="M877.9 249.6L880.9 282.8L887.2 260.4L877.9 249.6Z" fill="#61A61C" />
						<path d="M905.6 336.899L906.6 343.199C906.8 344.599 905.9 345.899 904.5 346.099L886.5 348.799C885.4 348.999 884.6 347.699 885.3 346.799C886 345.899 889.3 343.499 891.7 341.999C896.9 338.899 899.4 338.299 899.4 338.299L905.6 336.899Z" fill="#1F1341" />
						<path d="M876.7 243.7L895.4 339.9L906 338.1C906 338.1 909.4 316.2 907 299.1C904.9 284.3 902.1 279.5 902.1 269.1C902.1 258.6 908.8 222.6 901.7 219.2C894.6 215.9 876.7 243.7 876.7 243.7Z" fill="#A7D07D" />
						<path d="M907 299.1C904.9 284.3 902.1 279.5 902.1 269.1C902.1 260.9 906.2 236.8 904.5 225.3L899.6 235.1C899.6 235.1 896.4 266.5 897.8 273.4C899.2 280.3 903.3 289.7 904.2 303.1C905.1 316.5 903.1 338.6 903.1 338.6L905.8 338.1C906 338.1 909.4 316.2 907 299.1Z" fill="#61A61C" />
						<path d="M876.3 164.5V153.6L885.7 147.6L887.3 165.1L876.3 164.5Z" fill="#F7B29A" />
						<path d="M875.4 161.6V158L887.7 157.5L888.7 161.6" fill="#FEDA8C" />
						<path d="M906.3 164.2C906.3 164.2 902.1 162.3 893.7 161.1C889 160.5 881.3 160.6 876.7 160.7C863.4 161.1 862.7 174.6 862.3 184.6C861.9 194.6 865 225.1 865 225.1L892.2 226.3L906.3 164.2Z" fill="#FEDA8C" />
						<path d="M872.3 163.199C872.3 163.199 863.8 216.099 865 225.199H862.3L864.1 193.499L872.3 163.199Z" fill="#DEA62C" />
						<path d="M822.7 158.3C821 155.1 819.7 153.5 819 153.1C818.3 152.7 817.5 152.9 817.5 152.9C817.5 152.9 816.7 151.5 816.4 151C816 150.4 815.5 150.2 815.1 150.2C814.7 150.2 814.6 150.2 814.6 150.2C814.6 150.2 813.9 149.3 812.8 149.5C811.4 149.7 814.7 158.5 815.6 160.6L815.4 161.2C814.8 160.9 813.4 160.1 812.6 159.6C811.8 159.1 811.3 160.3 812.1 161.6C812.8 162.9 819.9 169.3 820.6 169.8C821.3 170.3 823.3 171 823.3 171L824.7 171.2L828.9 166.8C828.9 167 824.4 161.6 822.7 158.3Z" fill="#F7B29A" />
						<path d="M819.4 170.5L827.7 164.5L846.9 183.8L865.6 163.6L861.3 192.2C861.3 192.2 850.3 204.2 845.5 202.8C838.4 200.6 819.4 170.5 819.4 170.5Z" fill="#FEDA8C" />
						<path d="M846.9 198.8C841.9 198.8 824 175.2 820.2 170L819.4 170.6C819.4 170.6 838.4 200.7 845.5 202.8C849.2 203.9 856.7 196.9 859.8 193.7V184.4C859.8 184.4 852.4 198.8 846.9 198.8Z" fill="#DEA62C" />
						<path d="M872.9 161.1C872.9 161.1 867.5 181.4 865.9 199.2C864.5 214.1 864.9 227.2 865.2 232.6C865.3 234 864.2 235.1 862.8 235.1H857.6C856.7 235.1 856 234.4 855.9 233.5C855.5 225.8 854.2 191.3 862.4 166.9C863.8 162.6 872.9 161.1 872.9 161.1Z" fill="#E30313" />
						<path d="M896.8 172C896.8 172 899 183.5 902.2 186.9C905.4 190.3 905.4 190.2 905.4 190.2V194.1L895.7 194.9L892.2 175.3" fill="#DEA62C" />
						<path d="M897.9 184.8C894.8 175 900.2 162.1 900.2 162.1C896.1 161.4 891.2 160.6 889.9 160.6C887.2 160.6 881.5 179.6 881.3 191.5C881.2 201 881.7 223.5 881.9 231.9C881.9 233.7 883.4 235.1 885.2 235.1H905.3C906.7 235.1 907.8 234 907.7 232.6L906.8 195.3C904.9 195.2 900.7 193.7 897.9 184.8Z" fill="#E30313" />
						<path d="M881.7 219.699C881.7 219.699 892.3 217.899 899.3 221.299C905 223.999 907.6 229.199 907.6 229.199L907 207.899L881.6 213.599V218.199" fill="#990D0D" />
						<g>
							<path d="M869.4 214.099C868 214.199 866.2 214.199 864.8 213.799C863.5 213.499 863.1 212.099 864.4 211.799C865.8 211.599 869.5 211.399 871.5 211.599" fill="#F7B29A" />
							<g>
								<path d="M876.8 210.899C874.7 211.399 870.3 211.599 868.9 211.899C867.5 212.199 867.4 214.699 867.1 217.199C866.8 219.399 868.2 220.699 870.4 220.299C872 220.099 878.7 218.299 881.1 217.599" fill="#F7B29A" />
								<path d="M871.6 220.199C869.5 220.899 867.2 220.599 866.3 220.299C865.4 219.999 863.1 218.799 863.4 217.999C863.6 217.299 864.5 217.199 865.3 217.699C865.9 218.099 866.8 218.399 867.7 218.199" fill="#F7B29A" />
								<path d="M868.7 218.799C867 219.099 864.8 219.399 863.9 219.099C863 218.899 861.4 217.399 861.8 216.599C862.1 215.899 862.8 216.299 863.5 216.699C864.2 217.099 864.6 217.299 865.4 217.099C866.2 216.899 866.8 216.699 868.1 216.199" fill="#F7B29A" />
								<path d="M867.7 216.999C866 217.499 863.3 217.899 862.4 217.799C861.5 217.699 859.6 217.299 859.9 216.399C860.1 215.799 860.9 215.699 861.7 215.599C863.4 215.299 866.5 214.399 868.2 213.699" fill="#F7B29A" />
							</g>
						</g>
						<path d="M898.9 168.5C899.6 163.7 904.3 162.3 908.5 165.4C909.8 166.4 912.4 168.3 913.4 171.5C916.1 180.2 920.9 202.8 916.1 208.8C912 214 877.9 218.9 877.9 218.9L876.9 210.8C876.9 210.8 893 200.8 904.5 199.9C904.5 200 897.2 178.9 898.9 168.5Z" fill="#FEDA8C" />
						<path d="M913.3 171.599C913.1 170.899 912.8 170.099 912.4 169.499C911.8 169.299 910.3 169.199 909.3 171.699C907.2 177.099 917.7 199.799 913 205.799C909 210.899 877.6 217.599 877.6 217.599L877.8 219.099C877.8 219.099 911.9 214.199 916 208.999C916.7 208.099 917.2 206.699 917.6 204.999C917.6 204.899 917.6 204.799 917.6 204.699C917.6 204.499 917.7 204.299 917.7 204.099C919.1 194.799 915.5 178.599 913.3 171.599Z" fill="#DEA62C" />
						<path d="M876.6 126.5C876.6 126.5 873.5 136.7 877.4 137.5C881.3 138.3 884.8 126.5 884.8 126.5" fill="#F07F35" />
						<path d="M880.1 150.6C880.1 150.6 881.3 155.9 876.2 156.5V152.5L880.1 150.6Z" fill="#D48068" />
						<path d="M879 128.3C879 128.3 875.2 133.3 873 139.9C870.5 147.7 870.2 152.9 874.2 154.4C876.5 155.3 881.3 155.3 883.5 154.3C884.5 153.9 885 155.4 885 155.4L890.8 147.2L892.2 137.7L879 128.3Z" fill="#F7B29A" />
						<path d="M886.3 153.6C886.3 153.6 896.5 143.5 898.8 139.9C901.5 135.8 899.6 125.4 889 127.2C889 127.2 888.6 121.3 883 119.8C877.2 118.2 875 122.4 875.3 126.2C875.6 130 886.1 135.7 886.1 135.7C886.1 135.7 883.8 140.2 885.6 142C886.9 143.3 885.5 149 885.5 149.9C885.6 150.9 886.3 153.6 886.3 153.6Z" fill="#F07F35" />
						<path d="M884.4 142.499C884.4 142.499 887.2 140.899 888.1 143.099C889 145.299 886.3 148.199 883.1 147.599" fill="#F7B29A" />
					</g>
					<g>
						<g>
							<g>
								<path d="M694.3 247.999L677.7 292.499C676.5 295.599 674.7 298.499 672.4 300.899L639 335.599L634.1 332.699C634.1 332.699 636.3 328.299 638.7 323.399C641.2 318.499 644 313.099 645.2 310.999C647.7 306.899 649.9 304.299 652.9 299.599C654.6 296.999 664.2 286.399 664.2 286.399L673 242.899" fill="#F7B29A" />
								<g>
									<path d="M634.1 332.6L632.7 334.3C632.1 335 632.4 336 633.2 336.5L646.6 344.7C647.3 345.1 648.2 344.6 647.9 343.9C647.7 343.3 647.3 342.6 646.7 341.7C644.9 339.1 640.3 333.5 640.3 333.5L634.1 332.6Z" fill="#1F1341" />
									<path d="M645.2 339.7C644.1 339.6 642.7 339.5 641.7 338.9C639.9 337.9 634 332.6 634 332.6L637 326.6L640.6 334C640.7 334 643.1 337 645.2 339.7Z" fill="#F7B29A" />
								</g>
							</g>
							<path d="M680.9 282.5L666.4 276.8L666.1 277.5L664.3 286.5C664.3 286.5 654.8 297.1 653 299.7C652.6 300.3 652.2 300.9 651.8 301.5C651.8 301.5 664.5 291.6 669.3 290.3C674.1 288.9 678.4 291 678.4 291C679.3 287.9 680.9 282.5 680.9 282.5Z" fill="#D48068" />
							<g>
								<path d="M703.9 277.8L698.8 345.2L692.9 345.3C692.9 345.3 688.1 326.3 687.4 321.7C686.7 317.1 687 309.8 687.5 306.9C688 304 687.5 291.2 687.5 291.2" fill="#F7B29A" />
								<path d="M696.4 289C696.4 289 690.9 300.5 690.9 319.9C690.9 330 691.9 341.2 691.9 341.2C690.4 335.4 687.9 325 687.4 321.7C686.7 317.1 687 309.8 687.5 306.9C687.8 305.2 687.6 290.9 687.5 287L696.4 289Z" fill="#D48068" />
								<g>
									<path d="M692.8 345.2V347.3C692.8 348.1 693.6 348.8 694.7 348.8H710.9C711.8 348.8 712.1 347.9 711.5 347.5C710.9 347.1 710.1 346.7 709 346.3C705.8 345.1 698.4 342.7 698.4 342.7L692.8 345.2Z" fill="#1F1341" />
									<path d="M706.5 345.4C705.6 345.9 704.3 346.5 703.2 346.5C701 346.6 692.9 345.2 692.9 345.2L691.9 341.2L698.4 342.8C698.4 342.8 703 344.2 706.5 345.4Z" fill="#F7B29A" />
								</g>
							</g>
						</g>
						<path d="M685.8 207.9C685.8 207.9 670.7 221.8 663.9 241.6C657.1 261.4 654.9 287.6 654.9 287.6C654.9 287.6 676.6 288.8 688.8 289.3C701 289.8 704.5 289.1 704.5 289.1C704.5 289.1 710.6 216.4 705.9 210.9C701.3 205.3 685.8 207.9 685.8 207.9Z" fill="#C28FBF" />
						<path d="M693.9 220.9C693.9 220.9 677.1 219.7 667.8 232.5C667.8 232.5 679.8 207.9 688.2 211.4C696.7 214.8 693.9 220.9 693.9 220.9Z" fill="#8856A6" />
						<path d="M684.3 151.3C684.3 151.3 668.3 156.4 665.8 161.6C663.6 166.1 666.7 169.9 665 174.7C662.8 180.8 654.9 182.1 654.9 188.5C654.9 194.9 665.1 202.6 674.9 194.9C684.7 187.1 689.8 170.5 689.8 170.5L690.6 158.7" fill="#701745" />
						<path d="M680.3 213.8C673.8 199.5 669.7 178.3 673.2 173.3C675 170.7 681 167.5 686 166C688.5 165.2 688.8 164.6 692 165.2C694.2 165.6 694.3 168.7 695.9 170.4C701.6 176.1 705.8 185.2 705.3 187.7C704.6 190.8 707.6 223 707.6 223" fill="#C28FBF" />
						<path d="M683.5 184.5C683.5 184.5 687.8 189 690.6 193.9C693.4 198.8 687.3 200.8 687.3 200.8L683.5 184.5Z" fill="#8856A6" />
						<path d="M682.7 209L700.1 171.6L722.8 173.2L733.5 184.5L714.4 223.9L682.7 209Z" fill="#A7D07D" />
						<path d="M714.4 223.899L684.6 219.499L685.5 215.399H708.1L714.4 223.899Z" fill="#61A61C" />
						<g>
							<g>
								<path d="M718.9 207.2C720.1 206.7 721.6 205.8 722.7 204.9C723.7 204.1 723.4 202.7 722.1 203.1C720.8 203.5 717.6 205 716 206" fill="#F7B29A" />
								<g>
									<path d="M711.3 207.8C713.3 207.3 717.1 205.5 718.5 205.2C719.9 204.9 721 206.9 722.4 208.9C723.6 210.6 723 212.3 721 213C719.6 213.5 714.1 214.3 710.8 214.3" fill="#F7B29A" />
									<path d="M719.8 213.4C721.8 213.1 723.7 211.7 724.3 211.1C724.9 210.5 726.4 208.5 725.7 207.8C725.2 207.3 724.4 207.6 724 208.4C723.6 209 723 209.7 722.2 209.9" fill="#F7B29A" />
									<path d="M721.6 211C723.2 210.5 725.2 209.8 725.8 209.2C726.4 208.6 727.2 206.6 726.5 206.1C725.9 205.7 725.5 206.3 725.1 206.9C724.7 207.5 724.5 207.9 723.7 208.1C722.9 208.3 722.4 208.4 721 208.6" fill="#F7B29A" />
									<path d="M721.7 209C723.3 208.7 725.8 207.8 726.5 207.3C727.2 206.8 728.7 205.6 728 205C727.6 204.6 726.8 204.9 726.2 205.1C724.7 205.6 721.6 206.2 719.9 206.4" fill="#F7B29A" />
								</g>
							</g>
							<path d="M684 178.5C684 178.5 677.3 168.6 673.2 173.2C671.2 175.5 670.2 178 670.1 181.8C670 193.4 675.4 212.9 676.5 215C677.7 217.4 691.9 217.7 697.6 217.5C703.1 217.3 714.2 215.3 714.2 215.3L714 206.6L687.8 203.2L684.8 182.3L684 178.5Z" fill="#C28FBF" />
							<path d="M682.3 211C674.5 207.1 677.4 176.1 673.1 176.4C671.7 176.5 670.8 178.4 670.2 180.8C670.2 181.1 670.2 181.5 670.2 181.8C670.2 186.4 670.9 192.3 671.8 197.9C673.5 206.2 675.9 213.7 676.6 215C677.8 217.4 692 217.7 697.7 217.5C703.2 217.3 714.3 215.3 714.3 215.3V214.7C706.3 215 688.2 214 682.3 211Z" fill="#8856A6" />
						</g>
						<g>
							<path d="M756 339.899V346.299C756 347.699 757.1 348.899 758.6 348.899H776.8C777.9 348.899 778.5 347.499 777.7 346.699C776.9 345.899 773.3 343.999 770.7 342.899C765.1 340.599 762.5 340.399 762.5 340.399L756 339.899Z" fill="#1F1341" />
							<g>
								<path d="M714.3 332.3L711.7 338.2C711.1 339.5 711.7 341 713 341.6L729.7 348.8C730.7 349.3 731.8 348.2 731.4 347.2C731 346.1 728.4 343 726.4 340.9C722.2 336.6 719.9 335.4 719.9 335.4L714.3 332.3Z" fill="#1F1341" />
								<path d="M727.9 219.5C727.9 219.5 732.2 271.5 733.3 279C733.3 279 724.1 294.2 720.7 304.9C717.3 315.6 712.6 333.2 712.6 333.2L723.7 338.5C723.7 338.5 754.1 282.6 754.1 275.5C754.1 268.4 752.8 220.9 752.8 220.9" fill="#54579C" />
								<path d="M742.8 244.3C742.8 244.3 738.4 251.8 740.7 262.9C743 274 743.7 280.7 743.5 285.8C743.3 290.9 719.7 336.6 719.7 336.6L723.6 338.5L763.1 271.7L745.3 247L742.8 244.3Z" fill="#322767" />
								<path d="M769 223.499L771.7 282.699L767.3 341.599L754.6 341.899C754.6 341.899 752.8 289.299 751.7 285.899C745.8 267.399 742.6 245.499 742.6 236.399C742.6 228.999 743.2 220.699 752.7 220.699C762.2 220.699 769 223.499 769 223.499Z" fill="#54579C" />
								<path d="M744.3 156.5L746 147.1L757.9 148.3L756.4 160.3L744.3 156.5Z" fill="#F7B29A" />
								<g>
									<path d="M730.3 158.499C730.3 158.499 712.9 183.899 711.6 189.299C710.3 194.699 717.9 201.399 721.6 205.699C725.3 210.099 730.5 214.199 730.5 214.199" fill="#DEA62C" />
									<path d="M746.6 155.399C746.6 155.399 735.3 153.799 730.8 157.899C726.3 161.999 724.3 182.899 725.5 192.799C726.7 202.699 728.3 225.599 728.3 225.599L766.9 223.499C766.9 223.499 772.2 199.399 774.4 181.699C776.7 163.399 768.3 160.999 762.5 158.999C756.1 156.899 746.6 155.399 746.6 155.399Z" fill="#FEDA8C" />
									<path d="M761.6 184.699C761.6 184.699 771.1 200.999 779.6 204.099C785.7 206.399 813.5 205.699 813.5 205.699V195.599L784.9 189.299C784.9 189.299 776.7 164.799 767.5 161.199" fill="#FEDA8C" />
									<path d="M761.5 176.499C761 177.299 761.6 186.099 767.7 194.399C770.9 199.199 775.2 202.599 779.5 204.199C785.6 206.499 813.4 205.799 813.4 205.799V203.199C813.4 203.199 785 202.999 779.5 199.799C775.4 197.399 769.6 189.999 766.4 183.799C765.3 181.499 762.6 174.699 761.5 176.499Z" fill="#DEA62C" />
									<path d="M770.9 203.499C770.9 203.499 764.8 218.799 755.3 224.099L769 223.499C769 223.499 770.2 207.199 770.9 203.499Z" fill="#DEA62C" />
								</g>
								<path d="M756.3 150.7L757.2 154L757.7 149.5L754.8 149.8" fill="#D48068" />
								<path d="M756.3 123C756.3 123 762.9 122.8 764 126.8C765.1 130.8 761.3 133.7 761.3 133.7" fill="#1F1341" />
								<path d="M754.5 151.1C754.5 151.1 757.8 151.6 759.8 151C761.8 150.4 764.9 126.6 759.2 126.8C753.5 127 749.3 130.3 747.8 135C746.2 139.7 747.1 151.5 747.1 151.5L754.5 151.1Z" fill="#F7B29A" />
								<path d="M751.7 122.1C751.8 122.1 751.9 122.1 751.9 122.1C760.3 122.1 762.2 127.2 762.2 129.9C762.2 133.1 753.5 138.7 753.4 140.8C753.3 142.9 752.9 152.4 746.8 152.4C740.6 152.4 736.9 148.7 736.9 142.1C737 128.6 746.4 122.2 751.7 122.1Z" fill="#1F1341" />
								<path d="M755.5 140.499C755.5 140.499 754.2 137.399 752.3 139.099C750.4 140.799 751.2 145.199 754.5 145.599" fill="#F7B29A" />
							</g>
						</g>
						<path d="M686 165.899L686.9 156.399L695.9 158.499V170.299C696 170.399 691 165.799 686 165.899Z" fill="#F7B29A" />
						<path d="M693.9 160.9C693.9 160.9 699.8 159.6 701.9 157.3C703.6 155.3 698 135.3 694.6 135.3C689.5 135.3 682.7 148.6 682.7 148.6C682.7 148.6 686.3 157.5 689 159.8C691.6 162 693.9 160.9 693.9 160.9Z" fill="#F7B29A" />
						<path d="M678.3 154.2C678.3 154.2 671.1 141.9 678.5 135.3C685.4 129.2 693.6 133.8 695.5 135.3C697.4 136.8 697.6 138.2 697.6 138.2C697.6 138.2 696.1 145.6 692.1 148.6C691.4 149.1 691.7 150.8 691.3 151.5C689.6 154.5 687.8 156.9 686.2 157.6C681.7 159.6 685 155.7 685 155.7L678.3 154.2Z" fill="#701745" />
						<path d="M694.5 145.8C694.5 145.8 704.4 136.8 700.3 132.8C696.1 128.9 692.8 134.3 692.8 134.3" fill="#701745" />
						<path d="M696 160.399V164.799L693.9 160.899L696 160.399Z" fill="#D48068" />
						<path d="M692.2 148.8C692.2 148.8 689.1 147.2 688.1 149.6C687.1 152 691.5 153.6 691.5 153.6" fill="#F7B29A" />
					</g>
				</g>
			</g>
		</g>
		<g class="svgIcon svgIcon2">
			<path d="M496.316 302.388C488.35 302.388 481.27 300.323 475.074 296.192C468.879 291.963 464.011 285.965 460.471 278.196C456.93 270.328 455.16 260.887 455.16 249.873C455.16 238.859 456.93 229.467 460.471 221.698C464.011 213.831 468.879 207.832 475.074 203.701C481.27 199.473 488.35 197.358 496.316 197.358C504.282 197.358 511.363 199.473 517.558 203.701C523.754 207.832 528.622 213.831 532.162 221.698C535.801 229.467 537.62 238.859 537.62 249.873C537.62 260.887 535.801 270.328 532.162 278.196C528.622 285.965 523.754 291.963 517.558 296.192C511.363 300.323 504.282 302.388 496.316 302.388ZM496.316 292.652C502.413 292.652 507.724 291.029 512.248 287.784C516.771 284.44 520.312 279.622 522.869 273.328C525.425 266.935 526.704 259.117 526.704 249.873C526.704 240.629 525.425 232.86 522.869 226.566C520.312 220.174 516.771 215.355 512.248 212.11C507.724 208.766 502.413 207.094 496.316 207.094C490.416 207.094 485.154 208.766 480.532 212.11C475.91 215.355 472.321 220.174 469.764 226.566C467.207 232.86 465.928 240.629 465.928 249.873C465.928 259.117 467.207 266.935 469.764 273.328C472.321 279.622 475.91 284.44 480.532 287.784C485.154 291.029 490.416 292.652 496.316 292.652Z" fill="#E30313" />
			<path d="M550.912 301.503V293.979L593.839 251.938C597.772 248.103 600.722 244.759 602.689 241.907C604.656 238.957 605.984 236.204 606.672 233.647C607.361 231.09 607.705 228.68 607.705 226.418C607.705 220.42 605.64 215.699 601.509 212.257C597.477 208.815 591.478 207.094 583.513 207.094C577.415 207.094 572.007 208.029 567.286 209.897C562.664 211.766 558.681 214.667 555.338 218.6L547.814 212.11C551.846 207.389 557.009 203.751 563.303 201.194C569.597 198.637 576.629 197.358 584.398 197.358C591.38 197.358 597.428 198.489 602.542 200.751C607.656 202.915 611.589 206.111 614.343 210.34C617.195 214.568 618.621 219.535 618.621 225.238C618.621 228.582 618.129 231.876 617.146 235.122C616.26 238.367 614.589 241.809 612.13 245.448C609.77 248.988 606.279 253.02 601.657 257.544L562.271 296.192L559.32 292.062H623.341V301.503H550.912Z" fill="#E30313" />
		</g>
		<g class="svgIcon svgIcon7">
			<path d="M130.1 171.1C136.175 171.1 141.1 166.175 141.1 160.1C141.1 154.024 136.175 149.1 130.1 149.1C124.025 149.1 119.1 154.024 119.1 160.1C119.1 166.175 124.025 171.1 130.1 171.1Z" fill="#A7D07D" />
			<g>
				<path d="M97.4 172.6H8.39999C3.79999 172.6 0 168.8 0 164.2V109C0 104.4 3.79999 100.6 8.39999 100.6H97.4C102 100.6 105.8 104.4 105.8 109V164.2C105.8 168.8 102.1 172.6 97.4 172.6Z" fill="#DFE1E8" />
				<g>
					<path d="M13.8 161.899H90.8" stroke="white" stroke-width="2" stroke-miterlimit="10" stroke-linecap="round" stroke-linejoin="round" />
					<path d="M12.7 155.799L24.3 144.899L34.8 152.799L60.2 129.099L74.2 139.899L92.1 117.399" stroke="white" stroke-width="2" stroke-miterlimit="10" stroke-linecap="round" stroke-linejoin="round" />
				</g>
			</g>
			<path d="M12.7 109.5H29.3" stroke="#E30313" stroke-width="2" stroke-miterlimit="10" stroke-linecap="round" stroke-linejoin="round" />
			<path d="M12.7 115.5H29.3" stroke="#E30313" stroke-width="2" stroke-miterlimit="10" stroke-linecap="round" stroke-linejoin="round" />
			<path d="M12.7 121.5H29.3" stroke="#E30313" stroke-miterlimit="10" stroke-linecap="round" stroke-linejoin="round" />
		</g>
		<g class="svgIcon svgIcon8">
			<path d="M1567.8 232.3C1573.27 232.3 1577.7 227.868 1577.7 222.4C1577.7 216.932 1573.27 212.5 1567.8 212.5C1562.33 212.5 1557.9 216.932 1557.9 222.4C1557.9 227.868 1562.33 232.3 1567.8 232.3Z" fill="#A7D07D" />
			<g>
				<g>
					<path d="M1542 286.8H1453.1C1450.1 286.8 1447.6 284.3 1447.6 281.3V244.6C1447.6 241.6 1450.1 239.1 1453.1 239.1H1542C1545 239.1 1547.5 241.6 1547.5 244.6V281.3C1547.5 284.3 1545 286.8 1542 286.8Z" fill="#DFE1E8" />
					<path d="M1462.2 263H1531.9" stroke="white" stroke-width="2" stroke-miterlimit="10" stroke-linecap="round" stroke-linejoin="round" />
				</g>
				<path d="M1474.2 256.1V269.6" stroke="#E30313" stroke-miterlimit="10" stroke-linecap="round" stroke-linejoin="round" />
			</g>
		</g>
		<g class="svgIcon svgIcon6">
			<g>
				<g>
					<path d="M1323.8 103.699C1345.01 103.699 1362.2 86.5071 1362.2 65.2994C1362.2 44.0917 1345.01 26.8994 1323.8 26.8994C1302.59 26.8994 1285.4 44.0917 1285.4 65.2994C1285.4 86.5071 1302.59 103.699 1323.8 103.699Z" fill="#C28FBF" />
				</g>
				<g>
					<g>
						<path d="M1304.8 66.2002L1309.2 79.7002C1309.6 80.8002 1310.6 81.6002 1311.9 81.6002H1335.8C1337 81.6002 1338.1 80.8002 1338.5 79.7002L1342.9 66.4002" stroke="white" stroke-width="2" stroke-miterlimit="10" stroke-linecap="round" stroke-linejoin="round" />
						<path d="M1321.9 60H1305.7C1303.9 60 1302.5 61.4 1302.5 63.2C1302.5 65 1303.9 66.4 1305.7 66.4H1341.8C1343.6 66.4 1345 65 1345 63.2C1345 61.4 1343.6 60 1341.8 60H1332.7" stroke="white" stroke-width="2" stroke-miterlimit="10" stroke-linecap="round" stroke-linejoin="round" />
						<g>
							<g>
								<path d="M1335.7 69.7998L1333.9 77.8998" stroke="white" stroke-width="2" stroke-miterlimit="10" stroke-linecap="round" stroke-linejoin="round" />
								<path d="M1329.8 69.7998L1328.9 77.8998" stroke="white" stroke-width="2" stroke-miterlimit="10" stroke-linecap="round" stroke-linejoin="round" />
								<path d="M1323.8 69.7998V77.8998" stroke="white" stroke-width="2" stroke-miterlimit="10" stroke-linecap="round" stroke-linejoin="round" />
								<path d="M1317.9 69.7998L1318.7 77.8998" stroke="white" stroke-width="2" stroke-miterlimit="10" stroke-linecap="round" stroke-linejoin="round" />
								<path d="M1311.9 69.7998L1313.7 77.8998" stroke="white" stroke-width="2" stroke-miterlimit="10" stroke-linecap="round" stroke-linejoin="round" />
							</g>
						</g>
					</g>
					<path d="M1335.9 49.7998C1334.9 48.7998 1333.4 48.7998 1332.4 49.7998L1321.9 60.2998C1320.9 61.2998 1320.9 62.7998 1321.9 63.7998C1322.9 64.7998 1324.4 64.7998 1325.4 63.7998L1335.9 53.2998C1336.9 52.2998 1336.9 50.6998 1335.9 49.7998Z" stroke="white" stroke-width="2" stroke-miterlimit="10" stroke-linecap="round" stroke-linejoin="round" />
				</g>
			</g>
		</g>
		<g class="svgIcon svgIcon9">
			<path d="M340.3 49.8996C354.052 49.8996 365.2 38.7515 365.2 24.9996C365.2 11.2477 354.052 0.0996094 340.3 0.0996094C326.548 0.0996094 315.4 11.2477 315.4 24.9996C315.4 38.7515 326.548 49.8996 340.3 49.8996Z" fill="#DFE1E8" />
			<path d="M340.3 27.6994C344.387 27.6994 347.7 24.3863 347.7 20.2994C347.7 16.2125 344.387 12.8994 340.3 12.8994C336.213 12.8994 332.9 16.2125 332.9 20.2994C332.9 24.3863 336.213 27.6994 340.3 27.6994Z" stroke="white" stroke-width="2" stroke-miterlimit="10" stroke-linecap="round" stroke-linejoin="round" />
			<path d="M356.5 40.7994C352.5 36.2994 346.7 33.3994 340.2 33.3994C333.7 33.3994 327.8 36.2994 323.9 40.7994" stroke="white" stroke-width="2" stroke-miterlimit="10" stroke-linecap="round" stroke-linejoin="round" />
		</g>
	</g>
	<defs>
		<linearGradient id="paint0_linear_102_23505" x1="635.902" y1="299.991" x2="1114.37" y2="105.099" gradientUnits="userSpaceOnUse">
			<stop offset="0.4051" stop-color="#656DD6" />
			<stop offset="0.6431" stop-color="#322767" />
		</linearGradient>
		<linearGradient id="paint1_linear_102_23505" x1="869.002" y1="299.143" x2="869.562" y2="362.959" gradientUnits="userSpaceOnUse">
			<stop offset="0.1639" stop-color="#656DD6" />
			<stop offset="0.6444" stop-color="#A2AFF9" />
		</linearGradient>
		<linearGradient id="paint2_linear_102_23505" x1="761.577" y1="299.991" x2="1240.04" y2="105.1" gradientUnits="userSpaceOnUse">
			<stop offset="0.4051" stop-color="#656DD6" />
			<stop offset="0.6431" stop-color="#322767" />
		</linearGradient>
	</defs>
</svg>
