<svg width="15" height="16" viewBox="0 0 15 16" fill="none" xmlns="http://www.w3.org/2000/svg">
<circle cx="7.5" cy="8.2002" r="7.5" fill="#C4C7CC"/>
<path d="M6.8918 6.806H7.8326V12H6.8918V6.806ZM7.3622 5.8064C7.17927 5.8064 7.02573 5.7476 6.9016 5.63C6.784 5.5124 6.7252 5.36867 6.7252 5.1988C6.7252 5.02893 6.784 4.8852 6.9016 4.7676C7.02573 4.64347 7.17927 4.5814 7.3622 4.5814C7.54513 4.5814 7.6954 4.6402 7.813 4.7578C7.93713 4.86887 7.9992 5.00933 7.9992 5.1792C7.9992 5.3556 7.93713 5.50587 7.813 5.63C7.6954 5.7476 7.54513 5.8064 7.3622 5.8064Z" fill="white"/>
</svg>
