<svg width="49" height="49" viewBox="0 0 49 49" fill="none" xmlns="http://www.w3.org/2000/svg">
<path d="M0 14.8122C0 10.8672 1.54293 7.15262 4.3471 4.34973C7.1487 1.54684 10.8633 0.00390625 14.8083 0.00390625H48.9999V7.52906H14.8083C12.8761 7.52906 11.0502 8.28965 9.66861 9.66996C8.28573 11.0541 7.52515 12.88 7.52515 14.8122L7.48034 27.4438C7.13078 30.7985 4.60191 33.5054 1.33166 34.0047L0 34.2083V14.8122Z" fill="#E30613"/>
<path d="M0 48.9071V41.382H34.1916C36.1251 41.382 37.9497 40.6201 39.33 39.2385C40.7116 37.8582 41.4735 36.0336 41.4735 34.1001L41.4825 22.1101C41.4825 18.5402 44.1419 15.4428 47.6695 14.9063L48.9999 14.704V34.1001C48.9999 38.0451 47.457 41.7597 44.6528 44.5613C41.8512 47.3642 38.1367 48.9071 34.1916 48.9071H0V48.9071Z" fill="#E30613"/>
<path d="M28.9505 33.7595V24.3542L24.5 29.5019L20.0495 24.3542V33.7595H14.1556V15.2484H19.7401L24.5 21.2009L29.2599 15.2484H34.8444V33.7595H28.9505Z" fill="#E30613"/>
</svg>
