<svg width="1392" height="420" viewBox="0 0 1392 420" fill="none" xmlns="http://www.w3.org/2000/svg">
	<g>
		<g class="svgIcon svgIcon1" style="opacity: 0; transform:translateY(0.63rem); transition-delay: 0.2s; transition-property: all; transition-duration: 0.5s; transition-timing-function: ease;">
			<g opacity="0.64">
			<path d="M521.65 147.04H414.77V178.63H521.65V147.04Z" fill="white" />
			<path d="M521.65 190.57H414.77V222.16H521.65V190.57Z" fill="white" />
			<path d="M521.65 234.07H414.77V265.66H521.65V234.07Z" fill="white" />
			<path d="M521.65 276.18H414.77V307.77H521.65V276.18Z" fill="white" />
			<path d="M1005.44 300.27H498.75V333.15H1005.44V300.27Z" fill="#DFE1E8" />
			<path d="M1005.44 92.3601H498.75V100.58H1005.44V92.3601Z" fill="#DFE1E8" />
			<path d="M1005.44 144.46H498.75V152.68H1005.44V144.46Z" fill="#DFE1E8" />
			<path d="M1005.44 184.89H498.75V193.11H1005.44V184.89Z" fill="#DFE1E8" />
			<path d="M1005.44 225.32H498.75V233.54H1005.44V225.32Z" fill="#DFE1E8" />
			<path d="M1005.44 265.75H498.75V273.97H1005.44V265.75Z" fill="#DFE1E8" />
			<path d="M507.33 95.9402H498.75V333.15H507.33V95.9402Z" fill="#DFE1E8" />
			<path d="M1193.17 331.56H229.74V336.63H1193.17V331.56Z" fill="#DFE1E8" />
			<path d="M498.53 120.68V140.43H394.37V120.68H385.94V331.68H498.75V120.68H498.53ZM498.53 266.28H394.37V235.49H498.53V266.28ZM498.53 225.28H394.37V194.45H498.53V225.28ZM498.53 182.89H394.37V152.06H498.53V182.89Z" fill="#DFE1E8" />
			<path d="M1005.23 95.9402H996.65V333.15H1005.23V95.9402Z" fill="#DFE1E8" />
			<path d="M532.89 111.44H517.17C514.641 111.44 512.59 113.491 512.59 116.02V145.07C512.59 147.6 514.641 149.65 517.17 149.65H532.89C535.419 149.65 537.47 147.6 537.47 145.07V116.02C537.47 113.491 535.419 111.44 532.89 111.44Z" fill="#DFE1E8" />
			<path d="M562.76 111.44H547.04C544.511 111.44 542.46 113.491 542.46 116.02V145.07C542.46 147.6 544.511 149.65 547.04 149.65H562.76C565.289 149.65 567.34 147.6 567.34 145.07V116.02C567.34 113.491 565.289 111.44 562.76 111.44Z" fill="#DFE1E8" />
			<path d="M592.64 111.44H576.92C574.391 111.44 572.34 113.491 572.34 116.02V145.07C572.34 147.6 574.391 149.65 576.92 149.65H592.64C595.169 149.65 597.22 147.6 597.22 145.07V116.02C597.22 113.491 595.169 111.44 592.64 111.44Z" fill="#DFE1E8" />
			<path d="M622.51 111.44H606.79C604.261 111.44 602.21 113.491 602.21 116.02V145.07C602.21 147.6 604.261 149.65 606.79 149.65H622.51C625.039 149.65 627.09 147.6 627.09 145.07V116.02C627.09 113.491 625.039 111.44 622.51 111.44Z" fill="#DFE1E8" />
			<path d="M652.39 111.44H636.67C634.141 111.44 632.09 113.491 632.09 116.02V145.07C632.09 147.6 634.141 149.65 636.67 149.65H652.39C654.919 149.65 656.97 147.6 656.97 145.07V116.02C656.97 113.491 654.919 111.44 652.39 111.44Z" fill="#DFE1E8" />
			<path d="M682.26 111.44H666.54C664.011 111.44 661.96 113.491 661.96 116.02V145.07C661.96 147.6 664.011 149.65 666.54 149.65H682.26C684.789 149.65 686.84 147.6 686.84 145.07V116.02C686.84 113.491 684.789 111.44 682.26 111.44Z" fill="#DFE1E8" />
			<path d="M712.13 111.44H696.41C693.881 111.44 691.83 113.491 691.83 116.02V145.07C691.83 147.6 693.881 149.65 696.41 149.65H712.13C714.659 149.65 716.71 147.6 716.71 145.07V116.02C716.71 113.491 714.659 111.44 712.13 111.44Z" fill="#DFE1E8" />
			<path d="M742.01 111.44H726.29C723.761 111.44 721.71 113.491 721.71 116.02V145.07C721.71 147.6 723.761 149.65 726.29 149.65H742.01C744.539 149.65 746.59 147.6 746.59 145.07V116.02C746.59 113.491 744.539 111.44 742.01 111.44Z" fill="#DFE1E8" />
			<path d="M771.88 111.44H756.16C753.631 111.44 751.58 113.491 751.58 116.02V145.07C751.58 147.6 753.631 149.65 756.16 149.65H771.88C774.409 149.65 776.46 147.6 776.46 145.07V116.02C776.46 113.491 774.409 111.44 771.88 111.44Z" fill="#DFE1E8" />
			<path d="M801.76 111.44H786.04C783.511 111.44 781.46 113.491 781.46 116.02V145.07C781.46 147.6 783.511 149.65 786.04 149.65H801.76C804.289 149.65 806.34 147.6 806.34 145.07V116.02C806.34 113.491 804.289 111.44 801.76 111.44Z" fill="#DFE1E8" />
			<path d="M831.63 111.44H815.91C813.381 111.44 811.33 113.491 811.33 116.02V145.07C811.33 147.6 813.381 149.65 815.91 149.65H831.63C834.159 149.65 836.21 147.6 836.21 145.07V116.02C836.21 113.491 834.159 111.44 831.63 111.44Z" fill="#DFE1E8" />
			<path d="M861.5 111.44H845.78C843.251 111.44 841.2 113.491 841.2 116.02V145.07C841.2 147.6 843.251 149.65 845.78 149.65H861.5C864.029 149.65 866.08 147.6 866.08 145.07V116.02C866.08 113.491 864.029 111.44 861.5 111.44Z" fill="#DFE1E8" />
			<path d="M891.38 111.44H875.66C873.131 111.44 871.08 113.491 871.08 116.02V145.07C871.08 147.6 873.131 149.65 875.66 149.65H891.38C893.909 149.65 895.96 147.6 895.96 145.07V116.02C895.96 113.491 893.909 111.44 891.38 111.44Z" fill="#DFE1E8" />
			<path d="M921.25 111.44H905.53C903.001 111.44 900.95 113.491 900.95 116.02V145.07C900.95 147.6 903.001 149.65 905.53 149.65H921.25C923.779 149.65 925.83 147.6 925.83 145.07V116.02C925.83 113.491 923.779 111.44 921.25 111.44Z" fill="#DFE1E8" />
			<path d="M951.13 111.44H935.41C932.881 111.44 930.83 113.491 930.83 116.02V145.07C930.83 147.6 932.881 149.65 935.41 149.65H951.13C953.659 149.65 955.71 147.6 955.71 145.07V116.02C955.71 113.491 953.659 111.44 951.13 111.44Z" fill="#DFE1E8" />
			<path d="M981 111.44H965.28C962.751 111.44 960.7 113.491 960.7 116.02V145.07C960.7 147.6 962.751 149.65 965.28 149.65H981C983.529 149.65 985.58 147.6 985.58 145.07V116.02C985.58 113.491 983.529 111.44 981 111.44Z" fill="#DFE1E8" />
			<path d="M534.15 253.47H515.91C514.076 253.47 512.59 254.957 512.59 256.79V270.23C512.59 272.064 514.076 273.55 515.91 273.55H534.15C535.984 273.55 537.47 272.064 537.47 270.23V256.79C537.47 254.957 535.984 253.47 534.15 253.47Z" fill="#DFE1E8" />
			<path d="M564.02 253.47H545.78C543.946 253.47 542.46 254.957 542.46 256.79V270.23C542.46 272.064 543.946 273.55 545.78 273.55H564.02C565.854 273.55 567.34 272.064 567.34 270.23V256.79C567.34 254.957 565.854 253.47 564.02 253.47Z" fill="#DFE1E8" />
			<path d="M593.9 253.47H575.66C573.826 253.47 572.34 254.957 572.34 256.79V270.23C572.34 272.064 573.826 273.55 575.66 273.55H593.9C595.734 273.55 597.22 272.064 597.22 270.23V256.79C597.22 254.957 595.734 253.47 593.9 253.47Z" fill="#DFE1E8" />
			<path d="M623.77 253.47H605.53C603.696 253.47 602.21 254.957 602.21 256.79V270.23C602.21 272.064 603.696 273.55 605.53 273.55H623.77C625.604 273.55 627.09 272.064 627.09 270.23V256.79C627.09 254.957 625.604 253.47 623.77 253.47Z" fill="#DFE1E8" />
			<path d="M653.65 253.47H635.41C633.576 253.47 632.09 254.957 632.09 256.79V270.23C632.09 272.064 633.576 273.55 635.41 273.55H653.65C655.484 273.55 656.97 272.064 656.97 270.23V256.79C656.97 254.957 655.484 253.47 653.65 253.47Z" fill="#DFE1E8" />
			<path d="M683.52 253.47H665.28C663.446 253.47 661.96 254.957 661.96 256.79V270.23C661.96 272.064 663.446 273.55 665.28 273.55H683.52C685.354 273.55 686.84 272.064 686.84 270.23V256.79C686.84 254.957 685.354 253.47 683.52 253.47Z" fill="#DFE1E8" />
			<path d="M713.39 253.47H695.15C693.316 253.47 691.83 254.957 691.83 256.79V270.23C691.83 272.064 693.316 273.55 695.15 273.55H713.39C715.224 273.55 716.71 272.064 716.71 270.23V256.79C716.71 254.957 715.224 253.47 713.39 253.47Z" fill="#DFE1E8" />
			<path d="M743.27 253.47H725.03C723.196 253.47 721.71 254.957 721.71 256.79V270.23C721.71 272.064 723.196 273.55 725.03 273.55H743.27C745.104 273.55 746.59 272.064 746.59 270.23V256.79C746.59 254.957 745.104 253.47 743.27 253.47Z" fill="#DFE1E8" />
			<path d="M773.14 253.47H754.9C753.066 253.47 751.58 254.957 751.58 256.79V270.23C751.58 272.064 753.066 273.55 754.9 273.55H773.14C774.974 273.55 776.46 272.064 776.46 270.23V256.79C776.46 254.957 774.974 253.47 773.14 253.47Z" fill="#DFE1E8" />
			<path d="M803.02 253.47H784.78C782.946 253.47 781.46 254.957 781.46 256.79V270.23C781.46 272.064 782.946 273.55 784.78 273.55H803.02C804.854 273.55 806.34 272.064 806.34 270.23V256.79C806.34 254.957 804.854 253.47 803.02 253.47Z" fill="#DFE1E8" />
			<path d="M832.89 253.47H814.65C812.816 253.47 811.33 254.957 811.33 256.79V270.23C811.33 272.064 812.816 273.55 814.65 273.55H832.89C834.724 273.55 836.21 272.064 836.21 270.23V256.79C836.21 254.957 834.724 253.47 832.89 253.47Z" fill="#DFE1E8" />
			<path d="M862.76 253.47H844.52C842.686 253.47 841.2 254.957 841.2 256.79V270.23C841.2 272.064 842.686 273.55 844.52 273.55H862.76C864.594 273.55 866.08 272.064 866.08 270.23V256.79C866.08 254.957 864.594 253.47 862.76 253.47Z" fill="#DFE1E8" />
			<path d="M892.64 253.47H874.4C872.566 253.47 871.08 254.957 871.08 256.79V270.23C871.08 272.064 872.566 273.55 874.4 273.55H892.64C894.474 273.55 895.96 272.064 895.96 270.23V256.79C895.96 254.957 894.474 253.47 892.64 253.47Z" fill="#DFE1E8" />
			<path d="M922.51 253.47H904.27C902.436 253.47 900.95 254.957 900.95 256.79V270.23C900.95 272.064 902.436 273.55 904.27 273.55H922.51C924.344 273.55 925.83 272.064 925.83 270.23V256.79C925.83 254.957 924.344 253.47 922.51 253.47Z" fill="#DFE1E8" />
			<path d="M952.39 253.47H934.15C932.316 253.47 930.83 254.957 930.83 256.79V270.23C930.83 272.064 932.316 273.55 934.15 273.55H952.39C954.224 273.55 955.71 272.064 955.71 270.23V256.79C955.71 254.957 954.224 253.47 952.39 253.47Z" fill="#DFE1E8" />
			<path d="M982.26 253.47H964.02C962.186 253.47 960.7 254.957 960.7 256.79V270.23C960.7 272.064 962.186 273.55 964.02 273.55H982.26C984.094 273.55 985.58 272.064 985.58 270.23V256.79C985.58 254.957 984.094 253.47 982.26 253.47Z" fill="#DFE1E8" />
			<path d="M534.15 281.83H515.91C514.076 281.83 512.59 283.317 512.59 285.15V298.59C512.59 300.424 514.076 301.91 515.91 301.91H534.15C535.984 301.91 537.47 300.424 537.47 298.59V285.15C537.47 283.317 535.984 281.83 534.15 281.83Z" fill="#DFE1E8" />
			<path d="M564.02 281.83H545.78C543.946 281.83 542.46 283.317 542.46 285.15V298.59C542.46 300.424 543.946 301.91 545.78 301.91H564.02C565.854 301.91 567.34 300.424 567.34 298.59V285.15C567.34 283.317 565.854 281.83 564.02 281.83Z" fill="#DFE1E8" />
			<path d="M593.9 281.83H575.66C573.826 281.83 572.34 283.317 572.34 285.15V298.59C572.34 300.424 573.826 301.91 575.66 301.91H593.9C595.734 301.91 597.22 300.424 597.22 298.59V285.15C597.22 283.317 595.734 281.83 593.9 281.83Z" fill="#DFE1E8" />
			<path d="M623.77 281.83H605.53C603.696 281.83 602.21 283.317 602.21 285.15V298.59C602.21 300.424 603.696 301.91 605.53 301.91H623.77C625.604 301.91 627.09 300.424 627.09 298.59V285.15C627.09 283.317 625.604 281.83 623.77 281.83Z" fill="#DFE1E8" />
			<path d="M653.65 281.83H635.41C633.576 281.83 632.09 283.317 632.09 285.15V298.59C632.09 300.424 633.576 301.91 635.41 301.91H653.65C655.484 301.91 656.97 300.424 656.97 298.59V285.15C656.97 283.317 655.484 281.83 653.65 281.83Z" fill="#DFE1E8" />
			<path d="M683.52 281.83H665.28C663.446 281.83 661.96 283.317 661.96 285.15V298.59C661.96 300.424 663.446 301.91 665.28 301.91H683.52C685.354 301.91 686.84 300.424 686.84 298.59V285.15C686.84 283.317 685.354 281.83 683.52 281.83Z" fill="#DFE1E8" />
			<path d="M713.39 281.83H695.15C693.316 281.83 691.83 283.317 691.83 285.15V298.59C691.83 300.424 693.316 301.91 695.15 301.91H713.39C715.224 301.91 716.71 300.424 716.71 298.59V285.15C716.71 283.317 715.224 281.83 713.39 281.83Z" fill="#DFE1E8" />
			<path d="M743.27 281.83H725.03C723.196 281.83 721.71 283.317 721.71 285.15V298.59C721.71 300.424 723.196 301.91 725.03 301.91H743.27C745.104 301.91 746.59 300.424 746.59 298.59V285.15C746.59 283.317 745.104 281.83 743.27 281.83Z" fill="#DFE1E8" />
			<path d="M773.14 281.83H754.9C753.066 281.83 751.58 283.317 751.58 285.15V298.59C751.58 300.424 753.066 301.91 754.9 301.91H773.14C774.974 301.91 776.46 300.424 776.46 298.59V285.15C776.46 283.317 774.974 281.83 773.14 281.83Z" fill="#DFE1E8" />
			<path d="M803.02 281.83H784.78C782.946 281.83 781.46 283.317 781.46 285.15V298.59C781.46 300.424 782.946 301.91 784.78 301.91H803.02C804.854 301.91 806.34 300.424 806.34 298.59V285.15C806.34 283.317 804.854 281.83 803.02 281.83Z" fill="#DFE1E8" />
			<path d="M832.89 281.83H814.65C812.816 281.83 811.33 283.317 811.33 285.15V298.59C811.33 300.424 812.816 301.91 814.65 301.91H832.89C834.724 301.91 836.21 300.424 836.21 298.59V285.15C836.21 283.317 834.724 281.83 832.89 281.83Z" fill="#DFE1E8" />
			<path d="M862.76 281.83H844.52C842.686 281.83 841.2 283.317 841.2 285.15V298.59C841.2 300.424 842.686 301.91 844.52 301.91H862.76C864.594 301.91 866.08 300.424 866.08 298.59V285.15C866.08 283.317 864.594 281.83 862.76 281.83Z" fill="#DFE1E8" />
			<path d="M892.64 281.83H874.4C872.566 281.83 871.08 283.317 871.08 285.15V298.59C871.08 300.424 872.566 301.91 874.4 301.91H892.64C894.474 301.91 895.96 300.424 895.96 298.59V285.15C895.96 283.317 894.474 281.83 892.64 281.83Z" fill="#DFE1E8" />
			<path d="M922.51 281.83H904.27C902.436 281.83 900.95 283.317 900.95 285.15V298.59C900.95 300.424 902.436 301.91 904.27 301.91H922.51C924.344 301.91 925.83 300.424 925.83 298.59V285.15C925.83 283.317 924.344 281.83 922.51 281.83Z" fill="#DFE1E8" />
			<path d="M952.39 281.83H934.15C932.316 281.83 930.83 283.317 930.83 285.15V298.59C930.83 300.424 932.316 301.91 934.15 301.91H952.39C954.224 301.91 955.71 300.424 955.71 298.59V285.15C955.71 283.317 954.224 281.83 952.39 281.83Z" fill="#DFE1E8" />
			<path d="M982.26 281.83H964.02C962.186 281.83 960.7 283.317 960.7 285.15V298.59C960.7 300.424 962.186 301.91 964.02 301.91H982.26C984.094 301.91 985.58 300.424 985.58 298.59V285.15C985.58 283.317 984.094 281.83 982.26 281.83Z" fill="#DFE1E8" />
			<path d="M528.99 160.48H517.29C516.417 160.48 515.71 161.187 515.71 162.06V184C515.71 184.873 516.417 185.58 517.29 185.58H528.99C529.863 185.58 530.57 184.873 530.57 184V162.06C530.57 161.187 529.863 160.48 528.99 160.48Z" fill="#DFE1E8" />
			<path d="M550.11 160.48H538.41C537.537 160.48 536.83 161.187 536.83 162.06V184C536.83 184.873 537.537 185.58 538.41 185.58H550.11C550.983 185.58 551.69 184.873 551.69 184V162.06C551.69 161.187 550.983 160.48 550.11 160.48Z" fill="#DFE1E8" />
			<path d="M571.62 160.48H559.92C559.047 160.48 558.34 161.187 558.34 162.06V184C558.34 184.873 559.047 185.58 559.92 185.58H571.62C572.493 185.58 573.2 184.873 573.2 184V162.06C573.2 161.187 572.493 160.48 571.62 160.48Z" fill="#DFE1E8" />
			<path d="M592.74 160.48H581.04C580.167 160.48 579.46 161.187 579.46 162.06V184C579.46 184.873 580.167 185.58 581.04 185.58H592.74C593.613 185.58 594.32 184.873 594.32 184V162.06C594.32 161.187 593.613 160.48 592.74 160.48Z" fill="#DFE1E8" />
			<path d="M615.25 160.48H603.55C602.677 160.48 601.97 161.187 601.97 162.06V184C601.97 184.873 602.677 185.58 603.55 185.58H615.25C616.123 185.58 616.83 184.873 616.83 184V162.06C616.83 161.187 616.123 160.48 615.25 160.48Z" fill="#DFE1E8" />
			<path d="M636.37 160.48H624.67C623.797 160.48 623.09 161.187 623.09 162.06V184C623.09 184.873 623.797 185.58 624.67 185.58H636.37C637.243 185.58 637.95 184.873 637.95 184V162.06C637.95 161.187 637.243 160.48 636.37 160.48Z" fill="#DFE1E8" />
			<path d="M657.88 160.48H646.18C645.307 160.48 644.6 161.187 644.6 162.06V184C644.6 184.873 645.307 185.58 646.18 185.58H657.88C658.753 185.58 659.46 184.873 659.46 184V162.06C659.46 161.187 658.753 160.48 657.88 160.48Z" fill="#DFE1E8" />
			<path d="M679 160.48H667.3C666.427 160.48 665.72 161.187 665.72 162.06V184C665.72 184.873 666.427 185.58 667.3 185.58H679C679.873 185.58 680.58 184.873 680.58 184V162.06C680.58 161.187 679.873 160.48 679 160.48Z" fill="#DFE1E8" />
			<path d="M698.99 160.48H687.29C686.417 160.48 685.71 161.187 685.71 162.06V184C685.71 184.873 686.417 185.58 687.29 185.58H698.99C699.863 185.58 700.57 184.873 700.57 184V162.06C700.57 161.187 699.863 160.48 698.99 160.48Z" fill="#DFE1E8" />
			<path d="M720.11 160.48H708.41C707.537 160.48 706.83 161.187 706.83 162.06V184C706.83 184.873 707.537 185.58 708.41 185.58H720.11C720.983 185.58 721.69 184.873 721.69 184V162.06C721.69 161.187 720.983 160.48 720.11 160.48Z" fill="#DFE1E8" />
			<path d="M741.62 160.48H729.92C729.047 160.48 728.34 161.187 728.34 162.06V184C728.34 184.873 729.047 185.58 729.92 185.58H741.62C742.493 185.58 743.2 184.873 743.2 184V162.06C743.2 161.187 742.493 160.48 741.62 160.48Z" fill="#DFE1E8" />
			<path d="M762.74 160.48H751.04C750.167 160.48 749.46 161.187 749.46 162.06V184C749.46 184.873 750.167 185.58 751.04 185.58H762.74C763.613 185.58 764.32 184.873 764.32 184V162.06C764.32 161.187 763.613 160.48 762.74 160.48Z" fill="#DFE1E8" />
			<path d="M785.25 160.48H773.55C772.677 160.48 771.97 161.187 771.97 162.06V184C771.97 184.873 772.677 185.58 773.55 185.58H785.25C786.123 185.58 786.83 184.873 786.83 184V162.06C786.83 161.187 786.123 160.48 785.25 160.48Z" fill="#DFE1E8" />
			<path d="M806.37 160.48H794.67C793.797 160.48 793.09 161.187 793.09 162.06V184C793.09 184.873 793.797 185.58 794.67 185.58H806.37C807.243 185.58 807.95 184.873 807.95 184V162.06C807.95 161.187 807.243 160.48 806.37 160.48Z" fill="#DFE1E8" />
			<path d="M827.88 160.48H816.18C815.307 160.48 814.6 161.187 814.6 162.06V184C814.6 184.873 815.307 185.58 816.18 185.58H827.88C828.753 185.58 829.46 184.873 829.46 184V162.06C829.46 161.187 828.753 160.48 827.88 160.48Z" fill="#DFE1E8" />
			<path d="M849 160.48H837.3C836.427 160.48 835.72 161.187 835.72 162.06V184C835.72 184.873 836.427 185.58 837.3 185.58H849C849.873 185.58 850.58 184.873 850.58 184V162.06C850.58 161.187 849.873 160.48 849 160.48Z" fill="#DFE1E8" />
			<path d="M873.5 160.48H861.8C860.927 160.48 860.22 161.187 860.22 162.06V184C860.22 184.873 860.927 185.58 861.8 185.58H873.5C874.373 185.58 875.08 184.873 875.08 184V162.06C875.08 161.187 874.373 160.48 873.5 160.48Z" fill="#DFE1E8" />
			<path d="M894.62 160.48H882.92C882.047 160.48 881.34 161.187 881.34 162.06V184C881.34 184.873 882.047 185.58 882.92 185.58H894.62C895.493 185.58 896.2 184.873 896.2 184V162.06C896.2 161.187 895.493 160.48 894.62 160.48Z" fill="#DFE1E8" />
			<path d="M916.13 160.48H904.43C903.557 160.48 902.85 161.187 902.85 162.06V184C902.85 184.873 903.557 185.58 904.43 185.58H916.13C917.003 185.58 917.71 184.873 917.71 184V162.06C917.71 161.187 917.003 160.48 916.13 160.48Z" fill="#DFE1E8" />
			<path d="M937.25 160.48H925.55C924.677 160.48 923.97 161.187 923.97 162.06V184C923.97 184.873 924.677 185.58 925.55 185.58H937.25C938.123 185.58 938.83 184.873 938.83 184V162.06C938.83 161.187 938.123 160.48 937.25 160.48Z" fill="#DFE1E8" />
			<path d="M959.76 160.48H948.06C947.187 160.48 946.48 161.187 946.48 162.06V184C946.48 184.873 947.187 185.58 948.06 185.58H959.76C960.633 185.58 961.34 184.873 961.34 184V162.06C961.34 161.187 960.633 160.48 959.76 160.48Z" fill="#DFE1E8" />
			<path d="M980.88 160.48H969.18C968.307 160.48 967.6 161.187 967.6 162.06V184C967.6 184.873 968.307 185.58 969.18 185.58H980.88C981.753 185.58 982.46 184.873 982.46 184V162.06C982.46 161.187 981.753 160.48 980.88 160.48Z" fill="#DFE1E8" />
			<path d="M530.01 203.19H518.31C517.437 203.19 516.73 203.898 516.73 204.77V226.71C516.73 227.583 517.437 228.29 518.31 228.29H530.01C530.883 228.29 531.59 227.583 531.59 226.71V204.77C531.59 203.898 530.883 203.19 530.01 203.19Z" fill="#DFE1E8" />
			<path d="M551.13 203.19H539.43C538.557 203.19 537.85 203.898 537.85 204.77V226.71C537.85 227.583 538.557 228.29 539.43 228.29H551.13C552.003 228.29 552.71 227.583 552.71 226.71V204.77C552.71 203.898 552.003 203.19 551.13 203.19Z" fill="#DFE1E8" />
			<path d="M572.64 203.19H560.94C560.067 203.19 559.36 203.898 559.36 204.77V226.71C559.36 227.583 560.067 228.29 560.94 228.29H572.64C573.513 228.29 574.22 227.583 574.22 226.71V204.77C574.22 203.898 573.513 203.19 572.64 203.19Z" fill="#DFE1E8" />
			<path d="M593.76 203.19H582.06C581.187 203.19 580.48 203.898 580.48 204.77V226.71C580.48 227.583 581.187 228.29 582.06 228.29H593.76C594.633 228.29 595.34 227.583 595.34 226.71V204.77C595.34 203.898 594.633 203.19 593.76 203.19Z" fill="#DFE1E8" />
			<path d="M616.27 203.19H604.57C603.697 203.19 602.99 203.898 602.99 204.77V226.71C602.99 227.583 603.697 228.29 604.57 228.29H616.27C617.143 228.29 617.85 227.583 617.85 226.71V204.77C617.85 203.898 617.143 203.19 616.27 203.19Z" fill="#DFE1E8" />
			<path d="M637.39 203.19H625.69C624.817 203.19 624.11 203.898 624.11 204.77V226.71C624.11 227.583 624.817 228.29 625.69 228.29H637.39C638.263 228.29 638.97 227.583 638.97 226.71V204.77C638.97 203.898 638.263 203.19 637.39 203.19Z" fill="#DFE1E8" />
			<path d="M658.9 203.19H647.2C646.327 203.19 645.62 203.898 645.62 204.77V226.71C645.62 227.583 646.327 228.29 647.2 228.29H658.9C659.773 228.29 660.48 227.583 660.48 226.71V204.77C660.48 203.898 659.773 203.19 658.9 203.19Z" fill="#DFE1E8" />
			<path d="M680.02 203.19H668.32C667.447 203.19 666.74 203.898 666.74 204.77V226.71C666.74 227.583 667.447 228.29 668.32 228.29H680.02C680.893 228.29 681.6 227.583 681.6 226.71V204.77C681.6 203.898 680.893 203.19 680.02 203.19Z" fill="#DFE1E8" />
			<path d="M700.02 203.19H688.32C687.447 203.19 686.74 203.898 686.74 204.77V226.71C686.74 227.583 687.447 228.29 688.32 228.29H700.02C700.893 228.29 701.6 227.583 701.6 226.71V204.77C701.6 203.898 700.893 203.19 700.02 203.19Z" fill="#DFE1E8" />
			<path d="M721.14 203.19H709.44C708.567 203.19 707.86 203.898 707.86 204.77V226.71C707.86 227.583 708.567 228.29 709.44 228.29H721.14C722.013 228.29 722.72 227.583 722.72 226.71V204.77C722.72 203.898 722.013 203.19 721.14 203.19Z" fill="#DFE1E8" />
			<path d="M742.65 203.19H730.95C730.077 203.19 729.37 203.898 729.37 204.77V226.71C729.37 227.583 730.077 228.29 730.95 228.29H742.65C743.523 228.29 744.23 227.583 744.23 226.71V204.77C744.23 203.898 743.523 203.19 742.65 203.19Z" fill="#DFE1E8" />
			<path d="M763.77 203.19H752.07C751.197 203.19 750.49 203.898 750.49 204.77V226.71C750.49 227.583 751.197 228.29 752.07 228.29H763.77C764.643 228.29 765.35 227.583 765.35 226.71V204.77C765.35 203.898 764.643 203.19 763.77 203.19Z" fill="#DFE1E8" />
			<path d="M786.27 203.19H774.57C773.697 203.19 772.99 203.898 772.99 204.77V226.71C772.99 227.583 773.697 228.29 774.57 228.29H786.27C787.143 228.29 787.85 227.583 787.85 226.71V204.77C787.85 203.898 787.143 203.19 786.27 203.19Z" fill="#DFE1E8" />
			<path d="M807.95 217.87H795.13C794.567 217.87 794.11 218.327 794.11 218.89V227.27C794.11 227.833 794.567 228.29 795.13 228.29H807.95C808.513 228.29 808.97 227.833 808.97 227.27V218.89C808.97 218.327 808.513 217.87 807.95 217.87Z" fill="#DFE1E8" />
			<path d="M829.51 217.87H816.69C816.127 217.87 815.67 218.327 815.67 218.89V227.27C815.67 227.833 816.127 228.29 816.69 228.29H829.51C830.073 228.29 830.53 227.833 830.53 227.27V218.89C830.53 218.327 830.073 217.87 829.51 217.87Z" fill="#DFE1E8" />
			<path d="M851.07 217.87H838.25C837.687 217.87 837.23 218.327 837.23 218.89V227.27C837.23 227.833 837.687 228.29 838.25 228.29H851.07C851.633 228.29 852.09 227.833 852.09 227.27V218.89C852.09 218.327 851.633 217.87 851.07 217.87Z" fill="#DFE1E8" />
			<path d="M872.63 217.87H859.81C859.247 217.87 858.79 218.327 858.79 218.89V227.27C858.79 227.833 859.247 228.29 859.81 228.29H872.63C873.193 228.29 873.65 227.833 873.65 227.27V218.89C873.65 218.327 873.193 217.87 872.63 217.87Z" fill="#DFE1E8" />
			<path d="M894.19 217.87H881.37C880.807 217.87 880.35 218.327 880.35 218.89V227.27C880.35 227.833 880.807 228.29 881.37 228.29H894.19C894.753 228.29 895.21 227.833 895.21 227.27V218.89C895.21 218.327 894.753 217.87 894.19 217.87Z" fill="#DFE1E8" />
			<path d="M915.74 217.87H902.92C902.357 217.87 901.9 218.327 901.9 218.89V227.27C901.9 227.833 902.357 228.29 902.92 228.29H915.74C916.303 228.29 916.76 227.833 916.76 227.27V218.89C916.76 218.327 916.303 217.87 915.74 217.87Z" fill="#DFE1E8" />
			<path d="M937.3 217.87H924.48C923.917 217.87 923.46 218.327 923.46 218.89V227.27C923.46 227.833 923.917 228.29 924.48 228.29H937.3C937.863 228.29 938.32 227.833 938.32 227.27V218.89C938.32 218.327 937.863 217.87 937.3 217.87Z" fill="#DFE1E8" />
			<path d="M958.86 217.87H946.04C945.477 217.87 945.02 218.327 945.02 218.89V227.27C945.02 227.833 945.477 228.29 946.04 228.29H958.86C959.423 228.29 959.88 227.833 959.88 227.27V218.89C959.88 218.327 959.423 217.87 958.86 217.87Z" fill="#DFE1E8" />
			<path d="M980.42 217.87H967.6C967.037 217.87 966.58 218.327 966.58 218.89V227.27C966.58 227.833 967.037 228.29 967.6 228.29H980.42C980.983 228.29 981.44 227.833 981.44 227.27V218.89C981.44 218.327 980.983 217.87 980.42 217.87Z" fill="#DFE1E8" />
			<path d="M796.93 207.66H784.11C783.547 207.66 783.09 208.117 783.09 208.68V217.06C783.09 217.623 783.547 218.08 784.11 218.08H796.93C797.493 218.08 797.95 217.623 797.95 217.06V208.68C797.95 208.117 797.493 207.66 796.93 207.66Z" fill="#DFE1E8" />
			<path d="M818.48 207.66H805.66C805.097 207.66 804.64 208.117 804.64 208.68V217.06C804.64 217.623 805.097 218.08 805.66 218.08H818.48C819.043 218.08 819.5 217.623 819.5 217.06V208.68C819.5 208.117 819.043 207.66 818.48 207.66Z" fill="#DFE1E8" />
			<path d="M840.04 207.66H827.22C826.657 207.66 826.2 208.117 826.2 208.68V217.06C826.2 217.623 826.657 218.08 827.22 218.08H840.04C840.603 218.08 841.06 217.623 841.06 217.06V208.68C841.06 208.117 840.603 207.66 840.04 207.66Z" fill="#DFE1E8" />
			<path d="M861.6 207.66H848.78C848.217 207.66 847.76 208.117 847.76 208.68V217.06C847.76 217.623 848.217 218.08 848.78 218.08H861.6C862.163 218.08 862.62 217.623 862.62 217.06V208.68C862.62 208.117 862.163 207.66 861.6 207.66Z" fill="#DFE1E8" />
			<path d="M883.16 207.66H870.34C869.777 207.66 869.32 208.117 869.32 208.68V217.06C869.32 217.623 869.777 218.08 870.34 218.08H883.16C883.723 218.08 884.18 217.623 884.18 217.06V208.68C884.18 208.117 883.723 207.66 883.16 207.66Z" fill="#DFE1E8" />
			<path d="M904.71 207.66H891.89C891.327 207.66 890.87 208.117 890.87 208.68V217.06C890.87 217.623 891.327 218.08 891.89 218.08H904.71C905.273 218.08 905.73 217.623 905.73 217.06V208.68C905.73 208.117 905.273 207.66 904.71 207.66Z" fill="#DFE1E8" />
			<path d="M926.27 207.66H913.45C912.887 207.66 912.43 208.117 912.43 208.68V217.06C912.43 217.623 912.887 218.08 913.45 218.08H926.27C926.833 218.08 927.29 217.623 927.29 217.06V208.68C927.29 208.117 926.833 207.66 926.27 207.66Z" fill="#DFE1E8" />
			<path d="M947.83 207.66H935.01C934.447 207.66 933.99 208.117 933.99 208.68V217.06C933.99 217.623 934.447 218.08 935.01 218.08H947.83C948.393 218.08 948.85 217.623 948.85 217.06V208.68C948.85 208.117 948.393 207.66 947.83 207.66Z" fill="#DFE1E8" />
			<path d="M969.39 207.66H956.57C956.007 207.66 955.55 208.117 955.55 208.68V217.06C955.55 217.623 956.007 218.08 956.57 218.08H969.39C969.953 218.08 970.41 217.623 970.41 217.06V208.68C970.41 208.117 969.953 207.66 969.39 207.66Z" fill="#DFE1E8" />
		</g>
		</g>
		<g class="svgIcon svgIcon5" style="opacity: 0; transform:translateY(0.63rem); transition-delay: 1s; transition-property: all; transition-duration: 0.5s; transition-timing-function: ease;">
			<path d="M1085.52 104.88V92.3601H1099.49L1105.11 104.88" fill="#A2AFF9" />
			<path d="M1102.73 104.88L1097.11 92.3601H1083.15V104.88V331.19H1103.04V104.88H1102.73Z" fill="url(#paint0_linear_26_4)" />
			<path d="M1052.69 148.33H1037.12V171.24H1052.69V148.33Z" fill="#FEDA8C" />
			<path d="M1037.12 148.33H1032.95V171.24H1037.12V148.33Z" fill="#F7C559" />
			<path d="M1052.69 156.44H1032.95V161.39H1052.69V156.44Z" fill="#E30313" />
			<path d="M1075.97 148.33H1060.4V171.24H1075.97V148.33Z" fill="#FEDA8C" />
			<path d="M1060.39 148.33H1056.22V171.24H1060.39V148.33Z" fill="#F7C559" />
			<path d="M1075.96 156.44H1056.22V161.39H1075.96V156.44Z" fill="#E30313" />
			<path d="M1060.39 156.44H1056.22V161.39H1060.39V156.44Z" fill="#AD1917" />
			<path d="M1098.72 148.33H1083.15V171.24H1098.72V148.33Z" fill="#FEDA8C" />
			<path d="M1083.14 148.33H1078.97V171.24H1083.14V148.33Z" fill="#F7C559" />
			<path d="M1098.71 156.44H1078.97V161.39H1098.71V156.44Z" fill="#E30313" />
			<path d="M1083.14 156.44H1078.97V161.39H1083.14V156.44Z" fill="#AD1917" />
			<path d="M1083.14 156.44H1078.97V161.39H1083.14V156.44Z" fill="#AD1917" />
			<path d="M1102.79 171.24H1029.39V175.69H1102.79V171.24Z" fill="#A2AFF9" />
			<path d="M1049.6 175.7L1035.04 179.72L1029.39 180.38V171.24H1049.6V175.7Z" fill="#7D84E2" />
			<path d="M1052.69 107.46H1037.12V130.37H1052.69V107.46Z" fill="#FEDA8C" />
			<path d="M1037.12 107.46H1032.95V130.37H1037.12V107.46Z" fill="#F7C559" />
			<path d="M1052.69 115.56H1032.95V120.51H1052.69V115.56Z" fill="#E30313" />
			<path d="M1075.97 107.46H1060.4V130.37H1075.97V107.46Z" fill="#FEDA8C" />
			<path d="M1060.39 107.46H1056.22V130.37H1060.39V107.46Z" fill="#F7C559" />
			<path d="M1075.96 115.56H1056.22V120.51H1075.96V115.56Z" fill="#E30313" />
			<path d="M1060.39 115.56H1056.22V120.51H1060.39V115.56Z" fill="#AD1917" />
			<path d="M1098.72 107.46H1083.15V130.37H1098.72V107.46Z" fill="#FEDA8C" />
			<path d="M1083.14 107.46H1078.97V130.37H1083.14V107.46Z" fill="#F7C559" />
			<path d="M1098.71 115.56H1078.97V120.51H1098.71V115.56Z" fill="#E30313" />
			<path d="M1083.14 115.56H1078.97V120.51H1083.14V115.56Z" fill="#AD1917" />
			<path d="M1083.14 115.56H1078.97V120.51H1083.14V115.56Z" fill="#AD1917" />
			<path d="M1102.79 130.37H1029.39V134.82H1102.79V130.37Z" fill="#A2AFF9" />
			<path d="M1049.6 134.82L1035.04 138.84L1029.39 139.5V130.37H1049.6V134.82Z" fill="#656DD6" />
			<path d="M1052.69 184.49H1037.12V207.4H1052.69V184.49Z" fill="#FEDA8C" />
			<path d="M1037.12 184.49H1032.95V207.4H1037.12V184.49Z" fill="#F7C559" />
			<path d="M1052.69 192.59H1032.95V197.54H1052.69V192.59Z" fill="#76C8D8" />
			<path d="M1075.97 184.49H1060.4V207.4H1075.97V184.49Z" fill="#FEDA8C" />
			<path d="M1060.39 184.49H1056.22V207.4H1060.39V184.49Z" fill="#F7C559" />
			<path d="M1098.72 184.49H1083.15V207.4H1098.72V184.49Z" fill="#FEDA8C" />
			<path d="M1083.14 184.49H1078.97V207.4H1083.14V184.49Z" fill="#F7C559" />
			<path d="M1102.79 207.39H1029.39V211.84H1102.79V207.39Z" fill="#A2AFF9" />
			<path d="M1052.69 220.64H1037.12V243.55H1052.69V220.64Z" fill="#A7D07D" />
			<path d="M1037.12 220.64H1032.95V243.55H1037.12V220.64Z" fill="#F7C559" />
			<path d="M1052.69 228.74H1032.95V233.69H1052.69V228.74Z" fill="white" />
			<path d="M1075.97 220.64H1060.4V243.55H1075.97V220.64Z" fill="#A7D07D" />
			<path d="M1060.39 220.64H1056.22V243.55H1060.39V220.64Z" fill="#70B42C" />
			<path d="M1075.96 228.74H1056.22V233.69H1075.96V228.74Z" fill="white" />
			<path d="M1060.39 228.74H1056.22V233.69H1060.39V228.74Z" fill="#DFE1E8" />
			<path d="M1098.72 220.64H1083.15V243.55H1098.72V220.64Z" fill="#A7D07D" />
			<path d="M1083.14 220.64H1078.97V243.55H1083.14V220.64Z" fill="#70B42C" />
			<path d="M1098.71 228.74H1078.97V233.69H1098.71V228.74Z" fill="white" />
			<path d="M1083.14 228.74H1078.97V233.69H1083.14V228.74Z" fill="#DFE1E8" />
			<path d="M1102.79 243.54H1029.39V247.99H1102.79V243.54Z" fill="#A2AFF9" />
			<path d="M1052.69 256.79H1037.12V279.7H1052.69V256.79Z" fill="#FEDA8C" />
			<path d="M1037.12 256.79H1032.95V279.7H1037.12V256.79Z" fill="#F7C559" />
			<path d="M1052.69 264.89H1032.95V269.84H1052.69V264.89Z" fill="#E30313" />
			<path d="M1075.97 256.79H1060.4V279.7H1075.97V256.79Z" fill="#FEDA8C" />
			<path d="M1060.39 256.79H1056.22V279.7H1060.39V256.79Z" fill="#F7C559" />
			<path d="M1075.96 264.89H1056.22V269.84H1075.96V264.89Z" fill="#E30313" />
			<path d="M1098.72 256.79H1083.15V279.7H1098.72V256.79Z" fill="#FEDA8C" />
			<path d="M1083.14 256.79H1078.97V279.7H1083.14V256.79Z" fill="#F7C559" />
			<path d="M1098.71 264.89H1078.97V269.84H1098.71V264.89Z" fill="#E30313" />
			<path d="M1102.79 279.69H1029.39V284.14H1102.79V279.69Z" fill="#A2AFF9" />
			<path d="M1037.13 135.79H1017.23V331.19H1037.13V135.79Z" fill="#888FA6" />
			<path d="M1039.5 104.87H1037.12V307.52H1039.5V104.87Z" fill="#A2AFF9" />
			<path d="M1105.18 104.87H1102.8V331.18H1105.18V104.87Z" fill="#A2AFF9" />
			<path d="M1103.05 301.72H1017.23V331.18H1103.05V301.72Z" fill="#A2AFF9" />
			<path d="M1103.05 305.06H1017.23V331.18H1103.05V305.06Z" fill="url(#paint1_linear_26_4)" />
			<path d="M1037.13 301.72H1017.23V331.18H1037.13V301.72Z" fill="#656DD6" />
			<path d="M1049.6 211.85L1035.04 215.87L1029.39 216.53V207.39H1049.6V211.85Z" fill="#656DD6" />
			<path d="M1049.6 248L1035.04 252.02L1029.39 252.68V243.54H1049.6V248Z" fill="#656DD6" />
			<path d="M1049.6 284.15L1035.04 288.17L1029.39 288.83V279.69H1049.6V284.15Z" fill="#656DD6" />
			<path d="M1019.6 104.88V92.3601H1033.57L1039.5 104.88" fill="#A2AFF9" />
			<path d="M1031.19 92.3601H1017.23V104.88V331.19H1037.12V104.88L1031.19 92.3601Z" fill="url(#paint2_linear_26_4)" />
			<path d="M1102.21 169.22C1102.21 169.22 1101.74 165.22 1099.12 163.96C1096.5 162.7 1093.78 166.41 1093.83 167.81C1093.98 168.542 1094.28 169.235 1094.71 169.848C1095.14 170.462 1095.69 170.983 1096.32 171.38C1097.77 172.29 1098.76 173.43 1099.14 173.5C1099.93 173.64 1102.35 170.63 1102.21 169.22Z" fill="#F7B29A" />
			<path d="M1122.05 187.88L1135.05 175.02L1141.52 182.6C1141.52 182.6 1132.52 200.87 1125.96 200.3C1119.78 199.76 1097.89 172.78 1097.89 172.78L1102.21 169.22L1122.58 183.41L1129 187.41" fill="#F7B29A" />
			<path d="M1126 200.3C1129.9 200.64 1134.71 194.22 1137.94 189.02L1132.7 184.49C1132.7 184.49 1129.4 196.21 1125.79 196.78C1122.18 197.35 1112.46 189.32 1112.31 189.19C1117.75 195 1123.3 200.07 1126 200.3Z" fill="#D48068" />
			<path d="M1098.72 148.33H1083.15V171.24H1098.72V148.33Z" fill="#FEDA8C" />
			<path d="M1083.14 148.33H1078.97V171.24H1083.14V148.33Z" fill="#F7C559" />
			<path d="M1098.71 156.44H1078.97V161.39H1098.71V156.44Z" fill="#E30313" />
			<path d="M1083.14 156.44H1078.97V161.39H1083.14V156.44Z" fill="#AD1917" />
			<path d="M1083.14 156.44H1078.97V161.39H1083.14V156.44Z" fill="#AD1917" />
			<path d="M1101.16 166C1101.16 166 1100.51 162.08 1100.38 161.46C1100.22 160.65 1099.15 161.11 1098.91 162.04C1098.71 162.997 1098.64 163.975 1098.7 164.95" fill="#F7B29A" />
			<path d="M1140.72 167.1L1127.65 182.5L1140.72 192.11L1148.21 173.47" fill="#842857" />
			<path d="M1145.44 322.87V328.46C1145.44 329.052 1145.21 329.619 1144.79 330.037C1144.37 330.455 1143.8 330.69 1143.21 330.69H1127.35C1127.13 330.69 1126.91 330.625 1126.73 330.502C1126.55 330.38 1126.41 330.205 1126.32 330.002C1126.24 329.798 1126.22 329.574 1126.26 329.358C1126.31 329.143 1126.41 328.945 1126.57 328.79C1128.47 327.447 1130.54 326.346 1132.71 325.51C1134.98 324.473 1137.39 323.749 1139.86 323.36L1145.44 322.87Z" fill="#1F1341" />
			<path d="M1175.35 322.87V328.46C1175.35 329.052 1175.12 329.619 1174.7 330.037C1174.28 330.455 1173.71 330.69 1173.12 330.69H1157.26C1157.04 330.69 1156.82 330.625 1156.64 330.502C1156.46 330.38 1156.32 330.205 1156.23 330.002C1156.15 329.798 1156.13 329.574 1156.17 329.358C1156.22 329.143 1156.32 328.945 1156.48 328.79C1158.39 327.452 1160.45 326.35 1162.62 325.51C1164.9 324.474 1167.3 323.751 1169.77 323.36L1175.35 322.87Z" fill="#1F1341" />
			<path d="M1137.87 219.05L1136.22 324.23H1145.44C1145.44 324.23 1159.12 257.72 1157.27 237.79C1155.42 217.86 1138.92 212.74 1137.87 219.05Z" fill="#76A5D9" />
			<path d="M1156.69 242.92C1151.84 233.22 1150.05 248.54 1150.05 248.54C1150.05 248.54 1148.67 306.38 1142.64 324.16L1145.44 324.23C1145.44 324.23 1153.79 283.11 1156.56 256.23C1156.64 254.29 1156.69 252.79 1156.69 251.88C1156.6 250.664 1156.78 249.443 1157.23 248.31C1157.31 246.94 1157.38 245.62 1157.41 244.38L1156.69 242.92Z" fill="#54579E" />
			<path d="M1148.58 235.83C1148.58 235.83 1154.95 271.34 1157.44 282.97C1159.93 294.6 1166.35 324.16 1166.35 324.16H1175.35C1175.35 324.16 1177.35 280.97 1172.73 269.9C1168.11 258.83 1177.38 220.57 1165.73 218.62C1154.08 216.67 1148 226 1148 226" fill="#76A5D9" />
			<path d="M1175.35 324.16C1175.35 324.16 1177.35 280.97 1172.73 269.9C1170.16 263.78 1171.85 249.36 1171.92 237.35C1171.92 227.63 1174.5 242.13 1169.29 241.25C1169.29 241.25 1167.29 235.25 1167.29 241.48C1167.29 246.48 1167.56 251.48 1167.41 255.98C1166.89 271.18 1171.99 273.13 1173.2 289.3" fill="#54579E" />
			<path d="M1153.48 161.4C1153.48 161.4 1140.74 162.18 1137.76 172.32C1134.78 182.46 1136.22 226.51 1136.22 226.51C1136.22 226.51 1164.58 230.43 1174.72 221.78C1174.72 221.78 1174.31 209.29 1175.03 200.78C1176.37 184.72 1178.5 167.22 1172.29 164.78C1166.3 162.445 1159.91 161.297 1153.48 161.4Z" fill="#842857" />
			<path d="M1162.24 162.21L1164.32 151.46L1155.32 155.31L1153.49 161.38C1153.49 161.38 1153.41 165 1162.24 162.21Z" fill="#F7B29A" />
			<path d="M1154.71 157.48L1154.03 159.71C1154.03 159.71 1159.03 159.82 1159.03 157.48C1159.03 155.14 1154.71 157.48 1154.71 157.48Z" fill="#D48068" />
			<path d="M1155.83 135.49C1155.83 135.49 1153.41 141.49 1155.3 143.63C1157.19 145.77 1160.4 140.63 1160.4 140.63" fill="#1F1341" />
			<path d="M1152.11 138.63C1152.11 138.63 1150.11 144.49 1152.66 144.89C1155.21 145.29 1155.41 140.43 1155.41 140.43" fill="#1F1341" />
			<path d="M1154.2 140.59C1154.2 140.59 1154.2 137.2 1153.53 138.59C1152.69 140.51 1150.81 145.43 1150.81 149.5C1150.81 155.65 1153.39 158.35 1154.97 158.35C1157.09 158.35 1159.37 157.1 1160.64 156.84C1162.22 156.51 1162.42 157.72 1162.13 157.61L1167.13 146.61L1161.85 138.98L1154.2 140.59Z" fill="#F7B29A" />
			<path d="M1162.23 143.78C1162.23 143.78 1151.6 144.36 1151.6 137.99C1151.6 133.39 1154.03 131.58 1156.88 131.58C1160.88 131.58 1164.88 132.91 1167.13 136.5C1169.13 139.71 1170.33 139.95 1170.33 143.5C1170.33 147.57 1166.46 153.93 1163.96 153.56C1161.46 153.19 1161.29 147.83 1162.23 143.78Z" fill="#1F1341" />
			<path d="M1161.35 149.07C1161.35 149.07 1163.35 147.4 1164.35 149.24C1165.35 151.08 1163.44 152.94 1160.92 152.86" fill="#F7B29A" />
			<path d="M1127.64 208.29C1130.1 206.89 1134.94 206.39 1139.89 205.04C1149.62 202.37 1160.61 199.23 1160.61 199.23L1162.72 187.88L1175.03 190.73C1175.03 190.73 1171.91 207.09 1170.33 209.02C1168.75 210.95 1136.77 213.13 1136.77 213.13L1127.64 208.29Z" fill="#F7B29A" />
			<path d="M1174.94 191.17C1174.43 193.78 1171.75 207.28 1170.33 209.02C1169.69 209.81 1163.44 210.63 1156.23 211.32C1156.23 211.32 1165.98 209.02 1167.23 207.16C1168.33 205.56 1171.01 193.4 1171.75 189.98L1173.94 190.49L1174.94 191.17Z" fill="#D48068" />
			<path d="M1126.74 222.47L1130.91 241.55C1131.06 242.202 1131.42 242.785 1131.94 243.207C1132.46 243.629 1133.1 243.866 1133.77 243.88H1168.77C1169.42 243.867 1170.05 243.64 1170.57 243.236C1171.08 242.832 1171.44 242.272 1171.61 241.64L1176.39 222.57C1176.52 222.145 1176.55 221.696 1176.48 221.257C1176.4 220.819 1176.23 220.403 1175.97 220.043C1175.71 219.682 1175.37 219.385 1174.98 219.177C1174.59 218.968 1174.15 218.853 1173.71 218.84H1129.42C1128.99 218.857 1128.56 218.971 1128.18 219.174C1127.8 219.377 1127.47 219.663 1127.21 220.011C1126.95 220.36 1126.78 220.762 1126.69 221.187C1126.61 221.613 1126.63 222.051 1126.74 222.47V222.47ZM1165.37 239.22L1168.18 225.93C1168.25 225.611 1168.42 225.325 1168.67 225.114C1168.92 224.902 1169.23 224.778 1169.56 224.76C1169.7 224.758 1169.84 224.789 1169.97 224.852C1170.1 224.916 1170.21 225.008 1170.29 225.123C1170.38 225.237 1170.43 225.371 1170.45 225.511C1170.48 225.651 1170.46 225.795 1170.42 225.93L1167.24 239.22C1167.16 239.451 1167.01 239.652 1166.81 239.793C1166.61 239.935 1166.37 240.011 1166.13 240.01C1165.62 240 1165.28 239.65 1165.37 239.22V239.22ZM1159.47 239.22L1161.08 225.93C1161.12 225.616 1161.27 225.326 1161.51 225.112C1161.74 224.898 1162.04 224.774 1162.36 224.76C1162.51 224.758 1162.65 224.788 1162.79 224.849C1162.92 224.909 1163.04 224.999 1163.13 225.11C1163.23 225.222 1163.3 225.353 1163.34 225.495C1163.38 225.637 1163.38 225.785 1163.36 225.93L1161.36 239.22C1161.31 239.448 1161.18 239.651 1161 239.795C1160.82 239.939 1160.59 240.015 1160.36 240.01C1160.25 240.03 1160.13 240.024 1160.02 239.993C1159.91 239.961 1159.81 239.906 1159.72 239.83C1159.64 239.754 1159.57 239.66 1159.53 239.554C1159.48 239.448 1159.46 239.334 1159.47 239.22V239.22ZM1153.58 239.22L1153.98 225.93C1153.99 225.621 1154.12 225.328 1154.34 225.111C1154.56 224.893 1154.85 224.768 1155.16 224.76C1155.31 224.761 1155.46 224.793 1155.59 224.853C1155.73 224.913 1155.85 225.001 1155.95 225.111C1156.05 225.221 1156.13 225.351 1156.18 225.491C1156.22 225.632 1156.24 225.782 1156.23 225.93L1155.44 239.22C1155.4 239.453 1155.28 239.664 1155.09 239.81C1154.91 239.957 1154.68 240.028 1154.44 240.01C1154.33 240.015 1154.22 239.999 1154.12 239.962C1154.02 239.925 1153.92 239.868 1153.84 239.795C1153.76 239.721 1153.7 239.633 1153.65 239.534C1153.61 239.435 1153.58 239.329 1153.58 239.22V239.22ZM1146.89 225.93C1146.88 225.782 1146.9 225.632 1146.94 225.491C1146.99 225.351 1147.07 225.221 1147.17 225.111C1147.27 225.001 1147.39 224.913 1147.53 224.853C1147.66 224.793 1147.81 224.761 1147.96 224.76C1148.27 224.77 1148.56 224.897 1148.78 225.114C1148.99 225.331 1149.12 225.623 1149.13 225.93L1149.54 239.22C1149.53 239.331 1149.51 239.44 1149.46 239.54C1149.41 239.641 1149.34 239.73 1149.26 239.804C1149.17 239.877 1149.07 239.933 1148.97 239.969C1148.86 240.004 1148.75 240.018 1148.64 240.01C1148.4 240.033 1148.17 239.964 1147.98 239.816C1147.79 239.669 1147.67 239.455 1147.64 239.22L1146.89 225.93ZM1139.79 225.93C1139.77 225.785 1139.77 225.637 1139.81 225.495C1139.85 225.353 1139.92 225.222 1140.02 225.11C1140.11 224.999 1140.23 224.909 1140.36 224.849C1140.5 224.788 1140.64 224.758 1140.79 224.76C1141.11 224.772 1141.41 224.896 1141.64 225.11C1141.88 225.324 1142.03 225.615 1142.07 225.93L1143.68 239.22C1143.68 239.329 1143.67 239.437 1143.63 239.537C1143.59 239.638 1143.52 239.729 1143.44 239.804C1143.37 239.879 1143.27 239.936 1143.17 239.971C1143.07 240.007 1142.96 240.02 1142.85 240.01C1142.62 240.015 1142.39 239.939 1142.21 239.795C1142.03 239.651 1141.9 239.448 1141.85 239.22L1139.79 225.93ZM1133.55 224.76C1133.88 224.779 1134.19 224.904 1134.44 225.115C1134.69 225.325 1134.87 225.611 1134.94 225.93L1137.74 239.22C1137.76 239.324 1137.75 239.431 1137.72 239.532C1137.69 239.634 1137.64 239.726 1137.56 239.803C1137.49 239.88 1137.4 239.938 1137.3 239.974C1137.2 240.01 1137.09 240.022 1136.99 240.01C1136.75 240.012 1136.51 239.937 1136.31 239.795C1136.11 239.653 1135.96 239.452 1135.88 239.22L1132.69 225.93C1132.65 225.795 1132.63 225.651 1132.66 225.511C1132.68 225.371 1132.73 225.237 1132.82 225.123C1132.9 225.008 1133.01 224.916 1133.14 224.852C1133.27 224.789 1133.41 224.758 1133.55 224.76V224.76Z" fill="#E30313" />
			<path d="M1148.94 201.328L1151.7 222.297C1151.8 223.048 1152.49 223.576 1153.24 223.477L1153.25 223.476C1154 223.377 1154.53 222.689 1154.43 221.939L1151.67 200.969C1151.57 200.219 1150.88 199.691 1150.13 199.79L1150.12 199.791C1149.37 199.89 1148.84 200.578 1148.94 201.328Z" fill="#E30313" />
			<path d="M1170.33 164C1172.71 164.761 1174.8 166.228 1176.32 168.205C1177.85 170.182 1178.74 172.576 1178.87 175.07C1179.14 180.808 1178.46 186.55 1176.87 192.07L1158.87 186.76" fill="#842857" />
			<path d="M1128.69 207C1127.3 206.701 1125.96 206.234 1124.69 205.61C1123.63 205.03 1123.63 203.66 1124.88 203.81C1126.98 204.166 1129.06 204.687 1131.08 205.37" fill="#F7B29A" />
			<path d="M1123.96 198.01L1130.19 216.12H1118.49L1112.27 198.01H1123.96Z" fill="#A7D07D" />
			<path d="M1136.82 206.19C1134.89 206.13 1130.08 205.09 1128.75 205.04C1127.42 204.99 1126.75 207.12 1125.84 209.21C1125.04 211.03 1125.89 212.5 1127.95 212.77C1129.38 212.96 1135.49 213.4 1137.76 212.91" fill="#F7B29A" />
			<path d="M1129.08 212.88C1127.45 212.879 1125.85 212.444 1124.45 211.62C1123.75 211.17 1122.03 209.56 1122.45 208.87C1122.81 208.34 1123.59 208.42 1124.17 209.08C1124.67 209.645 1125.36 210.002 1126.11 210.08" fill="#F7B29A" />
			<path d="M1126.9 211C1125.45 210.897 1124.02 210.588 1122.65 210.08C1121.95 209.65 1120.9 207.97 1121.47 207.36C1122.04 206.75 1122.47 207.36 1122.89 207.85C1123.06 208.109 1123.29 208.322 1123.56 208.472C1123.84 208.622 1124.14 208.703 1124.45 208.71C1125.32 208.741 1126.19 208.718 1127.05 208.64" fill="#F7B29A" />
			<path d="M1126.48 209.18C1124.85 209.199 1123.24 208.987 1121.67 208.55C1120.91 208.21 1119.34 207.39 1119.81 206.7C1120.12 206.25 1120.87 206.39 1121.54 206.47C1123.57 206.66 1125.62 206.66 1127.65 206.47" fill="#F7B29A" />
		</g>
		<g class="svgIcon svgIcon3" style="opacity: 0; transform:translateY(0.63rem); transition-delay: 0.6s; transition-property: all; transition-duration: 0.5s; transition-timing-function: ease;">
			<path d="M643.32 171.67C643.006 170.791 642.428 170.031 641.666 169.494C640.903 168.957 639.993 168.669 639.06 168.67H607C603.338 168.67 599.729 169.551 596.48 171.24L591.26 173.94C590.394 174.391 589.707 175.122 589.311 176.014C588.915 176.906 588.834 177.906 589.08 178.85C593.15 194.39 610.29 259.37 613.18 262.27C615.94 265.02 657.36 263.16 670.76 262.49C671.243 262.464 671.713 262.326 672.134 262.087C672.554 261.849 672.914 261.515 673.183 261.114C673.453 260.712 673.625 260.254 673.687 259.774C673.749 259.294 673.699 258.807 673.54 258.35L643.32 171.67Z" fill="#E30313" />
			<path d="M611.59 201.5L630.69 263.7L670.69 262.46L647 188.6C647 188.6 619.86 172 611.7 195.42C611.029 197.385 610.991 199.512 611.59 201.5V201.5Z" fill="#990D0D" />
			<path d="M647.27 245C645.779 248.404 645.082 252.102 645.233 255.815C645.384 259.528 646.378 263.158 648.14 266.43C651.43 272.86 672.35 270.43 681.14 269.92C689.93 269.41 686.94 255 686.94 255V247" fill="#842857" />
			<path d="M668.036 335.59L697.18 349.95L698.541 347.187L669.397 332.828L668.036 335.59Z" fill="#1F1341" />
			<path d="M695.39 354.87C698.494 354.87 701.01 352.354 701.01 349.25C701.01 346.146 698.494 343.63 695.39 343.63C692.286 343.63 689.77 346.146 689.77 349.25C689.77 352.354 692.286 354.87 695.39 354.87Z" fill="#1F1341" />
			<path d="M822.45 160.86C822.45 160.86 817.36 155.06 817.28 154.56C817.18 153.89 818.76 153.15 820.18 154.62C821.6 156.09 825.52 159.42 825.52 159.42" fill="#E29882" />
			<path d="M833.73 161.5C833.73 161.5 833.46 161.16 830.62 159.92C827.94 158.74 825.8 157.41 824.81 156.12C824.3 155.45 824.57 155.12 824.92 154.89C825.98 154.22 829.7 156.19 831.73 156.89C834.12 157.72 835.91 158.53 837.31 159.04C838.156 159.342 838.981 159.7 839.78 160.11V165.6C839.78 165.6 828.45 165.03 827.53 164.67C824.582 163.247 821.81 161.486 819.27 159.42C817.37 157.89 815.48 156.52 815.48 156.01C815.48 155.5 816.04 155.08 816.9 155.17C818.083 155.433 819.215 155.89 820.25 156.52C821.65 157.34 825.91 159.61 826.76 159.61C827.916 159.298 829.021 158.82 830.04 158.19" fill="#F7B29A" />
			<path d="M846.09 166.89C846.09 166.89 842.91 161.38 840.26 160.23C838.82 159.61 835.72 158.42 835.72 158.42L833.72 165.11L837.89 166.11C839.118 166.39 840.24 167.019 841.12 167.92L842.2 169.03" fill="#F7B29A" />
			<path d="M661.93 283.68V299.2H665.93V336.63H675.18V299.2H678.35V278.71" fill="#1F1341" />
			<path d="M630.69 263.7L603.4 168.93C600.958 169.305 598.594 170.075 596.4 171.21L591.18 173.91C590.314 174.361 589.627 175.092 589.231 175.984C588.835 176.876 588.754 177.876 589 178.82C593.07 194.36 610.21 259.34 613.1 262.24C614.23 263.34 621.5 263.7 630.69 263.7Z" fill="#990D0D" />
			<path d="M687.03 265.94H634.19C630.915 265.94 628.26 268.595 628.26 271.87V278.28C628.26 281.555 630.915 284.21 634.19 284.21H687.03C690.305 284.21 692.96 281.555 692.96 278.28V271.87C692.96 268.595 690.305 265.94 687.03 265.94Z" fill="#AD1917" />
			<path d="M687.03 265.94H634.19C630.915 265.94 628.26 268.595 628.26 271.87V278.28C628.26 281.555 630.915 284.21 634.19 284.21H687.03C690.305 284.21 692.96 281.555 692.96 278.28V271.87C692.96 268.595 690.305 265.94 687.03 265.94Z" fill="#AD1917" />
			<path d="M646.69 238.35L645.5 251.29L678.64 256.41L679.83 245.65" fill="#140B2E" />
			<path d="M756.3 239C755.7 238.76 755 238.5 754.3 238.24C754.226 238.061 754.096 237.91 753.93 237.81C751.93 236.45 747.74 234.34 746.06 234.22C744.62 234.07 732.18 234.92 730.06 235.06C726.19 235.3 727.15 241.99 728.51 241.99C731.51 241.99 740.51 242.11 744.77 241.99C747.54 242.06 752.2 241.94 752.92 241.92C753.121 241.912 753.313 241.837 753.465 241.706C753.618 241.576 753.722 241.397 753.76 241.2C754.45 241.26 755.01 241.29 755.33 241.29C755.9 241.29 756.27 240.85 756.16 240.44C757 240.42 757.41 239.43 756.3 239Z" fill="#F7B29A" />
			<path d="M691.11 184.17C691.11 184.17 698 191 701.18 208.39C704.36 225.78 705.05 230.29 705.05 230.29C705.05 230.29 732.31 230.51 738.97 232.87V241.67L677.27 240.32" fill="#54579C" />
			<path d="M670.35 179.91C670.35 179.91 649.17 174.24 642.29 185.91C635.41 197.58 647.29 245.07 647.29 245.07H683.14C683.14 245.07 694.68 207.28 695.63 196.83C696.58 186.38 689.11 177.53 670.35 179.91Z" fill="#54579C" />
			<path d="M649.23 197.41C649.23 197.41 659.11 216.65 672.78 221.22C686.94 225.96 690.53 219.46 690.53 219.46L683.12 245L647.12 239.41L638.76 231.49V209.71" fill="#322767" />
			<path d="M701.42 238.85C700.81 238.61 700.12 238.36 699.42 238.09C699.341 237.914 699.212 237.765 699.05 237.66C697.05 236.31 692.86 234.2 691.18 234.08C689.74 233.93 677.3 234.78 675.18 234.91C671.31 235.16 672.27 241.85 673.63 241.85C676.63 241.85 685.63 241.96 689.89 241.85C692.66 241.91 697.32 241.79 698.04 241.77C698.241 241.764 698.434 241.689 698.587 241.558C698.74 241.427 698.843 241.248 698.88 241.05C699.57 241.11 700.13 241.15 700.45 241.14C701.02 241.14 701.39 240.71 701.28 240.29C702.09 240.28 702.53 239.29 701.42 238.85Z" fill="#F7B29A" />
			<path d="M660.61 168.21L664 179.45C664 179.45 668.26 183.73 674.43 180.33L672 170.48" fill="#F7B29A" />
			<path d="M664.3 171.84C664.3 171.84 665.35 175.84 673.17 175.84L670.56 165.19L664.3 171.84Z" fill="#D48068" />
			<path d="M674.41 148.72C674.41 148.72 676.15 156.26 673.03 155.94C669.91 155.62 665.96 151.09 665.96 151.09" fill="#701745" />
			<path d="M670.85 150.43C670.85 150.43 674.66 154.09 676.28 161.43C677.9 168.77 677.47 174 671.93 174C667.33 174 665.93 173.75 662.15 170.09C658.37 166.43 655.55 152.57 662.86 149.79C670.17 147.01 670.85 150.43 670.85 150.43Z" fill="#F7B29A" />
			<path d="M666.55 144.72C666.55 144.72 670.43 141.32 674.55 144.52C678.16 147.32 677.39 152.52 668.61 152.52C668.61 152.52 665.33 152.2 662.91 156.24C662.05 157.66 664.02 160.44 663.82 162.61C663.564 163.569 663.155 164.481 662.61 165.31C662.109 166.342 661.484 167.309 660.75 168.19L658.32 166.36C655.84 164.1 651.49 159.36 651.49 153.51C651.49 146.96 657.99 143.24 661.98 143.51C663.561 143.653 665.106 144.062 666.55 144.72V144.72Z" fill="#701745" />
			<path d="M663.85 163.68C663.85 163.68 660.54 160.95 659.43 162.84C658.32 164.73 660.43 167.97 664.56 167.12" fill="#F7B29A" />
			<path d="M670.43 167.71L674.98 166.38C674.98 166.38 675.46 168.64 673.77 169.22C672.08 169.8 670.43 167.71 670.43 167.71Z" fill="white" />
			<path d="M652.9 179.1C652.9 179.1 639.97 178.87 636.9 188.73C633.83 198.59 628.14 229.25 628.51 234.36C628.88 239.47 634.16 240.36 638.91 240.36H683.08L682.6 232.42C682.6 232.42 656.73 222.33 645.78 222.52C645.78 222.52 656.95 195.19 646.92 191.98" fill="#54579C" />
			<path d="M660.61 178.57L672.79 212.56L678.97 179.63L669.32 177.41L660.61 178.57Z" fill="white" />
			<path d="M662.8 175.14L660.61 178.57L667.91 181.46L669.32 177.41L662.8 175.14Z" fill="white" />
			<path d="M669.32 177.41L670.48 181.64L676.24 179.53L673.17 175.82L669.32 177.41Z" fill="white" />
			<path d="M669.32 178.73L667.91 181.46L662.45 179.3L668.17 183.53L669.32 178.73Z" fill="#B9C0D5" />
			<path d="M824.14 248.47H817.35V354.88H824.14V248.47Z" fill="#F5CD95" />
			<path d="M645.5 248.47H638.71L625.07 354.88H631.85L645.5 248.47Z" fill="#C79D5B" />
			<path d="M829.25 240.32H616.36V248.46H829.25V240.32Z" fill="#F5CD95" />
			<path d="M670.48 240.32H616.36V248.46H670.48V240.32Z" fill="#C79D5B" />
			<path d="M821.69 226.25H760.27C759.562 226.251 758.863 226.09 758.226 225.781C757.589 225.472 757.031 225.022 756.594 224.465C756.156 223.908 755.851 223.259 755.702 222.567C755.552 221.875 755.562 221.158 755.73 220.47L764.23 185.63C764.742 183.54 765.941 181.681 767.634 180.352C769.328 179.023 771.418 178.301 773.57 178.3H835C835.708 178.298 836.406 178.457 837.043 178.765C837.68 179.073 838.239 179.522 838.676 180.078C839.114 180.635 839.419 181.283 839.569 181.975C839.718 182.666 839.709 183.383 839.54 184.07L831 218.91C830.492 220.998 829.299 222.856 827.612 224.187C825.924 225.517 823.839 226.244 821.69 226.25Z" fill="#656DD6" />
			<path d="M787.29 223.29L782.97 237.29H770.88C770.319 237.292 769.768 237.435 769.277 237.705C768.786 237.976 768.371 238.367 768.07 238.84L767.07 240.34H799.86L804.32 224.9" fill="#888FA6" />
			<path d="M787.29 223.29L782.97 237.29H770.88C770.319 237.292 769.768 237.435 769.277 237.705C768.786 237.976 768.371 238.367 768.07 238.84L767.07 240.34H799.86L804.32 224.9" fill="#656DD6" />
			<path d="M786.38 226.25L791.84 208.25C790.709 208.638 789.668 209.25 788.778 210.049C787.888 210.848 787.168 211.817 786.66 212.9C785.26 216.37 782.66 226.23 782.66 226.23L786.38 226.25Z" fill="url(#paint3_linear_26_4)" />
			<path d="M668.456 332.834L639.311 347.194L640.673 349.957L669.817 335.597L668.456 332.834Z" fill="#1F1341" />
			<path d="M905.56 344.47V350.89C905.56 351.569 905.29 352.22 904.81 352.7C904.33 353.18 903.679 353.45 903 353.45H884.81C884.556 353.45 884.308 353.374 884.097 353.233C883.887 353.092 883.723 352.891 883.626 352.657C883.53 352.422 883.505 352.164 883.556 351.915C883.606 351.666 883.73 351.438 883.91 351.26C884.72 350.45 888.33 348.57 890.96 347.5C896.51 345.25 899.16 345.04 899.16 345.04L905.56 344.47Z" fill="#1F1341" />
			<path d="M907.8 253.83L905.56 346.36H894C894 346.36 874.67 226.86 886.22 216C897.77 205.14 911.89 218.7 911.89 218.7L907.8 253.83Z" fill="#C28FBF" />
			<path d="M908.24 256.35L905.56 346.35L905.81 338.12C905.81 338.12 904.51 302.58 901.7 276.52C898.89 250.46 901.46 235.97 906.57 236.52C910.57 236.93 909.94 260.59 910.41 275.26C910.54 279 908.24 256.35 908.24 256.35Z" fill="#8856A6" />
			<path d="M924.52 214.44C924.52 214.44 930.16 251.04 932.82 278.06C935.48 305.08 936.32 347.13 936.32 347.13H924.41C924.41 347.13 899.57 235.9 899.57 228.67C899.57 221.44 924.52 214.44 924.52 214.44Z" fill="#C28FBF" />
			<path d="M911.89 216.12C911.89 216.12 917.11 216.76 917.12 216.75L924.52 214.44C924.52 214.44 930.16 251.04 932.82 278.06C935.48 305.08 936.31 347.13 936.31 347.13H933.1C933.1 347.13 928.42 290.7 925.42 270.29C922 246.92 911.89 216.13 911.89 216.12Z" fill="#8856A6" />
			<path d="M890.05 169.94C890.05 169.94 875.29 199.29 866.05 199.29C857.62 199.29 833.4 168.91 833.4 168.91L841.25 160.72L863.58 177.11C863.58 177.11 881.73 140.45 891.77 137.64" fill="#54579C" />
			<path d="M864.38 190C872.53 190 883.46 163.76 883.46 163.76L890.28 165.59L890.05 169.91C890.05 169.91 875.29 199.26 866.05 199.26C857.62 199.26 833.4 168.88 833.4 168.88L835.4 166.8C835.4 166.8 856.22 190 864.38 190Z" fill="#322767" />
			<path d="M893.87 135.31C893.87 135.31 893.87 132.49 903.33 132.82C906.22 132.92 918.62 135.51 921.33 137.64C932.99 146.74 930.65 192.91 930.09 202.87C929.797 209.873 929.961 216.888 930.58 223.87C930.58 223.87 890.53 229.56 878.87 223.87C878.87 223.87 879.8 204.63 880.43 185.08C881.15 163.17 882.14 140.38 893.87 135.31Z" fill="#54579C" />
			<path d="M904.32 133.89L902.8 119.89L893.87 131.07L895.69 140.89L904.32 133.89Z" fill="#F7B29A" />
			<path d="M898.19 126.73C898.19 126.73 898.35 132.56 894.19 132.92L893.46 129.66L898.19 126.73Z" fill="#D48068" />
			<path d="M877.86 107.55C877.86 107.55 879.06 115.4 884.01 115.22C888.96 115.04 886.83 107.14 886.83 107.14" fill="#1F1341" />
			<path d="M903 128.22C903 128.22 899.88 125.31 899 126.78C897 130.28 892.31 131.73 890.2 130.78C886.73 129.28 880.08 112.41 882.29 108.49C884.5 104.57 897.71 104.99 901.03 108.4C904.35 111.81 903 128.22 903 128.22Z" fill="#F7B29A" />
			<path d="M903.22 124.53C903.22 124.53 906.89 115.28 906.05 109.39C905.21 103.5 898.38 102.15 896.91 102.11C894.91 102.11 887.11 94.28 880.54 99.11C872.74 104.89 877.68 110.95 884.54 111.67C887.23 111.94 889.07 111.57 891.06 112C892.81 112.38 899.29 116.95 899.65 117.51C900.01 118.07 899.24 117.31 899.5 117.84C900.85 120.56 901 124.65 903.22 124.53Z" fill="#1F1341" />
			<path d="M897.23 117.25C897.23 117.25 897.23 113.42 899.91 113.78C902.59 114.14 901.48 119.49 899.09 120.78" fill="#F7B29A" />
			<path d="M911.89 202.23C916.7 189.65 916.03 163.79 916.03 163.79L928.24 223.92C927.75 224.09 927.24 224.26 926.78 224.41C917.157 225.605 907.476 226.273 897.78 226.41C902.05 221.73 908.23 211.78 911.89 202.23Z" fill="#322767" />
			<path d="M899.965 235.662L949.953 243.508C950.597 243.609 951.2 243.169 951.301 242.525L957.432 203.463C957.533 202.819 957.093 202.216 956.45 202.114L906.461 194.269C905.818 194.168 905.214 194.608 905.113 195.251L898.982 234.313C898.881 234.957 899.321 235.561 899.965 235.662Z" fill="#E30313" />
			<path d="M904.94 240.88H952.15V203.53H904.94V240.88Z" fill="white" />
			<path d="M931.29 228.9L931.2 222.61L939.41 220.19V240.38C939.41 240.97 938.96 242.59 937.88 243C936.413 243.362 934.898 243.494 933.39 243.39C932.62 243.39 931.92 243.39 931.39 243.3C930.928 243.255 930.482 243.104 930.088 242.857C929.694 242.611 929.363 242.276 929.12 241.88L928.58 240.97L930.44 240.88L929.86 235.35L931.29 228.9Z" fill="#F7B29A" />
			<path d="M932 227.41C932 227.41 928.07 231.84 927.72 232.76C927.37 233.68 926.37 239.4 926.32 239.76C926.27 240.12 928.09 241.5 929.32 238.91C930.55 236.32 932.04 232.25 932.04 232.25" fill="#F7B29A" />
			<path d="M921.34 137.64C921.34 137.64 933.25 145.07 936.34 168.46C939.43 191.85 939.6 226.13 939.6 226.13L928.68 227.13C928.68 227.13 915.36 171.44 911.91 162.7" fill="#54579C" />
			<path d="M891.79 137.64L893.87 133.46L896.13 133.75L904.35 129.91L907.04 133.33L907.8 133.47L891.79 176.22" fill="white" />
			<path d="M896.33 135.93L897.67 138.23L904.32 135.57L897.34 140.89L896.33 135.93Z" fill="#B9C0D5" />
			<path d="M927.41 353.45H938.08C938.468 353.445 938.849 353.341 939.185 353.148C939.522 352.955 939.804 352.679 940.004 352.347C940.204 352.014 940.316 351.636 940.33 351.248C940.343 350.86 940.257 350.475 940.08 350.13C939.582 348.941 938.792 347.897 937.784 347.095C936.775 346.293 935.58 345.758 934.31 345.54C928.71 344.86 925.74 345.89 925.7 348.54C925.7 349.97 925.7 350.62 925.7 351.81C925.711 352.254 925.896 352.675 926.217 352.983C926.537 353.29 926.966 353.458 927.41 353.45V353.45Z" fill="#1F1341" />
			<path d="M642.47 354.87C645.574 354.87 648.09 352.354 648.09 349.25C648.09 346.146 645.574 343.63 642.47 343.63C639.366 343.63 636.85 346.146 636.85 349.25C636.85 352.354 639.366 354.87 642.47 354.87Z" fill="#1F1341" />
			<path d="M887.69 125.52L891.01 124.32C891.01 124.32 890.86 127.19 889.35 127.06C888.937 127.038 888.545 126.872 888.242 126.59C887.938 126.309 887.743 125.93 887.69 125.52Z" fill="white" />
			<path d="M677.27 248.47H670.14V354.88H677.27V248.47Z" fill="#F5CD95" />
			<path d="M746.37 343.63V350.41C746.369 350.765 746.438 351.117 746.573 351.446C746.708 351.775 746.906 352.074 747.157 352.326C747.408 352.577 747.706 352.777 748.034 352.913C748.363 353.05 748.715 353.12 749.07 353.12H768.3C768.572 353.13 768.841 353.058 769.071 352.913C769.302 352.768 769.483 352.557 769.591 352.307C769.699 352.057 769.729 351.781 769.677 351.514C769.625 351.246 769.494 351.001 769.3 350.81C768.44 349.95 764.63 347.96 761.85 346.81C755.98 344.43 753.19 344.22 753.19 344.22L746.37 343.63Z" fill="#1F1341" />
			<path d="M724 276.34L745.69 345.44H758.2C758.2 345.44 753.27 310.92 746.96 276.23" fill="#842857" />
			<path d="M719 343.63V350.41C718.999 350.765 719.068 351.117 719.203 351.446C719.338 351.775 719.536 352.074 719.787 352.326C720.038 352.577 720.336 352.777 720.664 352.913C720.993 353.05 721.345 353.12 721.7 353.12H740.93C741.197 353.118 741.457 353.037 741.678 352.887C741.899 352.738 742.071 352.526 742.171 352.279C742.272 352.032 742.297 351.76 742.243 351.499C742.19 351.237 742.06 350.998 741.87 350.81C741.02 349.95 737.21 347.96 734.43 346.81C728.56 344.43 725.76 344.22 725.76 344.22L719 343.63Z" fill="#1F1341" />
			<path d="M696.55 276.34L718.25 345.44H730.79C730.79 345.44 725.85 310.92 719.55 276.23" fill="#842857" />
			<path d="M824.14 248.47H670.48V301.67H824.14V248.47Z" fill="#F5CD95" />
			<path d="M824.48 248.47H670.14V285.32L824.48 273.55V248.47Z" fill="url(#paint4_linear_26_4)" />
		</g>
		<g class="svgIcon svgIcon4" style="opacity: 0; transform:translateY(0.63rem); transition-delay: 0.8s; transition-property: all; transition-duration: 0.5s; transition-timing-function: ease;">
			<path d="M315.65 205.94C315.65 205.94 312.7 203.19 309.9 203.94C307.1 204.69 307.41 209.27 308.35 210.29C308.94 210.75 309.618 211.086 310.341 211.279C311.064 211.471 311.819 211.516 312.56 211.41C314.26 211.16 315.75 211.41 316.08 211.2C316.78 210.79 316.67 206.93 315.65 205.94Z" fill="#F0AC95" />
			<path d="M349.1 176.26L340.37 203.58L315.07 204.38V211.93C315.07 211.93 347.61 220.28 352.07 215.93" fill="#E30313" />
			<path d="M315.07 207.63C315.07 207.63 338.86 213.24 342.07 211.46C345.28 209.68 343.44 214.97 343.44 214.97L341.09 216.9C341.09 216.9 319.66 214.01 315.09 211.9L315.07 207.63Z" fill="#AD1917" />
			<path d="M335.7 322.88L334.44 328.33C334.375 328.616 334.254 328.886 334.085 329.125C333.916 329.364 333.701 329.567 333.453 329.723C333.205 329.879 332.929 329.985 332.64 330.034C332.351 330.083 332.056 330.075 331.77 330.01L316.32 326.44C316.115 326.383 315.93 326.269 315.787 326.111C315.644 325.953 315.55 325.758 315.514 325.548C315.478 325.338 315.503 325.123 315.586 324.926C315.668 324.73 315.805 324.561 315.98 324.44C318.138 323.567 320.395 322.959 322.7 322.63C325.151 322.137 327.656 321.976 330.15 322.15L335.7 322.88Z" fill="#1F1341" />
			<path d="M336.54 322.88L335.28 328.33C335.146 328.906 334.791 329.405 334.291 329.72C333.791 330.034 333.187 330.139 332.61 330.01L317.15 326.44C316.945 326.382 316.762 326.267 316.62 326.109C316.478 325.95 316.385 325.754 316.35 325.545C316.316 325.335 316.341 325.12 316.425 324.924C316.508 324.728 316.645 324.561 316.82 324.44C318.978 323.567 321.235 322.959 323.54 322.63C325.991 322.137 328.496 321.976 330.99 322.15L336.54 322.88Z" fill="#54579C" />
			<path d="M404.07 317.44L406.07 322.66C406.282 323.212 406.266 323.825 406.026 324.365C405.786 324.905 405.341 325.327 404.79 325.54L390 331.23C389.794 331.31 389.568 331.327 389.352 331.278C389.137 331.229 388.94 331.117 388.789 330.956C388.637 330.794 388.537 330.592 388.502 330.373C388.467 330.155 388.497 329.931 388.59 329.73C389.889 327.797 391.421 326.03 393.15 324.47C394.902 322.688 396.887 321.151 399.05 319.9L404.07 317.44Z" fill="#54579C" />
			<path d="M351.25 155.27C351.25 155.27 346.41 174.49 356.53 173.62C366.65 172.75 365.53 162.7 365.53 162.7" fill="#F07F35" />
			<path d="M353.4 170.14L345.45 181.45V192.75L332.73 263.6L376.74 264.83L366.81 181.45L353.4 170.14Z" fill="#990D0D" />
			<path d="M372.34 221.69C373.227 224.853 373.457 228.164 373.017 231.42C372.576 234.675 371.475 237.806 369.78 240.62C364 250.37 348.2 274.56 347.48 277.45C347.21 278.52 347.11 285.1 345.19 293.07C341.96 306.48 336.35 323.63 336.35 323.63L327.28 322L334.51 270L345.23 225L372.34 221.69Z" fill="#F3A2C5" />
			<path d="M357.1 169.36L355.54 163C355.54 163 351.38 163.47 350.68 163C349.58 162.26 346.68 148.28 349.79 144.86C352.9 141.44 360.35 140.69 363.47 145.75C366.59 150.81 364.81 160.75 364.81 160.75L365.81 165.23" fill="#F7B29A" />
			<path d="M368.85 166.27L365.5 162.7L353.4 167.7V174.07C353.4 174.07 346.53 184.21 345.84 189.55C345.15 194.89 348.97 205.55 348.84 208.68C348.71 211.81 345.21 225.12 345.21 225.12L368.83 222.12L368.85 166.27Z" fill="#A2AFF9" />
			<path d="M359.44 239.26L368.35 273.43C369.512 277.329 371.07 281.099 373 284.68L396.87 321.34L404.1 317.44L387 274.85L379.65 235.68" fill="#F3A2C5" />
			<path d="M378.19 177.23L368.85 166.23L357.85 171.71C357.85 171.71 364.62 246.45 378.15 269.01L395.55 266.75C395.55 266.75 378.15 214.56 378.15 206.83L378.19 177.23Z" fill="#E30313" />
			<path d="M380.42 217.66L378.19 198.12L368.85 192.44C368.85 192.44 371.73 214.01 380.85 219.44" fill="#990D0D" />
			<path d="M403.88 241.47C403.88 241.47 411 258 416.16 274.38C418.38 281.47 418.3 285.09 416.77 287.62C412.68 294.42 392.19 289.16 390.34 286.98C384.63 280.25 393.34 245.04 398.95 240.98C400.5 239.86 403.88 241.47 403.88 241.47Z" fill="#A7D07D" />
			<path d="M400.79 239.13C400.79 239.13 407.98 251.5 406.08 253.61C404.56 255.3 396.08 251.36 396.8 245.94C397.21 242.76 400.79 239.13 400.79 239.13Z" fill="white" />
			<path d="M395.91 237.46C395.91 237.46 395.37 243.63 396.6 245.18C397.35 246.11 399.92 247.28 401.38 245.12C402.84 242.96 395.91 237.46 395.91 237.46Z" fill="#F7B29A" />
			<path d="M395.79 252.14C395.597 252.139 395.408 252.081 395.246 251.975C395.085 251.868 394.957 251.717 394.88 251.54C394.07 249.71 396.08 243.68 398.21 242.74C398.448 242.65 398.712 242.654 398.947 242.751C399.182 242.849 399.371 243.032 399.476 243.265C399.58 243.497 399.592 243.76 399.509 244.001C399.427 244.241 399.255 244.441 399.03 244.56C397.74 245.32 396.34 249.91 396.71 250.74C396.763 250.861 396.792 250.991 396.794 251.123C396.797 251.254 396.773 251.385 396.725 251.508C396.676 251.631 396.604 251.743 396.512 251.837C396.421 251.932 396.311 252.008 396.19 252.06C396.063 252.111 395.927 252.138 395.79 252.14V252.14Z" fill="#A7D07D" />
			<path d="M401.62 232.46L394.51 234.57C394.51 234.57 397.44 241.57 398.22 243.62C399 245.67 399.09 247.06 402.78 245.2C405.48 243.85 405.07 241.88 405.07 241.88C404.293 238.616 403.135 235.454 401.62 232.46V232.46Z" fill="#F7B29A" />
			<path d="M372.61 170.89C372.61 170.89 381.52 178.89 387.48 194.89C392.65 208.78 403.69 234.4 403.69 234.4L394.8 237.84C394.8 237.84 384.44 220.14 383 214.52C381.56 208.9 366.59 192.88 366.79 186.6C366.912 182.853 368.345 179.268 370.84 176.47" fill="#E30313" />
			<path d="M352.08 142.82C352.08 142.82 358.59 139.64 363.7 142.16C368.81 144.68 370.6 155.5 376.7 159.6C382.8 163.7 386.88 167.39 386.88 173.2C386.88 179.01 378.97 183.4 370.52 183.4C362.07 183.4 356.52 153.05 356.52 153.05" fill="#F07F35" />
			<path d="M365.24 156.93C353.41 156.31 348.49 148.38 348.49 148.38C348.49 148.38 349.27 141.3 357.89 141.3C366.51 141.3 365.24 156.93 365.24 156.93Z" fill="#F07F35" />
			<path d="M362.81 252.4L360.05 243.35L350.72 271.41L362.81 252.4Z" fill="#B84B7A" />
			<path d="M302.85 202.15L301.45 201.73C301.354 201.701 301.253 201.692 301.154 201.704C301.055 201.715 300.959 201.747 300.872 201.796C300.785 201.846 300.709 201.912 300.648 201.992C300.588 202.072 300.544 202.163 300.52 202.26C300.482 202.407 300.489 202.562 300.541 202.705C300.592 202.848 300.686 202.972 300.81 203.06L302.68 204.36" fill="#F0AC95" />
			<path d="M309.6 214.38L305.6 214.96C305.225 215.034 304.836 214.957 304.517 214.745C304.199 214.533 303.977 214.204 303.9 213.83L301.6 198.13C301.567 197.75 301.684 197.372 301.928 197.078C302.171 196.784 302.52 196.598 302.9 196.56L306.9 195.98C307.274 195.906 307.662 195.982 307.98 196.192C308.298 196.401 308.521 196.727 308.6 197.1L310.9 212.81C310.933 213.19 310.816 213.568 310.572 213.862C310.329 214.156 309.98 214.342 309.6 214.38V214.38Z" fill="#76C8D8" />
			<path d="M303.5 210.88L310.14 209.88H310.47L309.66 204.38H309.33L302.69 205.38L303.5 210.88Z" fill="#DFE1E8" />
			<path d="M301.67 197.58L303.14 194.39L305.8 194L308.38 196.57L301.67 197.58Z" fill="#76C8D8" />
			<path d="M305.641 192.794L303.009 193.18L303.183 194.367L305.815 193.981L305.641 192.794Z" fill="#76C8D8" />
			<path d="M312.78 204.18C312.78 204.18 309.78 201.61 309.26 201.18C308.61 200.66 308.08 201.7 308.51 202.57C308.977 203.426 309.555 204.216 310.23 204.92" fill="#F0AC95" />
		</g>
		<g class="svgIcon svgIcon2" style="opacity: 0; transform:translateY(0.63rem); transition-delay: 0.4s; transition-property: all; transition-duration: 0.5s; transition-timing-function: ease;">
			<path id="05" d="M469.037 304.627C461.145 304.627 454.422 302.479 448.869 298.184C443.317 293.853 439.074 287.585 436.14 279.378C433.207 271.137 431.74 261.184 431.74 249.52C431.74 237.926 433.207 228.025 436.14 219.819C439.109 211.577 443.369 205.291 448.922 200.961C454.509 196.596 461.214 194.413 469.037 194.413C476.859 194.413 483.547 196.596 489.099 200.961C494.687 205.291 498.947 211.577 501.881 219.819C504.849 228.025 506.333 237.926 506.333 249.52C506.333 261.184 504.867 271.137 501.933 279.378C499 287.585 494.757 293.853 489.204 298.184C483.652 302.479 476.929 304.627 469.037 304.627ZM469.037 293.102C476.859 293.102 482.936 289.331 487.266 281.788C491.596 274.245 493.762 263.489 493.762 249.52C493.762 240.231 492.766 232.321 490.776 225.79C488.82 219.26 485.991 214.284 482.29 210.861C478.623 207.439 474.205 205.728 469.037 205.728C461.284 205.728 455.225 209.552 450.86 217.2C446.495 224.813 444.312 235.586 444.312 249.52C444.312 258.809 445.29 266.701 447.246 273.197C449.201 279.692 452.012 284.634 455.679 288.021C459.381 291.409 463.834 293.102 469.037 293.102ZM559.764 304.627C553.618 304.627 548.083 303.404 543.159 300.96C538.235 298.515 534.288 295.163 531.32 290.902C528.352 286.642 526.728 281.788 526.448 276.34H539.02C539.509 281.194 541.709 285.21 545.621 288.388C549.567 291.531 554.281 293.102 559.764 293.102C564.164 293.102 568.075 292.072 571.498 290.012C574.955 287.951 577.661 285.123 579.617 281.526C581.608 277.894 582.603 273.791 582.603 269.216C582.603 264.536 581.573 260.363 579.512 256.696C577.487 252.995 574.693 250.079 571.131 247.948C567.569 245.818 563.501 244.736 558.926 244.701C555.643 244.666 552.273 245.172 548.816 246.22C545.359 247.233 542.513 248.542 540.278 250.149L528.125 248.682L534.62 195.88H590.355V207.404H545.516L541.744 239.043H542.373C544.573 237.297 547.332 235.848 550.649 234.696C553.967 233.543 557.424 232.967 561.021 232.967C567.586 232.967 573.436 234.538 578.569 237.681C583.738 240.789 587.789 245.05 590.722 250.463C593.691 255.876 595.175 262.057 595.175 269.006C595.175 275.851 593.638 281.962 590.565 287.34C587.527 292.683 583.336 296.909 577.993 300.017C572.65 303.09 566.574 304.627 559.764 304.627Z" fill="#B9C0D5" />
		</g>
		<g class="svgIcon svgIcon10" style="opacity: 0; transform:translateY(0.63rem); transition-delay: 3s; transition-property: all; transition-duration: 0.5s; transition-timing-function: ease;">
			<path d="M49.88 123.62C57.2751 123.62 63.27 117.625 63.27 110.23C63.27 102.835 57.2751 96.8401 49.88 96.8401C42.4849 96.8401 36.49 102.835 36.49 110.23C36.49 117.625 42.4849 123.62 49.88 123.62Z" fill="#E30313" />
			<path d="M43.42 115.03H5.5C2.46243 115.03 0 117.492 0 120.53V169.18C0 172.218 2.46243 174.68 5.5 174.68H43.42C46.4576 174.68 48.92 172.218 48.92 169.18V120.53C48.92 117.492 46.4576 115.03 43.42 115.03Z" fill="#DFE1E8" />
			<path d="M7.81 158.83H29.84" stroke="white" stroke-width="2" stroke-linecap="round" stroke-linejoin="round" />
			<path d="M7.81 152.48H29.84" stroke="white" stroke-width="2" stroke-linecap="round" stroke-linejoin="round" />
		</g>
		<g class="svgIcon svgIcon6" style="opacity: 0; transform:translateY(0.63rem); transition-delay: 1.4s; transition-property: all; transition-duration: 0.5s; transition-timing-function: ease;">
			<path d="M166.39 419.11C174.15 419.11 180.44 412.82 180.44 405.06C180.44 397.3 174.15 391.01 166.39 391.01C158.63 391.01 152.34 397.3 152.34 405.06C152.34 412.82 158.63 419.11 166.39 419.11Z" fill="#A7D07D" />
		</g>
		<g class="svgIcon svgIcon9" style="opacity: 0; transform:translateY(0.63rem); transition-delay: 2.6s; transition-property: all; transition-duration: 0.5s; transition-timing-function: ease;">
			<path d="M302.69 54.12C317.635 54.12 329.75 42.0048 329.75 27.06C329.75 12.1152 317.635 0 302.69 0C287.745 0 275.63 12.1152 275.63 27.06C275.63 42.0048 287.745 54.12 302.69 54.12Z" fill="#DFE1E8" />
			<path d="M289.19 19.9999L289.63 36.2399C289.63 36.4172 289.669 36.5923 289.744 36.7527C289.819 36.9131 289.93 37.0549 290.066 37.1677C290.203 37.2805 290.363 37.3617 290.535 37.4053C290.707 37.4489 290.886 37.4539 291.06 37.4199L317.63 34.2199C317.908 34.1709 318.161 34.026 318.343 33.8105C318.526 33.595 318.627 33.3224 318.63 33.0399V23.9999C318.63 23.7157 318.529 23.4407 318.346 23.2231C318.163 23.0055 317.91 22.8592 317.63 22.8099L290.63 18.8699C290.459 18.8349 290.283 18.8375 290.114 18.8775C289.944 18.9175 289.785 18.9939 289.648 19.1014C289.511 19.2089 289.399 19.345 289.32 19.5002C289.241 19.6553 289.197 19.8258 289.19 19.9999V19.9999Z" stroke="white" stroke-width="2" stroke-linecap="round" stroke-linejoin="round" />
			<path d="M289.63 19.0999L300.82 13.6599L318.25 23.1299" stroke="white" stroke-width="2" stroke-linecap="round" stroke-linejoin="round" />
			<path d="M295.46 28.77C296.913 28.77 298.09 27.5925 298.09 26.14C298.09 24.6875 296.913 23.51 295.46 23.51C294.007 23.51 292.83 24.6875 292.83 26.14C292.83 27.5925 294.007 28.77 295.46 28.77Z" stroke="white" stroke-width="2" stroke-linecap="round" stroke-linejoin="round" />
			<path d="M303.71 35.5899C303.267 35.2319 302.94 34.7515 302.768 34.2087C302.597 33.6658 302.589 33.0845 302.746 32.5371C302.902 31.9898 303.216 31.5007 303.649 31.1307C304.082 30.7608 304.614 30.5264 305.179 30.4568C305.744 30.3872 306.317 30.4855 306.827 30.7393C307.336 30.9932 307.76 31.3914 308.045 31.8843C308.33 32.3773 308.463 32.9432 308.428 33.5114C308.394 34.0797 308.193 34.6252 307.85 35.0799" stroke="white" stroke-width="2" stroke-linecap="round" stroke-linejoin="round" />
			<path d="M315 22.6199C315.197 23.0145 315.299 23.4491 315.3 23.8899C315.3 24.3638 315.184 24.8305 314.962 25.2491C314.74 25.6678 314.418 26.0256 314.026 26.2913C313.633 26.557 313.182 26.7224 312.711 26.7732C312.239 26.824 311.763 26.7585 311.323 26.5825C310.883 26.4065 310.493 26.1253 310.187 25.7636C309.88 25.4019 309.667 24.9706 309.567 24.5076C309.466 24.0445 309.48 23.5638 309.608 23.1075C309.735 22.6511 309.973 22.2331 310.3 21.8899" stroke="white" stroke-width="2" stroke-linecap="round" stroke-linejoin="round" />
			<path d="M266.72 27.0601H215.18" stroke="#E30313" stroke-width="2" stroke-linecap="round" stroke-linejoin="round" />
		</g>
		<g class="svgIcon svgIcon8" style="opacity: 0; transform:translateY(0.63rem); transition-delay: 2.2s; transition-property: all; transition-duration: 0.5s; transition-timing-function: ease;">
			<path d="M1360.34 297.38C1377.53 297.38 1391.47 283.443 1391.47 266.25C1391.47 249.057 1377.53 235.12 1360.34 235.12C1343.15 235.12 1329.21 249.057 1329.21 266.25C1329.21 283.443 1343.15 297.38 1360.34 297.38Z" fill="#DFE1E8" />
			<path d="M1360.34 269.57C1365.45 269.57 1369.6 265.424 1369.6 260.31C1369.6 255.196 1365.45 251.05 1360.34 251.05C1355.23 251.05 1351.08 255.196 1351.08 260.31C1351.08 265.424 1355.23 269.57 1360.34 269.57Z" stroke="white" stroke-width="2" stroke-linecap="round" stroke-linejoin="round" />
			<path d="M1380.67 286C1378.13 283.095 1375 280.767 1371.48 279.175C1367.97 277.582 1364.15 276.762 1360.29 276.768C1356.44 276.775 1352.62 277.609 1349.11 279.213C1345.6 280.818 1342.48 283.156 1339.95 286.07" stroke="white" stroke-width="2" stroke-linecap="round" stroke-linejoin="round" />
		</g>
		<g class="svgIcon svgIcon7" style="opacity: 0; transform:translateY(0.63rem); transition-delay: 1.8s; transition-property: all; transition-duration: 0.5s; transition-timing-function: ease;">
			<path d="M1269.14 0.0500488H1180.26C1177.21 0.0500488 1174.74 2.52144 1174.74 5.57005V42.2401C1174.74 45.2887 1177.21 47.76 1180.26 47.76H1269.14C1272.19 47.76 1274.66 45.2887 1274.66 42.2401V5.57005C1274.66 2.52144 1272.19 0.0500488 1269.14 0.0500488Z" fill="#DFE1E8" />
			<path d="M1193.84 13.3H1185.87C1184.98 13.3 1184.25 14.0253 1184.25 14.92V34.1C1184.25 34.9947 1184.98 35.7201 1185.87 35.7201H1193.84C1194.73 35.7201 1195.46 34.9947 1195.46 34.1V14.92C1195.46 14.0253 1194.73 13.3 1193.84 13.3Z" fill="#A7D07D" />
			<path d="M1212.03 24.51H1204.06C1203.17 24.51 1202.44 25.2353 1202.44 26.13V34.1C1202.44 34.9947 1203.17 35.72 1204.06 35.72H1212.03C1212.92 35.72 1213.65 34.9947 1213.65 34.1V26.13C1213.65 25.2353 1212.92 24.51 1212.03 24.51Z" fill="#A7D07D" />
			<path d="M1248.39 15.45H1240.42C1239.53 15.45 1238.8 16.1752 1238.8 17.07V34.09C1238.8 34.9847 1239.53 35.7099 1240.42 35.7099H1248.39C1249.28 35.7099 1250.01 34.9847 1250.01 34.09V17.07C1250.01 16.1752 1249.28 15.45 1248.39 15.45Z" fill="#A7D07D" />
			<path d="M1266.58 24.51H1258.61C1257.72 24.51 1256.99 25.2353 1256.99 26.13V34.1C1256.99 34.9947 1257.72 35.72 1258.61 35.72H1266.58C1267.47 35.72 1268.2 34.9947 1268.2 34.1V26.13C1268.2 25.2353 1267.47 24.51 1266.58 24.51Z" fill="#A7D07D" />
			<path d="M1230.21 13.3H1222.24C1221.35 13.3 1220.62 14.0253 1220.62 14.92V34.1C1220.62 34.9947 1221.35 35.7201 1222.24 35.7201H1230.21C1231.1 35.7201 1231.83 34.9947 1231.83 34.1V14.92C1231.83 14.0253 1231.1 13.3 1230.21 13.3Z" fill="#A7D07D" />
			<path d="M1132.66 40.3C1141.38 40.3 1148.45 33.2305 1148.45 24.51C1148.45 15.7894 1141.38 8.71997 1132.66 8.71997C1123.94 8.71997 1116.87 15.7894 1116.87 24.51C1116.87 33.2305 1123.94 40.3 1132.66 40.3Z" fill="#DFE1E8" />
			<path d="M1125.42 24.8301L1131.94 30.9401L1139.89 18.0801" stroke="white" stroke-width="2" stroke-linecap="round" stroke-linejoin="round" />
		</g>
	</g>
	<defs>
		<linearGradient id="paint0_linear_26_4" x1="1159.88" y1="205.7" x2="1002.91" y2="219.97" gradientUnits="userSpaceOnUse">
			<stop offset="0.41" stop-color="#656DD6" />
			<stop offset="0.64" stop-color="#322767" />
		</linearGradient>
		<linearGradient id="paint1_linear_26_4" x1="1060.45" y1="282.37" x2="1059.9" y2="344.96" gradientUnits="userSpaceOnUse">
			<stop offset="0.16" stop-color="#656DD6" />
			<stop offset="0.64" stop-color="#A2AFF9" />
		</linearGradient>
		<linearGradient id="paint2_linear_26_4" x1="1197.88" y1="282.51" x2="719.41" y2="87.6198" gradientUnits="userSpaceOnUse">
			<stop offset="0.41" stop-color="#656DD6" />
			<stop offset="0.64" stop-color="#322767" />
		</linearGradient>
		<linearGradient id="paint3_linear_26_4" x1="769.87" y1="216.02" x2="806.88" y2="218.66" gradientUnits="userSpaceOnUse">
			<stop offset="0.41" stop-color="#656DD6" />
			<stop offset="0.64" stop-color="#322767" />
		</linearGradient>
		<linearGradient id="paint4_linear_26_4" x1="747.64" y1="302.61" x2="747.13" y2="247.24" gradientUnits="userSpaceOnUse">
			<stop offset="0.46" stop-color="#F4CC93" />
			<stop offset="1" stop-color="#C79D5B" />
		</linearGradient>
	</defs>
</svg>
